<svg id="图层_1" data-name="图层 1" xmlns="http://www.w3.org/2000/svg" viewBox="0 0 738.27734 226.4227">
  <defs>
    <style>
      .cls-1 {
        fill: none;
        stroke: #000;
        stroke-miterlimit: 10;
        stroke-width: 2px;
      }
    </style>
  </defs>
  <title>[OPTSx1890]_Mechanism</title>
  <g>
    <path d="M101.74219,214.16113h-2.231v-8.26367h2.03906c1.45117,0,2.92627.46777,2.92627,2.08692a1.81175,1.81175,0,0,1-1.54736,1.7998,1.96908,1.96908,0,0,1,1.90723,2.02637C104.83643,213.60938,103.25293,214.16113,101.74219,214.16113ZM101.79,206.749h-1.23535v2.66309h1.33105c.97168,0,1.52344-.4082,1.52344-1.36719C103.40918,207.09766,102.78564,206.749,101.79,206.749Zm.168,3.52637h-1.40332v3.02246h1.36719c.80371,0,1.811-.22754,1.811-1.45117C103.73291,210.58691,102.9292,210.27539,101.958,210.27539Z" transform="translate(148.00781 9.7186)"/>
    <path d="M109.22949,212.60254c0,.62305.43164.85156,1.04346.85156a2.91608,2.91608,0,0,0,1.05566-.21582l.26368.73145a3.23992,3.23992,0,0,1-1.499.32324,1.6868,1.6868,0,0,1-1.87109-1.73828v-6.45313H106.2793v-.80371h2.95019Z" transform="translate(148.00781 9.7186)"/>
    <path d="M119.07959,210.99512c0,1.94336-.95947,3.29785-2.72217,3.29785-1.77539,0-2.72265-1.29492-2.72265-3.28613,0-1.94239.95947-3.29786,2.73437-3.29786C118.14453,207.709,119.07959,209.00391,119.07959,210.99512Zm-4.35352.01172c0,1.67968.54,2.459,1.63135,2.459s1.63086-.7793,1.63086-2.4707c0-1.667-.53955-2.459-1.61914-2.459C115.27783,208.53613,114.72607,209.32813,114.72607,211.00684Z" transform="translate(148.00781 9.7186)"/>
    <path d="M126.2793,210.99512c0,1.94336-.95948,3.29785-2.72217,3.29785-1.7749,0-2.72266-1.29492-2.72266-3.28613,0-1.94239.95948-3.29786,2.73438-3.29786C125.34424,207.709,126.2793,209.00391,126.2793,210.99512Zm-4.35352.01172c0,1.67968.54,2.459,1.63135,2.459s1.63086-.7793,1.63086-2.4707c0-1.667-.53955-2.459-1.61914-2.459C122.47754,208.53613,121.92578,209.32813,121.92578,211.00684Z" transform="translate(148.00781 9.7186)"/>
    <path d="M133.15527,205.29785v8.86328h-.8872l-.09619-.82715a2.13235,2.13235,0,0,1-1.78711.959c-1.65479,0-2.41065-1.31934-2.41065-3.28613,0-1.89454.92383-3.29786,2.4707-3.29786a2.13064,2.13064,0,0,1,1.70313.75586v-3.28613Zm-4.08984,5.709c0,1.64355.52783,2.48242,1.52344,2.48242a1.90124,1.90124,0,0,0,1.55908-1.00684v-3.14258a1.71445,1.71445,0,0,0-1.439-.81543C129.66553,208.52441,129.06543,209.33984,129.06543,211.00684Z" transform="translate(148.00781 9.7186)"/>
    <path d="M147.80664,213.58594l-.25195.71972a1.25542,1.25542,0,0,1-1.15137-.89941,2.42143,2.42143,0,0,1-1.979.88672,1.85309,1.85309,0,0,1-2.03858-1.94238c0-1.2959,1.04346-2.02735,2.9502-2.02735h.93554v-.51562c0-.92383-.56347-1.25879-1.499-1.25879a5.172,5.172,0,0,0-1.64307.32324l-.27587-.76758a6.17412,6.17412,0,0,1,2.0747-.39551c1.57129,0,2.3628.791,2.3628,2.03907v3.03418C147.291,213.28613,147.44678,213.47754,147.80664,213.58594Zm-1.53516-.94727v-1.61914h-.91162c-1.39111,0-1.895.50293-1.895,1.31836a1.06112,1.06112,0,0,0,1.21143,1.2002A1.93329,1.93329,0,0,0,146.27148,212.63867Z" transform="translate(148.00781 9.7186)"/>
    <path d="M149.957,207.84082h.86377l.084.8877a2.74438,2.74438,0,0,1,2.08691-1.01954c1.23486,0,1.7749.69532,1.7749,1.8711v4.58105h-1.00732v-3.83789c0-1.29492-.13233-1.81054-1.07959-1.81054a2.22061,2.22061,0,0,0-1.71485,1.05566v4.59277H149.957Z" transform="translate(148.00781 9.7186)"/>
    <path d="M161.9541,205.29785v8.86328h-.88721l-.09619-.82715a2.13233,2.13233,0,0,1-1.78711.959c-1.65478,0-2.41064-1.31934-2.41064-3.28613,0-1.89454.92383-3.29786,2.4707-3.29786a2.13064,2.13064,0,0,1,1.70313.75586v-3.28613Zm-4.08984,5.709c0,1.64355.52783,2.48242,1.52344,2.48242a1.90124,1.90124,0,0,0,1.55908-1.00684v-3.14258a1.71446,1.71446,0,0,0-1.439-.81543C158.46436,208.52441,157.86426,209.33984,157.86426,211.00684Z" transform="translate(148.00781 9.7186)"/>
    <path d="M177.04932,206.56934l-.58789.68359a2.57738,2.57738,0,0,0-1.73877-.61133c-1.34327,0-2.51856.86328-2.51856,3.38184,0,2.459,1.09131,3.38281,2.50635,3.38281a2.87847,2.87847,0,0,0,1.91894-.68457l.53956.67187a3.40347,3.40347,0,0,1-2.47022.89942c-2.01514,0-3.58643-1.48731-3.58643-4.26953s1.63135-4.25781,3.53809-4.25781A3.52971,3.52971,0,0,1,177.04932,206.56934Z" transform="translate(148.00781 9.7186)"/>
    <path d="M181.39453,213.4541a2.86158,2.86158,0,0,0,1.69092-.56445l.46777.67187a3.59975,3.59975,0,0,1-2.15869.73145c-1.84717,0-2.89062-1.31934-2.89062-3.28613,0-1.90625,1.06738-3.29786,2.74658-3.29786,1.59521,0,2.57861,1.1875,2.57861,3.10645,0,.21582-.01172.40723-.02392.53906h-4.24561C179.60742,212.81836,180.42285,213.4541,181.39453,213.4541Zm-1.835-2.86719h3.28613c-.02392-1.35449-.62353-2.05078-1.583-2.05078C180.32715,208.53613,179.64355,209.19629,179.55957,210.58691Z" transform="translate(148.00781 9.7186)"/>
    <path d="M191.11279,207.84082l-.144,2.14648h-.81543v-1.35449h-.06006c-.97119,0-1.667.69532-2.07471,2.08692v2.66211h1.28321v.77929h-3.28613v-.77929h.9956v-4.76172h-.9956v-.7793h1.751l.1919,1.499a2.3555,2.3555,0,0,1,2.26709-1.63086A3.27611,3.27611,0,0,1,191.11279,207.84082Z" transform="translate(148.00781 9.7186)"/>
    <path d="M195.794,213.4541a2.86153,2.86153,0,0,0,1.69091-.56445l.46778.67187a3.5998,3.5998,0,0,1-2.15869.73145c-1.84717,0-2.89063-1.31934-2.89063-3.28613,0-1.90625,1.06738-3.29786,2.74658-3.29786,1.59522,0,2.57862,1.1875,2.57862,3.10645,0,.21582-.01172.40723-.02393.53906H193.959C194.00684,212.81836,194.82227,213.4541,195.794,213.4541Zm-1.835-2.86719h3.28614c-.02393-1.35449-.62354-2.05078-1.583-2.05078C194.72656,208.53613,194.043,209.19629,193.959,210.58691Z" transform="translate(148.00781 9.7186)"/>
    <path d="M203.17334,207.709c1.6792,0,2.36279,1.30762,2.36279,3.28614,0,1.91894-.87549,3.29785-2.50634,3.29785a2.02943,2.02943,0,0,1-1.71534-.791l-.07177.65918h-.8877v-8.86328l1.00732-.11914V208.668A2.233,2.233,0,0,1,203.17334,207.709Zm1.27148,3.28614c0-1.64356-.51562-2.47071-1.499-2.47071a2.03421,2.03421,0,0,0-1.5835,1.00782v3.12988a1.69974,1.69974,0,0,0,1.43946.81543C203.84521,213.47754,204.44482,212.67383,204.44482,210.99512Z" transform="translate(148.00781 9.7186)"/>
    <path d="M212.71191,207.84082l-.144,2.14648h-.81543v-1.35449h-.06006c-.97119,0-1.667.69532-2.0747,2.08692v2.66211h1.2832v.77929h-3.28613v-.77929h.9956v-4.76172h-.9956v-.7793h1.751l.1919,1.499a2.35534,2.35534,0,0,1,2.2666-1.63086A3.27679,3.27679,0,0,1,212.71191,207.84082Z" transform="translate(148.00781 9.7186)"/>
    <path d="M219.87549,210.99512c0,1.94336-.95947,3.29785-2.72217,3.29785-1.77539,0-2.72266-1.29492-2.72266-3.28613,0-1.94239.95948-3.29786,2.73438-3.29786C218.94043,207.709,219.87549,209.00391,219.87549,210.99512Zm-4.35352.01172c0,1.67968.54,2.459,1.63135,2.459s1.63086-.7793,1.63086-2.4707c0-1.667-.53955-2.459-1.61914-2.459C216.07373,208.53613,215.522,209.32813,215.522,211.00684Z" transform="translate(148.00781 9.7186)"/>
    <path d="M225.67236,212.458c0-.56348-.18017-.86328-1.52343-1.19922-1.30713-.32324-2.1587-.71973-2.1587-1.82324,0-1.05469.97168-1.72657,2.39844-1.72657a3.86263,3.86263,0,0,1,2.30274.69532l-.45557.69629a2.997,2.997,0,0,0-1.82275-.57618c-1.00782,0-1.36768.34766-1.36768.82715,0,.57617.396.76758,1.66748,1.11621,1.23535.335,2.05078.76758,2.05078,1.94239,0,1.35547-1.30762,1.88281-2.65039,1.88281a3.619,3.619,0,0,1-2.4707-.85156l.56347-.65918a3.00554,3.00554,0,0,0,1.90723.68359C225.08447,213.46582,225.67236,213.07031,225.67236,212.458Z" transform="translate(148.00781 9.7186)"/>
    <path d="M234.2749,210.99512c0,1.91894-.7915,3.29785-2.43457,3.29785a2.1417,2.1417,0,0,1-1.6792-.71973V216.584l-1.00732.12012v-8.86328h.86377l.084.8877a2.279,2.279,0,0,1,1.88282-1.01954C233.66357,207.709,234.2749,209.0166,234.2749,210.99512Zm-4.11377-1.46289v3.12988a1.73658,1.73658,0,0,0,1.45166.792c1.04346,0,1.5708-.78027,1.5708-2.459,0-1.64356-.44384-2.47071-1.439-2.47071A2.03421,2.03421,0,0,0,230.16113,209.53223Z" transform="translate(148.00781 9.7186)"/>
    <path d="M239.55566,213.35742h1.77539v.80371h-4.72558v-.80371h1.94287v-4.71289h-1.88281v-.80371h2.89013Zm-.05957-7.75976a.69655.69655,0,0,1-.74365.708.70762.70762,0,1,1,0-1.415A.69634.69634,0,0,1,239.49609,205.59766Z" transform="translate(148.00781 9.7186)"/>
    <path d="M243.55322,207.84082h.86377l.084.8877a2.74438,2.74438,0,0,1,2.08691-1.01954c1.23535,0,1.7749.69532,1.7749,1.8711v4.58105h-1.00732v-3.83789c0-1.29492-.13233-1.81054-1.07959-1.81054a2.22228,2.22228,0,0,0-1.71533,1.05566v4.59277h-1.00733Z" transform="translate(148.00781 9.7186)"/>
    <path d="M255.80225,213.58594l-.252.71972a1.2554,1.2554,0,0,1-1.15136-.89941,2.42143,2.42143,0,0,1-1.979.88672,1.85309,1.85309,0,0,1-2.03857-1.94238c0-1.2959,1.04345-2.02735,2.95019-2.02735h.93555v-.51562c0-.92383-.56348-1.25879-1.499-1.25879a5.172,5.172,0,0,0-1.64307.32324l-.27588-.76758a6.17417,6.17417,0,0,1,2.07471-.39551c1.57129,0,2.36279.791,2.36279,2.03907v3.03418C255.28662,213.28613,255.44238,213.47754,255.80225,213.58594Zm-1.53516-.94727v-1.61914h-.91162c-1.39111,0-1.895.50293-1.895,1.31836a1.06112,1.06112,0,0,0,1.21143,1.2002A1.93264,1.93264,0,0,0,254.26709,212.63867Z" transform="translate(148.00781 9.7186)"/>
    <path d="M260.42334,212.60254c0,.62305.43164.85156,1.04346.85156a2.914,2.914,0,0,0,1.05566-.21582l.26367.73145a3.23984,3.23984,0,0,1-1.499.32324,1.6868,1.6868,0,0,1-1.87109-1.73828v-6.45313h-1.94288v-.80371h2.9502Z" transform="translate(148.00781 9.7186)"/>
    <path d="M273.85156,209.65137h3.2378v.83984h-3.2378v3.66992h-1.04345v-8.26367h4.86914l-.12012.86426h-3.70557Z" transform="translate(148.00781 9.7186)"/>
    <path d="M282.02246,212.60254c0,.62305.43164.85156,1.04395.85156a2.92028,2.92028,0,0,0,1.05566-.21582l.26367.73145a3.23988,3.23988,0,0,1-1.499.32324,1.68656,1.68656,0,0,1-1.87109-1.73828v-6.45313h-1.94336v-.80371h2.95019Z" transform="translate(148.00781 9.7186)"/>
    <path d="M287.75879,212.32617c0,.81543.33594,1.17578,1.06836,1.17578a2.17517,2.17517,0,0,0,1.71484-1.00781v-4.65332h1.00684v6.32031h-.86328l-.084-.85156a2.62593,2.62593,0,0,1-2.02636.9834,1.65,1.65,0,0,1-1.82325-1.8584v-4.59375h1.00684Z" transform="translate(148.00781 9.7186)"/>
    <path d="M297.15332,213.35742h1.77539v.80371h-4.72558v-.80371h1.94335v-4.71289H294.2627v-.80371h2.89062Zm-.05957-7.75976a.69669.69669,0,0,1-.74414.708.70762.70762,0,1,1,0-1.415A.69648.69648,0,0,1,297.09375,205.59766Z" transform="translate(148.00781 9.7186)"/>
    <path d="M305.94922,205.29785v8.86328h-.8877l-.0957-.82715a2.13234,2.13234,0,0,1-1.78711.959c-1.65527,0-2.41113-1.31934-2.41113-3.28613,0-1.89454.92383-3.29786,2.4707-3.29786a2.13064,2.13064,0,0,1,1.70313.75586v-3.28613Zm-4.08984,5.709c0,1.64355.52734,2.48242,1.52246,2.48242a1.902,1.902,0,0,0,1.55957-1.00684v-3.14258a1.71464,1.71464,0,0,0-1.43946-.81543C302.459,208.52441,301.85938,209.33984,301.85938,211.00684Z" transform="translate(148.00781 9.7186)"/>
  </g>
  <g>
    <path d="M202.758-9.7186a100,100,0,1,0,100,100,100,100,0,0,0-100-100Zm-4.66667,180.95238a85.71428,85.71428,0,1,1,85.619-85.80952A85.71429,85.71429,0,0,1,198.09128,171.23378Z" transform="translate(148.00781 9.7186)"/>
    <path d="M291.09128,96.63378c0-10.55238-45.83809-21.95238-89.33333,0-43.49524,21.9619-84.74286,0-89.23809,0,1.57142,47.14286,41.50476,84.13334,89.23809,82.64762C249.51033,180.76712,289.47223,143.79569,291.09128,96.63378Z" transform="translate(148.00781 9.7186)"/>
  </g>
  <circle cx="124.89772" cy="62.54853" r="5.35059"/>
  <circle cx="152.10845" cy="74.58047" r="5.35059"/>
  <circle cx="124.89772" cy="89.29903" r="5.35059"/>
  <circle cx="141.40727" cy="51.84735" r="5.35059"/>
  <circle cx="172.00309" cy="55.85463" r="5.35059"/>
  <circle cx="152.10845" cy="94.64962" r="5.35059"/>
  <g>
    <path d="M-74.145,115.83594l-.65967,2.11084h-1.03174l2.69873-8.26367h1.31934l2.68652,8.26367h-1.07959l-.65966-2.11084Zm2.99805-.86377-1.355-4.40137-1.36719,4.40137Z" transform="translate(148.00781 9.7186)"/>
    <path d="M-62.292,113.24561v4.70117h-.92383v-4.53369c0-.80323-.03564-1.12745-.4917-1.12745a1.3411,1.3411,0,0,0-1.103.75586v4.90528h-.93554v-4.53369c0-.80323-.03614-1.12745-.4917-1.12745a1.32669,1.32669,0,0,0-1.10352.75586v4.90528h-.92334v-6.32032h.7793l.07226.74317a1.63321,1.63321,0,0,1,1.36719-.87549,1.08953,1.08953,0,0,1,1.13916.83984,1.6268,1.6268,0,0,1,1.39111-.83984C-62.90381,111.49414-62.292,111.794-62.292,113.24561Z" transform="translate(148.00781 9.7186)"/>
    <path d="M-57.27539,117.14307H-55.5v.80371h-4.72559v-.80371h1.94288v-4.71338h-1.88282v-.80323h2.89014Zm-.05957-7.75977a.69656.69656,0,0,1-.74365.708.68323.68323,0,0,1-.71973-.708.68311.68311,0,0,1,.71973-.70752A.69645.69645,0,0,1-57.335,109.3833Z" transform="translate(148.00781 9.7186)"/>
    <path d="M-53.27783,111.62646h.86377l.084.88721a2.74443,2.74443,0,0,1,2.08692-1.01953c1.23535,0,1.7749.6958,1.7749,1.87109v4.58155h-1.00733v-3.83789c0-1.29541-.13232-1.811-1.07959-1.811a2.22231,2.22231,0,0,0-1.71533,1.05567v4.59326h-1.00732Z" transform="translate(148.00781 9.7186)"/>
    <path d="M-40.957,114.78076c0,1.94287-.95947,3.29785-2.72217,3.29785-1.7749,0-2.72266-1.29541-2.72266-3.28613,0-1.94287.95948-3.29834,2.73438-3.29834C-41.89209,111.49414-40.957,112.78955-40.957,114.78076Zm-4.35352.01172c0,1.6792.54,2.4585,1.63135,2.4585s1.63086-.7793,1.63086-2.47022c0-1.66748-.53955-2.459-1.61914-2.459C-44.75879,112.32178-45.31055,113.11328-45.31055,114.79248Z" transform="translate(148.00781 9.7186)"/>
    <path d="M-30.94678,115.83594l-.65967,2.11084h-1.03173l2.69873-8.26367h1.31933l2.68653,8.26367h-1.07959l-.65967-2.11084Zm2.998-.86377-1.355-4.40137-1.36719,4.40137Z" transform="translate(148.00781 9.7186)"/>
    <path d="M-19.96924,116.66357l.47949.65967a3.44459,3.44459,0,0,1-2.12255.75537c-1.895,0-2.97461-1.2832-2.97461-3.2622,0-1.895,1.0913-3.32227,2.97461-3.32227a3.1957,3.1957,0,0,1,2.11084.74365l-.4917.65967a2.89718,2.89718,0,0,0-1.63135-.55176c-1.09131,0-1.8711.80371-1.8711,2.47071,0,1.69091.79151,2.39892,1.88331,2.39892A2.87492,2.87492,0,0,0-19.96924,116.66357Z" transform="translate(148.00781 9.7186)"/>
    <path d="M-14.07715,117.14307h1.77539v.80371h-4.72558v-.80371h1.94287v-4.71338h-1.88282v-.80323h2.89014Zm-.05957-7.75977a.69655.69655,0,0,1-.74365.708.68323.68323,0,0,1-.71973-.708.68311.68311,0,0,1,.71973-.70752A.69645.69645,0,0,1-14.13672,109.3833Z" transform="translate(148.00781 9.7186)"/>
    <path d="M-5.28223,109.0835v8.86328h-.8872l-.0962-.82764a2.13164,2.13164,0,0,1-1.7871.95947c-1.65479,0-2.41065-1.31933-2.41065-3.28613,0-1.895.92383-3.29834,2.4707-3.29834a2.13211,2.13211,0,0,1,1.70313.75586v-3.28613Zm-4.08984,5.709c0,1.64307.52783,2.48242,1.52344,2.48242a1.90069,1.90069,0,0,0,1.55908-1.00732v-3.14209a1.71442,1.71442,0,0,0-1.439-.81543C-8.772,112.31006-9.37207,113.12549-9.37207,114.79248Z" transform="translate(148.00781 9.7186)"/>
    <path d="M7.22217,117.94678H6.17871V110.583H3.60059v-.8999H9.82471l-.10791.8999H7.22217Z" transform="translate(148.00781 9.7186)"/>
    <path d="M16.67676,111.62646l-.144,2.14649h-.81542v-1.355h-.06006c-.97119,0-1.667.69531-2.07471,2.08691V117.167h1.2832v.77979H11.57959V117.167h.99561v-4.76123h-.99561v-.7793h1.751l.19189,1.499a2.35578,2.35578,0,0,1,2.2666-1.63135A3.27651,3.27651,0,0,1,16.67676,111.62646Z" transform="translate(148.00781 9.7186)"/>
    <path d="M21.76563,117.98291a3.18781,3.18781,0,0,1-2.83057,2.50635l-.14356-.80322a2.17513,2.17513,0,0,0,2.00293-1.73926H20.4585l-2.19483-6.32032h1.06738l1.811,5.55274,1.78711-5.55274h1.04346Z" transform="translate(148.00781 9.7186)"/>
    <path d="M31.04,114.78076c0,1.91895-.7915,3.29785-2.43457,3.29785a2.14156,2.14156,0,0,1-1.67871-.71972v3.01074l-1.00781.11963v-8.8628h.86376l.084.88721a2.279,2.279,0,0,1,1.88281-1.01953C30.42871,111.49414,31.04,112.80176,31.04,114.78076Zm-4.11328-1.46338v3.13037a1.7358,1.7358,0,0,0,1.45117.79151c1.043,0,1.5708-.77979,1.5708-2.4585,0-1.64355-.44385-2.4707-1.439-2.4707A2.032,2.032,0,0,0,26.92676,113.31738Z" transform="translate(148.00781 9.7186)"/>
    <path d="M36.44092,118.07861a1.88211,1.88211,0,0,1-2.12256-1.895V112.418H32.8667v-.79151h1.45166v-1.42724l1.00732-.12012v1.54736h2.19483l-.13184.79151h-2.063v3.75391c0,.69531.34766,1.06738,1.21143,1.06738a2.54775,2.54775,0,0,0,1.21094-.29981l.396.6836A3.31361,3.31361,0,0,1,36.44092,118.07861Z" transform="translate(148.00781 9.7186)"/>
    <path d="M45.43945,114.78076c0,1.94287-.95947,3.29785-2.72216,3.29785-1.77491,0-2.72266-1.29541-2.72266-3.28613,0-1.94287.95947-3.29834,2.73437-3.29834C44.50439,111.49414,45.43945,112.78955,45.43945,114.78076Zm-4.35351.01172c0,1.6792.54,2.4585,1.63135,2.4585s1.63085-.7793,1.63085-2.47022c0-1.66748-.53955-2.459-1.61914-2.459C41.6377,112.32178,41.08594,113.11328,41.08594,114.79248Z" transform="translate(148.00781 9.7186)"/>
    <path d="M52.63916,114.78076c0,1.91895-.7915,3.29785-2.43457,3.29785a2.14328,2.14328,0,0,1-1.6792-.71972v3.01074l-1.00732.11963v-8.8628h.86377l.084.88721a2.279,2.279,0,0,1,1.88281-1.01953C52.02783,111.49414,52.63916,112.80176,52.63916,114.78076Zm-4.11377-1.46338v3.13037a1.73729,1.73729,0,0,0,1.45166.79151c1.04346,0,1.5708-.77979,1.5708-2.4585,0-1.64355-.44385-2.4707-1.439-2.4707A2.0337,2.0337,0,0,0,48.52539,113.31738Z" transform="translate(148.00781 9.7186)"/>
    <path d="M55.72559,112.502a2.56,2.56,0,0,1,2.02685-1.00781c1.23486,0,1.7749.6958,1.7749,1.87109v4.58155H58.52v-4.56934c0-.75586-.34814-1.07959-1.10352-1.07959a2.25805,2.25805,0,0,0-1.69091,1.04346v4.60547H54.71777V109.0957l1.00782-.10791Z" transform="translate(148.00781 9.7186)"/>
    <path d="M66.9668,117.37109l-.252.71973a1.2548,1.2548,0,0,1-1.15136-.89941,2.42039,2.42039,0,0,1-1.979.8872,1.8532,1.8532,0,0,1-2.03857-1.94287c0-1.29541,1.04346-2.02685,2.95019-2.02685h.93555v-.51563c0-.92383-.56348-1.25928-1.499-1.25928a5.16132,5.16132,0,0,0-1.64307.32373l-.27588-.76757a6.16373,6.16373,0,0,1,2.07471-.396c1.57129,0,2.36279.7915,2.36279,2.03906v3.03418C66.45117,117.07129,66.60693,117.26318,66.9668,117.37109Zm-1.53516-.94726v-1.61914H64.52c-1.39111,0-1.895.50342-1.895,1.31885a1.06077,1.06077,0,0,0,1.21143,1.1997A1.93331,1.93331,0,0,0,65.43164,116.42383Z" transform="translate(148.00781 9.7186)"/>
    <path d="M69.11719,111.62646H69.981l.084.88721a2.74443,2.74443,0,0,1,2.08692-1.01953c1.23486,0,1.7749.6958,1.7749,1.87109v4.58155H72.91943v-3.83789c0-1.29541-.13232-1.811-1.07959-1.811a2.2206,2.2206,0,0,0-1.71484,1.05567v4.59326H69.11719Z" transform="translate(148.00781 9.7186)"/>
  </g>
  <g>
    <line x1="177.35368" y1="80.33673" x2="314.99507" y2="96.54378"/>
    <g>
      <line class="cls-1" x1="177.35368" y1="80.33672" x2="305.27939" y2="95.39977"/>
      <path d="M155.13243,85.4293l-2.106-4.60149.15808-.07991,6.67418,3.60542q3.5644,1.23566,7.12859,2.47187-3.7539.37392-7.50778.74846l-7.32909,1.95655-.138-.09059Z" transform="translate(148.00781 9.7186)"/>
    </g>
  </g>
  <path d="M-107.02,126.79965s2.17419-4.83586.26324-6.10332c-1.91094-1.27721-8.921-2.44718-8.921-2.44718l1.21871-3.12965s10.1397,2.06694,11.09517,3.66589-.69222,8.336-.69222,8.336l-2.96392-.32174Z" transform="translate(148.00781 9.7186)"/>
  <path d="M-81.271,147.352h-49.80151a5.10968,5.10968,0,0,1-5.0991-5.09909V139.523c0-2.80792,2.72017-6.8053,5.0991-8.07276,0,0,9.24272-4.67011,25.49549-4.67011s24.31577,4.67011,24.31577,4.67011c2.75917,1.5697,5.0991,4.8456,5.0991,7.64377v3.1589A5.12434,5.12434,0,0,1-81.271,147.352Z" transform="translate(148.00781 9.7186)"/>
  <path d="M-81.271,148.132h-49.80151a5.89195,5.89195,0,0,1-5.87908-5.87907V139.523c0-3.22716,3.01266-7.42928,5.50859-8.765l.0195-.00975a38.56674,38.56674,0,0,1,6.80529-2.38868,73.78971,73.78971,0,0,1,19.04118-2.35943,68.60738,68.60738,0,0,1,18.466,2.36918,30.26573,30.26573,0,0,1,6.23981,2.40818c3.12965,1.77445,5.48908,5.35259,5.48908,8.3165v3.15891A5.90028,5.90028,0,0,1-81.271,148.132Zm-49.44077-15.98952c-2.06694,1.10171-4.67986,4.79686-4.67986,7.38053v2.72991a4.32741,4.32741,0,0,0,4.31912,4.31912H-81.271a4.34208,4.34208,0,0,0,4.32888-4.31912V139.094c0-2.40818-2.06694-5.46959-4.70911-6.96129a29.18756,29.18756,0,0,0-5.96682-2.28143,65.57217,65.57217,0,0,0-17.959-2.28143,73.82214,73.82214,0,0,0-18.58294,2.29118A37.50216,37.50216,0,0,0-130.71175,132.14249Z" transform="translate(148.00781 9.7186)"/>
  <path d="M-107.39045,192.0057a1.01333,1.01333,0,0,1-.65323-.234.98487.98487,0,0,1-.34124-.936c.02924-.18525.039-.936-1.131-2.35943a15.81484,15.81484,0,0,0-3.11991-2.12544c-4.68961-2.80791-12.53812-7.50727-15.98952-17.22774a59.80076,59.80076,0,0,1-2.59342-9.66195.78214.78214,0,0,1,.63373-.90673.78215.78215,0,0,1,.90672.63374,57.984,57.984,0,0,0,2.53492,9.40846c3.26616,9.194,10.81243,13.71785,15.3168,16.40876a14.88307,14.88307,0,0,1,3.51964,2.47643,6.19914,6.19914,0,0,1,1.45271,2.74942l2.08644-.72148.55573-2.67142.39-.156a46.85644,46.85644,0,0,0,7.985-4.37762c3.72439-2.55442,8.414-6.6883,9.67171-11.92389,2.12544-8.85273,3.59765-19.21668,4.00713-22.24884h-48.2123a33.10843,33.10843,0,0,0-.08775,3.95839.78928.78928,0,0,1-.75073.80922.78928.78928,0,0,1-.80923-.75073,29.80009,29.80009,0,0,1,.1755-4.91385l.0975-.663H-80.374l-.10724.87747c-.0195.12675-1.638,12.76237-4.16313,23.30181a17.66029,17.66029,0,0,1-4.07537,7.439,32.62792,32.62792,0,0,1-6.25932,5.42084,47.67552,47.67552,0,0,1-7.868,4.35812l-.57524,2.72017-3.63664,1.25772A.94933.94933,0,0,1-107.39045,192.0057Zm.546-.936Z" transform="translate(148.00781 9.7186)"/>
  <path d="M-130.88725,157.23824a.77028.77028,0,0,1-.77023-.68248c-.0585-.45824-.10724-.897-.14624-1.326l-.0195-.195a.8387.8387,0,0,1-.00975-.156.16592.16592,0,0,0-.00975-.06825.77957.77957,0,0,1,.67273-.86772.77957.77957,0,0,1,.86772.67273.94589.94589,0,0,1,.00975.16575.16588.16588,0,0,0,.00975.06824v.01951l.0195.20474c.039.41923.08775.84822.14625,1.27721a.78035.78035,0,0,1-.67273.87747A.33169.33169,0,0,1-130.88725,157.23824Z" transform="translate(148.00781 9.7186)"/>
  <g>
    <line x1="55.1989" y1="131.28992" x2="111.14794" y2="83.94844"/>
    <g>
      <line class="cls-1" x1="55.1989" y1="131.28993" x2="103.67988" y2="90.26756"/>
      <path d="M-45.97221,81.94028l-4.80028-1.602.04952-.17008,7.19064-2.41626q3.33611-1.76133,6.67246-3.52211-2.2892,2.99855-4.57794,5.99745l-3.57312,6.69153-.1604.039Z" transform="translate(148.00781 9.7186)"/>
    </g>
  </g>
  <g>
    <path d="M-145.90918,211.09082h-1.06738v3.07031h-1.03125v-8.26367h2.09863c1.97852,0,3.19043.81641,3.19043,2.543C-142.71875,210.37109-144.0498,211.09082-145.90918,211.09082Zm.13184-4.36523h-1.19922v3.53808h1.16308c1.13965,0,1.9795-.39551,1.9795-1.81152C-143.834,207.18164-144.66211,206.72559-145.77734,206.72559Z" transform="translate(148.00781 9.7186)"/>
    <path d="M-137.79785,213.35742h1.77539v.80371H-140.748v-.80371h1.94239v-4.71289h-1.88282v-.80371h2.89063Zm-.05957-7.75976a.69669.69669,0,0,1-.74414.708.68349.68349,0,0,1-.71973-.708.68326.68326,0,0,1,.71973-.707A.69648.69648,0,0,1-137.85742,205.59766Z" transform="translate(148.00781 9.7186)"/>
    <path d="M-133.80078,207.84082h.86426l.084.8877a2.74287,2.74287,0,0,1,2.08691-1.01954c1.23438,0,1.77442.69532,1.77442,1.8711v4.58105H-129.998v-3.83789c0-1.29492-.13281-1.81054-1.08008-1.81054a2.22221,2.22221,0,0,0-1.71484,1.05566v4.59277h-1.00781Z" transform="translate(148.00781 9.7186)"/>
    <path d="M-123.96191,213.4541a2.86015,2.86015,0,0,0,1.69043-.56445l.46777.67187a3.59835,3.59835,0,0,1-2.1582.73145c-1.84766,0-2.89063-1.31934-2.89063-3.28613,0-1.90625,1.06738-3.29786,2.74609-3.29786,1.59571,0,2.57911,1.1875,2.57911,3.10645,0,.21582-.01172.40723-.02442.53906h-4.24512C-125.749,212.81836-124.93359,213.4541-123.96191,213.4541Zm-1.835-2.86719h3.28614c-.02442-1.35449-.624-2.05078-1.583-2.05078C-125.0293,208.53613-125.71289,209.19629-125.79688,210.58691Z" transform="translate(148.00781 9.7186)"/>
    <path d="M-114.35156,213.58594l-.252.71972a1.25493,1.25493,0,0,1-1.15136-.89941,2.4224,2.4224,0,0,1-1.9795.88672,1.85293,1.85293,0,0,1-2.03808-1.94238c0-1.2959,1.043-2.02735,2.95019-2.02735h.93555v-.51562c0-.92383-.56348-1.25879-1.499-1.25879a5.17457,5.17457,0,0,0-1.64356.32324l-.27539-.76758a6.17375,6.17375,0,0,1,2.07422-.39551c1.57129,0,2.36328.791,2.36328,2.03907v3.03418C-114.86719,213.28613-114.71191,213.47754-114.35156,213.58594Zm-1.53516-.94727v-1.61914h-.91211c-1.39062,0-1.89453.50293-1.89453,1.31836a1.061,1.061,0,0,0,1.21094,1.2002A1.93412,1.93412,0,0,0-115.88672,212.63867Z" transform="translate(148.00781 9.7186)"/>
    <path d="M-109.73047,212.60254c0,.62305.43164.85156,1.043.85156a2.9119,2.9119,0,0,0,1.05566-.21582l.26368.73145a3.23992,3.23992,0,0,1-1.499.32324,1.687,1.687,0,0,1-1.87109-1.73828v-6.45313h-1.94238v-.80371h2.95019Z" transform="translate(148.00781 9.7186)"/>
    <path d="M-98.46191,210.02344c0-2.8418,1.67968-4.25781,3.46679-4.25781a3.089,3.089,0,0,1,2.35059.9121l-.624.64747a2.38789,2.38789,0,0,0-1.72657-.6836c-1.19922,0-2.35058.83985-2.35058,3.38184,0,2.39844.75488,3.39453,2.19433,3.39453a3.15343,3.15343,0,0,0,1.57129-.39551v-2.50683h-1.61914l-.12012-.876h2.78223v3.93359a5.12309,5.12309,0,0,1-2.69824.71973C-97.20215,214.293-98.46191,212.87793-98.46191,210.02344Z" transform="translate(148.00781 9.7186)"/>
    <path d="M-88.13184,212.60254c0,.62305.43164.85156,1.04395.85156a2.92028,2.92028,0,0,0,1.05566-.21582l.26368.73145a3.23992,3.23992,0,0,1-1.499.32324,1.68656,1.68656,0,0,1-1.87109-1.73828v-6.45313H-91.082v-.80371h2.95019Z" transform="translate(148.00781 9.7186)"/>
    <path d="M-78.35352,213.58594l-.25195.71972a1.25591,1.25591,0,0,1-1.15137-.89941,2.42043,2.42043,0,0,1-1.97851.88672,1.85323,1.85323,0,0,1-2.03906-1.94238c0-1.2959,1.04394-2.02735,2.95019-2.02735h.93555v-.51562c0-.92383-.56348-1.25879-1.499-1.25879a5.16938,5.16938,0,0,0-1.64257.32324l-.27637-.76758a6.17459,6.17459,0,0,1,2.07519-.39551c1.57129,0,2.36231.791,2.36231,2.03907v3.03418C-78.86914,213.28613-78.71289,213.47754-78.35352,213.58594Zm-1.53515-.94727v-1.61914h-.91113c-1.39161,0-1.89551.50293-1.89551,1.31836a1.06127,1.06127,0,0,0,1.21191,1.2002A1.93248,1.93248,0,0,0-79.88867,212.63867Z" transform="translate(148.00781 9.7186)"/>
    <path d="M-76.20313,207.84082h.86426l.084.8877A2.74287,2.74287,0,0,1-73.168,207.709c1.23438,0,1.77442.69532,1.77442,1.8711v4.58105h-1.00684v-3.83789c0-1.29492-.13281-1.81054-1.08008-1.81054a2.22219,2.22219,0,0,0-1.71484,1.05566v4.59277h-1.00782Z" transform="translate(148.00781 9.7186)"/>
    <path d="M-64.206,205.29785v8.86328h-.88672l-.09668-.82715a2.13235,2.13235,0,0,1-1.78711.959c-1.6543,0-2.41016-1.31934-2.41016-3.28613,0-1.89454.92383-3.29786,2.4707-3.29786a2.13064,2.13064,0,0,1,1.70313.75586v-3.28613Zm-4.08985,5.709c0,1.64355.52832,2.48242,1.52344,2.48242a1.902,1.902,0,0,0,1.55957-1.00684v-3.14258a1.71463,1.71463,0,0,0-1.43945-.81543C-67.69531,208.52441-68.2959,209.33984-68.2959,211.00684Z" transform="translate(148.00781 9.7186)"/>
  </g>
  <path d="M551.11392,69.62652l-.07521-.01505-.18051-.06016-.10529-.06017-.13539-.06017-.13538-.07521a.31458.31458,0,0,1-.09025-.06017c-.03008-.03008-.09025-.06017-.12033-.09025l-.09025-.06017a.83453.83453,0,0,0-.12034-.09025c-.04512-.01505-.06017-.06017-.09025-.07522l-.09025-.09025c-.04512-.04513-.06017-.07521-.09025-.09025-.015-.04513-.06017-.06017-.07521-.09026l-.09025-.13538-.06017-.09025-.09025-.15042a.10723.10723,0,0,1-.04512-.09026l-.07521-.15042c-.015-.03008-.03009-.07521-.04513-.10529l-.06017-.15042c-.015-.06017-.04513-.09026-.04513-.15042l-.03008-.1053a1.05331,1.05331,0,0,1-.04513-.21059.06006.06006,0,0,0-.03008-.06017,30.34025,30.34025,0,0,0-34.1307-26.08311,30.83684,30.83684,0,0,0-6.58846,1.63959,30.45567,30.45567,0,0,0-19.73532,30.7161,2.73916,2.73916,0,0,1-2.54213,2.94827h-.22563a2.751,2.751,0,0,1-2.75272-2.57221c-.06016-.85741-.09025-1.71481-.09025-2.58726v-.12033l-.30084.24067a19.61487,19.61487,0,0,1-11.37188,3.58,2.76776,2.76776,0,0,1,0-5.53552,14.36531,14.36531,0,0,0,13.3424-9.19076c.06017-.13538.12033-.27076.19554-.40614A36.07165,36.07165,0,0,1,501.11376,40.204a44.18949,44.18949,0,0,0-17.20824-3.47474A43.67363,43.67363,0,0,0,463.65877,41.618a44.98112,44.98112,0,0,0-15.11738,12.75575,2.78713,2.78713,0,0,1-2.97835,1.39892l-.09025-.015-.13538-.04513a23.845,23.845,0,0,0-28.77565,30.62585,2.76857,2.76857,0,0,1,.03008,2.136,21.78508,21.78508,0,0,0,12.06382,28.33944,22.40949,22.40949,0,0,0,2.136.73707l.09026.04512a2.97581,2.97581,0,0,1,.91757.48135,25.041,25.041,0,0,1,9.86766-16.757,2.77537,2.77537,0,1,1,3.29423,4.46752,19.27511,19.27511,0,0,0-4.09146,26.95556c.31588.43623.66185.85741,1.02286,1.26355a34.73367,34.73367,0,0,0,33.39361,8.13781.22355.22355,0,0,1,.09025-.015,35.19137,35.19137,0,0,0,12.31953-6.45309,3.06356,3.06356,0,0,1,1.21842-1.053A35.0175,35.0175,0,0,0,497.624,122.605a16.842,16.842,0,0,1,.722-1.775,34.18566,34.18566,0,0,0,2.07582-9.73228,2.76978,2.76978,0,0,1,2.93322-2.57221h.015a2.7698,2.7698,0,0,1,2.57221,2.93322v.015c-.015.376-.06018.722-.09025,1.083a18.75517,18.75517,0,0,1,18.99825-.04513,2.766,2.766,0,0,1-2.75272,4.79846.01472.01472,0,0,1-.015-.015,13.24952,13.24952,0,0,0-18.12581,4.72324,9.39928,9.39928,0,0,0-.49639.94766c-.2106.58664-.46631,1.15824-.69194,1.71481v.04512a39.99714,39.99714,0,0,1-4.70819,8.09268,40.44958,40.44958,0,0,1,28.6102,8.92,24.61956,24.61956,0,0,0,14.24493,4.48256,25.42785,25.42785,0,0,0,7.06981-1.02287,2.781,2.781,0,0,1,1.72985-.5716,24.96931,24.96931,0,0,0,14.06444-33.24318l-.04513-.09025A24.88192,24.88192,0,0,0,538.35818,96.537a2.75926,2.75926,0,0,1-.55655-5.49039A30.46674,30.46674,0,0,1,566.457,104.78007a25.14341,25.14341,0,0,0-15.343-35.15353ZM523.27087,146.0708c-.03009-.015-.04512-.04513-.06017-.04513a34.70925,34.70925,0,0,0-31.54342-6.54334,40.74683,40.74683,0,0,1-9.0253,5.73106,22.42048,22.42048,0,0,0,20.84844-2.0006,2.77025,2.77025,0,1,1,3.03851,4.633,27.56853,27.56853,0,0,1-3.6402,2.00061,33.31937,33.31937,0,0,0,7.53612,3.941h.015a34.93032,34.93032,0,0,0,22.56324.61672,33.82788,33.82788,0,0,0,6.48317-2.7828,30.09247,30.09247,0,0,1-16.11015-5.50543l-.1053-.04512Zm7.86705,14.56081a41.25685,41.25685,0,0,1-12.68054.69194,52.01788,52.01788,0,0,1,9.76237,15.26779,3.59829,3.59829,0,0,0,6.84418-2.18111,4.08682,4.08682,0,0,0-.33093-.84236A32.44971,32.44971,0,0,1,531.13792,160.63161Z" transform="translate(148.00781 9.7186)"/>
  <g>
    <line x1="400.98233" y1="89.99576" x2="552.99507" y2="117.68561"/>
    <g>
      <line class="cls-1" x1="400.98233" y1="89.99576" x2="543.37064" y2="115.93247"/>
      <path d="M393.24377,105.82787l-1.81228-4.7249.16281-.0698,6.43405,4.01828q3.47959,1.45751,6.95892,2.91556-3.77.137-7.54.27452l-7.43769,1.49146-.13205-.09909Z" transform="translate(148.00781 9.7186)"/>
    </g>
  </g>
  <g>
    <path d="M313.26548,63.58775l-.58752.46965a2.14956,2.14956,0,0,0-1.33143-.77013c-1.10084-.20734-2.19815.31926-2.587,2.384-.37961,2.01555.37283,2.94151,1.53292,3.16a2.4051,2.4051,0,0,0,1.67883-.26453l.33819.634a2.83988,2.83988,0,0,1-2.16362.356c-1.65247-.31122-2.711-1.77317-2.2814-4.05412.42967-2.28134,1.99526-3.2387,3.558-2.94436A2.94573,2.94573,0,0,1,313.26548,63.58775Z" transform="translate(148.00781 9.7186)"/>
    <path d="M318.17918,68.27029c-.3,1.59281-1.29541,2.55559-2.74052,2.28342-1.45551-.27414-2.03208-1.48241-1.7247-3.11446.3-1.59282,1.29549-2.556,2.751-2.28186S318.48664,66.63784,318.17918,68.27029Zm-3.57094-.66261c-.25928,1.37665.06313,2.09893.95822,2.26751.89428.16843,1.45735-.38707,1.71844-1.77333.25747-1.36705-.063-2.09933-.94773-2.266C315.44208,65.66733,314.86753,66.231,314.60824,67.60768Z" transform="translate(148.00781 9.7186)"/>
    <path d="M320.37073,66.00534l.70774.13329-.06814.74033a2.29079,2.29079,0,0,1,1.86834-.51361,1.35173,1.35173,0,0,1,1.1666,1.80811l-.70743,3.75607-.82623-.15561.5926-3.14641c.2-1.062.17156-1.50509-.605-1.65135a1.854,1.854,0,0,0-1.56968.60052l-.70923,3.76568-.82543-.15546Z" transform="translate(148.00781 9.7186)"/>
    <path d="M328.00027,72.91957a1.57027,1.57027,0,0,1-1.44793-1.8814l.58144-3.08716-1.18971-.22407.12222-.64889,1.18971.22407.22037-1.1701.84478.05714-.23892,1.26857,1.79977.339-.23109.62839-1.6909-.31846-.57963,3.07755c-.10736.57.12021.92875.82875,1.0622a2.12923,2.12923,0,0,0,1.039-.05881l.2187.62149A2.7631,2.7631,0,0,1,328.00027,72.91957Z" transform="translate(148.00781 9.7186)"/>
    <path d="M336.40379,69.025l-.44992,1.73743-.66851-.12591.20921-1.11084-.04883-.0092c-.79661-.15-1.474.31264-2.02354,1.39048l-.411,2.18247,1.052.19813-.12041.63929-2.69406-.5074.12041-.63929.81662.15381.73517-3.90339-.81662-.1538.12033-.63889,1.43549.27036-.07374,1.25865a1.96458,1.96458,0,0,1,2.11012-.98745A2.73885,2.73885,0,0,1,336.40379,69.025Z" transform="translate(148.00781 9.7186)"/>
    <path d="M341.78923,72.717c-.3,1.59282-1.29541,2.5556-2.74051,2.28342-1.45552-.27413-2.03209-1.48241-1.72471-3.11445.3-1.59282,1.29549-2.556,2.751-2.28186S342.09669,71.08459,341.78923,72.717Zm-3.57093-.6626c-.25928,1.37665.06312,2.09892.95821,2.2675.89428.16844,1.45735-.38707,1.71844-1.77333.25747-1.367-.063-2.09932-.94773-2.26595C339.05214,70.11407,338.47758,70.67777,338.2183,72.05443Z" transform="translate(148.00781 9.7186)"/>
    <path d="M345.27116,74.737c-.09627.51119.22239.76479.72357.85918a2.42941,2.42941,0,0,0,.89879-.01393l.10322.64037a2.70232,2.70232,0,0,1-1.27893.03394,1.40749,1.40749,0,0,1-1.26549-1.7144l.99633-5.29-1.59241-.29992.1241-.65891,2.41864.45554Z" transform="translate(148.00781 9.7186)"/>
    <path d="M357.51323,78.47808a1.57027,1.57027,0,0,1-1.44792-1.8814l.58144-3.08716-1.18971-.22407.12221-.64889,1.18971.22407.22038-1.1701.84478.05714-.23893,1.26857,1.799.33882-.2303.62854-1.69089-.31846-.57963,3.07755c-.10736.57.1202.92875.82795,1.062a2.12433,2.12433,0,0,0,1.03905-.05881l.21949.62164A2.76526,2.76526,0,0,1,357.51323,78.47808Z" transform="translate(148.00781 9.7186)"/>
    <path d="M362.379,74.66043a2.137,2.137,0,0,1,1.81769-.51319,1.3515,1.3515,0,0,1,1.1658,1.808l-.70743,3.75607-.82543-.15546.70554-3.74606c.11671-.61968-.11912-.93891-.738-1.05547a1.88453,1.88453,0,0,0-1.54778.59429l-.71112,3.77569-.82623-.15562,1.36667-7.25635.84289.06715Z" transform="translate(148.00781 9.7186)"/>
    <path d="M368.88743,79.90778a2.38558,2.38558,0,0,0,1.47294-.20134l.27975.62305a3.00456,3.00456,0,0,1-1.88229.26642c-1.51476-.28529-2.1661-1.528-1.86241-3.1404.29441-1.56319,1.38436-2.53925,2.76061-2.28005,1.3082.24639,1.93106,1.37178,1.63476,2.945-.03333.17694-.07256.33245-.10333.43857l-3.48026-.65548C367.52048,79.11064,368.09082,79.75775,368.88743,79.90778Zm-1.06171-2.63353,2.69406.50741c.1892-1.11462-.19493-1.77764-.98114-1.92572C368.77166,75.71149,368.10937,76.14675,367.82572,77.27425Z" transform="translate(148.00781 9.7186)"/>
    <path d="M380.21859,82.75444a3.39189,3.39189,0,0,1-2.2183-1.3036l.62-.48384a2.64216,2.64216,0,0,0,1.74117,1.08151c.82623.15561,1.64912-.10681,1.81024-.96226.1241-.65891-.1294-1.04282-1.22653-1.59556-1.27339-.64688-2.01585-1.29573-1.81394-2.36775.19255-1.02238,1.2239-1.58171,2.5217-1.33728a3.179,3.179,0,0,1,2.01691,1.18443l-.61446.45421a2.46864,2.46864,0,0,0-1.508-.91531c-.747-.14069-1.41819.06906-1.546.74758-.10924.58.24831.95288,1.46615,1.569,1.00416.505,1.84556,1.12148,1.60294,2.40966C382.85014,82.40531,381.79179,83.05074,380.21859,82.75444Z" transform="translate(148.00781 9.7186)"/>
    <path d="M386.58835,82.5187c-.09628.51119.22239.76478.72437.85932a2.43634,2.43634,0,0,0,.89879-.01393l.10322.64037a2.70219,2.70219,0,0,1-1.27893.03394,1.40708,1.40708,0,0,1-1.26549-1.7144l.99633-5.29-1.59321-.30007.12409-.6589,2.41865.45553Z" transform="translate(148.00781 9.7186)"/>
    <path d="M392.49748,84.35453a2.38558,2.38558,0,0,0,1.47294-.20134l.27975.62305a3.00456,3.00456,0,0,1-1.88229.26641c-1.51476-.28529-2.1661-1.528-1.86241-3.14039.29442-1.56319,1.38436-2.53925,2.76061-2.28005,1.3082.24639,1.93106,1.37178,1.63476,2.945-.03332.17693-.07256.33245-.10333.43857l-3.48026-.65548C391.13053,83.55739,391.70087,84.20449,392.49748,84.35453ZM391.43577,81.721l2.69406.5074c.18921-1.11462-.19493-1.77764-.98113-1.92571C392.38171,80.15823,391.71942,80.5935,391.43577,81.721Z" transform="translate(148.00781 9.7186)"/>
    <path d="M398.3996,85.46614a2.388,2.388,0,0,0,1.47374-.20119l.27975.62305a3.007,3.007,0,0,1-1.8831.26627c-1.514-.28514-2.16609-1.528-1.86241-3.1404.29442-1.56319,1.38436-2.53925,2.76141-2.2799,1.3074.24624,1.93026,1.37163,1.634,2.94483-.03332.17694-.07256.33245-.10252.43872l-3.48106-.65563C397.03264,84.669,397.603,85.31611,398.3996,85.46614Zm-1.06172-2.63353,2.69406.5074c.19-1.11446-.19413-1.77748-.98113-1.92571C398.28382,81.26985,397.62154,81.70511,397.33788,82.83261Z" transform="translate(148.00781 9.7186)"/>
    <path d="M406.71727,84.94566c-.29629,1.57321-1.1585,2.58138-2.50513,2.32776a1.78946,1.78946,0,0,1-1.26593-.84941l-.46488,2.46829-.8439-.05739,1.36848-7.266.70774.1333-.06814.74032a1.90234,1.90234,0,0,1,1.701-.54511C406.72357,82.15681,407.02285,83.32322,406.71727,84.94566Zm-3.147-1.835L403.0869,85.677a1.4495,1.4495,0,0,0,1.0683.87312c.85505.161,1.40778-.39682,1.667-1.77308.25378-1.34743.018-2.094-.79781-2.24766A1.69729,1.69729,0,0,0,403.57025,83.11068Z" transform="translate(148.00781 9.7186)"/>
    <path d="M315.49725,82.18873l-.31769.55115a1.04722,1.04722,0,0,1-.805-.91515,2.01836,2.01836,0,0,1-1.759.42186,1.54613,1.54613,0,0,1-1.37168-1.90766c.2-1.062,1.16881-1.50048,2.73161-1.20614l.767.14445.07962-.42272c.14265-.75738-.26751-1.11939-1.0345-1.26385a4.30342,4.30342,0,0,0-1.39661.01178l-.10806-.672a5.1426,5.1426,0,0,1,1.76245-.00422c1.28818.24262,1.81446,1.01365,1.62183,2.03644l-.4685,2.4875C315.12082,81.86332,315.21928,82.04477,315.49725,82.18873ZM314.385,81.1751l.25-1.32742-.747-.14069c-1.14088-.21487-1.63172.12-1.75763.78855a.88507.88507,0,0,0,.80831,1.17068A1.61217,1.61217,0,0,0,314.385,81.1751Z" transform="translate(148.00781 9.7186)"/>
    <path d="M318.14721,77.81116l.70854.13345-.06814.74032a2.28828,2.28828,0,0,1,1.86833-.5136,1.3515,1.3515,0,0,1,1.1658,1.808l-.70742,3.75607-.82543-.15547.5926-3.1464c.2-1.062.17075-1.50524-.60584-1.65151a1.85386,1.85386,0,0,0-1.56888.60068l-.70923,3.76568-.82623-.15562Z" transform="translate(148.00781 9.7186)"/>
    <path d="M328.37538,77.5788l-1.36855,7.26636-.727-.13692.04853-.69344a1.77834,1.77834,0,0,1-1.61327.51066c-1.35623-.25544-1.77219-1.45378-1.46851-3.06621.29261-1.55359,1.26667-2.56142,2.53484-2.32257a1.77868,1.77868,0,0,1,1.27956.88265l.5074-2.69406Zm-4.23447,4.04888c-.2537,1.347.04983,2.11673.86565,2.27039a1.58628,1.58628,0,0,0,1.43411-.585l.48517-2.576a1.43044,1.43044,0,0,0-1.0542-.89077C325.01659,79.68526,324.3983,80.261,324.14091,81.62768Z" transform="translate(148.00781 9.7186)"/>
    <path d="M338.72378,87.052l-1.12085-.21111.18634-5.259-1.74994,4.96448-1.15048-.21668.332-6.95256.85586.16119-.38273,5.976,1.76775-4.90061,1.04239.19632-.17453,5.20068,1.90629-5.689.78621.14807Z" transform="translate(148.00781 9.7186)"/>
    <path d="M345.01021,87.74724l-.31769.55115a1.0464,1.0464,0,0,1-.805-.91515,2.02,2.02,0,0,1-1.75983.42171,1.54589,1.54589,0,0,1-1.37089-1.90751c.2-1.062,1.168-1.50063,2.73161-1.20614l.767.14445.07961-.42272c.14265-.75738-.26751-1.11939-1.03449-1.26385a4.30775,4.30775,0,0,0-1.39742.01163l-.10725-.67181a5.14182,5.14182,0,0,1,1.76164-.00437c1.28819.24262,1.81527,1.0138,1.62264,2.03659l-.4685,2.4875C344.63378,87.42183,344.73145,87.60313,345.01021,87.74724Zm-1.1123-1.01363.25-1.32742-.74777-.14084c-1.14007-.21472-1.63092.12019-1.75683.7887a.88482.88482,0,0,0,.80752,1.17053A1.61352,1.61352,0,0,0,343.89791,86.73361Z" transform="translate(148.00781 9.7186)"/>
    <path d="M347.56895,88.71786l-.82543-.15547,1.36855-7.26635.8439.05739Zm1.66648-2.62871,2.06037,3.33063-1.09124-.20553-2.01341-3.31142,2.74353-1.91643,1.06161.19994Z" transform="translate(148.00781 9.7186)"/>
    <path d="M354.85888,89.49023a2.38789,2.38789,0,0,0,1.47374-.20119l.27975.62305a3.007,3.007,0,0,1-1.88309.26627c-1.514-.28514-2.1661-1.528-1.86241-3.14039.29441-1.5632,1.38436-2.53926,2.76141-2.2799,1.3074.24623,1.93026,1.37162,1.634,2.94482-.03333.17694-.07256.33245-.10253.43872l-3.48106-.65562C353.49193,88.69309,354.06227,89.3402,354.85888,89.49023Zm-1.06171-2.63353,2.69406.50741c.19-1.11447-.19413-1.77749-.98114-1.92572C354.74311,85.29394,354.08082,85.7292,353.79717,86.8567Z" transform="translate(148.00781 9.7186)"/>
    <path d="M370.06708,86.51045l-.58752.46965a2.14755,2.14755,0,0,0-1.33062-.77c-1.10164-.20748-2.19815.31926-2.587,2.384-.37961,2.01554.372,2.94135,1.53212,3.15984a2.40166,2.40166,0,0,0,1.67883-.26453l.339.63421a2.84209,2.84209,0,0,1-2.16443.35587c-1.65166-.31108-2.7102-1.773-2.2806-4.054.42967-2.28135,1.99446-3.23885,3.55805-2.94436A2.94352,2.94352,0,0,1,370.06708,86.51045Z" transform="translate(148.00781 9.7186)"/>
    <path d="M372.78585,93.49791a2.6589,2.6589,0,0,1-2.70717,1.61779l.00633-.68067a1.8146,1.8146,0,0,0,1.91061-1.11662l-.27541-.05187-.82387-5.52054.87507.16481.62775,4.832,2.3225-4.27634.85506.161Z" transform="translate(148.00781 9.7186)"/>
    <path d="M380.0918,93.75393l.29124.61485a2.87163,2.87163,0,0,1-1.85637.29161,2.40874,2.40874,0,0,1-1.935-3.13374,2.48934,2.48934,0,0,1,2.95164-2.26439,2.66489,2.66489,0,0,1,1.6153.93552l-.50456.465a2.41714,2.41714,0,0,0-1.25263-.70431c-.89428-.16843-1.65807.37-1.91547,1.73664-.26109,1.38626.27889,2.089,1.174,2.25757A2.39813,2.39813,0,0,0,380.0918,93.75393Z" transform="translate(148.00781 9.7186)"/>
    <path d="M384.36563,94.32467c-.09628.51119.22238.76479.72356.85918a2.4294,2.4294,0,0,0,.89879-.01393l.10323.64037a2.70232,2.70232,0,0,1-1.27893.03394,1.40748,1.40748,0,0,1-1.26549-1.7144l.99633-5.29-1.59242-.29992.1241-.65891,2.41865.45554Z" transform="translate(148.00781 9.7186)"/>
    <path d="M390.274,96.16035a2.388,2.388,0,0,0,1.47374-.20118l.27975.623a3.0069,3.0069,0,0,1-1.88309.26627c-1.514-.28514-2.1661-1.528-1.86241-3.14039.29441-1.5632,1.38435-2.53926,2.76141-2.2799,1.3074.24623,1.93025,1.37162,1.63395,2.94483-.03332.17693-.07256.33244-.10252.43871l-3.48106-.65562C388.907,95.36321,389.47735,96.01032,390.274,96.16035Zm-1.06171-2.63352,2.69406.5074c.19-1.11447-.19414-1.77749-.98114-1.92571C390.15818,91.96406,389.4959,92.39932,389.21225,93.52683Z" transform="translate(148.00781 9.7186)"/>
    <path d="M397.21528,96.62251c.087-.462-.014-.73548-1.06379-1.21838-1.02123-.46716-1.65822-.92329-1.48783-1.828.16293-.86506,1.06248-1.266,2.233-1.04555a3.22326,3.22326,0,0,1,1.78041.926l-.48132.5a2.49895,2.49895,0,0,0-1.40506-.75333c-.82623-.15561-1.17534.07377-1.24937.46687-.08889.472.20653.6905,1.19517,1.17224.961.46576,1.56276.94594,1.38129,1.90948-.20922,1.11084-1.36274,1.34167-2.46438,1.13418a3.01593,3.01593,0,0,1-1.89326-1.07947l.56381-.45381a2.50273,2.50273,0,0,0,1.45724.85477C396.57777,97.35757,397.12081,97.1241,397.21528,96.62251Z" transform="translate(148.00781 9.7186)"/>
  </g>
  <g>
    <path d="M395.66113,210.50293l2.459,3.6582h-1.248l-2.2666-3.53808h-1.11524v3.53808H392.459v-8.26367h2.11036c2.03906,0,3.10644.792,3.10644,2.32715A2.35825,2.35825,0,0,1,395.66113,210.50293Zm-.97168-3.76563h-1.19922v3.07032h1.21192c1.18652,0,1.87012-.44336,1.87012-1.583C396.57227,207.15723,395.96094,206.7373,394.68945,206.7373Z" transform="translate(148.00781 9.7186)"/>
    <path d="M402.27344,213.4541a2.86015,2.86015,0,0,0,1.69043-.56445l.46777.67187a3.59833,3.59833,0,0,1-2.1582.73145c-1.84766,0-2.89063-1.31934-2.89063-3.28613,0-1.90625,1.06739-3.29786,2.7461-3.29786,1.5957,0,2.5791,1.1875,2.5791,3.10645,0,.21582-.01172.40723-.02442.53906h-4.24511C400.48633,212.81836,401.30176,213.4541,402.27344,213.4541Zm-1.835-2.86719h3.28613c-.02441-1.35449-.624-2.05078-1.583-2.05078C401.20605,208.53613,400.52246,209.19629,400.43848,210.58691Z" transform="translate(148.00781 9.7186)"/>
    <path d="M411.34375,212.87793l.47949.66016a3.44175,3.44175,0,0,1-2.12207.75488c-1.89551,0-2.97461-1.2832-2.97461-3.26172,0-1.89551,1.09082-3.32227,2.97461-3.32227a3.19653,3.19653,0,0,1,2.11035.74317l-.49121.66015a2.89371,2.89371,0,0,0-1.63183-.55175c-1.09082,0-1.8711.80371-1.8711,2.4707,0,1.69043.792,2.39844,1.88379,2.39844A2.86864,2.86864,0,0,0,411.34375,212.87793Z" transform="translate(148.00781 9.7186)"/>
    <path d="M416.67285,213.4541a2.86015,2.86015,0,0,0,1.69043-.56445l.46777.67187a3.59831,3.59831,0,0,1-2.1582.73145c-1.84765,0-2.89062-1.31934-2.89062-3.28613,0-1.90625,1.06738-3.29786,2.74609-3.29786,1.5957,0,2.5791,1.1875,2.5791,3.10645,0,.21582-.01172.40723-.02441.53906h-4.24512C414.88574,212.81836,415.70117,213.4541,416.67285,213.4541Zm-1.835-2.86719H418.124c-.02441-1.35449-.624-2.05078-1.583-2.05078C415.60547,208.53613,414.92188,209.19629,414.83789,210.58691Z" transform="translate(148.00781 9.7186)"/>
    <path d="M426.35449,210.99512c0,1.91894-.791,3.29785-2.43457,3.29785a2.14,2.14,0,0,1-1.67871-.71973V216.584l-1.00781.12012v-8.86328h.86426l.084.8877a2.27769,2.27769,0,0,1,1.88281-1.01954C425.74316,207.709,426.35449,209.0166,426.35449,210.99512Zm-4.11328-1.46289v3.12988a1.73636,1.73636,0,0,0,1.45117.792c1.04395,0,1.57129-.78027,1.57129-2.459,0-1.64356-.44433-2.47071-1.43945-2.47071A2.03336,2.03336,0,0,0,422.24121,209.53223Z" transform="translate(148.00781 9.7186)"/>
    <path d="M431.75586,214.293a1.88194,1.88194,0,0,1-2.123-1.89453v-3.76563h-1.45117v-.792h1.45117v-1.42676l1.00782-.12011v1.54687H432.835l-.13183.792h-2.0625v3.75391c0,.69531.34765,1.06738,1.21093,1.06738a2.54635,2.54635,0,0,0,1.21094-.2998l.39648.68359A3.31931,3.31931,0,0,1,431.75586,214.293Z" transform="translate(148.00781 9.7186)"/>
    <path d="M440.75391,210.99512c0,1.94336-.959,3.29785-2.72168,3.29785-1.77539,0-2.72266-1.29492-2.72266-3.28613,0-1.94239.959-3.29786,2.73438-3.29786S440.75391,209.00391,440.75391,210.99512Zm-4.35352.01172c0,1.67968.54,2.459,1.63184,2.459,1.09082,0,1.63086-.7793,1.63086-2.4707,0-1.667-.54-2.459-1.61914-2.459C436.95215,208.53613,436.40039,209.32813,436.40039,211.00684Z" transform="translate(148.00781 9.7186)"/>
    <path d="M447.99023,207.84082l-.14453,2.14648h-.81543v-1.35449h-.05957c-.97168,0-1.667.69532-2.07519,2.08692v2.66211h1.2832v.77929h-3.28613v-.77929h.99609v-4.76172h-.99609v-.7793h1.751l.19239,1.499a2.35446,2.35446,0,0,1,2.2666-1.63086A3.2827,3.2827,0,0,1,447.99023,207.84082Z" transform="translate(148.00781 9.7186)"/>
    <path d="M457.96387,212.05078l-.65918,2.11035h-1.03223l2.69922-8.26367H460.291l2.68652,8.26367h-1.08008l-.65918-2.11035Zm2.998-.86426-1.35449-4.40136-1.36719,4.40136Z" transform="translate(148.00781 9.7186)"/>
    <path d="M469.877,208.12891a6.22483,6.22483,0,0,1-1.84668.17968,1.6656,1.6656,0,0,1,1.10352,1.59473,2.12691,2.12691,0,0,1-2.375,2.14746,2.65239,2.65239,0,0,1-.94727-.13183.8428.8428,0,0,0-.32422.61132c0,.29981.19239.54.83985.54h1.13965c1.2705,0,2.23047.73145,2.23047,1.71485,0,1.23535-1.0918,1.91894-3.01075,1.91894-2.01464,0-2.66211-.624-2.66211-1.90722h.91114c0,.74414.33593,1.09179,1.751,1.09179,1.37989,0,1.99121-.36035,1.99121-1.04394,0-.59961-.61132-.89942-1.415-.89942h-1.12793c-1.10352,0-1.59473-.56347-1.59473-1.19922a1.37235,1.37235,0,0,1,.69531-1.10351,1.78994,1.78994,0,0,1-1.05566-1.73926,2.26624,2.26624,0,0,1,2.51953-2.19434,6.08319,6.08319,0,0,0,2.87793-.52734Zm-4.665,1.77441a1.35081,1.35081,0,0,0,1.499,1.47559,1.30072,1.30072,0,0,0,1.3789-1.48731,1.26153,1.26153,0,0,0-1.40332-1.43945A1.32561,1.32561,0,0,0,465.21191,209.90332Z" transform="translate(148.00781 9.7186)"/>
    <path d="M476.75293,210.99512c0,1.94336-.96,3.29785-2.72266,3.29785-1.77441,0-2.72265-1.29492-2.72265-3.28613,0-1.94239.96-3.29786,2.73437-3.29786C475.81738,207.709,476.75293,209.00391,476.75293,210.99512Zm-4.35352.01172c0,1.67968.54,2.459,1.63086,2.459,1.0918,0,1.63086-.7793,1.63086-2.4707,0-1.667-.53906-2.459-1.61914-2.459C472.95117,208.53613,472.39941,209.32813,472.39941,211.00684Z" transform="translate(148.00781 9.7186)"/>
    <path d="M478.83105,207.84082h.86426l.084.8877a2.74287,2.74287,0,0,1,2.08691-1.01954c1.23535,0,1.77442.69532,1.77442,1.8711v4.58105h-1.00684v-3.83789c0-1.29492-.13281-1.81054-1.08008-1.81054a2.22219,2.22219,0,0,0-1.71484,1.05566v4.59277h-1.00782Z" transform="translate(148.00781 9.7186)"/>
    <path d="M489.2334,213.35742h1.77539v.80371H486.2832v-.80371h1.94239v-4.71289h-1.88282v-.80371h2.89063Zm-.05957-7.75976a.69669.69669,0,0,1-.74414.708.70762.70762,0,1,1,0-1.415A.69648.69648,0,0,1,489.17383,205.59766Z" transform="translate(148.00781 9.7186)"/>
    <path d="M496.94922,212.458c0-.56348-.18067-.86328-1.52344-1.19922-1.30762-.32324-2.15918-.71973-2.15918-1.82324,0-1.05469.97168-1.72657,2.39844-1.72657a3.86145,3.86145,0,0,1,2.30273.69532l-.45507.69629a2.99861,2.99861,0,0,0-1.82325-.57618c-1.00781,0-1.36718.34766-1.36718.82715,0,.57617.3955.76758,1.667,1.11621,1.23535.335,2.05078.76758,2.05078,1.94239,0,1.35547-1.30664,1.88281-2.65039,1.88281a3.61988,3.61988,0,0,1-2.4707-.85156l.56347-.65918a3.00759,3.00759,0,0,0,1.90723.68359C496.36133,213.46582,496.94922,213.07031,496.94922,212.458Z" transform="translate(148.00781 9.7186)"/>
    <path d="M503.75293,214.293a1.88194,1.88194,0,0,1-2.123-1.89453v-3.76563h-1.45117v-.792h1.45117v-1.42676l1.00782-.12011v1.54687H504.832l-.13183.792h-2.0625v3.75391c0,.69531.34765,1.06738,1.21093,1.06738a2.54635,2.54635,0,0,0,1.21094-.2998l.39648.68359A3.31931,3.31931,0,0,1,503.75293,214.293Z" transform="translate(148.00781 9.7186)"/>
    <path d="M518.03223,213.35742h1.77539v.80371H515.082v-.80371h1.94238v-4.71289H515.1416v-.80371h2.89063Zm-.05957-7.75976a.69669.69669,0,0,1-.74414.708.70762.70762,0,1,1,0-1.415A.69648.69648,0,0,1,517.97266,205.59766Z" transform="translate(148.00781 9.7186)"/>
    <path d="M522.0293,207.84082h.86425l.084.8877a2.74287,2.74287,0,0,1,2.08691-1.01954c1.23535,0,1.77442.69532,1.77442,1.8711v4.58105H525.832v-3.83789c0-1.29492-.13281-1.81054-1.08008-1.81054a2.22221,2.22221,0,0,0-1.71484,1.05566v4.59277H522.0293Z" transform="translate(148.00781 9.7186)"/>
    <path d="M538.6123,214.16113h-2.23144v-8.26367h2.03906c1.45117,0,2.92676.46777,2.92676,2.08692a1.81174,1.81174,0,0,1-1.54785,1.7998,1.96908,1.96908,0,0,1,1.90722,2.02637C541.70605,213.60938,540.12305,214.16113,538.6123,214.16113Zm.04786-7.41211H537.4248v2.66309h1.33106c.97168,0,1.52344-.4082,1.52344-1.36719C540.2793,207.09766,539.65527,206.749,538.66016,206.749Zm.168,3.52637H537.4248v3.02246H538.792c.80371,0,1.81055-.22754,1.81055-1.45117C540.60254,210.58691,539.79883,210.27539,538.82813,210.27539Z" transform="translate(148.00781 9.7186)"/>
    <path d="M548.78613,207.84082l-.14453,2.14648h-.81543v-1.35449h-.05957c-.97168,0-1.667.69532-2.07519,2.08692v2.66211h1.2832v.77929h-3.28613v-.77929h.99609v-4.76172h-.99609v-.7793h1.751l.19239,1.499a2.35446,2.35446,0,0,1,2.2666-1.63086A3.28276,3.28276,0,0,1,548.78613,207.84082Z" transform="translate(148.00781 9.7186)"/>
    <path d="M555.87793,213.58594l-.25195.71972a1.25493,1.25493,0,0,1-1.15137-.89941,2.4224,2.4224,0,0,1-1.97949.88672,1.85294,1.85294,0,0,1-2.03809-1.94238c0-1.2959,1.043-2.02735,2.9502-2.02735h.93554v-.51562c0-.92383-.56347-1.25879-1.499-1.25879a5.17452,5.17452,0,0,0-1.64355.32324l-.2754-.76758a6.17379,6.17379,0,0,1,2.07422-.39551c1.57129,0,2.36328.791,2.36328,2.03907v3.03418C555.3623,213.28613,555.51758,213.47754,555.87793,213.58594Zm-1.53516-.94727v-1.61914h-.91211c-1.39062,0-1.89453.50293-1.89453,1.31836a1.061,1.061,0,0,0,1.21094,1.2002A1.93412,1.93412,0,0,0,554.34277,212.63867Z" transform="translate(148.00781 9.7186)"/>
    <path d="M561.23047,213.35742h1.77539v.80371h-4.72559v-.80371h1.94239v-4.71289h-1.88282v-.80371h2.89063Zm-.05957-7.75976a.69669.69669,0,0,1-.74414.708.70762.70762,0,1,1,0-1.415A.69648.69648,0,0,1,561.1709,205.59766Z" transform="translate(148.00781 9.7186)"/>
    <path d="M565.22754,207.84082h.86426l.084.8877a2.74288,2.74288,0,0,1,2.08692-1.01954c1.23535,0,1.77441.69532,1.77441,1.8711v4.58105h-1.00684v-3.83789c0-1.29492-.13281-1.81054-1.08007-1.81054a2.22221,2.22221,0,0,0-1.71485,1.05566v4.59277h-1.00781Z" transform="translate(148.00781 9.7186)"/>
    <path d="M574.81445,212.18262a1.05518,1.05518,0,1,1-1.05566,1.05566A1.0351,1.0351,0,0,1,574.81445,212.18262Z" transform="translate(148.00781 9.7186)"/>
    <path d="M582.01367,212.18262a1.05518,1.05518,0,1,1-1.05469,1.05566A1.03451,1.03451,0,0,1,582.01367,212.18262Z" transform="translate(148.00781 9.7186)"/>
    <path d="M589.21387,212.18262a1.05518,1.05518,0,1,1-1.05567,1.05566A1.03509,1.03509,0,0,1,589.21387,212.18262Z" transform="translate(148.00781 9.7186)"/>
  </g>
</svg>
