<svg id="图层_1" data-name="图层 1" xmlns="http://www.w3.org/2000/svg" xmlns:xlink="http://www.w3.org/1999/xlink" viewBox="0 0 284.36334 92.29383">
  <defs>
    <style>
      .cls-1, .cls-3 {
        fill: none;
      }

      .cls-2 {
        clip-path: url(#clip-path);
      }

      .cls-3 {
        stroke: #000;
        stroke-miterlimit: 3.864;
        stroke-width: 0.97222px;
      }
    </style>
    <clipPath id="clip-path" transform="translate(-137.78578 -98.35757)">
      <rect id="SVGID" class="cls-1" x="137.77684" y="98.35846" width="284.38213" height="92.29288"/>
    </clipPath>
  </defs>
  <title>未标题-2</title>
  <g class="cls-2">
    <polygon class="cls-3" points="71.504 62.615 50.738 50.663 50.738 26.761 71.504 14.808 92.271 26.761 92.271 50.663 71.504 62.615"/>
    <path class="cls-3" d="M209.30142,156.19263l-16.62393-9.56134m33.23621-19.12268-.01169,19.12268m-33.21478-19.12268,16.6025-9.56141m58.12159,10.75727-.01172,19.12079m-88.99732-22.493,10.018-.16687m109.89224.16687h10.40942m18.0398,0h10.41144m18.03784,0h10.41138" transform="translate(-137.78578 -98.35757)"/>
    <path d="M287.47362,103.36353h4.79268v-2.94245a3.39024,3.39024,0,0,0-.09891-1.03894.66836.66836,0,0,0-.31952-.32617,1.38176,1.38176,0,0,0-.69228-.182h-.36515v-.28058h4.41233V98.874h-.36515a1.42728,1.42728,0,0,0-.69228.17444.61852.61852,0,0,0-.33095.3678,3.60658,3.60658,0,0,0-.08748,1.00488v6.63562a3.35546,3.35546,0,0,0,.09891,1.03137.66653.66653,0,0,0,.31191.32618,1.42109,1.42109,0,0,0,.69989.182h.36515v.28064h-4.41221v-.28058h.36514a1.03848,1.03848,0,0,0,.92052-.37164,2.17693,2.17693,0,0,0,.19018-1.16785v-3.132h-4.79266v3.132a3.35662,3.35662,0,0,0,.09885,1.03138.66835.66835,0,0,0,.31956.32611,1.38136,1.38136,0,0,0,.69223.182h.37277v.28058h-4.42v-.28058h.36514a1.04667,1.04667,0,0,0,.92807-.37164,2.2647,2.2647,0,0,0,.18259-1.16785v-6.63574a3.38958,3.38958,0,0,0-.09885-1.03894.66711.66711,0,0,0-.312-.32617,1.42136,1.42136,0,0,0-.69985-.182h-.36514v-.28058H288.957V98.874h-.37277a1.42728,1.42728,0,0,0-.69228.17444.63244.63244,0,0,0-.32713.3678,3.48052,3.48052,0,0,0-.09129,1.00488Z" transform="translate(-137.78578 -98.35757)"/>
    <path d="M294.0864,121.6087l.23584,3.496h-.23584a4.28948,4.28948,0,0,0-1.34655-2.25989,3.19836,3.19836,0,0,0-2.09965-.69007,3.25,3.25,0,0,0-3.16078,2.17652,7.27719,7.27719,0,0,0-.47548,2.82861,5.9391,5.9391,0,0,0,.44888,2.41913,3.272,3.272,0,0,0,1.3503,1.56976,3.8216,3.8216,0,0,0,2.0578.546,3.52181,3.52181,0,0,0,1.77258-.42846,5.78247,5.78247,0,0,0,1.68884-1.70252l.23584.15167a5.31805,5.31805,0,0,1-1.81059,2.00965,4.50552,4.50552,0,0,1-2.4572.637,4.656,4.656,0,0,1-3.97113-1.89587,5.26938,5.26938,0,0,1-1.04982-3.3216,5.78752,5.78752,0,0,1,.69228-2.82861,4.91374,4.91374,0,0,1,1.90571-1.99823,5.064,5.064,0,0,1,2.65119-.70911,4.80338,4.80338,0,0,1,2.20617.546,1.192,1.192,0,0,0,.45644.16687.4849.4849,0,0,0,.35754-.1441,1.15959,1.15959,0,0,0,.28148-.56879Z" transform="translate(-137.78578 -98.35757)"/>
    <path d="M287.47362,149.865h4.79268v-2.94336a3.3895,3.3895,0,0,0-.09891-1.03888.66787.66787,0,0,0-.31952-.32617,1.3812,1.3812,0,0,0-.69228-.18207h-.36515v-.28058h4.41233v.28058h-.36515a1.42728,1.42728,0,0,0-.69228.17444.61835.61835,0,0,0-.33095.3678,3.60164,3.60164,0,0,0-.08748,1.00482v6.6366a3.35939,3.35939,0,0,0,.09891,1.03137.67165.67165,0,0,0,.31191.32617,1.42115,1.42115,0,0,0,.69989.182h.36515v.28064h-4.41221v-.28064h.36514a1.04151,1.04151,0,0,0,.92052-.37159,2.18157,2.18157,0,0,0,.19018-1.1679v-3.132h-4.79266v3.132a3.35962,3.35962,0,0,0,.09885,1.03137.67216.67216,0,0,0,.31956.32617,1.38147,1.38147,0,0,0,.69223.182h.37277v.28064h-4.42v-.28064h.36514a1.04949,1.04949,0,0,0,.92807-.37158,2.27009,2.27009,0,0,0,.18259-1.16785v-6.6366a3.38941,3.38941,0,0,0-.09885-1.03894.66686.66686,0,0,0-.312-.32617,1.42136,1.42136,0,0,0-.69985-.182h-.36514V145.094H288.957v.28058h-.37277a1.42681,1.42681,0,0,0-.69228.17444.63244.63244,0,0,0-.32713.3678,3.4803,3.4803,0,0,0-.09129,1.00482Z" transform="translate(-137.78578 -98.35757)"/>
    <path d="M315.81329,103.36353h4.79276v-2.94245a3.39179,3.39179,0,0,0-.09891-1.03894.66861.66861,0,0,0-.31952-.32617,1.38182,1.38182,0,0,0-.69229-.182h-.36514v-.28058h4.41232V98.874h-.3652a1.427,1.427,0,0,0-.69223.17444.61868.61868,0,0,0-.33094.3678,3.60265,3.60265,0,0,0-.08749,1.00488v6.63562a3.35485,3.35485,0,0,0,.09891,1.03137.66625.66625,0,0,0,.31192.32618,1.4207,1.4207,0,0,0,.69983.182h.3652v.28064h-4.41232v-.28058h.36514a1.03884,1.03884,0,0,0,.9205-.37164,2.17733,2.17733,0,0,0,.19022-1.16785v-3.132h-4.79276v3.132a3.352,3.352,0,0,0,.09891,1.03138.668.668,0,0,0,.31952.32611,1.38155,1.38155,0,0,0,.69229.182h.37277v.28058h-4.42v-.28058h.36514a1.04679,1.04679,0,0,0,.92813-.37164,2.264,2.264,0,0,0,.18259-1.16785v-6.63574a3.39086,3.39086,0,0,0-.09891-1.03894.66716.66716,0,0,0-.31192-.32617,1.42165,1.42165,0,0,0-.69989-.182h-.36514v-.28058h4.42V98.874H316.924a1.42729,1.42729,0,0,0-.69229.17444.63262.63262,0,0,0-.32718.3678,3.47983,3.47983,0,0,0-.09131,1.00488Z" transform="translate(-137.78578 -98.35757)"/>
    <path d="M322.41089,121.6087l.23584,3.496h-.23584a4.28884,4.28884,0,0,0-1.34653-2.25989,3.19844,3.19844,0,0,0-2.09964-.69007,3.24979,3.24979,0,0,0-3.1608,2.17652,7.28015,7.28015,0,0,0-.47549,2.82861,5.94007,5.94007,0,0,0,.44885,2.41913,3.27221,3.27221,0,0,0,1.35034,1.56976,3.82192,3.82192,0,0,0,2.0578.546,3.52083,3.52083,0,0,0,1.77253-.42846,5.78327,5.78327,0,0,0,1.6889-1.70252l.23578.15167a5.31688,5.31688,0,0,1-1.81055,2.00965,4.50626,4.50626,0,0,1-2.45724.637,4.65575,4.65575,0,0,1-3.97107-1.89587,5.26991,5.26991,0,0,1-1.04981-3.3216,5.78717,5.78717,0,0,1,.69226-2.82861,4.91385,4.91385,0,0,1,1.90564-1.99823,5.06464,5.06464,0,0,1,2.65128-.70911,4.80318,4.80318,0,0,1,2.20612.546,1.19228,1.19228,0,0,0,.45642.16687.48455.48455,0,0,0,.3576-.1441,1.15887,1.15887,0,0,0,.2815-.56879Z" transform="translate(-137.78578 -98.35757)"/>
    <path d="M315.81329,149.865h4.79276v-2.94336a3.391,3.391,0,0,0-.09891-1.03888.66812.66812,0,0,0-.31952-.32617,1.3825,1.3825,0,0,0-.69229-.18207h-.36514v-.28058h4.41232v.28058h-.3652a1.427,1.427,0,0,0-.69223.17444.61868.61868,0,0,0-.33094.3678,3.59715,3.59715,0,0,0-.08749,1.00482v6.6366a3.3631,3.3631,0,0,0,.09891,1.03137.67111.67111,0,0,0,.31192.32617,1.42076,1.42076,0,0,0,.69983.182h.3652v.28064h-4.41232v-.28064h.36514a1.04172,1.04172,0,0,0,.9205-.37159,2.18283,2.18283,0,0,0,.19022-1.1679v-3.132h-4.79276v3.132a3.359,3.359,0,0,0,.09891,1.03137.672.672,0,0,0,.31952.32617,1.38166,1.38166,0,0,0,.69229.182h.37277v.28064h-4.42v-.28064h.36514a1.04953,1.04953,0,0,0,.92813-.37158,2.27123,2.27123,0,0,0,.18259-1.16785v-6.6366a3.39068,3.39068,0,0,0-.09891-1.03894.66691.66691,0,0,0-.31192-.32617,1.42165,1.42165,0,0,0-.69989-.182h-.36514V145.094h4.42v.28058H316.924a1.42662,1.42662,0,0,0-.69229.17444.63244.63244,0,0,0-.32718.3678,3.47942,3.47942,0,0,0-.09131,1.00482Z" transform="translate(-137.78578 -98.35757)"/>
    <path d="M344.231,103.36353h4.79272v-2.94245a3.389,3.389,0,0,0-.09891-1.03894.66826.66826,0,0,0-.31951-.32617,1.38162,1.38162,0,0,0-.69227-.182h-.36517v-.28058h4.41236V98.874H351.595a1.42709,1.42709,0,0,0-.69226.17444.61872.61872,0,0,0-.331.3678,3.60544,3.60544,0,0,0-.08747,1.00488v6.63562a3.35546,3.35546,0,0,0,.09891,1.03137.66733.66733,0,0,0,.31189.32618,1.42078,1.42078,0,0,0,.69989.182h.36518v.28064h-4.41236v-.28058h.36517a1.03892,1.03892,0,0,0,.92051-.37164,2.177,2.177,0,0,0,.19018-1.16785v-3.132H344.231v3.132a3.35143,3.35143,0,0,0,.09891,1.03138.66824.66824,0,0,0,.31948.32611,1.38051,1.38051,0,0,0,.69229.182h.37278v.28058h-4.42v-.28058h.36515a1.0469,1.0469,0,0,0,.92813-.37164,2.26532,2.26532,0,0,0,.18259-1.16785v-6.63574a3.39086,3.39086,0,0,0-.09891-1.03894.66727.66727,0,0,0-.31189-.32617,1.42182,1.42182,0,0,0-.69992-.182h-.36515v-.28058h4.42V98.874h-.37278a1.42748,1.42748,0,0,0-.69229.17444.63282.63282,0,0,0-.32718.3678,3.483,3.483,0,0,0-.09127,1.00488Z" transform="translate(-137.78578 -98.35757)"/>
    <path d="M340.38736,121.84375h2.79953l6.30658,7.71246v-5.93029a1.98467,1.98467,0,0,0-.213-1.183,1.08247,1.08247,0,0,0-.89-.31854h-.35754v-.28058h3.59073v.28058h-.36515a.991.991,0,0,0-.92813.39435,2.25338,2.25338,0,0,0-.16739,1.10724v8.668h-.27386l-6.80106-8.28125v6.33228a2.05409,2.05409,0,0,0,.20539,1.183,1.09394,1.09394,0,0,0,.89.31855h.36514v.28051h-3.59072v-.28064h.35751a.99859.99859,0,0,0,.93576-.39428,2.255,2.255,0,0,0,.16733-1.10718v-7.15125a4.65937,4.65937,0,0,0-.68085-.69012,2.49045,2.49045,0,0,0-.68085-.311,2.419,2.419,0,0,0-.66943-.06824Z" transform="translate(-137.78578 -98.35757)"/>
    <path d="M374.48587,98.912a2.72489,2.72489,0,0,0-2.22134,1.02374,5.617,5.617,0,0,0-1.04221,3.73114,5.92388,5.92388,0,0,0,1.08023,3.87518,2.67441,2.67441,0,0,0,2.19092,1.03132,2.99676,2.99676,0,0,0,2.40018-1.12983,5.344,5.344,0,0,0,.94711-3.56427,6.04841,6.04841,0,0,0-1.04221-3.93591,2.8158,2.8158,0,0,0-2.31268-1.03137Zm.14453-.55359a4.68625,4.68625,0,0,1,3.48041,1.52045,5.24013,5.24013,0,0,1,1.47208,3.79559,5.39593,5.39593,0,0,1-1.48343,3.89038,4.96743,4.96743,0,0,1-7.17008.03784,5.40479,5.40479,0,0,1-1.44919-3.90552,5.19146,5.19146,0,0,1,1.67362-3.99652A4.76947,4.76947,0,0,1,374.6304,98.35846Z" transform="translate(-137.78578 -98.35757)"/>
    <path d="M379.1702,121.6087l.23584,3.496h-.23584a4.28951,4.28951,0,0,0-1.34653-2.25989,3.19825,3.19825,0,0,0-2.09967-.69007,3.24992,3.24992,0,0,0-3.16077,2.17652,7.27608,7.27608,0,0,0-.47549,2.82861,5.93891,5.93891,0,0,0,.44888,2.41913,3.27152,3.27152,0,0,0,1.35028,1.56976,3.822,3.822,0,0,0,2.05783.546,3.52127,3.52127,0,0,0,1.77259-.42846,5.78283,5.78283,0,0,0,1.68884-1.70252l.23584.15167a5.31851,5.31851,0,0,1-1.81061,2.00965,4.50548,4.50548,0,0,1-2.45718.637,4.65534,4.65534,0,0,1-3.97113-1.89587,5.27012,5.27012,0,0,1-1.04984-3.3216,5.78676,5.78676,0,0,1,.69229-2.82861,4.91288,4.91288,0,0,1,1.90564-1.99823,5.06559,5.06559,0,0,1,2.65125-.70911,4.80413,4.80413,0,0,1,2.20617.546,1.19162,1.19162,0,0,0,.45646.16687.48493.48493,0,0,0,.35754-.1441,1.15948,1.15948,0,0,0,.28146-.56879Z" transform="translate(-137.78578 -98.35757)"/>
    <path d="M405.81155,120.47491l.23584,3.496h-.23584a4.28867,4.28867,0,0,0-1.34655-2.25989,3.19811,3.19811,0,0,0-2.09964-.69012,3.2496,3.2496,0,0,0-3.16089,2.17651,7.27961,7.27961,0,0,0-.4755,2.82861,5.93987,5.93987,0,0,0,.44883,2.41913,3.27226,3.27226,0,0,0,1.35034,1.56976,3.82083,3.82083,0,0,0,2.05783.546,3.52126,3.52126,0,0,0,1.77258-.42846,5.78236,5.78236,0,0,0,1.68884-1.70252l.23584.15174a5.3173,5.3173,0,0,1-1.8106,2.00958,4.505,4.505,0,0,1-2.45719.637,4.6554,4.6554,0,0,1-3.97113-1.89587,5.27011,5.27011,0,0,1-1.04983-3.3216,5.78665,5.78665,0,0,1,.69229-2.82861,4.91318,4.91318,0,0,1,1.90564-1.99823,5.06553,5.06553,0,0,1,2.65124-.70911,4.80256,4.80256,0,0,1,2.20618.546,1.19184,1.19184,0,0,0,.45645.16687.48521.48521,0,0,0,.35754-.14411,1.15823,1.15823,0,0,0,.28147-.56879Z" transform="translate(-137.78578 -98.35757)"/>
    <path d="M410.02606,125.48h4.7927v-2.94238a3.39212,3.39212,0,0,0-.09885-1.03894.66891.66891,0,0,0-.31952-.32617,1.38182,1.38182,0,0,0-.69229-.182H413.343V120.71h4.41229v.28058h-.36517a1.42658,1.42658,0,0,0-.6923.17444.618.618,0,0,0-.33087.3678,3.59558,3.59558,0,0,0-.08746,1.00476v6.63574a3.355,3.355,0,0,0,.09885,1.03137.6672.6672,0,0,0,.31195.32617,1.42146,1.42146,0,0,0,.69983.182h.36517v.28052H413.343v-.28052h.36514a1.03874,1.03874,0,0,0,.9205-.37164,2.17676,2.17676,0,0,0,.19016-1.16791v-3.132h-4.7927v3.132a3.357,3.357,0,0,0,.09891,1.03137.66823.66823,0,0,0,.31952.32617,1.3829,1.3829,0,0,0,.69229.182h.37277v.28052H407.0896v-.28052h.36514a1.04719,1.04719,0,0,0,.92813-.37164,2.26617,2.26617,0,0,0,.18259-1.16791v-6.63562a3.3903,3.3903,0,0,0-.09891-1.03894.66727.66727,0,0,0-.31189-.32617,1.42169,1.42169,0,0,0-.69992-.182h-.36514V120.71h4.41995v.28058h-.37277a1.42643,1.42643,0,0,0-.69229.17444.63162.63162,0,0,0-.32718.3678,3.48,3.48,0,0,0-.09128,1.00476Z" transform="translate(-137.78578 -98.35757)"/>
    <path d="M418.58258,127.91815a2.59657,2.59657,0,0,1,.69611-1.00293,1.53379,1.53379,0,0,1,1.0498-.3526,1.37658,1.37658,0,0,1,1.18677.50238,1.19007,1.19007,0,0,1,.3157.801,1.94468,1.94468,0,0,1-.88629,1.45038,1.87278,1.87278,0,0,1,.8996.66357,1.66737,1.66737,0,0,1,.30432,1.01428,2.05681,2.05681,0,0,1-.53256,1.44562,2.40744,2.40744,0,0,1-2.01029.79627,1.675,1.675,0,0,1-.88815-.16114.41563.41563,0,0,1-.23392-.34595.30572.30572,0,0,1,.11032-.24169.36709.36709,0,0,1,.27008-.10437.808.808,0,0,1,.24146.038,3.06431,3.06431,0,0,1,.367.17248,2.27432,2.27432,0,0,0,.39368.17823,1.293,1.293,0,0,0,.37473.05212,1.08773,1.08773,0,0,0,.84439-.37439,1.18971,1.18971,0,0,0,.35946-.88635,1.69362,1.69362,0,0,0-.16552-.73,1.2926,1.2926,0,0,0-.272-.40283,1.96208,1.96208,0,0,0-.561-.34314,1.78158,1.78158,0,0,0-.7265-.15454h-.152v-.14209a1.949,1.949,0,0,0,.75317-.27015,1.40952,1.40952,0,0,0,.54773-.53564,1.38646,1.38646,0,0,0,.17115-.68726,1.04006,1.04006,0,0,0-1.06882-1.09008,1.44242,1.44242,0,0,0-1.23245.78674Z" transform="translate(-137.78578 -98.35757)"/>
    <line class="cls-3" x1="244.67479" y1="26.97471" x2="255.08623" y2="26.97471"/>
    <path d="M146.60426,120.46069l.23584,3.496h-.23584a4.289,4.289,0,0,0-1.34652-2.25989,3.198,3.198,0,0,0-2.09967-.69007,3.24982,3.24982,0,0,0-3.1609,2.17646,7.279,7.279,0,0,0-.47546,2.82861,5.93955,5.93955,0,0,0,.44883,2.41913,3.27187,3.27187,0,0,0,1.35034,1.56982,3.82182,3.82182,0,0,0,2.05782.546,3.52077,3.52077,0,0,0,1.77252-.42846,5.78475,5.78475,0,0,0,1.68888-1.70252l.23584.15167a5.318,5.318,0,0,1-1.81061,2.00965,4.506,4.506,0,0,1-2.45719.637,4.65556,4.65556,0,0,1-3.9711-1.89587,5.26949,5.26949,0,0,1-1.04982-3.32166,5.787,5.787,0,0,1,.69225-2.82855,4.91308,4.91308,0,0,1,1.90568-1.99829,5.064,5.064,0,0,1,2.65121-.709,4.801,4.801,0,0,1,2.20615.546,1.19351,1.19351,0,0,0,.45647.16681.48454.48454,0,0,0,.35754-.1441,1.1582,1.1582,0,0,0,.28149-.56885Z" transform="translate(-137.78578 -98.35757)"/>
    <path d="M150.81879,125.46588h4.7927v-2.94244a3.3912,3.3912,0,0,0-.09888-1.039.668.668,0,0,0-.31953-.32605,1.3811,1.3811,0,0,0-.69226-.18207h-.36516v-.28058H158.548v.28058h-.36515a1.42734,1.42734,0,0,0-.69229.17444.61833.61833,0,0,0-.33093.36779,3.60139,3.60139,0,0,0-.08751,1.00483v6.63568a3.35887,3.35887,0,0,0,.0989,1.03137.66693.66693,0,0,0,.31193.32611,1.42044,1.42044,0,0,0,.69987.182h.36515v.28064h-4.41228v-.28064h.36516a1.03877,1.03877,0,0,0,.92051-.37158,2.17635,2.17635,0,0,0,.19016-1.16785v-3.132h-4.7927v3.132a3.35625,3.35625,0,0,0,.0989,1.03137.66762.66762,0,0,0,.31952.32611,1.381,1.381,0,0,0,.69228.18207h.37277v.28052h-4.42v-.28052h.36516a1.047,1.047,0,0,0,.92812-.37164,2.26522,2.26522,0,0,0,.18258-1.16785V122.5235a3.3897,3.3897,0,0,0-.09894-1.03894.6666.6666,0,0,0-.31189-.32617,1.4218,1.4218,0,0,0-.6999-.182h-.36516v-.28058h4.42v.28058h-.37277a1.42659,1.42659,0,0,0-.69229.17444.63222.63222,0,0,0-.32718.3678,3.48125,3.48125,0,0,0-.09129,1.00482Z" transform="translate(-137.78578 -98.35757)"/>
    <path d="M159.36008,127.90491a2.59543,2.59543,0,0,1,.69607-1.00287,1.53308,1.53308,0,0,1,1.04985-.35266,1.37678,1.37678,0,0,1,1.18676.50232,1.19109,1.19109,0,0,1,.31571.801,1.94423,1.94423,0,0,1-.88626,1.45038,1.87291,1.87291,0,0,1,.89956.66357,1.66844,1.66844,0,0,1,.3043,1.01429,2.0568,2.0568,0,0,1-.53253,1.44561,2.40748,2.40748,0,0,1-2.01026.79627,1.67653,1.67653,0,0,1-.88816-.16113.41556.41556,0,0,1-.23394-.346.30649.30649,0,0,1,.1103-.24176.36714.36714,0,0,1,.27006-.10431.80663.80663,0,0,1,.24149.038,3.06333,3.06333,0,0,1,.36706.17249,2.27891,2.27891,0,0,0,.39369.17822,1.29472,1.29472,0,0,0,.37465.05213,1.08813,1.08813,0,0,0,.84445-.37439,1.19055,1.19055,0,0,0,.35945-.88636,1.69334,1.69334,0,0,0-.16555-.73,1.29225,1.29225,0,0,0-.272-.40283,1.96377,1.96377,0,0,0-.56106-.34314,1.78221,1.78221,0,0,0-.72642-.15454h-.15214V129.777a1.94869,1.94869,0,0,0,.75314-.27014,1.41057,1.41057,0,0,0,.54773-.53565,1.38664,1.38664,0,0,0,.17119-.68725,1.04007,1.04007,0,0,0-1.06888-1.09009,1.4424,1.4424,0,0,0-1.23239.78674Z" transform="translate(-137.78578 -98.35757)"/>
    <path d="M169.83366,121.01434a2.72486,2.72486,0,0,0-2.22138,1.02375,5.61716,5.61716,0,0,0-1.04223,3.73114,5.92444,5.92444,0,0,0,1.08026,3.87512,2.67448,2.67448,0,0,0,2.191,1.03137,2.99673,2.99673,0,0,0,2.40018-1.12988,5.344,5.344,0,0,0,.9471-3.56421,6.04816,6.04816,0,0,0-1.04224-3.93591,2.81578,2.81578,0,0,0-2.31266-1.03138Zm.14455-.55365a4.68678,4.68678,0,0,1,3.48041,1.52051,5.23946,5.23946,0,0,1,1.472,3.79559,5.39663,5.39663,0,0,1-1.48344,3.89039,4.96744,4.96744,0,0,1-7.17.03784,5.40447,5.40447,0,0,1-1.44926-3.90546,5.192,5.192,0,0,1,1.67364-3.99652A4.77024,4.77024,0,0,1,169.97821,120.46069Z" transform="translate(-137.78578 -98.35757)"/>
    <path class="cls-3" d="M317.83441,141.308v-6.14453m0-17.9812v-6.14447M289.62665,141.308v-6.14447m0-17.9812v-6.14453m56.78747,6.14453v-6.14453m28.57972,6.14453v-6.14453" transform="translate(-137.78578 -98.35757)"/>
    <path d="M245.63634,157.11871h2.79954l6.30657,7.71247v-5.93036a1.97857,1.97857,0,0,0-.213-1.183,1.08232,1.08232,0,0,0-.89-.31854h-.3576v-.28058h3.59074v.28058h-.36516a.9884.9884,0,0,0-.92811.39435,2.24993,2.24993,0,0,0-.16735,1.10718v8.668h-.27386l-6.8011-8.28131v6.33233a2.05784,2.05784,0,0,0,.20543,1.18305,1.09358,1.09358,0,0,0,.89.31851h.36516v.28058h-3.59069v-.28049h.35753a1.001,1.001,0,0,0,.93569-.39438,2.25572,2.25572,0,0,0,.1674-1.10721v-7.15124a4.61572,4.61572,0,0,0-.68086-.69013,2.12842,2.12842,0,0,0-1.35034-.37921Z" transform="translate(-137.78578 -98.35757)"/>
    <path d="M249.4819,185.13806h4.79285v-2.94244a3.38386,3.38386,0,0,0-.09891-1.03894.66382.66382,0,0,0-.3195-.32614,1.38185,1.38185,0,0,0-.69229-.182h-.36516V180.368h4.41235v.28058h-.36516a1.41673,1.41673,0,0,0-.69229.17441.61254.61254,0,0,0-.33093.36779,3.59191,3.59191,0,0,0-.08748,1.00483v6.63568a3.358,3.358,0,0,0,.09891,1.03137.67113.67113,0,0,0,.31189.32614,1.42081,1.42081,0,0,0,.6999.182h.36516v.28055h-4.41235v-.28055h.36516a1.04177,1.04177,0,0,0,.9205-.37161,2.18208,2.18208,0,0,0,.1902-1.16788v-3.132H249.4819v3.132a3.35792,3.35792,0,0,0,.09891,1.03137.67251.67251,0,0,0,.3195.32614,1.38173,1.38173,0,0,0,.6923.182h.37277v.28058h-4.42v-.28058h.36516a1.04969,1.04969,0,0,0,.92813-.37158,2.27064,2.27064,0,0,0,.18257-1.16788v-6.63568a3.38327,3.38327,0,0,0-.09891-1.03894.66279.66279,0,0,0-.31189-.32614,1.42016,1.42016,0,0,0-.6999-.182h-.36516V180.368h4.42v.28058h-.37277a1.41592,1.41592,0,0,0-.6923.17441.62623.62623,0,0,0-.32717.3678,3.47377,3.47377,0,0,0-.0913,1.00482Z" transform="translate(-137.78578 -98.35757)"/>
    <line class="cls-3" x1="113.79231" y1="77.48203" x2="113.79231" y2="71.33747"/>
    <polyline class="cls-3" points="92.271 26.761 132.078 26.975 142.487 26.975"/>
    <polyline class="cls-3" points="133.279 26.975 133.279 52.127 121.446 57.835"/>
    <line class="cls-3" x1="92.27039" y1="50.66361" x2="105.59274" y2="57.83506"/>
  </g>
</svg>
