<svg id="图层_1" data-name="图层 1" xmlns="http://www.w3.org/2000/svg" xmlns:xlink="http://www.w3.org/1999/xlink" viewBox="0 0 267.82166 83.96431">
  <defs>
    <style>
      .cls-1, .cls-10, .cls-11, .cls-3, .cls-5, .cls-7, .cls-9 {
        fill: none;
      }

      .cls-2 {
        clip-path: url(#clip-path);
      }

      .cls-3, .cls-7 {
        stroke: #bfbf00;
      }

      .cls-10, .cls-11, .cls-3, .cls-5, .cls-7, .cls-9 {
        stroke-linejoin: round;
      }

      .cls-3, .cls-5 {
        stroke-width: 0.513px;
      }

      .cls-4 {
        clip-path: url(#clip-path-2);
      }

      .cls-5, .cls-9 {
        stroke: red;
      }

      .cls-6 {
        clip-path: url(#clip-path-3);
      }

      .cls-7, .cls-9 {
        stroke-width: 0.641px;
      }

      .cls-8 {
        clip-path: url(#clip-path-4);
      }

      .cls-10, .cls-11 {
        stroke: #000;
        stroke-width: 0.088px;
      }

      .cls-10 {
        stroke-linecap: round;
      }
    </style>
    <clipPath id="clip-path">
      <rect id="SVGID" class="cls-1" x="32.25067" y="6.27715" width="96.28592" height="62.05515"/>
    </clipPath>
    <clipPath id="clip-path-2">
      <rect id="SVGID-2" data-name="SVGID" class="cls-1" x="56.9147" y="6.27752" width="71.62189" height="48.80078"/>
    </clipPath>
    <clipPath id="clip-path-3">
      <rect id="SVGID-3" data-name="SVGID" class="cls-1" x="154.25369" y="6.2774" width="96.10977" height="34.49487"/>
    </clipPath>
    <clipPath id="clip-path-4">
      <rect id="SVGID-4" data-name="SVGID" class="cls-1" x="182.77972" y="6.27733" width="67.58398" height="22.909"/>
    </clipPath>
  </defs>
  <title>[OPTSxa6b4]_Degradation_Problem</title>
  <g>
    <g class="cls-2">
      <polyline class="cls-3" points="32.515 6.277 32.69 7.506 34.358 15.669 35.938 15.932 37.43 16.283 39.097 20.76 40.677 23.481 42.345 27.869 43.837 25.499 45.417 28.133 47.085 29.8 48.577 31.556 50.332 34.013 51.824 30.415 53.404 30.151 55.072 34.891 56.564 36.997 58.232 36.471 59.811 40.069 61.304 40.069 62.971 38.402 64.551 36.997 66.219 37.787 67.799 37.261 69.291 40.596 70.958 39.016 72.538 41.123 74.206 38.49 75.698 43.054 77.366 40.859 78.946 57.536 80.526 59.291 82.193 59.291 83.685 60.257 85.353 60.257 86.933 62.276 88.425 61.749 90.093 62.802 91.673 64.119 93.34 62.715 94.832 62.188 96.412 64.207 98.08 63.856 99.66 62.802 101.327 64.119 102.82 64.382 104.399 66.489 106.067 67.454 107.559 65.874 109.227 66.489 110.807 67.191 114.054 67.191 115.546 67.542 117.214 67.454 118.794 67.454 120.286 66.664 121.954 66.05 123.534 66.401 125.201 67.805 126.693 67.191 128.449 66.489 128.537 66.489"/>
    </g>
    <g class="cls-4">
      <polyline class="cls-5" points="57.266 6.277 58.232 10.49 59.811 7.945 61.304 11.631 62.971 9.964 64.551 17.337 66.219 6.628 67.799 17.6 69.291 18.214 70.958 10.754 72.538 15.406 74.206 16.634 75.698 17.424 77.366 10.754 78.946 33.662 80.526 38.753 82.193 37.612 83.685 40.069 85.353 41.825 86.933 41.825 88.425 43.756 90.093 44.458 91.673 40.947 93.34 43.931 94.832 45.424 96.412 44.282 98.08 44.019 99.66 44.019 101.327 46.126 102.82 45.336 104.399 49.285 106.067 53.147 107.559 51.743 109.227 51.216 110.807 53.323 112.387 53.06 114.054 52.094 115.546 51.48 117.214 50.251 118.794 53.323 120.286 52.533 121.954 51.48 123.534 54.552 125.201 54.288 126.693 52.621 128.449 51.919 128.537 52.27"/>
    </g>
    <g class="cls-6">
      <polyline class="cls-7" points="154.605 6.277 156.185 14.616 157.765 9.876 159.257 19.004 160.924 19.97 162.504 19.004 164.172 22.866 165.664 19.092 167.244 23.217 168.912 23.481 170.404 25.938 172.159 25.412 173.651 24.534 175.231 25.938 176.899 25.412 178.391 28.484 180.059 28.133 181.638 27.694 183.131 26.202 184.798 28.747 186.378 29.274 188.046 27.957 189.626 28.396 191.118 30.678 192.785 29.01 194.365 29.274 196.033 30.59 197.525 29.8 199.193 29.888 200.773 37.875 202.353 38.753 204.02 39.192 205.512 38.928 207.18 39.192 208.76 39.543 210.252 38.49 211.92 38.753 213.5 38.402 215.167 38.402 216.659 38.49 218.239 38.138 219.907 39.28 221.487 38.928 223.154 38.753 224.647 38.49 226.226 39.455 227.894 39.455 229.386 39.806 231.054 39.28 232.634 39.631 234.214 39.28 235.881 39.894 237.373 39.806 239.041 39.806 240.621 39.894 242.113 39.806 243.781 40.157 245.361 39.806 247.028 40.069 248.52 39.806 250.364 39.806"/>
    </g>
    <g class="cls-8">
      <polyline class="cls-9" points="183.131 6.277 183.131 6.541 184.798 6.892 186.378 12.597 188.046 7.418 189.626 6.365 191.118 11.368 192.785 11.017 194.365 12.421 196.033 12.685 197.525 11.807 199.193 10.666 200.773 24.007 202.353 24.885 204.02 25.763 205.512 26.202 207.18 26.816 208.76 26.816 210.252 27.43 211.92 27.343 213.5 25.938 215.167 26.553 216.659 27.694 218.239 27.606 219.907 26.816 221.487 27.167 223.154 26.816 224.647 25.763 226.226 27.694 227.894 28.22 229.386 28.396 231.054 27.606 232.634 28.396 234.214 28.22 235.881 27.869 237.373 28.484 239.041 28.659 240.621 28.133 242.113 27.957 245.361 27.957 247.028 28.396 248.52 28.396 250.276 28.22 250.364 28.22"/>
    </g>
    <line class="cls-10" x1="26.37067" y1="71.31627" x2="128.4487" y2="71.31627"/>
    <line class="cls-10" x1="26.37067" y1="71.31627" x2="26.37067" y2="6.27733"/>
    <line class="cls-11" x1="148.19672" y1="71.31627" x2="250.2757" y2="71.31627"/>
    <line class="cls-11" x1="148.19672" y1="71.31627" x2="148.19672" y2="6.27733"/>
    <g>
      <path d="M66.86151,77.07793v2.51563a1.13735,1.13735,0,0,0,.043.39062.29891.29891,0,0,0,.126.14551.67494.67494,0,0,0,.30615.04785v.12305h-1.521v-.12305a.69526.69526,0,0,0,.30762-.04492.30576.30576,0,0,0,.125-.14648,1.11617,1.11617,0,0,0,.0459-.39258v-1.207a4.27589,4.27589,0,0,0-.03076-.66016.26834.26834,0,0,0-.0752-.15137.21353.21353,0,0,0-.14013-.043.664.664,0,0,0-.23243.05176l-.04785-.123.94336-.38281Zm-.28369-1.63769a.34343.34343,0,0,1,.34522.34472.33959.33959,0,0,1-.10059.2461.33174.33174,0,0,1-.24463.10351.35178.35178,0,0,1-.34863-.34961.34429.34429,0,0,1,.34863-.34472Z"/>
      <path d="M68.63544,76.14043v1.0293h.73144V77.409h-.73144v2.03027a.68445.68445,0,0,0,.08691.41016.27827.27827,0,0,0,.22412.10547.38976.38976,0,0,0,.21875-.06934.45183.45183,0,0,0,.16407-.207h.1333a1.06519,1.06519,0,0,1-.33838.5039.72751.72751,0,0,1-.45117.169.60061.60061,0,0,1-.30762-.08691.52363.52363,0,0,1-.22217-.249,1.312,1.312,0,0,1-.07178-.501V77.409h-.4956v-.11231a1.32457,1.32457,0,0,0,.38476-.25488,2.043,2.043,0,0,0,.3501-.42578,3.84419,3.84419,0,0,0,.21875-.47559Z"/>
      <path d="M70.19745,78.34942a1.607,1.607,0,0,0,.33838,1.09375,1.03416,1.03416,0,0,0,.80322.39648.86987.86987,0,0,0,.53516-.16992,1.24633,1.24633,0,0,0,.38086-.5791l.10595.06836a1.62734,1.62734,0,0,1-.417.85254,1.11214,1.11214,0,0,1-.86474.38476,1.26351,1.26351,0,0,1-.96583-.43945,1.68332,1.68332,0,0,1-.40136-1.18067,1.78556,1.78556,0,0,1,.41211-1.25293A1.342,1.342,0,0,1,71.1579,77.074a1.15471,1.15471,0,0,1,.86474.34668,1.27346,1.27346,0,0,1,.33838.92871Zm0-.19922h1.44922a1.3322,1.3322,0,0,0-.07178-.42383.6878.6878,0,0,0-.25439-.30078.64933.64933,0,0,0-.354-.10938.70647.70647,0,0,0-.50732.22071A.9563.9563,0,0,0,70.19745,78.1502Z"/>
      <path d="M73.694,77.07793v.70313q.39332-.70312.80664-.70313a.439.439,0,0,1,.311.11426.35086.35086,0,0,1,.123.26465.31363.31363,0,0,1-.08886.22558.28435.28435,0,0,1-.21192.09278.4536.4536,0,0,1-.26806-.11817.44223.44223,0,0,0-.22071-.11816.202.202,0,0,0-.1333.06836,1.6509,1.6509,0,0,0-.31787.46094v1.501a.933.933,0,0,0,.06494.39356.35911.35911,0,0,0,.15723.15332.69114.69114,0,0,0,.32471.06152v.12305h-1.603v-.12305a.66867.66867,0,0,0,.35547-.07519.29107.29107,0,0,0,.11963-.17481,1.759,1.759,0,0,0,.01709-.331V78.38262a5.0835,5.0835,0,0,0-.022-.65039.26053.26053,0,0,0-.082-.15234.2299.2299,0,0,0-.14892-.04786.6561.6561,0,0,0-.23926.05176l-.03418-.123.94678-.38281Z"/>
      <path d="M75.37909,79.6375a.36356.36356,0,0,1,.27.11133.38374.38374,0,1,1-.27-.11133Z"/>
      <path d="M80.17792,81.67168v.126a3.25107,3.25107,0,0,1-.86133-.6084,3.42482,3.42482,0,0,1-.75879-1.169,3.76527,3.76527,0,0,1-.2666-1.39746,3.69152,3.69152,0,0,1,.52295-1.93359,3.01413,3.01413,0,0,1,1.36377-1.249v.14355a1.971,1.971,0,0,0-.69043.63574,2.931,2.931,0,0,0-.40332,1.02246,6.11174,6.11174,0,0,0-.1333,1.291,7.19722,7.19722,0,0,0,.11279,1.33008,3.50711,3.50711,0,0,0,.21533.75683,2.44428,2.44428,0,0,0,.34033.54883A2.67944,2.67944,0,0,0,80.17792,81.67168Z"/>
      <path d="M81.634,77.07793v2.51563a1.13735,1.13735,0,0,0,.043.39062.29891.29891,0,0,0,.126.14551.67494.67494,0,0,0,.30615.04785v.12305h-1.521v-.12305a.69523.69523,0,0,0,.30762-.04492.30576.30576,0,0,0,.125-.14648,1.11617,1.11617,0,0,0,.0459-.39258v-1.207a4.27454,4.27454,0,0,0-.03076-.66016.26834.26834,0,0,0-.0752-.15137.21353.21353,0,0,0-.14013-.043.664.664,0,0,0-.23243.05176l-.04785-.123.94336-.38281Zm-.28369-1.63769a.34343.34343,0,0,1,.34522.34472.33959.33959,0,0,1-.10059.2461.33174.33174,0,0,1-.24463.10351.35178.35178,0,0,1-.34863-.34961.34429.34429,0,0,1,.34863-.34472Z"/>
      <path d="M83.02509,78.34942a1.607,1.607,0,0,0,.33837,1.09375,1.03418,1.03418,0,0,0,.80323.39648.86982.86982,0,0,0,.53515-.16992,1.24626,1.24626,0,0,0,.38086-.5791l.106.06836a1.62734,1.62734,0,0,1-.417.85254,1.11216,1.11216,0,0,1-.86475.38476,1.26351,1.26351,0,0,1-.96582-.43945,1.68328,1.68328,0,0,1-.40137-1.18067,1.78561,1.78561,0,0,1,.41211-1.25293,1.342,1.342,0,0,1,1.0337-.44921,1.15471,1.15471,0,0,1,.86474.34668,1.27346,1.27346,0,0,1,.33838.92871Zm0-.19922H84.4743a1.33226,1.33226,0,0,0-.07177-.42383.68775.68775,0,0,0-.2544-.30078.64927.64927,0,0,0-.354-.10938.70649.70649,0,0,0-.50733.22071A.95634.95634,0,0,0,83.02509,78.1502Z"/>
      <path d="M88.64423,78.5916V79.077h-.62207v1.22363h-.564V79.077H85.49628v-.4375l2.1499-3.06934h.376V78.5916Zm-1.186,0V76.29082l-1.627,2.30078Z"/>
      <path d="M89.04413,75.58379v-.14355a3.18764,3.18764,0,0,1,.86474.60449,3.50931,3.50931,0,0,1,.75538,1.1709,3.76418,3.76418,0,0,1,.2666,1.39941,3.69943,3.69943,0,0,1-.52149,1.9336,2.9981,2.9981,0,0,1-1.36523,1.249v-.126a2.03314,2.03314,0,0,0,.69238-.63769,2.88775,2.88775,0,0,0,.40332-1.02246,6.2363,6.2363,0,0,0,.13135-1.293,7.23587,7.23587,0,0,0-.11279-1.33008,3.30422,3.30422,0,0,0-.21387-.75586,2.54972,2.54972,0,0,0-.33984-.54688A2.60668,2.60668,0,0,0,89.04413,75.58379Z"/>
    </g>
    <g>
      <path d="M189.7536,77.07744v2.51563a1.13735,1.13735,0,0,0,.043.39062.29886.29886,0,0,0,.126.14551.67494.67494,0,0,0,.30615.04785v.12305h-1.521V80.177a.69526.69526,0,0,0,.30762-.04492.30571.30571,0,0,0,.125-.14648,1.11617,1.11617,0,0,0,.0459-.39258V78.386a4.27589,4.27589,0,0,0-.03076-.66016.26837.26837,0,0,0-.0752-.15137.21354.21354,0,0,0-.14014-.043.66391.66391,0,0,0-.23242.05175l-.04785-.123.94336-.38282Zm-.28369-1.63769a.34341.34341,0,0,1,.34521.34473.33957.33957,0,0,1-.10058.24609.33174.33174,0,0,1-.24463.10351.35178.35178,0,0,1-.34863-.3496.34429.34429,0,0,1,.34863-.34473Z"/>
      <path d="M191.52753,76.13994v1.0293h.73144v.23926h-.73144v2.03027a.68443.68443,0,0,0,.08691.41016.27827.27827,0,0,0,.22412.10547.38968.38968,0,0,0,.21875-.06934.4517.4517,0,0,0,.16406-.207h.13331a1.06527,1.06527,0,0,1-.33838.50391.72756.72756,0,0,1-.45118.16894.60061.60061,0,0,1-.30761-.08691.52363.52363,0,0,1-.22217-.249,1.31191,1.31191,0,0,1-.07178-.501V77.4085h-.4956v-.11231a1.3247,1.3247,0,0,0,.38476-.25488,2.043,2.043,0,0,0,.3501-.42578,3.84346,3.84346,0,0,0,.21875-.47559Z"/>
      <path d="M193.08954,78.34893a1.607,1.607,0,0,0,.33838,1.09375,1.03416,1.03416,0,0,0,.80322.39648.86987.86987,0,0,0,.53516-.16992,1.24623,1.24623,0,0,0,.38086-.5791l.10595.06836a1.62734,1.62734,0,0,1-.417.85254,1.11215,1.11215,0,0,1-.86475.38476,1.26351,1.26351,0,0,1-.96582-.43945,1.6833,1.6833,0,0,1-.40136-1.18066,1.78552,1.78552,0,0,1,.41211-1.25293,1.34194,1.34194,0,0,1,1.03369-.44922,1.15471,1.15471,0,0,1,.86474.34668,1.27346,1.27346,0,0,1,.33838.92871Zm0-.19922h1.44922a1.3322,1.3322,0,0,0-.07178-.42383.6878.6878,0,0,0-.25439-.30078.64932.64932,0,0,0-.354-.10937.70646.70646,0,0,0-.50732.2207A.9563.9563,0,0,0,193.08954,78.14971Z"/>
      <path d="M196.58612,77.07744v.70313q.39332-.70312.80664-.70313a.439.439,0,0,1,.311.11426.35086.35086,0,0,1,.123.26465.31367.31367,0,0,1-.08886.22559.28437.28437,0,0,1-.21192.09277.45364.45364,0,0,1-.26806-.11816.44219.44219,0,0,0-.22071-.11817.202.202,0,0,0-.1333.06836,1.6509,1.6509,0,0,0-.31787.46094v1.501a.93294.93294,0,0,0,.06494.39356.35906.35906,0,0,0,.15723.15332.691.691,0,0,0,.32471.06152v.12305H195.53V80.177a.66867.66867,0,0,0,.35547-.07519.291.291,0,0,0,.11963-.17481,1.759,1.759,0,0,0,.01709-.331V78.38213a5.08362,5.08362,0,0,0-.022-.65039.26053.26053,0,0,0-.082-.15234.2299.2299,0,0,0-.14892-.04785.65607.65607,0,0,0-.23926.05175l-.03418-.123.94678-.38282Z"/>
      <path d="M198.27118,79.637a.36356.36356,0,0,1,.27.11133.38375.38375,0,1,1-.27-.11133Z"/>
      <path d="M203.07,81.67119v.126a3.25107,3.25107,0,0,1-.86133-.6084,3.42463,3.42463,0,0,1-.75879-1.16894,3.76535,3.76535,0,0,1-.2666-1.39746,3.69153,3.69153,0,0,1,.523-1.9336,3.01418,3.01418,0,0,1,1.36377-1.249v.14355a1.971,1.971,0,0,0-.69043.63575,2.93062,2.93062,0,0,0-.40332,1.02246,6.11165,6.11165,0,0,0-.1333,1.291,7.19722,7.19722,0,0,0,.11279,1.33008,3.50722,3.50722,0,0,0,.21533.75684,2.44422,2.44422,0,0,0,.34033.54882A2.67917,2.67917,0,0,0,203.07,81.67119Z"/>
      <path d="M204.52606,77.07744v2.51563a1.13735,1.13735,0,0,0,.043.39062.29886.29886,0,0,0,.126.14551.67494.67494,0,0,0,.30615.04785v.12305h-1.521V80.177a.69523.69523,0,0,0,.30762-.04492.30571.30571,0,0,0,.125-.14648,1.11617,1.11617,0,0,0,.0459-.39258V78.386a4.27454,4.27454,0,0,0-.03076-.66016.26837.26837,0,0,0-.0752-.15137.21353.21353,0,0,0-.14013-.043.66392.66392,0,0,0-.23243.05175l-.04785-.123.94336-.38282Zm-.28369-1.63769a.34343.34343,0,0,1,.34522.34473.33958.33958,0,0,1-.10059.24609.33174.33174,0,0,1-.24463.10351.35178.35178,0,0,1-.34863-.3496.34429.34429,0,0,1,.34863-.34473Z"/>
      <path d="M205.91718,78.34893a1.607,1.607,0,0,0,.33837,1.09375,1.03418,1.03418,0,0,0,.80323.39648.86982.86982,0,0,0,.53515-.16992,1.24615,1.24615,0,0,0,.38086-.5791l.106.06836a1.62734,1.62734,0,0,1-.417.85254,1.11216,1.11216,0,0,1-.86475.38476,1.26351,1.26351,0,0,1-.96582-.43945,1.68325,1.68325,0,0,1-.40137-1.18066,1.78557,1.78557,0,0,1,.41211-1.25293,1.342,1.342,0,0,1,1.03369-.44922,1.15472,1.15472,0,0,1,.86475.34668,1.27346,1.27346,0,0,1,.33838.92871Zm0-.19922h1.44921a1.33226,1.33226,0,0,0-.07177-.42383.68775.68775,0,0,0-.2544-.30078.64926.64926,0,0,0-.354-.10937.70648.70648,0,0,0-.50733.2207A.95634.95634,0,0,0,205.91718,78.14971Z"/>
      <path d="M211.53632,78.59112v.48535h-.62207V80.3001h-.564V79.07647h-1.96191V78.639l2.1499-3.06934h.376v3.02149Zm-1.186,0V76.29033l-1.62695,2.30079Z"/>
      <path d="M211.93622,75.5833v-.14355a3.18764,3.18764,0,0,1,.86474.60449,3.50931,3.50931,0,0,1,.75538,1.1709,3.76418,3.76418,0,0,1,.2666,1.39941,3.6994,3.6994,0,0,1-.52149,1.9336,2.9981,2.9981,0,0,1-1.36523,1.249v-.126a2.033,2.033,0,0,0,.69238-.63769,2.88775,2.88775,0,0,0,.40332-1.02246,6.2363,6.2363,0,0,0,.13135-1.293,7.23587,7.23587,0,0,0-.11279-1.33008,3.30422,3.30422,0,0,0-.21387-.75586,2.54941,2.54941,0,0,0-.33984-.54687A2.60645,2.60645,0,0,0,211.93622,75.5833Z"/>
    </g>
    <g>
      <path d="M105.67694,62.30449l-.32471.89258h-2.73437v-.12695a12.33851,12.33851,0,0,0,1.69873-1.79688,2.2746,2.2746,0,0,0,.49219-1.27539,1.0083,1.0083,0,0,0-.27-.72461.85976.85976,0,0,0-.646-.2832,1.01325,1.01325,0,0,0-.61377.19922,1.16644,1.16644,0,0,0-.40137.58594h-.12646a1.598,1.598,0,0,1,.439-.97071,1.23331,1.23331,0,0,1,.88379-.33789,1.307,1.307,0,0,1,.94141.36231,1.14519,1.14519,0,0,1,.37793.85449,1.65453,1.65453,0,0,1-.16406.7041,4.646,4.646,0,0,1-.82032,1.17285q-.85107.92871-1.063,1.1211h1.21a3.39747,3.39747,0,0,0,.51806-.02735.68321.68321,0,0,0,.26807-.11132.7188.7188,0,0,0,.2085-.23829Z"/>
      <path d="M106.2204,60.907a3.52824,3.52824,0,0,1,.23926-1.36523,1.90962,1.90962,0,0,1,.63574-.85254,1.07137,1.07137,0,0,1,.63574-.22266,1.21183,1.21183,0,0,1,.957.543,2.878,2.878,0,0,1,.52979,1.82617,3.60089,3.60089,0,0,1-.23242,1.37012,1.81041,1.81041,0,0,1-.59327.81836,1.212,1.212,0,0,1-.69531.25488,1.27916,1.27916,0,0,1-1.104-.7832A3.17856,3.17856,0,0,1,106.2204,60.907Zm.66992.085a4.36042,4.36042,0,0,0,.23584,1.5625q.19482.50977.58105.50977a.60824.60824,0,0,0,.38282-.166,1.0543,1.0543,0,0,0,.30078-.55566,6.74229,6.74229,0,0,0,.15723-1.65723,4.54,4.54,0,0,0-.16407-1.32324,1.17732,1.17732,0,0,0-.31787-.55762.52722.52722,0,0,0-.33838-.1123.53792.53792,0,0,0-.41357.208,1.74436,1.74436,0,0,0-.335.89258A8.31293,8.31293,0,0,0,106.89032,60.992Z"/>
      <path d="M109.75116,61.369h1.76709v.51562h-1.76709Z"/>
      <path d="M113.09393,58.33672V62.49a1.13631,1.13631,0,0,0,.04248.38867.30409.30409,0,0,0,.13184.14551.75306.75306,0,0,0,.33154.04981v.123h-1.53467v-.123a.65155.65155,0,0,0,.294-.04493.29514.29514,0,0,0,.123-.14648,1.1384,1.1384,0,0,0,.04443-.39258V59.64629a4.89955,4.89955,0,0,0-.02393-.65137.28333.28333,0,0,0-.07714-.166.20341.20341,0,0,0-.13477-.044.62577.62577,0,0,0-.22559.05469l-.0581-.12012.9331-.38281Z"/>
      <path d="M115.736,62.7459a5.24744,5.24744,0,0,1-.605.43066.92809.92809,0,0,1-.39306.085.70182.70182,0,0,1-.53467-.22168.81423.81423,0,0,1-.21045-.585.74678.74678,0,0,1,.10254-.39649,1.364,1.364,0,0,1,.48681-.4375,7.55268,7.55268,0,0,1,1.15381-.498v-.123a1.0148,1.0148,0,0,0-.14892-.64258.53311.53311,0,0,0-.43213-.17481.48732.48732,0,0,0-.3418.11622.34922.34922,0,0,0-.12988.2666l.00683.19824a.33894.33894,0,0,1-.08056.24219.27251.27251,0,0,1-.21.08593.26547.26547,0,0,1-.207-.08886.3501.3501,0,0,1-.08008-.24317.69818.69818,0,0,1,.30078-.53906,1.29906,1.29906,0,0,1,.84424-.24609,1.461,1.461,0,0,1,.68359.13964.64335.64335,0,0,1,.29736.33106,1.87209,1.87209,0,0,1,.06153.60156v1.06348a4.91519,4.91519,0,0,0,.01709.54883.229.229,0,0,0,.05615.13476.1365.1365,0,0,0,.09082.03418.18906.18906,0,0,0,.0957-.02344,2.20691,2.20691,0,0,0,.27686-.25v.19141q-.38305.5127-.73145.5127a.33306.33306,0,0,1-.2666-.11621A.62975.62975,0,0,1,115.736,62.7459Zm0-.22266V61.33086a6.83631,6.83631,0,0,0-.6665.29,1.155,1.155,0,0,0-.38623.31445.60806.60806,0,0,0-.11621.35938.58454.58454,0,0,0,.147.4082.44506.44506,0,0,0,.33838.16211A1.23547,1.23547,0,0,0,115.736,62.52324Z"/>
      <path d="M116.8913,60.06621h1.45947v.127H118.279a.34.34,0,0,0-.23047.0664.20866.20866,0,0,0-.07715.166.94793.94793,0,0,0,.1128.36914l.7622,1.57812.70069-1.72851a.72688.72688,0,0,0,.0581-.27735.14436.14436,0,0,0-.02392-.09179.18025.18025,0,0,0-.08545-.06055.65638.65638,0,0,0-.20508-.02148v-.127h1.01856v.127a.4788.4788,0,0,0-.19483.05468.5658.5658,0,0,0-.15039.15332,2.24357,2.24357,0,0,0-.11621.2627l-1.2749,3.125a1.617,1.617,0,0,1-.4834.68652.94932.94932,0,0,1-.57617.23242.48.48,0,0,1-.33155-.11621.34922.34922,0,0,1-.12988-.2666.29753.29753,0,0,1,.09424-.23047.3616.3616,0,0,1,.25781-.08691.92259.92259,0,0,1,.30762.07422.69439.69439,0,0,0,.1709.05176.35178.35178,0,0,0,.22363-.10645,1.1081,1.1081,0,0,0,.24463-.41016l.22217-.543-1.12451-2.36133a1.83592,1.83592,0,0,0-.16407-.26367.498.498,0,0,0-.39306-.25586Z"/>
      <path d="M121.0954,61.2459a1.607,1.607,0,0,0,.33838,1.09375,1.03416,1.03416,0,0,0,.80322.39649.86988.86988,0,0,0,.53516-.16993,1.24623,1.24623,0,0,0,.38086-.5791l.106.06836a1.62734,1.62734,0,0,1-.417.85254,1.11212,1.11212,0,0,1-.86475.38477,1.26352,1.26352,0,0,1-.96582-.43946,1.6833,1.6833,0,0,1-.40136-1.18066,1.78552,1.78552,0,0,1,.41211-1.25293,1.34194,1.34194,0,0,1,1.03369-.44922,1.15471,1.15471,0,0,1,.86474.34668,1.27349,1.27349,0,0,1,.33838.92871Zm0-.19922h1.44922a1.33231,1.33231,0,0,0-.07178-.42383.6878.6878,0,0,0-.25439-.30078.6494.6494,0,0,0-.354-.10937.7065.7065,0,0,0-.50732.2207A.9563.9563,0,0,0,121.0954,61.04668Z"/>
      <path d="M124.592,59.97442v.70312q.39332-.70312.80664-.70312a.439.439,0,0,1,.311.11425.3509.3509,0,0,1,.123.26465.31365.31365,0,0,1-.08886.22559.28437.28437,0,0,1-.21192.09277.45364.45364,0,0,1-.26806-.11816.44227.44227,0,0,0-.22071-.11817.202.202,0,0,0-.1333.06836,1.6509,1.6509,0,0,0-.31787.46094v1.501a.93277.93277,0,0,0,.06494.39355.359.359,0,0,0,.15723.15332.691.691,0,0,0,.32471.06153v.123h-1.603v-.123a.66856.66856,0,0,0,.35547-.0752.291.291,0,0,0,.11963-.1748,1.75916,1.75916,0,0,0,.01709-.33106V61.2791a5.08373,5.08373,0,0,0-.022-.65039.26059.26059,0,0,0-.082-.15234.2299.2299,0,0,0-.14892-.04785.65589.65589,0,0,0-.23926.05176l-.03418-.123.94678-.38281Z"/>
    </g>
    <g>
      <path d="M111.238,43.77617l-.26661.58106h-1.39453l-.30371.62207a2.44141,2.44141,0,0,1,1.43555.67383,1.51254,1.51254,0,0,1,.4541,1.09375,1.53848,1.53848,0,0,1-.14844.67578,1.80572,1.80572,0,0,1-.374.53027,1.94058,1.94058,0,0,1-.50293.35254,1.851,1.851,0,0,1-.80664.1875,1.02408,1.02408,0,0,1-.60645-.1416.39806.39806,0,0,1-.18945-.31348.22711.22711,0,0,1,.07813-.16894.28108.28108,0,0,1,.19824-.07324.40588.40588,0,0,1,.15625.02734,1.40325,1.40325,0,0,1,.22656.14062.90815.90815,0,0,0,.51953.17774.96813.96813,0,0,0,.70313-.30274,1.00442,1.00442,0,0,0,.30176-.73632,1.29361,1.29361,0,0,0-.26954-.78516,1.74807,1.74807,0,0,0-.74511-.5625,3.06955,3.06955,0,0,0-1.01563-.17773l.88867-1.80079Z"/>
      <path d="M114.83759,43.68047v.127a2.24553,2.24553,0,0,0-.73633.17872,2.0595,2.0595,0,0,0-.56446.4121,2.591,2.591,0,0,0-.46093.61719,3.68137,3.68137,0,0,0-.30664.80762,1.73922,1.73922,0,0,1,.98828-.33789,1.08023,1.08023,0,0,1,.82324.38281,1.40432,1.40432,0,0,1,.34863.98438,1.74841,1.74841,0,0,1-.35156,1.05957,1.3225,1.3225,0,0,1-1.12109.581,1.12594,1.12594,0,0,1-.80664-.31445,2.0783,2.0783,0,0,1-.64942-1.58594,2.88073,2.88073,0,0,1,.249-1.18262,3.0757,3.0757,0,0,1,.71289-.99511,2.636,2.636,0,0,1,.88671-.584,2.36677,2.36677,0,0,1,.79-.15039Zm-2.126,2.39258a5.89782,5.89782,0,0,0-.06152.74512,2.37733,2.37733,0,0,0,.12109.71289,1.40385,1.40385,0,0,0,.36035.61035.60582.60582,0,0,0,.42383.16015.68569.68569,0,0,0,.53223-.28027,1.21851,1.21851,0,0,0,.23339-.7998,2.08376,2.08376,0,0,0-.23242-1.01172.72116.72116,0,0,0-.65918-.42774.81232.81232,0,0,0-.27832.05469A2.71855,2.71855,0,0,0,112.71161,46.07305Z"/>
      <path d="M115.48309,46.58281h1.76758v.51563h-1.76758Z"/>
      <path d="M118.82587,43.55059v4.15332a1.13255,1.13255,0,0,0,.043.38867.29939.29939,0,0,0,.13183.14551.75059.75059,0,0,0,.33106.0498v.123h-1.53418v-.123a.6531.6531,0,0,0,.29394-.04492.30009.30009,0,0,0,.12305-.14648,1.15425,1.15425,0,0,0,.04394-.39258V44.86016a5.03519,5.03519,0,0,0-.02343-.65137.28931.28931,0,0,0-.07715-.166.20341.20341,0,0,0-.13477-.044.62127.62127,0,0,0-.22558.05469l-.0586-.12012.9336-.38281Z"/>
      <path d="M121.46845,47.95977a5.23509,5.23509,0,0,1-.60547.43066.92772.92772,0,0,1-.39258.085.70212.70212,0,0,1-.53516-.22168.814.814,0,0,1-.21-.585.74675.74675,0,0,1,.10254-.39648,1.36188,1.36188,0,0,1,.48633-.4375,7.53919,7.53919,0,0,1,1.1543-.498v-.123a1.01431,1.01431,0,0,0-.14942-.64257.53271.53271,0,0,0-.43164-.17481.48652.48652,0,0,0-.3418.11621.34766.34766,0,0,0-.12988.2666l.00684.19825a.33909.33909,0,0,1-.08106.24218.271.271,0,0,1-.21.08594.2662.2662,0,0,1-.207-.08887.35248.35248,0,0,1-.08008-.24316.69962.69962,0,0,1,.30078-.53906,1.30138,1.30138,0,0,1,.84473-.2461,1.46236,1.46236,0,0,1,.68359.13965.64251.64251,0,0,1,.29688.33106,1.87244,1.87244,0,0,1,.06152.60156V47.324a4.7369,4.7369,0,0,0,.01758.54882.22917.22917,0,0,0,.05566.13477.1365.1365,0,0,0,.09082.03418.18786.18786,0,0,0,.09571-.02344,2.19893,2.19893,0,0,0,.27734-.25v.19141q-.38379.51269-.73144.51269a.33168.33168,0,0,1-.26661-.11621A.62359.62359,0,0,1,121.46845,47.95977Zm0-.22266V46.54473a6.86443,6.86443,0,0,0-.667.29,1.15255,1.15255,0,0,0-.38574.31445.60476.60476,0,0,0-.11621.35938.58646.58646,0,0,0,.14648.4082.446.446,0,0,0,.33887.16211A1.23843,1.23843,0,0,0,121.46845,47.73711Z"/>
      <path d="M122.62372,45.28008h1.459v.127h-.07129a.34.34,0,0,0-.23046.06641.20863.20863,0,0,0-.07715.166.94547.94547,0,0,0,.1123.36914l.7627,1.57812.70019-1.72851a.71865.71865,0,0,0,.0586-.27735.14132.14132,0,0,0-.02442-.0918.17861.17861,0,0,0-.085-.06054.66046.66046,0,0,0-.20508-.02149v-.127h1.01856v.127a.48142.48142,0,0,0-.19532.05469.57277.57277,0,0,0-.15039.15332,2.33846,2.33846,0,0,0-.11621.2627l-1.27441,3.125a1.617,1.617,0,0,1-.4834.68652.95046.95046,0,0,1-.57617.23242.48127.48127,0,0,1-.332-.11621.35082.35082,0,0,1-.12989-.2666.29622.29622,0,0,1,.09473-.23047.3616.3616,0,0,1,.25781-.08691.92259.92259,0,0,1,.30762.07422.68218.68218,0,0,0,.1709.05175.3528.3528,0,0,0,.22363-.10644,1.1085,1.1085,0,0,0,.24414-.41016l.22266-.543-1.125-2.36133a1.83772,1.83772,0,0,0-.16406-.26367.49606.49606,0,0,0-.39258-.25586Z"/>
      <path d="M126.82782,46.45977a1.60687,1.60687,0,0,0,.33789,1.09375,1.03581,1.03581,0,0,0,.80371.39648.87088.87088,0,0,0,.53516-.16992,1.24615,1.24615,0,0,0,.38086-.5791l.10547.06836a1.62379,1.62379,0,0,1-.417.85254,1.11114,1.11114,0,0,1-.86425.38476,1.26274,1.26274,0,0,1-.96582-.43945,1.68325,1.68325,0,0,1-.40137-1.18066,1.78329,1.78329,0,0,1,.41211-1.25293,1.34164,1.34164,0,0,1,1.0332-.44922,1.1551,1.1551,0,0,1,.86524.34668,1.27321,1.27321,0,0,1,.33789.92871Zm0-.19922H128.277a1.32907,1.32907,0,0,0-.07227-.42383.68357.68357,0,0,0-.2539-.30078.65087.65087,0,0,0-.3545-.10938.70541.70541,0,0,0-.50683.22071A.9538.9538,0,0,0,126.82782,46.26055Z"/>
      <path d="M130.32391,45.18828v.70313q.394-.70312.80664-.70313a.43938.43938,0,0,1,.31153.11426.35086.35086,0,0,1,.123.26465.31571.31571,0,0,1-.08886.22559.28513.28513,0,0,1-.21192.09277.45362.45362,0,0,1-.26855-.11816.44217.44217,0,0,0-.2207-.11817.201.201,0,0,0-.13282.06836,1.65066,1.65066,0,0,0-.31836.46094v1.501a.92421.92421,0,0,0,.06543.39356.35647.35647,0,0,0,.15723.15332.69018.69018,0,0,0,.32422.06152v.123h-1.60254v-.123a.671.671,0,0,0,.35547-.07519.29049.29049,0,0,0,.11914-.17481,1.696,1.696,0,0,0,.01758-.331V46.493a5.04168,5.04168,0,0,0-.02246-.65039.25542.25542,0,0,0-.082-.15234.22948.22948,0,0,0-.14844-.04785.654.654,0,0,0-.23926.05175l-.03418-.123.94629-.38282Z"/>
    </g>
    <g>
      <path d="M234.506,19.658l-.2666.581h-1.39453l-.3042.62208a2.43855,2.43855,0,0,1,1.43555.67382,1.51107,1.51107,0,0,1,.45459,1.09375,1.53877,1.53877,0,0,1-.14893.67578,1.80577,1.80577,0,0,1-.374.53028,1.93835,1.93835,0,0,1-.50244.35254,1.85416,1.85416,0,0,1-.80664.1875,1.02483,1.02483,0,0,1-.60694-.1416.39806.39806,0,0,1-.18945-.31348.226.226,0,0,1,.07861-.169.27951.27951,0,0,1,.19825-.07324.40506.40506,0,0,1,.15576.02735,1.42324,1.42324,0,0,1,.227.14062.907.907,0,0,0,.51953.17773.96708.96708,0,0,0,.70264-.30273,1.00489,1.00489,0,0,0,.30224-.73633,1.291,1.291,0,0,0-.27-.78515,1.7421,1.7421,0,0,0-.74512-.5625,3.06591,3.06591,0,0,0-1.01513-.17774l.88867-1.80078Z"/>
      <path d="M238.10516,19.56231v.127a2.249,2.249,0,0,0-.73632.17871,2.06687,2.06687,0,0,0-.56446.41211,2.60415,2.60415,0,0,0-.46093.61719,3.681,3.681,0,0,0-.30616.80762,1.739,1.739,0,0,1,.9878-.3379,1.08047,1.08047,0,0,1,.82373.38282,1.4043,1.4043,0,0,1,.34863.98437,1.74577,1.74577,0,0,1-.352,1.05957,1.3219,1.3219,0,0,1-1.1211.58106,1.1276,1.1276,0,0,1-.80664-.31446,2.08,2.08,0,0,1-.64941-1.58593,2.87341,2.87341,0,0,1,.24951-1.18262,3.06722,3.06722,0,0,1,.7124-.99512,2.63753,2.63753,0,0,1,.88721-.584,2.36387,2.36387,0,0,1,.78955-.15039Zm-2.126,2.39258a5.898,5.898,0,0,0-.06153.74511,2.39287,2.39287,0,0,0,.1211.71289,1.39981,1.39981,0,0,0,.36084.61035.60494.60494,0,0,0,.42383.16016.68479.68479,0,0,0,.53173-.28027,1.21581,1.21581,0,0,0,.23389-.79981,2.08942,2.08942,0,0,0-.23242-1.01172.72185.72185,0,0,0-.65967-.42773.81422.81422,0,0,0-.27832.05469A2.73847,2.73847,0,0,0,235.97919,21.95489Z"/>
      <path d="M238.75116,22.46465h1.76709v.51563h-1.76709Z"/>
      <path d="M242.09393,19.43242v4.15332a1.13638,1.13638,0,0,0,.04248.38868.30411.30411,0,0,0,.13184.1455.75291.75291,0,0,0,.33154.04981v.123h-1.53467v-.123a.65173.65173,0,0,0,.29395-.04492.29521.29521,0,0,0,.12305-.14649,1.1384,1.1384,0,0,0,.04443-.39258V20.742a4.89924,4.89924,0,0,0-.02393-.65136.28333.28333,0,0,0-.07714-.166.20341.20341,0,0,0-.13477-.04394.62572.62572,0,0,0-.22559.05468l-.0581-.12011.9331-.38282Z"/>
      <path d="M244.736,23.8416a5.2481,5.2481,0,0,1-.605.43067.92823.92823,0,0,1-.39306.085.70179.70179,0,0,1-.53467-.22168.81422.81422,0,0,1-.21045-.585.74678.74678,0,0,1,.10254-.39649,1.36408,1.36408,0,0,1,.48681-.4375,7.55287,7.55287,0,0,1,1.15381-.498v-.123a1.01482,1.01482,0,0,0-.14892-.64258.5331.5331,0,0,0-.43213-.1748.48732.48732,0,0,0-.3418.11621.34923.34923,0,0,0-.12988.2666l.00683.19824a.33894.33894,0,0,1-.08056.24219.27248.27248,0,0,1-.21.08594.26548.26548,0,0,1-.207-.08887.35009.35009,0,0,1-.08008-.24316.6982.6982,0,0,1,.30078-.53907,1.29906,1.29906,0,0,1,.84424-.24609,1.461,1.461,0,0,1,.68359.13965.64329.64329,0,0,1,.29736.33105,1.87217,1.87217,0,0,1,.06153.60157v1.06347a4.91506,4.91506,0,0,0,.01709.54883.22908.22908,0,0,0,.05615.13477.1365.1365,0,0,0,.09082.03418.18916.18916,0,0,0,.0957-.02344,2.20777,2.20777,0,0,0,.27686-.25v.1914q-.38306.5127-.73145.5127a.333.333,0,0,1-.2666-.11621A.62973.62973,0,0,1,244.736,23.8416Zm0-.22265V22.42656a6.83631,6.83631,0,0,0-.6665.29,1.15493,1.15493,0,0,0-.38623.31446.608.608,0,0,0-.11621.35937.58457.58457,0,0,0,.147.40821.44509.44509,0,0,0,.33838.1621A1.23551,1.23551,0,0,0,244.736,23.619Z"/>
      <path d="M245.8913,21.16192h1.45947v.127H247.279a.34.34,0,0,0-.23047.06641.20864.20864,0,0,0-.07715.166.94793.94793,0,0,0,.1128.36914l.7622,1.57813.70069-1.72852a.72684.72684,0,0,0,.0581-.27734.14437.14437,0,0,0-.02392-.0918.18025.18025,0,0,0-.08545-.06055.65669.65669,0,0,0-.20508-.02148v-.127h1.01856v.127a.47863.47863,0,0,0-.19483.05469.5655.5655,0,0,0-.15039.15332,2.24224,2.24224,0,0,0-.11621.26269l-1.2749,3.125a1.61708,1.61708,0,0,1-.4834.68653.94938.94938,0,0,1-.57617.23242.48.48,0,0,1-.33155-.11621.34925.34925,0,0,1-.12988-.2666.2975.2975,0,0,1,.09424-.23047.36156.36156,0,0,1,.25781-.08692.92284.92284,0,0,1,.30762.07422.69391.69391,0,0,0,.1709.05176.35178.35178,0,0,0,.22363-.10645,1.10813,1.10813,0,0,0,.24463-.41015l.22217-.543-1.12451-2.36133a1.83592,1.83592,0,0,0-.16407-.26367.498.498,0,0,0-.39306-.25586Z"/>
      <path d="M250.0954,22.3416a1.607,1.607,0,0,0,.33838,1.09375,1.03413,1.03413,0,0,0,.80322.39649.86987.86987,0,0,0,.53516-.16992,1.24632,1.24632,0,0,0,.38086-.57911l.106.06836a1.62734,1.62734,0,0,1-.417.85254,1.11212,1.11212,0,0,1-.86475.38477,1.26354,1.26354,0,0,1-.96582-.43945,1.68332,1.68332,0,0,1-.40136-1.18067,1.78556,1.78556,0,0,1,.41211-1.25293,1.342,1.342,0,0,1,1.03369-.44922,1.15475,1.15475,0,0,1,.86474.34668,1.27349,1.27349,0,0,1,.33838.92871Zm0-.19921h1.44922a1.3322,1.3322,0,0,0-.07178-.42383.68774.68774,0,0,0-.25439-.30078.64933.64933,0,0,0-.354-.10938.7065.7065,0,0,0-.50732.2207A.95633.95633,0,0,0,250.0954,22.14239Z"/>
      <path d="M253.592,21.07012v.70312q.39331-.70312.80664-.70312a.439.439,0,0,1,.311.11426.35086.35086,0,0,1,.123.26465.31365.31365,0,0,1-.08886.22558.28435.28435,0,0,1-.21192.09278.4536.4536,0,0,1-.26806-.11817.44223.44223,0,0,0-.22071-.11816.202.202,0,0,0-.1333.06836,1.651,1.651,0,0,0-.31787.46093v1.501a.93285.93285,0,0,0,.06494.39356.35911.35911,0,0,0,.15723.15332.69114.69114,0,0,0,.32471.06152v.123h-1.603v-.123a.66856.66856,0,0,0,.35547-.0752.291.291,0,0,0,.11963-.1748,1.75916,1.75916,0,0,0,.01709-.33106V22.37481a5.0835,5.0835,0,0,0-.022-.65039.26059.26059,0,0,0-.082-.15235.23.23,0,0,0-.14892-.04785.65589.65589,0,0,0-.23926.05176l-.03418-.12305.94678-.38281Z"/>
    </g>
    <g>
      <path d="M232.15448,36.4124l-.32471.89258H229.0954v-.127a12.33851,12.33851,0,0,0,1.69873-1.79688,2.2746,2.2746,0,0,0,.49219-1.27539,1.0083,1.0083,0,0,0-.27-.72461.85976.85976,0,0,0-.646-.2832,1.01325,1.01325,0,0,0-.61377.19922,1.16644,1.16644,0,0,0-.40137.58594h-.12646a1.598,1.598,0,0,1,.439-.97071,1.23331,1.23331,0,0,1,.88379-.33789,1.307,1.307,0,0,1,.94141.36231,1.14519,1.14519,0,0,1,.37793.85449,1.65453,1.65453,0,0,1-.16406.7041,4.646,4.646,0,0,1-.82032,1.17285q-.85107.92871-1.063,1.1211h1.21a3.39747,3.39747,0,0,0,.51806-.02735.68321.68321,0,0,0,.26807-.11132.7188.7188,0,0,0,.2085-.23829Z"/>
      <path d="M232.69794,35.01494a3.52824,3.52824,0,0,1,.23926-1.36523,1.90962,1.90962,0,0,1,.63574-.85254,1.07137,1.07137,0,0,1,.63574-.22266,1.21183,1.21183,0,0,1,.957.543,2.878,2.878,0,0,1,.52979,1.82617,3.60069,3.60069,0,0,1-.23243,1.37012,1.81032,1.81032,0,0,1-.59326.81836,1.21206,1.21206,0,0,1-.69531.25488,1.27916,1.27916,0,0,1-1.104-.7832A3.17856,3.17856,0,0,1,232.69794,35.01494Zm.66992.085a4.36042,4.36042,0,0,0,.23584,1.5625q.19482.50977.58105.50977a.60824.60824,0,0,0,.38282-.166,1.0543,1.0543,0,0,0,.30078-.55566,6.74238,6.74238,0,0,0,.15722-1.65723,4.54,4.54,0,0,0-.16406-1.32324,1.17732,1.17732,0,0,0-.31787-.55762.52722.52722,0,0,0-.33838-.1123.53792.53792,0,0,0-.41357.208,1.74428,1.74428,0,0,0-.335.89258A8.31151,8.31151,0,0,0,233.36786,35.0999Z"/>
      <path d="M236.2287,35.47686h1.76709v.51562H236.2287Z"/>
      <path d="M239.57147,32.44463V36.598a1.13631,1.13631,0,0,0,.04248.38867.30409.30409,0,0,0,.13184.14551.75306.75306,0,0,0,.33154.04981v.123h-1.53467v-.123a.65155.65155,0,0,0,.29395-.04493.29514.29514,0,0,0,.12305-.14648,1.1384,1.1384,0,0,0,.04443-.39258V33.7542a4.89955,4.89955,0,0,0-.02393-.65137.28333.28333,0,0,0-.07714-.166.20341.20341,0,0,0-.13477-.04395.62577.62577,0,0,0-.22559.05469l-.0581-.12012.9331-.38281Z"/>
      <path d="M242.21356,36.85381a5.24948,5.24948,0,0,1-.605.43067.92823.92823,0,0,1-.39306.085.70182.70182,0,0,1-.53467-.22168.81423.81423,0,0,1-.21045-.585.74678.74678,0,0,1,.10254-.39649,1.364,1.364,0,0,1,.48681-.4375,7.55222,7.55222,0,0,1,1.15381-.49805v-.123a1.0148,1.0148,0,0,0-.14892-.64258.53311.53311,0,0,0-.43213-.17481.48732.48732,0,0,0-.3418.11622.34922.34922,0,0,0-.12988.2666l.00683.19824a.33894.33894,0,0,1-.08056.24219.27252.27252,0,0,1-.21.08593.26547.26547,0,0,1-.207-.08886.3501.3501,0,0,1-.08008-.24317.69815.69815,0,0,1,.30078-.53906,1.29906,1.29906,0,0,1,.84424-.24609,1.461,1.461,0,0,1,.68359.13965.64329.64329,0,0,1,.29736.331,1.87209,1.87209,0,0,1,.06153.60156v1.06348a4.91519,4.91519,0,0,0,.01709.54883.229.229,0,0,0,.05615.13476.1365.1365,0,0,0,.09082.03418.18906.18906,0,0,0,.0957-.02344,2.20765,2.20765,0,0,0,.27686-.25v.19141q-.38305.5127-.73145.5127a.33306.33306,0,0,1-.2666-.11621A.62975.62975,0,0,1,242.21356,36.85381Zm0-.22266V35.43877a6.83514,6.83514,0,0,0-.6665.29,1.15494,1.15494,0,0,0-.38623.31445.60806.60806,0,0,0-.11621.35938.58454.58454,0,0,0,.147.4082.445.445,0,0,0,.33838.16211A1.23547,1.23547,0,0,0,242.21356,36.63115Z"/>
      <path d="M243.36884,34.17412h1.45947v.127h-.07178a.34.34,0,0,0-.23047.0664.20863.20863,0,0,0-.07715.166.94793.94793,0,0,0,.1128.36914l.7622,1.57812.70069-1.72851a.72685.72685,0,0,0,.0581-.27735.14436.14436,0,0,0-.02392-.09179.18025.18025,0,0,0-.08545-.06055.65642.65642,0,0,0-.20508-.02148v-.127h1.01855v.127a.47879.47879,0,0,0-.19482.05468.5658.5658,0,0,0-.15039.15332,2.24357,2.24357,0,0,0-.11621.2627l-1.2749,3.125a1.617,1.617,0,0,1-.4834.68652.94934.94934,0,0,1-.57617.23243.48006.48006,0,0,1-.33155-.11622.34922.34922,0,0,1-.12988-.2666.29753.29753,0,0,1,.09424-.23047.3616.3616,0,0,1,.25781-.08691.92259.92259,0,0,1,.30762.07422.69439.69439,0,0,0,.1709.05176.35178.35178,0,0,0,.22363-.10645,1.10823,1.10823,0,0,0,.24463-.41016l.22217-.543L243.926,34.82061a1.83481,1.83481,0,0,0-.16406-.26367.498.498,0,0,0-.39306-.25586Z"/>
      <path d="M247.57294,35.35381a1.607,1.607,0,0,0,.33838,1.09375,1.03416,1.03416,0,0,0,.80322.39649.86988.86988,0,0,0,.53516-.16993,1.24614,1.24614,0,0,0,.38085-.5791l.106.06836a1.62734,1.62734,0,0,1-.417.85254,1.11214,1.11214,0,0,1-.86475.38477,1.26352,1.26352,0,0,1-.96582-.43946,1.68325,1.68325,0,0,1-.40136-1.18066,1.78552,1.78552,0,0,1,.41211-1.25293,1.34194,1.34194,0,0,1,1.03369-.44922,1.15471,1.15471,0,0,1,.86474.34668,1.27349,1.27349,0,0,1,.33838.92871Zm0-.19922h1.44922a1.33231,1.33231,0,0,0-.07178-.42383.68781.68781,0,0,0-.2544-.30078.64934.64934,0,0,0-.354-.10937.7065.7065,0,0,0-.50732.2207A.9563.9563,0,0,0,247.57294,35.15459Z"/>
      <path d="M251.06952,34.08233v.70312q.39331-.70312.80664-.70312a.439.439,0,0,1,.311.11425.3509.3509,0,0,1,.123.26465.31362.31362,0,0,1-.08887.22559.28434.28434,0,0,1-.21191.09277.45369.45369,0,0,1-.26807-.11816.44222.44222,0,0,0-.2207-.11817.20205.20205,0,0,0-.1333.06836,1.65069,1.65069,0,0,0-.31787.46094v1.501a.93277.93277,0,0,0,.06494.39355.359.359,0,0,0,.15723.15332.691.691,0,0,0,.3247.06153v.123h-1.603v-.123a.66856.66856,0,0,0,.35547-.0752.291.291,0,0,0,.11962-.1748,1.75823,1.75823,0,0,0,.01709-.33106V35.387a5.08466,5.08466,0,0,0-.022-.65039.26059.26059,0,0,0-.082-.15234.22991.22991,0,0,0-.14893-.04785.6558.6558,0,0,0-.23925.05176l-.03418-.123.94677-.38281Z"/>
    </g>
    <g>
      <path d="M14.6496,61.91338h1.02881v-.73144h.23925v.73144h2.03028a.68449.68449,0,0,0,.41015-.08691.27826.27826,0,0,0,.10547-.22412.38975.38975,0,0,0-.06933-.21875.45183.45183,0,0,0-.207-.16407v-.1333a1.06519,1.06519,0,0,1,.5039.33838.72757.72757,0,0,1,.169.45117.60056.60056,0,0,1-.08692.30762.52356.52356,0,0,1-.249.22217,1.312,1.312,0,0,1-.501.07178H15.91766v.4956h-.11279a1.31223,1.31223,0,0,0-.25439-.38476,2.043,2.043,0,0,0-.42578-.3501,3.82767,3.82767,0,0,0-.4751-.21875Z"/>
      <path d="M15.58612,59.96172h.70459q-.7046-.39332-.70459-.80664a.43718.43718,0,0,1,.11475-.311.3516.3516,0,0,1,.26465-.12305.31361.31361,0,0,1,.22558.08887.28338.28338,0,0,1,.0918.21191.4515.4515,0,0,1-.11719.26807.44221.44221,0,0,0-.11816.2207.20426.20426,0,0,0,.06836.1333,1.636,1.636,0,0,0,.46191.31787h1.5a.93277.93277,0,0,0,.39355-.06494.35908.35908,0,0,0,.15333-.15723.69112.69112,0,0,0,.06152-.3247h.12305v1.603h-.12305a.66859.66859,0,0,0-.0752-.35547.291.291,0,0,0-.1748-.11962,1.75916,1.75916,0,0,0-.33106-.01709H16.8913a5.08443,5.08443,0,0,0-.65039.022.25759.25759,0,0,0-.15235.082.23269.23269,0,0,0-.04785.14893.67508.67508,0,0,0,.05127.23925l-.123.03418-.38281-.94677Z"/>
      <path d="M18.35809,56.77276a5.2481,5.2481,0,0,1,.43067.605.92823.92823,0,0,1,.085.39306.70179.70179,0,0,1-.22168.53467.81422.81422,0,0,1-.585.21045.74678.74678,0,0,1-.39649-.10254,1.364,1.364,0,0,1-.4375-.48682,7.63219,7.63219,0,0,1-.499-1.1538h-.123a1.017,1.017,0,0,0-.64209.14892.53585.53585,0,0,0-.17431.43213.48507.48507,0,0,0,.11621.3418.35071.35071,0,0,0,.2666.12988l.19824-.00684a.34312.34312,0,0,1,.24317.08057.2752.2752,0,0,1,.085.21.26877.26877,0,0,1-.08887.207.34917.34917,0,0,1-.24219.08008.69927.69927,0,0,1-.54053-.30078,1.29906,1.29906,0,0,1-.24609-.84424,1.46681,1.46681,0,0,1,.14014-.68359.64632.64632,0,0,1,.33154-.29737,1.87,1.87,0,0,1,.602-.06152h1.0625a4.91506,4.91506,0,0,0,.54883-.01709.22908.22908,0,0,0,.13477-.05615.13649.13649,0,0,0,.03417-.09082.18916.18916,0,0,0-.02343-.0957,2.20777,2.20777,0,0,0-.25-.27686h.1914q.5127.38305.5127.73145a.333.333,0,0,1-.11621.2666A.62979.62979,0,0,1,18.35809,56.77276Zm-.22265,0H16.94305a6.83631,6.83631,0,0,0,.29.6665,1.15493,1.15493,0,0,0,.31446.38623.608.608,0,0,0,.35937.11621.58453.58453,0,0,0,.4082-.147.44506.44506,0,0,0,.16211-.33838A1.23551,1.23551,0,0,0,18.13544,56.77276Z"/>
      <path d="M13.94891,54.64336a.34343.34343,0,0,1,.34522-.34521.33957.33957,0,0,1,.24609.10058.33085.33085,0,0,1,.10254.24463.34694.34694,0,1,1-.69385,0Zm1.63721-.28369h2.51611a1.13738,1.13738,0,0,0,.39063-.043.29894.29894,0,0,0,.14551-.126.67516.67516,0,0,0,.04785-.30616h.12305v1.521h-.12305a.69529.69529,0,0,0-.04492-.30762.30579.30579,0,0,0-.14649-.125,1.11617,1.11617,0,0,0-.39258-.0459h-1.207a4.27226,4.27226,0,0,0-.65966.03076.26831.26831,0,0,0-.15186.0752.21087.21087,0,0,0-.043.14014.68434.68434,0,0,0,.05127.23242l-.123.04785-.38281-.94336Z"/>
      <path d="M16.24921,52.58233a1.4784,1.4784,0,0,1-.66309-1.04932.75021.75021,0,0,1,.12842-.44092.85529.85529,0,0,1,.42187-.29394,1.94516,1.94516,0,0,1,.62891-.0752h1.33691a1.12594,1.12594,0,0,0,.40235-.04785.27849.27849,0,0,0,.13379-.12158.68144.68144,0,0,0,.04785-.30908h.12305v1.54834h-.12305v-.065a.52676.52676,0,0,0-.06641-.30615.35525.35525,0,0,0-.19726-.12109,1.95442,1.95442,0,0,0-.32032-.01367H16.82a1.295,1.295,0,0,0-.62012.11132.396.396,0,0,0-.19336.374,1.12694,1.12694,0,0,0,.44434.81006h1.65136a1.18366,1.18366,0,0,0,.39258-.0376.31558.31558,0,0,0,.14551-.13184.82247.82247,0,0,0,.0459-.33984h.12305v1.54834h-.12305V53.553a.36639.36639,0,0,0-.1211-.32275.88147.88147,0,0,0-.46289-.084H16.94012a5.16943,5.16943,0,0,0-.6875.02539.296.296,0,0,0-.16748.0791.21209.21209,0,0,0-.04443.14161.65622.65622,0,0,0,.05127.229l-.123.05127-.38281-.94336v-.147Z"/>
      <path d="M13.94891,49.19854a.34345.34345,0,0,1,.34522-.34522.33954.33954,0,0,1,.24609.10059.33082.33082,0,0,1,.10254.24463.34694.34694,0,1,1-.69385,0Zm1.63721-.28369h2.51611a1.13738,1.13738,0,0,0,.39063-.043.299.299,0,0,0,.14551-.126.67508.67508,0,0,0,.04785-.30615h.12305v1.521h-.12305a.69521.69521,0,0,0-.04492-.30761.30574.30574,0,0,0-.14649-.125,1.11592,1.11592,0,0,0-.39258-.0459h-1.207a4.27091,4.27091,0,0,0-.65966.03076.26825.26825,0,0,0-.15186.0752.21086.21086,0,0,0-.043.14013.68425.68425,0,0,0,.05127.23242l-.123.04786-.38281-.94336Z"/>
      <path d="M16.24921,47.1375a1.47838,1.47838,0,0,1-.66309-1.04931.75019.75019,0,0,1,.12842-.44092.8553.8553,0,0,1,.42187-.294,1.9455,1.9455,0,0,1,.62891-.07519h1.33691a1.12617,1.12617,0,0,0,.40235-.04785.27851.27851,0,0,0,.13379-.12159.68141.68141,0,0,0,.04785-.30908h.12305V46.348h-.12305V46.283a.52671.52671,0,0,0-.06641-.30615.35526.35526,0,0,0-.19726-.1211,1.95567,1.95567,0,0,0-.32032-.01367H16.82a1.29487,1.29487,0,0,0-.62012.11133.396.396,0,0,0-.19336.374,1.12691,1.12691,0,0,0,.44434.81006h1.65136a1.18337,1.18337,0,0,0,.39258-.0376.31556.31556,0,0,0,.14551-.13183.82253.82253,0,0,0,.0459-.33984h.12305v1.54833h-.12305v-.06835a.36642.36642,0,0,0-.1211-.32276.88159.88159,0,0,0-.46289-.084H16.94012a5.16943,5.16943,0,0,0-.6875.02539.29592.29592,0,0,0-.16748.0791.21208.21208,0,0,0-.04443.1416.65612.65612,0,0,0,.05127.229l-.123.05127-.38281-.94335v-.147Z"/>
      <path d="M17.66766,43.7127a1.02905,1.02905,0,0,1-.94726.59472,1.068,1.068,0,0,1-.79932-.35009,1.24685,1.24685,0,0,1-.335-.89746,1.365,1.365,0,0,1,.21875-.77588V41.6209a.913.913,0,0,1,.0083-.1709.05866.05866,0,0,1,.0293-.03418.20994.20994,0,0,1,.10937-.02051.30925.30925,0,0,1,.123.01709.06978.06978,0,0,1,.02734.03614.74878.74878,0,0,1,.01026.17236v.40674a.99533.99533,0,0,1,.62939-.19141.98541.98541,0,0,1,.74805.335,1.27006,1.27006,0,0,1,.31152.89893,1.773,1.773,0,0,1-.06836.4751.8946.8946,0,0,0,.22657.20312.36158.36158,0,0,0,.166.05322.16148.16148,0,0,0,.11328-.05615.41654.41654,0,0,0,.07813-.2207c.00879-.064.01758-.22315.02344-.47852.01171-.46923.02734-.77343.04882-.91259a.85153.85153,0,0,1,.23536-.50733.64326.64326,0,0,1,.47167-.18994.9873.9873,0,0,1,.72461.36231,1.95252,1.95252,0,0,1,.499,1.39111,1.98453,1.98453,0,0,1-.29785,1.11426c-.11329.17089-.23243.25634-.35547.25634a.39342.39342,0,0,1-.16407-.03759,1.92332,1.92332,0,0,1-.35156-.23926q-.03077-.02416-.36914-.34863a1.06539,1.06539,0,0,1-.18945.251.27823.27823,0,0,1-.18945.07373.5697.5697,0,0,1-.28125-.09717A2.28294,2.28294,0,0,1,17.66766,43.7127ZM15.75018,43.118a.53439.53439,0,0,0,.20166.42383.94171.94171,0,0,0,.61817.1709,1.33331,1.33331,0,0,0,.83789-.23242.5511.5511,0,0,0,.22558-.45118.53584.53584,0,0,0-.19531-.42724.921.921,0,0,0-.61133-.16748,1.36881,1.36881,0,0,0-.85107.23584A.54168.54168,0,0,0,15.75018,43.118Zm3.05909.62891a1.709,1.709,0,0,0,.32421.24267.58931.58931,0,0,0,.27735.082.34582.34582,0,0,0,.28711-.19824,1.88571,1.88571,0,0,0,.21191-.98779,1.53089,1.53089,0,0,0-.2168-.90772.59824.59824,0,0,0-.46386-.292.25781.25781,0,0,0-.252.17432,2.27471,2.27471,0,0,0-.08984.7041A11.19172,11.19172,0,0,1,18.80927,43.74688Z"/>
      <path d="M16.85809,38.77373a1.607,1.607,0,0,0,1.09375-.33838,1.03413,1.03413,0,0,0,.39649-.80322.86982.86982,0,0,0-.16992-.53515,1.24617,1.24617,0,0,0-.57911-.38086l.06836-.106a1.62734,1.62734,0,0,1,.85254.417,1.11214,1.11214,0,0,1,.38477.86475,1.26354,1.26354,0,0,1-.43945.96582,1.68328,1.68328,0,0,1-1.18067.40136,1.7856,1.7856,0,0,1-1.25293-.4121,1.34367,1.34367,0,0,1-.44922-1.0337,1.15658,1.15658,0,0,1,.34668-.86474,1.27349,1.27349,0,0,1,.92871-.33838Zm-.19824,0V37.32451a1.333,1.333,0,0,0-.42431.07178.68238.68238,0,0,0-.30079.2544.64531.64531,0,0,0-.10937.354.706.706,0,0,0,.22021.50732A.95674.95674,0,0,0,16.65985,38.77373Z"/>
      <path d="M15.58612,35.27715h.70459q-.7046-.39331-.70459-.80664a.43718.43718,0,0,1,.11475-.311.3516.3516,0,0,1,.26465-.123.31361.31361,0,0,1,.22558.08887.28338.28338,0,0,1,.0918.21191.4515.4515,0,0,1-.11719.26807.44221.44221,0,0,0-.11816.2207.20426.20426,0,0,0,.06836.1333,1.636,1.636,0,0,0,.46191.31787h1.5a.93277.93277,0,0,0,.39355-.06494.35908.35908,0,0,0,.15333-.15723.69112.69112,0,0,0,.06152-.3247h.12305v1.603h-.12305a.66859.66859,0,0,0-.0752-.35547.291.291,0,0,0-.1748-.11962,1.75916,1.75916,0,0,0-.33106-.01709H16.8913a5.08443,5.08443,0,0,0-.65039.022.25759.25759,0,0,0-.15235.082.23269.23269,0,0,0-.04785.14893.67508.67508,0,0,0,.05127.23925l-.123.03418-.38281-.94677Z"/>
      <path d="M15.58612,32.9461h.70459q-.7046-.39332-.70459-.80664a.43922.43922,0,0,1,.11475-.31153.35162.35162,0,0,1,.26465-.123.31247.31247,0,0,1,.22558.08984.28157.28157,0,0,1,.0918.21142.45147.45147,0,0,1-.11719.26807.44221.44221,0,0,0-.11816.2207.20428.20428,0,0,0,.06836.13331,1.63638,1.63638,0,0,0,.46191.31787h1.5a.93274.93274,0,0,0,.39355-.065.35905.35905,0,0,0,.15333-.15722.69119.69119,0,0,0,.06152-.32471h.12305v1.603h-.12305a.66856.66856,0,0,0-.0752-.35547.291.291,0,0,0-.1748-.11963,1.75916,1.75916,0,0,0-.33106-.01709H16.8913a5.08649,5.08649,0,0,0-.65039.022.25759.25759,0,0,0-.15235.082.23271.23271,0,0,0-.04785.14893.67518.67518,0,0,0,.05127.23926l-.123.03418-.38281-.94678Z"/>
      <path d="M15.58612,29.99981a1.38831,1.38831,0,0,1,.54-1.1416,1.65592,1.65592,0,0,1,1.06006-.36622,1.99253,1.99253,0,0,1,.85058.20215,1.43281,1.43281,0,0,1,.86817,1.34278,1.32477,1.32477,0,0,1-.56445,1.125,1.74753,1.74753,0,0,1-1.06641.35156,1.88449,1.88449,0,0,1-.85547-.21289,1.45585,1.45585,0,0,1-.62891-.5625A1.44121,1.44121,0,0,1,15.58612,29.99981Zm.22217.10547a.71748.71748,0,0,0,.10742.36425.75644.75644,0,0,0,.37793.2959,1.81732,1.81732,0,0,0,.69336.11328,2.41234,2.41234,0,0,0,1.17969-.27246.80947.80947,0,0,0,.49609-.71582.66946.66946,0,0,0-.27344-.54687,1.557,1.557,0,0,0-.94043-.21485,2.14194,2.14194,0,0,0-1.3125.3584A.74.74,0,0,0,15.80829,30.10528Z"/>
      <path d="M15.58612,27.115h.70459q-.7046-.39258-.70459-.80664a.43683.43683,0,0,1,.11475-.31055.35162.35162,0,0,1,.26465-.123.31482.31482,0,0,1,.22558.08789.28624.28624,0,0,1,.0918.21289.45153.45153,0,0,1-.11719.26758.44221.44221,0,0,0-.11816.2207.20123.20123,0,0,0,.06836.13281,1.61581,1.61581,0,0,0,.46191.31836h1.5a.94169.94169,0,0,0,.39355-.06445.35917.35917,0,0,0,.15333-.1582.68494.68494,0,0,0,.06152-.32422h.12305v1.60351h-.12305a.66624.66624,0,0,0-.0752-.35547.28762.28762,0,0,0-.1748-.12011,1.73287,1.73287,0,0,0-.33106-.01661H16.8913a5.1292,5.1292,0,0,0-.65039.02149.25251.25251,0,0,0-.15235.082.23225.23225,0,0,0-.04785.14844.68207.68207,0,0,0,.05127.24023l-.123.03321-.38281-.94629Z"/>
      <path d="M20.18036,21.99492h.126a3.26737,3.26737,0,0,1-.6084.86133A3.42468,3.42468,0,0,1,18.529,23.615a3.76515,3.76515,0,0,1-1.39746.2666,3.68417,3.68417,0,0,1-1.93359-.52343,3.00568,3.00568,0,0,1-1.249-1.36329h.14356a1.95772,1.95772,0,0,0,.63574.69043,2.94524,2.94524,0,0,0,1.022.40332,6.11994,6.11994,0,0,0,1.29151.13282,7.19936,7.19936,0,0,0,1.33008-.11231,3.50433,3.50433,0,0,0,.75683-.21582,2.42393,2.42393,0,0,0,.54883-.33984A2.67972,2.67972,0,0,0,20.18036,21.99492Z"/>
      <path d="M14.06854,17.07989l4.93213,3.377v.30469l-4.93213-3.377Zm0,3.51367a.81146.81146,0,0,1,.38282-.71582,1.54821,1.54821,0,0,1,.87841-.25489,1.34274,1.34274,0,0,1,.91944.28711.8978.8978,0,0,1,.17627,1.18555,1.029,1.029,0,0,1-.44287.36133,1.54768,1.54768,0,0,1-.65284.13476,1.58939,1.58939,0,0,1-.66113-.13671.99082.99082,0,0,1-.45117-.374A.9047.9047,0,0,1,14.06854,20.59356Zm.19141.00976a.37677.37677,0,0,0,.20508.30957,1.787,1.787,0,0,0,.86133.13575,2.626,2.626,0,0,0,.7246-.07618.589.589,0,0,0,.29053-.18066.26414.26414,0,0,0,.06153-.17774.3338.3338,0,0,0-.17774-.28027,1.67939,1.67939,0,0,0-.87842-.1709,1.80584,1.80584,0,0,0-.91259.167A.31911.31911,0,0,0,14.26,20.60332Zm2.24951-3.36621a.88871.88871,0,0,1,.15332-.4834.99828.99828,0,0,1,.44727-.373,1.56454,1.56454,0,0,1,.64648-.13086,1.33087,1.33087,0,0,1,.92481.29.89938.89938,0,0,1,.31933.68652.8637.8637,0,0,1-.1543.48437,1.03287,1.03287,0,0,1-.43847.36915,1.50819,1.50819,0,0,1-.65137.13476,1.57141,1.57141,0,0,1-.65625-.13476.984.984,0,0,1-.44433-.36915A.88641.88641,0,0,1,16.50946,17.23711Zm.18066-.00293a.33972.33972,0,0,0,.18458.28321,1.83236,1.83236,0,0,0,.90527.15429,1.66657,1.66657,0,0,0,.85547-.1582.334.334,0,0,0,.17383-.2793.344.344,0,0,0-.1875-.28125,1.64752,1.64752,0,0,0-.8584-.16406,1.7777,1.7777,0,0,0-.89942.16406A.33.33,0,0,0,16.69012,17.23418Z"/>
      <path d="M14.09247,15.84942h-.14356a3.17078,3.17078,0,0,1,.605-.86426,3.49605,3.49605,0,0,1,1.17041-.75586,3.76033,3.76033,0,0,1,1.39942-.2666,3.69945,3.69945,0,0,1,1.93359.52148,3.003,3.003,0,0,1,1.249,1.36524h-.126a2.033,2.033,0,0,0-.6377-.69239,2.88778,2.88778,0,0,0-1.02246-.40332,6.20276,6.20276,0,0,0-1.293-.13183,7.2404,7.2404,0,0,0-1.33007.11328,3.26708,3.26708,0,0,0-.75537.21387,2.50688,2.50688,0,0,0-.54688.33984A2.61927,2.61927,0,0,0,14.09247,15.84942Z"/>
    </g>
    <g>
      <path d="M137.654,55.67412h1.02881v-.73144h.23926v.73144h2.03027a.68649.68649,0,0,0,.41016-.08691.27729.27729,0,0,0,.106-.22412.39417.39417,0,0,0-.06983-.21875.44917.44917,0,0,0-.207-.16406V54.847a1.06764,1.06764,0,0,1,.50391.33837.72824.72824,0,0,1,.16943.45118.60123.60123,0,0,1-.0874.30761.52587.52587,0,0,1-.249.22217,1.31191,1.31191,0,0,1-.501.07178h-2.10547v.4956h-.11279a1.31273,1.31273,0,0,0-.2544-.38476,2.043,2.043,0,0,0-.42578-.3501,3.82767,3.82767,0,0,0-.4751-.21875Z"/>
      <path d="M139.862,54.11211a1.60616,1.60616,0,0,0,1.09375-.33838,1.03263,1.03263,0,0,0,.39648-.80322.86951.86951,0,0,0-.16943-.53516,1.24623,1.24623,0,0,0-.5791-.38086l.06836-.10595a1.6291,1.6291,0,0,1,.85254.417,1.11215,1.11215,0,0,1,.38476.86475,1.26351,1.26351,0,0,1-.43945.96582,1.68166,1.68166,0,0,1-1.18066.40136,1.7847,1.7847,0,0,1-1.25293-.41211,1.3436,1.3436,0,0,1-.44922-1.03369,1.15655,1.15655,0,0,1,.34668-.86474,1.273,1.273,0,0,1,.92822-.33838Zm-.19824,0V52.66289a1.32935,1.32935,0,0,0-.42383.07178.68239.68239,0,0,0-.30078.25439.6453.6453,0,0,0-.10938.354.70592.70592,0,0,0,.22022.50732A.95651.95651,0,0,0,139.66376,54.11211Z"/>
      <path d="M138.59052,49.50811h1.0664v.11279a1.382,1.382,0,0,0-.68359.3335.74924.74924,0,0,0-.18115.51758.5706.5706,0,0,0,.12646.38623.36659.36659,0,0,0,.28027.147.51046.51046,0,0,0,.32813-.10938,1.22367,1.22367,0,0,0,.29736-.43066l.24268-.499a1.0145,1.0145,0,0,1,.89209-.69385.843.843,0,0,1,.68847.32275,1.11918,1.11918,0,0,1,.26172.72315,2.48644,2.48644,0,0,1-.10254.65625.66089.66089,0,0,0-.03418.18457.13655.13655,0,0,0,.08887.123v.1128h-1.11767V51.282a1.27211,1.27211,0,0,0,.72119-.36572.88387.88387,0,0,0,.24267-.605.54235.54235,0,0,0-.13818-.38428.439.439,0,0,0-.3335-.14892.53036.53036,0,0,0-.39648.16552,2.90832,2.90832,0,0,0-.40674.66163,1.95523,1.95523,0,0,1-.44434.64941.76984.76984,0,0,1-.49218.15381.86974.86974,0,0,1-.646-.26465.93747.93747,0,0,1-.25976-.68555,1.61556,1.61556,0,0,1,.07861-.44775,1.05957,1.05957,0,0,0,.05127-.23242.13473.13473,0,0,0-.02393-.08545.32991.32991,0,0,0-.106-.07178Z"/>
      <path d="M137.654,47.89824h1.02881V47.1668h.23926v.73144h2.03027a.68649.68649,0,0,0,.41016-.08691.27729.27729,0,0,0,.106-.22412.39417.39417,0,0,0-.06983-.21875.44917.44917,0,0,0-.207-.16406v-.1333a1.06765,1.06765,0,0,1,.50391.33838.7282.7282,0,0,1,.16943.45117.60123.60123,0,0,1-.0874.30761.52587.52587,0,0,1-.249.22217,1.31191,1.31191,0,0,1-.501.07178h-2.10547v.4956h-.11279a1.31273,1.31273,0,0,0-.2544-.38476,2.043,2.043,0,0,0-.42578-.3501,3.82919,3.82919,0,0,0-.4751-.21875Z"/>
      <path d="M139.862,44.58623a1.60616,1.60616,0,0,0,1.09375-.33838,1.03263,1.03263,0,0,0,.39648-.80322.86946.86946,0,0,0-.16943-.53515,1.24607,1.24607,0,0,0-.5791-.38086l.06836-.106a1.6291,1.6291,0,0,1,.85254.417,1.11216,1.11216,0,0,1,.38476.86475,1.26351,1.26351,0,0,1-.43945.96582,1.68161,1.68161,0,0,1-1.18066.40136,1.78474,1.78474,0,0,1-1.25293-.4121,1.34363,1.34363,0,0,1-.44922-1.0337,1.15655,1.15655,0,0,1,.34668-.86474,1.273,1.273,0,0,1,.92822-.33838Zm-.19824,0V43.137a1.32935,1.32935,0,0,0-.42383.07178.68235.68235,0,0,0-.30078.2544.64524.64524,0,0,0-.10938.354.70592.70592,0,0,0,.22022.50732A.95651.95651,0,0,0,139.66376,44.58623Z"/>
      <path d="M138.59052,41.08965h.7041q-.70386-.39258-.7041-.80664a.43681.43681,0,0,1,.11474-.31055.35162.35162,0,0,1,.26465-.123.31485.31485,0,0,1,.22559.08789.28671.28671,0,0,1,.09228.21289.45265.45265,0,0,1-.11767.26758.44217.44217,0,0,0-.11817.2207.20125.20125,0,0,0,.06836.13281,1.61929,1.61929,0,0,0,.46143.31836h1.50048a.93462.93462,0,0,0,.39307-.06445.355.355,0,0,0,.15381-.15821.68475.68475,0,0,0,.06152-.32421h.12305v1.603h-.12305a.66407.66407,0,0,0-.07519-.35547.29279.29279,0,0,0-.17432-.11962,1.70983,1.70983,0,0,0-.33154-.01758h-1.21338a5.04417,5.04417,0,0,0-.65088.02246.25759.25759,0,0,0-.15234.082.23269.23269,0,0,0-.04785.14893.67527.67527,0,0,0,.05126.23925l-.123.03418-.38281-.94677Z"/>
      <path d="M138.59052,38.7586h.7041q-.70386-.39258-.7041-.80664a.43681.43681,0,0,1,.11474-.31055.35163.35163,0,0,1,.26465-.123.31489.31489,0,0,1,.22559.08789.28671.28671,0,0,1,.09228.21289.45263.45263,0,0,1-.11767.26758.44217.44217,0,0,0-.11817.2207.20127.20127,0,0,0,.06836.13282,1.61969,1.61969,0,0,0,.46143.31836h1.50048a.9346.9346,0,0,0,.39307-.06446.355.355,0,0,0,.15381-.1582.68482.68482,0,0,0,.06152-.32422h.12305v1.60352h-.12305a.66173.66173,0,0,0-.07519-.35547.28932.28932,0,0,0-.17432-.12012,1.747,1.747,0,0,0-.33154-.0166h-1.21338a5.137,5.137,0,0,0-.65088.02148.25256.25256,0,0,0-.15234.082.23227.23227,0,0,0-.04785.14844.68236.68236,0,0,0,.05126.24024l-.123.0332-.38281-.94629Z"/>
      <path d="M138.59052,35.81231a1.38831,1.38831,0,0,1,.54-1.1416,1.65653,1.65653,0,0,1,1.05957-.36622,1.99139,1.99139,0,0,1,.85108.20215,1.43283,1.43283,0,0,1,.86816,1.34278,1.32675,1.32675,0,0,1-.564,1.125,1.74956,1.74956,0,0,1-1.06641.35156,1.88641,1.88641,0,0,1-.856-.21289,1.4558,1.4558,0,0,1-.62891-.5625A1.44121,1.44121,0,0,1,138.59052,35.81231Zm.22216.10547a.7175.7175,0,0,0,.10743.36425.75639.75639,0,0,0,.37793.2959,1.81654,1.81654,0,0,0,.69384.11328,2.413,2.413,0,0,0,1.1792-.27246.80809.80809,0,0,0,.49561-.71582.66814.66814,0,0,0-.27344-.54687,1.55429,1.55429,0,0,0-.93994-.21485,2.14194,2.14194,0,0,0-1.3125.3584A.74.74,0,0,0,138.81268,35.91778Z"/>
      <path d="M138.59052,32.92754h.7041q-.70386-.39258-.7041-.80664a.43683.43683,0,0,1,.11474-.31055.35162.35162,0,0,1,.26465-.123.31485.31485,0,0,1,.22559.08789.28671.28671,0,0,1,.09228.21289.45265.45265,0,0,1-.11767.26758.44217.44217,0,0,0-.11817.2207.20123.20123,0,0,0,.06836.13281,1.61929,1.61929,0,0,0,.46143.31836h1.50048a.93462.93462,0,0,0,.39307-.06445.355.355,0,0,0,.15381-.1582.68482.68482,0,0,0,.06152-.32422h.12305v1.60351h-.12305a.66176.66176,0,0,0-.07519-.35547.28935.28935,0,0,0-.17432-.12011,1.7466,1.7466,0,0,0-.33154-.01661h-1.21338a5.134,5.134,0,0,0-.65088.02149.25251.25251,0,0,0-.15234.082.23225.23225,0,0,0-.04785.14844.68226.68226,0,0,0,.05126.24023l-.123.03321-.38281-.94629Z"/>
      <path d="M143.18427,27.80742h.12646a3.27844,3.27844,0,0,1-.6084.86133,3.434,3.434,0,0,1-1.16894.75879,3.76392,3.76392,0,0,1-1.398.2666,3.6837,3.6837,0,0,1-1.93311-.52343,3.00566,3.00566,0,0,1-1.249-1.36329h.14355a1.95775,1.95775,0,0,0,.63575.69043,2.94516,2.94516,0,0,0,1.022.40332,6.12113,6.12113,0,0,0,1.292.13282,7.20141,7.20141,0,0,0,1.32959-.11231,3.49628,3.49628,0,0,0,.75684-.21582,2.4132,2.4132,0,0,0,.54882-.33984A2.67813,2.67813,0,0,0,143.18427,27.80742Z"/>
      <path d="M137.07294,22.89239l4.93213,3.377V26.574l-4.93213-3.377Zm0,3.51367a.81147.81147,0,0,1,.38281-.71582,1.54822,1.54822,0,0,1,.87842-.25489,1.34273,1.34273,0,0,1,.91943.28711.89777.89777,0,0,1,.17627,1.18555,1.029,1.029,0,0,1-.44287.36133,1.5476,1.5476,0,0,1-.65283.13476,1.58935,1.58935,0,0,1-.66113-.13671.9909.9909,0,0,1-.45118-.374A.90468.90468,0,0,1,137.07294,26.40606Zm.1914.00976a.37677.37677,0,0,0,.20508.30957,1.787,1.787,0,0,0,.86133.13575,2.626,2.626,0,0,0,.72461-.07618.589.589,0,0,0,.29053-.18066.26418.26418,0,0,0,.06152-.17774.33276.33276,0,0,0-.17773-.28027,1.67944,1.67944,0,0,0-.87842-.1709,1.80586,1.80586,0,0,0-.9126.167A.31913.31913,0,0,0,137.26434,26.41582Zm2.249-3.36621a.88944.88944,0,0,1,.15381-.4834.997.997,0,0,1,.44775-.373,1.559,1.559,0,0,1,.646-.13086,1.33168,1.33168,0,0,1,.9248.29.89939.89939,0,0,1,.31934.68652.8707.8707,0,0,1-.15381.48437,1.04323,1.04323,0,0,1-.439.36915,1.50968,1.50968,0,0,1-.65136.13476,1.57141,1.57141,0,0,1-.65625-.13476.98659.98659,0,0,1-.44434-.36915A.883.883,0,0,1,139.51337,23.04961Zm.18115-.00293a.3397.3397,0,0,0,.18457.28321,1.83338,1.83338,0,0,0,.90576.15429,1.66231,1.66231,0,0,0,.85449-.1582.33246.33246,0,0,0,.17432-.2793.34354.34354,0,0,0-.188-.28125,1.643,1.643,0,0,0-.85791-.16406,1.77424,1.77424,0,0,0-.89892.16406A.33057.33057,0,0,0,139.69452,23.04668Z"/>
      <path d="M137.09686,21.66192h-.14355a3.17078,3.17078,0,0,1,.605-.86426,3.496,3.496,0,0,1,1.17041-.75586,3.76277,3.76277,0,0,1,1.3999-.2666,3.70025,3.70025,0,0,1,1.93311.52148,3.0003,3.0003,0,0,1,1.249,1.36524h-.12646a2.02205,2.02205,0,0,0-.63721-.69239,2.8917,2.8917,0,0,0-1.02246-.40332,6.20418,6.20418,0,0,0-1.29346-.13183,7.23126,7.23126,0,0,0-1.32959.11328,3.26723,3.26723,0,0,0-.75537.21387,2.50712,2.50712,0,0,0-.54688.33984A2.61927,2.61927,0,0,0,137.09686,21.66192Z"/>
    </g>
    <path d="M150.10175,74.08477a2.52469,2.52469,0,0,1,.17089-.97559,1.36609,1.36609,0,0,1,.45411-.60937.76786.76786,0,0,1,.4541-.15821.86173.86173,0,0,1,.68359.38868,2.05006,2.05006,0,0,1,.37842,1.30273,2.56711,2.56711,0,0,1-.166.97949,1.29858,1.29858,0,0,1-.42334.585.8681.8681,0,0,1-.49707.18164.91436.91436,0,0,1-.78857-.55859A2.27955,2.27955,0,0,1,150.10175,74.08477Zm.47851.06152a3.11384,3.11384,0,0,0,.16846,1.11524q.13916.36327.415.36328a.43166.43166,0,0,0,.27344-.11817.75467.75467,0,0,0,.21484-.39648,4.83721,4.83721,0,0,0,.1123-1.18457,3.23974,3.23974,0,0,0-.11718-.94434.83489.83489,0,0,0-.22705-.39746.369.369,0,0,0-.2417-.081.38346.38346,0,0,0-.29541.14941,1.241,1.241,0,0,0-.23926.63672A5.9038,5.9038,0,0,0,150.58026,74.14629Z"/>
    <path d="M27.572,74.08428a2.52468,2.52468,0,0,1,.1709-.97559,1.36614,1.36614,0,0,1,.4541-.60937.76787.76787,0,0,1,.4541-.1582.86172.86172,0,0,1,.6836.38867,2.05006,2.05006,0,0,1,.37841,1.30273,2.56712,2.56712,0,0,1-.166.97949,1.29867,1.29867,0,0,1-.42334.585.86819.86819,0,0,1-.49707.18164.91439.91439,0,0,1-.78858-.5586A2.27966,2.27966,0,0,1,27.572,74.08428Zm.47852.06152a3.11408,3.11408,0,0,0,.16845,1.11524q.13917.36329.415.36328a.4316.4316,0,0,0,.27344-.11817.75454.75454,0,0,0,.21484-.39648,4.83707,4.83707,0,0,0,.11231-1.18457,3.23937,3.23937,0,0,0-.11719-.94434.83481.83481,0,0,0-.22705-.39746.369.369,0,0,0-.2417-.081.38347.38347,0,0,0-.29541.14941,1.241,1.241,0,0,0-.23926.63672A5.90388,5.90388,0,0,0,28.05048,74.1458Z"/>
    <path d="M23.29266,70.74834a2.52463,2.52463,0,0,1,.1709-.97558,1.36618,1.36618,0,0,1,.4541-.60938.76789.76789,0,0,1,.45411-.1582.86172.86172,0,0,1,.68359.38867,2.05006,2.05006,0,0,1,.37842,1.30273,2.5672,2.5672,0,0,1-.166.9795,1.29869,1.29869,0,0,1-.42334.585.86817.86817,0,0,1-.49707.18164.91436.91436,0,0,1-.78857-.5586A2.27953,2.27953,0,0,1,23.29266,70.74834Zm.47852.06153a3.11381,3.11381,0,0,0,.16846,1.11523q.13915.36328.415.36328a.43162.43162,0,0,0,.27343-.11816.75464.75464,0,0,0,.21485-.39649,4.83766,4.83766,0,0,0,.1123-1.18457,3.23925,3.23925,0,0,0-.11719-.94433.83468.83468,0,0,0-.227-.39746.36893.36893,0,0,0-.2417-.08106.38348.38348,0,0,0-.29541.14942,1.241,1.241,0,0,0-.23925.63671A5.90394,5.90394,0,0,0,23.77118,70.80987Z"/>
    <path d="M144.93573,70.74834a2.52463,2.52463,0,0,1,.1709-.97558,1.36618,1.36618,0,0,1,.4541-.60938.76784.76784,0,0,1,.4541-.1582.86172.86172,0,0,1,.6836.38867,2.05006,2.05006,0,0,1,.37841,1.30273,2.56721,2.56721,0,0,1-.166.9795,1.29876,1.29876,0,0,1-.42334.585.86819.86819,0,0,1-.49707.18164.91438.91438,0,0,1-.78858-.5586A2.27963,2.27963,0,0,1,144.93573,70.74834Zm.47852.06153a3.11406,3.11406,0,0,0,.16845,1.11523q.13917.36328.415.36328a.43164.43164,0,0,0,.27344-.11816.75457.75457,0,0,0,.21484-.39649,4.83707,4.83707,0,0,0,.11231-1.18457,3.23925,3.23925,0,0,0-.11719-.94433.83476.83476,0,0,0-.22705-.39746.36893.36893,0,0,0-.2417-.08106.38348.38348,0,0,0-.29541.14942,1.24093,1.24093,0,0,0-.23926.63671A5.90391,5.90391,0,0,0,145.41425,70.80987Z"/>
    <g>
      <path d="M22.12225,7.53057l-.23193.63672H19.9372V8.07744a8.82011,8.82011,0,0,0,1.21337-1.28515,1.621,1.621,0,0,0,.35157-.91016.72049.72049,0,0,0-.19287-.51758.61609.61609,0,0,0-.46143-.20312.71715.71715,0,0,0-.438.14355.82319.82319,0,0,0-.28711.419h-.09033a1.12811,1.12811,0,0,1,.314-.69336.87175.87175,0,0,1,.63086-.24219.93317.93317,0,0,1,.67286.25879.81947.81947,0,0,1,.26953.61035,1.18187,1.18187,0,0,1-.11719.50293,3.31078,3.31078,0,0,1-.58594.83692q-.60791.665-.75928.80078h.86426a2.27382,2.27382,0,0,0,.36963-.01953.47391.47391,0,0,0,.1919-.07911.52835.52835,0,0,0,.14892-.16894Z"/>
      <path d="M22.51044,6.53155a2.52468,2.52468,0,0,1,.1709-.97559,1.3661,1.3661,0,0,1,.4541-.60938.76791.76791,0,0,1,.4541-.1582.86173.86173,0,0,1,.68359.38867,2.05011,2.05011,0,0,1,.37842,1.30274,2.56735,2.56735,0,0,1-.166.97949,1.2987,1.2987,0,0,1-.42334.585.86822.86822,0,0,1-.49708.18164.91436.91436,0,0,1-.78857-.55859A2.27958,2.27958,0,0,1,22.51044,6.53155Zm.47851.06152a3.114,3.114,0,0,0,.16846,1.11523q.13916.36329.415.36328a.43164.43164,0,0,0,.27344-.11816.75471.75471,0,0,0,.21484-.39648A4.83719,4.83719,0,0,0,24.173,6.37237a3.23961,3.23961,0,0,0-.11719-.94434.83484.83484,0,0,0-.227-.39746.36894.36894,0,0,0-.2417-.08106.38347.38347,0,0,0-.29541.14942,1.241,1.241,0,0,0-.23926.63672A5.9038,5.9038,0,0,0,22.989,6.59307Z"/>
    </g>
    <g>
      <path d="M144.14764,7.53008l-.23193.63672h-1.95312V8.077A8.82059,8.82059,0,0,0,143.176,6.7918a1.621,1.621,0,0,0,.35157-.91016.72049.72049,0,0,0-.19287-.51758.61609.61609,0,0,0-.46143-.20312.71715.71715,0,0,0-.438.14355.82319.82319,0,0,0-.28711.41895h-.09033a1.12806,1.12806,0,0,1,.314-.69336.87171.87171,0,0,1,.63085-.24219.93317.93317,0,0,1,.67286.25879.81947.81947,0,0,1,.26953.61035,1.18172,1.18172,0,0,1-.11719.50293,3.31061,3.31061,0,0,1-.58594.83692q-.6079.665-.75927.80078h.86425a2.27382,2.27382,0,0,0,.36963-.01953.474.474,0,0,0,.1919-.0791.52828.52828,0,0,0,.14892-.16895Z"/>
      <path d="M144.53583,6.53106a2.52468,2.52468,0,0,1,.1709-.97559,1.36607,1.36607,0,0,1,.4541-.60937.76786.76786,0,0,1,.4541-.15821.86173.86173,0,0,1,.68359.38867,2.05011,2.05011,0,0,1,.37842,1.30274,2.56716,2.56716,0,0,1-.166.97949,1.29865,1.29865,0,0,1-.42334.585.86815.86815,0,0,1-.49707.18164.91436.91436,0,0,1-.78858-.55859A2.27966,2.27966,0,0,1,144.53583,6.53106Zm.47851.06152a3.114,3.114,0,0,0,.16846,1.11523q.13916.36328.415.36329a.43166.43166,0,0,0,.27344-.11817.75464.75464,0,0,0,.21484-.39648,4.83719,4.83719,0,0,0,.11231-1.18457,3.23961,3.23961,0,0,0-.11719-.94434.83489.83489,0,0,0-.22705-.39746.36894.36894,0,0,0-.2417-.08105.38346.38346,0,0,0-.29541.14941,1.241,1.241,0,0,0-.23926.63672A5.9038,5.9038,0,0,0,145.01434,6.59258Z"/>
    </g>
    <path d="M245.34735,72.3416v.08985a1.61778,1.61778,0,0,0-.52637.1289,1.47288,1.47288,0,0,0-.40234.29395,1.86328,1.86328,0,0,0-.33008.44043,2.63982,2.63982,0,0,0-.21826.57812,1.23183,1.23183,0,0,1,.70557-.24218.77035.77035,0,0,1,.58838.27343,1.005,1.005,0,0,1,.249.70313,1.24868,1.24868,0,0,1-.25147.75683.94521.94521,0,0,1-.80078.415.80775.80775,0,0,1-.57617-.22461,1.48588,1.48588,0,0,1-.46387-1.13281,2.05672,2.05672,0,0,1,.17823-.84472,2.17461,2.17461,0,0,1,.50927-.71,1.86667,1.86667,0,0,1,.63331-.418,1.7,1.7,0,0,1,.564-.10743Zm-1.51855,1.709a4.22075,4.22075,0,0,0-.04395.53222,1.68607,1.68607,0,0,0,.08692.50879.99286.99286,0,0,0,.25732.43555.42836.42836,0,0,0,.30273.11524.48632.48632,0,0,0,.3794-.2002.86742.86742,0,0,0,.16748-.57129,1.48776,1.48776,0,0,0-.166-.72266.51568.51568,0,0,0-.47119-.30468.57322.57322,0,0,0-.19922.03906A1.91339,1.91339,0,0,0,243.8288,74.05059Z"/>
    <path d="M123.85663,72.34112V72.431a1.6175,1.6175,0,0,0-.52637.12891,1.47283,1.47283,0,0,0-.40234.29394,1.86328,1.86328,0,0,0-.33008.44043,2.63972,2.63972,0,0,0-.21826.57813,1.23179,1.23179,0,0,1,.70556-.24219.77029.77029,0,0,1,.58838.27344,1.00494,1.00494,0,0,1,.249.70312,1.24879,1.24879,0,0,1-.25147.75684.94523.94523,0,0,1-.80078.415.80777.80777,0,0,1-.57617-.22461,1.48591,1.48591,0,0,1-.46387-1.13282,2.05691,2.05691,0,0,1,.17822-.84472,2.17475,2.17475,0,0,1,.50928-.71,1.86693,1.86693,0,0,1,.6333-.418,1.7,1.7,0,0,1,.564-.10742Zm-1.51856,1.709a4.22246,4.22246,0,0,0-.04394.53223,1.6864,1.6864,0,0,0,.08691.50879.993.993,0,0,0,.25733.43554.42834.42834,0,0,0,.30273.11524.48634.48634,0,0,0,.3794-.2002.86748.86748,0,0,0,.16748-.57129,1.48769,1.48769,0,0,0-.166-.72265.51569.51569,0,0,0-.47119-.30469.57322.57322,0,0,0-.19922.03906A1.9138,1.9138,0,0,0,122.33807,74.0501Z"/>
  </g>
</svg>
