<svg id="图层_1" data-name="图层 1" xmlns="http://www.w3.org/2000/svg" viewBox="0 0 469.6051 129.32484">
  <defs>
    <style>
      .cls-1, .cls-4 {
        fill: #fff;
      }

      .cls-2 {
        fill: none;
        stroke: #000;
        stroke-linecap: round;
        stroke-linejoin: round;
        stroke-width: 0.681px;
      }

      .cls-3, .cls-4 {
        fill-rule: evenodd;
      }

      .cls-5 {
        fill: #221e1f;
      }
    </style>
  </defs>
  <title>[OPTSxa6b4]_Residual_Block</title>
  <g>
    <g>
      <path d="M312.46175,79.95474v4.87a2.22209,2.22209,0,0,0,.08259.75633.57544.57544,0,0,0,.24455.2818,1.31012,1.31012,0,0,0,.59114.09394v.23645h-2.9411v-.23645a1.3483,1.3483,0,0,0,.59437-.08746.57672.57672,0,0,0,.24132-.285,2.111,2.111,0,0,0,.09069-.75957V82.48933a8.07657,8.07657,0,0,0-.06154-1.27782.49942.49942,0,0,0-.14576-.29314.40426.40426,0,0,0-.26885-.0826,1.30572,1.30572,0,0,0-.45023.0988l-.09393-.23808,1.82685-.74175Zm-.549-3.16784a.66357.66357,0,0,1,.66725.66726.65531.65531,0,0,1-.19434.47614.63749.63749,0,0,1-.47291.19921.67134.67134,0,1,1,0-1.34261Z"/>
      <path d="M318.616,85.513a3.09152,3.09152,0,0,1-.86646.664,2.07212,2.07212,0,0,1-.91342.20244,2.25552,2.25552,0,0,1-1.7313-.83083,3.081,3.081,0,0,1-.74013-2.13294,3.8554,3.8554,0,0,1,.81949-2.3856,2.53689,2.53689,0,0,1,2.10865-1.08186,1.815,1.815,0,0,1,1.32317.51016V79.33931a8.9489,8.9489,0,0,0-.0502-1.2762.55067.55067,0,0,0-.15548-.32391.39824.39824,0,0,0-.264-.08584,1.35572,1.35572,0,0,0-.45509.10527l-.08746-.23,1.8058-.74176h.29638v7.00617a9.04039,9.04039,0,0,0,.05182,1.29888.55843.55843,0,0,0,.15872.32715.37552.37552,0,0,0,.25265.09393,1.44707,1.44707,0,0,0,.47615-.11337l.0745.23322-1.79932.74661H318.616Zm0-.46319V81.92735a2.12144,2.12144,0,0,0-.23807-.82111,1.38088,1.38088,0,0,0-.52474-.55874,1.27339,1.27339,0,0,0-.6381-.18787,1.35456,1.35456,0,0,0-1.03975.52149,2.97269,2.97269,0,0,0-.60085,2.01148,3.15285,3.15285,0,0,0,.58142,2.04711,1.66891,1.66891,0,0,0,1.29564.7126A1.60853,1.60853,0,0,0,318.616,85.04984Z"/>
      <path d="M322.12721,82.41645a3.10046,3.10046,0,0,0,.65592,2.11675,1.99492,1.99492,0,0,0,1.55315.76767,1.68557,1.68557,0,0,0,1.03489-.32715,2.42666,2.42666,0,0,0,.73689-1.12235l.20569.13281a3.17845,3.17845,0,0,1-.80654,1.65194,2.16024,2.16024,0,0,1-1.67461.74337,2.44412,2.44412,0,0,1-1.86734-.85026,3.25569,3.25569,0,0,1-.77577-2.28681,3.45187,3.45187,0,0,1,.79682-2.42284,2.59717,2.59717,0,0,1,1.99853-.87132,2.23539,2.23539,0,0,1,1.67461.67211,2.46685,2.46685,0,0,1,.6543,1.79608Zm0-.38383h2.80344a2.60038,2.60038,0,0,0-.13928-.82111,1.31088,1.31088,0,0,0-.49234-.58142,1.24211,1.24211,0,0,0-.68345-.21216,1.36038,1.36038,0,0,0-.98145.42756A1.84828,1.84828,0,0,0,322.12721,82.03262Z"/>
      <path d="M328.88559,81.239a2.85577,2.85577,0,0,1,2.03091-1.2843,1.45661,1.45661,0,0,1,.85189.24941,1.67065,1.67065,0,0,1,.57008.81625,3.83625,3.83625,0,0,1,.14414,1.2179v2.58642a2.18942,2.18942,0,0,0,.09231.78063.54007.54007,0,0,0,.23484.2575,1.32866,1.32866,0,0,0,.59761.09394v.23645h-2.99455v-.23645h.12471a1.01108,1.01108,0,0,0,.59275-.12957.6777.6777,0,0,0,.23484-.38059,3.78824,3.78824,0,0,0,.02753-.62191V82.34357a2.50059,2.50059,0,0,0-.217-1.20008.7645.7645,0,0,0-.72232-.37412,2.18017,2.18017,0,0,0-1.56772.86v3.19537a2.26683,2.26683,0,0,0,.07288.75957.604.604,0,0,0,.25427.2818,1.55757,1.55757,0,0,0,.65754.0907v.23645h-2.99617v-.23645h.1328a.70871.70871,0,0,0,.62515-.23646,1.70029,1.70029,0,0,0,.16195-.89561V82.57517a9.9686,9.9686,0,0,0-.04858-1.32965.57493.57493,0,0,0-.15224-.32391.41791.41791,0,0,0-.27532-.08584,1.27445,1.27445,0,0,0-.44376.0988l-.09717-.23808,1.82361-.74175h.285Z"/>
      <path d="M335.827,78.14247v1.99042h1.41386v.46319H335.827v3.93065a1.31805,1.31805,0,0,0,.16843.79519.534.534,0,0,0,.43242.20407.752.752,0,0,0,.4227-.136.87351.87351,0,0,0,.31743-.4h.25913a2.07992,2.07992,0,0,1-.65592.97659,1.41578,1.41578,0,0,1-.87293.32714,1.17471,1.17471,0,0,1-.59438-.16843,1.01292,1.01292,0,0,1-.42918-.48262,2.52088,2.52088,0,0,1-.13928-.97011V80.59608h-.95877v-.217a2.5442,2.5442,0,0,0,.74337-.49234,3.97321,3.97321,0,0,0,.67859-.82435,7.64344,7.64344,0,0,0,.4227-.9199Z"/>
      <path d="M339.905,79.95474v4.87a2.20925,2.20925,0,0,0,.08422.75633.58053.58053,0,0,0,.24293.2818,1.31827,1.31827,0,0,0,.59275.09394v.23645h-2.94272v-.23645a1.33867,1.33867,0,0,0,.59438-.08746.58742.58742,0,0,0,.24293-.285,2.16006,2.16006,0,0,0,.08908-.75957V82.48933a8.3673,8.3673,0,0,0-.05993-1.27782.51872.51872,0,0,0-.14576-.29314.40591.40591,0,0,0-.27046-.0826,1.31333,1.31333,0,0,0-.45024.0988l-.09231-.23808,1.82523-.74175Zm-.54741-3.16784a.66359.66359,0,0,1,.66726.66726.65531.65531,0,0,1-.19435.47614.63748.63748,0,0,1-.47291.19921.67134.67134,0,1,1,0-1.34261Z"/>
      <path d="M343.33844,78.14247v1.99042h1.41387v.46319h-1.41387v3.93065a1.318,1.318,0,0,0,.16844.79519.534.534,0,0,0,.43242.20407.752.752,0,0,0,.4227-.136.87351.87351,0,0,0,.31743-.4h.25913a2.07992,2.07992,0,0,1-.65592.97659,1.41578,1.41578,0,0,1-.87294.32714,1.1747,1.1747,0,0,1-.59437-.16843,1.01282,1.01282,0,0,1-.42918-.48262,2.52068,2.52068,0,0,1-.13928-.97011V80.59608h-.95878v-.217a2.5441,2.5441,0,0,0,.74338-.49234,3.97352,3.97352,0,0,0,.67859-.82435,7.64344,7.64344,0,0,0,.4227-.9199Z"/>
      <path d="M344.9839,80.13289h2.8245v.24617h-.13928a.66055.66055,0,0,0-.447.12957.40378.40378,0,0,0-.149.32067,1.81672,1.81672,0,0,0,.21864.71422l1.47541,3.05609,1.35394-3.34761a1.3984,1.3984,0,0,0,.11337-.53607.2969.2969,0,0,0-.04535-.17815.358.358,0,0,0-.16681-.11661,1.23584,1.23584,0,0,0-.39679-.04211v-.24617h1.971v.24617a.93082.93082,0,0,0-.37735.10527,1.1299,1.1299,0,0,0-.29152.298,4.30079,4.30079,0,0,0-.2235.51016l-2.46657,6.04577a3.11624,3.11624,0,0,1-.9361,1.32965,1.82759,1.82759,0,0,1-1.11425.45024.91994.91994,0,0,1-.64134-.22512.68074.68074,0,0,1-.251-.51664.582.582,0,0,1,.18139-.44537.71045.71045,0,0,1,.49882-.17005,1.77976,1.77976,0,0,1,.596.14575,1.33455,1.33455,0,0,0,.33039.10042.68583.68583,0,0,0,.434-.20569,2.1726,2.1726,0,0,0,.47291-.79357l.42918-1.05109-2.17506-4.572a3.84022,3.84022,0,0,0-.31743-.51016,1.49914,1.49914,0,0,0-.27208-.311,1.44016,1.44016,0,0,0-.48911-.18463Z"/>
    </g>
    <rect class="cls-1" x="182.2274" y="24.58986" width="88.15983" height="20.41542"/>
    <rect class="cls-2" x="182.2274" y="24.58986" width="88.15983" height="20.41542"/>
    <g>
      <path d="M196.21539,32.90685h2.26818v.21864a.7322.7322,0,0,0-.41055.11175.32719.32719,0,0,0-.09718.25427,1.26668,1.26668,0,0,0,.10042.44375l1.158,3.11439,1.16365-2.5354-.30771-.79763a.95164.95164,0,0,0-.37169-.49072,1.08247,1.08247,0,0,0-.48425-.10041v-.21864h2.57509v.21864a1.094,1.094,0,0,0-.60248.15305.36462.36462,0,0,0-.11822.302.67726.67726,0,0,0,.04777.24212l1.22843,3.10873,1.14016-2.99617a1.57391,1.57391,0,0,0,.11823-.50854.25351.25351,0,0,0-.1158-.20082.84535.84535,0,0,0-.45185-.10041v-.21864h1.70781v.21864a.973.973,0,0,0-.75633.69721l-1.80741,4.66268h-.24213l-1.35313-3.45692-1.57744,3.45692h-.21864l-1.73615-4.55012a1.63937,1.63937,0,0,0-.33687-.58223,1.11987,1.11987,0,0,0-.51988-.22754Z"/>
      <path d="M205.99342,34.94586a2.77745,2.77745,0,0,0,.58547,1.89082,1.78059,1.78059,0,0,0,1.38795.68588,1.50173,1.50173,0,0,0,.924-.29314,2.15238,2.15238,0,0,0,.65916-1.00169l.183.11823a2.81683,2.81683,0,0,1-.7207,1.4746,1.92185,1.92185,0,0,1-1.49484.66482,2.18069,2.18069,0,0,1-1.66814-.75875,2.9099,2.9099,0,0,1-.69479-2.04225,3.08949,3.08949,0,0,1,.7118-2.16615,2.32128,2.32128,0,0,1,1.78717-.77738,1.998,1.998,0,0,1,1.49484.6,2.2015,2.2015,0,0,1,.58466,1.605Zm0-.34334h2.50463a2.30672,2.30672,0,0,0-.12389-.73285,1.17626,1.17626,0,0,0-.43971-.51987,1.10936,1.10936,0,0,0-.61138-.18949,1.21939,1.21939,0,0,0-.8778.3814A1.6601,1.6601,0,0,0,205.99342,34.60252Z"/>
      <path d="M212.33233,32.74732v4.3493a1.99134,1.99134,0,0,0,.07369.677.51814.51814,0,0,0,.21864.251,1.17157,1.17157,0,0,0,.52879.0826v.213h-2.62853v-.213a1.211,1.211,0,0,0,.53121-.07693.52584.52584,0,0,0,.21621-.25346,1.929,1.929,0,0,0,.07936-.68021v-2.086a7.34738,7.34738,0,0,0-.05345-1.141.46066.46066,0,0,0-.12956-.26237.36671.36671,0,0,0-.24212-.0745,1.18233,1.18233,0,0,0-.40165.08908l-.0826-.213,1.63008-.66159Zm-.48991-2.831a.59443.59443,0,0,1,.596.59681.58319.58319,0,0,1-.1741.42513.56891.56891,0,0,1-.42189.17734.6041.6041,0,0,1-.60247-.60247.57386.57386,0,0,1,.1741-.42271A.582.582,0,0,1,211.84242,29.91635Z"/>
      <path d="M215.44349,36.346a1.77614,1.77614,0,0,1-1.02761-1.63655,1.84681,1.84681,0,0,1,.60571-1.3831,2.14866,2.14866,0,0,1,1.54991-.579,2.353,2.353,0,0,1,1.341.37817h1.14664a1.5196,1.5196,0,0,1,.29476.01457.09945.09945,0,0,1,.05911.05021.35726.35726,0,0,1,.03563.18949.5305.5305,0,0,1-.02915.21216.1215.1215,0,0,1-.06235.04777,1.32958,1.32958,0,0,1-.298.01782h-.70288a1.82484,1.82484,0,0,1-.2486,2.38155,2.191,2.191,0,0,1-1.55315.53769,3.02618,3.02618,0,0,1-.82111-.11823,1.55989,1.55989,0,0,0-.35145.39274.62693.62693,0,0,0-.09231.28666.27556.27556,0,0,0,.098.19516.7115.7115,0,0,0,.3806.136q.16519.02428.82759.0413,1.21587.03036,1.57663.08259a1.48377,1.48377,0,0,1,.87779.40813,1.11257,1.11257,0,0,1,.328.81544,1.70722,1.70722,0,0,1-.62676,1.25272,3.37225,3.37225,0,0,1-2.40422.86322,3.44491,3.44491,0,0,1-1.92565-.5142q-.44335-.29517-.44294-.61462a.678.678,0,0,1,.06478-.28342,3.3098,3.3098,0,0,1,.41379-.609q.0413-.05344.60247-.63811a1.85969,1.85969,0,0,1-.434-.328.48523.48523,0,0,1-.12714-.32877.97058.97058,0,0,1,.16843-.48425A3.86523,3.86523,0,0,1,215.44349,36.346Zm-.05912,1.97423a2.93873,2.93873,0,0,0-.41946.56117,1.01914,1.01914,0,0,0-.14171.47939.59991.59991,0,0,0,.34253.49639,3.27034,3.27034,0,0,0,1.70782.366,2.6363,2.6363,0,0,0,1.56772-.37493,1.03178,1.03178,0,0,0,.5053-.80086.44774.44774,0,0,0-.30123-.43728,3.934,3.934,0,0,0-1.2171-.15386A19.33623,19.33623,0,0,1,215.38437,38.32019Zm1.08672-5.28945a.92292.92292,0,0,0-.732.349,1.62823,1.62823,0,0,0-.29557,1.06971,2.3034,2.3034,0,0,0,.40165,1.44788.95157.95157,0,0,0,.77981.3895.92811.92811,0,0,0,.73851-.33687,1.60058,1.60058,0,0,0,.28909-1.05756,2.36423,2.36423,0,0,0-.40731-1.47136A.93467.93467,0,0,0,216.47109,33.03074Z"/>
      <path d="M221.45282,29.91635v3.9598a4.55829,4.55829,0,0,1,1.03975-.92557,1.63076,1.63076,0,0,1,.76767-.20326,1.26127,1.26127,0,0,1,.792.25346,1.5038,1.5038,0,0,1,.48991.79844,5.61941,5.61941,0,0,1,.11256,1.38309v1.91431a2.00591,2.00591,0,0,0,.0826.7037.46414.46414,0,0,0,.20082.2243,1.13387,1.13387,0,0,0,.51988.0826v.213h-2.65849v-.213h.1247a.88528.88528,0,0,0,.52555-.115.61183.61183,0,0,0,.20649-.3401,4.58972,4.58972,0,0,0,.01781-.55551V35.18231a4.62115,4.62115,0,0,0-.0915-1.16445.78668.78668,0,0,0-.29233-.417.832.832,0,0,0-.48424-.13848,1.36647,1.36647,0,0,0-.60248.15305,2.87564,2.87564,0,0,0-.75066.6211v2.86012a2.22454,2.22454,0,0,0,.06236.69155.50361.50361,0,0,0,.23.22755,1.31055,1.31055,0,0,0,.58223.0915v.213h-2.682v-.213a1.19939,1.19939,0,0,0,.56684-.11175.42222.42222,0,0,0,.18949-.22512,2.05112,2.05112,0,0,0,.07045-.67373V32.19749a8.28564,8.28564,0,0,0-.04373-1.141.51171.51171,0,0,0-.136-.28909.36806.36806,0,0,0-.24537-.07692,1.4419,1.4419,0,0,0-.40164.09474l-.0826-.2073,1.61874-.66159Z"/>
      <path d="M227.47188,31.12777v1.77908h1.264v.41379h-1.264V36.831a1.1805,1.1805,0,0,0,.15061.70936.481.481,0,0,0,.38708.183.67511.67511,0,0,0,.37816-.12147.77743.77743,0,0,0,.28342-.35711h.23079a1.85881,1.85881,0,0,1-.58466.87132,1.26311,1.26311,0,0,1-.77981.29233,1.04911,1.04911,0,0,1-.532-.15062.9087.9087,0,0,1-.38384-.4308,2.27135,2.27135,0,0,1-.12389-.86646V33.32064H225.641v-.19515a2.2601,2.2601,0,0,0,.66482-.44052,3.49641,3.49641,0,0,0,.6049-.73608,6.56964,6.56964,0,0,0,.37817-.82112Z"/>
      <path d="M234.32905,29.91635v7.18027a1.95909,1.95909,0,0,0,.07368.67373.51747.51747,0,0,0,.22755.251,1.29767,1.29767,0,0,0,.57251.08584v.213h-2.652v-.213a1.13629,1.13629,0,0,0,.50773-.07693.50845.50845,0,0,0,.213-.25346,1.98591,1.98591,0,0,0,.07693-.68021V32.17967a8.52652,8.52652,0,0,0-.0413-1.12558.49331.49331,0,0,0-.1328-.28667.34992.34992,0,0,0-.234-.07692,1.09888,1.09888,0,0,0-.3895.09474l-.10041-.2073,1.61307-.66159Z"/>
      <path d="M238.89536,37.54038a8.87742,8.87742,0,0,1-1.04542.74418,1.596,1.596,0,0,1-.6794.14819,1.21588,1.21588,0,0,1-.92476-.38464,1.40983,1.40983,0,0,1-.36278-1.0106,1.284,1.284,0,0,1,.17653-.68507,2.35048,2.35048,0,0,1,.84217-.75714,13.11122,13.11122,0,0,1,1.99366-.86241v-.213a1.76921,1.76921,0,0,0-.2567-1.111.92934.92934,0,0,0-.74742-.30124.84075.84075,0,0,0-.59113.20083.60318.60318,0,0,0-.22431.46076l.01215.34334a.592.592,0,0,1-.13928.41947.47655.47655,0,0,1-.36278.14738.46044.46044,0,0,1-.35792-.15386.60254.60254,0,0,1-.13848-.41947,1.20938,1.20938,0,0,1,.51988-.93367,2.24462,2.24462,0,0,1,1.45921-.42513,2.52694,2.52694,0,0,1,1.18146.24213,1.11309,1.11309,0,0,1,.5134.57332,3.21219,3.21219,0,0,1,.10689,1.03975V36.4407a8.54414,8.54414,0,0,0,.02915.94906.403.403,0,0,0,.09718.23321.2355.2355,0,0,0,.15709.05912.32077.32077,0,0,0,.1652-.0413,3.69469,3.69469,0,0,0,.47857-.43161v.3312q-.662.88548-1.264.88589a.5722.5722,0,0,1-.46077-.20082A1.0842,1.0842,0,0,1,238.89536,37.54038Zm0-.38464v-2.0625a11.89177,11.89177,0,0,0-1.15231.50206,1.99191,1.99191,0,0,0-.66725.54417,1.052,1.052,0,0,0-.20082.62029,1.012,1.012,0,0,0,.25427.70612.76746.76746,0,0,0,.58465.281A2.1396,2.1396,0,0,0,238.89536,37.15574Z"/>
      <path d="M240.89227,32.90685h2.52163v.21864H243.29a.59238.59238,0,0,0-.39841.115.36287.36287,0,0,0-.1328.28666,1.62739,1.62739,0,0,0,.19434.6381l1.31751,2.73056,1.21142-2.9905a1.25044,1.25044,0,0,0,.10041-.47858.25724.25724,0,0,0-.0413-.15952.316.316,0,0,0-.14819-.10365,1.12976,1.12976,0,0,0-.35387-.03806v-.21864h1.76045v.21864a.838.838,0,0,0-.33687.09393.9676.9676,0,0,0-.25993.26642,3.55253,3.55253,0,0,0-.20083.45509l-2.20339,5.402a2.792,2.792,0,0,1-.8365,1.18793,1.6437,1.6437,0,0,1-.99521.40165.82583.82583,0,0,1-.57251-.20082.60568.60568,0,0,1-.22512-.46157.517.517,0,0,1,.16276-.39841.63059.63059,0,0,1,.44619-.15062,1.58825,1.58825,0,0,1,.53121.12956,1.27622,1.27622,0,0,0,.29557.08908.618.618,0,0,0,.38707-.183,1.93979,1.93979,0,0,0,.42189-.70936l.38465-.94015-1.94346-4.08369a3.25049,3.25049,0,0,0-.28423-.4551.85769.85769,0,0,0-.67859-.44294Z"/>
      <path d="M248.17052,34.94586a2.77721,2.77721,0,0,0,.58466,1.89082,1.78177,1.78177,0,0,0,1.388.68588,1.49772,1.49772,0,0,0,.92314-.29314,2.15982,2.15982,0,0,0,.66078-1.00169l.18139.11823a2.80806,2.80806,0,0,1-.71908,1.4746,1.92636,1.92636,0,0,1-1.49647.66482,2.18433,2.18433,0,0,1-1.66813-.75875,2.90913,2.90913,0,0,1-.69317-2.04225,3.08924,3.08924,0,0,1,.711-2.16615,2.32081,2.32081,0,0,1,1.78637-.77738,2.00295,2.00295,0,0,1,1.49646.6,2.20391,2.20391,0,0,1,.583,1.605Zm0-.34334h2.50382a2.36,2.36,0,0,0-.12308-.73285,1.18323,1.18323,0,0,0-.44052-.51987,1.106,1.106,0,0,0-.61219-.18949,1.22074,1.22074,0,0,0-.8778.3814A1.659,1.659,0,0,0,248.17052,34.60252Z"/>
      <path d="M254.22439,32.74732v1.21709q.68022-1.21709,1.39605-1.21709a.75462.75462,0,0,1,.53607.19759.61219.61219,0,0,1,.21216.45833.54085.54085,0,0,1-.15223.3895.49186.49186,0,0,1-.366.15953.77787.77787,0,0,1-.46481-.20326.76009.76009,0,0,0-.3806-.20406.3477.3477,0,0,0-.23.11823,2.83,2.83,0,0,0-.55065.79763v2.59451a1.60562,1.60562,0,0,0,.11337.6794.61828.61828,0,0,0,.27208.26642,1.19806,1.19806,0,0,0,.56037.10608v.213h-2.76943v-.213a1.14032,1.14032,0,0,0,.61219-.12956.49535.49535,0,0,0,.2073-.30205,3.06682,3.06682,0,0,0,.02915-.57251V35.005a9.11787,9.11787,0,0,0-.03725-1.12639.45039.45039,0,0,0-.1409-.26318.40375.40375,0,0,0-.25912-.0826,1.1623,1.1623,0,0,0-.41137.08908l-.05992-.213,1.63736-.66159Z"/>
    </g>
    <rect class="cls-1" x="182.2274" y="65.23831" width="88.15983" height="20.41482"/>
    <rect class="cls-2" x="182.2274" y="65.23831" width="88.15983" height="20.41482"/>
    <g>
      <path d="M196.21539,73.55428h2.26818v.22026a.73483.73483,0,0,0-.41055.11013.33206.33206,0,0,0-.09718.25589,1.278,1.278,0,0,0,.10042.44376l1.158,3.11277,1.16365-2.53459-.30771-.79844a.947.947,0,0,0-.37169-.48911,1.06046,1.06046,0,0,0-.48425-.10041v-.22026h2.57509v.22026a1.0745,1.0745,0,0,0-.60248.15224.364.364,0,0,0-.11822.30124.67818.67818,0,0,0,.04777.24293l1.22843,3.10953,1.14016-2.99616a1.57846,1.57846,0,0,0,.11823-.50854.2524.2524,0,0,0-.1158-.20083.82288.82288,0,0,0-.45185-.10041v-.22026h1.70781v.22026a.96935.96935,0,0,0-.75633.69641l-1.80741,4.66268h-.24213l-1.35313-3.45774-1.57744,3.45774h-.21864l-1.73615-4.54931a1.64452,1.64452,0,0,0-.33687-.583,1.11186,1.11186,0,0,0-.51988-.22674Z"/>
      <path d="M205.99342,75.59492a2.77522,2.77522,0,0,0,.58547,1.89,1.77723,1.77723,0,0,0,1.38795.68507,1.50575,1.50575,0,0,0,.924-.29152A2.15546,2.15546,0,0,0,209.55,76.876l.183.11823a2.80865,2.80865,0,0,1-.7207,1.47378,1.92259,1.92259,0,0,1-1.49484.66564,2.17876,2.17876,0,0,1-1.66814-.75957,2.903,2.903,0,0,1-.69479-2.04063,3.0903,3.0903,0,0,1,.7118-2.167,2.32131,2.32131,0,0,1,1.78717-.77738,2.0035,2.0035,0,0,1,1.49484.59923,2.208,2.208,0,0,1,.58466,1.6066Zm0-.34335h2.50463a2.30814,2.30814,0,0,0-.12389-.73365,1.17629,1.17629,0,0,0-.43971-.51988,1.10944,1.10944,0,0,0-.61138-.18949,1.225,1.225,0,0,0-.8778.3806A1.66647,1.66647,0,0,0,205.99342,75.25157Z"/>
      <path d="M212.33233,73.39557v4.35011a1.99784,1.99784,0,0,0,.07369.677.51786.51786,0,0,0,.21864.24941,1.16665,1.16665,0,0,0,.52879.08421v.21217h-2.62853v-.21217a1.208,1.208,0,0,0,.53121-.07773.53514.53514,0,0,0,.21621-.25265,1.94146,1.94146,0,0,0,.07936-.68021v-2.086a7.353,7.353,0,0,0-.05345-1.14178.46334.46334,0,0,0-.12956-.26237.3623.3623,0,0,0-.24212-.0745,1.20206,1.20206,0,0,0-.40165.08907l-.0826-.21378,1.63008-.66077Zm-.48991-2.831a.5958.5958,0,0,1,.596.596.585.585,0,0,1-.1741.42594.56812.56812,0,0,1-.42189.17653.60271.60271,0,0,1-.60247-.60247.57153.57153,0,0,1,.1741-.42108A.57956.57956,0,0,1,211.84242,70.5646Z"/>
      <path d="M215.44349,76.99421a1.77835,1.77835,0,0,1-1.02761-1.63575,1.843,1.843,0,0,1,.60571-1.38309,2.1458,2.1458,0,0,1,1.54991-.5798,2.35345,2.35345,0,0,1,1.341.379h1.14664a1.59039,1.59039,0,0,1,.29476.013.09924.09924,0,0,1,.05911.05182.35056.35056,0,0,1,.03563.18787.53448.53448,0,0,1-.02915.21378.12051.12051,0,0,1-.06235.047,1.32988,1.32988,0,0,1-.298.01781h-.70288a1.72,1.72,0,0,1,.33038,1.08672,1.70257,1.70257,0,0,1-.579,1.294,2.18734,2.18734,0,0,1-1.55315.53769,3.0547,3.0547,0,0,1-.82111-.11661,1.54548,1.54548,0,0,0-.35145.39193.627.627,0,0,0-.09231.28666.2815.2815,0,0,0,.098.196.73974.73974,0,0,0,.3806.136c.11013.0162.38626.02915.82759.04049.81058.02105,1.33693.047,1.57663.0826a1.48851,1.48851,0,0,1,.87779.40812,1.11314,1.11314,0,0,1,.328.81626,1.70966,1.70966,0,0,1-.62676,1.25191,3.37579,3.37579,0,0,1-2.40422.86322,3.43856,3.43856,0,0,1-1.92565-.515c-.29557-.196-.44294-.40165-.44294-.61381a.67525.67525,0,0,1,.06478-.28342,3.283,3.283,0,0,1,.41379-.609c.02753-.03563.22836-.24941.60247-.6381a1.90745,1.90745,0,0,1-.434-.32715.48768.48768,0,0,1-.12714-.33039.96811.96811,0,0,1,.16843-.48262A3.86308,3.86308,0,0,1,215.44349,76.99421Zm-.05912,1.97423a2.892,2.892,0,0,0-.41946.562,1.01145,1.01145,0,0,0-.14171.47939.59984.59984,0,0,0,.34253.49558,3.27831,3.27831,0,0,0,1.70782.366,2.63,2.63,0,0,0,1.56772-.37573,1.02936,1.02936,0,0,0,.5053-.80006.44914.44914,0,0,0-.30123-.43728,3.88346,3.88346,0,0,0-1.2171-.15385A19.79,19.79,0,0,1,215.38437,78.96844Zm1.08672-5.28945a.92458.92458,0,0,0-.732.3482,1.63222,1.63222,0,0,0-.29557,1.07052,2.30338,2.30338,0,0,0,.40165,1.44788.95016.95016,0,0,0,.77981.39031.9331.9331,0,0,0,.73851-.33686,1.604,1.604,0,0,0,.28909-1.05919,2.36489,2.36489,0,0,0-.40731-1.47055A.93466.93466,0,0,0,216.47109,73.679Z"/>
      <path d="M221.45282,70.5646v3.95979a4.54976,4.54976,0,0,1,1.03975-.92476,1.62266,1.62266,0,0,1,.76767-.20406,1.26555,1.26555,0,0,1,.792.25265,1.51518,1.51518,0,0,1,.48991.8,5.615,5.615,0,0,1,.11256,1.3831v1.91431a2.00042,2.00042,0,0,0,.0826.70288.466.466,0,0,0,.20082.2235,1.12917,1.12917,0,0,0,.51988.08421v.21217h-2.65849v-.21217h.1247a.87752.87752,0,0,0,.52555-.1166.60623.60623,0,0,0,.20649-.34011,4.54476,4.54476,0,0,0,.01781-.55388V75.83137a4.63251,4.63251,0,0,0-.0915-1.16608.78453.78453,0,0,0-.29233-.41622.83164.83164,0,0,0-.48424-.13766,1.3648,1.3648,0,0,0-.60248.15224,2.88191,2.88191,0,0,0-.75066.6219v2.86013a2.21863,2.21863,0,0,0,.06236.68992.50116.50116,0,0,0,.23.22836,1.30816,1.30816,0,0,0,.58223.09231v.21217h-2.682v-.21217a1.19782,1.19782,0,0,0,.56684-.11336.41813.41813,0,0,0,.18949-.2235,2.05452,2.05452,0,0,0,.07045-.67373V72.84492a8.27865,8.27865,0,0,0-.04373-1.14016.50335.50335,0,0,0-.136-.28828.36833.36833,0,0,0-.24537-.07774,1.49411,1.49411,0,0,0-.40164.09393l-.0826-.2073,1.61874-.66077Z"/>
      <path d="M227.47188,71.776v1.77826h1.264v.41461h-1.264v3.51118a1.18386,1.18386,0,0,0,.15061.70936.4843.4843,0,0,0,.38708.18139.673.673,0,0,0,.37816-.11984.784.784,0,0,0,.28342-.35793h.23079a1.85871,1.85871,0,0,1-.58466.87132,1.25936,1.25936,0,0,1-.77981.29314,1.05131,1.05131,0,0,1-.532-.15224.905.905,0,0,1-.38384-.4308,2.26469,2.26469,0,0,1-.12389-.86484V73.96889H225.641v-.19435a2.29251,2.29251,0,0,0,.66482-.44051,3.54363,3.54363,0,0,0,.6049-.7369,6.5693,6.5693,0,0,0,.37817-.82111Z"/>
      <path d="M234.32905,70.5646v7.18108a1.96232,1.96232,0,0,0,.07368.67373.5104.5104,0,0,0,.22755.24941,1.28033,1.28033,0,0,0,.57251.08745v.21217h-2.652v-.21217a1.13372,1.13372,0,0,0,.50773-.07773.51706.51706,0,0,0,.213-.25265,1.9988,1.9988,0,0,0,.07693-.68021V72.82873a8.54091,8.54091,0,0,0-.0413-1.12721.48781.48781,0,0,0-.1328-.285.35032.35032,0,0,0-.234-.07774,1.13123,1.13123,0,0,0-.3895.09393l-.10041-.2073,1.61307-.66077Z"/>
      <path d="M238.89536,78.18943a9.04429,9.04429,0,0,1-1.04542.74338,1.59527,1.59527,0,0,1-.6794.14737,1.21232,1.21232,0,0,1-.92476-.38383,1.40981,1.40981,0,0,1-.36278-1.0106,1.284,1.284,0,0,1,.17653-.68507,2.34457,2.34457,0,0,1,.84217-.758,13.21132,13.21132,0,0,1,1.99366-.8616v-.21378a1.77242,1.77242,0,0,0-.2567-1.111.92937.92937,0,0,0-.74742-.30123.84453.84453,0,0,0-.59113.20082.606.606,0,0,0-.22431.46157l.01215.34335a.5933.5933,0,0,1-.13928.41946.47946.47946,0,0,1-.36278.14738.45777.45777,0,0,1-.35792-.15386.60391.60391,0,0,1-.13848-.41946,1.21318,1.21318,0,0,1,.51988-.93448,2.25384,2.25384,0,0,1,1.45921-.42432,2.52664,2.52664,0,0,1,1.18146.24293,1.10694,1.10694,0,0,1,.5134.57332,3.20542,3.20542,0,0,1,.10689,1.03975v1.83657a8.52291,8.52291,0,0,0,.02915.949.398.398,0,0,0,.09718.23322.23629.23629,0,0,0,.15709.05992.33708.33708,0,0,0,.1652-.04049,3.79079,3.79079,0,0,0,.47857-.43242v.332q-.662.88428-1.264.88428a.56736.56736,0,0,1-.46077-.20083A1.07883,1.07883,0,0,1,238.89536,78.18943Zm0-.38545V75.74067a12.11087,12.11087,0,0,0-1.15231.50206,2.02155,2.02155,0,0,0-.66725.54417,1.05677,1.05677,0,0,0-.20082.62191,1.0148,1.0148,0,0,0,.25427.70612.76654.76654,0,0,0,.58465.28018A2.134,2.134,0,0,0,238.89536,77.804Z"/>
      <path d="M240.89227,73.55428h2.52163v.22026H243.29a.59678.59678,0,0,0-.39841.11337.36608.36608,0,0,0-.1328.28828,1.63477,1.63477,0,0,0,.19434.6381l1.31751,2.73056,1.21142-2.9913a1.24661,1.24661,0,0,0,.10041-.47777.25992.25992,0,0,0-.0413-.16034.316.316,0,0,0-.14819-.10365,1.16225,1.16225,0,0,0-.35387-.03725v-.22026h1.76045v.22026a.80071.80071,0,0,0-.33687.09394.96243.96243,0,0,0-.25993.2656,3.61147,3.61147,0,0,0-.20083.4551l-2.20339,5.40119a2.795,2.795,0,0,1-.8365,1.18875,1.64377,1.64377,0,0,1-.99521.40165.82961.82961,0,0,1-.57251-.20083.60692.60692,0,0,1-.22512-.46157A.51706.51706,0,0,1,241.332,80.52a.63059.63059,0,0,1,.44619-.15062,1.56825,1.56825,0,0,1,.53121.12957,1.32228,1.32228,0,0,0,.29557.08907.618.618,0,0,0,.38707-.183,1.95427,1.95427,0,0,0,.42189-.70936l.38465-.93934-1.94346-4.0845a3.20478,3.20478,0,0,0-.28423-.45509,1.26612,1.26612,0,0,0-.24212-.27694,1.251,1.251,0,0,0-.43647-.1652Z"/>
      <path d="M248.17052,75.59492a2.775,2.775,0,0,0,.58466,1.89,1.77841,1.77841,0,0,0,1.388.68507,1.50172,1.50172,0,0,0,.92314-.29152,2.16291,2.16291,0,0,0,.66078-1.0025l.18139.11823a2.79994,2.79994,0,0,1-.71908,1.47378,1.9271,1.9271,0,0,1-1.49647.66564,2.1824,2.1824,0,0,1-1.66813-.75957,2.9022,2.9022,0,0,1-.69317-2.04063,3.09005,3.09005,0,0,1,.711-2.167,2.32085,2.32085,0,0,1,1.78637-.77738,2.00842,2.00842,0,0,1,1.49646.59923,2.21047,2.21047,0,0,1,.583,1.6066Zm0-.34335h2.50382a2.3614,2.3614,0,0,0-.12308-.73365,1.18326,1.18326,0,0,0-.44052-.51988,1.10608,1.10608,0,0,0-.61219-.18949,1.22632,1.22632,0,0,0-.8778.3806A1.66532,1.66532,0,0,0,248.17052,75.25157Z"/>
      <path d="M254.22439,73.39557v1.2179q.68022-1.21952,1.39605-1.2179a.7511.7511,0,0,1,.53607.19758.61349.61349,0,0,1,.21216.45834.54277.54277,0,0,1-.15223.39031.491.491,0,0,1-.366.15871.77966.77966,0,0,1-.46481-.20406.76009.76009,0,0,0-.3806-.20406.34716.34716,0,0,0-.23.11984,2.82409,2.82409,0,0,0-.55065.79682v2.59452a1.61239,1.61239,0,0,0,.11337.68021.61679.61679,0,0,0,.27208.2656,1.18691,1.18691,0,0,0,.56037.10689v.21217h-2.76943v-.21217a1.14781,1.14781,0,0,0,.61219-.12956.5043.5043,0,0,0,.2073-.30286,3.06167,3.06167,0,0,0,.02915-.5717V75.65322a9.13554,9.13554,0,0,0-.03725-1.12721.44545.44545,0,0,0-.1409-.26236.4037.4037,0,0,0-.25912-.0826,1.18038,1.18038,0,0,0-.41137.08907l-.05992-.21378,1.63736-.66077Z"/>
    </g>
    <line class="cls-2" x1="226.30651" y1="45.00528" x2="226.30651" y2="60.36063"/>
    <path class="cls-3" d="M226.30651,65.238,223.056,58.73541a6.9045,6.9045,0,0,0,6.50266,0L226.30651,65.238"/>
    <line class="cls-2" x1="226.30651" y1="4.35744" x2="226.30651" y2="19.71279"/>
    <path class="cls-3" d="M226.30651,24.59188,223.056,18.08757a6.9045,6.9045,0,0,0,6.50266,0l-3.25215,6.50431"/>
    <line class="cls-2" x1="226.30651" y1="85.65312" x2="226.30651" y2="94.14432"/>
    <path class="cls-3" d="M226.30651,99.20247,223.056,92.51738a6.91418,6.91418,0,0,0,6.50266,0l-3.25215,6.68509"/>
    <path class="cls-4" d="M232.98991,105.88584a6.66753,6.66753,0,0,0-6.6834-6.68337,6.77442,6.77442,0,1,0,0,13.54763,6.709,6.709,0,0,0,6.6834-6.86426"/>
    <path class="cls-2" d="M232.98991,105.88584a6.66753,6.66753,0,0,0-6.6834-6.68337,6.77442,6.77442,0,1,0,0,13.54763A6.709,6.709,0,0,0,232.98991,105.88584Z"/>
    <line class="cls-2" x1="222.87357" y1="105.88584" x2="229.73942" y2="105.88584"/>
    <line class="cls-2" x1="226.30651" y1="109.31878" x2="226.30651" y2="102.63369"/>
    <line class="cls-2" x1="226.30651" y1="112.7501" x2="226.30651" y2="121.24109"/>
    <path class="cls-3" d="M226.30651,126.29934l-3.25051-6.68347a6.91362,6.91362,0,0,0,6.50266,0l-3.25215,6.68347"/>
    <g>
      <path d="M234.46347,51.23123v1.36285q.76038-1.36284,1.56043-1.36285a.84583.84583,0,0,1,.60167.22188.6804.6804,0,0,1,.23807.51259.6043.6043,0,0,1-.17167.43647.55012.55012,0,0,1-.40975.179.87231.87231,0,0,1-.51906-.22836.8588.8588,0,0,0-.42676-.22836.39141.39141,0,0,0-.2575.132,3.1859,3.1859,0,0,0-.61543.89318v2.90466a1.80119,1.80119,0,0,0,.12551.76038.686.686,0,0,0,.30448.298,1.33657,1.33657,0,0,0,.62838.119v.23808h-3.10143v-.23808a1.28462,1.28462,0,0,0,.6875-.14576.56667.56667,0,0,0,.23159-.33767,3.40456,3.40456,0,0,0,.0332-.64135V53.75854a9.846,9.846,0,0,0-.04292-1.26082.49564.49564,0,0,0-.15871-.294.4494.4494,0,0,0-.28828-.09312,1.30208,1.30208,0,0,0-.46238.0996l-.0664-.23807,1.83171-.741Z"/>
      <path d="M238.233,53.69214a3.11127,3.11127,0,0,0,.65511,2.11675,1.99524,1.99524,0,0,0,1.55395.76766,1.68909,1.68909,0,0,0,1.03489-.32714,2.42191,2.42191,0,0,0,.7369-1.12154l.20487.132a3.15172,3.15172,0,0,1-.80653,1.65113,2.15648,2.15648,0,0,1-1.673.74418,2.44335,2.44335,0,0,1-1.86815-.85026,3.25673,3.25673,0,0,1-.77657-2.286,3.45619,3.45619,0,0,1,.79682-2.42447,2.59791,2.59791,0,0,1,2.00014-.86969,2.23534,2.23534,0,0,1,1.673.6713,2.4622,2.4622,0,0,1,.6543,1.79608Zm0-.38384h2.80425a2.61346,2.61346,0,0,0-.13928-.8203,1.31818,1.31818,0,0,0-.49235-.58222,1.24556,1.24556,0,0,0-.68426-.21136,1.36121,1.36121,0,0,0-.98225.42676A1.84994,1.84994,0,0,0,238.233,53.3083Z"/>
      <path d="M245.49826,48.06259v8.03782a2.1986,2.1986,0,0,0,.0826.7539.58178.58178,0,0,0,.25427.281,1.46286,1.46286,0,0,0,.64134.09636v.23808h-2.96863v-.23808a1.2792,1.2792,0,0,0,.56846-.08583.57522.57522,0,0,0,.23807-.285,2.20776,2.20776,0,0,0,.08584-.76037v-5.504a9.58015,9.58015,0,0,0-.04616-1.26082.549.549,0,0,0-.149-.32067.38926.38926,0,0,0-.26074-.08584,1.21977,1.21977,0,0,0-.43647.10609l-.11256-.2316,1.805-.74094Z"/>
      <path d="M252.50119,51.40938v3.67233a9.416,9.416,0,0,0,.04859,1.28673.59133.59133,0,0,0,.15871.32715.38918.38918,0,0,0,.25589.09312,1.18789,1.18789,0,0,0,.46319-.11255l.0907.23159-1.81066.74742h-.298V56.37168a5.54988,5.54988,0,0,1-1.18875,1.06485,1.827,1.827,0,0,1-.86808.21864,1.38032,1.38032,0,0,1-.881-.29475,1.51128,1.51128,0,0,1-.51988-.75714,4.57468,4.57468,0,0,1-.14576-1.31022V52.58761a1.34255,1.34255,0,0,0-.09231-.596.60557.60557,0,0,0-.27533-.25427,1.59038,1.59038,0,0,0-.65753-.08259v-.24537h2.12322v4.05616a1.52357,1.52357,0,0,0,.29314,1.111,1.03076,1.03076,0,0,0,.7126.2648,1.49187,1.49187,0,0,0,.64458-.179,3.48829,3.48829,0,0,0,.85513-.681V52.54793a.97.97,0,0,0-.18787-.698,1.2224,1.2224,0,0,0-.78386-.19515v-.24537Z"/>
    </g>
    <g>
      <path d="M234.46347,117.35012v1.36366q.76038-1.36528,1.56043-1.36366a.84936.84936,0,0,1,.60167.22188.682.682,0,0,1,.23807.5134.6011.6011,0,0,1-.17167.43566.55389.55389,0,0,1-.40975.17976.87585.87585,0,0,1-.51906-.23.85176.85176,0,0,0-.42676-.22674.38619.38619,0,0,0-.2575.13119,3.17979,3.17979,0,0,0-.61543.89237v2.90547a1.80542,1.80542,0,0,0,.12551.76119.69861.69861,0,0,0,.30448.298,1.3582,1.3582,0,0,0,.62838.11823v.23807h-3.10143v-.23807a1.28471,1.28471,0,0,0,.6875-.14576.56376.56376,0,0,0,.23159-.33849,3.40442,3.40442,0,0,0,.0332-.64134v-2.34834a9.83839,9.83839,0,0,0-.04292-1.26.498.498,0,0,0-.15871-.29476.44893.44893,0,0,0-.28828-.09231,1.33568,1.33568,0,0,0-.46238.09879l-.0664-.23646,1.83171-.74175Z"/>
      <path d="M238.233,119.81184a3.1068,3.1068,0,0,0,.65511,2.11513,1.99527,1.99527,0,0,0,1.55395.76766,1.68388,1.68388,0,0,0,1.03489-.32715,2.4145,2.4145,0,0,0,.7369-1.12072l.20487.1328a3.15517,3.15517,0,0,1-.80653,1.65032,2.15575,2.15575,0,0,1-1.673.74337,2.44172,2.44172,0,0,1-1.86815-.84864,3.25884,3.25884,0,0,1-.77657-2.2868,3.45617,3.45617,0,0,1,.79682-2.42447,2.59792,2.59792,0,0,1,2.00014-.8697,2.23775,2.23775,0,0,1,1.673.6705,2.46482,2.46482,0,0,1,.6543,1.7977Zm0-.38546h2.80425a2.61207,2.61207,0,0,0-.13928-.81949,1.32925,1.32925,0,0,0-.49235-.583,1.258,1.258,0,0,0-.68426-.21054,1.36214,1.36214,0,0,0-.98225.42756A1.84738,1.84738,0,0,0,238.233,119.42638Z"/>
      <path d="M245.49826,114.18228v8.0362a2.20419,2.20419,0,0,0,.0826.75471.59453.59453,0,0,0,.25427.28181,1.47816,1.47816,0,0,0,.64134.09555v.23807h-2.96863v-.23807a1.26724,1.26724,0,0,0,.56846-.08584.5787.5787,0,0,0,.23807-.285,2.21337,2.21337,0,0,0,.08584-.76119v-5.50322a9.55537,9.55537,0,0,0-.04616-1.26.54384.54384,0,0,0-.149-.32067.386.386,0,0,0-.26074-.08746,1.22368,1.22368,0,0,0-.43647.10689l-.11256-.23159,1.805-.74014Z"/>
      <path d="M252.50119,117.52827v3.67314a9.41785,9.41785,0,0,0,.04859,1.28592.59423.59423,0,0,0,.15871.32715.39.39,0,0,0,.25589.09393,1.19041,1.19041,0,0,0,.46319-.11337l.0907.2316-1.81066.74661h-.298v-1.28268a5.584,5.584,0,0,1-1.18875,1.06566,1.82529,1.82529,0,0,1-.86808.217,1.37105,1.37105,0,0,1-.881-.29476,1.4987,1.4987,0,0,1-.51988-.75633,4.58222,4.58222,0,0,1-.14576-1.31021V118.7073a1.33533,1.33533,0,0,0-.09231-.596.6131.6131,0,0,0-.27533-.25589,1.59719,1.59719,0,0,0-.65753-.081v-.24617h2.12322v4.05535a1.51963,1.51963,0,0,0,.29314,1.111,1.024,1.024,0,0,0,.7126.26561,1.50111,1.50111,0,0,0,.64458-.17815,3.5153,3.5153,0,0,0,.85513-.68183v-3.43345a.96863.96863,0,0,0-.18787-.698,1.2182,1.2182,0,0,0-.78386-.19435v-.24617Z"/>
    </g>
    <path class="cls-2" d="M232.98991,11.04092c63.95193,0,74.25071,25.11181,70.637,59.79758-1.80767,16.07838-6.50264,34.14191-65.57715,35.04562"/>
    <path class="cls-3" d="M232.98991,105.88584,239.675,109.138a6.90763,6.90763,0,0,1,0-6.50431l-6.68509,3.25215"/>
    <line class="cls-2" x1="226.30651" y1="11.04092" x2="232.98991" y2="11.04092"/>
    <path class="cls-5" d="M150.664,104.40993l-1.19766,4.01972h1.33208a2.59391,2.59391,0,0,0,1.34422-.27533,3.03673,3.03673,0,0,0,.91748-1.18389h.28423l-1.056,3.69905h-.29961a3.15518,3.15518,0,0,0,.11256-.74175.87021.87021,0,0,0-.30286-.70774,1.86059,1.86059,0,0,0-1.13449-.24941H149.3165l-.88346,3.06094a4.94909,4.94909,0,0,0-.2397,1.0851.49718.49718,0,0,0,.20569.42756,2.29934,2.29934,0,0,0,1.00736.20245l-.08989.27694h-4.01324l.09717-.27694a2.308,2.308,0,0,0,.7782-.10528.951.951,0,0,0,.44213-.34334,5.43553,5.43553,0,0,0,.47939-1.26649l1.7896-6.117a4.44827,4.44827,0,0,0,.217-1.16122.56208.56208,0,0,0-.09717-.332.57775.57775,0,0,0-.28828-.20568,2.72278,2.72278,0,0,0-.76038-.068l.08988-.27694h7.87668l-.749,2.5686h-.28423a4.54243,4.54243,0,0,0,.08259-.76281,1.09386,1.09386,0,0,0-.2737-.78386,1.51851,1.51851,0,0,0-.69964-.40812,7.33772,7.33772,0,0,0-1.34018-.0745Z"/>
    <path class="cls-5" d="M161.46474,117.02621v.27694a7.18169,7.18169,0,0,1-1.88678-1.33288,7.51809,7.51809,0,0,1-1.66246-2.56051,8.23839,8.23839,0,0,1-.58385-3.06257,8.08361,8.08361,0,0,1,1.145-4.2335,6.59266,6.59266,0,0,1,2.98807-2.737v.3142a4.2987,4.2987,0,0,0-1.51266,1.39281,6.43084,6.43084,0,0,0-.88347,2.23822,13.37184,13.37184,0,0,0-.29232,2.831,15.78359,15.78359,0,0,0,.247,2.912,7.72949,7.72949,0,0,0,.4721,1.65841,5.28214,5.28214,0,0,0,.745,1.20171A5.83,5.83,0,0,0,161.46474,117.02621Z"/>
    <path class="cls-5" d="M162.85269,107.1664h3.227v.27532a.67706.67706,0,0,0-.4308.10527.34577.34577,0,0,0-.12308.27695,1.17053,1.17053,0,0,0,.26155.55388c.05507.081.13766.20406.247.37574l.48668.77738.562-.77738a2.68311,2.68311,0,0,0,.5385-.9361.3334.3334,0,0,0-.12713-.26561.61744.61744,0,0,0-.41137-.11013v-.27532h2.32081v.27532a1.27659,1.27659,0,0,0-.63648.20245,5.31049,5.31049,0,0,0-1.00331,1.10939l-.9361,1.25029,1.707,2.45523a5.07008,5.07008,0,0,0,.89885,1.08834,1.34876,1.34876,0,0,0,.6964.2073v.26885h-3.23424v-.26885a.81537.81537,0,0,0,.52393-.15062.32691.32691,0,0,0,.14171-.27694,2.61466,2.61466,0,0,0-.47858-.86808l-1.00331-1.46731-1.10048,1.46731a2.84449,2.84449,0,0,0-.50935.80816.42481.42481,0,0,0,.16843.32553.81187.81187,0,0,0,.5053.162v.26885h-2.239v-.26885a1.01992,1.01992,0,0,0,.47209-.18786,6.93751,6.93751,0,0,0,.958-1.10778l1.43816-1.90944-1.30293-1.88678a4.20165,4.20165,0,0,0-.85755-1.01384,1.30765,1.30765,0,0,0-.75957-.2073Z"/>
    <path class="cls-5" d="M172.28656,103.69085v-.3142a6.99975,6.99975,0,0,1,1.89487,1.3248,7.66736,7.66736,0,0,1,1.65437,2.56536,8.23056,8.23056,0,0,1,.58385,3.06581,8.10361,8.10361,0,0,1-1.14178,4.2335,6.57261,6.57261,0,0,1-2.99131,2.737v-.27694a4.41823,4.41823,0,0,0,1.51671-1.39605,6.32814,6.32814,0,0,0,.88346-2.23822,13.66477,13.66477,0,0,0,.28828-2.83421,15.88972,15.88972,0,0,0-.247-2.91356,7.29968,7.29968,0,0,0-.468-1.65356,5.54749,5.54749,0,0,0-.745-1.19847A5.7,5.7,0,0,0,172.28656,103.69085Z"/>
    <path class="cls-5" d="M185.37737,112.96762v-3.7363h-3.729v-.61381h3.729v-3.72172h.59843v3.72172h3.74358v.61381H185.9758v3.7363Z"/>
    <path class="cls-5" d="M196.96606,107.1664H200.193v.27532a.677.677,0,0,0-.4308.10527.34578.34578,0,0,0-.12309.27695,1.17058,1.17058,0,0,0,.26156.55388c.05506.081.13766.20406.247.37574l.48667.77738.562-.77738a2.68311,2.68311,0,0,0,.5385-.9361.33338.33338,0,0,0-.12714-.26561.61741.61741,0,0,0-.41136-.11013v-.27532h2.32081v.27532a1.27659,1.27659,0,0,0-.63648.20245,5.31049,5.31049,0,0,0-1.00331,1.10939l-.9361,1.25029,1.707,2.45523a5.07039,5.07039,0,0,0,.89885,1.08834,1.3488,1.3488,0,0,0,.69641.2073v.26885h-3.23424v-.26885a.81532.81532,0,0,0,.52392-.15062.32689.32689,0,0,0,.14171-.27694,2.61454,2.61454,0,0,0-.47857-.86808l-1.00331-1.46731-1.10049,1.46731a2.84475,2.84475,0,0,0-.50935.80816.42482.42482,0,0,0,.16844.32553.81187.81187,0,0,0,.5053.162v.26885h-2.239v-.26885a1.02,1.02,0,0,0,.4721-.18786,6.9371,6.9371,0,0,0,.958-1.10778l1.43816-1.90944-1.30293-1.88678a4.20119,4.20119,0,0,0-.85755-1.01384,1.30762,1.30762,0,0,0-.75956-.2073Z"/>
    <path class="cls-5" d="M205.58205,4.9672h3.227v.277a.67758.67758,0,0,0-.4308.10446.34576.34576,0,0,0-.12309.27694,1.17056,1.17056,0,0,0,.26156.55389q.08259.12024.247.37492l.48667.77819.562-.77819a2.66861,2.66861,0,0,0,.5385-.9361.33563.33563,0,0,0-.12714-.2656.6271.6271,0,0,0-.41136-.10851v-.277h2.32081v.277a1.26011,1.26011,0,0,0-.63648.20163,5.32209,5.32209,0,0,0-1.00331,1.10858l-.9361,1.25029,1.707,2.45605a5.083,5.083,0,0,0,.89885,1.08915,1.34116,1.34116,0,0,0,.69641.20568v.26965h-3.23424v-.26965a.8153.8153,0,0,0,.52392-.14981.3269.3269,0,0,0,.14171-.27694,2.62249,2.62249,0,0,0-.47857-.86808L208.809,8.79258l-1.10049,1.46812a2.86864,2.86864,0,0,0-.50935.80815.42482.42482,0,0,0,.16844.32553.80689.80689,0,0,0,.5053.16115v.26965h-2.239v-.26965a1.01912,1.01912,0,0,0,.4721-.18706,6.86,6.86,0,0,0,.958-1.10777l1.43816-1.90945-1.30293-1.88677a4.24453,4.24453,0,0,0-.85755-1.01465,1.31932,1.31932,0,0,0-.75957-.20568Z"/>
    <path class="cls-5" d="M136.33015,49.65946,135.13249,53.68h1.33208a2.59221,2.59221,0,0,0,1.34423-.27694,3.03277,3.03277,0,0,0,.91747-1.18308h.28423L137.95456,55.919h-.29962a3.16115,3.16115,0,0,0,.11256-.74176.86637.86637,0,0,0-.30286-.70693,1.85309,1.85309,0,0,0-1.13449-.251h-1.34746l-.88347,3.06257a4.92092,4.92092,0,0,0-.23969,1.0851.49476.49476,0,0,0,.20568.42675,2.31153,2.31153,0,0,0,1.00736.20244l-.08988.27694h-4.01325l.09718-.27694a2.3082,2.3082,0,0,0,.77819-.10527.94735.94735,0,0,0,.44214-.34415,5.41453,5.41453,0,0,0,.47938-1.26487l1.7896-6.11785a4.45481,4.45481,0,0,0,.217-1.1604.56459.56459,0,0,0-.09717-.33282.57278.57278,0,0,0-.28828-.20568,2.72256,2.72256,0,0,0-.76038-.068l.08989-.27694h7.87667l-.749,2.56861h-.28423a4.53322,4.53322,0,0,0,.0826-.76362,1.09312,1.09312,0,0,0-.27371-.783,1.5047,1.5047,0,0,0-.69964-.40813,7.26072,7.26072,0,0,0-1.34018-.0745Z"/>
    <path class="cls-5" d="M147.13092,62.27575v.27694a7.14435,7.14435,0,0,1-1.88677-1.33289,7.51812,7.51812,0,0,1-1.66247-2.56051,8.24164,8.24164,0,0,1-.58385-3.06256,8.0886,8.0886,0,0,1,1.145-4.23431,6.59961,6.59961,0,0,1,2.98807-2.73623v.31419a4.30637,4.30637,0,0,0-1.51266,1.39281,6.4353,6.4353,0,0,0-.88346,2.239,13.36365,13.36365,0,0,0-.29233,2.83016,15.79073,15.79073,0,0,0,.247,2.91195,7.76662,7.76662,0,0,0,.4721,1.65923,5.33587,5.33587,0,0,0,.745,1.2017A5.87263,5.87263,0,0,0,147.13092,62.27575Z"/>
    <path class="cls-5" d="M148.51887,52.41512h3.227v.27695a.67762.67762,0,0,0-.4308.10446.34578.34578,0,0,0-.12308.27694,1.17056,1.17056,0,0,0,.26156.55389q.08259.12024.247.37492l.48667.77819.562-.77819a2.66861,2.66861,0,0,0,.5385-.9361.33563.33563,0,0,0-.12714-.2656.62711.62711,0,0,0-.41136-.10851v-.27695H155.07v.27695a1.26011,1.26011,0,0,0-.63648.20163,5.32181,5.32181,0,0,0-1.00331,1.10858l-.9361,1.25029,1.707,2.45605a5.083,5.083,0,0,0,.89885,1.08915,1.34116,1.34116,0,0,0,.69641.20568v.26965h-3.23424v-.26965a.81532.81532,0,0,0,.52392-.14981.3269.3269,0,0,0,.14171-.27694,2.62249,2.62249,0,0,0-.47857-.86808l-1.00332-1.46812-1.10048,1.46812a2.86864,2.86864,0,0,0-.50935.80815.42482.42482,0,0,0,.16844.32553.80689.80689,0,0,0,.5053.16115v.26965h-2.239v-.26965a1.01912,1.01912,0,0,0,.4721-.18706,6.86,6.86,0,0,0,.958-1.10777l1.43816-1.90945L150.136,53.9124a4.24453,4.24453,0,0,0-.85755-1.01465,1.31932,1.31932,0,0,0-.75957-.20568Z"/>
    <path class="cls-5" d="M157.95113,48.94038v-.31419a6.98368,6.98368,0,0,1,1.89487,1.3256,7.66879,7.66879,0,0,1,1.65437,2.56375,8.23775,8.23775,0,0,1,.58384,3.06661,8.10358,8.10358,0,0,1-1.14178,4.2335,6.56825,6.56825,0,0,1-2.9913,2.737v-.27694a4.413,4.413,0,0,0,1.5167-1.39686,6.31589,6.31589,0,0,0,.88347-2.23822,13.64852,13.64852,0,0,0,.28828-2.83421,15.88159,15.88159,0,0,0-.247-2.91276,7.30925,7.30925,0,0,0-.468-1.65437,5.54278,5.54278,0,0,0-.745-1.19766A5.72139,5.72139,0,0,0,157.95113,48.94038Z"/>
    <path class="cls-5" d="M325.62706,60.36711h3.22776v.27694a.67606.67606,0,0,0-.4308.10446.34577.34577,0,0,0-.12309.27694,1.16677,1.16677,0,0,0,.26075.55389c.05506.08017.13928.20487.24779.37493l.48749.77819.56036-.77819a2.67738,2.67738,0,0,0,.53931-.9361.334.334,0,0,0-.12795-.26561.62263.62263,0,0,0-.41136-.10851v-.27694h2.32243v.27694a1.26625,1.26625,0,0,0-.6381.20163,5.371,5.371,0,0,0-1.0025,1.10859l-.9361,1.25029,1.707,2.456a5.07039,5.07039,0,0,0,.89885,1.08834,1.34639,1.34639,0,0,0,.69641.2073v.26885h-3.23424v-.26885a.80835.80835,0,0,0,.52312-.15062.32569.32569,0,0,0,.14252-.27694,2.59082,2.59082,0,0,0-.47939-.86808l-1.0025-1.46812-1.09967,1.46812a2.85818,2.85818,0,0,0-.51016.80816.42739.42739,0,0,0,.16843.32553.80834.80834,0,0,0,.5053.16195v.26885h-2.23984v-.26885a1.01944,1.01944,0,0,0,.47291-.18787,7.01348,7.01348,0,0,0,.95877-1.10777l1.43816-1.90944L327.245,61.86438a4.28634,4.28634,0,0,0-.85674-1.01465,1.32834,1.32834,0,0,0-.76119-.20568Z"/>
  </g>
</svg>
