<svg id="图层_1" data-name="图层 1" xmlns="http://www.w3.org/2000/svg" xmlns:xlink="http://www.w3.org/1999/xlink" viewBox="0 0 529.89022 149.82382">
  <defs>
    <style>
      .cls-1, .cls-10, .cls-11, .cls-12, .cls-13, .cls-14 {
        fill: none;
      }

      .cls-2 {
        fill: #e6e6e6;
      }

      .cls-3 {
        opacity: 0.6;
        isolation: isolate;
      }

      .cls-4 {
        clip-path: url(#clip-path);
      }

      .cls-5 {
        fill: #999;
      }

      .cls-6 {
        clip-path: url(#clip-path-2);
      }

      .cls-7 {
        fill: #b3b3b3;
      }

      .cls-8 {
        clip-path: url(#clip-path-3);
      }

      .cls-9 {
        fill: gray;
      }

      .cls-10, .cls-11, .cls-12, .cls-13, .cls-14 {
        stroke: #000;
      }

      .cls-10, .cls-12, .cls-14 {
        stroke-miterlimit: 10;
      }

      .cls-10 {
        stroke-width: 0.26965px;
      }

      .cls-11 {
        stroke-width: 0.16179px;
      }

      .cls-12, .cls-13 {
        stroke-width: 0.4042px;
      }

      .cls-13 {
        stroke-linecap: round;
        stroke-linejoin: round;
      }

      .cls-14 {
        stroke-width: 2.17895px;
      }
    </style>
    <clipPath id="clip-path" transform="translate(-15.05549 -5.03317)">
      <rect id="SVGID" class="cls-1" x="14.85397" y="78.38559" width="266.03391" height="76.8151"/>
    </clipPath>
    <clipPath id="clip-path-2" transform="translate(-15.05549 -5.03317)">
      <rect id="SVGID-2" data-name="SVGID" class="cls-1" x="279.83078" y="4.74176" width="265.32919" height="76.46271"/>
    </clipPath>
    <clipPath id="clip-path-3" transform="translate(-15.05549 -5.03317)">
      <rect id="SVGID-3" data-name="SVGID" class="cls-1" x="279.83078" y="78.38559" width="265.32919" height="76.8151"/>
    </clipPath>
  </defs>
  <title>[OPTSx0922]_Reconstruction_Process_of_a_Signal</title>
  <rect class="cls-2" width="264.94511" height="75.85434"/>
  <g class="cls-3">
    <g class="cls-4">
      <rect class="cls-5" y="73.96956" width="264.94511" height="75.85425"/>
    </g>
  </g>
  <g class="cls-3">
    <g class="cls-6">
      <rect class="cls-7" x="264.94511" width="264.94512" height="75.8543"/>
    </g>
  </g>
  <g class="cls-3">
    <g class="cls-8">
      <rect class="cls-9" x="264.94511" y="73.96956" width="264.94512" height="75.85425"/>
    </g>
  </g>
  <line class="cls-10" x1="62.01652" y1="64.00922" x2="62.01652" y2="11.61943"/>
  <polyline points="63.153 12.404 62.002 8.116 60.852 12.404 63.153 12.404"/>
  <line class="cls-10" x1="78.2347" y1="63.58886" x2="78.2347" y2="57.98354"/>
  <line class="cls-10" x1="45.82315" y1="63.58886" x2="45.82315" y2="57.98435"/>
  <line class="cls-10" x1="7.48799" y1="60.80457" x2="116.45622" y2="60.80457"/>
  <polyline points="115.671 61.94 119.965 60.791 115.671 59.642 115.671 61.94"/>
  <path d="M141.81438,67.78866a.64879.64879,0,0,1-.66341-.57369,1.02856,1.02856,0,0,1-.90959.57369c-.75232,0-1.10111-.63516-.95065-1.35223a2.03326,2.03326,0,0,1,1.51831-1.6456c.04788,0,.0889.02043.08206.05457a2.28636,2.28636,0,0,0-.9164,1.48189c-.08891.4097-.1505,1.17452.383,1.17452a.60666.60666,0,0,0,.62922-.519c.06839-.31409-.041-.64188.04787-1.03115a.45266.45266,0,0,1,.47189-.41651c.27356,0,.36248.157.30777.41651-.08892.38927-.33512.71706-.40352,1.03115a.40607.40607,0,0,0,.41035.519c.53347,0,.8002-.76482.88912-1.17452a1.39743,1.39743,0,0,0-.28725-1.48189c.00683-.03414.06154-.05457.10941-.05457.301,0,1.0601.47117.807,1.6456a1.65525,1.65525,0,0,1-1.5252,1.35223Z" transform="translate(-15.05549 -5.03317)"/>
  <line class="cls-11" x1="75.75269" y1="71.34707" x2="80.9816" y2="71.34707"/>
  <path d="M95.22338,72.81831h-.89163c-.13166.63933-.018,1.23089-.11967,1.70292-.05386.25691-.15561.45414-.41891.45414s-.25734-.263-.21544-.46611c.06584-.31068.40694-.93813.56253-1.691H93.12891c-.23339,1.11731-.1975,1.38623-.27528,1.74472a.47028.47028,0,0,1-.41891.41234c-.22142,0-.27528-.16735-.22741-.38841.08977-.43022.63433-1.31455.73008-1.76865h-.47872a.81286.81286,0,0,0-.784.62737h-.16757c.17954-.6573.59246-1.12932,1.143-1.12932h2.68094Z" transform="translate(-15.05549 -5.03317)"/>
  <path d="M94.281,78.24849l-.17822.89511h-.10784a.90034.90034,0,0,0-.1665-.56853.45492.45492,0,0,0-.37672-.178.39053.39053,0,0,0-.28765.09956.30041.30041,0,0,0-.10671.23881.41153.41153,0,0,0,.04223.18379,1.203,1.203,0,0,0,.18563.245,3.54094,3.54094,0,0,1,.49046.624.83645.83645,0,0,1,.111.39648.686.686,0,0,1-.25248.53811.86885.86885,0,0,1-.63821.23452,1.43619,1.43619,0,0,1-.48459-.09911.472.472,0,0,0-.14886-.03473.19587.19587,0,0,0-.19851.13384h-.10825l.17821-.94472h.10787a.96518.96518,0,0,0,.18408.62709.55826.55826,0,0,0,.45567.18379.47.47,0,0,0,.35174-.12411.38754.38754,0,0,0,.13014-.30472.49333.49333,0,0,0-.04689-.21578,2.46,2.46,0,0,0-.34314-.4839,2.5795,2.5795,0,0,1-.3357-.46351.69834.69834,0,0,1-.07465-.30906.60782.60782,0,0,1,.206-.47843.711.711,0,0,1,.52994-.19549.89288.89288,0,0,1,.16958.01483,1.88772,1.88772,0,0,1,.19112.06555.74329.74329,0,0,0,.2001.057.22916.22916,0,0,0,.21027-.13733Z" transform="translate(-15.05549 -5.03317)"/>
  <line class="cls-11" x1="42.7729" y1="71.60842" x2="48.0018" y2="71.60842"/>
  <path d="M62.243,72.81831h-.89166c-.13167.63933-.018,1.23089-.11968,1.70292-.05388.25691-.1556.45414-.41891.45414s-.25733-.263-.21545-.46611c.06585-.31068.40695-.93813.56253-1.691H60.14851c-.23339,1.11731-.19748,1.38623-.27528,1.74472a.47028.47028,0,0,1-.4189.41234c-.22141,0-.27528-.16735-.2274-.38841.08977-.43022.63433-1.31455.73009-1.76865h-.47874a.81284.81284,0,0,0-.78395.62737h-.16756c.17954-.6573.59245-1.12932,1.143-1.12932h2.681Z" transform="translate(-15.05549 -5.03317)"/>
  <path d="M61.3007,78.24849l-.17821.89511h-.10787a.90032.90032,0,0,0-.16648-.56853.45493.45493,0,0,0-.37673-.178.39052.39052,0,0,0-.28764.09956.30039.30039,0,0,0-.10669.23881.411.411,0,0,0,.04221.18379,1.203,1.203,0,0,0,.18562.245,3.541,3.541,0,0,1,.49049.624.83676.83676,0,0,1,.111.39648.68587.68587,0,0,1-.25247.53811.86887.86887,0,0,1-.63819.23452,1.4359,1.4359,0,0,1-.4846-.09911.47238.47238,0,0,0-.14889-.03473.19582.19582,0,0,0-.19852.13384h-.10832l.17821-.94472h.10786a.96512.96512,0,0,0,.18408.62709.55829.55829,0,0,0,.4557.18379.46992.46992,0,0,0,.35172-.12411.38747.38747,0,0,0,.13013-.30472.49334.49334,0,0,0-.0469-.21578,2.45868,2.45868,0,0,0-.34313-.4839,2.57955,2.57955,0,0,1-.33571-.46351.69821.69821,0,0,1-.07465-.30906.60774.60774,0,0,1,.206-.47843.711.711,0,0,1,.52994-.19549.89341.89341,0,0,1,.16961.01483,1.89162,1.89162,0,0,1,.1911.06555.74309.74309,0,0,0,.2001.057.22923.22923,0,0,0,.21026-.13733Z" transform="translate(-15.05549 -5.03317)"/>
  <path d="M53.53486,78.682h-2.253v-.12335a13.25964,13.25964,0,0,0,2.27651-2.36276,1.47685,1.47685,0,0,0,.25676-.83311.74493.74493,0,0,0-.21338-.56495.71276.71276,0,0,0-.55417-.2182.85005.85005,0,0,0-.7742.44994l-.11685-.05346a1.44167,1.44167,0,0,1,.49711-.66809,1.149,1.149,0,0,1,.70776-.23841,1.00549,1.00549,0,0,1,1.0181,1.00991,1.39648,1.39648,0,0,1-.10357.54318,3.19689,3.19689,0,0,1-.59092.87325,20.32387,20.32387,0,0,1-1.74536,1.703h1.13449a.80382.80382,0,0,0,.45062-.11358.618.618,0,0,0,.25364-.3032H53.912Z" transform="translate(-15.05549 -5.03317)"/>
  <line class="cls-10" x1="143.7781" y1="60.80457" x2="253.96047" y2="60.80457"/>
  <polyline points="253.176 61.94 257.471 60.791 253.176 59.642 253.176 61.94"/>
  <path class="cls-10" d="M242.44408,65.8761" transform="translate(-15.05549 -5.03317)"/>
  <line class="cls-10" x1="199.81692" y1="72.90065" x2="199.81692" y2="10.98177"/>
  <polyline points="200.952 11.766 199.802 7.479 198.651 11.766 200.952 11.766"/>
  <path d="M276.1814,64.12036l-.24155.84091h.48618l-.05237.19472h-.483l-.53229,1.82429a1.81594,1.81594,0,0,0-.08674.38.11328.11328,0,0,0,.02424.08038.07407.07407,0,0,0,.05941.02769.35188.35188,0,0,0,.204-.10807,3.60157,3.60157,0,0,0,.33138-.38l.10243.07724a2.1797,2.1797,0,0,1-.53852.58417.60672.60672,0,0,1-.3502.11748.2937.2937,0,0,1-.22277-.085.27961.27961,0,0,1-.08674-.21775,2.03838,2.03838,0,0,1,.09924-.51042l.51661-1.78988h-.46741l.03127-.12062a1.48622,1.48622,0,0,0,.56589-.27671,2.55273,2.55273,0,0,0,.50491-.63839Z" transform="translate(-15.05549 -5.03317)"/>
  <path class="cls-12" d="M47.65471,65.69a19.2929,19.2929,0,0,0,5.28494-.21014c1.92413-.41,3.18793-1.97,4.635-3.27419a42.16992,42.16992,0,0,0,7.66047-9.16805c1.02129-1.623,2.00976-3.26773,2.995-4.91316.81878-1.71022,1.53354-3.4716,2.3019-5.20422a20.06188,20.06188,0,0,1,2.61245-4.96836c1.22859-1.43843,2.4764-2.65238,4.47254-2.53571" transform="translate(-15.05549 -5.03317)"/>
  <path class="cls-12" d="M107.826,65.78586c-2.0898-.01685-1.86331.11425-5.27452-.08629-1.95454-.11435-3.49929-2.19931-4.94078-3.494a41.03617,41.03617,0,0,1-7.51239-8.92816c-1.0397-1.64785-2.04338-3.3189-3.03345-4.99713A49.68453,49.68453,0,0,1,84.7605,43.1688c-1.32063-2.97372-3.13993-8.00759-7.14343-7.75346" transform="translate(-15.05549 -5.03317)"/>
  <path class="cls-12" d="M201.59567,75.05772c6.94974.40115,9.98879-.07034,12.15065-1.88123,3.70817-3.08959,4.24762-11.3481,5.13365-14.83081.74112-2.87139,1.34223-9.83206,2.15782-12.67791.23854-.79117.58112-3.2318,1.3671-3.24543,1.12851-.02957,1.86488,3.41166,2.15459,4.58a43.22724,43.22724,0,0,1,.27452,5.12581c.4106,5.0603,1.05812,22.12079,2.43,22.1104,2.0282.02079,1.42068-32.59214,3.79626-32.63453,2.37714-.0328,2.3115,32.93822,4.8615,32.90784,2.5004-.008,1.89773-32.62816,4.31246-32.63533,2.1955-.00314.40742,22.7633,4.04117,29.6936a7.29458,7.29458,0,0,0,2.975,2.66842,4.43335,4.43335,0,0,0,2.70368,0c1.28385-.48667,3.05989-2.50936,3.797-3.48836,1.30384-1.77733,2.87417-6.55626,4.04117-8.37033.26811-.40764.56024-1.52007,1.36625-1.608,2.161-.26847,3.87386,1.31943,6.35741,5.022" transform="translate(-15.05549 -5.03317)"/>
  <path class="cls-12" d="M182.94513,52.40146c-.06241,4.40426.27533,5.95542,1.36705,6.21753,1.79369.39716,3.65938-4.86854,4.86074-6.21753,1.21337-1.37373,3.12311-6.07918,5.67871-5.67163,3.63536.59537,4.3669,7.65041,5.1345,10.25162.918,3.19748,1.39107,7.85176,1.8825,18.6229" transform="translate(-15.05549 -5.03317)"/>
  <path class="cls-12" d="M169.18172,65.72591c4.04273-.14624,5.59066-.19024,6.80807-1.04127,2.27471-1.62312,4.08677-4.91093,6.8673-12.00422" transform="translate(-15.05549 -5.03317)"/>
  <path d="M221.266,13.46176l-.0563.20413H220.758l-.34081,1.351a8.0739,8.0739,0,0,1-.45489,1.38215,2.35013,2.35013,0,0,1-.69952.952.96163.96163,0,0,1-.56983.201.45383.45383,0,0,1-.31575-.11121.23392.23392,0,0,1-.09615-.20091.2143.2143,0,0,1,.07895-.17169.26487.26487,0,0,1,.19306-.07258.19542.19542,0,0,1,.14145.05224.152.152,0,0,1,.05706.12052.16345.16345,0,0,1-.06485.12689c-.03282.02886-.05.05072-.05.06524a.04879.04879,0,0,0,.02187.04319.14107.14107,0,0,0,.08676.02151.56036.56036,0,0,0,.28062-.08352.79187.79187,0,0,0,.26108-.24894,1.89051,1.89051,0,0,0,.21726-.47762c.02816-.08665.10632-.37188.23213-.85614l.53854-2.09312h-.53856l.043-.20413a1.227,1.227,0,0,0,.35954-.03549.424.424,0,0,0,.18682-.13621,2.001,2.001,0,0,0,.22118-.37529,3.07885,3.07885,0,0,1,.35017-.57521,1.684,1.684,0,0,1,.48148-.41247.98418.98418,0,0,1,.47525-.13782.5521.5521,0,0,1,.37751.11909.32138.32138,0,0,1,.143.25835.24613.24613,0,0,1-.07113.18217.23213.23213,0,0,1-.18289.07411.21268.21268,0,0,1-.15633-.05538.16581.16581,0,0,1-.0602-.13307.26382.26382,0,0,1,.03986-.12214.27659.27659,0,0,0,.04066-.09749.07294.07294,0,0,0-.02814-.06479.18546.18546,0,0,0-.118-.03083.5298.5298,0,0,0-.34941.12375,1.3804,1.3804,0,0,0-.372.51311q-.08324.18253-.3064.90561Z" transform="translate(-15.05549 -5.03317)"/>
  <path d="M223.52726,17.49l-.10554.04955a7.12805,7.12805,0,0,1-.52915-1.23967,2.95756,2.95756,0,0,1-.12351-.84718,3.40168,3.40168,0,0,1,.46116-1.78378,6.37624,6.37624,0,0,1,1.83605-1.87967l.07424.10816a3.99915,3.99915,0,0,0-.93483.94942,5.73728,5.73728,0,0,0-.74021,1.5827,5.69813,5.69813,0,0,0-.28841,1.68808A3.46426,3.46426,0,0,0,223.52726,17.49Z" transform="translate(-15.05549 -5.03317)"/>
  <path d="M226.252,12.62085l-.24153.84091h.48619l-.05236.19481h-.483l-.53226,1.82429a1.80762,1.80762,0,0,0-.08676.38.11353.11353,0,0,0,.02421.08047.07469.07469,0,0,0,.05941.02769.35237.35237,0,0,0,.204-.10816,3.60039,3.60039,0,0,0,.33143-.38l.1024.07724a2.1779,2.1779,0,0,1-.53856.58409.606.606,0,0,1-.35017.11756.294.294,0,0,1-.22275-.08513.27948.27948,0,0,1-.08677-.21775,2.03916,2.03916,0,0,1,.09924-.51042l.51668-1.78988h-.46746l.03128-.12053a1.48865,1.48865,0,0,0,.56584-.27662,2.55747,2.55747,0,0,0,.50494-.63839Z" transform="translate(-15.05549 -5.03317)"/>
  <path d="M227.51275,11.84823l.10552-.059a6.90319,6.90319,0,0,1,.52682,1.23662,2.90761,2.90761,0,0,1,.12662.84718,3.396,3.396,0,0,1-.46116,1.7837,6.412,6.412,0,0,1-1.836,1.8828l-.07424-.096a4.07935,4.07935,0,0,0,.93486-.949,5.785,5.785,0,0,0,.74018-1.58431,5.74049,5.74049,0,0,0,.28765-1.68961A3.44982,3.44982,0,0,0,227.51275,11.84823Z" transform="translate(-15.05549 -5.03317)"/>
  <path d="M83.11154,14.0815l-.0559.2036h-.45177l-.34039,1.351a8.03352,8.03352,0,0,1-.45531,1.38179,2.34249,2.34249,0,0,1-.69952.95166.96045.96045,0,0,1-.56941.201.45423.45423,0,0,1-.31578-.11121.23337.23337,0,0,1-.09613-.2009.21694.21694,0,0,1,.07892-.1717.2655.2655,0,0,1,.19345-.07258.19388.19388,0,0,1,.14109.05269.15353.15353,0,0,1,.05708.12052.16316.16316,0,0,1-.0649.1268c-.03322.02886-.0496.05036-.0496.06479a.04742.04742,0,0,0,.02187.04328.13608.13608,0,0,0,.08636.02151.55881.55881,0,0,0,.28023-.08352.79741.79741,0,0,0,.26184-.24858,1.8889,1.8889,0,0,0,.21648-.47762q.04346-.12984.23214-.85614l.53851-2.09276h-.53851l.04337-.2036a1.24291,1.24291,0,0,0,.35916-.03548.428.428,0,0,0,.18719-.13621,2.03977,2.03977,0,0,0,.22121-.37538,3.056,3.056,0,0,1,.34975-.57521,1.6784,1.6784,0,0,1,.48147-.41239.98245.98245,0,0,1,.47525-.13782.55357.55357,0,0,1,.37751.119.32288.32288,0,0,1,.14266.25834.24418.24418,0,0,1-.07115.18218.23252.23252,0,0,1-.18287.0742.214.214,0,0,1-.15635-.05547.1671.1671,0,0,1-.06017-.13307.26066.26066,0,0,1,.04023-.122.27557.27557,0,0,0,.04028-.09723.07326.07326,0,0,0-.02814-.06515A.18687.18687,0,0,0,83.684,12.539a.53106.53106,0,0,0-.34977.12366,1.3853,1.3853,0,0,0-.37128.51311q-.0838.182-.30637.90578Z" transform="translate(-15.05549 -5.03317)"/>
  <path d="M85.37239,18.109l-.10552.0491a7.11482,7.11482,0,0,1-.52917-1.23931,2.97256,2.97256,0,0,1-.12389-.84682,3.4034,3.4034,0,0,1,.46118-1.78361A6.38022,6.38022,0,0,1,86.91064,12.409l.07422.10843a4.00516,4.00516,0,0,0-.93484.94862,5.77417,5.77417,0,0,0-.7398,1.5827,5.71044,5.71044,0,0,0-.28765,1.68772A3.45817,3.45817,0,0,0,85.37239,18.109Z" transform="translate(-15.05549 -5.03317)"/>
  <path d="M88.99184,16.82959A.60121.60121,0,0,1,88.377,16.298a.95322.95322,0,0,1-.843.53157c-.69721,0-1.02048-.58856-.881-1.253a1.8845,1.8845,0,0,1,1.40713-1.52517c.04436,0,.08242.01891.076.05054a2.11926,2.11926,0,0,0-.84935,1.37337c-.08242.37977-.13946,1.08859.35494,1.08859a.56221.56221,0,0,0,.58314-.481c.06338-.29114-.038-.59483.04438-.95569a.41954.41954,0,0,1,.43735-.38595c.25355,0,.33593.14552.28523.38595-.0824.36086-.31057.66455-.374.95569a.37637.37637,0,0,0,.38031.481c.49438,0,.74159-.70882.824-1.08859a1.2949,1.2949,0,0,0-.26621-1.37337c.00634-.03163.057-.05054.10142-.05054.27889,0,.98246.43659.74793,1.52517a1.53388,1.53388,0,0,1-1.41343,1.253Z" transform="translate(-15.05549 -5.03317)"/>
  <path d="M91.60117,12.468l.10549-.059a6.8597,6.8597,0,0,1,.526,1.23663,2.89306,2.89306,0,0,1,.127.84673,3.39321,3.39321,0,0,1-.46116,1.78369,6.41927,6.41927,0,0,1-1.83565,1.882l-.07424-.09552a4.09018,4.09018,0,0,0,.93484-.94907,5.76052,5.76052,0,0,0,.7398-1.58386,5.72926,5.72926,0,0,0,.288-1.68934A3.45749,3.45749,0,0,0,91.60117,12.468Z" transform="translate(-15.05549 -5.03317)"/>
  <polygon points="68.377 4.949 69.364 6.609 69.151 6.609 68.338 5.25 67.525 6.609 67.307 6.609 68.308 4.949 68.377 4.949"/>
  <line class="cls-10" x1="77.56719" y1="136.60268" x2="77.56719" y2="130.99741"/>
  <line class="cls-10" x1="27.05097" y1="136.60268" x2="27.05097" y2="130.99741"/>
  <line class="cls-10" x1="10.86081" y1="136.60268" x2="10.86081" y2="130.99741"/>
  <line class="cls-10" x1="94.06067" y1="136.60268" x2="94.06067" y2="130.99741"/>
  <line class="cls-10" x1="110.12996" y1="136.60268" x2="110.12996" y2="130.99741"/>
  <line class="cls-10" x1="7.48879" y1="133.81763" x2="116.882" y2="133.81763"/>
  <polyline points="116.097 134.953 120.39 133.804 116.097 132.655 116.097 134.953"/>
  <line class="cls-10" x1="61.64995" y1="134.63757" x2="61.64995" y2="83.72066"/>
  <polyline points="62.786 84.504 61.636 80.217 60.485 84.504 62.786 84.504"/>
  <line class="cls-10" x1="45.42937" y1="136.60268" x2="45.42937" y2="130.99741"/>
  <path d="M141.81438,140.80212a.64862.64862,0,0,1-.66341-.57364,1.02842,1.02842,0,0,1-.90959.57364c-.75232,0-1.10111-.63507-.95065-1.35209a2.0335,2.0335,0,0,1,1.51831-1.64574c.04788,0,.0889.02052.08206.05462a2.28669,2.28669,0,0,0-.9164,1.48184c-.08891.40975-.1505,1.17457.383,1.17457a.60663.60663,0,0,0,.62922-.519c.06839-.31413-.041-.64192.04787-1.03115a.4527.4527,0,0,1,.47189-.41655c.27356,0,.36248.157.30777.41655-.08892.38923-.33512.717-.40352,1.03115a.40607.40607,0,0,0,.41035.519c.53347,0,.8002-.76478.88912-1.17457a1.3974,1.3974,0,0,0-.28725-1.48184c.00683-.0341.06154-.05462.10941-.05462.301,0,1.0601.47122.807,1.64574a1.65517,1.65517,0,0,1-1.5252,1.35209Z" transform="translate(-15.05549 -5.03317)"/>
  <line class="cls-11" x1="74.95231" y1="143.20617" x2="80.18122" y2="143.20617"/>
  <path d="M94.27611,144.33949h-.82617c-.122.59237-.01664,1.14052-.11091,1.57782-.04989.2381-.14416.42077-.38813.42077s-.23838-.24361-.19961-.43184c.061-.28787.377-.86913.52122-1.56675h-.937c-.21623,1.03532-.183,1.28444-.25506,1.61658a.43571.43571,0,0,1-.38812.382c-.20514,0-.255-.155-.2107-.35988.08316-.39859.58773-1.21789.67645-1.63871h-.44357a.68367.68367,0,0,0-.72634.58135h-.15527c.16631-.609.5489-1.04633,1.059-1.04633h2.484Z" transform="translate(-15.05549 -5.03317)"/>
  <path d="M93.40671,149.8069l-.16531.83037H93.141a.83461.83461,0,0,0-.15438-.52717.42.42,0,0,0-.34939-.16507.36151.36151,0,0,0-.26693.09212.27852.27852,0,0,0-.09888.22166.38307.38307,0,0,0,.03949.17048,1.11143,1.11143,0,0,0,.17194.22712,3.26249,3.26249,0,0,1,.45491.57906.7769.7769,0,0,1,.10319.36763.636.636,0,0,1-.23454.49908.8059.8059,0,0,1-.59208.21776,1.338,1.338,0,0,1-.44944-.09172.43684.43684,0,0,0-.13833-.03275.1825.1825,0,0,0-.18409.12447h-.10038l.16528-.87644h.10046a.89462.89462,0,0,0,.17037.5818.51846.51846,0,0,0,.42287.17012.43743.43743,0,0,0,.32634-.11474.36.36,0,0,0,.12075-.2829.45975.45975,0,0,0-.04337-.20015,2.30622,2.30622,0,0,0-.31854-.44877,2.41185,2.41185,0,0,1-.31149-.4304.64387.64387,0,0,1-.06918-.28639.56255.56255,0,0,1,.19112-.44371.65971.65971,0,0,1,.49165-.18142.83587.83587,0,0,1,.15708.01367,1.74422,1.74422,0,0,1,.17743.06089.68977.68977,0,0,0,.18565.05269.21233.21233,0,0,0,.195-.12725Z" transform="translate(-15.05549 -5.03317)"/>
  <line class="cls-11" x1="42.21903" y1="143.20617" x2="47.44794" y2="143.20617"/>
  <path d="M61.54256,144.33949h-.82615c-.122.59237-.01664,1.14052-.1109,1.57782-.04989.2381-.14416.42077-.38812.42077s-.23841-.24361-.19961-.43184c.061-.28787.377-.86913.5212-1.56675h-.937c-.21624,1.03532-.183,1.28444-.25505,1.61658a.43572.43572,0,0,1-.38812.382c-.20516,0-.25506-.155-.2107-.35988.08316-.39859.58773-1.21789.67644-1.63871h-.44357a.68368.68368,0,0,0-.72635.58135h-.15527c.16634-.609.54892-1.04633,1.059-1.04633h2.484Z" transform="translate(-15.05549 -5.03317)"/>
  <path d="M60.67306,149.8069l-.16531.83037h-.10046a.83447.83447,0,0,0-.15436-.52717.42.42,0,0,0-.34939-.16507.36151.36151,0,0,0-.26692.09212.27842.27842,0,0,0-.09887.22166.383.383,0,0,0,.03946.17048,1.11188,1.11188,0,0,0,.172.22712,3.262,3.262,0,0,1,.45491.57906.77653.77653,0,0,1,.10316.36763.63574.63574,0,0,1-.2345.49908.80593.80593,0,0,1-.59209.21776,1.33885,1.33885,0,0,1-.44943-.09172.437.437,0,0,0-.13834-.03275.18253.18253,0,0,0-.1841.12447h-.10043l.16531-.87644h.10044a.8946.8946,0,0,0,.17041.5818.51838.51838,0,0,0,.42285.17012.43742.43742,0,0,0,.32633-.11474.35992.35992,0,0,0,.12076-.2829.4599.4599,0,0,0-.04338-.20015,2.30518,2.30518,0,0,0-.31855-.44877,2.41274,2.41274,0,0,1-.31147-.4304.64387.64387,0,0,1-.06918-.28639.56243.56243,0,0,1,.1911-.44371.65976.65976,0,0,1,.49165-.18142.83625.83625,0,0,1,.15711.01367,1.74675,1.74675,0,0,1,.17743.06089.68974.68974,0,0,0,.18563.05269.21236.21236,0,0,0,.195-.12725Z" transform="translate(-15.05549 -5.03317)"/>
  <path d="M52.97717,150.05315H50.8875v-.11434a12.31645,12.31645,0,0,0,2.11157-2.19183,1.3733,1.3733,0,0,0,.23839-.77307.69081.69081,0,0,0-.19814-.524.66.66,0,0,0-.51393-.20252.78893.78893,0,0,0-.71831.41754l-.10864-.04956a1.338,1.338,0,0,1,.46155-.61965,1.06327,1.06327,0,0,1,.65618-.22125.93211.93211,0,0,1,.94458.93692,1.28889,1.28889,0,0,1-.09613.50375,2.96811,2.96811,0,0,1-.54792.81012,18.79541,18.79541,0,0,1-1.61953,1.57956H52.55a.75016.75016,0,0,0,.41817-.105.58.58,0,0,0,.23532-.28133h.12388Z" transform="translate(-15.05549 -5.03317)"/>
  <line class="cls-11" x1="105.74548" y1="144.56234" x2="114.92908" y2="144.56234"/>
  <path d="M122.93529,145.6047v-.07845a1.83134,1.83134,0,0,0,.97783-.38945.60326.60326,0,0,0,.2333-.48972.46849.46849,0,0,0-.1356-.35311.42263.42263,0,0,0-.32789-.13934.6171.6171,0,0,0-.53894.37618l-.10043-.02966a1.13482,1.13482,0,0,1,.36189-.47489.78176.78176,0,0,1,.48343-.16076.68872.68872,0,0,1,.51743.19042.617.617,0,0,1,.19775.48309.73139.73139,0,0,1-.18563.47879,1.52743,1.52743,0,0,1-.6378.41127.884.884,0,0,1,.4252.33407.90909.90909,0,0,1,.14342.52328,1.343,1.343,0,0,1-.73,1.20261,1.449,1.449,0,0,1-.71364.185.90552.90552,0,0,1-.51783-.119.2174.2174,0,0,1-.11645-.18921.21028.21028,0,0,1,.06918-.16233.22431.22431,0,0,1,.1692-.06753.47328.47328,0,0,1,.14107.02147,1.6906,1.6906,0,0,1,.21263.10847,1.66013,1.66013,0,0,0,.26419.12563.61723.61723,0,0,0,.195.03123.43152.43152,0,0,0,.40253-.2829,1.193,1.193,0,0,0,.15827-.60169.9609.9609,0,0,0-.10708-.46284.78416.78416,0,0,0-.33728-.32851A1.16852,1.16852,0,0,0,122.93529,145.6047Z" transform="translate(-15.05549 -5.03317)"/>
  <path d="M128.69863,145.66582h-.82614c-.122.59237-.01667,1.14043-.11091,1.57782-.04989.238-.14416.42072-.38811.42072s-.23843-.24356-.19963-.43179c.061-.28787.37706-.86922.52122-1.56675H126.758c-.2162,1.03527-.18294,1.28439-.255,1.61657a.43572.43572,0,0,1-.38812.382c-.20517,0-.25506-.155-.21072-.35983.08318-.39859.58773-1.21794.67644-1.63871H126.137a.68358.68358,0,0,0-.72633.58126h-.15528c.16634-.60891.54893-1.04629,1.059-1.04629h2.484Z" transform="translate(-15.05549 -5.03317)"/>
  <path d="M126.35881,151.13287l-.16533.83037h-.10041a.83425.83425,0,0,0-.15437-.52718.42.42,0,0,0-.34937-.1651.36177.36177,0,0,0-.26693.09212.27866.27866,0,0,0-.09888.22165.38353.38353,0,0,0,.03947.17053,1.11146,1.11146,0,0,0,.172.22711,3.26348,3.26348,0,0,1,.45491.57907.77621.77621,0,0,1,.10316.36758.63562.63562,0,0,1-.23451.49908.80553.80553,0,0,1-.59208.21776,1.3369,1.3369,0,0,1-.44944-.09172.43564.43564,0,0,0-.13833-.03271.18252.18252,0,0,0-.18409.12447h-.10043l.16529-.87643h.10048a.89439.89439,0,0,0,.17039.58179.51848.51848,0,0,0,.42283.17013.43757.43757,0,0,0,.32634-.11475.36.36,0,0,0,.12077-.2829.45949.45949,0,0,0-.0434-.20014,2.30363,2.30363,0,0,0-.31854-.44877,2.41172,2.41172,0,0,1-.31148-.43045.64344.64344,0,0,1-.06916-.28644.56248.56248,0,0,1,.19109-.44361.65976.65976,0,0,1,.49165-.18146.83534.83534,0,0,1,.15711.01366,1.75468,1.75468,0,0,1,.17743.06085.68695.68695,0,0,0,.18563.05269.21229.21229,0,0,0,.195-.1272Z" transform="translate(-15.05549 -5.03317)"/>
  <line class="cls-11" x1="6.93092" y1="144.56234" x2="15.14606" y2="144.56234"/>
  <path d="M23.75966,146.11781v-.07845a1.83088,1.83088,0,0,0,.97781-.3894.60341.60341,0,0,0,.23331-.48972.4688.4688,0,0,0-.1356-.3532.42274.42274,0,0,0-.32791-.13926.617.617,0,0,0-.53892.37614l-.10044-.02961a1.13532,1.13532,0,0,1,.36189-.47494.782.782,0,0,1,.48343-.16076.68891.68891,0,0,1,.51743.19042.617.617,0,0,1,.19775.48314.73146.73146,0,0,1-.18564.47874,1.528,1.528,0,0,1-.6378.41131.88392.88392,0,0,1,.42519.334.90925.90925,0,0,1,.14344.52332,1.34307,1.34307,0,0,1-.73,1.20262,1.45039,1.45039,0,0,1-.71363.18495.9063.9063,0,0,1-.51785-.119.21764.21764,0,0,1-.11647-.18926.21032.21032,0,0,1,.06919-.16232.22432.22432,0,0,1,.16922-.06748.47071.47071,0,0,1,.14108.02146,1.68759,1.68759,0,0,1,.2126.10847,1.65977,1.65977,0,0,0,.26419.12564.6193.6193,0,0,0,.195.03123.4316.4316,0,0,0,.40254-.2829,1.19319,1.19319,0,0,0,.15828-.60174.96118.96118,0,0,0-.10709-.46279.78456.78456,0,0,0-.33727-.3286A1.17016,1.17016,0,0,0,23.75966,146.11781Z" transform="translate(-15.05549 -5.03317)"/>
  <path d="M29.52288,146.17911h-.82615c-.122.59237-.01664,1.14043-.11089,1.57777-.0499.2381-.14417.42077-.38812.42077s-.23842-.24357-.19962-.43179c.061-.28792.37705-.86922.5212-1.56675h-.93705c-.21624,1.03527-.183,1.28439-.255,1.61653a.43571.43571,0,0,1-.38811.382c-.20516,0-.25508-.155-.21072-.35983.08318-.39864.58774-1.218.67646-1.63871h-.44358a.68359.68359,0,0,0-.72635.5813h-.15526c.16633-.609.54891-1.04634,1.059-1.04634h2.484Z" transform="translate(-15.05549 -5.03317)"/>
  <path d="M27.18278,151.64638l-.16531.83037H26.917a.83444.83444,0,0,0-.15437-.52717.4198.4198,0,0,0-.3494-.16507.36168.36168,0,0,0-.26693.09208.27857.27857,0,0,0-.09887.22165.383.383,0,0,0,.03946.17048,1.1079,1.1079,0,0,0,.172.22712,3.26556,3.26556,0,0,1,.45491.57911.777.777,0,0,1,.10316.36763.63594.63594,0,0,1-.23451.49908.80586.80586,0,0,1-.59208.21771,1.33768,1.33768,0,0,1-.44945-.09167.43845.43845,0,0,0-.13835-.0328.1826.1826,0,0,0-.18408.12447h-.10044l.16531-.87639h.10045a.89447.89447,0,0,0,.17038.58175.51845.51845,0,0,0,.42286.17017.43775.43775,0,0,0,.32633-.1147.36013.36013,0,0,0,.12076-.28294.45948.45948,0,0,0-.04338-.20015,2.30311,2.30311,0,0,0-.31856-.44877,2.41454,2.41454,0,0,1-.31147-.4304.64432.64432,0,0,1-.06918-.28644.5625.5625,0,0,1,.19111-.44366.65976.65976,0,0,1,.49164-.18142.84012.84012,0,0,1,.1571.01367,1.75407,1.75407,0,0,1,.17743.06089.68845.68845,0,0,0,.18565.05265.21219.21219,0,0,0,.195-.12721Z" transform="translate(-15.05549 -5.03317)"/>
  <path d="M17.24443,151.63312H15.15476v-.11435a12.31326,12.31326,0,0,0,2.11156-2.19187,1.373,1.373,0,0,0,.23841-.773.69071.69071,0,0,0-.19816-.52409.6599.6599,0,0,0-.51392-.20247.789.789,0,0,0-.71832.41749l-.10864-.04951a1.338,1.338,0,0,1,.46156-.6197,1.063,1.063,0,0,1,.65616-.22125.93214.93214,0,0,1,.9446.93688,1.289,1.289,0,0,1-.09613.50379,2.96735,2.96735,0,0,1-.54793.81008,18.7966,18.7966,0,0,1-1.61953,1.57966h1.05286a.75026.75026,0,0,0,.41815-.105.57984.57984,0,0,0,.23529-.28133h.12387Z" transform="translate(-15.05549 -5.03317)"/>
  <line class="cls-10" x1="199.81692" y1="139.22715" x2="199.81692" y2="84.56614"/>
  <polyline points="200.952 85.35 199.802 81.062 198.651 85.35 200.952 85.35"/>
  <line class="cls-10" x1="143.7781" y1="135.06192" x2="253.96047" y2="135.06192"/>
  <polyline points="253.176 136.197 257.471 135.049 253.176 133.899 253.176 136.197"/>
  <path d="M276.18449,138.47776l-.24155.841h.48619l-.05234.19472h-.483l-.53229,1.82425a1.81209,1.81209,0,0,0-.08674.38.11322.11322,0,0,0,.02419.08042.07445.07445,0,0,0,.05941.02769.35175.35175,0,0,0,.204-.10811,3.59877,3.59877,0,0,0,.33143-.38l.10242.07724a2.17853,2.17853,0,0,1-.53856.58422.60633.60633,0,0,1-.35019.11743.29365.29365,0,0,1-.22273-.085.27972.27972,0,0,1-.08679-.2178,2.03764,2.03764,0,0,1,.09924-.51038l.5167-1.78992h-.46745l.03127-.12057a1.48823,1.48823,0,0,0,.56584-.27663,2.55461,2.55461,0,0,0,.50492-.63843Z" transform="translate(-15.05549 -5.03317)"/>
  <path d="M75.36591,107.60049a5.45941,5.45941,0,0,1,.68163-.25127l.01622-.00479.01682-.00166a6.09968,6.09968,0,0,1,1.18884,0l-.03465.354a5.74092,5.74092,0,0,0-1.11948,0l-.01734-.177.0504.17053a5.11413,5.11413,0,0,0-.63712.23487Zm-2.97317,2.7411q.22537-.27227.67276-.783.0986-.11252.13427-.15355.39354-.4519.82761-.86416l.2455.25767q-.422.40069-.80423.8397-.0393.04517-.135.15444-.44424.50715-.66631.7754Zm-1.85943,3.45229q.61779-1.39464,1.05423-2.21948l.31492.16619q-.43066.81375-1.04341,2.19716Zm-1.59,3.70225.8586-2.01269.08913-.2088.32765.13944-.08909.2087-.8586,2.01274Zm-1.71541,3.50234q.24345-.4267.48241-.85672.23909-.43524.56479-1.13958l.32335.14907q-.33091.71556-.57672,1.163-.24042.43263-.48432.86022Zm-2.03378,3.38772q.63318-1.00328,1.23847-2.02179l.3063.18146q-.608,1.023-1.24344,2.02995Zm-2.18343,3.29431q.67751-.97431,1.32749-1.96458l.2979.195q-.65268.99441-1.33281,1.97251Zm-2.43,3.08578q.54645-.58719,1.07641-1.19173l.134.11712-.14354-.10524q.22665-.30822.44911-.61626l.2889.208q-.22454.31083-.45091.61871l-.00453.00609-.005.00578q-.53341.60845-1.08352,1.19958Zm-2.79632,2.79222q.86932-.8067,1.70259-1.651l.25371.24961q-.8388.8499-1.71382,1.66191ZM54.79184,136.138q.92527-.74029,1.81748-1.52078l.23471.26749q-.898.78545-1.82947,1.53081Zm-3.47923,1.60654q.34655-.05922.69109-.12927l.03552.17425-.0568-.16851a10.92631,10.92631,0,0,0,1.51442-.639l.16292.31624a11.28568,11.28568,0,0,1-1.56375.65985l-.01045.00349-.01083.0022q-.34981.0711-.702.13132Zm-3.91946.32192a22.52422,22.52422,0,0,0,2.35818-.11089l.03541.35387a22.8956,22.8956,0,0,1-2.39552.11264Z" transform="translate(-15.05549 -5.03317)"/>
  <path d="M78.99452,107.89782a2.823,2.823,0,0,0-1.70973-.20328l-.06544-.34957a3.172,3.172,0,0,1,1.921.22837Zm2.82835,2.589q-.29077-.43874-.6111-.85717l.14147-.108-.1281.12353a10.89054,10.89054,0,0,0-.95036-.87276l.22517-.27555a11.244,11.244,0,0,1,.98139.90125l.00715.0074.00625.0082q.32771.428.62514.87683Zm1.74339,3.47142q-.62317-1.40633-1.02427-2.21271l.319-.15816q.40462.81341,1.031,2.227Zm1.61465,3.6885-.87424-1.99724-.09382-.21565.32667-.14172.09351.21493.87424,1.99729Zm1.75556,3.527q-.24474-.42939-.48363-.85954-.24769-.44963-.58352-1.1584l.322-.15211q.33117.699.573,1.13805.23724.42711.48174.8561Zm2.0416,3.40162q-.63435-1.00511-1.24331-2.03l.30632-.18146q.60611,1.02015,1.23832,2.02188Zm2.19267,3.30734q-.68067-.97835-1.33318-1.97228l.29787-.195q.6498.98964,1.32785,1.96435Zm2.46183,3.1249q-.55091-.59225-1.08234-1.1989l-.00495-.00569-.0045-.00609q-.22794-.30971-.45193-.61962l.28879-.20812q.22323.30882.45014.61715l-.14349.10529.13406-.11707q.52832.60312,1.07519,1.191Zm2.8144,2.81112q-.87505-.81207-1.71369-1.66209l.25373-.24957q.83318.84441,1.70244,1.65117Zm3.01243,2.59642q-.93227-.74561-1.82964-1.53068l.23471-.26749q.89148.77976,1.81761,1.52065Zm3.64162,1.68q-.35208-.06015-.702-.13137l-.01073-.0022-.0104-.00345a11.195,11.195,0,0,1-1.56413-.65958l.16307-.31619a10.83119,10.83119,0,0,0,1.51435.63861l-.05663.16856.03553-.17425q.34445.07009.69105.12935Zm3.98155.32694a22.86826,22.86826,0,0,1-2.39556-.11251l.03537-.35387a22.49583,22.49583,0,0,0,2.35819.11076Z" transform="translate(-15.05549 -5.03317)"/>
  <path class="cls-12" d="M29.0754,118.52979a5.57362,5.57362,0,0,0,2.474-.00479c.83561-.29406,1.44229-1.24429,1.92492-1.93156.96447-1.37453,1.83769-2.77868,2.69249-4.22276a11.43437,11.43437,0,0,1,3.20874-3.92149,7.20831,7.20831,0,0,1,2.6997-1.27946,3.90713,3.90713,0,0,1,2.63806.71527c3.13431,1.78451,4.50777,4.958,6.99215,7.39941a31.9063,31.9063,0,0,0,4.10037,3.50194,8.39323,8.39323,0,0,0,4.83032,1.13881c1.608-.13029,3.13429-.2014,4.43573-1.23232a16.86825,16.86825,0,0,0,3.60652-3.85518,53.61674,53.61674,0,0,1,3.32719-4.93718,7.79849,7.79849,0,0,1,4.54058-2.7635c1.57517-.15986,3.5121,1.21709,4.56939,2.2792a31.16434,31.16434,0,0,1,3.3256,4.67829,22.78681,22.78681,0,0,0,3.53608,3.90707,7.50668,7.50668,0,0,0,2.089,1.49206,7.04031,7.04031,0,0,0,2.526.27972,5.79636,5.79636,0,0,0,3.85065-1.14442,20.81526,20.81526,0,0,0,3.304-3.63057c2.005-2.80427,3.56489-6.08563,7.089-7.242,1.6752-.55061,3.4.5818,4.667,1.59113a13.57771,13.57771,0,0,1,2.895,3.959c.8004,1.36737,1.64717,2.69,2.57563,3.97423a4.29067,4.29067,0,0,0,1.76,1.69982,5.4873,5.4873,0,0,0,2.4732.0048" transform="translate(-15.05549 -5.03317)"/>
  <path d="M43.94828,108.48486a5.50051,5.50051,0,0,0-.67632-.24791l.05028-.17053-.02144.17644a4.3593,4.3593,0,0,0-1.05043,0l-.04289-.353a4.707,4.707,0,0,1,1.13622,0l.01466.00175.01416.00416a5.84462,5.84462,0,0,1,.72014.264Zm2.83335,2.55116q-.29017-.44377-.62236-.85636l.13881-.11139-.13.12156a10.14894,10.14894,0,0,0-.93138-.87545l.22735-.27371a10.499,10.499,0,0,1,.964.906l.00461.00488.00421.00524q.34325.42638.643.88477Zm1.74405,3.47384Q47.9,113.10543,47.49589,112.3l.31844-.15928q.40773.81261,1.03677,2.22463Zm1.62154,3.68537-.87637-1.99168-.09565-.21874.32642-.1423.09531.218.87638,1.99169Zm1.76061,3.52443q-.2418-.42746-.47933-.85946-.2502-.44855-.58882-1.15745l.32146-.15306q.33373.69857.57957,1.13935.23657.43027.47723.85565Zm2.03812,3.40506q-.636-1.0057-1.243-2.0312l.30661-.181q.60422,1.02075,1.23752,2.02233Zm2.20312,3.30206q-.68531-.97452-1.34105-1.96794l.29737-.19571q.65295.9891,1.33518,1.95929Zm2.46676,3.12041q-.5555-.60386-1.09116-1.2239l-.00412-.00479-.00378-.00506q-.22232-.2976-.44184-.59708l.28742-.21q.218.29754.43991.59453l-.14275.10632.13484-.11618q.53212.616,1.0838,1.2157Zm2.80223,2.82435q-.87252-.81537-1.7072-1.66945l.25491-.24835q.82893.84816,1.69567,1.65815Zm3.00664,2.60408q-.93037-.74622-1.82683-1.53454l.2354-.26686q.89053.783,1.81449,1.52419Zm3.65065,1.66285q-.35167-.0588-.70064-.12872l-.01111-.00224-.01074-.00363a11.94835,11.94835,0,0,1-1.56629-.65465l.16051-.31749a11.5784,11.5784,0,0,0,1.51962.63516l-.05693.16851.03507-.17434q.34358.06889.68931.12667Zm3.98507.29908a22.0407,22.0407,0,0,1-2.39733-.09261l.03312-.3541a21.67993,21.67993,0,0,0,2.35858.09114Z" transform="translate(-15.05549 -5.03317)"/>
  <path d="M41.96405,107.98048q.13141.0115.26173.03168l-.05459.35141q-.11862-.01834-.23808-.02877Zm-3.54733,1.759a14.1783,14.1783,0,0,1,1.143-1.1096l.01142-.0099.0129-.00785a5.24462,5.24462,0,0,1,.7441-.37425l.13452.32927a4.90143,4.90143,0,0,0-.69366.34885l-.09248-.15189.11678.1342a13.83337,13.83337,0,0,0-1.11433,1.08182Zm-2.2476,3.2003a14.95977,14.95977,0,0,1,.77522-1.42l.00233-.00367.00252-.0035q.2043-.28758.42219-.56463l.28014.21963q-.21249.27011-.41183.55075l-.14524-.10288.15009.09571a14.61409,14.61409,0,0,0-.75561,1.38506ZM34.51348,116.65q.62438-1.46244.96726-2.23049l.3253.14481q-.34145.76482-.96491,2.22512Zm-1.63518,3.67609q.37837-.75716,1.0057-2.20706l.327.141q-.63122,1.45881-1.014,2.22476Zm-1.8633,3.16782q.75387-1.18749,1.252-2.04836l.30839.17792q-.50167.86706-1.25957,2.06082Zm-2.23386,3.41967,1.34528-2.04052.29751.19553-1.34527,2.04052Zm-2.22274,3.31591,1.41-2.098.29575.19817-1.40995,2.098Z" transform="translate(-15.05549 -5.03317)"/>
  <path d="M105.81205,107.80557a5.89053,5.89053,0,0,1,.67252-.243l.01667-.00484.0173-.00166a6.45142,6.45142,0,0,1,1.18689,0l-.03276.35415a6.09482,6.09482,0,0,0-1.12138,0l-.0164-.17707.05036.17057a5.53988,5.53988,0,0,0-.63193.22833Zm-2.95413,2.70914q.37442-.46507.78221-.90175l.13028.12125-.13527-.11565q.3946-.46023.83078-.88185l.24777.25557q-.42421.41-.808.85761l-.00242.00283-.00258.00277q-.3988.42705-.76513.882Zm-1.89019,3.47349q.6213-1.395,1.06007-2.21647l.31426.16734q-.43275.8102-1.04891,2.19362Zm-1.59693,3.69961.85508-1.99419.0973-.22685.32741.14-.09727.22676-.85511,1.99423Zm-1.72016,3.50081q.23519-.41595.465-.83364.2478-.44358.58417-1.16521l.32291.15005q-.34191.73344-.5949,1.18636-.23036.41863-.46707.83732Zm-2.02583,3.39225q.63129-1.0022,1.2349-2.02385l.30681.18066q-.60585,1.02572-1.24024,2.03254Zm-2.18537,3.293q.67852-.97155,1.32975-1.963l.29784.19508q-.65447.99622-1.33546,1.97135Zm-2.4302,3.08789q.53575-.57933,1.054-1.17493l.13444.11658-.14311-.10578q.23532-.31735.46752-.63659l.28823.20888q-.23288.32037-.46951.63937l-.00413.00555-.00454.0052q-.5217.59976-1.06119,1.183Zm-2.79174,2.79679q.86936-.807,1.70089-1.65282l.25421.24911q-.83748.85179-1.71257,1.6642Zm-2.99579,2.57567q.9279-.73821,1.82028-1.51737l.23444.26771q-.89861.78451-1.83278,1.52781Zm-3.47638,1.68683q.32569-.08778.64762-.1893a9.93777,9.93777,0,0,0,1.53733-.64372l.16475.31529a10.31647,10.31647,0,0,1-1.59482.66756q-.32908.10377-.66208.19351Zm-3.88394.54729a15.93652,15.93652,0,0,0,2.3465-.21336l.05842.35078a16.29188,16.29188,0,0,1-2.39894.21816Z" transform="translate(-15.05549 -5.03317)"/>
  <path d="M107.735,107.71121q-.08979.00624-.1792.01572l-.03754-.35365q.09594-.01014.192-.0168Zm3.34651,1.56912a9.87447,9.87447,0,0,0-1.21479-.97514l.10028-.14692-.09523.15023a5.22291,5.22291,0,0,0-.67654-.36086l.14432-.32515a5.5706,5.5706,0,0,1,.7227.38555l.00254.00157.00251.00175a10.22088,10.22088,0,0,1,1.25857,1.01022Zm2.04995,3.18373q-.41487-.87989-.70718-1.39833-.17654-.29961-.3709-.59183l.2967-.19674q.1998.30035.38456.6141.29857.52972.719,1.42131Zm1.6463,3.70091-.21153-.48623-.76168-1.73763.32627-.14257.76207,1.73853.21155.48623Zm1.67094,3.68407q-.39366-.78392-1.02852-2.21746l.32573-.14378q.63135,1.42554,1.0212,2.20182Zm1.88359,3.19457q-.75323-1.18569-1.259-2.05482l.308-.17868q.50243.86322,1.2518,2.04307Zm2.23742,3.428-1.34407-2.04115.29758-.19539,1.34411,2.04114Zm2.22033,3.319-1.40713-2.09837.29591-.19786,1.40718,2.09837Z" transform="translate(-15.05549 -5.03317)"/>
  <path d="M228.396,148.589l-.204,1.02318h-.12349a1.02606,1.02606,0,0,0-.19-.64973.5175.5175,0,0,0-.43067-.20328.44833.44833,0,0,0-.32907.11314.34379.34379,0,0,0-.12115.27317.471.471,0,0,0,.04769.21,1.38535,1.38535,0,0,0,.2126.28012,4.04013,4.04013,0,0,1,.56043.713.96249.96249,0,0,1,.12662.45347.78366.78366,0,0,1-.28841.6145.99108.99108,0,0,1-.72928.26848,1.65529,1.65529,0,0,1-.55415-.11314.53847.53847,0,0,0-.17039-.04023.22421.22421,0,0,0-.22669.15337h-.12349l.20322-1.07977h.12348a1.10413,1.10413,0,0,0,.21027.71649.63907.63907,0,0,0,.52057.20991.5389.5389,0,0,0,.40255-.14163.44193.44193,0,0,0,.14849-.34809.5688.5688,0,0,0-.05314-.24657,2.83435,2.83435,0,0,0-.39238-.55339,2.95071,2.95071,0,0,1-.38378-.52986.79277.79277,0,0,1-.0852-.35316.69381.69381,0,0,1,.23527-.54667.81472.81472,0,0,1,.60577-.22326,1.01513,1.01513,0,0,1,.19383.01685,2.0727,2.0727,0,0,1,.21809.07486.85283.85283,0,0,0,.229.0652.26182.26182,0,0,0,.24-.15691Z" transform="translate(-15.05549 -5.03317)"/>
  <line class="cls-12" x1="175.48767" y1="135.06192" x2="175.48767" y2="118.86532"/>
  <line class="cls-12" x1="207.80717" y1="135.06192" x2="207.80717" y2="114.80081"/>
  <line class="cls-12" x1="223.99813" y1="135.06192" x2="223.99813" y2="110.76744"/>
  <line class="cls-12" x1="216.13033" y1="135.06192" x2="216.13033" y2="116.86422"/>
  <line class="cls-12" x1="167.49665" y1="135.06192" x2="167.49665" y2="126.38704"/>
  <line class="cls-12" x1="191.5866" y1="135.06192" x2="191.5866" y2="145.16093"/>
  <line class="cls-12" x1="232.31891" y1="135.06192" x2="232.31891" y2="143.12866"/>
  <line class="cls-12" x1="159.47842" y1="135.06192" x2="159.47842" y2="133.6666"/>
  <line class="cls-12" x1="183.38347" y1="135.06192" x2="183.38347" y2="126.96324"/>
  <line class="cls-12" x1="199.81692" y1="135.24329" x2="199.81692" y2="139.30789"/>
  <line class="cls-12" x1="240.2179" y1="135.06192" x2="240.2179" y2="133.02888"/>
  <line class="cls-12" x1="248.32899" y1="135.06192" x2="248.32899" y2="133.02964"/>
  <path d="M174.53229,137.62731a1.07461,1.07461,0,1,0,.761.314,1.03621,1.03621,0,0,0-.761-.314" transform="translate(-15.05549 -5.03317)"/>
  <path d="M182.55214,130.34776a1.07523,1.07523,0,1,0,.75945.3144,1.036,1.036,0,0,0-.75945-.3144" transform="translate(-15.05549 -5.03317)"/>
  <path d="M190.54076,122.82608a1.07494,1.07494,0,1,0,.75952.3143,1.03529,1.03529,0,0,0-.75952-.3143" transform="translate(-15.05549 -5.03317)"/>
  <path d="M198.43735,130.92476a1.07523,1.07523,0,1,0,.75949.31444,1.03587,1.03587,0,0,0-.75949-.31444" transform="translate(-15.05549 -5.03317)"/>
  <path d="M206.64209,149.12165a1.07519,1.07519,0,1,0,.75947.3144,1.03564,1.03564,0,0,0-.75947-.3144" transform="translate(-15.05549 -5.03317)"/>
  <path d="M214.87241,143.2686a1.07359,1.07359,0,1,0,.75967.31364,1.03551,1.03551,0,0,0-.75967-.31364" transform="translate(-15.05549 -5.03317)"/>
  <path d="M222.86188,118.76157a1.07381,1.07381,0,1,0,.75989.314,1.03558,1.03558,0,0,0-.75989-.314" transform="translate(-15.05549 -5.03317)"/>
  <path d="M231.185,120.82413a1.07454,1.07454,0,1,0,.76019.31391,1.03552,1.03552,0,0,0-.76019-.31391" transform="translate(-15.05549 -5.03317)"/>
  <path d="M239.052,114.72735a1.07454,1.07454,0,1,0,.75969.31422,1.03633,1.03633,0,0,0-.75969-.31422" transform="translate(-15.05549 -5.03317)"/>
  <path d="M247.37362,147.08942a1.075,1.075,0,1,0,.76.314,1.03561,1.03561,0,0,0-.76-.314" transform="translate(-15.05549 -5.03317)"/>
  <path d="M255.27175,136.9904a1.07359,1.07359,0,1,0,.76017.31333,1.03525,1.03525,0,0,0-.76017-.31333" transform="translate(-15.05549 -5.03317)"/>
  <path d="M263.38367,136.9904a1.07449,1.07449,0,1,0,.75968.31422,1.0353,1.0353,0,0,0-.75968-.31422" transform="translate(-15.05549 -5.03317)"/>
  <line class="cls-10" x1="209.917" y1="138.48952" x2="214.41514" y2="138.48952"/>
  <polyline points="213.671 139.566 217.745 138.477 213.671 137.387 213.671 139.566"/>
  <polyline points="210.663 137.413 206.588 138.503 210.663 139.593 210.663 137.413"/>
  <path d="M221.33556,87.32334l-.05627.204h-.45177l-.34079,1.35093a8.06731,8.06731,0,0,1-.45491,1.38215,2.34885,2.34885,0,0,1-.69952.95211.96175.96175,0,0,1-.56981.201.45383.45383,0,0,1-.31579-.11126.23378.23378,0,0,1-.09613-.201.21436.21436,0,0,1,.07895-.17169.26529.26529,0,0,1,.19306-.07259.19563.19563,0,0,1,.14148.05234.15219.15219,0,0,1,.05706.12057.16347.16347,0,0,1-.06488.1268c-.0328.0289-.05.05072-.05.06514a.049.049,0,0,0,.02189.04333.14131.14131,0,0,0,.08677.02146.56015.56015,0,0,0,.28059-.08351.79253.79253,0,0,0,.26106-.24894,1.8899,1.8899,0,0,0,.2173-.47763c.02814-.08661.10628-.37188.23212-.85614l.53853-2.09312h-.53853l.043-.204a1.23631,1.23631,0,0,0,.35956-.03553.424.424,0,0,0,.18679-.13621,2.005,2.005,0,0,0,.2212-.37538,3.07915,3.07915,0,0,1,.35016-.57516,1.68281,1.68281,0,0,1,.4815-.41248.983.983,0,0,1,.4752-.13773.55169.55169,0,0,1,.37753.119.32158.32158,0,0,1,.143.25835.246.246,0,0,1-.07113.18222.23269.23269,0,0,1-.18289.07411.21311.21311,0,0,1-.15633-.05542.16564.16564,0,0,1-.06019-.133.264.264,0,0,1,.03987-.12218.27663.27663,0,0,0,.04064-.09755.07312.07312,0,0,0-.02811-.06478.18631.18631,0,0,0-.118-.03083.53.53,0,0,0-.34939.12371,1.382,1.382,0,0,0-.37207.51315q-.08324.18261-.30638.90569Z" transform="translate(-15.05549 -5.03317)"/>
  <path d="M223.16691,90.45438a.32185.32185,0,0,0-.086-.23882.27838.27838,0,0,0-.21885-.09015q-.29191,0-.60888.48193a1.65234,1.65234,0,0,0-.31734.92281.39474.39474,0,0,0,.0766.26574.221.221,0,0,0,.18368.09131q.24151,0,.60577-.52131a1.63883,1.63883,0,0,0,.365-.91147Zm.86136-1.64633-.79881,2.73617a1.3401,1.3401,0,0,0-.06486.29231.06134.06134,0,0,0,.01956.04409.05505.05505,0,0,0,.04066.02065.12884.12884,0,0,0,.07189-.03006,1.86592,1.86592,0,0,0,.265-.2782l.07895.04875a2.0621,2.0621,0,0,1-.33844.37542.49394.49394,0,0,1-.3189.144.16071.16071,0,0,1-.12976-.05578.2158.2158,0,0,1-.05159-.15767,1.26644,1.26644,0,0,1,.06958-.35468l.09064-.2876a2.69494,2.69494,0,0,1-.61278.71876.61689.61689,0,0,1-.365.137.37291.37291,0,0,1-.30719-.15646.62255.62255,0,0,1-.13132-.42574,1.48844,1.48844,0,0,1,.22042-.73709,1.83145,1.83145,0,0,1,.58309-.63767.92322.92322,0,0,1,.52447-.19741.43028.43028,0,0,1,.21652.05117.595.595,0,0,1,.17819.16932l.22824-.807c.01642-.057.03049-.1026.04145-.13657a.5505.5505,0,0,0,.02811-.15332.10149.10149,0,0,0-.03515-.08114.18862.18862,0,0,0-.12507-.03943,1.52636,1.52636,0,0,0-.17665.01635v-.0858Z" transform="translate(-15.05549 -5.03317)"/>
  <path d="M225.776,91.35227l-.10552.04956a7.1282,7.1282,0,0,1-.52917-1.23972,2.95682,2.95682,0,0,1-.12348-.84718,3.4007,3.4007,0,0,1,.46115-1.78365,6.3745,6.3745,0,0,1,1.836-1.87967l.07425.10812a3.99916,3.99916,0,0,0-.93484.94937,6.46861,6.46861,0,0,0-1.02862,3.27079A3.46421,3.46421,0,0,0,225.776,91.35227Z" transform="translate(-15.05549 -5.03317)"/>
  <path d="M228.50149,86.4832l-.2415.8409h.48616l-.05236.19472h-.483l-.53226,1.82425a1.81265,1.81265,0,0,0-.08677.38008.11326.11326,0,0,0,.02422.08034.07431.07431,0,0,0,.05941.02773.35233.35233,0,0,0,.204-.10807,3.60479,3.60479,0,0,0,.3314-.38008l.1024.07724a2.17807,2.17807,0,0,1-.53855.58418.60635.60635,0,0,1-.35016.11752.294.294,0,0,1-.22277-.08509.27958.27958,0,0,1-.08676-.2177,2.04136,2.04136,0,0,1,.09924-.51047l.51667-1.78988h-.46745l.03127-.12057a1.48837,1.48837,0,0,0,.56587-.27667,2.55457,2.55457,0,0,0,.50491-.63839Z" transform="translate(-15.05549 -5.03317)"/>
  <path d="M229.76148,85.71053l.10554-.05892a6.90286,6.90286,0,0,1,.5268,1.23658,2.90673,2.90673,0,0,1,.12662.84718,3.39644,3.39644,0,0,1-.46116,1.7837,6.4139,6.4139,0,0,1-1.83607,1.8828l-.07427-.096a4.07824,4.07824,0,0,0,.93484-.949,6.46782,6.46782,0,0,0,1.02785-3.27392A3.45,3.45,0,0,0,229.76148,85.71053Z" transform="translate(-15.05549 -5.03317)"/>
  <path d="M83.1131,86.20146l-.05587.20364h-.45179l-.34041,1.351a8.03933,8.03933,0,0,1-.45529,1.38175,2.34358,2.34358,0,0,1-.69952.95171.96016.96016,0,0,1-.56943.201.45426.45426,0,0,1-.31577-.11116.23358.23358,0,0,1-.09615-.201.21733.21733,0,0,1,.07895-.17173.26592.26592,0,0,1,.19345-.07254.19367.19367,0,0,1,.14109.05264.154.154,0,0,1,.05706.12062.16343.16343,0,0,1-.06488.1268c-.03322.02885-.04962.05031-.04962.06474a.04752.04752,0,0,0,.02188.04333.13638.13638,0,0,0,.08637.02146.55877.55877,0,0,0,.28021-.08347.79743.79743,0,0,0,.26184-.24858,1.88971,1.88971,0,0,0,.21652-.47763q.04338-.12991.23212-.85614l.53853-2.09271h-.53853l.04334-.20369a1.24155,1.24155,0,0,0,.35919-.03548.42758.42758,0,0,0,.18719-.13621,2.03977,2.03977,0,0,0,.22121-.37538,3.0577,3.0577,0,0,1,.34977-.57521,1.679,1.679,0,0,1,.48148-.41243.98313.98313,0,0,1,.47522-.13778.5537.5537,0,0,1,.37753.119.323.323,0,0,1,.14264.25835.24429.24429,0,0,1-.07113.18222.23247.23247,0,0,1-.18289.07416.21415.21415,0,0,1-.15635-.05543.16725.16725,0,0,1-.06018-.13307.26074.26074,0,0,1,.04026-.12209.27683.27683,0,0,0,.04026-.09719.07323.07323,0,0,0-.02814-.06519.18763.18763,0,0,0-.11766-.03082.5311.5311,0,0,0-.34977.1237,1.38533,1.38533,0,0,0-.37126.51311q-.08383.18207-.3064.90574Z" transform="translate(-15.05549 -5.03317)"/>
  <path d="M84.9421,89.33133a.32041.32041,0,0,0-.086-.23881.27568.27568,0,0,0-.21809-.0901q-.29253,0-.60926.48188a1.6541,1.6541,0,0,0-.317.92285.39069.39069,0,0,0,.0766.26534.22086.22086,0,0,0,.1833.09171q.2415,0,.60612-.52175A1.6378,1.6378,0,0,0,84.9421,89.33133Zm.86136-1.64587L85.005,90.42082a1.37623,1.37623,0,0,0-.06528.29226.06127.06127,0,0,0,.01993.04413.05428.05428,0,0,0,.04067.02066.12611.12611,0,0,0,.07189-.03,1.83045,1.83045,0,0,0,.26459-.27824l.07893.04875a2.0559,2.0559,0,0,1-.33766.37538.49646.49646,0,0,1-.31928.144.16151.16151,0,0,1-.13016-.05583.21741.21741,0,0,1-.05081-.15762,1.25343,1.25343,0,0,1,.06959-.35468l.09064-.28761a2.69731,2.69731,0,0,1-.61316.71881.61493.61493,0,0,1-.36463.13693.37317.37317,0,0,1-.30759-.15646.62507.62507,0,0,1-.13092-.42574,1.49013,1.49013,0,0,1,.22042-.73714,1.83291,1.83291,0,0,1,.5827-.63717.9242.9242,0,0,1,.52487-.1971.42473.42473,0,0,1,.21569.05076.60081.60081,0,0,1,.179.16932l.22745-.80658c.0168-.05731.03089-.103.04183-.13693a.55983.55983,0,0,0,.02775-.153.10258.10258,0,0,0-.03479-.08114.1881.1881,0,0,0-.12545-.03948,1.52983,1.52983,0,0,0-.17625.0164v-.0858Z" transform="translate(-15.05549 -5.03317)"/>
  <path d="M87.31393,90.22887l-.10552.04915a7.11152,7.11152,0,0,1-.52915-1.23936,2.97134,2.97134,0,0,1-.1239-.84673,3.40382,3.40382,0,0,1,.46118-1.78365A6.38169,6.38169,0,0,1,88.85216,84.529l.07427.10847a4.004,4.004,0,0,0-.93484.94862,5.7732,5.7732,0,0,0-.73983,1.5827,5.70977,5.70977,0,0,0-.28762,1.68768A3.45735,3.45735,0,0,0,87.31393,90.22887Z" transform="translate(-15.05549 -5.03317)"/>
  <path d="M90.9335,88.94973a.60121.60121,0,0,1-.61482-.53166.95325.95325,0,0,1-.843.53166c-.69721,0-1.02048-.58861-.881-1.25312a1.88464,1.88464,0,0,1,1.40711-1.52521c.0444,0,.08246.019.07606.05063a2.11925,2.11925,0,0,0-.84935,1.37337c-.08244.37968-.13946,1.08854.35494,1.08854a.56213.56213,0,0,0,.58314-.481c.06338-.29115-.038-.59493.04436-.95565a.4197.4197,0,0,1,.43737-.38609c.25353,0,.33595.14557.28523.38609-.0824.36072-.31055.6645-.374.95565a.37638.37638,0,0,0,.38031.481c.4944,0,.74159-.70886.824-1.08854A1.29494,1.29494,0,0,0,91.4976,86.222c.00634-.03164.05706-.05063.10144-.05063.27889,0,.98244.43671.74793,1.52521a1.534,1.534,0,0,1-1.41347,1.25312Z" transform="translate(-15.05549 -5.03317)"/>
  <path d="M93.54271,84.58789l.10552-.05892a6.85978,6.85978,0,0,1,.526,1.23658,2.8918,2.8918,0,0,1,.127.84682,3.39337,3.39337,0,0,1-.46118,1.78365,6.41908,6.41908,0,0,1-1.83563,1.882l-.07426-.09557a4.08778,4.08778,0,0,0,.93483-.949,6.47547,6.47547,0,0,0,1.02784-3.27316A3.45729,3.45729,0,0,0,93.54271,84.58789Z" transform="translate(-15.05549 -5.03317)"/>
  <polygon points="68.052 76.972 69.039 78.632 68.825 78.632 68.012 77.274 67.2 78.632 66.982 78.632 67.982 76.972 68.052 76.972"/>
  <line class="cls-10" x1="322.43091" y1="62.03573" x2="322.43091" y2="10.69447"/>
  <polyline points="323.568 11.478 322.418 7.19 321.267 11.478 323.568 11.478"/>
  <line class="cls-10" x1="268.26979" y1="60.36951" x2="380.76205" y2="60.36951"/>
  <polyline points="379.977 61.504 384.271 60.356 379.977 59.206 379.977 61.504"/>
  <path d="M402.59537,67.35655a.64873.64873,0,0,1-.66339-.57368,1.02873,1.02873,0,0,1-.90964.57368c-.75232,0-1.10108-.63516-.95063-1.35213a2.03316,2.03316,0,0,1,1.51832-1.6457c.04785,0,.08889.02044.08208.05467a2.28656,2.28656,0,0,0-.91649,1.4818c-.08894.40969-.15046,1.17443.383,1.17443a.60639.60639,0,0,0,.6292-.51893c.06842-.31409-.041-.64188.0479-1.03115a.45262.45262,0,0,1,.47189-.41651c.27358,0,.36247.157.30777.41651-.0889.38927-.3351.71706-.40352,1.03115a.40587.40587,0,0,0,.41037.51893c.53341,0,.80018-.76474.88912-1.17443a1.397,1.397,0,0,0-.28729-1.4818c.00685-.03423.06156-.05467.10946-.05467.30091,0,1.06.47118.807,1.6457a1.65544,1.65544,0,0,1-1.52517,1.35213Z" transform="translate(-15.05549 -5.03317)"/>
  <line class="cls-11" x1="335.62444" y1="66.67092" x2="340.85335" y2="66.67092"/>
  <path d="M354.948,68.31682h-.82621c-.122.59233-.01662,1.14038-.11089,1.57768-.04987.23819-.14414.42081-.3881.42081s-.23837-.24356-.19961-.43174c.061-.288.377-.86922.52117-1.56675h-.937c-.21623,1.03518-.183,1.2843-.255,1.61648a.43572.43572,0,0,1-.38815.382c-.20516,0-.255-.155-.21072-.35987.08321-.39859.58776-1.2179.67647-1.63862h-.44357a.68354.68354,0,0,0-.72634.58121h-.1552c.16631-.609.54886-1.04629,1.059-1.04629h2.484Z" transform="translate(-15.05549 -5.03317)"/>
  <path d="M354.0781,73.78364l-.16565.83038h-.1a.8391.8391,0,0,0-.15476-.52758.41945.41945,0,0,0-.34939-.16471.36082.36082,0,0,0-.26659.09212.27723.27723,0,0,0-.09924.22165.37484.37484,0,0,0,.03987.17008,1.06026,1.06026,0,0,0,.172.22793,3.32277,3.32277,0,0,1,.4549.5783.7821.7821,0,0,1,.10319.36834.636.636,0,0,1-.23455.49869.806.806,0,0,1-.59246.21775,1.32953,1.32953,0,0,1-.44945-.09208.44941.44941,0,0,0-.13835-.032.18181.18181,0,0,0-.18371.12411H352.013l.16565-.87643h.10005a.89854.89854,0,0,0,.17039.58139.51759.51759,0,0,0,.42287.17093.43474.43474,0,0,0,.32672-.11546.35753.35753,0,0,0,.12035-.28259.455.455,0,0,0-.043-.19974,2.29617,2.29617,0,0,0-.31892-.44953,2.4153,2.4153,0,0,1-.31108-.43.64544.64544,0,0,1-.06954-.28644.565.565,0,0,1,.19154-.44406.66215.66215,0,0,1,.49165-.181.87146.87146,0,0,1,.15713.01322,1.80788,1.80788,0,0,1,.17743.06089.66211.66211,0,0,0,.18518.05309.2125.2125,0,0,0,.19544-.1272Z" transform="translate(-15.05549 -5.03317)"/>
  <line class="cls-11" x1="303.53788" y1="66.67092" x2="308.76598" y2="66.67092"/>
  <path d="M322.86089,68.31682h-.82616c-.122.59233-.01662,1.14038-.1109,1.57768-.04986.23819-.14413.42081-.38814.42081s-.23841-.24356-.19957-.43174c.061-.288.377-.86922.52118-1.56675h-.937c-.21623,1.03518-.183,1.2843-.25508,1.61648a.4357.4357,0,0,1-.3881.382c-.20517,0-.25508-.155-.21072-.35987.08316-.39859.58771-1.2179.67647-1.63862h-.44362a.68339.68339,0,0,0-.72629.58121h-.1553c.16632-.609.54891-1.04629,1.059-1.04629h2.484Z" transform="translate(-15.05549 -5.03317)"/>
  <path d="M321.99082,73.78364l-.16488.83038H321.725a.834.834,0,0,0-.154-.52758.41958.41958,0,0,0-.34943-.16471.36276.36276,0,0,0-.26731.09212.2789.2789,0,0,0-.09839.22165.3851.3851,0,0,0,.039.17008,1.1199,1.1199,0,0,0,.172.22793,3.23975,3.23975,0,0,1,.45491.5783.78049.78049,0,0,1,.10319.36834.63546.63546,0,0,1-.23456.49869.80531.80531,0,0,1-.59165.21775,1.3293,1.3293,0,0,1-.4494-.09208.46.46,0,0,0-.1384-.032.18273.18273,0,0,0-.18442.12411h-.1l.16493-.87643h.10086a.88792.88792,0,0,0,.17035.58139.51756.51756,0,0,0,.42287.17093.4344.4344,0,0,0,.326-.1155.3578.3578,0,0,0,.1211-.28255.45545.45545,0,0,0-.04373-.19978,2.28773,2.28773,0,0,0-.31811-.44953,2.38416,2.38416,0,0,1-.31189-.43.645.645,0,0,1-.06878-.28644.56444.56444,0,0,1,.19069-.44406.66372.66372,0,0,1,.49165-.181.87146.87146,0,0,1,.15713.01322,1.74,1.74,0,0,1,.17743.06089.66564.66564,0,0,0,.186.05309.21219.21219,0,0,0,.19464-.1272Z" transform="translate(-15.05549 -5.03317)"/>
  <path d="M314.29574,74.03182h-2.09007v-.11475a12.29252,12.29252,0,0,0,2.11194-2.19147,1.37148,1.37148,0,0,0,.23841-.77262.69112.69112,0,0,0-.19849-.5244.65907.65907,0,0,0-.51356-.20216.7884.7884,0,0,0-.71827.41669L313.017,70.594a1.33676,1.33676,0,0,1,.46119-.61966,1.065,1.065,0,0,1,.65653-.22088.93081.93081,0,0,1,.94422.9366,1.296,1.296,0,0,1-.09615.50415,2.93232,2.93232,0,0,1-.54792.80919,18.66808,18.66808,0,0,1-1.61953,1.58046h1.05283a.74539.74539,0,0,0,.41817-.10539.57666.57666,0,0,0,.23527-.28173h.12429Z" transform="translate(-15.05549 -5.03317)"/>
  <polyline class="cls-12" points="306.24 60.369 306.24 36.105 338.652 36.105 338.652 60.369"/>
  <line class="cls-10" x1="460.62355" y1="72.24344" x2="460.62355" y2="10.90864"/>
  <polyline points="461.76 11.692 460.61 7.404 459.459 11.692 461.76 11.692"/>
  <line class="cls-10" x1="404.55906" y1="60.50142" x2="515.40581" y2="60.50142"/>
  <polyline points="514.621 61.636 518.916 60.488 514.621 59.338 514.621 61.636"/>
  <line class="cls-10" x1="447.68613" y1="63.36161" x2="447.68613" y2="57.78264"/>
  <line class="cls-10" x1="436.62882" y1="63.36161" x2="436.62882" y2="57.78264"/>
  <line class="cls-10" x1="425.53952" y1="63.37433" x2="425.53952" y2="57.76911"/>
  <line class="cls-10" x1="473.35281" y1="63.36161" x2="473.35281" y2="57.78264"/>
  <line class="cls-10" x1="484.71264" y1="63.37433" x2="484.71264" y2="57.76911"/>
  <line class="cls-10" x1="496.86329" y1="63.37433" x2="496.86329" y2="57.76911"/>
  <path d="M479.42019,19.55186l-.80587,2.80212a1.49315,1.49315,0,0,0-.07039.35755.1575.1575,0,0,0,.06417.14123.6541.6541,0,0,0,.29929.06631l-.025.09212h-1.28977l.03518-.09212a.91832.91832,0,0,0,.27044-.0328.3553.3553,0,0,0,.15789-.12017,1.43485,1.43485,0,0,0,.16726-.41212l.58077-2.01265c.03517-.121.05475-.19123.05784-.2096a.69887.69887,0,0,0,.0078-.09713.18653.18653,0,0,0-.04768-.13773.16547.16547,0,0,0-.13051-.05,1.07394,1.07394,0,0,0-.20248.03011l-.0328-.08979.84337-.23532Z" transform="translate(-15.05549 -5.03317)"/>
  <path d="M479.05516,60.308a.47417.47417,0,0,0-.29468.114,1.22288,1.22288,0,0,0-.308.47368,6.11042,6.11042,0,0,0-.304.92711,5.28094,5.28094,0,0,0-.1876,1.26422.55711.55711,0,0,0,.11255.38873.334.334,0,0,0,.27278.12868.35248.35248,0,0,0,.26027-.09982,2.10857,2.10857,0,0,0,.49326-.92174,6.10193,6.10193,0,0,0,.33295-1.73486.60138.60138,0,0,0-.11255-.409A.32388.32388,0,0,0,479.05516,60.308Zm-.00313-.12958a.63978.63978,0,0,1,.54012.26686,1.29733,1.29733,0,0,1,.21883.84521,3.33675,3.33675,0,0,1-.1626,1.00991,2.79136,2.79136,0,0,1-.458.892,1.54083,1.54083,0,0,1-.49321.43013.76321.76321,0,0,1-.34863.07492.64212.64212,0,0,1-.544-.26776,1.29169,1.29169,0,0,1-.21883-.84682,3.17994,3.17994,0,0,1,.2204-1.15024,2.48477,2.48477,0,0,1,.65814-1.02478A.84275.84275,0,0,1,479.052,60.17839Z" transform="translate(-15.05549 -5.03317)"/>
  <path d="M539.3059,63.98774l-.24155.84045h.48618l-.05233.19509h-.48309l-.5322,1.82384a1.81241,1.81241,0,0,0-.08678.38013.11373.11373,0,0,0,.02424.08038.07518.07518,0,0,0,.05941.02813.35165.35165,0,0,0,.204-.10851,3.65861,3.65861,0,0,0,.33142-.38013l.10238.07733a2.19509,2.19509,0,0,1-.53851.58453.60944.60944,0,0,1-.3502.117.292.292,0,0,1-.22273-.085.27952.27952,0,0,1-.08679-.21775,2.0326,2.0326,0,0,1,.09925-.51042l.51665-1.78952h-.46741l.03127-.121a1.49365,1.49365,0,0,0,.56585-.27618,2.56446,2.56446,0,0,0,.50491-.63838Z" transform="translate(-15.05549 -5.03317)"/>
  <path d="M434.60728,77.11213h-2.09007v-.1147a12.27929,12.27929,0,0,0,2.11118-2.19147,1.365,1.365,0,0,0,.2384-.77262.69064.69064,0,0,0-.19777-.52444.6592.6592,0,0,0-.51432-.20212.79064.79064,0,0,0-.71831.41678l-.1078-.04924a1.33209,1.33209,0,0,1,.46113-.61961,1.065,1.065,0,0,1,.65653-.22089.93208.93208,0,0,1,.94423.93652,1.29446,1.29446,0,0,1-.09615.50414,2.95124,2.95124,0,0,1-.54793.80932,18.78576,18.78576,0,0,1-1.61953,1.58037h1.05288a.74725.74725,0,0,0,.41817-.10534.57713.57713,0,0,0,.23527-.28173h.12348Z" transform="translate(-15.05549 -5.03317)"/>
  <path d="M438.66942,74.397v-.08975a2.08869,2.08869,0,0,0,1.11766-.44563.68845.68845,0,0,0,.26659-.55953.53534.53534,0,0,0-.1548-.40352.48447.48447,0,0,0-.37515-.15919.70534.70534,0,0,0-.61594.43l-.11488-.03437a1.30518,1.30518,0,0,1,.41346-.54241.89446.89446,0,0,1,.55263-.18334.78691.78691,0,0,1,.59165.2177.70309.70309,0,0,1,.22591.55178.83475.83475,0,0,1-.21184.54712,1.74325,1.74325,0,0,1-.72925.46978,1.01875,1.01875,0,0,1,.48618.38165,1.04188,1.04188,0,0,1,.16417.59856,1.63683,1.63683,0,0,1-.83477,1.37435,1.65191,1.65191,0,0,1-.816.21148,1.03646,1.03646,0,0,1-.59094-.13576.24874.24874,0,0,1-.13361-.217.2404.2404,0,0,1,.0789-.185.25747.25747,0,0,1,.19387-.07728.54625.54625,0,0,1,.161.02424,2.13267,2.13267,0,0,1,.24311.12406,1.88336,1.88336,0,0,0,.30177.1436.69648.69648,0,0,0,.22272.03589.49306.49306,0,0,0,.46038-.32309,1.36424,1.36424,0,0,0,.18056-.68834,1.10238,1.10238,0,0,0-.12191-.52835.89344.89344,0,0,0-.38537-.37537A1.33755,1.33755,0,0,0,438.66942,74.397Z" transform="translate(-15.05549 -5.03317)"/>
  <path d="M443.36147,73.88974l-.18832.949h-.115a.94789.94789,0,0,0-.17658-.6025.48.48,0,0,0-.39944-.18885.41285.41285,0,0,0-.30481.10538.32119.32119,0,0,0-.11335.25365.43685.43685,0,0,0,.04534.19427,1.27509,1.27509,0,0,0,.19616.25992,3.69776,3.69776,0,0,1,.52054.66181.89152.89152,0,0,1,.11726.41983.72671.72671,0,0,1-.26731.5705.92056.92056,0,0,1-.67687.24894,1.52345,1.52345,0,0,1-.51352-.10533.51624.51624,0,0,0-.15789-.0367.2098.2098,0,0,0-.211.142h-.11412l.18836-1.00126h.11488a1.02015,1.02015,0,0,0,.1954.66415.58846.58846,0,0,0,.48228.19508.49841.49841,0,0,0,.37359-.13182.41148.41148,0,0,0,.13759-.32233.52785.52785,0,0,0-.04924-.22944,2.62027,2.62027,0,0,0-.36422-.51276,2.73244,2.73244,0,0,1-.35566-.49169.7316.7316,0,0,1-.079-.32775.64525.64525,0,0,1,.21807-.50728.75784.75784,0,0,1,.562-.20682.96641.96641,0,0,1,.17976.01563,1.88567,1.88567,0,0,1,.20243.06941.79742.79742,0,0,0,.2126.06008.24415.24415,0,0,0,.22273-.14517Z" transform="translate(-15.05549 -5.03317)"/>
  <path d="M509.99655,74.85982v-.08975a2.08919,2.08919,0,0,0,1.11775-.44558.68881.68881,0,0,0,.2665-.55962.53545.53545,0,0,0-.15475-.40347.48434.48434,0,0,0-.37516-.1592.70542.70542,0,0,0-.616.43l-.11488-.03437a1.30587,1.30587,0,0,1,.41351-.54241.89409.89409,0,0,1,.55258-.18339.78685.78685,0,0,1,.5917.21771.703.703,0,0,1,.22586.55177.83439.83439,0,0,1-.21179.54708,1.74259,1.74259,0,0,1-.72925.46982,1.01912,1.01912,0,0,1,.48618.38161,1.04247,1.04247,0,0,1,.16412.59864,1.637,1.637,0,0,1-.83477,1.37436,1.65259,1.65259,0,0,1-.816.21148,1.03669,1.03669,0,0,1-.59089-.13585.24855.24855,0,0,1-.13365-.2169.24078.24078,0,0,1,.0789-.185.25731.25731,0,0,1,.19387-.07725.54465.54465,0,0,1,.161.0242,2.131,2.131,0,0,1,.24311.12406,1.88975,1.88975,0,0,0,.30177.14361.69577.69577,0,0,0,.22277.03593.49324.49324,0,0,0,.46033-.32314,1.36576,1.36576,0,0,0,.18061-.68829,1.10419,1.10419,0,0,0-.122-.52839.89336.89336,0,0,0-.38533-.37538A1.3382,1.3382,0,0,0,509.99655,74.85982Z" transform="translate(-15.05549 -5.03317)"/>
  <path d="M514.68864,74.35258l-.18836.949h-.11488a.94809.94809,0,0,0-.17667-.60249.48.48,0,0,0-.39944-.18886.41316.41316,0,0,0-.30481.10534.32112.32112,0,0,0-.11335.25364.43708.43708,0,0,0,.04534.19437,1.27926,1.27926,0,0,0,.1962.25987,3.709,3.709,0,0,1,.52059.66177.89012.89012,0,0,1,.11721.41992.72663.72663,0,0,1-.26731.57046.92077.92077,0,0,1-.67687.249,1.524,1.524,0,0,1-.51356-.10538.51653.51653,0,0,0-.15789-.03665.20973.20973,0,0,0-.211.142h-.11412l.18836-1.00131h.11488a1.02073,1.02073,0,0,0,.19544.66411.58865.58865,0,0,0,.48224.19512.49862.49862,0,0,0,.37368-.13186.41155.41155,0,0,0,.13755-.32233.53108.53108,0,0,0-.04924-.22945,2.61982,2.61982,0,0,0-.36427-.5127,2.738,2.738,0,0,1-.35562-.49169.73326.73326,0,0,1-.079-.3278.64523.64523,0,0,1,.21811-.50728.75746.75746,0,0,1,.562-.20678.97061.97061,0,0,1,.17976.01555,1.89194,1.89194,0,0,1,.20248.06949.795.795,0,0,0,.2126.06008.24435.24435,0,0,0,.22277-.14512Z" transform="translate(-15.05549 -5.03317)"/>
  <path d="M457.48623,77.11841h-2.09007v-.11479a12.28022,12.28022,0,0,0,2.11113-2.19143,1.3646,1.3646,0,0,0,.23845-.77262.69067.69067,0,0,0-.19777-.52445.65954.65954,0,0,0-.51432-.20216.79058.79058,0,0,0-.71832.41678l-.10784-.04915a1.33181,1.33181,0,0,1,.46113-.61966,1.065,1.065,0,0,1,.65658-.22089.93216.93216,0,0,1,.94423.93652,1.296,1.296,0,0,1-.09616.5042,2.95475,2.95475,0,0,1-.54792.80927,18.77425,18.77425,0,0,1-1.61953,1.58037h1.05288a.74671.74671,0,0,0,.41817-.10538.57665.57665,0,0,0,.23522-.28174h.12353Z" transform="translate(-15.05549 -5.03317)"/>
  <path d="M462.8802,73.89682l-.18836.949H462.577a.94725.94725,0,0,0-.17667-.6025.47981.47981,0,0,0-.39939-.18885.413.413,0,0,0-.30486.10533.32108.32108,0,0,0-.11331.25364.43745.43745,0,0,0,.0453.19433,1.27813,1.27813,0,0,0,.1962.25991,3.70575,3.70575,0,0,1,.52059.66177.88994.88994,0,0,1,.11726.41987.72693.72693,0,0,1-.26736.57051.92093.92093,0,0,1-.67687.249,1.524,1.524,0,0,1-.51356-.10538.51593.51593,0,0,0-.15789-.0367.20966.20966,0,0,0-.211.14208h-.11412l.18832-1.00131h.115a1.019,1.019,0,0,0,.1954.66411.58834.58834,0,0,0,.48223.19512.49837.49837,0,0,0,.37363-.13186.41139.41139,0,0,0,.13756-.32233.53026.53026,0,0,0-.04924-.2294,2.61982,2.61982,0,0,0-.36423-.5128,2.736,2.736,0,0,1-.35566-.4916.732.732,0,0,1-.07895-.32784.64519.64519,0,0,1,.21807-.50728.75761.75761,0,0,1,.562-.20678.97474.97474,0,0,1,.17976.01559,1.91053,1.91053,0,0,1,.20248.06945.7961.7961,0,0,0,.2126.06013.24422.24422,0,0,0,.22277-.14517Z" transform="translate(-15.05549 -5.03317)"/>
  <path d="M489.27882,74.35881l-.18836.949h-.11492a.94765.94765,0,0,0-.17663-.60245.48.48,0,0,0-.39943-.1889.41307.41307,0,0,0-.30481.10534.32118.32118,0,0,0-.11336.25364.43715.43715,0,0,0,.04534.19437,1.27962,1.27962,0,0,0,.1962.25987,3.70353,3.70353,0,0,1,.52051.66182.89.89,0,0,1,.11725.41987.72685.72685,0,0,1-.26731.5705.92041.92041,0,0,1-.67687.24894,1.5237,1.5237,0,0,1-.51351-.10538.51769.51769,0,0,0-.1579-.03665.20957.20957,0,0,0-.211.142h-.11412l.18836-1.00131h.11488a1.02062,1.02062,0,0,0,.19544.66415.5883.5883,0,0,0,.48224.19508.49841.49841,0,0,0,.37363-.13186.41127.41127,0,0,0,.13756-.32228.52981.52981,0,0,0-.04924-.2295,2.61948,2.61948,0,0,0-.36423-.51275,2.73337,2.73337,0,0,1-.35566-.49165.73237.73237,0,0,1-.079-.32779.645.645,0,0,1,.21811-.50724.75734.75734,0,0,1,.562-.20682.97081.97081,0,0,1,.1798.01554,1.89116,1.89116,0,0,1,.20243.0695.79507.79507,0,0,0,.2126.06008.24419.24419,0,0,0,.22277-.14512Z" transform="translate(-15.05549 -5.03317)"/>
  <path class="cls-12" d="M528.47553,65.25008c-1.60475-1.02846-3.32639-2.20648-5.19925-1.14513-1.8009,1.01726-3.01346,2.83223-4.84232,3.81033-3.4,1.8173-6.93375-2.58527-9.30525-4.4049-1.41508-1.08527-3.09349-2.11857-4.95035-1.99a4.8791,4.8791,0,0,0-3.62972,2.27521c-1.85529,2.62451-2.33072,6.044-4.34611,8.55346a3.13675,3.13675,0,0,1-3.34319,1.29061c-1.65757-.5386-2.46518-2.59727-3.01185-4.07727a79.98057,79.98057,0,0,1-3.07987-10.22528c-1.84812-8.26495-2.90857-16.67293-4.88874-24.91225a35.8242,35.8242,0,0,0-1.9049-6.494,5.13361,5.13361,0,0,0-1.8617-2.50452,3.48587,3.48587,0,0,0-2.43234-.69609,4.30486,4.30486,0,0,0-2.48441.61051,4.747,4.747,0,0,0-1.86089,2.507,34.90736,34.90736,0,0,0-1.90015,6.49479c-1.95853,8.24094-3.04228,16.64569-4.896,24.909a80.06828,80.06828,0,0,1-3.07906,10.226c-.54586,1.48091-1.35424,3.53953-3.01423,4.071a3.13811,3.13811,0,0,1-3.34-1.28425c-2.01458-2.51017-2.48678-5.929-4.33406-8.55422A4.84777,4.84777,0,0,0,447.1519,61.431c-1.86332-.12635-3.54409.90856-4.96554,1.99625-2.37558,1.81811-5.91084,6.21512-9.31568,4.40257-1.82967-.97577-3.04228-2.79065-4.84067-3.81194-1.87452-1.06368-3.58017.12061-5.1721,1.17156" transform="translate(-15.05549 -5.03317)"/>
  <path d="M480.83671,16.94133a1.50142,1.50142,0,0,0,1.3438-1.253c.13939-.64556-.08249-1.14549-.74166-1.17085Zm.13943-2.42387a1.35357,1.35357,0,0,0-1.24236,1.17085c-.133.62019.10144,1.22148.81134,1.253Zm-.46266,2.60112c-.9,0-1.5973-.56329-1.41351-1.41764a1.94468,1.94468,0,0,1,1.89526-1.36064c.076-.41777.15211-.81653.23455-1.20885.0634-.30378.13312-.43031.36131-.43031s.24719.12653.18384.43031c-.08249.39232-.18384.79108-.28527,1.20885.79865.06326,1.50859.48094,1.32475,1.36064a2.03685,2.03685,0,0,1-2.022,1.41764l-.317,1.26575H480.298Z" transform="translate(-15.05549 -5.03317)"/>
  <path d="M484.83222,16.575l-.1415.71205h-.086a.716.716,0,0,0-.132-.45218.35962.35962,0,0,0-.29939-.14122.31023.31023,0,0,0-.229.07868.23991.23991,0,0,0-.08441.19015.3226.3226,0,0,0,.03365.14589.92249.92249,0,0,0,.14691.19472,2.797,2.797,0,0,1,.39.49635.66082.66082,0,0,1,.08831.31525.54331.54331,0,0,1-.20086.42771.68988.68988,0,0,1-.50728.187,1.15854,1.15854,0,0,1-.38533-.07886.37018.37018,0,0,0-.118-.02814.15682.15682,0,0,0-.1587.107h-.08526l.14145-.75165h.086a.76762.76762,0,0,0,.14616.49868.4438.4438,0,0,0,.36189.146.37414.37414,0,0,0,.27981-.09839.30972.30972,0,0,0,.104-.2423.38864.38864,0,0,0-.0375-.1717,1.95528,1.95528,0,0,0-.27282-.3847,2.09215,2.09215,0,0,1-.26731-.36874.56.56,0,0,1-.05865-.24589.481.481,0,0,1,.16341-.38.56515.56515,0,0,1,.4213-.15566.71321.71321,0,0,1,.13518.01165,1.58886,1.58886,0,0,1,.15166.05234.58747.58747,0,0,0,.15946.04516.18275.18275,0,0,0,.16722-.10915Z" transform="translate(-15.05549 -5.03317)"/>
  <path d="M486.59078,18.395l-.10552.04947a7.127,7.127,0,0,1-.52915-1.23967,2.95967,2.95967,0,0,1-.12348-.84718,3.40108,3.40108,0,0,1,.46113-1.7837,6.37366,6.37366,0,0,1,1.836-1.87967l.07429.10807a3.998,3.998,0,0,0-.93491.94943,5.74145,5.74145,0,0,0-.74018,1.5827,5.69872,5.69872,0,0,0-.28841,1.68808A3.46616,3.46616,0,0,0,486.59078,18.395Z" transform="translate(-15.05549 -5.03317)"/>
  <path d="M489.31633,13.52583l-.24155.8409h.48618l-.05233.19473h-.48309l-.53224,1.82429a1.81281,1.81281,0,0,0-.08675.38.11305.11305,0,0,0,.02424.08039.07443.07443,0,0,0,.05942.02769.353.353,0,0,0,.204-.10808,3.60968,3.60968,0,0,0,.33138-.38l.10243.07724a2.17987,2.17987,0,0,1-.53852.58408.60716.60716,0,0,1-.35019.11757.294.294,0,0,1-.22277-.08513.27946.27946,0,0,1-.08675-.21775,2.03973,2.03973,0,0,1,.09925-.51042l.51665-1.78988h-.46741l.03127-.12062a1.4869,1.4869,0,0,0,.56585-.27663,2.55366,2.55366,0,0,0,.50491-.63838Z" transform="translate(-15.05549 -5.03317)"/>
  <path d="M490.57629,12.75312l.10552-.05879a6.89342,6.89342,0,0,1,.52682,1.23654,2.90723,2.90723,0,0,1,.12662.84709,3.39474,3.39474,0,0,1-.46114,1.78369,6.4126,6.4126,0,0,1-1.83607,1.88281l-.07424-.09588a4.08128,4.08128,0,0,0,.93486-.94907,5.78391,5.78391,0,0,0,.74023-1.58422,5.74206,5.74206,0,0,0,.2876-1.6897A3.45028,3.45028,0,0,0,490.57629,12.75312Z" transform="translate(-15.05549 -5.03317)"/>
  <polygon points="329.717 4.133 330.704 5.793 330.49 5.793 329.677 4.435 328.865 5.793 328.647 5.793 329.647 4.133 329.717 4.133"/>
  <path d="M345.00875,16.31531a1.50163,1.50163,0,0,0,1.34376-1.25311c.13943-.64555-.0824-1.14549-.74162-1.17085Zm.13944-2.424a1.35345,1.35345,0,0,0-1.24236,1.17085c-.13312.62019.10139,1.22139.81133,1.25311Zm-.46275,2.60121c-.90005,0-1.59726-.56329-1.41347-1.41773a1.94461,1.94461,0,0,1,1.89517-1.36073c.07608-.41759.15216-.81635.23455-1.20867.06336-.30387.13312-.43049.36131-.43049s.24719.12662.18384.43049c-.08244.39232-.18384.791-.28523,1.20867.79861.06335,1.50855.481,1.32476,1.36073a2.03738,2.03738,0,0,1-2.022,1.41773l-.317,1.26566H344.47Z" transform="translate(-15.05549 -5.03317)"/>
  <path d="M349.00377,15.95176l-.14145.71142h-.086a.71628.71628,0,0,0-.1329-.452.359.359,0,0,0-.29934-.14123.30935.30935,0,0,0-.22828.07886.23785.23785,0,0,0-.08518.19006.32411.32411,0,0,0,.03361.146.96286.96286,0,0,0,.14776.19463,2.82389,2.82389,0,0,1,.39.496.67253.67253,0,0,1,.08835.31534.54544.54544,0,0,1-.20086.42762.69227.69227,0,0,1-.50733.18693,1.15007,1.15007,0,0,1-.38532-.07886.38158.38158,0,0,0-.11883-.02813.1567.1567,0,0,0-.15784.107h-.086l.14226-.7512h.08522a.76554.76554,0,0,0,.14692.49832.44133.44133,0,0,0,.36184.14589.37547.37547,0,0,0,.27986-.09822.30818.30818,0,0,0,.10318-.2423.3916.3916,0,0,0-.03754-.1717,1.92929,1.92929,0,0,0-.27278-.38478,2.02026,2.02026,0,0,1-.2665-.36839.55019.55019,0,0,1-.05941-.2458.48171.48171,0,0,1,.16412-.38013.56344.56344,0,0,1,.4213-.15521.7354.7354,0,0,1,.13447.01129,1.57186,1.57186,0,0,1,.15247.05225.57849.57849,0,0,0,.15865.04525.18369.18369,0,0,0,.16726-.10879Z" transform="translate(-15.05549 -5.03317)"/>
  <path d="M350.76242,17.77175l-.10552.0492a7.11735,7.11735,0,0,1-.52915-1.23931,2.95921,2.95921,0,0,1-.12429-.84682,3.40638,3.40638,0,0,1,.46118-1.78361,6.38248,6.38248,0,0,1,1.836-1.87931l.07424.10843a3.99436,3.99436,0,0,0-.93486.94861,5.77209,5.77209,0,0,0-.74022,1.5827,5.72349,5.72349,0,0,0-.28761,1.68764A3.45145,3.45145,0,0,0,350.76242,17.77175Z" transform="translate(-15.05549 -5.03317)"/>
  <path d="M354.38219,16.49256a.60136.60136,0,0,1-.61482-.53175.95364.95364,0,0,1-.84305.53175c-.69726,0-1.02049-.58865-.88105-1.25311a1.88455,1.88455,0,0,1,1.40715-1.52535c.04436,0,.08244.019.076.05072a2.11968,2.11968,0,0,0-.84937,1.37337c-.08244.37968-.13943,1.0885.355,1.0885a.56218.56218,0,0,0,.58314-.48094c.0634-.29115-.038-.595.04436-.9557a.41975.41975,0,0,1,.43734-.386c.25356,0,.336.14562.28528.386-.08244.36068-.31059.66455-.37395.9557a.37617.37617,0,0,0,.38031.48094c.49438,0,.74157-.70891.824-1.0885a1.295,1.295,0,0,0-.26623-1.37337c.00636-.03172.05708-.05072.10144-.05072.27891,0,.98244.43676.748,1.52535a1.53418,1.53418,0,0,1-1.41352,1.25311Z" transform="translate(-15.05549 -5.03317)"/>
  <path d="M356.9912,12.13086l.10552-.059a6.87882,6.87882,0,0,1,.526,1.23662,2.90036,2.90036,0,0,1,.12662.84664,3.38958,3.38958,0,0,1-.46114,1.78379,6.42362,6.42362,0,0,1-1.83531,1.882l-.07424-.09562a4.09809,4.09809,0,0,0,.93486-.949,5.75721,5.75721,0,0,0,.73942-1.58387,5.71851,5.71851,0,0,0,.28841-1.68933A3.4626,3.4626,0,0,0,356.9912,12.13086Z" transform="translate(-15.05549 -5.03317)"/>
  <line class="cls-10" x1="322.43091" y1="137.11378" x2="322.43091" y2="85.01253"/>
  <polyline points="323.568 85.796 322.418 81.508 321.267 85.796 323.568 85.796"/>
  <line class="cls-10" x1="268.26979" y1="134.85936" x2="377.23718" y2="134.85936"/>
  <polyline points="376.453 135.994 380.747 134.846 376.453 133.696 376.453 135.994"/>
  <path d="M402.59537,141.84514a.64865.64865,0,0,1-.66339-.57364,1.02848,1.02848,0,0,1-.90964.57364c-.75232,0-1.10108-.63507-.95063-1.35209a2.03356,2.03356,0,0,1,1.51832-1.64574c.04785,0,.08889.02052.08208.05466a2.28681,2.28681,0,0,0-.91649,1.48185c-.08894.4097-.15046,1.17452.383,1.17452a.60653.60653,0,0,0,.6292-.519c.06842-.31413-.041-.64192.0479-1.03114a.45263.45263,0,0,1,.47189-.41656c.27358,0,.36247.157.30777.41656-.0889.38922-.3351.717-.40352,1.03114a.406.406,0,0,0,.41037.519c.53341,0,.80018-.76478.88912-1.17452a1.3973,1.3973,0,0,0-.28729-1.48185c.00685-.03414.06156-.05466.10946-.05466.30091,0,1.06.47122.807,1.64574a1.65523,1.65523,0,0,1-1.52517,1.35209Z" transform="translate(-15.05549 -5.03317)"/>
  <line class="cls-11" x1="336.03741" y1="141.43403" x2="341.26632" y2="141.43403"/>
  <path d="M355.50761,142.90555H354.616c-.13163.63928-.018,1.23084-.11967,1.70287-.05386.257-.15561.45414-.41893.45414s-.25727-.263-.21542-.46606c.06577-.31073.40692-.93809.56253-1.69095h-1.01135c-.23339,1.11735-.19746,1.38623-.27524,1.74471a.47032.47032,0,0,1-.41893.4123c-.22142,0-.27528-.16735-.22738-.38842.08974-.43022.6343-1.31449.73005-1.76859h-.47874a.81288.81288,0,0,0-.78391.62736h-.16757c.17953-.65725.5925-1.12927,1.143-1.12927h2.681Z" transform="translate(-15.05549 -5.03317)"/>
  <path d="M354.565,148.33581l-.17824.89512H354.279a.90574.90574,0,0,0-.16645-.56889.45467.45467,0,0,0-.37677-.178.393.393,0,0,0-.28765.09911.30256.30256,0,0,0-.10709.23957.41335.41335,0,0,0,.04221.18343,1.23591,1.23591,0,0,0,.186.245,3.56179,3.56179,0,0,1,.49008.62356.83892.83892,0,0,1,.111.39724.68451.68451,0,0,1-.25244.53771.869.869,0,0,1-.6378.23491,1.45212,1.45212,0,0,1-.48466-.09906.47507.47507,0,0,0-.14929-.03513.19587.19587,0,0,0-.19844.13428h-.10789l.17819-.94512h.10789a.96355.96355,0,0,0,.18366.62669.55955.55955,0,0,0,.45571.1842.4697.4697,0,0,0,.35172-.12411.38772.38772,0,0,0,.13052-.30437.49477.49477,0,0,0-.04687-.21618,2.48887,2.48887,0,0,0-.34312-.4839,2.60859,2.60859,0,0,1-.33613-.46355.70435.70435,0,0,1-.07424-.309.609.609,0,0,1,.20557-.47843.71165.71165,0,0,1,.52991-.19509.92824.92824,0,0,1,.16963.014c.02733.00623.0915.02809.19155.06555a.72056.72056,0,0,0,.2.057.229.229,0,0,0,.21027-.13657Z" transform="translate(-15.05549 -5.03317)"/>
  <line class="cls-11" x1="303.50988" y1="141.43403" x2="308.73874" y2="141.43403"/>
  <path d="M322.97985,142.90555h-.89158c-.13168.63928-.018,1.23084-.11972,1.70287-.05386.257-.15556.45414-.41893.45414s-.25727-.263-.21538-.46606c.06582-.31073.40688-.93809.56253-1.69095h-1.01139c-.23339,1.11735-.19745,1.38623-.27528,1.74471a.47028.47028,0,0,1-.41888.4123c-.22143,0-.27529-.16735-.22744-.38842.08979-.43022.63436-1.31449.73011-1.76859h-.47875a.81277.81277,0,0,0-.78391.62736h-.16762c.17954-.65725.59246-1.12927,1.143-1.12927h2.681Z" transform="translate(-15.05549 -5.03317)"/>
  <path d="M322.03692,148.33581l-.17819.89512h-.10789a.8953.8953,0,0,0-.16645-.56889.45227.45227,0,0,0-.37672-.178.39429.39429,0,0,0-.28765.09911.302.302,0,0,0-.10632.23957.41258.41258,0,0,0,.04225.18343,1.19392,1.19392,0,0,0,.18518.245,3.57819,3.57819,0,0,1,.49088.62356.83942.83942,0,0,1,.111.39724.68718.68718,0,0,1-.25252.53771.8722.8722,0,0,1-.63857.23491,1.45557,1.45557,0,0,1-.48461-.09906.47334.47334,0,0,0-.14848-.03513.19516.19516,0,0,0-.19849.13428h-.10865l.17819-.94512h.10789a.96338.96338,0,0,0,.18446.62669.55814.55814,0,0,0,.45567.1842.47115.47115,0,0,0,.35172-.12411.38714.38714,0,0,0,.1298-.30437.49428.49428,0,0,0-.04695-.21618,2.45331,2.45331,0,0,0-.34312-.4839,2.54858,2.54858,0,0,1-.33533-.46355.69328.69328,0,0,1-.075-.309.60663.60663,0,0,1,.20633-.47843.70932.70932,0,0,1,.52991-.19509.928.928,0,0,1,.16963.014c.02662.00623.09069.02809.19074.06555a.73749.73749,0,0,0,.2001.057.229.229,0,0,0,.21023-.13657Z" transform="translate(-15.05549 -5.03317)"/>
  <path d="M314.23243,148.77051h-2.25267v-.12335a13.26575,13.26575,0,0,0,2.27606-2.36236,1.47909,1.47909,0,0,0,.25718-.83351.746.746,0,0,0-.21336-.565.714.714,0,0,0-.5542-.21776.85058.85058,0,0,0-.77459.44954l-.11645-.053a1.44222,1.44222,0,0,1,.49707-.66881,1.15067,1.15067,0,0,1,.70743-.238,1.00541,1.00541,0,0,1,1.01842,1.00986,1.39273,1.39273,0,0,1-.10394.54318,3.18007,3.18007,0,0,1-.5909.87334,20.25732,20.25732,0,0,1-1.74538,1.70287H313.772a.81015.81015,0,0,0,.45025-.11318.62549.62549,0,0,0,.254-.3036h.1337Z" transform="translate(-15.05549 -5.03317)"/>
  <path class="cls-12" d="M321.14337,139.89257V120.20846a11.1588,11.1588,0,0,0,3.67538-.75922,16.37853,16.37853,0,0,0,3.52406-3.09353c1.35187-1.49762,3.46408-5.6956,5.07285-7.0662.84839-.72082,2.76534-2.02905,4.07074-2.033,1.28546.004,3.20156,1.31862,4.03955,2.033,1.41827,1.18519,3.34,4.81657,4.52618,6.12641a28.4587,28.4587,0,0,0,4.58618,4.186,7.02483,7.02483,0,0,0,2.9166.60657v19.68411" transform="translate(-15.05549 -5.03317)"/>
  <line class="cls-10" x1="460.59788" y1="144.20237" x2="460.59788" y2="84.27329"/>
  <polyline points="461.734 85.056 460.584 80.768 459.433 85.056 461.734 85.056"/>
  <line class="cls-10" x1="404.55906" y1="134.10094" x2="514.46691" y2="134.10094"/>
  <polyline points="513.683 135.236 517.977 134.087 513.683 132.937 513.683 135.236"/>
  <path d="M536.70621,137.5877l-.2415.8405h.48618l-.05238.19513h-.483l-.53225,1.82389a1.818,1.818,0,0,0-.08678.38.114.114,0,0,0,.02424.08042.07487.07487,0,0,0,.05941.02809.35065.35065,0,0,0,.204-.10851,3.65068,3.65068,0,0,0,.33142-.38l.10238.07724a2.193,2.193,0,0,1-.53856.58453.60857.60857,0,0,1-.35015.11708.29231.29231,0,0,1-.22277-.085.27987.27987,0,0,1-.08675-.21776,2.03225,2.03225,0,0,1,.09925-.51042l.51669-1.78952h-.46741l.03128-.12093a1.494,1.494,0,0,0,.5658-.27631,2.56189,2.56189,0,0,0,.50495-.63839Z" transform="translate(-15.05549 -5.03317)"/>
  <path class="cls-13" d="M425.97282,139.05265c5.95-3.59463,8.54888-5.52377,10.82674-5.86343,1.41033-.23174,4.074,1.39214,5.64994.7896,5.33375-1.98676,7.863-15.69,12.57643-14.55835,8.364,2.0067-.69632,30.77968,8.11029,33.18116,5.96205,1.63033,13.0006-12.23193,16.19019-16.59134,2.61166-3.54029,4.55016-16.83674,8.93148-16.58982,7.59561.42435,4.30605,29.78711,12.14979,30.36013,5.052.35244,3.70258-17.452,10.54026-18.228,2.51564-.27654,3.77139,4.59514,5.2553,5.67082.72593.51387,1.22856.68247,3.85464,1.69422" transform="translate(-15.05549 -5.03317)"/>
  <path d="M343.96855,88.149l-.05632.20369h-.45177l-.34,1.35092a7.9805,7.9805,0,0,1-.45571,1.38134,2.33638,2.33638,0,0,1-.6995.95216.95774.95774,0,0,1-.56907.2014.45412.45412,0,0,1-.31575-.11165.23322.23322,0,0,1-.09615-.20055.21669.21669,0,0,1,.07895-.1717.265.265,0,0,1,.19306-.07258.19405.19405,0,0,1,.1415.05229.15453.15453,0,0,1,.057.12016.16464.16464,0,0,1-.06488.12721c-.03361.0289-.05.04995-.05.06478a.04737.04737,0,0,0,.02191.04293.13558.13558,0,0,0,.08674.02186.55314.55314,0,0,0,.27981-.08351.78616.78616,0,0,0,.26189-.249,1.869,1.869,0,0,0,.2165-.47681q.04335-.13.23209-.8569l.53856-2.09236h-.53856l.04377-.20364a1.20836,1.20836,0,0,0,.35876-.03594.42672.42672,0,0,0,.1876-.1358,2.06279,2.06279,0,0,0,.2212-.37538,3.07644,3.07644,0,0,1,.34939-.57521,1.69215,1.69215,0,0,1,.48144-.41284.98725.98725,0,0,1,.47524-.13732.54973.54973,0,0,1,.37753.1194.32044.32044,0,0,1,.143.2575.24559.24559,0,0,1-.0711.18267.23407.23407,0,0,1-.1829.07415.21476.21476,0,0,1-.15632-.05542.16577.16577,0,0,1-.06018-.13348.263.263,0,0,1,.03988-.12173.28244.28244,0,0,0,.04064-.09759.07273.07273,0,0,0-.02819-.06474.1886.1886,0,0,0-.118-.03043.52715.52715,0,0,0-.34935.12326,1.38326,1.38326,0,0,0-.3713.51275q-.08442.18261-.30638.9061Z" transform="translate(-15.05549 -5.03317)"/>
  <path d="M345.79916,91.27776a.321.321,0,0,0-.086-.23886.27621.27621,0,0,0-.21807-.0905q-.29309,0-.60966.48233a1.65674,1.65674,0,0,0-.31655.92245.38714.38714,0,0,0,.07657.26529.21824.21824,0,0,0,.1829.09216q.24154,0,.60653-.52216A1.63888,1.63888,0,0,0,345.79916,91.27776Zm.86134-1.64592-.79888,2.73541a1.394,1.394,0,0,0-.06483.29186.06122.06122,0,0,0,.01953.04449.05413.05413,0,0,0,.04064.0211.12556.12556,0,0,0,.07191-.03047,1.83923,1.83923,0,0,0,.265-.27783l.0789.04839a2.09943,2.09943,0,0,1-.33765.37537.49671.49671,0,0,1-.31968.14361.159.159,0,0,1-.12976-.05543.21617.21617,0,0,1-.05081-.15762,1.2352,1.2352,0,0,1,.06958-.35432l.09064-.288a2.6983,2.6983,0,0,1-.61351.71877.61279.61279,0,0,1-.36427.13657.374.374,0,0,1-.308-.15606.62755.62755,0,0,1-.13056-.42538,1.492,1.492,0,0,1,.22044-.7375,1.83934,1.83934,0,0,1,.58234-.63762.92842.92842,0,0,1,.5252-.19665.42956.42956,0,0,1,.21574.05072.61116.61116,0,0,1,.179.16936l.22747-.80694c.0164-.057.03047-.10224.0414-.13657a.54429.54429,0,0,0,.02814-.153.10112.10112,0,0,0-.03517-.08114.18461.18461,0,0,0-.125-.039,1.66635,1.66635,0,0,0-.17667.01559V89.7637Z" transform="translate(-15.05549 -5.03317)"/>
  <path d="M348.11035,91.85055l-.0789.0375a5.41768,5.41768,0,0,1-.39707-.92948,2.23277,2.23277,0,0,1-.09225-.6353,2.55325,2.55325,0,0,1,.34545-1.33766,4.78807,4.78807,0,0,1,1.37727-1.40948l.05547.08119a3.00274,3.00274,0,0,0-.70112.71177,4.76025,4.76025,0,0,0-.77065,2.45287A2.59629,2.59629,0,0,0,348.11035,91.85055Z" transform="translate(-15.05549 -5.03317)"/>
  <path d="M351.461,90.89624a.60117.60117,0,0,1-.61482-.53161.9531.9531,0,0,1-.843.53161c-.6973,0-1.02053-.58856-.88105-1.25306A1.88432,1.88432,0,0,1,350.5293,88.118c.0444,0,.08239.019.076.05063a2.11909,2.11909,0,0,0-.84937,1.37328c-.0824.37977-.13944,1.08859.35495,1.08859a.56209.56209,0,0,0,.58314-.481c.06335-.29115-.038-.59488.04431-.95566a.41982.41982,0,0,1,.43743-.386c.25351,0,.33591.14557.28519.386-.0824.36078-.31059.66451-.37395.95566a.37638.37638,0,0,0,.38031.481c.49442,0,.74166-.70886.824-1.08859a1.29483,1.29483,0,0,0-.26615-1.37328c.00632-.03168.057-.05063.1014-.05063.27887,0,.98244.43667.74793,1.52522a1.53383,1.53383,0,0,1-1.41347,1.25306Z" transform="translate(-15.05549 -5.03317)"/>
  <path d="M353.83969,87.6191l.07894-.04449a5.14761,5.14761,0,0,1,.39474.92715,2.18343,2.18343,0,0,1,.09534.6353,2.5446,2.5446,0,0,1-.34625,1.33761,4.79941,4.79941,0,0,1-1.37646,1.41182l-.05628-.07178a3.03154,3.03154,0,0,0,.70111-.71178,4.77677,4.77677,0,0,0,.77146-2.45524A2.58808,2.58808,0,0,0,353.83969,87.6191Z" transform="translate(-15.05549 -5.03317)"/>
  <path d="M357.2844,90.71908a1.50141,1.50141,0,0,0,1.34376-1.25311c.13943-.64555-.0824-1.14553-.74162-1.1708Zm.13948-2.424a1.35345,1.35345,0,0,0-1.24236,1.17085c-.13311.6202.1014,1.22144.81134,1.25307Zm-.46275,2.60112c-.9,0-1.59726-.56324-1.41347-1.41763a1.9445,1.9445,0,0,1,1.89522-1.36069c.076-.41772.15211-.8164.23451-1.2088.06336-.30378.13316-.43036.36131-.43036s.24724.12658.18384.43036c-.0824.3924-.18384.79108-.28523,1.2088.79865.06331,1.50859.481,1.32475,1.36069a2.03715,2.03715,0,0,1-2.022,1.41763l-.317,1.2658h-.17747Z" transform="translate(-15.05549 -5.03317)"/>
  <path d="M361.2792,90.83056l-.1415.71173h-.086a.71231.71231,0,0,0-.132-.45186.36072.36072,0,0,0-.29935-.142.31255.31255,0,0,0-.229.07881.24184.24184,0,0,0-.08445.19042.32313.32313,0,0,0,.03365.14593.93.93,0,0,0,.14691.19513,2.80263,2.80263,0,0,1,.39.49559.66013.66013,0,0,1,.08831.3153.54255.54255,0,0,1-.20086.42766.68721.68721,0,0,1-.50728.18653,1.13508,1.13508,0,0,1-.38533-.07882.3902.3902,0,0,0-.118-.02733.15565.15565,0,0,0-.15789.10615h-.086l.14145-.75076h.086a.76922.76922,0,0,0,.14615.49868.44544.44544,0,0,0,.36194.14593.37122.37122,0,0,0,.27981-.09911.30783.30783,0,0,0,.10395-.242.39222.39222,0,0,0-.0375-.17169,1.95567,1.95567,0,0,0-.27282-.38474,2.09921,2.09921,0,0,1-.26731-.36835.5601.5601,0,0,1-.05861-.24584.48169.48169,0,0,1,.16336-.38.56485.56485,0,0,1,.42131-.15534.702.702,0,0,1,.1345.01169,1.42447,1.42447,0,0,1,.15239.05229.59738.59738,0,0,0,.1587.04449.18109.18109,0,0,0,.16725-.10847Z" transform="translate(-15.05549 -5.03317)"/>
  <path d="M362.5626,92.17525l-.10547.04992a7.14391,7.14391,0,0,1-.5292-1.23927,2.96424,2.96424,0,0,1-.12429-.84758,3.40665,3.40665,0,0,1,.46114-1.78329,6.38465,6.38465,0,0,1,1.83607-1.87927l.07424.10847a3.99835,3.99835,0,0,0-.93486.949,6.33915,6.33915,0,0,0-1.02783,3.27A3.45,3.45,0,0,0,362.5626,92.17525Z" transform="translate(-15.05549 -5.03317)"/>
  <path d="M366.18237,90.89624a.60115.60115,0,0,1-.61486-.53161.95322.95322,0,0,1-.843.53161c-.69721,0-1.02052-.58856-.88105-1.25306a1.88448,1.88448,0,0,1,1.4072-1.52522c.04432,0,.0824.019.076.05063a2.11925,2.11925,0,0,0-.84937,1.37328c-.0824.37977-.13939,1.08859.35495,1.08859a.56209.56209,0,0,0,.58314-.481c.0634-.29115-.038-.59488.04435-.95566a.41966.41966,0,0,1,.43739-.386c.25351,0,.33591.14557.28523.386-.08248.36078-.31059.66451-.37394.95566a.37632.37632,0,0,0,.38026.481c.49447,0,.74166-.70886.82406-1.08859a1.29478,1.29478,0,0,0-.26623-1.37328c.00636-.03168.05708-.05063.10139-.05063.27891,0,.98249.43667.748,1.52522a1.53384,1.53384,0,0,1-1.41347,1.25306Z" transform="translate(-15.05549 -5.03317)"/>
  <path d="M368.79138,86.53427l.10551-.05851a6.90023,6.90023,0,0,1,.52606,1.23618,2.90882,2.90882,0,0,1,.12662.84758,3.38966,3.38966,0,0,1-.46118,1.78329,6.4288,6.4288,0,0,1-1.83531,1.88236l-.0742-.096a4.08756,4.08756,0,0,0,.93482-.949,6.4881,6.4881,0,0,0,1.02783-3.27316A3.46764,3.46764,0,0,0,368.79138,86.53427Z" transform="translate(-15.05549 -5.03317)"/>
  <polygon points="328.987 78.603 329.974 80.263 329.76 80.263 328.947 78.905 328.135 80.263 327.917 80.263 328.918 78.603 328.987 78.603"/>
  <polygon points="341.858 78.603 342.845 80.263 342.631 80.263 341.818 78.905 341.006 80.263 340.787 80.263 341.788 78.603 341.858 78.603"/>
  <path d="M489.49443,88.59366c.00716-.012.05125-.05838.06962-.05838a4.13874,4.13874,0,0,1,.31615.33245c.18572.20942.373.41638.56584.61061.02644.03275.04405.03275.05126.03275a.06319.06319,0,0,0,.07044-.07191c0-.0328-.2001-.38443-.38573-.71608-.12806-.235-.16569-.31485-.2514-.46987l1.12057-.52109c.08966-.04637.09683-.0711.09683-.09749a.05974.05974,0,0,0-.07124-.06551c-.00717,0-.32094.05991-1.287.25494l-.14727-1.22515c-.01362-.11829-.02-.14383-.07846-.14383-.05125,0-.06962.03195-.08248.14383l-.14244,1.22515-1.18935-.24056a.51622.51622,0,0,0-.09607-.01438.06026.06026,0,0,0-.07124.06551c0,.05112.032.06555.104.09749l1.119.52109-.5995,1.08124c-.0384.07993-.044.08553-.044.10471a.062.062,0,0,0,.07048.07191c.012,0,.0328,0,.09682-.07191l.76514-.84552" transform="translate(-15.05549 -5.03317)"/>
  <path d="M484.8345,86.72864l-.05551.20368h-.45177l-.34079,1.35093a8.05767,8.05767,0,0,1-.45491,1.38134,2.35059,2.35059,0,0,1-.69954.95216.95979.95979,0,0,1-.56979.2014.45394.45394,0,0,1-.31583-.11166.233.233,0,0,1-.09611-.20054.21654.21654,0,0,1,.07894-.17174.26562.26562,0,0,1,.19383-.07259.19319.19319,0,0,1,.14069.05229.15163.15163,0,0,1,.05708.12021.16483.16483,0,0,1-.06488.12716c-.03284.02894-.04924.05-.04924.06479a.04678.04678,0,0,0,.02111.04292.13526.13526,0,0,0,.08674.02187.55612.55612,0,0,0,.28062-.08348.78426.78426,0,0,0,.261-.249,1.87027,1.87027,0,0,0,.21654-.47682q.04335-.13.2329-.85694l.53856-2.09232h-.53856l.043-.20368a1.20816,1.20816,0,0,0,.35876-.03593.42157.42157,0,0,0,.1876-.13581,2.0174,2.0174,0,0,0,.2212-.37538,3.01939,3.01939,0,0,1,.35016-.57516,1.67217,1.67217,0,0,1,.48147-.41284.98485.98485,0,0,1,.47525-.13737.55253.55253,0,0,1,.37749.11941.3222.3222,0,0,1,.1423.25754.24624.24624,0,0,1-.07115.18267.23414.23414,0,0,1-.1829.0741.21621.21621,0,0,1-.15632-.05542.16886.16886,0,0,1-.06022-.13347.26372.26372,0,0,1,.03988-.12174.26409.26409,0,0,0,.04068-.09754.07314.07314,0,0,0-.02814-.06479.18609.18609,0,0,0-.11725-.03042.528.528,0,0,0-.3502.1233,1.38128,1.38128,0,0,0-.37126.51275q-.08326.18261-.30638.9061Z" transform="translate(-15.05549 -5.03317)"/>
  <path d="M486.66426,89.859a.32061.32061,0,0,0-.086-.23881.276.276,0,0,0-.21807-.09056q-.29189,0-.60967.48229a1.657,1.657,0,0,0-.31654.92249.39185.39185,0,0,0,.07661.26534.21846.21846,0,0,0,.18366.09208q.24033,0,.60577-.52208A1.63307,1.63307,0,0,0,486.66426,89.859Zm.86138-1.646-.79883,2.73541a1.39458,1.39458,0,0,0-.06488.2919.06507.06507,0,0,0,.01953.0445.0557.0557,0,0,0,.04064.02105.12517.12517,0,0,0,.07191-.03046,1.799,1.799,0,0,0,.265-.2778l.0789.04839a2.06355,2.06355,0,0,1-.33765.37538.49674.49674,0,0,1-.31964.1436.16041.16041,0,0,1-.1298-.05542.22.22,0,0,1-.05076-.15767,1.26512,1.26512,0,0,1,.06958-.35428l.09064-.288a2.69687,2.69687,0,0,1-.61276.71876.61631.61631,0,0,1-.365.13661.37379.37379,0,0,1-.30718-.1561.6232.6232,0,0,1-.13132-.42533,1.4909,1.4909,0,0,1,.22044-.7375,1.841,1.841,0,0,1,.58309-.63758.92441.92441,0,0,1,.52445-.19674.42994.42994,0,0,1,.21569.05077.60048.60048,0,0,1,.179.16936l.22743-.807c.01721-.057.03128-.10224.04145-.13656a.54282.54282,0,0,0,.02814-.153.10119.10119,0,0,0-.03522-.08119.18449.18449,0,0,0-.125-.039,1.67418,1.67418,0,0,0-.17666.01564V88.3449Z" transform="translate(-15.05549 -5.03317)"/>
  <path d="M494.44877,89.29988a1.50142,1.50142,0,0,0,1.34375-1.25307c.13943-.64555-.0824-1.14554-.74157-1.17081Zm.13948-2.42388a1.35337,1.35337,0,0,0-1.24236,1.17081c-.13312.62019.10143,1.22144.81133,1.25307Zm-.46275,2.60113c-.9001,0-1.59727-.56334-1.41343-1.41768a1.9445,1.9445,0,0,1,1.89522-1.3607c.076-.41767.15211-.81639.23451-1.2088.06335-.30378.13307-.43035.36131-.43035s.24723.12657.18379.43035c-.08235.39241-.18379.79113-.28519,1.2088.79861.06331,1.5086.481,1.32472,1.3607a2.037,2.037,0,0,1-2.022,1.41768l-.317,1.26575H493.91Z" transform="translate(-15.05549 -5.03317)"/>
  <path d="M498.44333,89.41171l-.14145.71182h-.086a.71246.71246,0,0,0-.132-.4519.36109.36109,0,0,0-.30015-.142.31179.31179,0,0,0-.22824.07882.24234.24234,0,0,0-.08517.19042.33284.33284,0,0,0,.0336.146.974.974,0,0,0,.14772.19509,2.84416,2.84416,0,0,1,.39.49554.66987.66987,0,0,1,.08832.3153.54568.54568,0,0,1-.20087.42771.68879.68879,0,0,1-.50728.18652,1.13066,1.13066,0,0,1-.38537-.07885.38849.38849,0,0,0-.11878-.02729.15636.15636,0,0,0-.15785.10614h-.08522l.14145-.7508h.086a.76856.76856,0,0,0,.14616.49868.44554.44554,0,0,0,.36189.146.37158.37158,0,0,0,.27985-.09911.30732.30732,0,0,0,.10319-.242.4032.4032,0,0,0-.03674-.17169,1.9925,1.9925,0,0,0-.27282-.38479,2.05654,2.05654,0,0,1-.26731-.36834.56069.56069,0,0,1-.05941-.24581.48209.48209,0,0,1,.16417-.38008.56345.56345,0,0,1,.42126-.15534.70872.70872,0,0,1,.1345.01174,1.41571,1.41571,0,0,1,.15243.05229.59776.59776,0,0,0,.1587.04449.182.182,0,0,0,.16721-.10852Z" transform="translate(-15.05549 -5.03317)"/>
  <path d="M499.72678,90.75565l-.10552.04995a7.15753,7.15753,0,0,1-.52915-1.23931,2.96119,2.96119,0,0,1-.12429-.84758,3.39893,3.39893,0,0,1,.462-1.78329,6.37964,6.37964,0,0,1,1.83531-1.87927l.07424.10847a4.013,4.013,0,0,0-.93486.949,6.47139,6.47139,0,0,0-1.02783,3.27A3.44915,3.44915,0,0,0,499.72678,90.75565Z" transform="translate(-15.05549 -5.03317)"/>
  <path d="M502.45152,85.88809l-.24154.84055h.48618l-.05233.19432h-.483l-.53309,1.82389a1.85223,1.85223,0,0,0-.086.38.11378.11378,0,0,0,.02424.08042.07244.07244,0,0,0,.05941.028.35371.35371,0,0,0,.204-.10847,3.77161,3.77161,0,0,0,.33142-.38l.10162.07724a2.18112,2.18112,0,0,1-.53852.58453.60647.60647,0,0,1-.34939.117.2908.2908,0,0,1-.22277-.085.27992.27992,0,0,1-.08674-.2178,2.06657,2.06657,0,0,1,.09843-.51038l.51746-1.78952h-.46741l.03051-.12017a1.48624,1.48624,0,0,0,.5667-.27707,2.55568,2.55568,0,0,0,.50491-.63763Z" transform="translate(-15.05549 -5.03317)"/>
  <path d="M503.71149,85.11467l.10556-.05852a6.84861,6.84861,0,0,1,.526,1.23622,2.90455,2.90455,0,0,1,.12739.84754,3.39139,3.39139,0,0,1-.4619,1.78329,6.40765,6.40765,0,0,1-1.83536,1.88236l-.07424-.096a4.08792,4.08792,0,0,0,.93486-.949,6.48917,6.48917,0,0,0,1.02783-3.27311A3.45341,3.45341,0,0,0,503.71149,85.11467Z" transform="translate(-15.05549 -5.03317)"/>
  <line class="cls-14" x1="133.51447" y1="67.69979" x2="133.51447" y2="82.98841"/>
  <path d="M148.57,86.18556l3.69128-2.2417.08352.1259-2.39063,6.00968q-.69185,3.14076-1.38417,6.28139-.69183-3.14076-1.38417-6.28139l-2.39063-6.00968.063-.1259Z" transform="translate(-15.05549 -5.03317)"/>
  <line class="cls-14" x1="397.41764" y1="67.69979" x2="397.41764" y2="82.98841"/>
  <path d="M412.47313,86.18556l3.69128-2.2417.08356.1259-2.39067,6.00968q-.69183,3.14076-1.38417,6.28139-.69183-3.14076-1.38421-6.28139l-2.39059-6.00968.063-.1259Z" transform="translate(-15.05549 -5.03317)"/>
  <line class="cls-14" x1="255.5636" y1="112.07239" x2="273.30778" y2="43.93746"/>
  <path d="M287.90052,50.7477,283.763,51.98961l-.04911-.14275,3.82843-5.2156q1.46116-2.86575,2.92283-5.7314-.12213,3.21348-.24361,6.42705l.799,6.417-.09275.106Z" transform="translate(-15.05549 -5.03317)"/>
</svg>
