<svg id="图层_1" data-name="图层 1" xmlns="http://www.w3.org/2000/svg" viewBox="0 0 324.6656 54.374">
  <defs>
    <style>
      .cls-1 {
        fill: #231815;
      }

      .cls-2 {
        fill: none;
        stroke: #231f20;
        stroke-miterlimit: 10;
        stroke-width: 0.374px;
      }

      .cls-3, .cls-4 {
        fill: #231f20;
      }

      .cls-3 {
        fill-rule: evenodd;
      }

      .cls-5 {
        fill: #009245;
      }

      .cls-6 {
        fill: #005437;
        opacity: 0.6;
      }
    </style>
  </defs>
  <title>[OPTSx84a2]_Butterfly_Operation</title>
  <path class="cls-1" d="M237.64746,161.98438a1.88772,1.88772,0,0,1,.208.48046,6.57364,6.57364,0,0,1,.11523.877l.19434,2.17578q.26514-.31934.76953-1.00781.24316-.33692.60156-.916a3.11746,3.11746,0,0,0,.26465-.49512.41233.41233,0,0,0,.02637-.1455.109.109,0,0,0-.03027-.08008.47332.47332,0,0,0-.16211-.07227.43322.43322,0,0,1-.21582-.15527.41372.41372,0,0,1-.08692-.25879.40265.40265,0,0,1,.10645-.291.35088.35088,0,0,1,.26562-.11132.421.421,0,0,1,.33106.1621.66192.66192,0,0,1,.13769.44336,1.74257,1.74257,0,0,1-.23926.79883,13.08309,13.08309,0,0,1-.91992,1.377q-.67968.92871-1.64844,2.02539a5.47557,5.47557,0,0,1-.99023.95214,1.11071,1.11071,0,0,1-.55273.19629.35384.35384,0,0,1-.34473-.34375.43224.43224,0,0,1,.14355-.31445.43953.43953,0,0,1,.31153-.1416.24377.24377,0,0,1,.14551.04.27609.27609,0,0,1,.07714.126.43543.43543,0,0,0,.07813.13965.07548.07548,0,0,0,.05273.02149.21822.21822,0,0,0,.09278-.04395,3.29169,3.29169,0,0,0,.5664-.47754,7.47567,7.47567,0,0,0,.627-.707l-.24707-2.80371a1.95813,1.95813,0,0,0-.18555-.84473.51414.51414,0,0,0-.416-.15039c-.06152,0-.17187.00977-.33105.02735l-.04-.16407Z" transform="translate(-106.354 -116.11903)"/>
  <path class="cls-1" d="M242.88455,157.39807v4.87512h.7576v.32386h-1.26071v-5.52283h1.26071v.32385Zm2.57294,4.17536c-.93689,0-1.39374-.9311-1.39374-1.98938,0-1.041.47421-1.98359,1.39374-1.98359.90793,0,1.38214.94263,1.38214,1.98359C246.83963,160.64233,246.33652,161.57343,245.45749,161.57343Zm0-3.74744c-.63617,0-.67664,1.08722-.67664,1.75806,0,.80963.0694,1.76385.665,1.76385.47425,0,.67664-.95422.67664-1.76385C246.12253,158.91321,246.08206,157.826,245.45749,157.826Zm3.07733,4.77106h-1.26071v-.32386h.7576v-4.87512h-.7576v-.32385h1.26071Z" transform="translate(-106.354 -116.11903)"/>
  <path class="cls-1" d="M242.93848,164.75586l-.80274,2.77832.32227-.27441a4.73216,4.73216,0,0,0,.68652-.66114.21454.21454,0,0,0,.05078-.10742.077.077,0,0,0-.0166-.04785.1237.1237,0,0,0-.06641-.03711.71264.71264,0,0,0-.17382-.01367h-.09864l.03125-.10742h1.23438l-.02832.10742a1.29051,1.29051,0,0,0-.36524.0664,1.16252,1.16252,0,0,0-.29882.16211q-.28565.21241-.376.29395l-.24316.21484q.063.20362.15332.56836a5.97645,5.97645,0,0,0,.20605.71778c.03613.07519.07227.11328.11035.11328a.19711.19711,0,0,0,.11328-.04883,1.50287,1.50287,0,0,0,.31348-.3418l.09863.07031a3.114,3.114,0,0,1-.47168.51075.51535.51535,0,0,1-.2998.123.2114.2114,0,0,1-.1836-.09277,6.48658,6.48658,0,0,1-.376-1.31445l-.3877.33593-.291,1.00391h-.44043l.93847-3.22461.07911-.27539a.68535.68535,0,0,0,.01367-.124.14269.14269,0,0,0-.05176-.11231.221.221,0,0,0-.15137-.0459,1.20242,1.20242,0,0,0-.20605.02832v-.09863Z" transform="translate(-106.354 -116.11903)"/>
  <path class="cls-1" d="M258.5249,161.98438l-.0664.22558a1.58058,1.58058,0,0,0-1.43067,1.02149,4.31977,4.31977,0,0,0-.46191,1.8125.86891.86891,0,0,0,.16211.56543.5256.5256,0,0,0,.43066.19921q.64161,0,1.2207-1.01171c-.01562-.2129-.02246-.377-.02246-.4961a3.03011,3.03011,0,0,1,.20313-1.17383q.20361-.48339.50879-.4834a.26968.26968,0,0,1,.30078.30958,4.21725,4.21725,0,0,1-.7959,1.88281q.09667.9375.76465.9375.66357,0,1.08105-.92774a4.26826,4.26826,0,0,0,.418-1.74218.83477.83477,0,0,0-.83984-.89356l.04785-.18066a1.44685,1.44685,0,0,1,1.48145,1.51172,2.9943,2.9943,0,0,1-.58106,1.7041,1.73767,1.73767,0,0,1-1.47949.84668.97725.97725,0,0,1-1.05664-1.00391q-.605,1.00488-1.35254,1.00391a1.10149,1.10149,0,0,1-.86231-.37793,1.54872,1.54872,0,0,1-.33593-1.06348,2.8904,2.8904,0,0,1,.24316-1.14941,2.46617,2.46617,0,0,1,.67383-.92871,2.31121,2.31121,0,0,1,.80273-.47071A3.65487,3.65487,0,0,1,258.5249,161.98438Z" transform="translate(-106.354 -116.11903)"/>
  <path class="cls-1" d="M264.12988,158.67969l-.80273,2.77929.32226-.27539a4.79538,4.79538,0,0,0,.68653-.66015.2182.2182,0,0,0,.05078-.10742.07775.07775,0,0,0-.0166-.04883.13032.13032,0,0,0-.06641-.03711.76712.76712,0,0,0-.17383-.01367h-.09863l.03125-.10743h1.23438l-.02833.10743a1.29015,1.29015,0,0,0-.36523.0664,1.193,1.193,0,0,0-.29883.16211c-.19043.14258-.31543.24024-.376.29492l-.24317.21485q.063.20214.15332.56836a5.92969,5.92969,0,0,0,.20606.71679c.03613.07618.07226.11329.11035.11329a.20148.20148,0,0,0,.11328-.04786,1.50279,1.50279,0,0,0,.31348-.34179l.09863.07031a3.11423,3.11423,0,0,1-.47168.51074.51543.51543,0,0,1-.29981.12305.21.21,0,0,1-.18359-.09375,6.46385,6.46385,0,0,1-.376-1.31445l-.38769.33593-.291,1.00391h-.44043l.93848-3.22461.0791-.27441a.69378.69378,0,0,0,.01367-.124.146.146,0,0,0-.05175-.11328.226.226,0,0,0-.15137-.04492,1.28027,1.28027,0,0,0-.20606.02734v-.09765Z" transform="translate(-106.354 -116.11903)"/>
  <path class="cls-1" d="M263.25293,165.81934l-.376,1.28613a6.05208,6.05208,0,0,1,.80957-1.03711.83616.83616,0,0,1,.542-.249.30976.30976,0,0,1,.23242.09277.3315.3315,0,0,1,.09179.24316,1.74412,1.74412,0,0,1-.08105.45215l-.3457,1.18946a1.495,1.495,0,0,0-.0586.252.09455.09455,0,0,0,.02246.0664.06491.06491,0,0,0,.04786.02735.14151.14151,0,0,0,.082-.03711,1.90326,1.90326,0,0,0,.32812-.36133l.08692.05274a2.09655,2.09655,0,0,1-.49707.5371.54093.54093,0,0,1-.29395.11133.22289.22289,0,0,1-.167-.06445.23509.23509,0,0,1-.06153-.1709,1.94536,1.94536,0,0,1,.09571-.46582l.32812-1.13672a1.27631,1.27631,0,0,0,.06153-.33008.12062.12062,0,0,0-.03614-.09179.126.126,0,0,0-.09082-.03516.37439.37439,0,0,0-.18945.06738,1.69892,1.69892,0,0,0-.43457.41895,5.95272,5.95272,0,0,0-.47852.74805,2.7609,2.7609,0,0,0-.21972.52539l-.1416.46679h-.42383l.51465-1.76953a2.357,2.357,0,0,0,.08984-.38476.14724.14724,0,0,0-.04883-.1084.17619.17619,0,0,0-.123-.0459c-.02246,0-.0625.00391-.11914.01074l-.10742.0166-.0166-.10156Z" transform="translate(-106.354 -116.11903)"/>
  <path class="cls-1" d="M268.10156,161.98438a1.88772,1.88772,0,0,1,.208.48046,6.57191,6.57191,0,0,1,.11523.877l.19434,2.17578q.26514-.31934.76953-1.00781.24316-.33692.60156-.916a3.11659,3.11659,0,0,0,.26465-.49512.41233.41233,0,0,0,.02637-.1455.109.109,0,0,0-.03027-.08008.47332.47332,0,0,0-.16211-.07227.43322.43322,0,0,1-.21582-.15527.41372.41372,0,0,1-.08692-.25879.4027.4027,0,0,1,.10645-.291.35088.35088,0,0,1,.26562-.11132.421.421,0,0,1,.33106.1621.66192.66192,0,0,1,.13769.44336,1.74254,1.74254,0,0,1-.23925.79883,13.082,13.082,0,0,1-.91993,1.377q-.67968.92871-1.64843,2.02539a5.47552,5.47552,0,0,1-.99024.95214,1.11071,1.11071,0,0,1-.55273.19629.35386.35386,0,0,1-.34473-.34375.43221.43221,0,0,1,.14356-.31445.43949.43949,0,0,1,.31152-.1416.24377.24377,0,0,1,.14551.04.27617.27617,0,0,1,.07715.126.43564.43564,0,0,0,.07812.13965.07548.07548,0,0,0,.05273.02149.21822.21822,0,0,0,.09278-.04395,3.29169,3.29169,0,0,0,.5664-.47754,7.47567,7.47567,0,0,0,.627-.707l-.24707-2.80371a1.95813,1.95813,0,0,0-.18555-.84473.51414.51414,0,0,0-.416-.15039c-.06152,0-.17187.00977-.33105.02735l-.04-.16407Z" transform="translate(-106.354 -116.11903)"/>
  <path class="cls-1" d="M273.3392,157.39807v4.87512h.7576v.32386h-1.26072v-5.52283h1.26072v.32385Zm1.72281,4.106v-.16193c.43374-.0058.57254.0058.57254-.69977v-2.2149c0-.16773-.0116-.30652-.18506-.30652a1.12133,1.12133,0,0,0-.39325.11566l-.06363-.15613,1.12192-.48h.14459v3.04187c0,.70557.133.69977.57251.69977v.16193Zm3.92746,1.093h-1.26072v-.32386h.7576v-4.87512h-.7576v-.32385h1.26072Z" transform="translate(-106.354 -116.11903)"/>
  <path class="cls-1" d="M273.39258,164.75586l-.80274,2.77832.32227-.27441a4.73216,4.73216,0,0,0,.68652-.66114.21454.21454,0,0,0,.05078-.10742.077.077,0,0,0-.0166-.04785.12371.12371,0,0,0-.0664-.03711.71274.71274,0,0,0-.17383-.01367H273.294l.03125-.10742h1.23437l-.02832.10742a1.29043,1.29043,0,0,0-.36523.0664,1.16241,1.16241,0,0,0-.29883.16211q-.28564.21241-.376.29395l-.24316.21484q.063.20362.15332.56836a5.97645,5.97645,0,0,0,.20605.71778c.03613.07519.07227.11328.11035.11328a.19711.19711,0,0,0,.11328-.04883,1.50287,1.50287,0,0,0,.31348-.3418l.09863.07031a3.11352,3.11352,0,0,1-.47168.51075.51535.51535,0,0,1-.2998.123.21137.21137,0,0,1-.18359-.09277,6.48553,6.48553,0,0,1-.376-1.31445l-.3877.33593-.291,1.00391H271.793l.93848-3.22461.0791-.27539a.68445.68445,0,0,0,.01367-.124.14269.14269,0,0,0-.05176-.11231.221.221,0,0,0-.15137-.0459,1.20242,1.20242,0,0,0-.20605.02832v-.09863Z" transform="translate(-106.354 -116.11903)"/>
  <path class="cls-1" d="M237.6665,121.48145a1.88209,1.88209,0,0,1,.208.47949,6.59515,6.59515,0,0,1,.11524.87793l.19433,2.1748q.26514-.31786.76953-1.00781.24317-.33545.60157-.915a3.11713,3.11713,0,0,0,.26464-.49512.41233.41233,0,0,0,.02637-.1455.10747.10747,0,0,0-.03027-.08008.48835.48835,0,0,0-.16211-.07324.42563.42563,0,0,1-.21582-.1543.41372.41372,0,0,1-.08692-.25879.40667.40667,0,0,1,.10645-.292.35357.35357,0,0,1,.26562-.11035.42.42,0,0,1,.33106.16113.66461.66461,0,0,1,.13769.44433,1.73913,1.73913,0,0,1-.23925.79786,12.96672,12.96672,0,0,1-.91993,1.37793q-.67968.92871-1.64843,2.02441a5.49129,5.49129,0,0,1-.99024.95312,1.12049,1.12049,0,0,1-.55273.19629.35381.35381,0,0,1-.34473-.34472.43017.43017,0,0,1,.14356-.31348.43559.43559,0,0,1,.31152-.1416.24377.24377,0,0,1,.14551.04.27608.27608,0,0,1,.07715.126.42831.42831,0,0,0,.07812.13868.07243.07243,0,0,0,.05274.02246.21826.21826,0,0,0,.09277-.04395,3.2917,3.2917,0,0,0,.56641-.47754,7.34626,7.34626,0,0,0,.62695-.708l-.24707-2.80274a1.9537,1.9537,0,0,0-.18555-.84473.51413.51413,0,0,0-.416-.15039c-.06153,0-.17188.00879-.33106.02735l-.04-.16407Z" transform="translate(-106.354 -116.11903)"/>
  <path class="cls-1" d="M242.90366,116.89489V121.77h.7576v.32385h-1.26071V116.571h1.26071v.32386Zm2.57294,4.17535c-.93689,0-1.39374-.93109-1.39374-1.98938,0-1.04095.47421-1.98358,1.39374-1.98358.90793,0,1.38214.94263,1.38214,1.98358C246.85874,120.13915,246.35563,121.07024,245.4766,121.07024Zm0-3.74744c-.63617,0-.67664,1.08722-.67664,1.75806,0,.80963.0694,1.76386.665,1.76386.47424,0,.67664-.95423.67664-1.76386C246.14164,118.41,246.10117,117.3228,245.4766,117.3228Zm3.07733,4.77106h-1.26071V121.77h.7576v-4.87512h-.7576V116.571h1.26071Z" transform="translate(-106.354 -116.11903)"/>
  <path class="cls-1" d="M242.95752,124.25293l-.80273,2.77832.32226-.27441a4.84077,4.84077,0,0,0,.68652-.66114.21458.21458,0,0,0,.05079-.10742.07331.07331,0,0,0-.01661-.04785.12367.12367,0,0,0-.0664-.03711.69961.69961,0,0,0-.17383-.01465h-.09863l.03125-.10644h1.23437l-.02832.10644a1.32557,1.32557,0,0,0-.36523.06641,1.16676,1.16676,0,0,0-.29883.16308q-.28564.21242-.376.29395l-.24316.21484q.063.20363.15332.56836a6.039,6.039,0,0,0,.20605.71778c.03614.07519.07227.1123.11035.1123a.20145.20145,0,0,0,.11329-.04785,1.50309,1.50309,0,0,0,.31347-.3418l.09864.07031a3.11442,3.11442,0,0,1-.47168.51075.5154.5154,0,0,1-.29981.123.21.21,0,0,1-.18359-.09375,6.46265,6.46265,0,0,1-.376-1.31445l-.38769.33691-.291,1.00293h-.44043l.93848-3.2246.0791-.27442a.68445.68445,0,0,0,.01367-.124.146.146,0,0,0-.05176-.11328.22587.22587,0,0,0-.15136-.04493,1.20238,1.20238,0,0,0-.20606.02832v-.09863Z" transform="translate(-106.354 -116.11903)"/>
  <path class="cls-1" d="M251.53564,125.87939v-2.20605h-2.19726v-.3623h2.19726v-2.19776h.36231V123.311h2.207v.3623h-2.207v2.20605Z" transform="translate(-106.354 -116.11903)"/>
  <path class="cls-1" d="M258.544,121.48145l-.06641.22558a1.57906,1.57906,0,0,0-1.43066,1.02149,4.3198,4.3198,0,0,0-.46192,1.8125.87072.87072,0,0,0,.16211.56543.52562.52562,0,0,0,.43066.19921q.64161,0,1.22071-1.01269c-.01563-.21192-.02246-.37695-.02246-.49512a3.03012,3.03012,0,0,1,.20312-1.17383q.20361-.48339.50879-.48339a.26967.26967,0,0,1,.30078.30957,4.22135,4.22135,0,0,1-.7959,1.88281q.09669.9375.76465.9375.66357,0,1.08106-.92871a4.26472,4.26472,0,0,0,.418-1.74219.834.834,0,0,0-.83985-.89258l.04785-.18164a1.44831,1.44831,0,0,1,1.48145,1.5127,2.99662,2.99662,0,0,1-.58106,1.7041,1.73767,1.73767,0,0,1-1.47949.84668.97779.97779,0,0,1-1.05664-1.00391q-.605,1.00343-1.35254,1.00391a1.10147,1.10147,0,0,1-.8623-.37793,1.54867,1.54867,0,0,1-.33594-1.06348,2.88689,2.88689,0,0,1,.24316-1.14941,2.46617,2.46617,0,0,1,.67383-.92871,2.31149,2.31149,0,0,1,.80274-.47071A3.65476,3.65476,0,0,1,258.544,121.48145Z" transform="translate(-106.354 -116.11903)"/>
  <path class="cls-1" d="M264.14893,118.17676l-.80274,2.77832.32227-.27442a4.73171,4.73171,0,0,0,.68652-.66113.21457.21457,0,0,0,.05078-.10742.077.077,0,0,0-.0166-.04785.13028.13028,0,0,0-.06641-.03711.76708.76708,0,0,0-.17382-.01367h-.09864l.03125-.10743h1.23438l-.02832.10743a1.29015,1.29015,0,0,0-.36524.0664,1.16236,1.16236,0,0,0-.29882.16211q-.28564.2124-.376.29395l-.24317.21484q.063.20361.15332.56836a5.97656,5.97656,0,0,0,.20606.71777c.03613.0752.07227.11329.11035.11329a.20142.20142,0,0,0,.11328-.04786,1.524,1.524,0,0,0,.31348-.34179l.09863.07031a3.13893,3.13893,0,0,1-.47168.50977.51535.51535,0,0,1-.2998.123.2114.2114,0,0,1-.1836-.09277,6.48682,6.48682,0,0,1-.376-1.31445l-.3877.33593-.291,1.00391h-.44043l.93847-3.22461.0791-.27441a.69449.69449,0,0,0,.01368-.125.14408.14408,0,0,0-.05176-.11231.2261.2261,0,0,0-.15137-.0459,1.20242,1.20242,0,0,0-.20605.02832v-.09863Z" transform="translate(-106.354 -116.11903)"/>
  <path class="cls-1" d="M263.272,125.31641l-.376,1.28515a6.05208,6.05208,0,0,1,.80957-1.03711.83446.83446,0,0,1,.542-.248.30976.30976,0,0,1,.23242.09277.33151.33151,0,0,1,.0918.24316,1.75086,1.75086,0,0,1-.08106.45215l-.3457,1.18946a1.4535,1.4535,0,0,0-.05859.252.09612.09612,0,0,0,.02246.0664.06491.06491,0,0,0,.04785.02735.14824.14824,0,0,0,.082-.03711,1.91356,1.91356,0,0,0,.32812-.36231l.08692.05372a2.11331,2.11331,0,0,1-.49707.5371.53864.53864,0,0,1-.29395.11036.22227.22227,0,0,1-.167-.06348.23513.23513,0,0,1-.06152-.1709,1.951,1.951,0,0,1,.0957-.4668l.32813-1.13574a1.28253,1.28253,0,0,0,.06152-.33105.12214.12214,0,0,0-.03613-.0918.126.126,0,0,0-.09082-.03516.37721.37721,0,0,0-.18946.06836,1.68241,1.68241,0,0,0-.43457.419,5.88336,5.88336,0,0,0-.47851.748,2.73548,2.73548,0,0,0-.21973.52539l-.1416.46679H262.105l.51465-1.76953a2.357,2.357,0,0,0,.08984-.38476.14724.14724,0,0,0-.04883-.1084.17267.17267,0,0,0-.123-.04688,1.029,1.029,0,0,0-.11914.01172l-.10742.0166-.01661-.10156Z" transform="translate(-106.354 -116.11903)"/>
  <path class="cls-1" d="M268.12061,121.48145a1.88238,1.88238,0,0,1,.208.47949,6.59515,6.59515,0,0,1,.11524.87793l.19433,2.1748q.26514-.31786.76953-1.00781.24316-.33545.60157-.915a3.11833,3.11833,0,0,0,.26465-.49512.41255.41255,0,0,0,.02636-.1455.10747.10747,0,0,0-.03027-.08008.48835.48835,0,0,0-.16211-.07324.42567.42567,0,0,1-.21582-.1543.41371.41371,0,0,1-.08691-.25879.40666.40666,0,0,1,.10644-.292.35357.35357,0,0,1,.26563-.11035.42.42,0,0,1,.33105.16113.66461.66461,0,0,1,.1377.44433,1.73915,1.73915,0,0,1-.23926.79786,12.96782,12.96782,0,0,1-.91992,1.37793q-.6797.92871-1.64844,2.02441a5.491,5.491,0,0,1-.99024.95312,1.12049,1.12049,0,0,1-.55273.19629.35381.35381,0,0,1-.34473-.34472.43021.43021,0,0,1,.14356-.31348.43559.43559,0,0,1,.31152-.1416.24375.24375,0,0,1,.14551.04.27608.27608,0,0,1,.07715.126.42831.42831,0,0,0,.07812.13868.07243.07243,0,0,0,.05274.02246.21815.21815,0,0,0,.09277-.04395,3.2917,3.2917,0,0,0,.56641-.47754,7.34626,7.34626,0,0,0,.627-.708l-.24707-2.80274a1.9537,1.9537,0,0,0-.18555-.84473.51412.51412,0,0,0-.416-.15039c-.06153,0-.17188.00879-.33106.02735l-.04-.16407Z" transform="translate(-106.354 -116.11903)"/>
  <path class="cls-1" d="M273.3583,116.89489V121.77h.7576v.32385h-1.26071V116.571h1.26071v.32386Zm1.72281,4.10595v-.16192c.43375-.0058.57254.0058.57254-.69977v-2.21491c0-.16772-.01159-.30651-.18505-.30651a1.12109,1.12109,0,0,0-.39325.11566l-.06363-.15613,1.12191-.48h.1446v3.04187c0,.70557.133.69977.57251.69977v.16192Zm3.92746,1.093h-1.26071V121.77h.7576v-4.87512h-.7576V116.571h1.26071Z" transform="translate(-106.354 -116.11903)"/>
  <path class="cls-1" d="M273.41162,124.25293l-.80273,2.77832.32226-.27441a4.84159,4.84159,0,0,0,.68653-.66114.21454.21454,0,0,0,.05078-.10742.07335.07335,0,0,0-.0166-.04785.12374.12374,0,0,0-.06641-.03711.69955.69955,0,0,0-.17383-.01465H273.313l.03125-.10644h1.23437l-.02832.10644a1.32557,1.32557,0,0,0-.36523.06641,1.16676,1.16676,0,0,0-.29883.16308q-.28564.21242-.376.29395l-.24316.21484q.063.20363.15332.56836a6.039,6.039,0,0,0,.20605.71778c.03614.07519.07227.1123.11036.1123a.20145.20145,0,0,0,.11328-.04785,1.50286,1.50286,0,0,0,.31347-.3418l.09864.07031a3.11442,3.11442,0,0,1-.47168.51075.5154.5154,0,0,1-.29981.123.21.21,0,0,1-.18359-.09375,6.46265,6.46265,0,0,1-.376-1.31445l-.38769.33691-.291,1.00293H271.812l.93848-3.2246.0791-.27442a.68445.68445,0,0,0,.01367-.124.146.146,0,0,0-.05176-.11328.22585.22585,0,0,0-.15136-.04493,1.20238,1.20238,0,0,0-.20606.02832v-.09863Z" transform="translate(-106.354 -116.11903)"/>
  <rect class="cls-1" x="143.27128" y="47.53782" width="4.25197" height="0.45239"/>
  <g>
    <path class="cls-1" d="M119.96875,141.82471l-.06641.22509a1.57982,1.57982,0,0,0-1.43066,1.02149,4.31984,4.31984,0,0,0-.46191,1.8125.87365.87365,0,0,0,.16211.56641.5256.5256,0,0,0,.43066.19921q.64159,0,1.2207-1.01318c-.01562-.21191-.02246-.377-.02246-.49512a3.02643,3.02643,0,0,1,.20313-1.17382q.20361-.48414.50879-.48389a.26988.26988,0,0,1,.30078.30957,4.22265,4.22265,0,0,1-.7959,1.8833q.09668.93824.76465.937.66357,0,1.08105-.92822a4.26651,4.26651,0,0,0,.418-1.74219.83464.83464,0,0,0-.83984-.89307l.04785-.18115a1.44756,1.44756,0,0,1,1.48144,1.51221,2.99541,2.99541,0,0,1-.581,1.7041,1.73768,1.73768,0,0,1-1.47949.84668.97713.97713,0,0,1-1.05664-1.00342q-.605,1.00416-1.35254,1.00342a1.10148,1.10148,0,0,1-.86231-.37793,1.54819,1.54819,0,0,1-.33594-1.063,2.8892,2.8892,0,0,1,.24317-1.1499,2.46068,2.46068,0,0,1,.67383-.92822,2.30365,2.30365,0,0,1,.80273-.47071A3.65531,3.65531,0,0,1,119.96875,141.82471Z" transform="translate(-106.354 -116.11903)"/>
    <path class="cls-1" d="M125.57422,138.52l-.80274,2.77832.32227-.27441a4.78611,4.78611,0,0,0,.68652-.66114.21454.21454,0,0,0,.05078-.10742.07514.07514,0,0,0-.0166-.04785.12694.12694,0,0,0-.0664-.03711.73178.73178,0,0,0-.17383-.01416h-.09863l.03125-.10693h1.23437l-.02832.10693a1.30761,1.30761,0,0,0-.36523.06641,1.16441,1.16441,0,0,0-.29883.16259q-.28564.21241-.376.29395l-.24316.21484q.063.20363.15332.56836a6.00789,6.00789,0,0,0,.20605.71778c.03614.07519.07227.11279.11035.11279a.20152.20152,0,0,0,.11329-.04785,1.51375,1.51375,0,0,0,.31347-.3418l.09863.07031a3.12622,3.12622,0,0,1-.47167.51026.5154.5154,0,0,1-.29981.123.21067.21067,0,0,1-.18359-.09326,6.47383,6.47383,0,0,1-.376-1.31445l-.3877.33642-.291,1.00342h-.44043l.93848-3.22461.0791-.27441a.68946.68946,0,0,0,.01367-.12451.14509.14509,0,0,0-.05176-.1128.226.226,0,0,0-.15137-.04541,1.20242,1.20242,0,0,0-.206.02832V138.687Z" transform="translate(-106.354 -116.11903)"/>
    <path class="cls-1" d="M124.69727,145.65918l-.376,1.28613a6.05208,6.05208,0,0,1,.80957-1.03711.83619.83619,0,0,1,.542-.249.31051.31051,0,0,1,.23242.09375.32764.32764,0,0,1,.0918.24219,1.75688,1.75688,0,0,1-.081.45312l-.34571,1.18946a1.4535,1.4535,0,0,0-.05859.25195.0978.0978,0,0,0,.02246.0664.06349.06349,0,0,0,.04785.02637.14149.14149,0,0,0,.082-.03711,1.90326,1.90326,0,0,0,.32813-.36133l.08691.05372a2.11313,2.11313,0,0,1-.49707.5371.54642.54642,0,0,1-.29394.11036.22608.22608,0,0,1-.167-.06348.23754.23754,0,0,1-.06152-.17188,1.95478,1.95478,0,0,1,.0957-.46582l.32813-1.13574a1.28253,1.28253,0,0,0,.06152-.33105.12067.12067,0,0,0-.03613-.0918.126.126,0,0,0-.09082-.03516.38385.38385,0,0,0-.18945.06739,1.68839,1.68839,0,0,0-.43457.41992,5.93438,5.93438,0,0,0-.47852.74707,2.74516,2.74516,0,0,0-.21973.52637l-.1416.46582h-.42383l.51465-1.76856a2.381,2.381,0,0,0,.08985-.38476.14777.14777,0,0,0-.04883-.10938.17625.17625,0,0,0-.123-.0459c-.02246,0-.0625.00391-.11914.01075l-.10742.01757-.0166-.10254Z" transform="translate(-106.354 -116.11903)"/>
  </g>
  <g>
    <path class="cls-1" d="M305.92676,141.82471l-.06641.22509a1.57981,1.57981,0,0,0-1.43066,1.02149,4.31987,4.31987,0,0,0-.46192,1.8125.86889.86889,0,0,0,.16211.56543.52563.52563,0,0,0,.43067.19922q.64159,0,1.2207-1.01221c-.01562-.21191-.02246-.377-.02246-.49512a3.02662,3.02662,0,0,1,.20312-1.17382q.20363-.48414.50879-.48389a.26987.26987,0,0,1,.30078.30957,4.2226,4.2226,0,0,1-.79589,1.8833q.09667.93677.76464.937.66359,0,1.08106-.92822a4.26651,4.26651,0,0,0,.418-1.74219.83464.83464,0,0,0-.83985-.89307l.04786-.18115a1.44756,1.44756,0,0,1,1.48144,1.51221,2.99541,2.99541,0,0,1-.58105,1.7041,1.73769,1.73769,0,0,1-1.4795.84668.97714.97714,0,0,1-1.05664-1.00342q-.605,1.00416-1.35254,1.00342a1.10147,1.10147,0,0,1-.8623-.37793,1.54819,1.54819,0,0,1-.33594-1.063,2.8892,2.8892,0,0,1,.24317-1.1499,2.46077,2.46077,0,0,1,.67382-.92822,2.30377,2.30377,0,0,1,.80274-.47071A3.65531,3.65531,0,0,1,305.92676,141.82471Z" transform="translate(-106.354 -116.11903)"/>
    <path class="cls-1" d="M311.53223,138.52l-.80274,2.77832.32227-.27441a4.78611,4.78611,0,0,0,.68652-.66114.21454.21454,0,0,0,.05078-.10742.07514.07514,0,0,0-.0166-.04785.12693.12693,0,0,0-.06641-.03711.73168.73168,0,0,0-.17382-.01416h-.09864l.03125-.10693h1.23438l-.02832.10693a1.30761,1.30761,0,0,0-.36524.06641,1.16452,1.16452,0,0,0-.29882.16259q-.28564.21241-.376.29395l-.24316.21484q.063.20363.15332.56836a6.00789,6.00789,0,0,0,.20605.71778c.03613.07519.07227.11279.11035.11279a.20147.20147,0,0,0,.11328-.04785,1.51353,1.51353,0,0,0,.31348-.3418l.09863.07031a3.12616,3.12616,0,0,1-.47168.51026.51535.51535,0,0,1-.2998.123.21068.21068,0,0,1-.1836-.09326,6.47488,6.47488,0,0,1-.376-1.31445l-.3877.33642-.291,1.00342h-.44043l.93847-3.22461.07911-.27441a.69036.69036,0,0,0,.01367-.12451.14509.14509,0,0,0-.05176-.1128.226.226,0,0,0-.15137-.04541,1.20242,1.20242,0,0,0-.20605.02832V138.687Z" transform="translate(-106.354 -116.11903)"/>
    <path class="cls-1" d="M310.65527,145.65918l-.376,1.28613a6.05208,6.05208,0,0,1,.80957-1.03711.83619.83619,0,0,1,.542-.249.30976.30976,0,0,1,.23242.09277.33153.33153,0,0,1,.0918.24317,1.7442,1.7442,0,0,1-.08106.45215l-.3457,1.18945a1.49577,1.49577,0,0,0-.05859.25195.09453.09453,0,0,0,.02246.06641.0649.0649,0,0,0,.04785.02734.14151.14151,0,0,0,.082-.03711,1.9036,1.9036,0,0,0,.32813-.36133l.08691.05274a2.09662,2.09662,0,0,1-.49707.53711.5409.5409,0,0,1-.29395.11133.22291.22291,0,0,1-.167-.06446.23513.23513,0,0,1-.06152-.1709,1.9458,1.9458,0,0,1,.0957-.46582l.32813-1.13671a1.27679,1.27679,0,0,0,.06152-.33008.12067.12067,0,0,0-.03613-.0918.126.126,0,0,0-.09082-.03516.37432.37432,0,0,0-.18946.06739,1.69919,1.69919,0,0,0-.43457.41894,5.95538,5.95538,0,0,0-.47851.74805,2.76211,2.76211,0,0,0-.21973.52539l-.1416.4668h-.42383l.51465-1.76953a2.35676,2.35676,0,0,0,.08984-.38477.14726.14726,0,0,0-.04882-.1084.17625.17625,0,0,0-.123-.0459c-.02246,0-.0625.00391-.11914.01075l-.10742.0166-.01661-.10157Z" transform="translate(-106.354 -116.11903)"/>
  </g>
  <path class="cls-1" d="M389.6582,161.98828a1.8678,1.8678,0,0,1,.208.47949,6.57311,6.57311,0,0,1,.11524.877l.19433,2.17578q.26514-.31788.76953-1.00781.24316-.33691.60157-.916a3.11713,3.11713,0,0,0,.26464-.49512.41235.41235,0,0,0,.02637-.14551.10672.10672,0,0,0-.03027-.0791.46871.46871,0,0,0-.16211-.07324.43322.43322,0,0,1-.21582-.15527.413.413,0,0,1-.08692-.25781.40508.40508,0,0,1,.10645-.292.35007.35007,0,0,1,.26562-.11035.42.42,0,0,1,.33106.16113.66287.66287,0,0,1,.13769.44434,1.74237,1.74237,0,0,1-.23925.79785,13.08106,13.08106,0,0,1-.91993,1.37695q-.67968.92872-1.64843,2.0254a5.47552,5.47552,0,0,1-.99024.95214,1.11358,1.11358,0,0,1-.55273.19727.35565.35565,0,0,1-.34473-.34473.43384.43384,0,0,1,.14356-.31445.43949.43949,0,0,1,.31152-.1416.25083.25083,0,0,1,.14551.04.27617.27617,0,0,1,.07715.126.43576.43576,0,0,0,.07812.13965.07148.07148,0,0,0,.05274.02149.21826.21826,0,0,0,.09277-.04395,3.29169,3.29169,0,0,0,.5664-.47754,7.35475,7.35475,0,0,0,.627-.707l-.24707-2.80371a1.94771,1.94771,0,0,0-.18555-.84375.511.511,0,0,0-.416-.15039q-.0923,0-.33106.02637l-.04-.16309Z" transform="translate(-106.354 -116.11903)"/>
  <path class="cls-1" d="M394.89558,157.40126v4.87512h.7576v.32385h-1.26071V157.0774h1.26071v.32386Zm2.57294,4.17535c-.93689,0-1.39374-.93109-1.39374-1.98938,0-1.041.47422-1.98358,1.39374-1.98358.90793,0,1.38214.94263,1.38214,1.98358C398.85066,160.64552,398.34755,161.57661,397.46852,161.57661Zm0-3.74744c-.63617,0-.67663,1.08722-.67663,1.75806,0,.80963.06939,1.76386.665,1.76386.47425,0,.67664-.95423.67664-1.76386C398.13356,158.91639,398.09309,157.82917,397.46852,157.82917Zm3.07733,4.77106h-1.26071v-.32385h.7576v-4.87512h-.7576v-.32386h1.26071Z" transform="translate(-106.354 -116.11903)"/>
  <path class="cls-1" d="M394.94922,164.75879l-.80274,2.77832.32227-.27441a4.73216,4.73216,0,0,0,.68652-.66114.21457.21457,0,0,0,.05078-.10742.077.077,0,0,0-.0166-.04785.13036.13036,0,0,0-.0664-.03711.76718.76718,0,0,0-.17383-.01367h-.09863l.03125-.10742h1.23437l-.02832.10742a1.29015,1.29015,0,0,0-.36523.0664,1.16241,1.16241,0,0,0-.29883.16211q-.28564.21241-.376.29395l-.24316.21484q.063.20361.15332.56836a5.97645,5.97645,0,0,0,.20605.71778c.03614.07519.07227.11328.11035.11328a.20152.20152,0,0,0,.11329-.04785,1.52457,1.52457,0,0,0,.31347-.3418l.09863.07031a3.13855,3.13855,0,0,1-.47167.50977.5154.5154,0,0,1-.29981.123.21138.21138,0,0,1-.18359-.09277,6.48553,6.48553,0,0,1-.376-1.31445l-.3877.33593-.291,1.00391h-.44043l.93848-3.22461.0791-.27441a.6944.6944,0,0,0,.01367-.125.14411.14411,0,0,0-.05176-.11231.22608.22608,0,0,0-.15137-.0459,1.20242,1.20242,0,0,0-.20605.02832v-.09863Z" transform="translate(-106.354 -116.11903)"/>
  <path class="cls-1" d="M410.53613,161.98828l-.0664.22461a1.58057,1.58057,0,0,0-1.43067,1.02149,4.31992,4.31992,0,0,0-.46191,1.8125.87362.87362,0,0,0,.16211.5664.52561.52561,0,0,0,.43066.19922q.64161,0,1.22071-1.0127c-.01563-.21191-.02247-.37695-.02247-.49511a3.0233,3.0233,0,0,1,.20313-1.17383q.20361-.48486.50879-.48438a.27007.27007,0,0,1,.30078.30957,4.22387,4.22387,0,0,1-.7959,1.88379q.09667.9375.76465.93653.66357,0,1.08105-.92774a4.26826,4.26826,0,0,0,.418-1.74218.83529.83529,0,0,0-.83984-.89356l.04785-.18066a1.44685,1.44685,0,0,1,1.48145,1.51172,2.9943,2.9943,0,0,1-.58106,1.7041,1.73767,1.73767,0,0,1-1.47949.84668.977.977,0,0,1-1.05664-1.00293q-.605,1.00341-1.35254,1.00293a1.10149,1.10149,0,0,1-.86231-.37793,1.54773,1.54773,0,0,1-.33593-1.0625,2.89149,2.89149,0,0,1,.24316-1.15039,2.455,2.455,0,0,1,.67383-.92774,2.29588,2.29588,0,0,1,.80273-.4707A3.65483,3.65483,0,0,1,410.53613,161.98828Z" transform="translate(-106.354 -116.11903)"/>
  <path class="cls-1" d="M416.14063,158.68359l-.80274,2.77832.32227-.27441a4.84088,4.84088,0,0,0,.68652-.66113.21461.21461,0,0,0,.05078-.10742.07333.07333,0,0,0-.0166-.04786.12377.12377,0,0,0-.06641-.03711.70014.70014,0,0,0-.17382-.01464H416.042l.03125-.10645h1.23438l-.02832.10645a1.3256,1.3256,0,0,0-.36524.0664,1.16666,1.16666,0,0,0-.29883.16309q-.28564.2124-.376.29394l-.24317.21485q.063.20361.15332.56836a6.04041,6.04041,0,0,0,.20606.71777c.03613.0752.07226.1123.11035.1123a.2014.2014,0,0,0,.11328-.04785,1.50279,1.50279,0,0,0,.31348-.34179l.09863.07031a3.11378,3.11378,0,0,1-.47168.51074.51538.51538,0,0,1-.2998.12305.21.21,0,0,1-.1836-.09375,6.46341,6.46341,0,0,1-.376-1.31446l-.3877.33692-.291,1.00293H414.541l.93847-3.22461.0791-.27441a.68474.68474,0,0,0,.01368-.124.146.146,0,0,0-.05176-.11328.226.226,0,0,0-.15137-.04492,1.2014,1.2014,0,0,0-.20605.02832v-.09863Z" transform="translate(-106.354 -116.11903)"/>
  <path class="cls-1" d="M415.26367,165.82227l-.376,1.28613a6.05115,6.05115,0,0,1,.80957-1.03711.83614.83614,0,0,1,.542-.249.31053.31053,0,0,1,.23242.09375.32766.32766,0,0,1,.0918.24218,1.7571,1.7571,0,0,1-.08106.45313l-.3457,1.18945a1.45371,1.45371,0,0,0-.05859.25195.09782.09782,0,0,0,.02246.06641.06347.06347,0,0,0,.04785.02637.14151.14151,0,0,0,.082-.03711,1.90326,1.90326,0,0,0,.32812-.36133l.08692.05371a2.11321,2.11321,0,0,1-.49707.53711.5465.5465,0,0,1-.29395.11035.226.226,0,0,1-.167-.06347.2375.2375,0,0,1-.06152-.17188,1.95469,1.95469,0,0,1,.0957-.46582l.32812-1.13574a1.28219,1.28219,0,0,0,.06153-.33106.12065.12065,0,0,0-.03613-.09179.126.126,0,0,0-.09082-.03516.38389.38389,0,0,0-.18946.06738,1.68829,1.68829,0,0,0-.43457.41993,5.93257,5.93257,0,0,0-.47851.74707,2.74479,2.74479,0,0,0-.21973.52636l-.1416.46582h-.42383l.51465-1.76855a2.38047,2.38047,0,0,0,.08984-.38477.14773.14773,0,0,0-.04883-.10937.17617.17617,0,0,0-.123-.0459c-.02246,0-.0625.00391-.11914.01074l-.10743.01758-.0166-.10254Z" transform="translate(-106.354 -116.11903)"/>
  <path class="cls-1" d="M420.1123,161.98828a1.8678,1.8678,0,0,1,.208.47949,6.57311,6.57311,0,0,1,.11524.877l.19433,2.17578q.26514-.31788.76953-1.00781.24316-.33691.60157-.916a3.11833,3.11833,0,0,0,.26465-.49512.41256.41256,0,0,0,.02636-.14551.10672.10672,0,0,0-.03027-.0791.46871.46871,0,0,0-.16211-.07324.43326.43326,0,0,1-.21582-.15527.413.413,0,0,1-.08691-.25781.40508.40508,0,0,1,.10644-.292.35007.35007,0,0,1,.26563-.11035.42.42,0,0,1,.33105.16113.66287.66287,0,0,1,.1377.44434,1.7424,1.7424,0,0,1-.23926.79785,13.08218,13.08218,0,0,1-.91992,1.37695q-.67969.92872-1.64844,2.0254a5.47519,5.47519,0,0,1-.99024.95214,1.11358,1.11358,0,0,1-.55273.19727.35565.35565,0,0,1-.34473-.34473.43384.43384,0,0,1,.14356-.31445.4395.4395,0,0,1,.31152-.1416.25083.25083,0,0,1,.14551.04.27608.27608,0,0,1,.07715.126.43576.43576,0,0,0,.07812.13965.07148.07148,0,0,0,.05274.02149.21826.21826,0,0,0,.09277-.04395,3.2917,3.2917,0,0,0,.56641-.47754,7.35578,7.35578,0,0,0,.62695-.707L419.79,163.4375a1.94771,1.94771,0,0,0-.18555-.84375.511.511,0,0,0-.416-.15039q-.0923,0-.33106.02637l-.04-.16309Z" transform="translate(-106.354 -116.11903)"/>
  <path class="cls-1" d="M425.35023,157.40126v4.87512h.7576v.32385h-1.26071V157.0774h1.26071v.32386Zm1.72281,4.10595v-.16192c.43374-.0058.57254.0058.57254-.69977v-2.21491c0-.16772-.0116-.30651-.18506-.30651a1.12114,1.12114,0,0,0-.39325.11566l-.06363-.15613,1.12192-.48h.14459v3.04187c0,.70557.133.69977.57251.69977v.16192Zm3.92746,1.093h-1.26071v-.32385h.7576v-4.87512h-.7576v-.32386h1.26071Z" transform="translate(-106.354 -116.11903)"/>
  <path class="cls-1" d="M425.40332,164.75879l-.80273,2.77832.32226-.27441a4.73239,4.73239,0,0,0,.68653-.66114.21466.21466,0,0,0,.05078-.10742.07706.07706,0,0,0-.01661-.04785.13031.13031,0,0,0-.0664-.03711.76712.76712,0,0,0-.17383-.01367h-.09863l.03125-.10742h1.23437l-.02832.10742a1.29015,1.29015,0,0,0-.36523.0664,1.16241,1.16241,0,0,0-.29883.16211q-.28564.21241-.376.29395l-.24316.21484q.063.20361.15332.56836a5.97645,5.97645,0,0,0,.20605.71778c.03614.07519.07227.11328.11036.11328a.20152.20152,0,0,0,.11328-.04785,1.52433,1.52433,0,0,0,.31347-.3418l.09864.07031a3.13894,3.13894,0,0,1-.47168.50977.5154.5154,0,0,1-.29981.123.21138.21138,0,0,1-.18359-.09277,6.48626,6.48626,0,0,1-.376-1.31445l-.38769.33593-.291,1.00391h-.44043l.93848-3.22461.0791-.27441a.6944.6944,0,0,0,.01367-.125.14411.14411,0,0,0-.05176-.11231.22605.22605,0,0,0-.15136-.0459,1.20238,1.20238,0,0,0-.20606.02832v-.09863Z" transform="translate(-106.354 -116.11903)"/>
  <line class="cls-2" x1="45.35399" y1="27.00695" x2="45.35399" y2="47.541"/>
  <polyline class="cls-3" points="126.347 47.347 118.427 49.687 120.947 47.347 118.427 45.007 126.347 47.347"/>
  <line class="cls-2" x1="18.16699" y1="47.35399" x2="121.14099" y2="47.35399"/>
  <polyline class="cls-3" points="126.347 6.847 118.427 9.187 120.947 6.847 118.427 4.507 126.347 6.847"/>
  <line class="cls-2" x1="18.16699" y1="6.85399" x2="121.14099" y2="6.85399"/>
  <polyline class="cls-4" points="99.167 6.667 99.541 6.667 99.541 7.041 59.041 47.541 58.667 47.541 58.667 47.167"/>
  <polyline class="cls-4" points="58.667 6.667 59.041 6.667 99.541 47.167 99.541 47.541 99.167 47.541 58.667 7.041"/>
  <path class="cls-5" d="M212.541,163.556a6.75,6.75,0,1,1-6.75-6.75,6.74988,6.74988,0,0,1,6.75,6.75" transform="translate(-106.354 -116.11903)"/>
  <circle class="cls-2" cx="99.437" cy="47.437" r="6.75"/>
  <path class="cls-5" d="M212.541,123.056a6.75,6.75,0,1,1-6.75-6.75,6.74988,6.74988,0,0,1,6.75,6.75" transform="translate(-106.354 -116.11903)"/>
  <circle class="cls-2" cx="99.437" cy="6.937" r="6.75"/>
  <path class="cls-4" d="M166.821,122.966a1.62,1.62,0,1,1-1.62-1.62,1.61966,1.61966,0,0,1,1.62,1.62" transform="translate(-106.354 -116.11903)"/>
  <path class="cls-2" d="M166.821,122.966a1.62,1.62,0,1,1-1.62-1.62A1.61966,1.61966,0,0,1,166.821,122.966Z" transform="translate(-106.354 -116.11903)"/>
  <path class="cls-4" d="M166.821,163.466a1.62,1.62,0,1,1-1.62-1.62,1.61966,1.61966,0,0,1,1.62,1.62" transform="translate(-106.354 -116.11903)"/>
  <path class="cls-2" d="M166.821,163.466a1.62,1.62,0,1,1-1.62-1.62A1.61966,1.61966,0,0,1,166.821,163.466Z" transform="translate(-106.354 -116.11903)"/>
  <line class="cls-2" x1="25.00699" y1="27.19396" x2="45.54099" y2="27.19396"/>
  <polyline class="cls-3" points="31.847 6.847 23.927 9.187 26.447 6.847 23.927 4.507 31.847 6.847"/>
  <line class="cls-2" x1="25.00699" y1="6.85399" x2="26.64098" y2="6.85399"/>
  <polyline class="cls-3" points="38.687 27.187 30.587 29.527 33.287 27.187 30.587 24.667 38.687 27.187"/>
  <line class="cls-2" x1="31.66699" y1="27.19396" x2="33.48099" y2="27.19396"/>
  <polyline class="cls-3" points="31.847 47.347 23.927 49.687 26.447 47.347 23.927 45.007 31.847 47.347"/>
  <line class="cls-2" x1="25.00699" y1="47.35399" x2="26.64098" y2="47.35399"/>
  <path class="cls-1" d="M206.2002,125.22656v-2.19287h-2.18409v-.36035h2.18409v-2.18408h.36035v2.18408h2.19287v.36035h-2.19287v2.19287Z" transform="translate(-106.354 -116.11903)"/>
  <path class="cls-1" d="M208.11572,163.78906h-4.65381v-.32129h4.65381Z" transform="translate(-106.354 -116.11903)"/>
  <path class="cls-5" d="M158.541,163.556a6.75,6.75,0,1,1-6.75-6.75,6.74988,6.74988,0,0,1,6.75,6.75" transform="translate(-106.354 -116.11903)"/>
  <circle class="cls-2" cx="45.437" cy="47.437" r="6.75"/>
  <path class="cls-1" d="M151.94434,162.60938a1.09946,1.09946,0,1,1-.78223.32324A1.06249,1.06249,0,0,1,151.94434,162.60938Z" transform="translate(-106.354 -116.11903)"/>
  <polyline class="cls-3" points="278.376 47.347 270.456 49.687 272.976 47.347 270.456 45.007 278.376 47.347"/>
  <line class="cls-2" x1="204.03612" y1="47.35399" x2="273.17013" y2="47.35399"/>
  <polyline class="cls-3" points="278.376 6.847 270.456 9.187 272.976 6.847 270.456 4.507 278.376 6.847"/>
  <line class="cls-2" x1="204.03612" y1="6.85399" x2="273.17013" y2="6.85399"/>
  <line class="cls-2" x1="210.69613" y1="27.19402" x2="231.41012" y2="27.19402"/>
  <polyline class="cls-3" points="217.716 6.847 209.616 9.187 212.316 6.847 209.616 4.507 217.716 6.847"/>
  <line class="cls-2" x1="210.69613" y1="6.85399" x2="212.51012" y2="6.85399"/>
  <polyline class="cls-3" points="224.376 27.187 216.456 29.527 218.976 27.187 216.456 24.667 224.376 27.187"/>
  <line class="cls-2" x1="217.53612" y1="27.19396" x2="219.17009" y2="27.19396"/>
  <polyline class="cls-3" points="217.716 47.347 209.616 49.687 212.316 47.347 209.616 45.007 217.716 47.347"/>
  <line class="cls-2" x1="210.69613" y1="47.35399" x2="212.51012" y2="47.35399"/>
  <rect class="cls-6" x="231.21612" y="0.187" width="27" height="54"/>
  <path class="cls-2" d="M337.39013,163.473h27.374m-27.374-40.5h27.374m-27.194,47.333h27v-54h-27Z" transform="translate(-106.354 -116.11903)"/>
  <polyline class="cls-4" points="234.276 6.667 234.65 6.667 254.99 47.167 254.99 47.541 254.616 47.541 234.276 7.041"/>
  <polyline class="cls-4" points="254.616 6.667 254.99 6.667 254.99 7.041 234.65 47.541 234.276 47.541 234.276 47.167"/>
  <path class="cls-1" d="M294.9502,121.665a1.87536,1.87536,0,0,1,.208.47949,6.58439,6.58439,0,0,1,.11524.87744l.19433,2.1753q.26514-.31788.76953-1.00782.24316-.33618.60157-.91552a3.11877,3.11877,0,0,0,.26465-.49512.4126.4126,0,0,0,.02636-.14551.1071.1071,0,0,0-.03027-.07959.47822.47822,0,0,0-.16211-.07324.42936.42936,0,0,1-.21582-.15479.41331.41331,0,0,1-.08691-.2583.40586.40586,0,0,1,.10644-.292.35183.35183,0,0,1,.26563-.11035.42.42,0,0,1,.33105.16113.66374.66374,0,0,1,.1377.44434,1.74076,1.74076,0,0,1-.23926.79785,13.02365,13.02365,0,0,1-.91992,1.37744q-.6797.92871-1.64844,2.0249a5.48323,5.48323,0,0,1-.99024.95264,1.117,1.117,0,0,1-.55273.19678.35475.35475,0,0,1-.34473-.34473.432.432,0,0,1,.14356-.314.43755.43755,0,0,1,.31152-.14161.24729.24729,0,0,1,.14551.04.27607.27607,0,0,1,.07715.126.432.432,0,0,0,.07812.13916.07192.07192,0,0,0,.05274.022.21822.21822,0,0,0,.09277-.04394,3.29262,3.29262,0,0,0,.56641-.47754,7.35034,7.35034,0,0,0,.627-.70752l-.24707-2.80322a1.95066,1.95066,0,0,0-.18555-.84424.51253.51253,0,0,0-.416-.15039q-.09229,0-.33106.02685l-.04-.16357Z" transform="translate(-106.354 -116.11903)"/>
  <path class="cls-1" d="M300.1877,117.078v4.87519h.75757v.32385h-1.26071v-5.52289h1.26071v.32385Zm2.57288,4.17542c-.93683,0-1.39371-.93109-1.39371-1.98938,0-1.041.47421-1.98358,1.39371-1.98358.908,0,1.38217.94262,1.38217,1.98358C304.14275,120.32233,303.63961,121.25342,302.76058,121.25342Zm0-3.74744c-.63611,0-.67661,1.08722-.67661,1.75806,0,.80963.0694,1.76385.66507,1.76385.47419,0,.67661-.95422.67661-1.76385C303.42565,118.5932,303.38515,117.506,302.76058,117.506Zm3.07736,4.77106h-1.26071v-.32385h.75757V117.078h-.75757v-.32385h1.26071Z" transform="translate(-106.354 -116.11903)"/>
  <path class="cls-1" d="M300.24219,124.436l-.80274,2.77832.32227-.27442a4.78565,4.78565,0,0,0,.68652-.66113.21461.21461,0,0,0,.05078-.10742.07513.07513,0,0,0-.0166-.04785.12687.12687,0,0,0-.0664-.03711.73178.73178,0,0,0-.17383-.01416h-.09864l.03125-.10694h1.23438l-.02832.10694a1.30749,1.30749,0,0,0-.36523.0664,1.16445,1.16445,0,0,0-.29883.1626q-.28564.2124-.376.29394l-.24316.21485q.063.20361.15332.56836a6.0068,6.0068,0,0,0,.206.71777c.03613.0752.07227.11279.11035.11279a.2014.2014,0,0,0,.11328-.04785,1.51323,1.51323,0,0,0,.31348-.34179l.09863.07031a3.12552,3.12552,0,0,1-.47168.51025.51538.51538,0,0,1-.2998.12305.21065.21065,0,0,1-.18359-.09326,6.474,6.474,0,0,1-.376-1.31446l-.3877.33643-.291,1.00342h-.44043l.93847-3.22461.07911-.27442a.68927.68927,0,0,0,.01367-.12451.14506.14506,0,0,0-.05176-.11279.226.226,0,0,0-.15137-.04541,1.20242,1.20242,0,0,0-.20605.02832V124.603Z" transform="translate(-106.354 -116.11903)"/>
  <path class="cls-1" d="M109.2627,121.665a1.88987,1.88987,0,0,1,.20751.47949,6.58265,6.58265,0,0,1,.11524.87744l.19434,2.1753q.26512-.31788.76953-1.00782.24317-.33618.60107-.91552a3.0511,3.0511,0,0,0,.26514-.49512.40241.40241,0,0,0,.02685-.14551.10592.10592,0,0,0-.03125-.07959.46984.46984,0,0,0-.16113-.07324.436.436,0,0,1-.2168-.15479.4154.4154,0,0,1-.08593-.2583.40349.40349,0,0,1,.10595-.292.35226.35226,0,0,1,.26514-.11035.42021.42021,0,0,1,.33154.16113.66619.66619,0,0,1,.13721.44434,1.73942,1.73942,0,0,1-.23877.79785,13.07813,13.07813,0,0,1-.91943,1.37744q-.68117.92871-1.64942,2.0249a5.451,5.451,0,0,1-.99023.95264,1.114,1.114,0,0,1-.55274.19678.35565.35565,0,0,1-.34472-.34473.432.432,0,0,1,.14355-.314.43944.43944,0,0,1,.312-.14161.24727.24727,0,0,1,.14551.04.27559.27559,0,0,1,.07764.126.4438.4438,0,0,0,.07715.13916.07378.07378,0,0,0,.05322.022.21822.21822,0,0,0,.09277-.04394,3.27377,3.27377,0,0,0,.56592-.47754,7.3847,7.3847,0,0,0,.62793-.70752l-.24756-2.80322a1.958,1.958,0,0,0-.18555-.84424.5112.5112,0,0,0-.416-.15039c-.06152,0-.17236.00879-.33154.02685l-.03955-.16357Z" transform="translate(-106.354 -116.11903)"/>
  <path class="cls-1" d="M114.49857,117.078v4.87519h.75758v.32385h-1.26071v-5.52289h1.26071v.32385Zm2.57292,4.17542c-.93686,0-1.39373-.93109-1.39373-1.98938,0-1.041.47422-1.98358,1.39373-1.98358.90794,0,1.38215.94262,1.38215,1.98358C118.45364,120.32233,117.95052,121.25342,117.07149,121.25342Zm0-3.74744c-.63614,0-.67662,1.08722-.67662,1.75806,0,.80963.06939,1.76385.66505,1.76385.47421,0,.67662-.95422.67662-1.76385C117.73654,118.5932,117.69606,117.506,117.07149,117.506Zm3.07733,4.77106h-1.26071v-.32385h.75758V117.078h-.75758v-.32385h1.26071Z" transform="translate(-106.354 -116.11903)"/>
  <path class="cls-1" d="M114.55225,124.436l-.80274,2.77832.32227-.27442a4.81329,4.81329,0,0,0,.68652-.66113.21661.21661,0,0,0,.05127-.10742.07864.07864,0,0,0-.01709-.04785.12686.12686,0,0,0-.06641-.03711.73168.73168,0,0,0-.17382-.01416h-.09912l.03125-.10694h1.23535l-.02832.10694a1.30807,1.30807,0,0,0-.36621.0664,1.16987,1.16987,0,0,0-.29834.1626q-.28492.2124-.37549.29394l-.24317.21485q.06226.20361.15235.56836a6.17192,6.17192,0,0,0,.20654.71777c.03564.0752.07227.11279.11035.11279a.20019.20019,0,0,0,.11279-.04785,1.50247,1.50247,0,0,0,.314-.34179l.09863.07031a3.14828,3.14828,0,0,1-.47168.51025.51659.51659,0,0,1-.2998.12305.21126.21126,0,0,1-.1836-.09326,6.47508,6.47508,0,0,1-.376-1.31446l-.38721.33643-.291,1.00342h-.44091l.938-3.22461.07958-.27442a.64782.64782,0,0,0,.01368-.12451.14245.14245,0,0,0-.05225-.11279.22287.22287,0,0,0-.15088-.04541,1.21868,1.21868,0,0,0-.20654.02832V124.603Z" transform="translate(-106.354 -116.11903)"/>
  <path class="cls-1" d="M294.21387,162.165a1.883,1.883,0,0,1,.208.47949,6.57541,6.57541,0,0,1,.11523.87695l.19434,2.17579q.26513-.31788.76953-1.00782.24316-.33691.60156-.916a3.12277,3.12277,0,0,0,.26465-.49414.41379.41379,0,0,0,.02636-.14649.10672.10672,0,0,0-.03027-.0791.48824.48824,0,0,0-.16211-.07324.43135.43135,0,0,1-.21582-.1543.4177.4177,0,0,1-.08691-.25879.40666.40666,0,0,1,.10644-.292.35009.35009,0,0,1,.26563-.11035.42.42,0,0,1,.33105.16113.66286.66286,0,0,1,.1377.44434,1.73912,1.73912,0,0,1-.23926.79785,13.08218,13.08218,0,0,1-.91992,1.37695q-.67969.92871-1.64844,2.02539a5.49188,5.49188,0,0,1-.99023.95313,1.12052,1.12052,0,0,1-.55274.19629.35563.35563,0,0,1-.34472-.34473.43385.43385,0,0,1,.14355-.31445.43827.43827,0,0,1,.31152-.14063.25055.25055,0,0,1,.14551.03907.28094.28094,0,0,1,.07715.127.43979.43979,0,0,0,.07812.13867.07147.07147,0,0,0,.05274.02148.21221.21221,0,0,0,.09277-.043,3.30529,3.30529,0,0,0,.56641-.47852,7.353,7.353,0,0,0,.62695-.707l-.24707-2.80274a1.95328,1.95328,0,0,0-.18555-.84472.51094.51094,0,0,0-.416-.15039q-.09228,0-.33106.02636l-.04-.16308Z" transform="translate(-106.354 -116.11903)"/>
  <path class="cls-1" d="M299.4507,157.578v4.87519h.75757v.32385h-1.26071v-5.52289h1.26071v.32385Zm1.72278,4.106v-.16193c.43372-.00579.57251.0058.57251-.69976v-2.21491c0-.16772-.01153-.30652-.18506-.30652a1.12046,1.12046,0,0,0-.39325.11566l-.06359-.15612,1.12191-.48h.14456v3.04187c0,.70556.133.69976.57254.69976v.16193Zm3.92746,1.093h-1.26071v-.32385h.75757V157.578h-.75757v-.32385h1.26071Z" transform="translate(-106.354 -116.11903)"/>
  <path class="cls-1" d="M299.50488,164.93555l-.80273,2.77832.32226-.27442a4.73194,4.73194,0,0,0,.68653-.66113.21457.21457,0,0,0,.05078-.10742.077.077,0,0,0-.0166-.04785.12368.12368,0,0,0-.06641-.03711.71268.71268,0,0,0-.17383-.01367h-.09863l.03125-.10743h1.23438l-.02833.10743a1.29015,1.29015,0,0,0-.36523.0664,1.16241,1.16241,0,0,0-.29883.16211q-.28564.2124-.376.29395l-.24317.21484q.063.20361.15332.56836a5.97244,5.97244,0,0,0,.20606.71777c.03613.0752.07226.11328.11035.11328a.19713.19713,0,0,0,.11328-.04882,1.50287,1.50287,0,0,0,.31348-.3418l.09863.07031a3.11423,3.11423,0,0,1-.47168.51074.51536.51536,0,0,1-.29981.12305.21138.21138,0,0,1-.18359-.09277,6.4872,6.4872,0,0,1-.376-1.31446l-.38769.33594-.291,1.00391h-.44043l.93848-3.22461.0791-.27539a.68455.68455,0,0,0,.01367-.124.14266.14266,0,0,0-.05175-.1123.221.221,0,0,0-.15137-.0459,1.20238,1.20238,0,0,0-.20606.02832v-.09863Z" transform="translate(-106.354 -116.11903)"/>
  <path class="cls-1" d="M108.5249,162.165a1.89685,1.89685,0,0,1,.20752.47949,6.57313,6.57313,0,0,1,.11524.87695l.19433,2.17579q.26514-.31788.76953-1.00782.24317-.33691.60108-.916a3.05361,3.05361,0,0,0,.26513-.49414.40361.40361,0,0,0,.02686-.14649.10556.10556,0,0,0-.03125-.0791.47981.47981,0,0,0-.16113-.07324.438.438,0,0,1-.2168-.1543.41983.41983,0,0,1-.08594-.25879.40429.40429,0,0,1,.106-.292.35049.35049,0,0,1,.26514-.11035.42021.42021,0,0,1,.33154.16113.66531.66531,0,0,1,.13721.44434,1.73779,1.73779,0,0,1-.23877.79785,13.136,13.136,0,0,1-.91944,1.37695q-.68115.92871-1.64941,2.02539a5.45875,5.45875,0,0,1-.99024.95313,1.11737,1.11737,0,0,1-.55273.19629.35658.35658,0,0,1-.34473-.34473.43386.43386,0,0,1,.14356-.31445.44016.44016,0,0,1,.312-.14063.25059.25059,0,0,1,.14551.03907.28062.28062,0,0,1,.07763.127.45248.45248,0,0,0,.07715.13867.07335.07335,0,0,0,.05323.02148.21231.21231,0,0,0,.09277-.043,3.28633,3.28633,0,0,0,.56592-.47852,7.39162,7.39162,0,0,0,.62793-.707l-.24756-2.80274a1.96124,1.96124,0,0,0-.18555-.84472.50965.50965,0,0,0-.416-.15039c-.06153,0-.17237.00879-.33155.02636l-.03955-.16308Z" transform="translate(-106.354 -116.11903)"/>
  <path class="cls-1" d="M113.76057,157.578v4.87519h.75759v.32385h-1.26071v-5.52289h1.26071v.32385Zm1.72281,4.106v-.16193c.43373-.00579.57253.0058.57253-.69976v-2.21491c0-.16772-.01157-.30652-.18506-.30652a1.12019,1.12019,0,0,0-.39325.11566l-.06361-.15612,1.12191-.48h.14458v3.04187c0,.70556.133.69976.57253.69976v.16193Zm3.92745,1.093h-1.26071v-.32385h.75758V157.578h-.75758v-.32385h1.26071Z" transform="translate(-106.354 -116.11903)"/>
  <path class="cls-1" d="M113.81445,164.93555l-.80273,2.77734.32226-.27344a4.80345,4.80345,0,0,0,.68653-.66211.213.213,0,0,0,.05127-.10742.076.076,0,0,0-.01709-.04687.12364.12364,0,0,0-.06641-.03711.69955.69955,0,0,0-.17383-.01465h-.09912l.03125-.10645h1.23535l-.02832.10645a1.32571,1.32571,0,0,0-.36621.06641,1.14244,1.14244,0,0,0-.29834.16308q-.28491.21094-.37549.293l-.24316.21484q.06225.20508.15234.56836a6.248,6.248,0,0,0,.20655.71875c.03564.07422.07226.11231.11035.11231a.20029.20029,0,0,0,.11279-.04785,1.51341,1.51341,0,0,0,.314-.3418l.09863.07031a3.161,3.161,0,0,1-.47168.50977.51659.51659,0,0,1-.29981.123.212.212,0,0,1-.18359-.09277,6.487,6.487,0,0,1-.376-1.31445l-.3872.33691-.291,1.00293h-.44092l.938-3.22461.07959-.27441a.64458.64458,0,0,0,.01367-.125.14155.14155,0,0,0-.05224-.11231.22294.22294,0,0,0-.15088-.04589,1.1475,1.1475,0,0,0-.20654.02929v-.09961Z" transform="translate(-106.354 -116.11903)"/>
  <path class="cls-1" d="M389.67773,121.48486a1.875,1.875,0,0,1,.208.4795,6.58388,6.58388,0,0,1,.11524.87744l.19433,2.17529q.26514-.31787.76953-1.00781.24317-.33618.60157-.91553a3.11713,3.11713,0,0,0,.26464-.49512.41233.41233,0,0,0,.02637-.1455.10707.10707,0,0,0-.03027-.07959.47817.47817,0,0,0-.16211-.07325.4294.4294,0,0,1-.21582-.15478.41333.41333,0,0,1-.08692-.2583.40589.40589,0,0,1,.10645-.292.35183.35183,0,0,1,.26563-.11035.42.42,0,0,1,.33105.16114.66373.66373,0,0,1,.1377.44433,1.74073,1.74073,0,0,1-.23926.79785,13.02455,13.02455,0,0,1-.91992,1.37745q-.67969.92871-1.64844,2.0249a5.48344,5.48344,0,0,1-.99024.95263,1.117,1.117,0,0,1-.55273.19678.35473.35473,0,0,1-.34473-.34473.432.432,0,0,1,.14356-.314.43754.43754,0,0,1,.31152-.1416.24724.24724,0,0,1,.14551.04.27608.27608,0,0,1,.07715.126.43187.43187,0,0,0,.07812.13916.07193.07193,0,0,0,.05274.022.21826.21826,0,0,0,.09277-.044,3.2917,3.2917,0,0,0,.56641-.47754,7.35034,7.35034,0,0,0,.62695-.70752l-.24707-2.80322a1.9507,1.9507,0,0,0-.18555-.84424.51255.51255,0,0,0-.416-.15039q-.0923,0-.33106.02686l-.04-.16358Z" transform="translate(-106.354 -116.11903)"/>
  <path class="cls-1" d="M394.91469,116.89807v4.87512h.7576v.32386h-1.26071v-5.52283h1.26071v.32385Zm2.57294,4.17536c-.93689,0-1.39374-.9311-1.39374-1.98938,0-1.041.47421-1.98359,1.39374-1.98359.90793,0,1.38214.94263,1.38214,1.98359C398.86977,120.14233,398.36666,121.07343,397.48763,121.07343Zm0-3.74744c-.63617,0-.67664,1.08722-.67664,1.75806,0,.80963.0694,1.76385.665,1.76385.47425,0,.67664-.95422.67664-1.76385C398.15267,118.41321,398.1122,117.326,397.48763,117.326Zm3.07733,4.77106h-1.26071v-.32386h.7576v-4.87512h-.7576v-.32385H400.565Z" transform="translate(-106.354 -116.11903)"/>
  <path class="cls-1" d="M394.96875,124.25586l-.80273,2.77832.32226-.27441a4.78555,4.78555,0,0,0,.68652-.66114.21458.21458,0,0,0,.05079-.10742.07516.07516,0,0,0-.01661-.04785.12689.12689,0,0,0-.0664-.03711.73172.73172,0,0,0-.17383-.01416h-.09863l.03125-.10693h1.23437l-.02832.10693a1.30761,1.30761,0,0,0-.36523.06641,1.16441,1.16441,0,0,0-.29883.16259q-.28564.21242-.376.294l-.24316.21484q.063.20363.15332.56836a6.00789,6.00789,0,0,0,.20605.71778c.03614.07519.07227.11279.11036.11279a.20152.20152,0,0,0,.11328-.04785,1.51352,1.51352,0,0,0,.31347-.3418l.09864.07031a3.12661,3.12661,0,0,1-.47168.51026.5154.5154,0,0,1-.29981.123.21067.21067,0,0,1-.18359-.09326,6.47455,6.47455,0,0,1-.376-1.31445l-.38769.33642-.291,1.00342h-.44043l.93848-3.22461.0791-.27441a.68946.68946,0,0,0,.01367-.12451.14509.14509,0,0,0-.05176-.1128.226.226,0,0,0-.15136-.04541,1.20238,1.20238,0,0,0-.20606.02832v-.09863Z" transform="translate(-106.354 -116.11903)"/>
  <path class="cls-1" d="M403.54688,125.88281v-2.20605h-2.19727v-.36231h2.19727V121.1167h.3623v2.19775h2.207v.36231h-2.207v2.20605Z" transform="translate(-106.354 -116.11903)"/>
  <path class="cls-1" d="M410.55469,121.48486l-.06641.2251a1.57981,1.57981,0,0,0-1.43066,1.02149,4.3198,4.3198,0,0,0-.46192,1.8125.87215.87215,0,0,0,.16211.56591.5256.5256,0,0,0,.43067.19922q.64159,0,1.2207-1.01269c-.01563-.21192-.02246-.377-.02246-.49512a3.02671,3.02671,0,0,1,.20312-1.17383q.20363-.48413.50879-.48389a.26987.26987,0,0,1,.30078.30958,4.22268,4.22268,0,0,1-.79589,1.8833q.09668.9375.76464.937.66359,0,1.08106-.92823a4.26647,4.26647,0,0,0,.418-1.74218.83463.83463,0,0,0-.83985-.89307l.04786-.18115a1.44756,1.44756,0,0,1,1.48144,1.51221,2.99553,2.99553,0,0,1-.58105,1.7041,1.73769,1.73769,0,0,1-1.4795.84668.97741.97741,0,0,1-1.05664-1.00342q-.605,1.00341-1.35254,1.00342a1.10147,1.10147,0,0,1-.8623-.37793,1.54823,1.54823,0,0,1-.33594-1.063,2.8892,2.8892,0,0,1,.24317-1.1499,2.46062,2.46062,0,0,1,.67382-.92823,2.30373,2.30373,0,0,1,.80274-.4707A3.65526,3.65526,0,0,1,410.55469,121.48486Z" transform="translate(-106.354 -116.11903)"/>
  <path class="cls-1" d="M416.16016,118.18018l-.80274,2.77832.32227-.27442a4.78565,4.78565,0,0,0,.68652-.66113.21461.21461,0,0,0,.05078-.10742.07513.07513,0,0,0-.0166-.04785.12686.12686,0,0,0-.06641-.03711.73168.73168,0,0,0-.17382-.01416h-.09864l.03125-.10694h1.23438l-.02832.10694a1.30763,1.30763,0,0,0-.36524.0664,1.16456,1.16456,0,0,0-.29882.1626q-.28564.2124-.376.29395l-.24316.21484q.063.20361.15332.56836a6.0068,6.0068,0,0,0,.20605.71777c.03613.0752.07227.1128.11035.1128a.20142.20142,0,0,0,.11328-.04786,1.51323,1.51323,0,0,0,.31348-.34179l.09863.07031a3.126,3.126,0,0,1-.47168.51025.51538.51538,0,0,1-.2998.123.21068.21068,0,0,1-.1836-.09326,6.47511,6.47511,0,0,1-.376-1.31445l-.3877.33642-.291,1.00342h-.44043l.93847-3.22461.07911-.27441a.69037.69037,0,0,0,.01367-.12452.14506.14506,0,0,0-.05176-.11279.226.226,0,0,0-.15137-.04541,1.20242,1.20242,0,0,0-.20605.02832v-.09863Z" transform="translate(-106.354 -116.11903)"/>
  <path class="cls-1" d="M415.2832,125.31934l-.376,1.28564a6.05208,6.05208,0,0,1,.80957-1.03711.83533.83533,0,0,1,.542-.24853.31014.31014,0,0,1,.23242.09326.32958.32958,0,0,1,.0918.24267,1.75405,1.75405,0,0,1-.08106.45264l-.3457,1.18945a1.45352,1.45352,0,0,0-.05859.252.097.097,0,0,0,.02246.0664.06419.06419,0,0,0,.04785.02686.14479.14479,0,0,0,.082-.03711,1.90874,1.90874,0,0,0,.32813-.36182l.08691.05371a2.11321,2.11321,0,0,1-.49707.53711.54253.54253,0,0,1-.294.11035.22413.22413,0,0,1-.167-.06347.23633.23633,0,0,1-.06152-.17139,1.95288,1.95288,0,0,1,.0957-.46631l.32813-1.13574a1.28253,1.28253,0,0,0,.06152-.33105.1214.1214,0,0,0-.03613-.0918.126.126,0,0,0-.09082-.03516.38046.38046,0,0,0-.18946.06787,1.68543,1.68543,0,0,0-.43457.41944,5.90858,5.90858,0,0,0-.47851.74756,2.74008,2.74008,0,0,0-.21973.52587l-.1416.46631h-.42383l.51465-1.769a2.36855,2.36855,0,0,0,.08984-.38477.1475.1475,0,0,0-.04882-.10888.17445.17445,0,0,0-.123-.04639,1.11539,1.11539,0,0,0-.11914.01123l-.10742.01709-.01661-.10205Z" transform="translate(-106.354 -116.11903)"/>
  <path class="cls-1" d="M420.13184,121.48486a1.87526,1.87526,0,0,1,.208.4795,6.58388,6.58388,0,0,1,.11524.87744l.19433,2.17529q.26514-.31787.76954-1.00781.24315-.33618.60156-.91553a3.11833,3.11833,0,0,0,.26465-.49512.41255.41255,0,0,0,.02636-.1455.10707.10707,0,0,0-.03027-.07959.47817.47817,0,0,0-.16211-.07325.4294.4294,0,0,1-.21582-.15478.41333.41333,0,0,1-.08691-.2583.40588.40588,0,0,1,.10644-.292.35183.35183,0,0,1,.26563-.11035.42.42,0,0,1,.331.16114.66373.66373,0,0,1,.1377.44433,1.74073,1.74073,0,0,1-.23926.79785,13.02455,13.02455,0,0,1-.91992,1.37745q-.67969.92871-1.64844,2.0249a5.48382,5.48382,0,0,1-.99023.95263,1.11708,1.11708,0,0,1-.55274.19678.35473.35473,0,0,1-.34473-.34473.432.432,0,0,1,.14356-.314.43754.43754,0,0,1,.31152-.1416.24722.24722,0,0,1,.14551.04.27608.27608,0,0,1,.07715.126.43187.43187,0,0,0,.07812.13916.07193.07193,0,0,0,.05274.022.21815.21815,0,0,0,.09277-.044,3.2917,3.2917,0,0,0,.56641-.47754,7.349,7.349,0,0,0,.627-.70752l-.24707-2.80322a1.9507,1.9507,0,0,0-.18555-.84424.51253.51253,0,0,0-.416-.15039q-.09229,0-.33106.02686l-.04-.16358Z" transform="translate(-106.354 -116.11903)"/>
  <path class="cls-1" d="M425.36934,116.89807v4.87512h.7576v.32386h-1.26072v-5.52283h1.26072v.32385Zm1.72281,4.106v-.16193c.43374-.0058.57254.0058.57254-.69977v-2.2149c0-.16773-.0116-.30652-.18506-.30652a1.12133,1.12133,0,0,0-.39325.11566l-.06363-.15613,1.12192-.48h.14459v3.04187c0,.70557.133.69977.57251.69977v.16193Zm3.92746,1.093h-1.26072v-.32386h.7576v-4.87512h-.7576v-.32385h1.26072Z" transform="translate(-106.354 -116.11903)"/>
  <path class="cls-1" d="M425.42285,124.25586l-.80273,2.77832.32226-.27441a4.78635,4.78635,0,0,0,.68653-.66114.21454.21454,0,0,0,.05078-.10742.0752.0752,0,0,0-.0166-.04785.127.127,0,0,0-.06641-.03711.73172.73172,0,0,0-.17383-.01416h-.09863l.03125-.10693h1.23437l-.02832.10693a1.30761,1.30761,0,0,0-.36523.06641,1.16441,1.16441,0,0,0-.29883.16259q-.28565.21242-.376.294l-.24316.21484q.063.20363.15332.56836a6.00493,6.00493,0,0,0,.20606.71778c.03613.07519.07226.11279.11035.11279a.20152.20152,0,0,0,.11328-.04785,1.51352,1.51352,0,0,0,.31347-.3418l.09864.07031a3.12661,3.12661,0,0,1-.47168.51026.5154.5154,0,0,1-.29981.123.21067.21067,0,0,1-.18359-.09326,6.47455,6.47455,0,0,1-.376-1.31445l-.38769.33642-.291,1.00342h-.44043l.93848-3.22461.0791-.27441a.68946.68946,0,0,0,.01367-.12451.14509.14509,0,0,0-.05176-.1128.226.226,0,0,0-.15136-.04541,1.20238,1.20238,0,0,0-.20606.02832v-.09863Z" transform="translate(-106.354 -116.11903)"/>
  <rect class="cls-1" x="295.28231" y="47.541" width="4.25197" height="0.45239"/>
</svg>
