<svg id="图层_1" data-name="图层 1" xmlns="http://www.w3.org/2000/svg" viewBox="0 0 425.19685 113.38583">
  <defs>
    <style>
      .cls-1 {
        fill: #fff;
      }

      .cls-1, .cls-10, .cls-11, .cls-12, .cls-124, .cls-13, .cls-2, .cls-3, .cls-4, .cls-5, .cls-6, .cls-7, .cls-8, .cls-9 {
        stroke: #4d4d4d;
        stroke-miterlimit: 10;
      }

      .cls-1, .cls-10, .cls-11, .cls-12, .cls-13, .cls-2, .cls-3, .cls-4, .cls-5, .cls-6, .cls-7, .cls-8, .cls-9 {
        stroke-width: 0.4px;
      }

      .cls-2 {
        fill: #fcfc00;
      }

      .cls-3 {
        fill: #00c900;
      }

      .cls-4 {
        fill: #fc0000;
      }

      .cls-5 {
        fill: #0000c9;
      }

      .cls-6 {
        fill: #90fc70;
      }

      .cls-7 {
        fill: #030390;
      }

      .cls-8 {
        fill: #800504;
      }

      .cls-9 {
        fill: #fecf04;
      }

      .cls-10 {
        fill: #fda005;
      }

      .cls-11 {
        fill: #04a0fe;
      }

      .cls-12 {
        fill: #fe3600;
      }

      .cls-13 {
        fill: #cf0303;
      }

      .cls-14 {
        fill: #0240fa;
      }

      .cls-15 {
        fill: #faea01;
      }

      .cls-16 {
        fill: #fa8e02;
      }

      .cls-17 {
        fill: #3dfbbe;
      }

      .cls-18 {
        fill: #01edfb;
      }

      .cls-19 {
        fill: #adf94e;
      }

      .cls-20 {
        fill: #06dcf8;
      }

      .cls-21 {
        fill: #fbcb03;
      }

      .cls-22 {
        fill: #52db89;
      }

      .cls-23 {
        fill: #7e0100;
      }

      .cls-24 {
        fill: #fd2f00;
      }

      .cls-25 {
        fill: #00affe;
      }

      .cls-26 {
        fill: #2ffece;
      }

      .cls-27 {
        fill: #ec0703;
      }

      .cls-28 {
        fill: #fdce03;
      }

      .cls-29 {
        fill: #fd8f01;
      }

      .cls-30 {
        fill: #8efe6f;
      }

      .cls-31 {
        fill: #befd3f;
      }

      .cls-32 {
        fill: #037efa;
      }

      .cls-33 {
        fill: #fd9e01;
      }

      .cls-34 {
        fill: #029ffd;
      }

      .cls-35 {
        fill: #3ffebe;
      }

      .cls-36 {
        fill: #fbcd02;
      }

      .cls-37 {
        fill: #4efcad;
      }

      .cls-38 {
        fill: #bb0403;
      }

      .cls-39 {
        fill: #edfb0f;
      }

      .cls-40 {
        fill: #001ffc;
      }

      .cls-41 {
        fill: #6dfa8f;
      }

      .cls-42 {
        fill: #41fdbb;
      }

      .cls-43 {
        fill: #ecfc0f;
      }

      .cls-44 {
        fill: #01019d;
      }

      .cls-45 {
        fill: #9efe5f;
      }

      .cls-46 {
        fill: #defe1f;
      }

      .cls-47 {
        fill: #6efe8f;
      }

      .cls-48 {
        fill: #0270fc;
      }

      .cls-49 {
        fill: #00cefe;
      }

      .cls-50 {
        fill: #0ffced;
      }

      .cls-51 {
        fill: #7efe7f;
      }

      .cls-52 {
        fill: #5efc9f;
      }

      .cls-53 {
        fill: #ddfe20;
      }

      .cls-54 {
        fill: #fb0202;
      }

      .cls-55 {
        fill: #03028d;
      }

      .cls-56 {
        fill: #f99d04;
      }

      .cls-57 {
        fill: #01eefd;
      }

      .cls-58 {
        fill: #fc5203;
      }

      .cls-59 {
        fill: #0205ed;
      }

      .cls-60 {
        fill: #aefe4f;
      }

      .cls-61 {
        fill: #de0300;
      }

      .cls-62 {
        fill: #faee05;
      }

      .cls-63 {
        fill: #fe7d00;
      }

      .cls-64 {
        fill: #04fcfa;
      }

      .cls-65 {
        fill: #eafe13;
      }

      .cls-66 {
        fill: #9ffe5e;
      }

      .cls-67 {
        fill: #bffe3e;
      }

      .cls-68 {
        fill: #fcee03;
      }

      .cls-69 {
        fill: #befe3f;
      }

      .cls-70 {
        fill: #fcfd02;
      }

      .cls-71 {
        fill: #5dfea1;
      }

      .cls-72 {
        fill: #29fed4;
      }

      .cls-73 {
        fill: #f9b105;
      }

      .cls-74 {
        fill: #6ffe8e;
      }

      .cls-75 {
        fill: #1ffede;
      }

      .cls-76 {
        fill: #00eefe;
      }

      .cls-77 {
        fill: #0004af;
      }

      .cls-78 {
        fill: #10fded;
      }

      .cls-79 {
        fill: #fe7f00;
      }

      .cls-80 {
        fill: #fece00;
      }

      .cls-81 {
        fill: #029ffc;
      }

      .cls-82 {
        fill: #ce0200;
      }

      .cls-83 {
        fill: #defd1f;
      }

      .cls-84 {
        fill: #7c0405;
      }

      .cls-85 {
        fill: #00bdfc;
      }

      .cls-86 {
        fill: #9efc5e;
      }

      .cls-87 {
        fill: #fccd00;
      }

      .cls-88 {
        fill: #ddfc1f;
      }

      .cls-89 {
        fill: #6dfa8e;
      }

      .cls-90 {
        fill: #006efb;
      }

      .cls-91 {
        fill: #f9fa03;
      }

      .cls-92 {
        fill: #008efc;
      }

      .cls-93 {
        fill: #0ffbed;
      }

      .cls-94 {
        fill: #8e0100;
      }

      .cls-95 {
        fill: #f9bb03;
      }

      .cls-96 {
        fill: #fc0300;
      }

      .cls-97 {
        fill: #fb8e00;
      }

      .cls-98 {
        fill: #ec0101;
      }

      .cls-99 {
        fill: #fc0101;
      }

      .cls-100 {
        fill: #00fbfc;
      }

      .cls-101 {
        fill: #0203bd;
      }

      .cls-102 {
        fill: #000ffb;
      }

      .cls-103 {
        fill: #5ffe9e;
      }

      .cls-104 {
        fill: #fe6100;
      }

      .cls-105 {
        fill: #feee00;
      }

      .cls-106 {
        fill: #fc9f02;
      }

      .cls-107 {
        fill: #00defe;
      }

      .cls-108 {
        fill: #bc0704;
      }

      .cls-109 {
        fill: #fcbd00;
      }

      .cls-110 {
        fill: #fc8e01;
      }

      .cls-111 {
        fill: #ee0500;
      }

      .cls-112 {
        fill: #fcfc02;
      }

      .cls-113 {
        fill: #4ffeae;
      }

      .cls-114 {
        fill: #ad0402;
      }

      .cls-115 {
        fill: #fe6e00;
      }

      .cls-116 {
        fill: #fcec00;
      }

      .cls-117 {
        fill: #bdfc3e;
      }

      .cls-118 {
        fill: #fced02;
      }

      .cls-119 {
        fill: #8f0200;
      }

      .cls-120 {
        fill: #ae0505;
      }

      .cls-121 {
        fill: #eefe0f;
      }

      .cls-122 {
        fill: #0ffeee;
      }

      .cls-123 {
        fill: #affe4f;
      }

      .cls-124 {
        fill: none;
        stroke-width: 1.5px;
      }
    </style>
  </defs>
  <title>[OPTSx0011]_Compressive_Sensing_Sensing_Matrix</title>
  <g>
    <g>
      <rect class="cls-1" x="212.7877" y="60.84674" width="4.8" height="4.8"/>
      <rect class="cls-1" x="212.7877" y="56.04674" width="4.8" height="4.8"/>
      <rect class="cls-1" x="212.7877" y="22.64674" width="4.8" height="4.8"/>
      <rect class="cls-2" x="212.7877" y="27.44674" width="4.8" height="4.8"/>
      <rect class="cls-3" x="212.7877" y="32.24674" width="4.8" height="4.8"/>
      <rect class="cls-1" x="212.7877" y="36.94674" width="4.8" height="4.8"/>
      <rect class="cls-1" x="212.7877" y="41.74674" width="4.8" height="4.8"/>
      <rect class="cls-4" x="212.7877" y="46.54674" width="4.8" height="4.8"/>
      <rect class="cls-1" x="212.7877" y="51.24674" width="4.8" height="4.8"/>
      <rect class="cls-1" x="212.7877" y="17.94674" width="4.8" height="4.8"/>
      <rect class="cls-1" x="212.7877" y="65.64674" width="4.8" height="4.8"/>
      <rect class="cls-1" x="212.7877" y="70.34674" width="4.8" height="4.8"/>
      <rect class="cls-5" x="212.7877" y="75.14674" width="4.8" height="4.8"/>
      <rect class="cls-1" x="212.7877" y="79.94674" width="4.8" height="4.8"/>
      <rect class="cls-1" x="212.7877" y="84.64674" width="4.8" height="4.8"/>
      <rect class="cls-1" x="212.7877" y="89.44674" width="4.8" height="4.8"/>
    </g>
    <g>
      <rect class="cls-6" x="91.53618" y="41.74674" width="4.8" height="4.8"/>
      <rect class="cls-7" x="91.53618" y="46.54674" width="4.8" height="4.8"/>
      <rect class="cls-8" x="91.53618" y="51.34674" width="4.8" height="4.8"/>
      <rect class="cls-9" x="91.53618" y="56.04674" width="4.8" height="4.8"/>
      <rect class="cls-10" x="91.53618" y="60.84674" width="4.8" height="4.8"/>
      <rect class="cls-11" x="91.53618" y="65.64674" width="4.8" height="4.8"/>
      <rect class="cls-12" x="91.53618" y="70.34674" width="4.8" height="4.8"/>
      <rect class="cls-13" x="91.53618" y="37.04674" width="4.8" height="4.8"/>
    </g>
    <g>
      <g>
        <rect class="cls-14" x="135.75096" y="41.82333" width="4.75126" height="4.75126"/>
        <rect class="cls-15" x="135.75096" y="46.59442" width="4.75126" height="4.75126"/>
        <rect class="cls-16" x="135.75096" y="51.36552" width="4.75126" height="4.75126"/>
        <rect class="cls-17" x="135.75096" y="56.13662" width="4.75126" height="4.75126"/>
        <rect class="cls-18" x="135.75096" y="60.90772" width="4.75126" height="4.75126"/>
        <rect class="cls-19" x="135.75096" y="65.67882" width="4.75126" height="4.75126"/>
        <rect class="cls-20" x="135.75096" y="70.44992" width="4.75126" height="4.75126"/>
        <rect class="cls-21" x="135.75096" y="37.05223" width="4.75126" height="4.75126"/>
        <rect class="cls-22" x="131.0237" y="41.82333" width="4.75126" height="4.75126"/>
        <rect class="cls-23" x="131.0237" y="46.59442" width="4.75126" height="4.75126"/>
        <rect class="cls-24" x="131.0237" y="51.36552" width="4.75126" height="4.75126"/>
        <rect class="cls-25" x="131.0237" y="56.13662" width="4.75126" height="4.75126"/>
        <rect class="cls-26" x="131.0237" y="60.90772" width="4.75126" height="4.75126"/>
        <rect class="cls-27" x="131.0237" y="65.67882" width="4.75126" height="4.75126"/>
        <rect class="cls-28" x="131.0237" y="70.44992" width="4.75126" height="4.75126"/>
        <rect class="cls-29" x="131.0237" y="37.05223" width="4.75126" height="4.75126"/>
        <rect class="cls-30" x="197.20537" y="41.82333" width="4.75126" height="4.75126"/>
        <rect class="cls-26" x="197.20537" y="46.59442" width="4.75126" height="4.75126"/>
        <rect class="cls-31" x="197.20537" y="51.36552" width="4.75126" height="4.75126"/>
        <rect class="cls-32" x="197.20537" y="56.13662" width="4.75126" height="4.75126"/>
        <rect class="cls-33" x="197.20537" y="60.90772" width="4.75126" height="4.75126"/>
        <rect class="cls-34" x="197.20537" y="65.67882" width="4.75126" height="4.75126"/>
        <rect class="cls-35" x="197.20537" y="70.44992" width="4.75126" height="4.75126"/>
        <rect class="cls-36" x="192.46611" y="37.05223" width="4.75126" height="4.75126"/>
        <rect class="cls-37" x="192.47811" y="41.82333" width="4.75126" height="4.75126"/>
        <rect class="cls-38" x="192.47811" y="46.59442" width="4.75126" height="4.75126"/>
        <rect class="cls-39" x="192.47811" y="51.36552" width="4.75126" height="4.75126"/>
        <rect class="cls-40" x="192.47811" y="56.13662" width="4.75126" height="4.75126"/>
        <rect class="cls-41" x="192.47811" y="60.90772" width="4.75126" height="4.75126"/>
        <rect class="cls-42" x="192.47811" y="65.67882" width="4.75126" height="4.75126"/>
        <rect class="cls-43" x="192.47811" y="70.44992" width="4.75126" height="4.75126"/>
        <rect class="cls-44" x="187.73884" y="37.05223" width="4.75126" height="4.75126"/>
        <rect class="cls-45" x="187.75084" y="41.82333" width="4.75126" height="4.75126"/>
        <rect class="cls-46" x="187.75084" y="46.59442" width="4.75126" height="4.75126"/>
        <rect class="cls-47" x="187.75084" y="51.36552" width="4.75126" height="4.75126"/>
        <rect class="cls-45" x="187.75084" y="56.13662" width="4.75126" height="4.75126"/>
        <rect class="cls-48" x="187.75084" y="60.90772" width="4.75126" height="4.75126"/>
        <rect class="cls-49" x="187.75084" y="65.67882" width="4.75126" height="4.75126"/>
        <rect class="cls-50" x="187.75084" y="70.44992" width="4.75126" height="4.75126"/>
        <rect class="cls-51" x="183.01158" y="37.05223" width="4.75126" height="4.75126"/>
        <rect class="cls-52" x="183.02358" y="41.82333" width="4.75126" height="4.75126"/>
        <rect class="cls-53" x="183.02358" y="46.59442" width="4.75126" height="4.75126"/>
        <rect class="cls-54" x="183.02358" y="51.36552" width="4.75126" height="4.75126"/>
        <rect class="cls-55" x="183.02358" y="56.13662" width="4.75126" height="4.75126"/>
        <rect class="cls-56" x="183.02358" y="60.90772" width="4.75126" height="4.75126"/>
        <rect class="cls-57" x="183.02358" y="65.67882" width="4.75126" height="4.75126"/>
        <rect class="cls-58" x="183.02358" y="70.44992" width="4.75126" height="4.75126"/>
        <rect class="cls-51" x="178.28432" y="37.05223" width="4.75126" height="4.75126"/>
        <rect class="cls-59" x="178.29632" y="41.82333" width="4.75126" height="4.75126"/>
        <rect class="cls-60" x="178.29632" y="46.59442" width="4.75126" height="4.75126"/>
        <rect class="cls-61" x="178.29632" y="51.36552" width="4.75126" height="4.75126"/>
        <rect class="cls-29" x="178.29632" y="56.13662" width="4.75126" height="4.75126"/>
        <rect class="cls-51" x="178.29632" y="60.90772" width="4.75126" height="4.75126"/>
        <rect class="cls-35" x="178.29632" y="65.67882" width="4.75126" height="4.75126"/>
        <rect class="cls-62" x="178.29632" y="70.44992" width="4.75126" height="4.75126"/>
        <rect class="cls-57" x="173.56906" y="41.82333" width="4.75126" height="4.75126"/>
        <rect class="cls-60" x="173.56906" y="46.59442" width="4.75126" height="4.75126"/>
        <rect class="cls-63" x="173.56906" y="51.36552" width="4.75126" height="4.75126"/>
        <rect class="cls-64" x="173.56906" y="56.13662" width="4.75126" height="4.75126"/>
        <rect class="cls-65" x="173.56906" y="60.90772" width="4.75126" height="4.75126"/>
        <rect class="cls-66" x="173.56906" y="65.67882" width="4.75126" height="4.75126"/>
        <rect class="cls-67" x="173.56906" y="70.44992" width="4.75126" height="4.75126"/>
        <rect class="cls-68" x="173.56906" y="37.05223" width="4.75126" height="4.75126"/>
        <rect class="cls-60" x="168.84179" y="41.82333" width="4.75126" height="4.75126"/>
        <rect class="cls-69" x="168.84179" y="46.59442" width="4.75126" height="4.75126"/>
        <rect class="cls-70" x="168.84179" y="51.36552" width="4.75126" height="4.75126"/>
        <rect class="cls-71" x="168.84179" y="56.13662" width="4.75126" height="4.75126"/>
        <rect class="cls-72" x="168.84179" y="60.90772" width="4.75126" height="4.75126"/>
        <rect class="cls-73" x="168.84179" y="65.67882" width="4.75126" height="4.75126"/>
        <rect class="cls-74" x="168.84179" y="70.44992" width="4.75126" height="4.75126"/>
        <rect class="cls-60" x="168.84179" y="37.05223" width="4.75126" height="4.75126"/>
        <rect class="cls-75" x="164.11453" y="41.82333" width="4.75126" height="4.75126"/>
        <rect class="cls-69" x="164.11453" y="46.59442" width="4.75126" height="4.75126"/>
        <rect class="cls-76" x="164.11453" y="51.36552" width="4.75126" height="4.75126"/>
        <rect class="cls-76" x="164.11453" y="56.13662" width="4.75126" height="4.75126"/>
        <rect class="cls-77" x="164.11453" y="60.90772" width="4.75126" height="4.75126"/>
        <rect class="cls-78" x="164.11453" y="65.67882" width="4.75126" height="4.75126"/>
        <rect class="cls-68" x="164.11453" y="70.44992" width="4.75126" height="4.75126"/>
        <rect class="cls-75" x="164.11453" y="37.05223" width="4.75126" height="4.75126"/>
        <rect class="cls-79" x="159.38727" y="41.82333" width="4.75126" height="4.75126"/>
        <rect class="cls-80" x="159.38727" y="46.59442" width="4.75126" height="4.75126"/>
        <rect class="cls-81" x="159.38727" y="51.36552" width="4.75126" height="4.75126"/>
        <rect class="cls-82" x="159.38727" y="56.13662" width="4.75126" height="4.75126"/>
        <rect class="cls-83" x="159.38727" y="60.90772" width="4.75126" height="4.75126"/>
        <rect class="cls-84" x="159.38727" y="65.67882" width="4.75126" height="4.75126"/>
        <rect class="cls-85" x="159.38727" y="70.44992" width="4.75126" height="4.75126"/>
        <rect class="cls-86" x="159.38727" y="37.05223" width="4.75126" height="4.75126"/>
        <rect class="cls-87" x="154.66001" y="41.82333" width="4.75126" height="4.75126"/>
        <rect class="cls-88" x="154.66001" y="46.59442" width="4.75126" height="4.75126"/>
        <rect class="cls-89" x="154.66001" y="51.36552" width="4.75126" height="4.75126"/>
        <rect class="cls-90" x="154.66001" y="56.13662" width="4.75126" height="4.75126"/>
        <rect class="cls-91" x="154.66001" y="60.90772" width="4.75126" height="4.75126"/>
        <rect class="cls-92" x="154.66001" y="65.67882" width="4.75126" height="4.75126"/>
        <rect class="cls-93" x="154.66001" y="70.44992" width="4.75126" height="4.75126"/>
        <rect class="cls-94" x="154.66001" y="37.05223" width="4.75126" height="4.75126"/>
        <rect class="cls-95" x="149.93274" y="41.82333" width="4.75126" height="4.75126"/>
        <rect class="cls-96" x="149.93274" y="46.59442" width="4.75126" height="4.75126"/>
        <rect class="cls-97" x="149.93274" y="51.36552" width="4.75126" height="4.75126"/>
        <rect class="cls-98" x="149.93274" y="56.13662" width="4.75126" height="4.75126"/>
        <rect class="cls-99" x="149.93274" y="60.90772" width="4.75126" height="4.75126"/>
        <rect class="cls-100" x="149.93274" y="65.67882" width="4.75126" height="4.75126"/>
        <rect class="cls-101" x="149.93274" y="70.44992" width="4.75126" height="4.75126"/>
        <rect class="cls-102" x="149.93274" y="37.05223" width="4.75126" height="4.75126"/>
        <rect class="cls-103" x="145.20548" y="41.82333" width="4.75126" height="4.75126"/>
        <rect class="cls-104" x="145.20548" y="46.59442" width="4.75126" height="4.75126"/>
        <rect class="cls-105" x="145.20548" y="51.36552" width="4.75126" height="4.75126"/>
        <rect class="cls-106" x="145.20548" y="56.13662" width="4.75126" height="4.75126"/>
        <rect class="cls-107" x="145.20548" y="60.90772" width="4.75126" height="4.75126"/>
        <rect class="cls-108" x="145.20548" y="65.67882" width="4.75126" height="4.75126"/>
        <rect class="cls-109" x="145.20548" y="70.44992" width="4.75126" height="4.75126"/>
        <rect class="cls-110" x="145.20548" y="37.05223" width="4.75126" height="4.75126"/>
        <rect class="cls-105" x="140.47822" y="41.82333" width="4.75126" height="4.75126"/>
        <rect class="cls-111" x="140.47822" y="46.59442" width="4.75126" height="4.75126"/>
        <rect class="cls-112" x="140.47822" y="51.36552" width="4.75126" height="4.75126"/>
        <rect class="cls-113" x="140.47822" y="56.13662" width="4.75126" height="4.75126"/>
        <rect class="cls-114" x="140.47822" y="60.90772" width="4.75126" height="4.75126"/>
        <rect class="cls-115" x="140.47822" y="65.67882" width="4.75126" height="4.75126"/>
        <rect class="cls-116" x="140.47822" y="70.44992" width="4.75126" height="4.75126"/>
        <rect class="cls-117" x="140.47822" y="37.05223" width="4.75126" height="4.75126"/>
        <rect class="cls-118" x="201.93263" y="41.82333" width="4.75126" height="4.75126"/>
        <rect class="cls-69" x="201.93263" y="46.59442" width="4.75126" height="4.75126"/>
        <rect class="cls-119" x="201.93263" y="51.36552" width="4.75126" height="4.75126"/>
        <rect class="cls-120" x="201.93263" y="56.13662" width="4.75126" height="4.75126"/>
        <rect class="cls-33" x="201.93263" y="60.90772" width="4.75126" height="4.75126"/>
        <rect class="cls-121" x="201.93263" y="65.67882" width="4.75126" height="4.75126"/>
        <rect class="cls-122" x="201.93263" y="70.44992" width="4.75126" height="4.75126"/>
        <rect class="cls-66" x="197.19337" y="37.05223" width="4.75126" height="4.75126"/>
        <rect class="cls-123" x="201.92063" y="37.05223" width="4.75126" height="4.75126"/>
      </g>
      <g>
        <rect class="cls-124" x="140.45385" y="36.9862" width="4.8" height="38.18102"/>
        <rect class="cls-124" x="145.18111" y="36.9862" width="4.8" height="38.18102"/>
        <rect class="cls-124" x="159.3629" y="37.02628" width="4.8" height="38.18102"/>
        <rect class="cls-124" x="187.71447" y="36.98619" width="4.8" height="38.18102"/>
      </g>
    </g>
    <g>
      <line class="cls-124" x1="108.68699" y1="53.57445" x2="119.69336" y2="53.57445"/>
      <line class="cls-124" x1="108.68699" y1="58.61903" x2="119.69336" y2="58.61903"/>
    </g>
    <path d="M212.52239,99.788h-.09455a2.77384,2.77384,0,0,1-.35459-.01208q-.0591-.012-.0591-.13294,0-.32621.13-.3988.02364-.012,1.14651-.012h1.04011q.13,0,.16548.07251,2.49393,5.994,2.54121,6.15107l.63825-2.574q.62644-2.54983.62645-2.71905,0-.3262-.75646-.37464-.28368,0-.28367-.13287a1.23119,1.23119,0,0,1,.02364-.145,1.08938,1.08938,0,0,1,.07091-.22962q.02365-.03625.11821-.04834.03546,0,.36641.012.33093.01218.981.02423.591,0,.8983-.01209t.35458-.01214q.17729,0,.17729.12091a.5226.5226,0,0,1-.09455.36249q-.02364.06051-.26.06042-.8392.04835-1.05194.4834l-1.76112,7.13q-.02364.0845-.24821.08459a.47337.47337,0,0,1-.20093-.02423q-.03546-.03616-1.52473-3.66162l-1.50109-3.61334-.76827,3.142q-.76827,3.09366-.76827,3.20246.05909.39881.851.39874h.11819q.07092.06051.07092.09668,0,.03634-.02364.22968a.55767.55767,0,0,1-.1182.22961h-.15365q-.3664-.02416-1.27652-.02423h-1.04011a.92276.92276,0,0,0-.20094.01208q-.1773,0-.1773-.10876a1.0375,1.0375,0,0,1,.03546-.19336.5031.5031,0,0,1,.0591-.16913q.02364-.07251.27185-.07257a1.14335,1.14335,0,0,0,1.04013-.47125q.04727-.07251.83919-3.34747l.80373-3.287Q213.14882,99.81225,212.52239,99.788Z"/>
    <path d="M90.85643,81.27838q0-.07251-.69113-.09668a3.48414,3.48414,0,0,1-.37588-.01208q-.08487-.012-.08488-.12079,0-.01218.02426-.13293.01212-.03636.02425-.08466a.36468.36468,0,0,0,.01212-.06036.21111.21111,0,0,1,.02425-.06043q.02425-.04834.02425-.03625t.04851-.02417q.0485-.03625.06061-.02417t.097,0a1.05508,1.05508,0,0,1,.1455-.01209h.36375q.291,0,.54563.01209h1.10338a.24224.24224,0,0,1,.194.06036q.01214.04834.44863,3.4079l.4365,3.37164.27888-.44708q.291-.43506.776-1.2085t1.067-1.69183q2.12187-3.3717,2.14613-3.39581l.03638-.03632a.18934.18934,0,0,1,.0485-.03619l.07275-.02417h1.649a2.97018,2.97018,0,0,0,.35161-.01209q.41226,0,.41226.13294a.98884.98884,0,0,1-.03637.20544q-.03639.145-.03638.1571-.04849.07251-.44863.07245a5.42551,5.42551,0,0,0-.61838.03626.347.347,0,0,0-.21825.133q-.03636.06035-.873,3.41993t-.84875,3.39581a.09535.09535,0,0,0,.01212.06042.47379.47379,0,0,0,.08489.04834.39134.39134,0,0,0,.20612.02417,1.94629,1.94629,0,0,1,.40012.02417h.37588a.4343.4343,0,0,1,.07275.13294.79713.79713,0,0,1-.08488.36249.266.266,0,0,1-.194.06048q-.06064,0-.49713-.01214t-1.11551-.012h-1.1155a3.61206,3.61206,0,0,0-.42437.012q-.20614,0-.20614-.12079,0-.02418.02426-.16925.0485-.19337.097-.21747a1.0085,1.0085,0,0,1,.27888-.03626q.32736,0,.7275-.03631a.322.322,0,0,0,.23037-.145q.02425-.04834.46075-1.76434t.86088-3.42l.42438-1.70392-2.35226,3.7342q-2.37651,3.77042-2.43713,3.83075l-.0485.02423a.39386.39386,0,0,1-.194.03625q-.18188,0-.21825-.08459-.02425-.04834-.49712-3.74628l-.47288-3.71-.82451,3.26288q-.81237,3.2145-.81237,3.32324.07275.39881.873.3988h.12125a.23434.23434,0,0,1,.08488.10871.56415.56415,0,0,1-.03638.21759q-.0485.19335-.097.21747a.57386.57386,0,0,1-.13338.01214h-.14549q-.12126,0-.41226-.01214t-.776-.012q-.36375,0-.75175.012t-.44863.01214a.65667.65667,0,0,1-.23037-.02417q-.04851-.02416-.0485-.10876a1.27987,1.27987,0,0,1,.03637-.16925.73451.73451,0,0,1,.06063-.18122q.02424-.07251.26675-.07251.84874,0,1.07912-.4834.04853-.07251.83663-3.23864T90.85643,81.27838Z"/>
    <path d="M230.77232,51.29475q0-.08458-.673-.10882a3.15839,3.15839,0,0,1-.35421-.012q-.08263-.01208-.08264-.10876,0-.02416.02361-.16925.07084-.2416.11806-.25372a.39306.39306,0,0,1,.12988-.01209h.059q.48407.02416,1.60572.02417h.74382q.34239,0,.5313-.01208a1.0528,1.0528,0,0,1,.23613,0q.20072,0,.20072.09667a.59126.59126,0,0,1-.03542.16919.17175.17175,0,0,0-.0118.07251.172.172,0,0,1-.01181.07251l-.02362.04834a.07773.07773,0,0,1-.03541.0362l-.04723.02423a.19962.19962,0,0,1-.08266.01208.43225.43225,0,0,0-.10626.012.539.539,0,0,1-.16529,0,5.14192,5.14192,0,0,0-.60214.03631.33658.33658,0,0,0-.21253.13294l-.95634,3.84289q.0118,0,2.17245-1.74023t2.21966-1.78851a.46436.46436,0,0,0,.16529-.278q0-.18118-.29516-.20544-.18891,0-.18891-.13288a1.31176,1.31176,0,0,1,.03542-.16919.74923.74923,0,0,1,.059-.18127q.03543-.06042.20071-.06042.04725,0,.41325.01208t.94453.01208q.27156,0,.56673-.01208t.3542-.01208q.23615,0,.23613.12084a.52318.52318,0,0,1-.09445.36255q-.03542.06043-.22433.06037a2.90018,2.90018,0,0,0-1.60572.61639q-.18891.12085-.82647.62842t-1.18067.95465l-.55492.44714.10626.26581q.10626.26588.33059.80969t.41324,1.02723q.88551,2.139.94454,2.21148a.38762.38762,0,0,0,.059.04834,1.13191,1.13191,0,0,0,.60215.13294h.24794a.52775.52775,0,0,1,.07084.10876q0,.01209-.03543.21753a.55749.55749,0,0,1-.11806.22962h-.12988q-.47226-.03625-1.12163-.03626-1.44043,0-1.61753.03626H233.051q-.07083-.07251-.07084-.10877t.02362-.21753a1.00081,1.00081,0,0,1,.07083-.19336q.02362-.03625.12988-.03625h.03542q.59034,0,.59033-.30213,0-.04833-.31877-.84594t-.37783-.90632l-.68478-1.66766-.80286.64044-.80286.64051-.27155,1.12384q-.27156,1.11182-.27156,1.17224a.10718.10718,0,0,0,.09445.10876,4.2296,4.2296,0,0,0,.59034.03626h.366a.43883.43883,0,0,1,.07084.13293.815.815,0,0,1-.08265.36255.25493.25493,0,0,1-.18891.06043q-.03542,0-.43684-.01209t-1.18068-.01208H228.411a3.37951,3.37951,0,0,0-.425.01208q-.21252,0-.21253-.12085a1.31079,1.31079,0,0,1,.03543-.16919q.04722-.19335.09445-.21753a.95823.95823,0,0,1,.27155-.03625q.3188,0,.70841-.03626a.31334.31334,0,0,0,.22433-.145q.03542-.04833.85009-3.35956T230.77232,51.29475Z"/>
    <g>
      <path d="M148.33622,28.00238V25.44464h.75324v.42627h2.39338v-.42627h.75325v2.55774h-.75325v-.42627h-2.39338v.42627Zm1.85882-5.05274a2.22689,2.22689,0,0,0-.59531.08777,3.475,3.475,0,0,0-.6925.28833,2.18318,2.18318,0,0,0-.70465.63941,2.82572,2.82572,0,0,0-.47381,1.05322,7.15576,7.15576,0,0,0-.18224,1.7428,7.51454,7.51454,0,0,0,.10934,1.41681,3.06755,3.06755,0,0,0,.86259,1.68,2.50366,2.50366,0,0,0,1.77377.63941,2.35,2.35,0,0,0,1.76162-.6269,3.24834,3.24834,0,0,0,.86259-1.69256,7.51454,7.51454,0,0,0,.10934-1.41681Q153.02578,22.94955,150.195,22.94964Zm2.30833,8.21229h-2.22329a4.55082,4.55082,0,0,1-3.42605-1.24122,4.38028,4.38028,0,0,1-1.21491-3.147,5.99184,5.99184,0,0,1,.085-1.003,4.52307,4.52307,0,0,1,.37664-1.12842,3.75532,3.75532,0,0,1,.74109-1.07825,4.37986,4.37986,0,0,1,1.25135-.82751,4.86054,4.86054,0,0,1,1.84668-.42627h.243q.60744,0,.74109.01257a5.03474,5.03474,0,0,1,1.76162.50147,3.80864,3.80864,0,0,1,1.17847.89026,3.97191,3.97191,0,0,1,.6682,1.11584,5.88959,5.88959,0,0,1,.328,1.07825,4.76731,4.76731,0,0,1-1.142,4.01214Z"/>
      <path d="M159.77825,29.11829a.247.247,0,0,1,.19439-.25074h7.72684a.33642.33642,0,0,1,.17009.25074.27352.27352,0,0,1-.18224.25073h-7.739A.27314.27314,0,0,1,159.77825,29.11829Zm0-2.43238a.27321.27321,0,0,1,.17009-.25079h7.739a.29121.29121,0,0,1,.18224.25079.28424.28424,0,0,1-.17009.23822l-3.86342.01258h-3.86342A.24712.24712,0,0,1,159.77825,26.68591Z"/>
      <path d="M179.263,26.73608a3.40481,3.40481,0,0,0-.02431-.45135,1.68787,1.68787,0,0,0-.13363-.42633.91063.91063,0,0,0-.37662-.41376,1.84479,1.84479,0,0,0-.69251-.22565l-.17008-.03766q-.01215,0-.01215,1.55475t.01215,1.55475a2.11809,2.11809,0,0,0,.486-.11285,1.66034,1.66034,0,0,0,.49811-.2508.85736.85736,0,0,0,.27944-.36358,1.68666,1.68666,0,0,0,.10933-.38874A3.28591,3.28591,0,0,0,179.263,26.73608Zm-3.18307,1.55475V26.73608q0-1.55475-.0243-1.55475a1.50078,1.50078,0,0,0-.43737.10035,1.6289,1.6289,0,0,0-.5224.25079.93637.93637,0,0,0-.29159.3761,1.25131,1.25131,0,0,0-.10934.38867q-.01214.163-.0243.43884a3.838,3.838,0,0,0,.03645.5893.92369.92369,0,0,0,.25513.46386,1.576,1.576,0,0,0,.61961.38874,2.1182,2.1182,0,0,0,.486.11285q.01214,0,.01215-1.55475Zm3.24382,2.74579q-.328-.03763-2.35694-.0376t-2.35692.0376h-.17009v-.77734h1.64013v-1.329l-.17009-.01252a4.52564,4.52564,0,0,1-2.56347-.90277,1.592,1.592,0,0,1,0-2.55774,4.52484,4.52484,0,0,1,2.56347-.90277l.17009-.01251v-1.329h-1.64013v-.77734h.17009q.328.03762,2.35692.03759t2.35694-.03759h.17008v.77734h-1.64013v1.329l.17009.01251a4.52481,4.52481,0,0,1,2.56346.90277,1.59194,1.59194,0,0,1,0,2.55774,4.52561,4.52561,0,0,1-2.56346.90277l-.17009.01252v1.329h1.64013v.77734Z"/>
      <path d="M182.7984,24.57953q0-.21314.085-.26325a.97307.97307,0,0,1,.40093-.05017h.42521a6.39408,6.39408,0,0,1,.82615.02509.72567.72567,0,0,1,.35232.21307,1.02749,1.02749,0,0,1,.20654.40131,2.08479,2.08479,0,0,1,.085.43878q.01215.18805.0486.50153a3.2989,3.2989,0,0,0,.27942,1.47949,1.474,1.474,0,0,0,.72895.73974,1.32379,1.32379,0,0,0,.31588.13788q.01214,0,.01215-2.495V23.21289h-1.64013v-.77734h.17009q.328.03762,2.35692.03759t2.35693-.03759h.1701v.77734h-1.64014V28.203l.0243-.01251a.74528.74528,0,0,1,.10934-.02509.83651.83651,0,0,0,.25513-.13794,3.733,3.733,0,0,0,.34018-.2633,1.47282,1.47282,0,0,0,.31587-.46387,2.52325,2.52325,0,0,0,.21868-.70215,3.21341,3.21341,0,0,0,.0486-.50152q.01215-.32594.03645-.57672t.0729-.52655a.85439.85439,0,0,1,.5953-.70215,6.394,6.394,0,0,1,.82614-.02509h.486a.7535.7535,0,0,1,.35232.05017q.07289.05009.0729.26325a.37178.37178,0,0,1-.06075.25079.25907.25907,0,0,1-.15794.07526.38645.38645,0,0,0-.18223.07519.6496.6496,0,0,0-.17009.27582,1.91787,1.91787,0,0,0-.085.66449,2.811,2.811,0,0,1-2.51486,2.92139q-.51027.0877-.571.08777-.01213,0-.01214.66449v.66455h1.64014v.77734h-.1701q-.328-.03763-2.35693-.0376t-2.35692.0376h-.17009v-.77734h1.64013v-1.329l-.1215-.01252a4.13041,4.13041,0,0,1-1.47-.42633,2.82812,2.82812,0,0,1-1.51864-2.58282,2.4667,2.4667,0,0,0-.085-.652.593.593,0,0,0-.15793-.28833.301.301,0,0,0-.18225-.06268.19347.19347,0,0,1-.15793-.07526A.45514.45514,0,0,1,182.7984,24.57953Z"/>
    </g>
    <path d="M300.07108,60.72087a1.52472,1.52472,0,0,0,.75-.1872,1.86437,1.86437,0,0,0,.55644-.45623,3.24437,3.24437,0,0,0,.36289-.54981,4.26829,4.26829,0,0,0,.21774-.47961.62828.62828,0,0,0,.06048-.24573,1.80417,1.80417,0,0,1-1.0524.24573,3.29232,3.29232,0,0,1-1.0282-.14038,1.22805,1.22805,0,0,1-.61692-.39777,1.5039,1.5039,0,0,1-.3508-.97089,5.42929,5.42929,0,0,1,.44758-1.77813,7.58908,7.58908,0,0,0,.44757-1.33362.18019.18019,0,0,0-.0242-.117.26946.26946,0,0,0-.13306-.03509.966.966,0,0,0-.61692.33923,2.11578,2.11578,0,0,0-.43547.79547.69684.69684,0,0,1-.09677.22229.45956.45956,0,0,1-.24194.0351h-.20563q-.24194,0-.24194-.16382a1.121,1.121,0,0,1,.121-.386,3.673,3.673,0,0,1,.36289-.60833,2.22337,2.22337,0,0,1,.629-.58484,1.59023,1.59023,0,0,1,.87094-.24573,1.73018,1.73018,0,0,1,1.0282.29248.93591.93591,0,0,1,.42337.7721,7.29448,7.29448,0,0,1-.42337,1.26336,5.48747,5.48747,0,0,0-.43548,1.68451q0,.77207.65322.7721a1.49748,1.49748,0,0,0,1.17335-.64344q0-.01163.44757-1.73132.44759-1.71954.45967-1.7547a1.04069,1.04069,0,0,1,.32661-.386.85233.85233,0,0,1,.53224-.17553.65038.65038,0,0,1,.47177.16382.49594.49594,0,0,1,.16935.36261q0,.15207-.60483,2.4917t-.65322,2.46832a2.76849,2.76849,0,0,1-.883,1.18146,4.14592,4.14592,0,0,1-1.379.72528,4.09487,4.09487,0,0,1-1.11288.16381,2.05947,2.05947,0,0,1-1.30641-.31585.90137.90137,0,0,1-.121-1.38043.93993.93993,0,0,1,.70159-.30408.69467.69467,0,0,1,.48386.16376.56888.56888,0,0,1,.18145.44451.636.636,0,0,1-.0121.12867l-.02419.117a.40784.40784,0,0,1-.03629.10529.75851.75851,0,0,1-.04838.08185q-.02419.03505-.06049.09356a.19265.19265,0,0,1-.06048.07025.27.27,0,0,0-.07258.08191q-.04838.07014-.06048.07019A3.39034,3.39034,0,0,0,300.07108,60.72087Z"/>
    <path d="M308.75393,57.17631a.23356.23356,0,0,1,.19355-.234h7.69336q.16933.11693.16935.234a.25671.25671,0,0,1-.18145.234h-7.70546A.25509.25509,0,0,1,308.75393,57.17631Zm0-2.26941a.25523.25523,0,0,1,.16935-.234h7.70546q.18146.09366.18145.234,0,.12864-.16935.22223l-3.84668.01172h-3.84668A.23359.23359,0,0,1,308.75393,54.9069Z"/>
    <path d="M324.30759,56.13517V53.74876h.75v.39777h2.383v-.39777h.75v2.38641h-.75v-.3977h-2.383v.3977Zm1.85075-4.71429a2.355,2.355,0,0,0-.59272.08191,3.5899,3.5899,0,0,0-.6895.269,2.13216,2.13216,0,0,0-.70159.59662,2.56068,2.56068,0,0,0-.47177.98267,6.27447,6.27447,0,0,0-.18145,1.626,6.57984,6.57984,0,0,0,.10887,1.32184,2.80628,2.80628,0,0,0,.85885,1.56757,2.59309,2.59309,0,0,0,1.76609.59662,2.43372,2.43372,0,0,0,1.754-.585,2.96959,2.96959,0,0,0,.85885-1.57923,6.5791,6.5791,0,0,0,.10887-1.32184Q328.97683,51.42082,326.15834,51.42088Zm2.29834,7.66223H326.243a4.70857,4.70857,0,0,1-3.4112-1.15814,3.95,3.95,0,0,1-1.20965-2.93622,5.245,5.245,0,0,1,.08467-.93579A4.03727,4.03727,0,0,1,322.08184,53a3.50723,3.50723,0,0,1,.73788-1.006,4.39176,4.39176,0,0,1,1.24593-.77209,5.11171,5.11171,0,0,1,1.83867-.39771h.24194q.60482,0,.73788.01172a5.26881,5.26881,0,0,1,1.754.4679,3.77859,3.77859,0,0,1,1.17335.8305,3.66829,3.66829,0,0,1,.66532,1.0412,5.23987,5.23987,0,0,1,.32659,1.006,3.73167,3.73167,0,0,1,.07259.83057,3.863,3.863,0,0,1-1.20965,2.91278Z"/>
    <path d="M333.35577,55.57371a1.72412,1.72412,0,0,1,.09676-.53814,2.10612,2.10612,0,0,1,.33871-.60834,1.79808,1.79808,0,0,1,.71369-.52637,2.67878,2.67878,0,0,1,1.10078-.21057h.121a4.19481,4.19481,0,0,1,.44756.02338,3.36263,3.36263,0,0,1,.54435.11694.98394.98394,0,0,1,.508.31592.9302.9302,0,0,1,.19354.57324.85847.85847,0,0,1-.24192.60822.79574.79574,0,0,1-.60483.25738.58326.58326,0,0,1-.42338-.1521.55621.55621,0,0,1-.16935-.386.68509.68509,0,0,1,.08468-.33923.83587.83587,0,0,1,.18145-.234l.08467-.08191q0-.01172-.06048-.03509a1.20462,1.20462,0,0,0-.22983-.04676,2.86125,2.86125,0,0,0-.38709-.02337,2.07368,2.07368,0,0,0-.629.08185.76317.76317,0,0,0-.375.23394.74378.74378,0,0,0-.14516.24573,1.45732,1.45732,0,0,0-.03628.19885.36422.36422,0,0,0,.121.26905,2.18381,2.18381,0,0,0,.883.25738,2.70509,2.70509,0,0,1,1.06449.35089,1.25625,1.25625,0,0,1,.65322,1.08789,1.73508,1.73508,0,0,1-.0484.38611,2.06171,2.06171,0,0,1-.21773.51465,1.98505,1.98505,0,0,1-.45966.54987,2.48072,2.48072,0,0,1-.81047.42114,3.82972,3.82972,0,0,1-1.22175.17548,2.76846,2.76846,0,0,1-1.62092-.351,1.00724,1.00724,0,0,1-.45967-.80713.97447.97447,0,0,1,.29032-.71356.95247.95247,0,0,1,.70159-.29248.72208.72208,0,0,1,.45967.152.63149.63149,0,0,1,.20564.50305,1.02716,1.02716,0,0,1-.496.76038,2.44957,2.44957,0,0,0,1.004.1521,2.74856,2.74856,0,0,0,.81047-.10529,1.05771,1.05771,0,0,0,.48385-.269,1.53716,1.53716,0,0,0,.21774-.3042.48358.48358,0,0,0,.06048-.269.47644.47644,0,0,0-.3387-.43287,3.09208,3.09208,0,0,0-.79837-.22222q-.45966-.07023-.48385-.07019a1.514,1.514,0,0,1-.82257-.47962A1.19867,1.19867,0,0,1,333.35577,55.57371Z"/>
    <g>
      <path d="M239.22,55.76909h3.03076v.88476H239.22Z"/>
      <path d="M246.57743,53.37651v1.8291h-.19385a2.37536,2.37536,0,0,0-.57129-1.17188,1.286,1.286,0,0,0-.88818-.31054.98086.98086,0,0,0-.6626.21679.62889.62889,0,0,0-.25195.48047.87248.87248,0,0,0,.1875.5625,2.08792,2.08792,0,0,0,.73877.50977l.85595.417a1.73857,1.73857,0,0,1,1.19,1.5293,1.44529,1.44529,0,0,1-.55371,1.18164,1.92262,1.92262,0,0,1-1.24024.44824,4.26862,4.26862,0,0,1-1.12549-.17578,1.14344,1.14344,0,0,0-.3164-.0586.2331.2331,0,0,0-.21094.15235h-.19336v-1.917h.19336a2.18381,2.18381,0,0,0,.62695,1.2373,1.515,1.515,0,0,0,1.0376.416.92913.92913,0,0,0,.65967-.23731.75286.75286,0,0,0,.25488-.57129.90961.90961,0,0,0-.28418-.68066,4.96976,4.96976,0,0,0-1.13428-.69727,3.35711,3.35711,0,0,1-1.11377-.76172,1.32447,1.32447,0,0,1-.26367-.84472,1.48836,1.48836,0,0,1,.4541-1.10742,1.60862,1.60862,0,0,1,1.1753-.44629,2.76716,2.76716,0,0,1,.76806.13476,1.81267,1.81267,0,0,0,.39844.08789.22733.22733,0,0,0,.14648-.041.55089.55089,0,0,0,.12305-.18164Z"/>
      <path d="M247.39188,54.06889l1.65332-.669h.22266v1.25489a3.03691,3.03691,0,0,1,.83545-.99317,1.54,1.54,0,0,1,.88183-.28515,1.69811,1.69811,0,0,1,1.34864.63379,2.992,2.992,0,0,1,.66211,2.0166,3.35971,3.35971,0,0,1-.79688,2.29785,2.11143,2.11143,0,0,1-1.65332.74414,2.06952,2.06952,0,0,1-.75049-.12305,1.75654,1.75654,0,0,1-.52734-.35156V60.23a2.17713,2.17713,0,0,0,.06738.7002.501.501,0,0,0,.23438.2373,1.442,1.442,0,0,0,.60693.08789v.2168h-2.814v-.2168h.14648a1.06692,1.06692,0,0,0,.55127-.123.42155.42155,0,0,0,.17285-.208,2.49467,2.49467,0,0,0,.06152-.72949V55.11772a2.76111,2.76111,0,0,0-.04687-.66211.39815.39815,0,0,0-.14941-.21094.48592.48592,0,0,0-.27881-.07031,1.05986,1.05986,0,0,0-.35743.082Zm1.876.93164v2.00488a4.31634,4.31634,0,0,0,.05273.85645,1.09593,1.09593,0,0,0,.40137.59765,1.24275,1.24275,0,0,0,.80615.25782,1.15608,1.15608,0,0,0,.94971-.457,2.646,2.646,0,0,0,.47461-1.68262,2.93161,2.93161,0,0,0-.53906-1.89356,1.12231,1.12231,0,0,0-.89112-.457,1.21618,1.21618,0,0,0-.55713.14063A3.26688,3.26688,0,0,0,249.26786,55.00053Z"/>
      <path d="M256.824,58.13139a8.83286,8.83286,0,0,1-1.0376.73828,1.58446,1.58446,0,0,1-.67382.14649,1.20785,1.20785,0,0,1-.91749-.38086,1.39916,1.39916,0,0,1-.36083-1.00293,1.27194,1.27194,0,0,1,.17626-.67969,2.32739,2.32739,0,0,1,.835-.75,13.09381,13.09381,0,0,1,1.97851-.85645V55.1353a1.7499,1.7499,0,0,0-.25488-1.10157.92061.92061,0,0,0-.7417-.29882.8324.8324,0,0,0-.58594.19921.5979.5979,0,0,0-.22265.457l.01171.33984a.58444.58444,0,0,1-.13818.416.47172.47172,0,0,1-.36035.14649.45609.45609,0,0,1-.35449-.15234.59743.59743,0,0,1-.1377-.416,1.19891,1.19891,0,0,1,.51563-.92578,2.22241,2.22241,0,0,1,1.44775-.42285,2.5146,2.5146,0,0,1,1.17285.24023,1.11041,1.11041,0,0,1,.50977.56934,3.20263,3.20263,0,0,1,.10547,1.03125v1.82324a8.3698,8.3698,0,0,0,.02929.94141.39481.39481,0,0,0,.09668.23144.22967.22967,0,0,0,.15528.05859.32156.32156,0,0,0,.16455-.041,3.61912,3.61912,0,0,0,.47461-.42871v.3291q-.65625.87891-1.2544.87891a.571.571,0,0,1-.45752-.19922A1.07606,1.07606,0,0,1,256.824,58.13139Zm0-.38184V55.70366a11.76826,11.76826,0,0,0-1.14307.499,1.97315,1.97315,0,0,0-.6621.53906,1.03892,1.03892,0,0,0-.19971.61524,1.00444,1.00444,0,0,0,.25244.70117.76354.76354,0,0,0,.58008.27832A2.123,2.123,0,0,0,256.824,57.74955Z"/>
      <path d="M260.68143,53.37651v1.208q.67383-1.207,1.3833-1.208a.75329.75329,0,0,1,.5337.19629.60713.60713,0,0,1,.21093.45507.53654.53654,0,0,1-.15234.38672.48732.48732,0,0,1-.36377.15821.77392.77392,0,0,1-.46-.20215.75941.75941,0,0,0-.37793-.20215.34984.34984,0,0,0-.229.11719,2.81924,2.81924,0,0,0-.54492.791v2.57324a1.59428,1.59428,0,0,0,.11133.67481.6069.6069,0,0,0,.26953.26367,1.18486,1.18486,0,0,0,.55713.10547v.21094h-2.74951v-.21094a1.1428,1.1428,0,0,0,.60986-.12891.50024.50024,0,0,0,.20508-.29882,3.02,3.02,0,0,0,.0293-.56934V55.61576a8.64376,8.64376,0,0,0-.03809-1.11621.437.437,0,0,0-.14062-.26074.39506.39506,0,0,0-.25489-.082,1.15894,1.15894,0,0,0-.41064.08789l-.05859-.21094,1.624-.65722Z"/>
      <path d="M266.57889,53.37651v1.8291h-.19384a2.37536,2.37536,0,0,0-.57129-1.17188,1.286,1.286,0,0,0-.88819-.31054.98084.98084,0,0,0-.66259.21679.6289.6289,0,0,0-.252.48047.87248.87248,0,0,0,.1875.5625,2.08812,2.08812,0,0,0,.73877.50977l.856.417a1.73856,1.73856,0,0,1,1.18994,1.5293,1.44529,1.44529,0,0,1-.55371,1.18164,1.9226,1.9226,0,0,1-1.24023.44824,4.2685,4.2685,0,0,1-1.12549-.17578,1.14357,1.14357,0,0,0-.31641-.0586.23311.23311,0,0,0-.21094.15235h-.19336v-1.917h.19336a2.18382,2.18382,0,0,0,.627,1.2373,1.515,1.515,0,0,0,1.03759.416.92913.92913,0,0,0,.65967-.23731.75287.75287,0,0,0,.25489-.57129.90961.90961,0,0,0-.28418-.68066,4.97023,4.97023,0,0,0-1.13428-.69727,3.357,3.357,0,0,1-1.11377-.76172,1.32447,1.32447,0,0,1-.26367-.84472,1.48832,1.48832,0,0,1,.4541-1.10742,1.60858,1.60858,0,0,1,1.17529-.44629,2.76717,2.76717,0,0,1,.76807.13476,1.81267,1.81267,0,0,0,.39844.08789.22735.22735,0,0,0,.14648-.041.551.551,0,0,0,.123-.18164Z"/>
      <path d="M268.6829,55.55717a2.75542,2.75542,0,0,0,.58056,1.876,1.768,1.768,0,0,0,1.37745.68066,1.48919,1.48919,0,0,0,.91748-.291,2.14472,2.14472,0,0,0,.6538-.99317l.18165.11719a2.79761,2.79761,0,0,1-.71534,1.46289,1.90989,1.90989,0,0,1-1.48291.65918,2.1661,2.1661,0,0,1-1.65625-.75293,2.887,2.887,0,0,1-.689-2.02539,3.062,3.062,0,0,1,.70654-2.14844,2.30488,2.30488,0,0,1,1.77344-.77148,1.98324,1.98324,0,0,1,1.48291.5957,2.1788,2.1788,0,0,1,.58057,1.59082Zm0-.33984h2.48584a2.30786,2.30786,0,0,0-.12354-.72657,1.16349,1.16349,0,0,0-.43652-.51562,1.101,1.101,0,0,0-.60693-.1875,1.20873,1.20873,0,0,0-.87012.37793A1.63776,1.63776,0,0,0,268.6829,55.21733Z"/>
    </g>
    <path d="M213.58034,8.0054a2.03855,2.03855,0,0,1,.10165-.60157,2.40176,2.40176,0,0,1,.35578-.68008,1.9025,1.9025,0,0,1,.74968-.58847,2.66755,2.66755,0,0,1,1.15628-.23544h.12707a4.13767,4.13767,0,0,1,.47014.02615,3.34059,3.34059,0,0,1,.57179.1308,1.0274,1.0274,0,0,1,.53367.35312,1.08339,1.08339,0,0,1,.2033.64081.99364.99364,0,0,1-.25413.68.81257.81257,0,0,1-.63531.28769.59145.59145,0,0,1-.44473-.17.641.641,0,0,1-.17789-.43158.80564.80564,0,0,1,.08894-.37925.92664.92664,0,0,1,.1906-.26156l.08894-.09155q0-.013-.06353-.03925a1.20088,1.20088,0,0,0-.24142-.05231,2.82269,2.82269,0,0,0-.4066-.02615,2.05759,2.05759,0,0,0-.66075.09152.79715.79715,0,0,0-.39389.26157.8467.8467,0,0,0-.15248.27466,1.73077,1.73077,0,0,0-.03812.22232.41928.41928,0,0,0,.12707.30078,2.19475,2.19475,0,0,0,.92756.28772,2.727,2.727,0,0,1,1.11817.39236,1.42111,1.42111,0,0,1,.68615,1.21625,2.05833,2.05833,0,0,1-.05082.43158,2.39166,2.39166,0,0,1-.22872.57541,2.19423,2.19423,0,0,1-.48285.61468,2.55433,2.55433,0,0,1-.85132.4708,3.79737,3.79737,0,0,1-1.28336.19616,2.76887,2.76887,0,0,1-1.70266-.39233,1.1448,1.1448,0,0,1-.48285-.90237,1.12661,1.12661,0,0,1,.305-.79779.97135.97135,0,0,1,.737-.32691.6647.6647,0,0,1,.69886.73236,1.15592,1.15592,0,0,1-.521.85,2.43452,2.43452,0,0,0,1.05464.17,2.72528,2.72528,0,0,0,.85133-.1177,1.09579,1.09579,0,0,0,.50825-.30082,1.72011,1.72011,0,0,0,.22872-.34.56975.56975,0,0,0,.06353-.30081.529.529,0,0,0-.35578-.48389,3.095,3.095,0,0,0-.83863-.2485q-.48283-.07842-.50825-.07847a1.57427,1.57427,0,0,1-.864-.53619A1.38974,1.38974,0,0,1,213.58034,8.0054Z"/>
    <path d="M92.05666,31.22718a1.56974,1.56974,0,0,0,.78818-.2019,1.973,1.973,0,0,0,.58477-.49219,3.51314,3.51314,0,0,0,.38138-.5932,4.66233,4.66233,0,0,0,.22882-.51746.69294.69294,0,0,0,.06357-.265,1.85825,1.85825,0,0,1-1.106.265,3.37653,3.37653,0,0,1-1.08057-.15139,1.28863,1.28863,0,0,1-.64835-.42914,1.91571,1.91571,0,0,1-.27967-.50479,1.96368,1.96368,0,0,1-.089-.5427,5.98583,5.98583,0,0,1,.47037-1.91836,8.34054,8.34054,0,0,0,.47036-1.43872.19848.19848,0,0,0-.02542-.12619.27714.27714,0,0,0-.13985-.03788,1.00839,1.00839,0,0,0-.64834.366,2.30092,2.30092,0,0,0-.45764.85822.76173.76173,0,0,1-.1017.23977.47189.47189,0,0,1-.25425.03784h-.21611q-.25427,0-.25426-.17666a1.233,1.233,0,0,1,.12713-.41647,3.98538,3.98538,0,0,1,.38137-.65625,2.36252,2.36252,0,0,1,.66105-.63108,1.64068,1.64068,0,0,1,.91531-.265,1.7842,1.7842,0,0,1,1.08057.31552,1.01662,1.01662,0,0,1,.44494.83291,8.01628,8.01628,0,0,1-.44494,1.36307,6.04791,6.04791,0,0,0-.45766,1.81735q0,.833.68648.833a1.56281,1.56281,0,0,0,1.23312-.69418q0-.01254.47037-1.86783t.48308-1.89307a1.11656,1.11656,0,0,1,.34323-.41647.881.881,0,0,1,.55935-.18933.67283.67283,0,0,1,.49579.17673.541.541,0,0,1,.178.39123q0,.164-.63563,2.68817T95.578,29.64961a2.98211,2.98211,0,0,1-.928,1.27472,4.32111,4.32111,0,0,1-1.44922.78244,4.20378,4.20378,0,0,1-1.16956.17666,2.12162,2.12162,0,0,1-1.373-.34073.98871.98871,0,0,1-.12712-1.48919.97575.97575,0,0,1,.73732-.32813.71855.71855,0,0,1,.50851.17664.62194.62194,0,0,1,.19069.47961.70391.70391,0,0,1-.01271.1388l-.02543.12622a.44935.44935,0,0,1-.03814.11361.82016.82016,0,0,1-.05085.08829q-.02543.0379-.06356.101a.20672.20672,0,0,1-.06356.07578.28842.28842,0,0,0-.07628.08835q-.05085.07566-.06356.07571A3.46967,3.46967,0,0,0,92.05666,31.22718Z"/>
    <path d="M219.67226,17.69453c.81582,0,2.50518.90794,2.50518,10.647,0,2.82388-.01976,5.5551-.15573,10.83227-.09724,3.82446-.155,6.09986-.155,8.101,0,3.55023.05771,7.37469,1.74707,7.91945v1.54906c-1.68936.54476-1.74707,4.45816-1.74707,7.8268,0,2.09381.03874,4.28028.136,8.101.136,5.37352.17471,8.19369.17471,10.92491,0,9.739-1.70912,10.65068-2.50518,10.65068V93.1535c1.39844-1.00059,1.55339-4.46187,1.55339-8.55686,0-2.82017-.09724-6.463-.155-8.92-.0585-2.54964-.2332-7.10045-.2332-9.4685,0-4.7324.46562-8.92,1.63086-10.1022v-.27424c-1.16524-1.27482-1.63086-5.46245-1.63086-10.19485,0-2.36435.136-6.91887.21344-9.37586.07747-2.54593.17471-6.18881.17471-9.009,0-3.91711-.17471-7.37469-1.55339-8.46792Z"/>
  </g>
</svg>
