<svg id="图层_1" data-name="图层 1" xmlns="http://www.w3.org/2000/svg" viewBox="0 0 606.72611 238.01274">
  <defs>
    <style>
      .cls-1 {
        fill: #8cc63f;
        opacity: 0.76;
      }

      .cls-1, .cls-2, .cls-4 {
        stroke: #000;
        stroke-miterlimit: 10;
      }

      .cls-1, .cls-4 {
        stroke-width: 2px;
      }

      .cls-2 {
        fill: none;
      }

      .cls-3 {
        opacity: 0.49;
      }

      .cls-4 {
        fill: #ccc;
      }
    </style>
  </defs>
  <title>[OPTSx84a4]_Scaling_Function_and_Wavelet_Function</title>
  <polyline class="cls-1" points="109.924 134.789 109.924 40.586 205.134 40.586 203.263 134.789"/>
  <polyline class="cls-1" points="311.681 134.789 311.681 40.586 406.891 40.586 405.021 134.789"/>
  <g>
    <path class="cls-2" d="M109.92357,134.86093V11.36253"/>
    <path d="M109.92357,13.15746l-3.603,2.1914-.08154-.12305,2.3335-5.875q.67528-3.07038,1.35107-6.14062.67529,3.07035,1.35107,6.14062l2.3335,5.875-.06152.12305Z"/>
  </g>
  <g>
    <path d="M109.92357,134.53493l125.79619-.00005"/>
    <g>
      <path class="cls-2" d="M109.92357,134.53493l117.64384-.00005"/>
      <path d="M225.77249,134.53488l-2.1914-3.603.123-.08155,5.875,2.3335q3.07041.67528,6.14063,1.35107-3.07036.6753-6.14063,1.35108l-5.875,2.33349-.123-.06152Z"/>
    </g>
  </g>
  <g class="cls-3">
    <polyline class="cls-4" points="157.529 134.535 157.529 40.586 109.924 40.586 109.924 134.535"/>
    <polyline class="cls-4" points="204.199 134.789 205.134 228.484 157.529 228.484 157.529 134.535"/>
  </g>
  <g>
    <path d="M129.02933,36.82768V34.41362a3.5222,3.5222,0,0,1-1.3125-.44824,2.65549,2.65549,0,0,1-.84961-.82324,3.44717,3.44717,0,0,1-.46289-1.10743,14.38385,14.38385,0,0,1-.2461-1.85742,2.48453,2.48453,0,0,0-.20214-.99316.47168.47168,0,0,0-.37207-.18457v-.2168a4.43592,4.43592,0,0,1,.78515-.07617,1.31909,1.31909,0,0,1,.85547.26074,1.33485,1.33485,0,0,1,.44531.68848,9.90507,9.90507,0,0,1,.22852,1.55859,9.61247,9.61247,0,0,0,.334,1.87207,1.22948,1.22948,0,0,0,.79688.958V28.70659h.97851v5.33789a1.1127,1.1127,0,0,0,.52149-.34863,2.4213,2.4213,0,0,0,.33105-.82032,12.71553,12.71553,0,0,0,.27832-1.61425,15.1039,15.1039,0,0,1,.25489-1.6084,1.19927,1.19927,0,0,1,1.292-.94629,4.353,4.353,0,0,1,.76758.07617v.2168a.47962.47962,0,0,0-.36329.17578,2.71114,2.71114,0,0,0-.21679,1.07227,15.56849,15.56849,0,0,1-.24317,1.831,3.04275,3.04275,0,0,1-.501,1.10742,3.01009,3.01009,0,0,1-2.1211,1.22754v2.41406Z"/>
    <path d="M137.502,26.13432v.26954a3.54472,3.54472,0,0,0-.89648.77929,3.91747,3.91747,0,0,0-.62109,1.35352,11.36239,11.36239,0,0,0-.28125,2.86523,11.05178,11.05178,0,0,0,.25488,2.69531,4.54572,4.54572,0,0,0,.69433,1.55274,2.70393,2.70393,0,0,0,.84961.7207v.293a4.68473,4.68473,0,0,1-2.39355-1.93652,5.88722,5.88722,0,0,1-.98145-3.36035,5.7774,5.7774,0,0,1,.97852-3.31934A4.65705,4.65705,0,0,1,137.502,26.13432Z"/>
    <path d="M140.22073,26.77886v2.0039h1.30079v.58008h-1.30079V32.7437a2.57853,2.57853,0,0,0,.04395.6123.44189.44189,0,0,0,.15527.22266.34837.34837,0,0,0,.20508.085q.38087,0,.7207-.58008l.17579.12891a1.60183,1.60183,0,0,1-1.541,1.125,1.36161,1.36161,0,0,1-.88184-.29,1.28072,1.28072,0,0,1-.46-.64746,5.52742,5.52742,0,0,1-.05859-1.07813v-2.959h-.71484v-.20508a7.56055,7.56055,0,0,0,1.25683-1.0957,6.67285,6.67285,0,0,0,.90527-1.2832Z"/>
    <path d="M141.78519,36.66362v-.26953a3.62911,3.62911,0,0,0,.89648-.78516,4.06968,4.06968,0,0,0,.6211-1.34765,11.43523,11.43523,0,0,0,.28125-2.8711,11.01412,11.01412,0,0,0-.25489-2.69238,4.54606,4.54606,0,0,0-.69433-1.5498,2.704,2.704,0,0,0-.84961-.72071v-.293a4.68471,4.68471,0,0,1,2.39355,1.93653,5.8872,5.8872,0,0,1,.98145,3.36035,5.75516,5.75516,0,0,1-.98145,3.31348A4.70638,4.70638,0,0,1,141.78519,36.66362Z"/>
  </g>
  <path d="M105.104,143.23784a7.16714,7.16714,0,0,1-.334,2.2207,3.01664,3.01664,0,0,1-.53613,1.03711,2.69626,2.69626,0,0,1-.76465.6416,1.96568,1.96568,0,0,1-1.96875-.05566,2.75818,2.75818,0,0,1-.82031-.83789,4.07043,4.07043,0,0,1-.45117-1.06055,6.81055,6.81055,0,0,1-.252-1.85156,7.448,7.448,0,0,1,.36328-2.37891,2.82123,2.82123,0,0,1,.90821-1.374,1.99186,1.99186,0,0,1,2.58105-.00586,2.719,2.719,0,0,1,.88184,1.26856A7.05789,7.05789,0,0,1,105.104,143.23784Zm-1.80469-.01172q0-2.08593-.02344-2.43164a2.17671,2.17671,0,0,0-.28125-1.10156.5655.5655,0,0,0-.47461-.1875.55131.55131,0,0,0-.39844.14062,1.23285,1.23285,0,0,0-.293.72364q-.07617.51855-.07617,3.61816a13.83507,13.83507,0,0,0,.11719,2.26172,1.01175,1.01175,0,0,0,.252.55664.64323.64323,0,0,0,.4336.14062.52331.52331,0,0,0,.43945-.1875,1.85577,1.85577,0,0,0,.28125-1.01367Z"/>
  <path d="M103.45169,35.24223v6.498a4.02772,4.02772,0,0,0,.06445.93457.60543.60543,0,0,0,.26954.33106,1.27507,1.27507,0,0,0,.65625.1289h.18164v.2168H100.44v-.2168h.21094a1.6334,1.6334,0,0,0,.72656-.11719.601.601,0,0,0,.293-.32226,3.564,3.564,0,0,0,.07617-.95508V37.62114a2.599,2.599,0,0,0-.05273-.68848.49812.49812,0,0,0-.19629-.23437.57863.57863,0,0,0-.33105-.09668,1.87964,1.87964,0,0,0-.72657.1875l-.10547-.21094,2.92383-1.33594Z"/>
  <g>
    <path d="M142.45023,139.10112v6.498a4.02718,4.02718,0,0,0,.06445.93457.60539.60539,0,0,0,.26953.33105,1.275,1.275,0,0,0,.65625.12891h.18164v.2168h-4.18359v-.2168h.21094a1.6334,1.6334,0,0,0,.72656-.11719.601.601,0,0,0,.293-.32226,3.564,3.564,0,0,0,.07617-.95508V141.48a2.59877,2.59877,0,0,0-.05274-.68848.498.498,0,0,0-.19629-.23437.57855.57855,0,0,0-.33105-.09668,1.87956,1.87956,0,0,0-.72656.1875l-.10547-.21094,2.92383-1.33594Z"/>
    <path d="M147.91116,139.08354l-2.60742,8.3086h-.75l2.61914-8.3086Z"/>
    <path d="M152.84476,147.2105H148.169v-.12891a25.8345,25.8345,0,0,0,2.61035-3.44531,3.73364,3.73364,0,0,0,.46-1.72852,1.4385,1.4385,0,0,0-.38086-1.02246,1.22673,1.22673,0,0,0-.93164-.40723,1.53941,1.53941,0,0,0-1.40039.90235l-.2168-.07617a3.24664,3.24664,0,0,1,.96094-1.66407,2.25181,2.25181,0,0,1,1.48828-.53906,2.20123,2.20123,0,0,1,1.10156.28125,2.03692,2.03692,0,0,1,.7793.77051,1.85546,1.85546,0,0,1,.28125.917,3.31171,3.31171,0,0,1-.43359,1.582,15.01629,15.01629,0,0,1-2.584,3.02344h1.7168a3.92118,3.92118,0,0,0,.82324-.05273.68268.68268,0,0,0,.31348-.17872,2.31293,2.31293,0,0,0,.32226-.53027h.21094Z"/>
  </g>
  <path d="M198.89749,139.10014v6.498a4.02691,4.02691,0,0,0,.06446.93457.60537.60537,0,0,0,.26953.33106,1.27512,1.27512,0,0,0,.65625.1289h.18164v.2168h-4.1836v-.2168h.21094a1.6334,1.6334,0,0,0,.72656-.11719.601.601,0,0,0,.293-.32226,3.564,3.564,0,0,0,.07617-.95508v-4.11914a2.599,2.599,0,0,0-.05273-.68848.49812.49812,0,0,0-.19629-.23437.57863.57863,0,0,0-.33105-.09668,1.87964,1.87964,0,0,0-.72657.1875l-.10547-.21094,2.92383-1.33594Z"/>
  <g>
    <path d="M104.27249,226.63042h-3.416v-1.21289h3.416Z"/>
    <path d="M108.4678,220.67143v6.49805a4.027,4.027,0,0,0,.06446.93457.60541.60541,0,0,0,.26953.33106,1.27512,1.27512,0,0,0,.65625.1289h.18164v.2168h-4.18359v-.2168h.21093a1.63345,1.63345,0,0,0,.72657-.11719.601.601,0,0,0,.293-.32226,3.56338,3.56338,0,0,0,.07618-.95508v-4.11914a2.59877,2.59877,0,0,0-.05274-.68848.498.498,0,0,0-.19629-.23437.57855.57855,0,0,0-.33105-.09668,1.87956,1.87956,0,0,0-.72656.1875l-.10547-.21094,2.92383-1.33594Z"/>
  </g>
  <g>
    <path d="M152.54935,36.8272h-.97852V34.41313a2.82651,2.82651,0,0,1-2.05371-.9873,3.03008,3.03008,0,0,1-.71777-1.97168,2.94128,2.94128,0,0,1,.7207-1.96582,2.45191,2.45191,0,0,1,1.91016-.87012v.22266a1.21643,1.21643,0,0,0-.78223.77343,5.36332,5.36332,0,0,0-.24316,1.86915q0,2.35546,1.166,2.56054V30.5518a3.69294,3.69294,0,0,1,.12305-1.0664,1.1574,1.1574,0,0,1,.47754-.62988,1.41492,1.41492,0,0,1,.80566-.23731,2.26666,2.26666,0,0,1,1.60547.75879,2.67676,2.67676,0,0,1,.76172,1.9834,3.36348,3.36348,0,0,1-.33691,1.459,2.77024,2.77024,0,0,1-.99317,1.14258,2.71022,2.71022,0,0,1-1.46484.45117Zm0-2.78321q1.17188-.22266,1.17187-2.46679a4.06572,4.06572,0,0,0-.27539-1.78711q-.27539-.50391-.56836-.50391-.20508,0-.2666.28418a7.55465,7.55465,0,0,0-.06152,1.23926Z"/>
    <path d="M159.67435,26.13384v.26953a3.54478,3.54478,0,0,0-.89649.77929,3.91793,3.91793,0,0,0-.62109,1.35352,11.36239,11.36239,0,0,0-.28125,2.86523,11.05193,11.05193,0,0,0,.25488,2.69532,4.54556,4.54556,0,0,0,.69434,1.55273,2.70382,2.70382,0,0,0,.84961.7207v.293a4.68466,4.68466,0,0,1-2.39356-1.93652,5.88729,5.88729,0,0,1-.98144-3.36035,5.77739,5.77739,0,0,1,.97851-3.31934A4.65709,4.65709,0,0,1,159.67435,26.13384Z"/>
    <path d="M162.3931,26.77837v2.0039h1.30078v.58008H162.3931v3.38086a2.57945,2.57945,0,0,0,.04394.61231.44192.44192,0,0,0,.15528.22265.34834.34834,0,0,0,.20507.085q.38086,0,.72071-.58008l.17578.12891a1.60183,1.60183,0,0,1-1.541,1.125,1.36158,1.36158,0,0,1-.88183-.29,1.2806,1.2806,0,0,1-.46-.64746,5.52615,5.52615,0,0,1-.0586-1.07812v-2.959h-.71484v-.20508a7.56014,7.56014,0,0,0,1.25683-1.0957,6.67246,6.67246,0,0,0,.90528-1.2832Z"/>
    <path d="M163.95755,36.66313V36.3936a3.62956,3.62956,0,0,0,.89649-.78515,4.06983,4.06983,0,0,0,.62109-1.34766,11.43519,11.43519,0,0,0,.28125-2.87109,11.0143,11.0143,0,0,0-.25488-2.69239,4.54625,4.54625,0,0,0-.69434-1.5498,2.704,2.704,0,0,0-.84961-.72071v-.293a4.68466,4.68466,0,0,1,2.39356,1.93652,5.88729,5.88729,0,0,1,.98144,3.36035,5.7552,5.7552,0,0,1-.98144,3.31348A4.70635,4.70635,0,0,1,163.95755,36.66313Z"/>
  </g>
  <g>
    <path d="M219.34183,90.12651V87.71245a3.52238,3.52238,0,0,1-1.3125-.44824,2.65541,2.65541,0,0,1-.84961-.82325,3.44712,3.44712,0,0,1-.46289-1.10742,14.38385,14.38385,0,0,1-.2461-1.85742,2.48453,2.48453,0,0,0-.20214-.99316.47168.47168,0,0,0-.37207-.18457v-.2168a4.43592,4.43592,0,0,1,.78515-.07617,1.31909,1.31909,0,0,1,.85547.26074,1.33485,1.33485,0,0,1,.44531.68848,9.90487,9.90487,0,0,1,.22852,1.55859,9.61261,9.61261,0,0,0,.334,1.87207,1.22948,1.22948,0,0,0,.79688.958V82.00542h.97851v5.33789a1.1127,1.1127,0,0,0,.52149-.34863,2.4214,2.4214,0,0,0,.33105-.82032,12.71553,12.71553,0,0,0,.27832-1.61425,15.10344,15.10344,0,0,1,.25489-1.6084,1.19927,1.19927,0,0,1,1.292-.94629,4.353,4.353,0,0,1,.76758.07617v.2168a.47962.47962,0,0,0-.36329.17578,2.71107,2.71107,0,0,0-.21679,1.07226,15.56842,15.56842,0,0,1-.24317,1.83106,3.04275,3.04275,0,0,1-.501,1.10742,3.01009,3.01009,0,0,1-2.1211,1.22754v2.41406Z"/>
    <path d="M227.81448,79.43315v.26953a3.54473,3.54473,0,0,0-.89648.7793,3.91739,3.91739,0,0,0-.62109,1.35352,11.36239,11.36239,0,0,0-.28125,2.86523,11.05178,11.05178,0,0,0,.25488,2.69531,4.54572,4.54572,0,0,0,.69433,1.55274,2.70406,2.70406,0,0,0,.84961.7207v.293a4.68478,4.68478,0,0,1-2.39355-1.93652,5.88723,5.88723,0,0,1-.98145-3.36036,5.77737,5.77737,0,0,1,.97852-3.31933A4.65705,4.65705,0,0,1,227.81448,79.43315Z"/>
    <path d="M230.53323,80.07768v2.00391H231.834v.58008h-1.30079v3.38086a2.57865,2.57865,0,0,0,.04395.6123.44189.44189,0,0,0,.15527.22266.34837.34837,0,0,0,.20508.085q.38087,0,.7207-.58008l.17579.12891a1.60183,1.60183,0,0,1-1.541,1.125,1.36161,1.36161,0,0,1-.88184-.29,1.28072,1.28072,0,0,1-.46-.64746,5.52749,5.52749,0,0,1-.05859-1.07813v-2.959h-.71484v-.20508a7.561,7.561,0,0,0,1.25683-1.0957,6.67292,6.67292,0,0,0,.90527-1.28321Z"/>
    <path d="M232.09769,89.96245v-.26953a3.62911,3.62911,0,0,0,.89648-.78516,4.06968,4.06968,0,0,0,.6211-1.34765,11.43528,11.43528,0,0,0,.28125-2.8711,11.01412,11.01412,0,0,0-.25489-2.69238,4.5462,4.5462,0,0,0-.69433-1.54981,2.70406,2.70406,0,0,0-.84961-.7207v-.293a4.68471,4.68471,0,0,1,2.39355,1.93653,5.88717,5.88717,0,0,1,.98145,3.36035,5.7551,5.7551,0,0,1-.98145,3.31347A4.7064,4.7064,0,0,1,232.09769,89.96245Z"/>
    <path d="M236.18167,83.20073H239v-2.8125h.76758v2.8125H242.586v.77344h-2.81836v2.78906H239V83.97417h-2.81836Z"/>
    <path d="M247.00394,90.12651h-.97852V87.71245a2.82648,2.82648,0,0,1-2.05371-.98731,3.03006,3.03006,0,0,1-.71777-1.97168,2.94132,2.94132,0,0,1,.7207-1.96582,2.4519,2.4519,0,0,1,1.91016-.87011v.22265a1.21647,1.21647,0,0,0-.78223.77344,5.3633,5.3633,0,0,0-.24316,1.86914q0,2.35547,1.166,2.56055V83.85112a3.693,3.693,0,0,1,.12305-1.06641,1.15743,1.15743,0,0,1,.47754-.62988,1.415,1.415,0,0,1,.80566-.2373,2.26666,2.26666,0,0,1,1.60547.75879,2.67675,2.67675,0,0,1,.76172,1.98339,3.36355,3.36355,0,0,1-.33691,1.459,2.7703,2.7703,0,0,1-.99317,1.14258,2.71022,2.71022,0,0,1-1.46484.45117Zm0-2.7832q1.17188-.22266,1.17187-2.4668a4.06575,4.06575,0,0,0-.27539-1.78711q-.27539-.50391-.56836-.5039-.20508,0-.2666.28418a7.5545,7.5545,0,0,0-.06152,1.23925Z"/>
    <path d="M254.12894,79.43315v.26953a3.5448,3.5448,0,0,0-.89649.7793,3.91775,3.91775,0,0,0-.62109,1.35352,11.36239,11.36239,0,0,0-.28125,2.86523A11.05178,11.05178,0,0,0,252.585,87.396a4.54553,4.54553,0,0,0,.69434,1.55274,2.704,2.704,0,0,0,.84961.7207v.293a4.68476,4.68476,0,0,1-2.39356-1.93652,5.8873,5.8873,0,0,1-.98144-3.36036,5.77736,5.77736,0,0,1,.97851-3.31933A4.65707,4.65707,0,0,1,254.12894,79.43315Z"/>
    <path d="M256.84769,80.07768v2.00391h1.30078v.58008h-1.30078v3.38086a2.57941,2.57941,0,0,0,.04394.6123.4419.4419,0,0,0,.15528.22266.34832.34832,0,0,0,.20507.085q.38087,0,.72071-.58008l.17578.12891a1.60183,1.60183,0,0,1-1.541,1.125,1.36158,1.36158,0,0,1-.88183-.29,1.2806,1.2806,0,0,1-.46-.64746,5.52628,5.52628,0,0,1-.0586-1.07813v-2.959h-.71484v-.20508a7.5606,7.5606,0,0,0,1.25683-1.0957,6.67253,6.67253,0,0,0,.90528-1.28321Z"/>
    <path d="M258.41214,89.96245v-.26953a3.62911,3.62911,0,0,0,.89648-.78516,4.06968,4.06968,0,0,0,.6211-1.34765,11.43528,11.43528,0,0,0,.28125-2.8711,11.01421,11.01421,0,0,0-.25488-2.69238,4.5464,4.5464,0,0,0-.69434-1.54981,2.70406,2.70406,0,0,0-.84961-.7207v-.293a4.68474,4.68474,0,0,1,2.39356,1.93653,5.88724,5.88724,0,0,1,.98144,3.36035,5.75517,5.75517,0,0,1-.98144,3.31347A4.70642,4.70642,0,0,1,258.41214,89.96245Z"/>
    <path d="M262.49612,82.26323h6.41016V83.025h-6.41016Zm0,1.916h6.41016V84.941h-6.41016Z"/>
    <path d="M274.06839,87.56011h-4.67578V87.4312a25.8345,25.8345,0,0,0,2.61035-3.44531,3.73364,3.73364,0,0,0,.46-1.72852,1.43848,1.43848,0,0,0-.38086-1.02246,1.22672,1.22672,0,0,0-.93164-.40723A1.53939,1.53939,0,0,0,269.75,81.73l-.2168-.07617a3.24664,3.24664,0,0,1,.96094-1.66407,2.25181,2.25181,0,0,1,1.48828-.53906,2.20127,2.20127,0,0,1,1.10157.28125,2.03689,2.03689,0,0,1,.77929.77051,1.85546,1.85546,0,0,1,.28125.917,3.31171,3.31171,0,0,1-.43359,1.582,15.016,15.016,0,0,1-2.584,3.02344h1.7168a3.92015,3.92015,0,0,0,.82324-.05274.68253.68253,0,0,0,.31348-.17871,2.31322,2.31322,0,0,0,.32227-.53027h.21093Z"/>
    <path d="M279.31839,90.12651h-.97852V87.71245a2.82648,2.82648,0,0,1-2.05371-.98731,3.03006,3.03006,0,0,1-.71777-1.97168,2.94132,2.94132,0,0,1,.7207-1.96582,2.4519,2.4519,0,0,1,1.91016-.87011v.22265a1.21647,1.21647,0,0,0-.78223.77344,5.3633,5.3633,0,0,0-.24316,1.86914q0,2.35547,1.166,2.56055V83.85112a3.693,3.693,0,0,1,.123-1.06641,1.15743,1.15743,0,0,1,.47754-.62988,1.415,1.415,0,0,1,.80566-.2373,2.26666,2.26666,0,0,1,1.60547.75879,2.67671,2.67671,0,0,1,.76172,1.98339,3.36341,3.36341,0,0,1-.33691,1.459,2.7703,2.7703,0,0,1-.99317,1.14258,2.71022,2.71022,0,0,1-1.46484.45117Zm0-2.7832q1.17188-.22266,1.17188-2.4668a4.06572,4.06572,0,0,0-.2754-1.78711q-.27539-.50391-.56835-.5039-.20508,0-.26661.28418a7.5545,7.5545,0,0,0-.06152,1.23925Z"/>
    <path d="M286.44339,79.43315v.26953a3.54455,3.54455,0,0,0-.89648.7793,3.91758,3.91758,0,0,0-.6211,1.35352,11.36239,11.36239,0,0,0-.28125,2.86523,11.0512,11.0512,0,0,0,.25489,2.69531,4.54553,4.54553,0,0,0,.69433,1.55274,2.70406,2.70406,0,0,0,.84961.7207v.293a4.6847,4.6847,0,0,1-2.39355-1.93652,5.88723,5.88723,0,0,1-.98145-3.36036,5.77729,5.77729,0,0,1,.97852-3.31933A4.65705,4.65705,0,0,1,286.44339,79.43315Z"/>
    <path d="M291.55277,87.56011H286.877V87.4312a25.834,25.834,0,0,0,2.61036-3.44531,3.73364,3.73364,0,0,0,.46-1.72852,1.43852,1.43852,0,0,0-.38086-1.02246,1.22675,1.22675,0,0,0-.93164-.40723,1.53938,1.53938,0,0,0-1.40039.90235l-.2168-.07617a3.24664,3.24664,0,0,1,.96094-1.66407,2.25179,2.25179,0,0,1,1.48828-.53906,2.20123,2.20123,0,0,1,1.10156.28125,2.03692,2.03692,0,0,1,.7793.77051,1.85546,1.85546,0,0,1,.28125.917,3.31162,3.31162,0,0,1-.4336,1.582,15.01616,15.01616,0,0,1-2.584,3.02344h1.7168a3.92022,3.92022,0,0,0,.82324-.05274.68254.68254,0,0,0,.31347-.17871,2.3125,2.3125,0,0,0,.32227-.53027h.21094Z"/>
    <path d="M295.16214,80.07768v2.00391h1.30078v.58008h-1.30078v3.38086a2.57865,2.57865,0,0,0,.04395.6123.44182.44182,0,0,0,.15527.22266.34837.34837,0,0,0,.20508.085q.38085,0,.7207-.58008l.17578.12891a1.60182,1.60182,0,0,1-1.541,1.125,1.36159,1.36159,0,0,1-.88184-.29,1.28072,1.28072,0,0,1-.46-.64746,5.52749,5.52749,0,0,1-.05859-1.07813v-2.959h-.71485v-.20508a7.56109,7.56109,0,0,0,1.25684-1.0957,6.67292,6.67292,0,0,0,.90527-1.28321Z"/>
    <path d="M296.72659,89.96245v-.26953a3.62937,3.62937,0,0,0,.89649-.78516,4.06948,4.06948,0,0,0,.62109-1.34765,11.43528,11.43528,0,0,0,.28125-2.8711,11.01421,11.01421,0,0,0-.25488-2.69238,4.54621,4.54621,0,0,0-.69434-1.54981,2.704,2.704,0,0,0-.84961-.7207v-.293a4.68474,4.68474,0,0,1,2.39356,1.93653,5.88717,5.88717,0,0,1,.98144,3.36035,5.7551,5.7551,0,0,1-.98144,3.31347A4.70642,4.70642,0,0,1,296.72659,89.96245Z"/>
  </g>
  <g>
    <path class="cls-2" d="M311.6811,134.86093V11.36253"/>
    <path d="M311.6811,13.15746l-3.603,2.1914-.08154-.12305,2.3335-5.875q.67528-3.07038,1.35107-6.14062.6753,3.07035,1.35107,6.14062l2.3335,5.875-.06152.12305Z"/>
  </g>
  <g>
    <path d="M311.6811,134.53493l125.79619-.00005"/>
    <g>
      <path class="cls-2" d="M311.6811,134.53493l117.64384-.00005"/>
      <path d="M427.53,134.53488l-2.1914-3.603.123-.08155,5.875,2.3335q3.07041.67528,6.14063,1.35107-3.07036.6753-6.14063,1.35108l-5.875,2.33349-.123-.06152Z"/>
    </g>
  </g>
  <g class="cls-3">
    <polyline class="cls-4" points="359.286 134.535 359.286 228.484 311.681 228.484 311.681 134.535"/>
    <polyline class="cls-4" points="405.956 134.281 406.891 40.586 359.286 40.586 359.286 134.535"/>
  </g>
  <g>
    <path d="M375.75784,32.11089h-3.416V30.898h3.416Z"/>
    <path d="M379.68362,36.82768V34.41362a3.52232,3.52232,0,0,1-1.3125-.44824,2.65545,2.65545,0,0,1-.8496-.82324,3.44719,3.44719,0,0,1-.4629-1.10743,14.38244,14.38244,0,0,1-.24609-1.85742,2.48447,2.48447,0,0,0-.20215-.99316.47167.47167,0,0,0-.37207-.18457v-.2168a4.436,4.436,0,0,1,.78516-.07617,1.31911,1.31911,0,0,1,.85547.26074,1.33485,1.33485,0,0,1,.44531.68848,9.90629,9.90629,0,0,1,.22852,1.55859,9.61172,9.61172,0,0,0,.334,1.87207,1.22949,1.22949,0,0,0,.79687.958V28.70659h.97852v5.33789a1.11261,1.11261,0,0,0,.52148-.34863,2.42148,2.42148,0,0,0,.33106-.82032,12.71553,12.71553,0,0,0,.27832-1.61425,15.1074,15.1074,0,0,1,.25488-1.6084,1.19929,1.19929,0,0,1,1.292-.94629,4.353,4.353,0,0,1,.76758.07617v.2168a.47962.47962,0,0,0-.36328.17578,2.71107,2.71107,0,0,0-.2168,1.07227,15.5668,15.5668,0,0,1-.24316,1.831,3.0426,3.0426,0,0,1-.501,1.10742,3.01009,3.01009,0,0,1-2.12109,1.22754v2.41406Z"/>
    <path d="M388.15628,26.13432v.26954a3.54454,3.54454,0,0,0-.89648.77929,3.91766,3.91766,0,0,0-.6211,1.35352,11.36239,11.36239,0,0,0-.28125,2.86523,11.0512,11.0512,0,0,0,.25489,2.69531,4.54553,4.54553,0,0,0,.69433,1.55274,2.70393,2.70393,0,0,0,.84961.7207v.293a4.68465,4.68465,0,0,1-2.39355-1.93652,5.88722,5.88722,0,0,1-.98145-3.36035,5.77733,5.77733,0,0,1,.97852-3.31934A4.65705,4.65705,0,0,1,388.15628,26.13432Z"/>
    <path d="M390.875,26.77886v2.0039h1.30078v.58008H390.875V32.7437a2.57853,2.57853,0,0,0,.04395.6123.44182.44182,0,0,0,.15527.22266.34837.34837,0,0,0,.20508.085q.38085,0,.7207-.58008l.17578.12891a1.60182,1.60182,0,0,1-1.541,1.125,1.36161,1.36161,0,0,1-.88184-.29,1.28072,1.28072,0,0,1-.46-.64746,5.52742,5.52742,0,0,1-.05859-1.07813v-2.959h-.71485v-.20508a7.56023,7.56023,0,0,0,1.25684-1.0957,6.67285,6.67285,0,0,0,.90527-1.2832Z"/>
    <path d="M392.43948,36.66362v-.26953a3.62937,3.62937,0,0,0,.89649-.78516,4.06948,4.06948,0,0,0,.62109-1.34765,11.43523,11.43523,0,0,0,.28125-2.8711,11.01421,11.01421,0,0,0-.25488-2.69238,4.54606,4.54606,0,0,0-.69434-1.5498,2.70373,2.70373,0,0,0-.84961-.72071v-.293a4.68474,4.68474,0,0,1,2.39356,1.93653,5.88719,5.88719,0,0,1,.98144,3.36035,5.75515,5.75515,0,0,1-.98144,3.31348A4.7064,4.7064,0,0,1,392.43948,36.66362Z"/>
  </g>
  <path d="M306.86136,143.23784a7.16714,7.16714,0,0,1-.334,2.2207,3.01664,3.01664,0,0,1-.53613,1.03711,2.69626,2.69626,0,0,1-.76465.6416,1.96568,1.96568,0,0,1-1.96875-.05566,2.75818,2.75818,0,0,1-.82031-.83789,4.07111,4.07111,0,0,1-.45117-1.06055,6.81054,6.81054,0,0,1-.25195-1.85156,7.44772,7.44772,0,0,1,.36328-2.37891,2.82122,2.82122,0,0,1,.9082-1.374,1.99187,1.99187,0,0,1,2.58106-.00586,2.719,2.719,0,0,1,.88183,1.26856A7.05789,7.05789,0,0,1,306.86136,143.23784Zm-1.80469-.01172q0-2.08593-.02344-2.43164a2.17671,2.17671,0,0,0-.28125-1.10156.56549.56549,0,0,0-.47461-.1875.55129.55129,0,0,0-.39843.14062,1.23279,1.23279,0,0,0-.293.72364q-.07617.51855-.07617,3.61816a13.83545,13.83545,0,0,0,.11718,2.26172,1.01175,1.01175,0,0,0,.252.55664.64318.64318,0,0,0,.43359.14062.52329.52329,0,0,0,.43945-.1875,1.8556,1.8556,0,0,0,.28125-1.01367Z"/>
  <path d="M305.209,35.24223v6.498a4.02712,4.02712,0,0,0,.06445.93457.60541.60541,0,0,0,.26953.33106,1.27512,1.27512,0,0,0,.65625.1289h.18164v.2168H302.1973v-.2168h.21093a1.63342,1.63342,0,0,0,.72657-.11719.601.601,0,0,0,.293-.32226,3.564,3.564,0,0,0,.07617-.95508V37.62114a2.59877,2.59877,0,0,0-.05274-.68848.498.498,0,0,0-.19629-.23437.57863.57863,0,0,0-.33105-.09668,1.87956,1.87956,0,0,0-.72656.1875l-.10547-.21094,2.92383-1.33594Z"/>
  <g>
    <path d="M344.20706,139.10112v6.498a4.027,4.027,0,0,0,.06446.93457.60535.60535,0,0,0,.26953.33105,1.275,1.275,0,0,0,.65625.12891h.18164v.2168h-4.1836v-.2168h.21094a1.6334,1.6334,0,0,0,.72656-.11719.601.601,0,0,0,.293-.32226,3.564,3.564,0,0,0,.07617-.95508V141.48a2.599,2.599,0,0,0-.05273-.68848.49807.49807,0,0,0-.19629-.23437.57855.57855,0,0,0-.331-.09668,1.87964,1.87964,0,0,0-.72657.1875l-.10547-.21094,2.92383-1.33594Z"/>
    <path d="M349.668,139.08354l-2.60742,8.3086h-.75l2.61914-8.3086Z"/>
    <path d="M354.60159,147.2105h-4.67578v-.12891a25.83356,25.83356,0,0,0,2.61035-3.44531,3.73364,3.73364,0,0,0,.46-1.72852,1.43853,1.43853,0,0,0-.38085-1.02246,1.22675,1.22675,0,0,0-.93165-.40723,1.53942,1.53942,0,0,0-1.40039.90235l-.21679-.07617a3.24663,3.24663,0,0,1,.96093-1.66407,2.25183,2.25183,0,0,1,1.48829-.53906,2.20123,2.20123,0,0,1,1.10156.28125,2.03692,2.03692,0,0,1,.7793.77051,1.85546,1.85546,0,0,1,.28125.917,3.31173,3.31173,0,0,1-.4336,1.582,15.01616,15.01616,0,0,1-2.584,3.02344H353.377a3.9213,3.9213,0,0,0,.82325-.05273.68265.68265,0,0,0,.31347-.17872,2.31286,2.31286,0,0,0,.32227-.53027h.21094Z"/>
  </g>
  <path d="M400.6553,139.10014v6.498a4.02691,4.02691,0,0,0,.06446.93457.60541.60541,0,0,0,.26953.33106,1.27512,1.27512,0,0,0,.65625.1289h.18164v.2168h-4.18359v-.2168h.21093a1.63345,1.63345,0,0,0,.72657-.11719.601.601,0,0,0,.293-.32226,3.56338,3.56338,0,0,0,.07618-.95508v-4.11914a2.59877,2.59877,0,0,0-.05274-.68848.498.498,0,0,0-.19629-.23437.57863.57863,0,0,0-.331-.09668,1.87956,1.87956,0,0,0-.72656.1875l-.10547-.21094,2.92383-1.33594Z"/>
  <g>
    <path d="M300.92777,228.67143h-3.416v-1.21289h3.416Z"/>
    <path d="M305.12308,222.71245v6.49805a4.02718,4.02718,0,0,0,.06445.93457.60542.60542,0,0,0,.26953.33105,1.275,1.275,0,0,0,.65625.12891h.18164v.21679h-4.18359V230.605h.21094a1.63354,1.63354,0,0,0,.72656-.11719.601.601,0,0,0,.293-.32227,3.56383,3.56383,0,0,0,.07617-.95507v-4.11914a2.5994,2.5994,0,0,0-.05273-.68848.49814.49814,0,0,0-.19629-.23438.57868.57868,0,0,0-.33106-.09668,1.8796,1.8796,0,0,0-.72656.1875l-.10547-.21093,2.92383-1.33594Z"/>
  </g>
  <g>
    <path d="M353.28616,36.8272h-.97851V34.41313a2.82647,2.82647,0,0,1-2.05371-.9873,3.03,3.03,0,0,1-.71778-1.97168,2.94129,2.94129,0,0,1,.72071-1.96582,2.45189,2.45189,0,0,1,1.91015-.87012v.22266a1.21644,1.21644,0,0,0-.78222.77343,5.36328,5.36328,0,0,0-.24317,1.86915q0,2.35546,1.166,2.56054V30.5518a3.69259,3.69259,0,0,1,.123-1.0664,1.15743,1.15743,0,0,1,.47753-.62988,1.415,1.415,0,0,1,.80567-.23731,2.26668,2.26668,0,0,1,1.60547.75879,2.67676,2.67676,0,0,1,.76172,1.9834,3.36335,3.36335,0,0,1-.33692,1.459A2.77021,2.77021,0,0,1,354.751,33.962a2.71023,2.71023,0,0,1-1.46485.45117Zm0-2.78321q1.17188-.22266,1.17188-2.46679a4.06587,4.06587,0,0,0-.27539-1.78711q-.2754-.50391-.56836-.50391-.20508,0-.2666.28418a7.553,7.553,0,0,0-.06153,1.23926Z"/>
    <path d="M360.41116,26.13384v.26953a3.54472,3.54472,0,0,0-.89648.77929,3.91756,3.91756,0,0,0-.62109,1.35352,11.36239,11.36239,0,0,0-.28125,2.86523,11.05193,11.05193,0,0,0,.25488,2.69532,4.54575,4.54575,0,0,0,.69433,1.55273,2.70393,2.70393,0,0,0,.84961.7207v.293a4.68468,4.68468,0,0,1-2.39355-1.93652,5.88722,5.88722,0,0,1-.98145-3.36035,5.7774,5.7774,0,0,1,.97852-3.31934A4.657,4.657,0,0,1,360.41116,26.13384Z"/>
    <path d="M363.12991,26.77837v2.0039h1.30079v.58008h-1.30079v3.38086a2.57869,2.57869,0,0,0,.04395.61231.4419.4419,0,0,0,.15527.22265.34837.34837,0,0,0,.20508.085q.38087,0,.7207-.58008l.17579.12891a1.60183,1.60183,0,0,1-1.541,1.125,1.36161,1.36161,0,0,1-.88184-.29,1.28072,1.28072,0,0,1-.46-.64746,5.52736,5.52736,0,0,1-.05859-1.07812v-2.959h-.71484v-.20508a7.56055,7.56055,0,0,0,1.25683-1.0957,6.67285,6.67285,0,0,0,.90527-1.2832Z"/>
    <path d="M364.69437,36.66313V36.3936a3.62931,3.62931,0,0,0,.89648-.78515,4.06984,4.06984,0,0,0,.6211-1.34766,11.43519,11.43519,0,0,0,.28125-2.87109,11.01422,11.01422,0,0,0-.25489-2.69239,4.54606,4.54606,0,0,0-.69433-1.5498,2.70408,2.70408,0,0,0-.84961-.72071v-.293a4.68468,4.68468,0,0,1,2.39355,1.93652,5.88722,5.88722,0,0,1,.98145,3.36035,5.75514,5.75514,0,0,1-.98145,3.31348A4.70637,4.70637,0,0,1,364.69437,36.66313Z"/>
  </g>
  <g>
    <path d="M421.17,85.40971h-3.416V84.19682h3.416Z"/>
    <path d="M425.09573,90.12651V87.71245a3.5225,3.5225,0,0,1-1.3125-.44824,2.65551,2.65551,0,0,1-.84961-.82325,3.44734,3.44734,0,0,1-.46289-1.10742,14.38244,14.38244,0,0,1-.24609-1.85742,2.48447,2.48447,0,0,0-.20215-.99316.47167.47167,0,0,0-.37207-.18457v-.2168a4.436,4.436,0,0,1,.78516-.07617,1.31911,1.31911,0,0,1,.85547.26074,1.33485,1.33485,0,0,1,.44531.68848,9.90521,9.90521,0,0,1,.22851,1.55859,9.61182,9.61182,0,0,0,.334,1.87207,1.22949,1.22949,0,0,0,.79687.958V82.00542h.97852v5.33789a1.11261,1.11261,0,0,0,.52148-.34863,2.42157,2.42157,0,0,0,.33106-.82032,12.71733,12.71733,0,0,0,.27832-1.61425,15.10694,15.10694,0,0,1,.25488-1.6084,1.19929,1.19929,0,0,1,1.292-.94629,4.353,4.353,0,0,1,.76758.07617v.2168a.4796.4796,0,0,0-.36328.17578,2.711,2.711,0,0,0-.2168,1.07226,15.56673,15.56673,0,0,1-.24316,1.83106,3.0426,3.0426,0,0,1-.501,1.10742,3.01009,3.01009,0,0,1-2.12109,1.22754v2.41406Z"/>
    <path d="M433.56839,79.43315v.26953a3.54455,3.54455,0,0,0-.89648.7793,3.91758,3.91758,0,0,0-.6211,1.35352,11.36239,11.36239,0,0,0-.28125,2.86523,11.0512,11.0512,0,0,0,.25489,2.69531,4.54553,4.54553,0,0,0,.69433,1.55274,2.70406,2.70406,0,0,0,.84961.7207v.293a4.6847,4.6847,0,0,1-2.39355-1.93652,5.88723,5.88723,0,0,1-.98145-3.36036,5.77729,5.77729,0,0,1,.97852-3.31933A4.65705,4.65705,0,0,1,433.56839,79.43315Z"/>
    <path d="M436.28714,80.07768v2.00391h1.30078v.58008h-1.30078v3.38086a2.57865,2.57865,0,0,0,.04395.6123.44182.44182,0,0,0,.15527.22266.34837.34837,0,0,0,.20508.085q.38085,0,.7207-.58008l.17578.12891a1.60182,1.60182,0,0,1-1.541,1.125,1.36159,1.36159,0,0,1-.88184-.29,1.28072,1.28072,0,0,1-.46-.64746,5.52749,5.52749,0,0,1-.05859-1.07813v-2.959h-.71485v-.20508a7.56109,7.56109,0,0,0,1.25684-1.0957,6.67292,6.67292,0,0,0,.90527-1.28321Z"/>
    <path d="M437.85159,89.96245v-.26953a3.62937,3.62937,0,0,0,.89649-.78516,4.06948,4.06948,0,0,0,.62109-1.34765,11.43528,11.43528,0,0,0,.28125-2.8711,11.01421,11.01421,0,0,0-.25488-2.69238,4.54621,4.54621,0,0,0-.69434-1.54981,2.704,2.704,0,0,0-.84961-.7207v-.293a4.68474,4.68474,0,0,1,2.39356,1.93653,5.88717,5.88717,0,0,1,.98144,3.36035,5.7551,5.7551,0,0,1-.98144,3.31347A4.70642,4.70642,0,0,1,437.85159,89.96245Z"/>
    <path d="M441.93558,83.20073h2.81836v-2.8125h.76758v2.8125h2.81835v.77344h-2.81835v2.78906h-.76758V83.97417h-2.81836Z"/>
    <path d="M452.75784,90.12651h-.97851V87.71245a2.82644,2.82644,0,0,1-2.05371-.98731,3.03,3.03,0,0,1-.71778-1.97168,2.94133,2.94133,0,0,1,.72071-1.96582,2.45188,2.45188,0,0,1,1.91015-.87011v.22265a1.21648,1.21648,0,0,0-.78222.77344,5.36325,5.36325,0,0,0-.24317,1.86914q0,2.35547,1.166,2.56055V83.85112a3.693,3.693,0,0,1,.123-1.06641,1.15753,1.15753,0,0,1,.47754-.62988,1.415,1.415,0,0,1,.80567-.2373,2.26668,2.26668,0,0,1,1.60547.75879,2.67675,2.67675,0,0,1,.76172,1.98339,3.36342,3.36342,0,0,1-.33692,1.459,2.77028,2.77028,0,0,1-.99316,1.14258,2.71023,2.71023,0,0,1-1.46485.45117Zm0-2.7832q1.17188-.22266,1.17188-2.4668a4.0659,4.0659,0,0,0-.27539-1.78711q-.2754-.50391-.56836-.5039-.20508,0-.2666.28418a7.55289,7.55289,0,0,0-.06153,1.23925Z"/>
    <path d="M459.88284,79.43315v.26953a3.54473,3.54473,0,0,0-.89648.7793,3.91739,3.91739,0,0,0-.62109,1.35352,11.36239,11.36239,0,0,0-.28125,2.86523,11.05178,11.05178,0,0,0,.25488,2.69531,4.54572,4.54572,0,0,0,.69433,1.55274,2.70406,2.70406,0,0,0,.84961.7207v.293a4.68478,4.68478,0,0,1-2.39355-1.93652,5.88723,5.88723,0,0,1-.98145-3.36036,5.77737,5.77737,0,0,1,.97852-3.31933A4.65705,4.65705,0,0,1,459.88284,79.43315Z"/>
    <path d="M462.60159,80.07768v2.00391h1.30078v.58008h-1.30078v3.38086a2.57865,2.57865,0,0,0,.04395.6123.44189.44189,0,0,0,.15527.22266.34837.34837,0,0,0,.20508.085q.38086,0,.7207-.58008l.17578.12891a1.60181,1.60181,0,0,1-1.541,1.125,1.36161,1.36161,0,0,1-.88184-.29,1.28072,1.28072,0,0,1-.46-.64746,5.52749,5.52749,0,0,1-.05859-1.07813v-2.959h-.71485v-.20508a7.56069,7.56069,0,0,0,1.25684-1.0957,6.67292,6.67292,0,0,0,.90527-1.28321Z"/>
    <path d="M464.16605,89.96245v-.26953a3.6293,3.6293,0,0,0,.89648-.78516,4.06948,4.06948,0,0,0,.62109-1.34765,11.43528,11.43528,0,0,0,.28125-2.8711,11.01421,11.01421,0,0,0-.25488-2.69238,4.54639,4.54639,0,0,0-.69433-1.54981,2.70406,2.70406,0,0,0-.84961-.7207v-.293a4.68475,4.68475,0,0,1,2.39355,1.93653,5.88717,5.88717,0,0,1,.98145,3.36035,5.7551,5.7551,0,0,1-.98145,3.31347A4.70644,4.70644,0,0,1,464.16605,89.96245Z"/>
    <path d="M468.25,82.26323h6.41016V83.025H468.25Zm0,1.916h6.41016V84.941H468.25Z"/>
    <path d="M478.56253,85.40971h-3.416V84.19682h3.416Z"/>
    <path d="M483.81839,87.56011h-4.67578V87.4312a25.8345,25.8345,0,0,0,2.61035-3.44531,3.73364,3.73364,0,0,0,.46-1.72852,1.43848,1.43848,0,0,0-.38086-1.02246,1.22672,1.22672,0,0,0-.93164-.40723A1.53939,1.53939,0,0,0,479.5,81.73l-.2168-.07617a3.24664,3.24664,0,0,1,.96094-1.66407,2.25181,2.25181,0,0,1,1.48828-.53906,2.20127,2.20127,0,0,1,1.10157.28125,2.03689,2.03689,0,0,1,.77929.77051,1.85546,1.85546,0,0,1,.28125.917,3.31171,3.31171,0,0,1-.43359,1.582,15.016,15.016,0,0,1-2.584,3.02344h1.7168a3.92015,3.92015,0,0,0,.82324-.05274.68253.68253,0,0,0,.31348-.17871,2.31322,2.31322,0,0,0,.32227-.53027h.21093Z"/>
    <path d="M489.06839,90.12651h-.97852V87.71245a2.82648,2.82648,0,0,1-2.05371-.98731,3.03006,3.03006,0,0,1-.71777-1.97168,2.94132,2.94132,0,0,1,.7207-1.96582,2.4519,2.4519,0,0,1,1.91016-.87011v.22265a1.21647,1.21647,0,0,0-.78223.77344,5.3633,5.3633,0,0,0-.24316,1.86914q0,2.35547,1.166,2.56055V83.85112a3.693,3.693,0,0,1,.123-1.06641,1.15743,1.15743,0,0,1,.47754-.62988,1.415,1.415,0,0,1,.80566-.2373,2.26666,2.26666,0,0,1,1.60547.75879,2.67671,2.67671,0,0,1,.76172,1.98339,3.36341,3.36341,0,0,1-.33691,1.459,2.7703,2.7703,0,0,1-.99317,1.14258,2.71022,2.71022,0,0,1-1.46484.45117Zm0-2.7832q1.17188-.22266,1.17188-2.4668a4.06572,4.06572,0,0,0-.2754-1.78711q-.27539-.50391-.56835-.5039-.20508,0-.26661.28418a7.5545,7.5545,0,0,0-.06152,1.23925Z"/>
    <path d="M496.19339,79.43315v.26953a3.54455,3.54455,0,0,0-.89648.7793,3.91758,3.91758,0,0,0-.6211,1.35352,11.36239,11.36239,0,0,0-.28125,2.86523,11.0512,11.0512,0,0,0,.25489,2.69531,4.54553,4.54553,0,0,0,.69433,1.55274,2.70406,2.70406,0,0,0,.84961.7207v.293a4.6847,4.6847,0,0,1-2.39355-1.93652,5.88723,5.88723,0,0,1-.98145-3.36036,5.77729,5.77729,0,0,1,.97852-3.31933A4.65705,4.65705,0,0,1,496.19339,79.43315Z"/>
    <path d="M501.30277,87.56011H496.627V87.4312a25.834,25.834,0,0,0,2.61036-3.44531,3.73364,3.73364,0,0,0,.46-1.72852,1.43852,1.43852,0,0,0-.38086-1.02246,1.22675,1.22675,0,0,0-.93164-.40723,1.53938,1.53938,0,0,0-1.40039.90235l-.2168-.07617a3.24664,3.24664,0,0,1,.96094-1.66407,2.25179,2.25179,0,0,1,1.48828-.53906,2.20123,2.20123,0,0,1,1.10156.28125,2.03692,2.03692,0,0,1,.7793.77051,1.85546,1.85546,0,0,1,.28125.917,3.31162,3.31162,0,0,1-.4336,1.582,15.01616,15.01616,0,0,1-2.584,3.02344h1.7168a3.92022,3.92022,0,0,0,.82324-.05274.68254.68254,0,0,0,.31347-.17871,2.3125,2.3125,0,0,0,.32227-.53027h.21094Z"/>
    <path d="M504.91214,80.07768v2.00391h1.30078v.58008h-1.30078v3.38086a2.57865,2.57865,0,0,0,.04395.6123.44182.44182,0,0,0,.15527.22266.34837.34837,0,0,0,.20508.085q.38085,0,.7207-.58008l.17578.12891a1.60182,1.60182,0,0,1-1.541,1.125,1.36159,1.36159,0,0,1-.88184-.29,1.28072,1.28072,0,0,1-.46-.64746,5.52749,5.52749,0,0,1-.05859-1.07813v-2.959h-.71485v-.20508a7.56109,7.56109,0,0,0,1.25684-1.0957,6.67292,6.67292,0,0,0,.90527-1.28321Z"/>
    <path d="M510.03909,85.40971h-3.416V84.19682h3.416Z"/>
    <path d="M514.23441,79.45073v6.49805a4.02718,4.02718,0,0,0,.06445.93457.60542.60542,0,0,0,.26953.33105,1.275,1.275,0,0,0,.65625.12891h.18164v.2168h-4.18359v-.2168h.21093a1.63342,1.63342,0,0,0,.72657-.11719.601.601,0,0,0,.293-.32226,3.564,3.564,0,0,0,.07617-.95508V81.82964a2.59877,2.59877,0,0,0-.05274-.68848.498.498,0,0,0-.19629-.23438.57862.57862,0,0,0-.33105-.09667,1.87956,1.87956,0,0,0-.72656.1875l-.10547-.21094,2.92383-1.33594Z"/>
    <path d="M516.47269,89.96245v-.26953a3.62911,3.62911,0,0,0,.89648-.78516,4.06968,4.06968,0,0,0,.6211-1.34765,11.43528,11.43528,0,0,0,.28125-2.8711,11.01412,11.01412,0,0,0-.25489-2.69238,4.5462,4.5462,0,0,0-.69433-1.54981,2.70406,2.70406,0,0,0-.84961-.7207v-.293a4.68471,4.68471,0,0,1,2.39355,1.93653,5.88717,5.88717,0,0,1,.98145,3.36035,5.7551,5.7551,0,0,1-.98145,3.31347A4.7064,4.7064,0,0,1,516.47269,89.96245Z"/>
  </g>
</svg>
