<svg id="图层_1" data-name="图层 1" xmlns="http://www.w3.org/2000/svg" viewBox="0 0 280.66242 84.68097">
  <defs>
    <style>
      .cls-1, .cls-2 {
        fill: none;
      }

      .cls-1 {
        stroke: #000;
        stroke-width: 0.495px;
      }

      .cls-1, .cls-2, .cls-4 {
        stroke-miterlimit: 10;
      }

      .cls-2, .cls-4 {
        stroke: red;
        stroke-width: 0.7px;
      }

      .cls-3, .cls-4 {
        fill: red;
      }
    </style>
  </defs>
  <title>[OPTSx4602]_Integral_Path</title>
  <path class="cls-1" d="M141.50436,76.20805l-.02664-68.951"/>
  <polyline points="142.924 8.863 141.487 3.497 140.049 8.863 142.924 8.863"/>
  <line class="cls-1" x1="73.83537" y1="74.12306" x2="214.38337" y2="74.12306"/>
  <polyline points="213.402 75.543 218.767 74.106 213.402 72.667 213.402 75.543"/>
  <path d="M186.97872,29.72533h-.03408a9.96836,9.96836,0,0,0,.58142-2.20464q.11892-.81214.47848-.73512.28167,0,.28167.46145a8.901,8.901,0,0,1-1.01678,3.051,2.66082,2.66082,0,0,0-.17943.34183q0,.87994-.03408,1.3673-.06885.63217-.52995.63253-.39329,0-.39294-.49587a3.59825,3.59825,0,0,1,.45275-1.34157.60332.60332,0,0,1,.05981-.17943q-.05946-.22221-.20517-.6753a4.17762,4.17762,0,0,0-1.03416-2.085.79483.79483,0,0,0-.57237-.23089.57679.57679,0,0,0-.64958.48717c0,.14258-.06259.21351-.18777.21351q-.17943-.0511-.17943-.35017.0678-1.0938,1.05085-1.16248Q186.27838,26.75133,186.97872,29.72533Z"/>
  <path d="M191.44949,33.518H190.587a15.18686,15.18686,0,0,0-1.01135-1.35128h-.32307v.913a.20782.20782,0,0,0,.08709.19665.89615.89615,0,0,0,.35116.06462v.177h-1.40465v-.177l.17137-.01967q.25282-.02247.25283-.2416V30.98123a.23492.23492,0,0,0-.06321-.191.90514.90514,0,0,0-.361-.08428v-.1798h1.53107a1.3988,1.3988,0,0,1,.76554.18963.59137.59137,0,0,1,.29638.52394q0,.604-.77537.80627.118.14608.21351.2697.09271.12642.17137.22474l.38488.46073a1.0626,1.0626,0,0,0,.30761.28374.66859.66859,0,0,0,.26829.05619Zm-2.19688-2.78965v1.22487h.29217q.71919,0,.71918-.663,0-.56187-.63209-.56187Z"/>
  <path d="M210.51079,81.61955h-1.54727q-.51316-.80568-.92782-1.39274-.415-.58705-.90016-1.21056h-.5884v1.82191a.64564.64564,0,0,0,.04453.249.31308.31308,0,0,0,.19029.164,1.25061,1.25061,0,0,0,.25507.05264q.18219.02429.30769.02834v.28745h-2.4292V81.3321q.09717-.0081.28138-.02834a.96883.96883,0,0,0,.25709-.05264.349.349,0,0,0,.17612-.15385.5424.5424,0,0,0,.05466-.25911V76.68422a.72021.72021,0,0,0-.04049-.251.2975.2975,0,0,0-.19029-.166,1.75258,1.75258,0,0,0-.26316-.0668,2.50225,2.50225,0,0,0-.27531-.03846v-.28746h2.65188a2.99527,2.99527,0,0,1,.68423.0749,1.843,1.843,0,0,1,.579.2409,1.21622,1.21622,0,0,1,.40082.42309,1.24547,1.24547,0,0,1,.1498.62956A1.58315,1.58315,0,0,1,209.28,77.83a1.20974,1.20974,0,0,1-.2996.44131,1.77818,1.77818,0,0,1-.43726.30162,3.32085,3.32085,0,0,1-.56276.21661q.4251.56277.70649.94739t.6903.93524a1.92359,1.92359,0,0,0,.32187.35831,1.70282,1.70282,0,0,0,.28543.18827.979.979,0,0,0,.26317.081,1.96945,1.96945,0,0,0,.26316.03239Zm-2.1296-4.28113a1.04725,1.04725,0,0,0-1.14578-1.132h-.68827v2.4616h.53037a1.25241,1.25241,0,0,0,1.30368-1.32965Z"/>
  <g>
    <path d="M76.24838,79.741h-2.413v-.63969h2.413Z"/>
    <path d="M82.58456,81.61955H81.03729q-.51317-.80568-.92782-1.39274-.415-.58705-.90016-1.21056H78.6209v1.82191a.64564.64564,0,0,0,.04454.249.31308.31308,0,0,0,.19029.164,1.25063,1.25063,0,0,0,.25506.05264q.1822.02429.3077.02834v.28745h-2.4292V81.3321q.09717-.0081.28138-.02834a.96883.96883,0,0,0,.25709-.05264.349.349,0,0,0,.17612-.15385.5424.5424,0,0,0,.05466-.25911V76.68422a.72021.72021,0,0,0-.04049-.251.2975.2975,0,0,0-.19029-.166,1.75258,1.75258,0,0,0-.26316-.0668,2.50225,2.50225,0,0,0-.27531-.03846v-.28746h2.65188a2.99527,2.99527,0,0,1,.68423.0749,1.843,1.843,0,0,1,.579.2409,1.21622,1.21622,0,0,1,.40082.42309,1.24547,1.24547,0,0,1,.1498.62956,1.58315,1.58315,0,0,1-.10122.58706,1.20974,1.20974,0,0,1-.2996.44131,1.77818,1.77818,0,0,1-.43726.30162,3.32085,3.32085,0,0,1-.56276.21661q.4251.56277.70649.94739t.6903.93524a1.92359,1.92359,0,0,0,.32187.35831,1.70282,1.70282,0,0,0,.28543.18827.979.979,0,0,0,.26317.081,1.96945,1.96945,0,0,0,.26316.03239ZM80.455,77.33842a1.04725,1.04725,0,0,0-1.14578-1.132H78.6209v2.4616h.53038A1.25241,1.25241,0,0,0,80.455,77.33842Z"/>
  </g>
  <g>
    <g>
      <g>
        <path class="cls-2" d="M82.79528,74.14012h57.44715"/>
        <path class="cls-3" d="M138.986,74.14012,137.452,71.618l.08615-.05707,4.11249,1.63344q2.14924.47271,4.29843.94575-2.14924.47271-4.29843.94576l-4.11249,1.63343-.08615-.04306Z"/>
      </g>
      <path class="cls-4" d="M130.586,74.14012h69.62744"/>
    </g>
    <path class="cls-2" d="M200.21343,74.14012a58.70908,58.70908,0,0,0-117.41815,0"/>
    <g>
      <path class="cls-2" d="M142.92437,15.43105H140.4645"/>
      <path class="cls-3" d="M141.72094,15.43105l1.534,2.52212-.08615.05708-4.11249-1.63346q-2.14929-.47269-4.29843-.94574,2.14924-.47271,4.29843-.94576l4.11249-1.63344.08615.04306Z"/>
    </g>
  </g>
</svg>
