<svg id="图层_1" data-name="图层 1" xmlns="http://www.w3.org/2000/svg" viewBox="0 0 475.33758 164.40764">
  <defs>
    <style>
      .cls-1 {
        fill: #eeeaf2;
      }

      .cls-2, .cls-4, .cls-5 {
        fill: none;
      }

      .cls-2 {
        stroke: #7f7f7f;
      }

      .cls-2, .cls-4 {
        stroke-linecap: round;
        stroke-linejoin: round;
        stroke-width: 0.732px;
      }

      .cls-3 {
        fill-rule: evenodd;
      }

      .cls-4, .cls-5 {
        stroke: #000;
      }

      .cls-5 {
        stroke-miterlimit: 10;
      }
    </style>
  </defs>
  <title>[OPTSxa6b4]_BasicBlock_Bottleneck</title>
  <g>
    <rect class="cls-1" x="260.21164" y="95.43321" width="84.65767" height="12.38885"/>
    <rect class="cls-2" x="260.21164" y="95.43321" width="84.65767" height="12.38885"/>
    <path class="cls-3" d="M302.54149,95.433l3.71549-7.64072a7.8956,7.8956,0,0,1-7.43274,0l3.71725,7.64072"/>
    <g>
      <path d="M281.1608,99.1767l1.42-.69195h.14114V103.411a2.58336,2.58336,0,0,0,.04131.61105.321.321,0,0,0,.17041.18589,1.43474,1.43474,0,0,0,.525.07229v.16008h-2.1946v-.16008a1.47934,1.47934,0,0,0,.53359-.07057.35633.35633,0,0,0,.167-.167,2.22478,2.22478,0,0,0,.0482-.6317v-3.1499a4.76369,4.76369,0,0,0-.043-.8176.34626.34626,0,0,0-.11017-.20138.29553.29553,0,0,0-.191-.06541,1.14032,1.14032,0,0,0-.44409.13426Z"/>
      <path d="M284.64979,100.49862h1.85552v.15836a.39242.39242,0,0,0-.24787.06024.20257.20257,0,0,0-.07057.16008.68267.68267,0,0,0,.14975.31843c.03271.04476.07918.11705.14287.21516l.27884.44753.3236-.44753a1.529,1.529,0,0,0,.30982-.53875.18811.18811,0,0,0-.074-.15147.35129.35129,0,0,0-.23581-.06369v-.15836h1.334v.15836a.72867.72867,0,0,0-.36663.117,3.07011,3.07011,0,0,0-.57662.63686l-.537.71776.98112,1.41143a2.91126,2.91126,0,0,0,.51637.62654.76625.76625,0,0,0,.39933.11877v.15491h-1.85895v-.15491a.47188.47188,0,0,0,.30122-.08606.18935.18935,0,0,0,.08262-.16008,1.53938,1.53938,0,0,0-.2754-.49917l-.57662-.84341-.63343.84341a1.69138,1.69138,0,0,0-.29261.46474.24343.24343,0,0,0,.09811.18762.46227.46227,0,0,0,.28917.093v.15491h-1.28578v-.15491a.57945.57945,0,0,0,.27024-.10844,3.80521,3.80521,0,0,0,.5508-.63687l.82621-1.09644-.74875-1.08439a2.42139,2.42139,0,0,0-.49228-.5835.75658.75658,0,0,0-.4372-.11877Z"/>
      <path d="M289.97364,99.1767l1.42-.69195h.14115V103.411a2.58336,2.58336,0,0,0,.04131.61105.321.321,0,0,0,.1704.18589,1.43474,1.43474,0,0,0,.525.07229v.16008h-2.1946v-.16008a1.47934,1.47934,0,0,0,.53359-.07057.35633.35633,0,0,0,.167-.167,2.22478,2.22478,0,0,0,.0482-.6317v-3.1499a4.76369,4.76369,0,0,0-.043-.8176.34626.34626,0,0,0-.11016-.20138.29557.29557,0,0,0-.19106-.06541,1.14032,1.14032,0,0,0-.44409.13426Z"/>
      <path d="M299.17375,102.94281a2.13905,2.13905,0,0,1-.62482,1.198,1.4961,1.4961,0,0,1-1.02759.42,1.51624,1.51624,0,0,1-1.17045-.56457,2.20755,2.20755,0,0,1-.49916-1.52331,2.0994,2.0994,0,0,1,.55252-1.50955,1.76749,1.76749,0,0,1,1.32709-.58178,1.45685,1.45685,0,0,1,.9553.3081.852.852,0,0,1,.37523.63859.35381.35381,0,0,1-.105.26507.41176.41176,0,0,1-.296.10156.459.459,0,0,1-.38212-.16352.66824.66824,0,0,1-.09639-.34425.56163.56163,0,0,0-.17557-.38729.61875.61875,0,0,0-.41654-.12909.852.852,0,0,0-.69367.31843,1.69071,1.69071,0,0,0-.34769,1.11366,2.25676,2.25676,0,0,0,.346,1.24618,1.06377,1.06377,0,0,0,.93636.54048,1.1307,1.1307,0,0,0,.75735-.28917,1.94109,1.94109,0,0,0,.45958-.71777Z"/>
      <path d="M301.66441,100.38158a1.74759,1.74759,0,0,1,1.43725.6799,2.08427,2.08427,0,0,1,.46129,1.334,2.50032,2.50032,0,0,1-.25474,1.07234,1.80194,1.80194,0,0,1-1.69028,1.093,1.674,1.674,0,0,1-1.41659-.71088,2.20143,2.20143,0,0,1-.44236-1.34258,2.38623,2.38623,0,0,1,.26851-1.07751,1.79443,1.79443,0,0,1,1.63692-1.04824Zm-.13254.28056a.895.895,0,0,0-.45957.136.94369.94369,0,0,0-.37179.47507,2.28473,2.28473,0,0,0-.14115.87268,3.05479,3.05479,0,0,0,.34081,1.48544,1.02211,1.02211,0,0,0,.90194.6231.83626.83626,0,0,0,.6885-.34426,1.95176,1.95176,0,0,0,.272-1.1825,2.69521,2.69521,0,0,0-.45269-1.6524A.9296.9296,0,0,0,301.53187,100.66214Z"/>
      <path d="M305.29282,101.21639a1.86111,1.86111,0,0,1,1.3202-.83481.958.958,0,0,1,.556.1618,1.08832,1.08832,0,0,1,.37007.53187,2.489,2.489,0,0,1,.09467.79177v1.68167a1.38726,1.38726,0,0,0,.06024.50777.35967.35967,0,0,0,.15147.16868.88147.88147,0,0,0,.39072.06025v.15491H306.286v-.15491h.08262a.645.645,0,0,0,.38384-.08434.42472.42472,0,0,0,.15319-.24786,2.43652,2.43652,0,0,0,.01722-.4045v-1.61282a1.64105,1.64105,0,0,0-.13943-.78145.49883.49883,0,0,0-.47162-.24269,1.41419,1.41419,0,0,0-1.019.5594v2.07756a1.52082,1.52082,0,0,0,.04647.49572.409.409,0,0,0,.16524.18246,1.01286,1.01286,0,0,0,.42859.05852v.15491h-1.94846v-.15491h.08606a.46476.46476,0,0,0,.40622-.15319,1.11233,1.11233,0,0,0,.105-.58351v-1.46307a6.16042,6.16042,0,0,0-.03271-.86407.36808.36808,0,0,0-.09811-.21171.27451.27451,0,0,0-.179-.05508.82457.82457,0,0,0-.28745.06368l-.06541-.15491,1.18767-.48195h.1859Z"/>
      <path d="M308.34805,100.49862h1.85379v.15836h-.12049a.36469.36469,0,0,0-.25647.08262.28274.28274,0,0,0-.08778.2186.92.92,0,0,0,.09123.358l.91571,2.17739.92087-2.26a1.04941,1.04941,0,0,0,.09983-.36491.14639.14639,0,0,0-.03443-.09983.24184.24184,0,0,0-.12048-.08778,1.19433,1.19433,0,0,0-.29778-.0241v-.15836h1.2875v.15836a.5497.5497,0,0,0-.30983.09123,1.09,1.09,0,0,0-.272.43031l-1.39766,3.38227h-.17728l-1.40627-3.32719a1.30137,1.30137,0,0,0-.18073-.3322.68714.68714,0,0,0-.22032-.17041,1.10618,1.10618,0,0,0-.28745-.074Z"/>
      <path d="M312.58234,105.90681v-.18934a1.41539,1.41539,0,0,0,.68678-.45269,1.04131,1.04131,0,0,0,.2427-.65235.23271.23271,0,0,0-.03959-.1377.07994.07994,0,0,0-.06025-.03959.65379.65379,0,0,0-.20655.08606.35821.35821,0,0,1-.16352.03959.45314.45314,0,0,1-.33564-.12565.46619.46619,0,0,1-.12393-.34425.47814.47814,0,0,1,.16179-.36147.55306.55306,0,0,1,.39245-.14975.66536.66536,0,0,1,.50605.24786.94.94,0,0,1,.222.6558,1.29273,1.29273,0,0,1-.3081.82448A2.03866,2.03866,0,0,1,312.58234,105.90681Z"/>
      <path d="M320.5552,103.31632l-.40794,1.124h-3.44251v-.16008a15.4971,15.4971,0,0,0,2.1378-2.26345,2.86158,2.86158,0,0,0,.61965-1.60421,1.27289,1.27289,0,0,0-.33909-.91226,1.08152,1.08152,0,0,0-.81415-.358,1.26334,1.26334,0,0,0-.77113.253,1.44809,1.44809,0,0,0-.506.7367h-.16007a2.00272,2.00272,0,0,1,.55424-1.2221,1.541,1.541,0,0,1,1.11193-.42515,1.64615,1.64615,0,0,1,1.186.45614,1.44162,1.44162,0,0,1,.47507,1.07578,2.08865,2.08865,0,0,1-.20656.88645,5.87943,5.87943,0,0,1-1.03275,1.47512q-1.07148,1.17217-1.33914,1.41143h1.52332a4.01936,4.01936,0,0,0,.65235-.03443.82671.82671,0,0,0,.33737-.13942.9223.9223,0,0,0,.26335-.2995Z"/>
      <path d="M324.74645,98.60524l-.33564.73154h-1.75568l-.38212.78317a3.08244,3.08244,0,0,1,1.80732.84686,1.9118,1.9118,0,0,1,.57146,1.377,1.95389,1.95389,0,0,1-.1859.852,2.321,2.321,0,0,1-.47162.66785,2.42734,2.42734,0,0,1-.63343.44236,2.31678,2.31678,0,0,1-1.01554.23754,1.28534,1.28534,0,0,1-.76251-.179.49579.49579,0,0,1-.23926-.39417.282.282,0,0,1,.09811-.21172.35312.35312,0,0,1,.24958-.09294.48786.48786,0,0,1,.19623.03442,1.69014,1.69014,0,0,1,.28573.17557,1.13563,1.13563,0,0,0,.65407.22376,1.20891,1.20891,0,0,0,.88473-.3804,1.257,1.257,0,0,0,.3804-.92775,1.62631,1.62631,0,0,0-.33909-.98628,2.19211,2.19211,0,0,0-.93809-.70916,3.82315,3.82315,0,0,0-1.27889-.22376l1.11882-2.2669Z"/>
      <path d="M329.27852,98.48475v.15836a2.84564,2.84564,0,0,0-.92776.22721,2.573,2.573,0,0,0-.70915.51809,3.26087,3.26087,0,0,0-.58179.77629,4.67008,4.67008,0,0,0-.38556,1.01726,2.18163,2.18163,0,0,1,1.24447-.42515,1.35819,1.35819,0,0,1,1.03792.48195,1.76448,1.76448,0,0,1,.4372,1.23931,2.19826,2.19826,0,0,1-.44237,1.334,1.66706,1.66706,0,0,1-1.41143.73154,1.42087,1.42087,0,0,1-1.01554-.39589,2.61849,2.61849,0,0,1-.81759-1.99666,3.6327,3.6327,0,0,1,.31326-1.48889,3.85515,3.85515,0,0,1,.8985-1.25307,3.32265,3.32265,0,0,1,1.11537-.735,2.96584,2.96584,0,0,1,.99489-.18934ZM326.602,101.497a7.4158,7.4158,0,0,0-.07746.93809,2.94564,2.94564,0,0,0,.15319.89677,1.74327,1.74327,0,0,0,.45442.76768.75066.75066,0,0,0,.53358.20311.86328.86328,0,0,0,.66785-.35286,1.53375,1.53375,0,0,0,.29606-1.00693,2.63182,2.63182,0,0,0-.29262-1.27373.91072.91072,0,0,0-.83136-.53875,1.05557,1.05557,0,0,0-.35114.06885A3.38,3.38,0,0,0,326.602,101.497Z"/>
    </g>
    <path class="cls-4" d="M144.14944,15.98068l.04129,20.22473"/>
    <path class="cls-4" d="M144.14944,23.961c69.58435,0,80.94057,20.803,77.01709,49.41062-2.064,13.74408-7.43275,28.97547-77.0171,28.97547"/>
    <path class="cls-3" d="M221.84865,66.87041l-3.7155-7.43274a9.31624,9.31624,0,0,0,7.43275,0l-3.71725,7.43274"/>
    <rect class="cls-1" x="101.81959" y="36.00512" width="84.65767" height="12.59756"/>
    <rect class="cls-2" x="101.81959" y="36.00512" width="84.65767" height="12.59756"/>
    <rect class="cls-1" x="101.81959" y="74.70162" width="84.65767" height="12.38885"/>
    <rect class="cls-2" x="101.81959" y="74.70162" width="84.65767" height="12.38885"/>
    <path class="cls-4" d="M144.14946,48.60267l.08762,22.44241"/>
    <path class="cls-3" d="M144.14944,74.70141l3.71549-7.64073a7.8956,7.8956,0,0,1-7.43274,0l3.71725,7.64073"/>
    <path class="cls-4" d="M144.14946,87.09047l.02114,5.78073"/>
    <path class="cls-3" d="M144.1493,97.80717l3.71549-7.64072a7.89622,7.89622,0,0,1-7.43274,0l3.71726,7.64072"/>
    <path class="cls-3" d="M144.19161,36.74891l3.71549-7.64072a7.8956,7.8956,0,0,1-7.43274,0l3.71726,7.64072"/>
    <g>
      <path d="M122.183,40.308a2.38013,2.38013,0,0,1,.63-.91055,1.42689,1.42689,0,0,1,.94927-.32015,1.31326,1.31326,0,0,1,1.07579.45613,1.11481,1.11481,0,0,1,.284.72723,1.843,1.843,0,0,1-.80039,1.31676,1.72952,1.72952,0,0,1,.81329.60244,1.56113,1.56113,0,0,1,.27541.92087,1.938,1.938,0,0,1-.482,1.31246,2.28189,2.28189,0,0,1-1.82022.72293,1.53851,1.53851,0,0,1-.803-.14631.40088.40088,0,0,1-.21258-.31413.292.292,0,0,1,.1007-.21946.34643.34643,0,0,1,.24356-.09467.73734.73734,0,0,1,.21946.03443,2.71587,2.71587,0,0,1,.33134.15663,2.036,2.036,0,0,0,.35716.1618,1.17572,1.17572,0,0,0,.34.04734,1.02257,1.02257,0,0,0,.76337-.34,1.1243,1.1243,0,0,0,.32532-.80469,1.54788,1.54788,0,0,0-.15061-.66268,1.18376,1.18376,0,0,0-.24528-.36577,1.779,1.779,0,0,0-.50777-.31155,1.632,1.632,0,0,0-.65838-.14028h-.1377v-.12909a1.77685,1.77685,0,0,0,.68248-.24528,1.30335,1.30335,0,0,0,.49658-.48626,1.28245,1.28245,0,0,0,.15491-.624.95625.95625,0,0,0-.278-.71605.94207.94207,0,0,0-.69022-.27367,1.30177,1.30177,0,0,0-1.11452.71432Z"/>
      <path d="M126.25807,41.09119h1.85466v.15921a.38855.38855,0,0,0-.24786.06025.20077.20077,0,0,0-.07057.15921.67424.67424,0,0,0,.15061.31844c.03184.04561.07917.1179.142.21515l.2797.44753.32274-.44753a1.53608,1.53608,0,0,0,.30982-.53789.19135.19135,0,0,0-.07315-.15233.359.359,0,0,0-.23667-.06283v-.15921h1.334v.15921a.72756.72756,0,0,0-.36576.11619,3.04456,3.04456,0,0,0-.57663.63686l-.53789.71863.98112,1.41143a2.898,2.898,0,0,0,.51637.62567.76932.76932,0,0,0,.4002.11877v.15491h-1.859V44.878a.46841.46841,0,0,0,.30122-.08606.18914.18914,0,0,0,.08176-.15922,1.51208,1.51208,0,0,0-.2754-.49916l-.57662-.84342-.63256.84342a1.641,1.641,0,0,0-.29262.46474.24081.24081,0,0,0,.09725.18675.45973.45973,0,0,0,.29.093v.15491H126.2882V44.878a.58163.58163,0,0,0,.27109-.10758,3.92557,3.92557,0,0,0,.55081-.63686l.8262-1.0973-.74875-1.08439a2.43867,2.43867,0,0,0-.49314-.58351.76191.76191,0,0,0-.43634-.11791Z"/>
      <path d="M130.99583,40.308a2.38013,2.38013,0,0,1,.63-.91055,1.42689,1.42689,0,0,1,.94927-.32015,1.31325,1.31325,0,0,1,1.07579.45613,1.11481,1.11481,0,0,1,.284.72723,1.843,1.843,0,0,1-.80039,1.31676,1.7296,1.7296,0,0,1,.8133.60244,1.56119,1.56119,0,0,1,.2754.92087,1.938,1.938,0,0,1-.48195,1.31246,2.28191,2.28191,0,0,1-1.82023.72293,1.53853,1.53853,0,0,1-.803-.14631.40086.40086,0,0,1-.21257-.31413.292.292,0,0,1,.10069-.21946.34643.34643,0,0,1,.24356-.09467.73734.73734,0,0,1,.21946.03443,2.71587,2.71587,0,0,1,.33134.15663,2.036,2.036,0,0,0,.35716.1618,1.17572,1.17572,0,0,0,.33995.04734,1.02257,1.02257,0,0,0,.76337-.34,1.1243,1.1243,0,0,0,.32532-.80469,1.54773,1.54773,0,0,0-.15061-.66268,1.18376,1.18376,0,0,0-.24528-.36577,1.779,1.779,0,0,0-.50777-.31155,1.632,1.632,0,0,0-.65838-.14028h-.1377v-.12909a1.77685,1.77685,0,0,0,.68248-.24528,1.30328,1.30328,0,0,0,.49658-.48626,1.28245,1.28245,0,0,0,.15492-.624.95626.95626,0,0,0-.278-.71605.94207.94207,0,0,0-.69022-.27367,1.30174,1.30174,0,0,0-1.11451.71432Z"/>
      <path d="M140.78117,43.53537a2.1302,2.1302,0,0,1-.624,1.198,1.49663,1.49663,0,0,1-1.02845.42,1.5193,1.5193,0,0,1-1.17046-.56371,2.21467,2.21467,0,0,1-.49916-1.52331,2.10148,2.10148,0,0,1,.55252-1.5104,1.76977,1.76977,0,0,1,1.32795-.58093,1.45639,1.45639,0,0,1,.9553.30725.85214.85214,0,0,1,.37437.63944.35.35,0,0,1-.105.26422.4073.4073,0,0,1-.2952.10155.45719.45719,0,0,1-.383-.16352.67382.67382,0,0,1-.09639-.34425.56447.56447,0,0,0-.17471-.38728.6211.6211,0,0,0-.4174-.1291.85276.85276,0,0,0-.69281.31844,1.69343,1.69343,0,0,0-.34855,1.11451,2.25593,2.25593,0,0,0,.346,1.24533,1.064,1.064,0,0,0,.93636.54047,1.1325,1.1325,0,0,0,.75736-.28831,1.94583,1.94583,0,0,0,.46043-.71862Z"/>
      <path d="M143.27269,40.975a1.74635,1.74635,0,0,1,1.43725.6799,2.0867,2.0867,0,0,1,.46044,1.334,2.50766,2.50766,0,0,1-.25389,1.07148,1.802,1.802,0,0,1-1.69113,1.093,1.6706,1.6706,0,0,1-1.41574-.71,2.20036,2.20036,0,0,1-.44322-1.34258,2.3798,2.3798,0,0,1,.26938-1.07836,1.84234,1.84234,0,0,1,.70743-.79178A1.81846,1.81846,0,0,1,143.27269,40.975Zm-.1334.27971a.892.892,0,0,0-.45871.136.94754.94754,0,0,0-.37179.47506,2.28812,2.28812,0,0,0-.142.87354,3.05146,3.05146,0,0,0,.34167,1.48458,1.02065,1.02065,0,0,0,.90194.624.83967.83967,0,0,0,.6885-.34425,1.95729,1.95729,0,0,0,.2711-1.18337,2.69864,2.69864,0,0,0-.45183-1.6524A.93109.93109,0,0,0,143.13929,41.25471Z"/>
      <path d="M146.90024,41.80981a1.85967,1.85967,0,0,1,1.32106-.83481.95472.95472,0,0,1,.55511.16094,1.08692,1.08692,0,0,1,.37007.53187,2.46788,2.46788,0,0,1,.09467.79178v1.68252a1.41,1.41,0,0,0,.06024.50777.35954.35954,0,0,0,.15233.16783.86469.86469,0,0,0,.38987.06024v.15491h-1.94933V44.878h.08176a.64626.64626,0,0,0,.3847-.08434.42948.42948,0,0,0,.1532-.247,2.55592,2.55592,0,0,0,.01721-.4045V42.52844a1.64573,1.64573,0,0,0-.13942-.78145.5006.5006,0,0,0-.47163-.2427,1.41881,1.41881,0,0,0-1.01984.55941v2.07841a1.47639,1.47639,0,0,0,.04733.49487.39527.39527,0,0,0,.16524.18245,1.01275,1.01275,0,0,0,.4286.05852v.15491h-1.94933V44.878h.08607a.46324.46324,0,0,0,.40707-.15319,1.11942,1.11942,0,0,0,.105-.58265V42.679a6.17859,6.17859,0,0,0-.0327-.86493.36781.36781,0,0,0-.09811-.21086.2717.2717,0,0,0-.179-.05594.82856.82856,0,0,0-.28831.06455l-.06454-.15492,1.18766-.48195h.185Z"/>
      <path d="M149.95547,41.09119h1.85465v.15921h-.12049a.367.367,0,0,0-.25646.08176.28463.28463,0,0,0-.08779.21946.917.917,0,0,0,.09037.35716l.91657,2.17739.92087-2.25915a1.06658,1.06658,0,0,0,.099-.36576.14159.14159,0,0,0-.03442-.099.24124.24124,0,0,0-.12049-.08865,1.19957,1.19957,0,0,0-.29692-.02324v-.15921H154.207v.15921a.55528.55528,0,0,0-.30982.09037,1.09605,1.09605,0,0,0-.2711.43031l-1.39852,3.38227h-.17643L150.644,41.827a1.25769,1.25769,0,0,0-.18073-.33306.70791.70791,0,0,0-.21946-.1704,1.08883,1.08883,0,0,0-.28831-.07316Z"/>
      <path d="M154.18976,46.50024V46.3109a1.41451,1.41451,0,0,0,.68678-.45355,1.03777,1.03777,0,0,0,.2427-.65236.23606.23606,0,0,0-.03873-.1377.08129.08129,0,0,0-.06024-.03873.61764.61764,0,0,0-.20656.08606.35994.35994,0,0,1-.16351.03873.45333.45333,0,0,1-.33565-.12479.46452.46452,0,0,1-.12479-.34425.47548.47548,0,0,1,.1618-.36146.55206.55206,0,0,1,.3933-.15061.66238.66238,0,0,1,.50519.24786.94293.94293,0,0,1,.222.6558,1.28629,1.28629,0,0,1-.3081.82448A2.03525,2.03525,0,0,1,154.18976,46.50024Z"/>
      <path d="M162.07311,39.07732v.15921a2.8311,2.8311,0,0,0-.92775.22635,2.578,2.578,0,0,0-.70916.5181,3.30193,3.30193,0,0,0-.58179.77628,4.66188,4.66188,0,0,0-.3847,1.01813,2.18241,2.18241,0,0,1,1.24361-.426,1.36061,1.36061,0,0,1,1.03706.482,1.76841,1.76841,0,0,1,.43892,1.2393,2.20105,2.20105,0,0,1-.44323,1.334,1.66393,1.66393,0,0,1-1.41143.73153,1.42013,1.42013,0,0,1-1.01554-.39589,2.62028,2.62028,0,0,1-.81759-1.99666,3.62523,3.62523,0,0,1,.31413-1.48888,3.83626,3.83626,0,0,1,.89763-1.25222,3.31263,3.31263,0,0,1,1.11623-.73583,2.97462,2.97462,0,0,1,.994-.18934Zm-2.67655,3.0122a7.42778,7.42778,0,0,0-.07746.93808,2.97228,2.97228,0,0,0,.15319.89678,1.75347,1.75347,0,0,0,.45356.76854.75808.75808,0,0,0,.53358.20224.8597.8597,0,0,0,.66871-.35285,1.52576,1.52576,0,0,0,.2952-1.00694,2.62448,2.62448,0,0,0-.29262-1.27373.90836.90836,0,0,0-.8305-.53789,1.03074,1.03074,0,0,0-.35114.06885A3.39438,3.39438,0,0,0,159.39656,42.08952Z"/>
      <path d="M166.63014,42.88129v.611H165.847v1.54052h-.71V43.49234h-2.47v-.5508l2.70667-3.86422h.47335v3.804Zm-1.49319,0v-2.896l-2.0483,2.896Z"/>
    </g>
    <g>
      <path d="M122.183,78.98464a2.36681,2.36681,0,0,1,.63-.91054,1.42684,1.42684,0,0,1,.94927-.32016,1.31075,1.31075,0,0,1,1.07579.45614,1.111,1.111,0,0,1,.284.72637,1.84,1.84,0,0,1-.80039,1.31676,1.74082,1.74082,0,0,1,.81329.60244,1.563,1.563,0,0,1,.27541.92087,1.9386,1.9386,0,0,1-.482,1.31332,2.28189,2.28189,0,0,1-1.82022.72293,1.54739,1.54739,0,0,1-.803-.14631.40335.40335,0,0,1-.21258-.315.29022.29022,0,0,1,.1007-.2186.34267.34267,0,0,1,.24356-.09467.71073.71073,0,0,1,.21946.03443,2.58187,2.58187,0,0,1,.33134.15663,2.036,2.036,0,0,0,.35716.1618,1.20646,1.20646,0,0,0,.34.04647,1.02477,1.02477,0,0,0,.76337-.33908,1.12773,1.12773,0,0,0,.32532-.80555,1.55075,1.55075,0,0,0-.15061-.66269,1.1787,1.1787,0,0,0-.24528-.3649,1.75979,1.75979,0,0,0-.50777-.31155,1.61889,1.61889,0,0,0-.65838-.14114h-.1377v-.1291a1.7747,1.7747,0,0,0,.68248-.24442,1.31115,1.31115,0,0,0,.49658-.48711,1.28153,1.28153,0,0,0,.15491-.6231.95359.95359,0,0,0-.278-.716.94208.94208,0,0,0-.69022-.27368,1.30006,1.30006,0,0,0-1.11452.71432Z"/>
      <path d="M126.25807,79.76781h1.85466v.15836a.39412.39412,0,0,0-.24786.06024.20254.20254,0,0,0-.07057.16008.67772.67772,0,0,0,.15061.31843c.03184.04476.07917.117.142.21516l.2797.44753.32274-.44753a1.529,1.529,0,0,0,.30982-.53875.18971.18971,0,0,0-.07315-.15147.35393.35393,0,0,0-.23667-.06369v-.15836h1.334v.15836a.72818.72818,0,0,0-.36576.11705,3.02161,3.02161,0,0,0-.57663.63686l-.53789.71776.98112,1.41143a2.91126,2.91126,0,0,0,.51637.62654.7695.7695,0,0,0,.4002.11877v.15491h-1.859v-.15491a.47354.47354,0,0,0,.30122-.08606.19066.19066,0,0,0,.08176-.16008,1.52076,1.52076,0,0,0-.2754-.49917l-.57662-.84341-.63256.84341a1.667,1.667,0,0,0-.29262.46474.24239.24239,0,0,0,.09725.18762.465.465,0,0,0,.29.093v.15491H126.2882v-.15491a.58264.58264,0,0,0,.27109-.10844,3.84686,3.84686,0,0,0,.55081-.63687l.8262-1.09644-.74875-1.08439a2.43855,2.43855,0,0,0-.49314-.5835.75561.75561,0,0,0-.43634-.11877Z"/>
      <path d="M130.99583,78.98464a2.36681,2.36681,0,0,1,.63-.91054,1.42684,1.42684,0,0,1,.94927-.32016,1.31073,1.31073,0,0,1,1.07579.45614,1.111,1.111,0,0,1,.284.72637,1.84,1.84,0,0,1-.80039,1.31676,1.7409,1.7409,0,0,1,.8133.60244,1.563,1.563,0,0,1,.2754.92087,1.93864,1.93864,0,0,1-.48195,1.31332,2.28191,2.28191,0,0,1-1.82023.72293,1.54741,1.54741,0,0,1-.803-.14631.40334.40334,0,0,1-.21257-.315.29021.29021,0,0,1,.10069-.2186.34267.34267,0,0,1,.24356-.09467.71073.71073,0,0,1,.21946.03443,2.58187,2.58187,0,0,1,.33134.15663,2.036,2.036,0,0,0,.35716.1618,1.20646,1.20646,0,0,0,.33995.04647,1.02477,1.02477,0,0,0,.76337-.33908,1.12773,1.12773,0,0,0,.32532-.80555,1.55061,1.55061,0,0,0-.15061-.66269,1.1787,1.1787,0,0,0-.24528-.3649,1.75979,1.75979,0,0,0-.50777-.31155,1.61882,1.61882,0,0,0-.65838-.14114h-.1377v-.1291a1.7747,1.7747,0,0,0,.68248-.24442,1.31108,1.31108,0,0,0,.49658-.48711,1.28154,1.28154,0,0,0,.15492-.6231.9536.9536,0,0,0-.278-.716.94208.94208,0,0,0-.69022-.27368,1.3,1.3,0,0,0-1.11451.71432Z"/>
      <path d="M140.78117,82.212a2.133,2.133,0,0,1-.624,1.198,1.4966,1.4966,0,0,1-1.02845.42,1.51753,1.51753,0,0,1-1.17046-.56457,2.21173,2.21173,0,0,1-.49916-1.52331,2.0994,2.0994,0,0,1,.55252-1.50955,1.77065,1.77065,0,0,1,1.32795-.58178,1.45683,1.45683,0,0,1,.9553.3081.85072.85072,0,0,1,.37437.63859.35062.35062,0,0,1-.105.26507.411.411,0,0,1-.2952.10156.45959.45959,0,0,1-.383-.16352.67676.67676,0,0,1-.09639-.34425.561.561,0,0,0-.17471-.38729.62115.62115,0,0,0-.4174-.12909.85031.85031,0,0,0-.69281.31843,1.691,1.691,0,0,0-.34855,1.11366,2.25676,2.25676,0,0,0,.346,1.24618,1.06574,1.06574,0,0,0,.93636.54048,1.12915,1.12915,0,0,0,.75736-.28917,1.94111,1.94111,0,0,0,.46043-.71777Z"/>
      <path d="M143.27269,79.65077a1.74869,1.74869,0,0,1,1.43725.6799,2.08837,2.08837,0,0,1,.46044,1.334,2.51131,2.51131,0,0,1-.25389,1.07234,1.802,1.802,0,0,1-1.69113,1.093,1.67136,1.67136,0,0,1-1.41574-.71088,2.19677,2.19677,0,0,1-.44322-1.34258,2.37645,2.37645,0,0,1,.26938-1.07751,1.7944,1.7944,0,0,1,1.63691-1.04824Zm-.1334.28056a.89207.89207,0,0,0-.45871.136.9438.9438,0,0,0-.37179.47507,2.28337,2.28337,0,0,0-.142.87268,3.05492,3.05492,0,0,0,.34167,1.48544,1.02118,1.02118,0,0,0,.90194.6231.83737.83737,0,0,0,.6885-.34426,1.95244,1.95244,0,0,0,.2711-1.1825,2.69517,2.69517,0,0,0-.45183-1.6524A.93108.93108,0,0,0,143.13929,79.93133Z"/>
      <path d="M146.90024,80.48558a1.8625,1.8625,0,0,1,1.32106-.83481.95521.95521,0,0,1,.55511.1618,1.08284,1.08284,0,0,1,.37007.53187,2.4642,2.4642,0,0,1,.09467.79177v1.68167a1.40681,1.40681,0,0,0,.06024.50777.36149.36149,0,0,0,.15233.16868.877.877,0,0,0,.38987.06025v.15491h-1.94933v-.15491h.08176a.64626.64626,0,0,0,.3847-.08434.429.429,0,0,0,.1532-.24786,2.548,2.548,0,0,0,.01721-.4045V81.20506a1.64107,1.64107,0,0,0-.13942-.78145.50062.50062,0,0,0-.47163-.24269,1.41576,1.41576,0,0,0-1.01984.5594v2.07756a1.48633,1.48633,0,0,0,.04733.49572.39955.39955,0,0,0,.16524.18246,1.01291,1.01291,0,0,0,.4286.05852v.15491h-1.94933v-.15491h.08607a.46552.46552,0,0,0,.40707-.15319,1.12105,1.12105,0,0,0,.105-.58351V81.35481a6.16282,6.16282,0,0,0-.0327-.86407.37371.37371,0,0,0-.09811-.21171.27619.27619,0,0,0-.179-.05508.82484.82484,0,0,0-.28831.06368l-.06454-.15491,1.18766-.482h.185Z"/>
      <path d="M149.95547,79.76781h1.85465v.15836h-.12049a.36321.36321,0,0,0-.25646.08262.28272.28272,0,0,0-.08779.2186.91713.91713,0,0,0,.09037.358l.91657,2.17739.92087-2.26a1.06318,1.06318,0,0,0,.099-.36491.14235.14235,0,0,0-.03442-.09983.23473.23473,0,0,0-.12049-.08778,1.18594,1.18594,0,0,0-.29692-.0241v-.15836H154.207v.15836a.55451.55451,0,0,0-.30982.09123,1.0895,1.0895,0,0,0-.2711.43031L152.22753,83.83h-.17643L150.644,80.50279a1.24976,1.24976,0,0,0-.18073-.3322.6834.6834,0,0,0-.21946-.17041,1.11556,1.11556,0,0,0-.28831-.074Z"/>
      <path d="M154.18976,85.176v-.18934a1.40739,1.40739,0,0,0,.68678-.45269,1.04131,1.04131,0,0,0,.2427-.65235.23234.23234,0,0,0-.03873-.1377.08276.08276,0,0,0-.06024-.03959.63819.63819,0,0,0-.20656.08606.3608.3608,0,0,1-.16351.03959.45048.45048,0,0,1-.33565-.12565.4632.4632,0,0,1-.12479-.34425.47812.47812,0,0,1,.1618-.36147.55511.55511,0,0,1,.3933-.14975.66238.66238,0,0,1,.50519.24786.94.94,0,0,1,.222.6558,1.288,1.288,0,0,1-.3081.82448A2.03441,2.03441,0,0,1,154.18976,85.176Z"/>
      <path d="M162.07311,77.75394v.15836a2.85124,2.85124,0,0,0-.92775.22721,2.56032,2.56032,0,0,0-.70916.51809,3.28426,3.28426,0,0,0-.58179.77629,4.67078,4.67078,0,0,0-.3847,1.01726,2.18117,2.18117,0,0,1,1.24361-.42515,1.35776,1.35776,0,0,1,1.03706.48195,1.76553,1.76553,0,0,1,.43892,1.23931,2.20469,2.20469,0,0,1-.44323,1.334,1.666,1.666,0,0,1-1.41143.73154,1.42376,1.42376,0,0,1-1.01554-.39589,2.62158,2.62158,0,0,1-.81759-1.99666,3.61945,3.61945,0,0,1,.31413-1.48889,3.83967,3.83967,0,0,1,.89763-1.25307,3.3087,3.3087,0,0,1,1.11623-.735,2.9535,2.9535,0,0,1,.994-.18934Zm-2.67655,3.0122a7.4158,7.4158,0,0,0-.07746.93809,2.97217,2.97217,0,0,0,.15319.89677,1.7502,1.7502,0,0,0,.45356.76768.755.755,0,0,0,.53358.20311.86228.86228,0,0,0,.66871-.35286,1.52886,1.52886,0,0,0,.2952-1.00693,2.62214,2.62214,0,0,0-.29262-1.27373.90779.90779,0,0,0-.8305-.53875,1.05154,1.05154,0,0,0-.35114.06885A3.41574,3.41574,0,0,0,159.39656,80.76614Z"/>
      <path d="M166.63014,81.55792V82.169H165.847v1.54052h-.71V82.169h-2.47v-.55081l2.70667-3.86422h.47335v3.804Zm-1.49319,0V78.66105l-2.0483,2.89687Z"/>
    </g>
    <g>
      <path d="M153.53138,59.4897v.88644q.49443-.88558,1.01554-.88644a.55188.55188,0,0,1,.39159.14458.44287.44287,0,0,1,.15491.33392.39286.39286,0,0,1-.11188.284.35728.35728,0,0,1-.2668.11533.56451.56451,0,0,1-.33822-.148.55921.55921,0,0,0-.27713-.148.251.251,0,0,0-.16782.08606,2.0729,2.0729,0,0,0-.40019.58007v1.88994a1.17316,1.17316,0,0,0,.08176.494.44582.44582,0,0,0,.19794.1945.86869.86869,0,0,0,.4088.07745v.15492h-2.01817V63.3935a.84888.84888,0,0,0,.44752-.09466.36773.36773,0,0,0,.15061-.22033,2.17426,2.17426,0,0,0,.02152-.41654V61.13349a6.26066,6.26066,0,0,0-.0284-.81931.3114.3114,0,0,0-.10328-.19106.28157.28157,0,0,0-.18675-.06025.84928.84928,0,0,0-.30122.06369l-.043-.15491,1.192-.48195Z"/>
      <path d="M155.97556,61.09046a2.02649,2.02649,0,0,0,.426,1.377,1.29522,1.29522,0,0,0,1.01124.49916,1.09869,1.09869,0,0,0,.673-.21171,1.57646,1.57646,0,0,0,.48023-.72981l.1334.08606a2.05606,2.05606,0,0,1-.525,1.07406,1.40431,1.40431,0,0,1-1.0887.48368,1.58863,1.58863,0,0,1-1.2152-.55253,2.1225,2.1225,0,0,1-.506-1.48716,2.24786,2.24786,0,0,1,.51809-1.57667,1.68756,1.68756,0,0,1,1.30213-.5663,1.45056,1.45056,0,0,1,1.0887.4372,1.5987,1.5987,0,0,1,.426,1.167Zm0-.24958h1.82453a1.71065,1.71065,0,0,0-.09036-.53359.85739.85739,0,0,0-.321-.37867.80941.80941,0,0,0-.44494-.1377.88714.88714,0,0,0-.63945.27884A1.20421,1.20421,0,0,0,155.97556,60.84088Z"/>
      <path d="M160.57992,57.42935v5.22746a1.41033,1.41033,0,0,0,.05422.49055.383.383,0,0,0,.16524.18418.95824.95824,0,0,0,.41741.062v.15492h-1.93211V63.3935a.82452.82452,0,0,0,.37007-.0568.36307.36307,0,0,0,.15491-.18417,1.45183,1.45183,0,0,0,.05594-.49572V59.07659a6.25522,6.25522,0,0,0-.03012-.81931.35634.35634,0,0,0-.09639-.20828.25472.25472,0,0,0-.17041-.0568.82666.82666,0,0,0-.284.06885l-.07316-.14975,1.17476-.48195Z"/>
      <path d="M165.12834,59.60674v2.38738a6.21609,6.21609,0,0,0,.03185.83825.38052.38052,0,0,0,.10327.21172.24569.24569,0,0,0,.1661.06024.77442.77442,0,0,0,.30122-.07229l.06111.14975-1.17992.48712h-.19365V62.8341a3.58267,3.58267,0,0,1-.77456.69194,1.18466,1.18466,0,0,1-.56371.14287.89981.89981,0,0,1-.574-.19106.99283.99283,0,0,1-.33823-.494,2.97806,2.97806,0,0,1-.09467-.852V60.3727a.85656.85656,0,0,0-.06024-.38728.39536.39536,0,0,0-.17815-.16524,1.05146,1.05146,0,0,0-.42859-.05508v-.15836h1.3813v2.637a.97881.97881,0,0,0,.19192.72292.66352.66352,0,0,0,.46216.17213.95918.95918,0,0,0,.41913-.11533,2.25944,2.25944,0,0,0,.55768-.44408V60.34688a.63851.63851,0,0,0-.12221-.45441.80291.80291,0,0,0-.51035-.12737v-.15836Z"/>
    </g>
    <g>
      <path d="M153.53138,112.54053v.88645q.49443-.88559,1.01554-.88645a.55188.55188,0,0,1,.39159.14459.44287.44287,0,0,1,.15491.33392.39289.39289,0,0,1-.11188.284.35727.35727,0,0,1-.2668.11532.56449.56449,0,0,1-.33822-.148.55912.55912,0,0,0-.27713-.148.251.251,0,0,0-.16782.08606,2.073,2.073,0,0,0-.40019.58006v1.88994a1.1731,1.1731,0,0,0,.08176.494.44579.44579,0,0,0,.19794.19451.86881.86881,0,0,0,.4088.07745v.15491h-2.01817v-.15491a.84877.84877,0,0,0,.44752-.09467.36768.36768,0,0,0,.15061-.22032,2.17434,2.17434,0,0,0,.02152-.41654v-1.52848a6.261,6.261,0,0,0-.0284-.81932.31143.31143,0,0,0-.10328-.19106.28156.28156,0,0,0-.18675-.06024.84928.84928,0,0,0-.30122.06369l-.043-.15492,1.192-.48195Z"/>
      <path d="M155.97556,114.1413a2.02651,2.02651,0,0,0,.426,1.377,1.29522,1.29522,0,0,0,1.01124.49916,1.09869,1.09869,0,0,0,.673-.21171,1.5765,1.5765,0,0,0,.48023-.72982l.1334.08607a2.05609,2.05609,0,0,1-.525,1.07406,1.40434,1.40434,0,0,1-1.0887.48367,1.58862,1.58862,0,0,1-1.2152-.55252,2.12251,2.12251,0,0,1-.506-1.48717,2.24789,2.24789,0,0,1,.51809-1.57667,1.68759,1.68759,0,0,1,1.30213-.56629,1.45056,1.45056,0,0,1,1.0887.4372,1.5987,1.5987,0,0,1,.426,1.167Zm0-.24958h1.82453a1.71059,1.71059,0,0,0-.09036-.53359.85741.85741,0,0,0-.321-.37868.80949.80949,0,0,0-.44494-.1377.88715.88715,0,0,0-.63945.27885A1.20421,1.20421,0,0,0,155.97556,113.89172Z"/>
      <path d="M160.57992,110.48019v5.22745a1.41044,1.41044,0,0,0,.05422.49056.383.383,0,0,0,.16524.18418.95824.95824,0,0,0,.41741.062v.15491h-1.93211v-.15491a.82452.82452,0,0,0,.37007-.0568.36311.36311,0,0,0,.15491-.18417,1.45194,1.45194,0,0,0,.05594-.49573v-3.58021a6.25553,6.25553,0,0,0-.03012-.81932.35633.35633,0,0,0-.09639-.20827.25467.25467,0,0,0-.17041-.0568.82666.82666,0,0,0-.284.06885l-.07316-.14975,1.17476-.482Z"/>
      <path d="M165.12834,112.65758V115.045a6.2162,6.2162,0,0,0,.03185.83825.38052.38052,0,0,0,.10327.21172.24569.24569,0,0,0,.1661.06024.7746.7746,0,0,0,.30122-.07229l.05939.14975-1.1782.48711h-.19365v-.83481a3.58252,3.58252,0,0,1-.77456.692,1.18465,1.18465,0,0,1-.56371.14286.89975.89975,0,0,1-.574-.19106.99274.99274,0,0,1-.33823-.494,2.97793,2.97793,0,0,1-.09467-.852v-1.75912a.85664.85664,0,0,0-.06024-.38729.39547.39547,0,0,0-.17815-.16524,1.05164,1.05164,0,0,0-.42859-.05508v-.15835h1.3813v2.637a.97882.97882,0,0,0,.19192.72293.66357.66357,0,0,0,.46216.17213.95918.95918,0,0,0,.41913-.11533,2.25944,2.25944,0,0,0,.55768-.44408v-2.23247a.63847.63847,0,0,0-.12221-.45441.803.803,0,0,0-.51035-.12738v-.15835Z"/>
    </g>
    <g>
      <path class="cls-5" d="M148.86482,102.34708a4.71539,4.71539,0,1,1-4.88863-4.71226q.08624-.00312.17324-.00312A4.71539,4.71539,0,0,1,148.86482,102.34708Z"/>
      <line class="cls-5" x1="144.14943" y1="107.23063" x2="144.14943" y2="97.6317"/>
      <line class="cls-5" x1="139.43404" y1="102.34708" x2="148.86482" y2="102.34708"/>
    </g>
    <path class="cls-4" d="M144.14946,107.06247q.05485,5.35471.10978,10.70939"/>
    <path class="cls-3" d="M144.238,122.70782l3.71549-7.64072a7.89622,7.89622,0,0,1-7.43274,0l3.71725,7.64072"/>
    <path class="cls-4" d="M302.43067,16.01677l.0413,20.22472"/>
    <path class="cls-4" d="M302.43067,23.99708c69.58436,0,80.94057,27.03082,77.01709,64.20272-2.064,17.85867-7.43275,37.6499-77.0171,37.6499"/>
    <path class="cls-3" d="M380.12988,83.09435l-3.71549-7.43275a9.31613,9.31613,0,0,0,7.43274,0l-3.71725,7.43275"/>
    <rect class="cls-1" x="260.10083" y="36.04121" width="84.65767" height="12.59756"/>
    <rect class="cls-2" x="260.10083" y="36.04121" width="84.65767" height="12.59756"/>
    <rect class="cls-1" x="260.10083" y="65.74446" width="84.65767" height="12.38885"/>
    <rect class="cls-2" x="260.10083" y="65.74446" width="84.65767" height="12.38885"/>
    <path class="cls-4" d="M302.43069,48.63876l.05357,13.71849"/>
    <path class="cls-3" d="M302.43067,65.74424l3.71549-7.64072a7.8956,7.8956,0,0,1-7.43274,0l3.71726,7.64072"/>
    <path class="cls-4" d="M302.46388,78.13329q-.00606,7.387-.01205,14.774"/>
    <path class="cls-3" d="M302.43054,121.22571,306.146,113.585a7.89622,7.89622,0,0,1-7.43274,0l3.71725,7.64072"/>
    <path class="cls-3" d="M302.47284,36.785l3.7155-7.64073a7.8956,7.8956,0,0,1-7.43274,0l3.71725,7.64073"/>
    <g>
      <path d="M281.04892,39.80627l1.42-.69281h.14286v4.9271a2.73475,2.73475,0,0,0,.03959.611.322.322,0,0,0,.17041.185,1.45589,1.45589,0,0,0,.525.07315V45.069h-2.1946v-.15922a1.46584,1.46584,0,0,0,.53359-.07143.35659.35659,0,0,0,.16868-.167,2.32549,2.32549,0,0,0,.04647-.63084v-3.1499a4.57668,4.57668,0,0,0-.043-.8176.337.337,0,0,0-.11016-.20224.28841.28841,0,0,0-.19106-.06455,1.15277,1.15277,0,0,0-.44236.1334Z"/>
      <path d="M284.53963,41.12733h1.85379v.15922a.39024.39024,0,0,0-.24786.06024.20081.20081,0,0,0-.07057.15922.66959.66959,0,0,0,.15147.31843c.031.04562.07918.11791.14114.21516l.28057.44753.32187-.44753a1.53618,1.53618,0,0,0,.30983-.53789.1931.1931,0,0,0-.07229-.15233.36172.36172,0,0,0-.23754-.06283v-.15922h1.334v.15922a.72711.72711,0,0,0-.36491.11619,2.99751,2.99751,0,0,0-.57662.63686l-.53875.71862.98111,1.41143a2.89812,2.89812,0,0,0,.51638.62568.77269.77269,0,0,0,.401.11877V45.069h-1.85895V44.9141a.47.47,0,0,0,.30122-.08607.19047.19047,0,0,0,.0809-.15921,1.49413,1.49413,0,0,0-.27541-.49917l-.57662-.84341-.6317.84341a1.61826,1.61826,0,0,0-.29261.46474.23974.23974,0,0,0,.09639.18676.46246.46246,0,0,0,.29089.09295V45.069h-1.2875V44.9141a.58491.58491,0,0,0,.272-.10758,3.97044,3.97044,0,0,0,.5508-.63687l.82621-1.0973-.74875-1.08439a2.45662,2.45662,0,0,0-.494-.5835.761.761,0,0,0-.43548-.11791Z"/>
      <path d="M289.86175,39.80627l1.42-.69281h.14287v4.9271a2.73565,2.73565,0,0,0,.03958.611.322.322,0,0,0,.17041.185,1.45589,1.45589,0,0,0,.525.07315V45.069H289.965v-.15922a1.46584,1.46584,0,0,0,.53359-.07143.35659.35659,0,0,0,.16868-.167,2.32486,2.32486,0,0,0,.04648-.63084v-3.1499a4.57668,4.57668,0,0,0-.043-.8176.337.337,0,0,0-.11017-.20224.2884.2884,0,0,0-.19105-.06455,1.15276,1.15276,0,0,0-.44237.1334Z"/>
      <path d="M299.06187,43.57152a2.12416,2.12416,0,0,1-.6231,1.198,1.497,1.497,0,0,1-1.02931.42,1.5206,1.5206,0,0,1-1.17045-.56371,2.21892,2.21892,0,0,1-.49917-1.52331,2.10151,2.10151,0,0,1,.55253-1.51041,1.773,1.773,0,0,1,1.32881-.58092,1.45636,1.45636,0,0,1,.95529.30724.85084.85084,0,0,1,.37352.63945.34686.34686,0,0,1-.105.26421.40648.40648,0,0,1-.29433.10156.45781.45781,0,0,1-.38384-.16352.68254.68254,0,0,1-.09639-.34425.564.564,0,0,0-.17385-.38729.62362.62362,0,0,0-.41827-.12909.85109.85109,0,0,0-.69194.31843,1.69382,1.69382,0,0,0-.34942,1.11452,2.2559,2.2559,0,0,0,.346,1.24532,1.06594,1.06594,0,0,0,.93636.54048,1.13086,1.13086,0,0,0,.75735-.28831,1.94565,1.94565,0,0,0,.4613-.71863Z"/>
      <path d="M301.55425,41.01115a1.74748,1.74748,0,0,1,1.43725.6799,2.09077,2.09077,0,0,1,.45957,1.334,2.519,2.519,0,0,1-.253,1.07148,1.802,1.802,0,0,1-1.692,1.093,1.668,1.668,0,0,1-1.41487-.71,2.19568,2.19568,0,0,1-.44408-1.34258,2.37012,2.37012,0,0,1,.27023-1.07837,1.84233,1.84233,0,0,1,.70744-.79177A1.81833,1.81833,0,0,1,301.55425,41.01115Zm-.13426.2797a.88918.88918,0,0,0-.45785.136.94753.94753,0,0,0-.3718.47507,2.28694,2.28694,0,0,0-.14286.87354A3.05148,3.05148,0,0,0,300.79,44.26a1.01974,1.01974,0,0,0,.90194.624.84083.84083,0,0,0,.6885-.34426,1.95806,1.95806,0,0,0,.27024-1.18336,2.69866,2.69866,0,0,0-.451-1.65241A.93257.93257,0,0,0,301.42,41.29085Z"/>
      <path d="M305.18094,41.846a1.861,1.861,0,0,1,1.32192-.83481.95194.95194,0,0,1,.55424.16094,1.08129,1.08129,0,0,1,.37007.53186,2.44326,2.44326,0,0,1,.09467.79178v1.68253a1.43015,1.43015,0,0,0,.06025.50777.3614.3614,0,0,0,.15319.16782.86025.86025,0,0,0,.389.06025V45.069h-1.94846V44.9141h.0809a.6476.6476,0,0,0,.38556-.08434.43385.43385,0,0,0,.15319-.247,2.67465,2.67465,0,0,0,.01722-.4045V42.56458a1.64574,1.64574,0,0,0-.13943-.78145.50232.50232,0,0,0-.47162-.24269,1.42033,1.42033,0,0,0-1.0207.5594v2.07842a1.4437,1.4437,0,0,0,.04819.49486.38647.38647,0,0,0,.16524.18246,1.01286,1.01286,0,0,0,.42859.05852V45.069h-1.95018V44.9141h.08606a.464.464,0,0,0,.40794-.15319,1.12853,1.12853,0,0,0,.105-.58265V42.71519a6.17639,6.17639,0,0,0-.03271-.86493.37321.37321,0,0,0-.09811-.21085.27325.27325,0,0,0-.179-.05594.82855.82855,0,0,0-.28917.06454l-.06369-.15491,1.18767-.48195h.18418Z"/>
      <path d="M308.23616,41.12733h1.85552v.15922h-.12049a.36561.36561,0,0,0-.25647.08176.28464.28464,0,0,0-.08778.21946.91375.91375,0,0,0,.08951.35716l.91742,2.17739.92088-2.25915a1.08111,1.08111,0,0,0,.09811-.36577.13771.13771,0,0,0-.03443-.099.23413.23413,0,0,0-.12048-.08864,1.19113,1.19113,0,0,0-.29606-.02324v-.15922h1.28578v.15922a.56022.56022,0,0,0-.30983.09037,1.09574,1.09574,0,0,0-.27024.43031l-1.39938,3.38227h-.17557l-1.408-3.32633a1.21021,1.21021,0,0,0-.18073-.33306.7044.7044,0,0,0-.2186-.17041,1.098,1.098,0,0,0-.28918-.07315Z"/>
      <path d="M312.47046,46.53638V46.347a1.40652,1.40652,0,0,0,.68678-.45355,1.0378,1.0378,0,0,0,.24269-.65235.23577.23577,0,0,0-.03786-.1377.08421.08421,0,0,0-.06025-.03873.604.604,0,0,0-.20655.08606.36264.36264,0,0,1-.16352.03873.45065.45065,0,0,1-.33564-.12479.46159.46159,0,0,1-.12565-.34425.47549.47549,0,0,1,.16179-.36147.55419.55419,0,0,1,.39417-.15061.65943.65943,0,0,1,.50433.24786.94293.94293,0,0,1,.222.6558,1.28155,1.28155,0,0,1-.3081.82448A2.03094,2.03094,0,0,1,312.47046,46.53638Z"/>
      <path d="M320.35381,39.11346v.15922a2.83656,2.83656,0,0,0-.92776.22635,2.59084,2.59084,0,0,0-.70916.51809,3.32517,3.32517,0,0,0-.58178.77629,4.6622,4.6622,0,0,0-.38384,1.01812,2.182,2.182,0,0,1,1.24275-.426,1.361,1.361,0,0,1,1.03791.48195,1.7684,1.7684,0,0,1,.43892,1.23931,2.19635,2.19635,0,0,1-.44408,1.334,1.66285,1.66285,0,0,1-1.41143.73154,1.423,1.423,0,0,1-1.01554-.39589,2.62332,2.62332,0,0,1-.8176-1.99666,3.61244,3.61244,0,0,1,.315-1.48889,3.821,3.821,0,0,1,.89678-1.25221,3.315,3.315,0,0,1,1.11709-.73584,2.97016,2.97016,0,0,1,.99317-.18934Zm-2.67655,3.0122a7.42791,7.42791,0,0,0-.07746.93809,2.99919,2.99919,0,0,0,.15319.89677,1.74635,1.74635,0,0,0,.45441.76854.75663.75663,0,0,0,.53359.20225.85818.85818,0,0,0,.66785-.35286,1.52112,1.52112,0,0,0,.296-1.00693,2.63429,2.63429,0,0,0-.29261-1.27373.90954.90954,0,0,0-.83137-.53789,1.03435,1.03435,0,0,0-.35113.06885A3.42972,3.42972,0,0,0,317.67726,42.12566Z"/>
      <path d="M324.91169,42.91744v.611h-.78317V45.069h-.71088V43.52849h-2.47v-.55081l2.70754-3.86422h.47334v3.804Zm-1.49405,0v-2.896l-2.04829,2.896Z"/>
    </g>
    <g>
      <path d="M280.4637,70.02723a2.376,2.376,0,0,1,.63-.91055,1.42917,1.42917,0,0,1,.95013-.32015,1.31186,1.31186,0,0,1,1.07578.45613,1.111,1.111,0,0,1,.284.72637,1.84,1.84,0,0,1-.80038,1.31676,1.73821,1.73821,0,0,1,.81243.60244,1.557,1.557,0,0,1,.2754.92087,1.93446,1.93446,0,0,1-.482,1.31332,2.28,2.28,0,0,1-1.81937.72293,1.54893,1.54893,0,0,1-.80382-.14631.402.402,0,0,1-.21172-.315.28928.28928,0,0,1,.09983-.2186.3462.3462,0,0,1,.24442-.09467.70541.70541,0,0,1,.2186.03443,2.51457,2.51457,0,0,1,.3322.15663,2.0672,2.0672,0,0,0,.3563.1618,1.21694,1.21694,0,0,0,.34081.04648,1.02164,1.02164,0,0,0,.76252-.33909,1.12771,1.12771,0,0,0,.32532-.80555,1.56237,1.56237,0,0,0-.14975-.66268,1.17965,1.17965,0,0,0-.24614-.36491,1.74835,1.74835,0,0,0-.50777-.31155,1.61494,1.61494,0,0,0-.65752-.14114h-.1377v-.12909a1.776,1.776,0,0,0,.68161-.24442,1.314,1.314,0,0,0,.49745-.48712,1.28163,1.28163,0,0,0,.15491-.62309.95424.95424,0,0,0-.27884-.71605.94212.94212,0,0,0-.69023-.27368,1.29882,1.29882,0,0,0-1.11365.71433Z"/>
      <path d="M284.53963,70.8104h1.85379v.15835a.39578.39578,0,0,0-.24786.06025.20255.20255,0,0,0-.07057.16007.67315.67315,0,0,0,.15147.31844c.031.04475.07918.117.14114.21515l.28057.44753.32187-.44753a1.52873,1.52873,0,0,0,.30983-.53875.19145.19145,0,0,0-.07229-.15147.35658.35658,0,0,0-.23754-.06369V70.8104h1.334v.15835a.72784.72784,0,0,0-.36491.11705,2.97527,2.97527,0,0,0-.57662.63686l-.53875.71777.98111,1.41143a2.91162,2.91162,0,0,0,.51638.62653.77259.77259,0,0,0,.401.11877v.15491h-1.85895v-.15491a.47523.47523,0,0,0,.30122-.08606.192.192,0,0,0,.0809-.16008,1.50239,1.50239,0,0,0-.27541-.49916l-.57662-.84342-.6317.84342a1.64306,1.64306,0,0,0-.29261.46474.24129.24129,0,0,0,.09639.18761.46763.46763,0,0,0,.29089.093v.15491h-1.2875v-.15491a.58592.58592,0,0,0,.272-.10844,3.88947,3.88947,0,0,0,.5508-.63686l.82621-1.09644-.74875-1.08439a2.45673,2.45673,0,0,0-.494-.58351.75466.75466,0,0,0-.43548-.11877Z"/>
      <path d="M289.27653,70.02723a2.376,2.376,0,0,1,.63-.91055,1.42917,1.42917,0,0,1,.95013-.32015,1.31189,1.31189,0,0,1,1.07579.45613,1.111,1.111,0,0,1,.284.72637,1.84,1.84,0,0,1-.80038,1.31676,1.73821,1.73821,0,0,1,.81243.60244,1.557,1.557,0,0,1,.2754.92087,1.93442,1.93442,0,0,1-.48195,1.31332,2.28,2.28,0,0,1-1.81937.72293,1.549,1.549,0,0,1-.80382-.14631.402.402,0,0,1-.21172-.315.28929.28929,0,0,1,.09984-.2186.34617.34617,0,0,1,.24441-.09467.70537.70537,0,0,1,.2186.03443,2.51507,2.51507,0,0,1,.33221.15663,2.06651,2.06651,0,0,0,.3563.1618,1.21687,1.21687,0,0,0,.3408.04648,1.02164,1.02164,0,0,0,.76252-.33909,1.12771,1.12771,0,0,0,.32532-.80555,1.56237,1.56237,0,0,0-.14975-.66268,1.17965,1.17965,0,0,0-.24614-.36491,1.74821,1.74821,0,0,0-.50777-.31155,1.61494,1.61494,0,0,0-.65752-.14114h-.1377v-.12909a1.776,1.776,0,0,0,.68162-.24442,1.314,1.314,0,0,0,.49744-.48712,1.28163,1.28163,0,0,0,.15491-.62309.95424.95424,0,0,0-.27884-.71605.9421.9421,0,0,0-.69023-.27368,1.29882,1.29882,0,0,0-1.11365.71433Z"/>
      <path d="M299.06187,73.25458a2.12706,2.12706,0,0,1-.6231,1.198,1.49707,1.49707,0,0,1-1.02931.42A1.51879,1.51879,0,0,1,296.239,74.308a2.21589,2.21589,0,0,1-.49917-1.52331,2.09938,2.09938,0,0,1,.55253-1.50954,1.77378,1.77378,0,0,1,1.32881-.58179,1.45681,1.45681,0,0,1,.95529.30811A.84938.84938,0,0,1,298.95,71.64a.34752.34752,0,0,1-.105.26508.41019.41019,0,0,1-.29433.10155.4602.4602,0,0,1-.38384-.16352.68549.68549,0,0,1-.09639-.34425.56045.56045,0,0,0-.17385-.38728.62357.62357,0,0,0-.41827-.1291.8486.8486,0,0,0-.69194.31844,1.69133,1.69133,0,0,0-.34942,1.11365,2.2568,2.2568,0,0,0,.346,1.24619,1.06771,1.06771,0,0,0,.93636.54047,1.12752,1.12752,0,0,0,.75735-.28917,1.94082,1.94082,0,0,0,.4613-.71776Z"/>
      <path d="M301.55425,70.69335a1.74988,1.74988,0,0,1,1.43725.6799,2.09248,2.09248,0,0,1,.45957,1.334,2.52268,2.52268,0,0,1-.253,1.07234,1.802,1.802,0,0,1-1.692,1.093,1.66876,1.66876,0,0,1-1.41487-.71088,2.19206,2.19206,0,0,1-.44408-1.34258,2.36667,2.36667,0,0,1,.27023-1.0775,1.79442,1.79442,0,0,1,1.63692-1.04825Zm-.13426.28057a.88909.88909,0,0,0-.45785.136.94373.94373,0,0,0-.3718.47506,2.28225,2.28225,0,0,0-.14286.87268,3.05494,3.05494,0,0,0,.34253,1.48544,1.02023,1.02023,0,0,0,.90194.6231.83851.83851,0,0,0,.6885-.34425,1.95332,1.95332,0,0,0,.27024-1.18251,2.69513,2.69513,0,0,0-.451-1.6524A.93257.93257,0,0,0,301.42,70.97392Z"/>
      <path d="M305.18094,71.52816a1.86385,1.86385,0,0,1,1.32192-.83481.95242.95242,0,0,1,.55424.1618,1.07734,1.07734,0,0,1,.37007.53187,2.43968,2.43968,0,0,1,.09467.79178v1.68166a1.42683,1.42683,0,0,0,.06025.50777.36331.36331,0,0,0,.15319.16869.8726.8726,0,0,0,.389.06024v.15491h-1.94846v-.15491h.0809a.6476.6476,0,0,0,.38556-.08434.43333.43333,0,0,0,.15319-.24786,2.66594,2.66594,0,0,0,.01722-.4045V72.24765a1.641,1.641,0,0,0-.13943-.78145.50233.50233,0,0,0-.47162-.2427,1.41727,1.41727,0,0,0-1.0207.55941v2.07755a1.45362,1.45362,0,0,0,.04819.49573.39049.39049,0,0,0,.16524.18245,1.01269,1.01269,0,0,0,.42859.05852v.15491h-1.95018v-.15491h.08606a.46629.46629,0,0,0,.40794-.15319,1.13012,1.13012,0,0,0,.105-.58351V72.3974a6.1605,6.1605,0,0,0-.03271-.86408.3793.3793,0,0,0-.09811-.21171.27778.27778,0,0,0-.179-.05508.825.825,0,0,0-.28917.06369l-.06369-.15492,1.18767-.48195h.18418Z"/>
      <path d="M308.23616,70.8104h1.85552v.15835h-.12049a.36182.36182,0,0,0-.25647.08262.28276.28276,0,0,0-.08778.2186.91388.91388,0,0,0,.08951.358l.91742,2.17739.92088-2.26a1.07752,1.07752,0,0,0,.09811-.3649.13851.13851,0,0,0-.03443-.09984.228.228,0,0,0-.12048-.08778,1.17758,1.17758,0,0,0-.29606-.0241V70.8104h1.28578v.15835a.55946.55946,0,0,0-.30983.09123,1.08934,1.08934,0,0,0-.27024.43031l-1.39938,3.38227h-.17557l-1.408-3.32719a1.20272,1.20272,0,0,0-.18073-.3322.67973.67973,0,0,0-.2186-.1704,1.12445,1.12445,0,0,0-.28918-.074Z"/>
      <path d="M312.47046,76.21858v-.18933a1.39948,1.39948,0,0,0,.68678-.45269,1.04138,1.04138,0,0,0,.24269-.65236.23216.23216,0,0,0-.03786-.1377.08582.08582,0,0,0-.06025-.03959.62353.62353,0,0,0-.20655.08606.36356.36356,0,0,1-.16352.03959.44783.44783,0,0,1-.33564-.12565.46026.46026,0,0,1-.12565-.34425.47808.47808,0,0,1,.16179-.36146.55716.55716,0,0,1,.39417-.14975.65943.65943,0,0,1,.50433.24786.94.94,0,0,1,.222.6558,1.28329,1.28329,0,0,1-.3081.82448A2.03018,2.03018,0,0,1,312.47046,76.21858Z"/>
      <path d="M320.35381,68.79653v.15835a2.85731,2.85731,0,0,0-.92776.22721,2.5731,2.5731,0,0,0-.70916.5181,3.30755,3.30755,0,0,0-.58178.77628,4.67087,4.67087,0,0,0-.38384,1.01727,2.18062,2.18062,0,0,1,1.24275-.42515,1.35813,1.35813,0,0,1,1.03791.48195,1.76544,1.76544,0,0,1,.43892,1.2393,2.2,2.2,0,0,1-.44408,1.334,1.665,1.665,0,0,1-1.41143.73153,1.42662,1.42662,0,0,1-1.01554-.39589,2.62462,2.62462,0,0,1-.8176-1.99666,3.60653,3.60653,0,0,1,.315-1.48888,3.82429,3.82429,0,0,1,.89678-1.25308,3.31127,3.31127,0,0,1,1.11709-.735,2.94859,2.94859,0,0,1,.99317-.18934Zm-2.67655,3.0122a7.41567,7.41567,0,0,0-.07746.93808,2.99919,2.99919,0,0,0,.15319.89677,1.7432,1.7432,0,0,0,.45441.76769.75361.75361,0,0,0,.53359.2031.86073.86073,0,0,0,.66785-.35285,1.5243,1.5243,0,0,0,.296-1.00694,2.63193,2.63193,0,0,0-.29261-1.27373.909.909,0,0,0-.83137-.53875,1.05581,1.05581,0,0,0-.35113.06885A3.45126,3.45126,0,0,0,317.67726,71.80873Z"/>
      <path d="M324.91169,72.6005v.61105h-.78317v1.54052h-.71088V73.21155h-2.47v-.5508l2.70754-3.86422h.47334v3.804Zm-1.49405,0V69.70363l-2.04829,2.89687Z"/>
    </g>
    <g>
      <path d="M311.81294,55.92842v.88644q.49314-.88559,1.01554-.88644a.55117.55117,0,0,1,.39072.14458.44284.44284,0,0,1,.15491.33393.38933.38933,0,0,1-.11188.284.35593.35593,0,0,1-.26679.11533.56457.56457,0,0,1-.33737-.148.55919.55919,0,0,0-.27712-.148.2527.2527,0,0,0-.16868.08606,2.07311,2.07311,0,0,0-.39933.58007v1.88994a1.18913,1.18913,0,0,0,.08089.494.45032.45032,0,0,0,.198.1945.87018.87018,0,0,0,.40966.07746v.15491h-2.019v-.15491a.84469.84469,0,0,0,.44753-.09467.36881.36881,0,0,0,.15147-.22032,2.29175,2.29175,0,0,0,.02066-.41655V57.57222a6.33721,6.33721,0,0,0-.02754-.81932.3201.3201,0,0,0-.10328-.19106.2824.2824,0,0,0-.18762-.06025.85311.85311,0,0,0-.30122.06369l-.043-.15491,1.19283-.48195Z"/>
      <path d="M314.25712,57.52918a2.02625,2.02625,0,0,0,.42515,1.377,1.2981,1.2981,0,0,0,1.0121.49916,1.10046,1.10046,0,0,0,.673-.21171,1.57646,1.57646,0,0,0,.48023-.72981l.13254.08606a2.04961,2.04961,0,0,1-.525,1.07406,1.40253,1.40253,0,0,1-1.08783.48368,1.58736,1.58736,0,0,1-1.21521-.55253,2.12254,2.12254,0,0,1-.50605-1.48716,2.24387,2.24387,0,0,1,.5181-1.57667,1.687,1.687,0,0,1,1.30127-.5663,1.45119,1.45119,0,0,1,1.08956.4372,1.59825,1.59825,0,0,1,.42515,1.167Zm0-.24958h1.82453a1.7046,1.7046,0,0,0-.09123-.53359.85016.85016,0,0,0-.32015-.37867.81216.81216,0,0,0-.44581-.1377.88525.88525,0,0,0-.63858.27884A1.1997,1.1997,0,0,0,314.25712,57.2796Z"/>
      <path d="M318.86148,53.86807v5.22746a1.41677,1.41677,0,0,0,.05336.49056.3916.3916,0,0,0,.16524.18417.96268.96268,0,0,0,.41826.062v.15491h-1.933v-.15491a.82191.82191,0,0,0,.37007-.05681.35515.35515,0,0,0,.15492-.18417,1.42418,1.42418,0,0,0,.0568-.49572V55.51531a6.02975,6.02975,0,0,0-.031-.81931.34632.34632,0,0,0-.09639-.20828.25473.25473,0,0,0-.17041-.0568.83561.83561,0,0,0-.284.06885l-.07229-.14975,1.1739-.48195Z"/>
      <path d="M323.409,56.04546v2.38738a6.15463,6.15463,0,0,0,.0327.83826.38053.38053,0,0,0,.10328.21171.245.245,0,0,0,.16524.06024.771.771,0,0,0,.30122-.07229l.06024.14975-1.17906.48712h-.19278v-.83481a3.62438,3.62438,0,0,1-.77456.69194,1.19054,1.19054,0,0,1-.56458.14287.89909.89909,0,0,1-.57318-.19106.99436.99436,0,0,1-.33908-.494,3.009,3.009,0,0,1-.09467-.852V56.81142a.84459.84459,0,0,0-.06025-.38728.39332.39332,0,0,0-.17728-.16524,1.0517,1.0517,0,0,0-.4286-.05508v-.15836h1.38045v2.637a.9745.9745,0,0,0,.19278.72292.66139.66139,0,0,0,.4613.17213.96248.96248,0,0,0,.42-.11532,2.25978,2.25978,0,0,0,.55769-.44409V56.7856a.63851.63851,0,0,0-.12221-.45441.80589.80589,0,0,0-.51121-.12737v-.15836Z"/>
    </g>
    <g>
      <path d="M311.81294,135.95994v.88645c.32876-.59211.66784-.88645,1.01554-.88645a.55758.55758,0,0,1,.39072.14287.4455.4455,0,0,1,.15491.33392.38937.38937,0,0,1-.11188.284.35762.35762,0,0,1-.26679.11705.56839.56839,0,0,1-.33737-.14975.5591.5591,0,0,0-.27712-.148.26058.26058,0,0,0-.16868.08606,2.08617,2.08617,0,0,0-.39933.58179v1.88821a1.19269,1.19269,0,0,0,.08089.49573.4472.4472,0,0,0,.198.19278.87032.87032,0,0,0,.40966.07745v.15492h-2.019V139.862a.82848.82848,0,0,0,.44753-.09467.36462.36462,0,0,0,.15147-.2186,2.31629,2.31629,0,0,0,.02066-.41826v-1.52676a6.35342,6.35342,0,0,0-.02754-.821.33083.33083,0,0,0-.10328-.19105.29187.29187,0,0,0-.18762-.06025.85909.85909,0,0,0-.30122.06541l-.043-.15491,1.19283-.482Z"/>
      <path d="M314.25712,137.56071a2.02926,2.02926,0,0,0,.42515,1.377,1.30341,1.30341,0,0,0,1.0121.49916,1.10172,1.10172,0,0,0,.673-.21343,1.5765,1.5765,0,0,0,.48023-.72982l.13254.08607a2.04356,2.04356,0,0,1-.525,1.07406,1.40252,1.40252,0,0,1-1.08783.48367,1.58735,1.58735,0,0,1-1.21521-.55252,2.11674,2.11674,0,0,1-.50605-1.48717,2.24678,2.24678,0,0,1,.5181-1.57667,1.69284,1.69284,0,0,1,1.30127-.56629,1.4576,1.4576,0,0,1,1.08956.4372,1.59967,1.59967,0,0,1,.42515,1.16873Zm0-.24958h1.82453a1.69427,1.69427,0,0,0-.09123-.53359.83222.83222,0,0,0-.32015-.37868.79845.79845,0,0,0-.44581-.1377.88333.88333,0,0,0-.63858.27713A1.20044,1.20044,0,0,0,314.25712,137.31113Z"/>
      <path d="M318.86148,133.89788v5.22918a1.43014,1.43014,0,0,0,.05336.49055.38757.38757,0,0,0,.16524.18246.96272.96272,0,0,0,.41826.062v.15492h-1.933V139.862a.85363.85363,0,0,0,.37007-.05508.36644.36644,0,0,0,.15492-.18589,1.41923,1.41923,0,0,0,.0568-.494v-3.58022a6.0629,6.0629,0,0,0-.031-.821.35154.35154,0,0,0-.09639-.20827.263.263,0,0,0-.17041-.05508.7966.7966,0,0,0-.284.06885l-.07229-.15147,1.1739-.482Z"/>
      <path d="M323.409,136.07527v2.3891a6.103,6.103,0,0,0,.0327.83653.3928.3928,0,0,0,.10328.21344.25386.25386,0,0,0,.16524.06024.74687.74687,0,0,0,.30122-.074l.06024.15147-1.17906.48539h-.19278v-.83481a3.59705,3.59705,0,0,1-.77456.69367,1.18868,1.18868,0,0,1-.56458.14114.899.899,0,0,1-.57318-.19106.98964.98964,0,0,1-.33908-.49228,3.02559,3.02559,0,0,1-.09467-.852v-1.76084a.85432.85432,0,0,0-.06025-.38728.40277.40277,0,0,0-.17728-.16525,1.02906,1.02906,0,0,0-.4286-.05335v-.16008h1.38045V138.714a.98.98,0,0,0,.19278.72293.66933.66933,0,0,0,.4613.17213.96715.96715,0,0,0,.42-.11705,2.28682,2.28682,0,0,0,.55769-.44236v-2.23419a.63851.63851,0,0,0-.12221-.45441.80771.80771,0,0,0-.51121-.12565v-.16008Z"/>
    </g>
    <g>
      <path class="cls-5" d="M307.14605,125.76562a4.71539,4.71539,0,1,1-4.88863-4.71226q.08623-.00312.17324-.00313A4.71539,4.71539,0,0,1,307.14605,125.76562Z"/>
      <line class="cls-5" x1="302.43066" y1="130.64916" x2="302.43066" y2="121.05023"/>
      <line class="cls-5" x1="297.71528" y1="125.76562" x2="307.14605" y2="125.76562"/>
    </g>
    <path class="cls-4" d="M302.43069,130.481q.05487,5.35471.10978,10.70939"/>
    <path class="cls-3" d="M302.51919,146.12636l3.71549-7.64072a7.89622,7.89622,0,0,1-7.43274,0l3.71726,7.64072"/>
    <g>
      <path d="M311.81294,84.84552V85.732c.32876-.59211.66784-.88645,1.01554-.88645a.55762.55762,0,0,1,.39072.14286.44552.44552,0,0,1,.15491.33393.38937.38937,0,0,1-.11188.284.35765.35765,0,0,1-.26679.117.56839.56839,0,0,1-.33737-.14975.55919.55919,0,0,0-.27712-.148.2606.2606,0,0,0-.16868.08607,2.08594,2.08594,0,0,0-.39933.58178v1.88822a1.19261,1.19261,0,0,0,.08089.49572.44715.44715,0,0,0,.198.19278.87018.87018,0,0,0,.40966.07746v.15491h-2.019v-.15491a.82848.82848,0,0,0,.44753-.09467.36465.36465,0,0,0,.15147-.2186,2.31652,2.31652,0,0,0,.02066-.41827V86.48932a6.35319,6.35319,0,0,0-.02754-.821.33086.33086,0,0,0-.10328-.19106.29187.29187,0,0,0-.18762-.06024.85886.85886,0,0,0-.30122.06541l-.043-.15492,1.19283-.482Z"/>
      <path d="M314.25712,86.44629a2.02922,2.02922,0,0,0,.42515,1.377,1.30339,1.30339,0,0,0,1.0121.49917,1.10166,1.10166,0,0,0,.673-.21344,1.57641,1.57641,0,0,0,.48023-.72981l.13254.08606a2.04355,2.04355,0,0,1-.525,1.07407,1.40255,1.40255,0,0,1-1.08783.48367,1.58739,1.58739,0,0,1-1.21521-.55252,2.11674,2.11674,0,0,1-.50605-1.48717,2.24677,2.24677,0,0,1,.5181-1.57667,1.69281,1.69281,0,0,1,1.30127-.56629,1.45757,1.45757,0,0,1,1.08956.4372,1.59966,1.59966,0,0,1,.42515,1.16873Zm0-.24958h1.82453a1.69415,1.69415,0,0,0-.09123-.53359.83222.83222,0,0,0-.32015-.37868.79837.79837,0,0,0-.44581-.1377.88336.88336,0,0,0-.63858.27712A1.20049,1.20049,0,0,0,314.25712,86.19671Z"/>
      <path d="M318.86148,82.78346v5.22917a1.43021,1.43021,0,0,0,.05336.49056.38754.38754,0,0,0,.16524.18245.96268.96268,0,0,0,.41826.062v.15491h-1.933v-.15491a.85378.85378,0,0,0,.37007-.05508.36642.36642,0,0,0,.15492-.1859,1.41915,1.41915,0,0,0,.0568-.494V84.43242a6.0628,6.0628,0,0,0-.031-.821.35154.35154,0,0,0-.09639-.20827.263.263,0,0,0-.17041-.05508.79638.79638,0,0,0-.284.06885l-.07229-.15147,1.1739-.48195Z"/>
      <path d="M323.409,84.96084V87.35a6.10316,6.10316,0,0,0,.0327.83653.3928.3928,0,0,0,.10328.21343.25387.25387,0,0,0,.16524.06025.74674.74674,0,0,0,.30122-.074l.06024.15147-1.17906.4854h-.19278V88.1882a3.59705,3.59705,0,0,1-.77456.69367,1.18868,1.18868,0,0,1-.56458.14114.89909.89909,0,0,1-.57318-.19106.98964.98964,0,0,1-.33908-.49228,3.02564,3.02564,0,0,1-.09467-.852V85.7268a.85435.85435,0,0,0-.06025-.38728.40281.40281,0,0,0-.17728-.16524,1.029,1.029,0,0,0-.4286-.05336v-.16008h1.38045v2.63869a.98.98,0,0,0,.19278.72293.66932.66932,0,0,0,.4613.17212.96726.96726,0,0,0,.42-.117,2.28732,2.28732,0,0,0,.55769-.44236V85.701a.63851.63851,0,0,0-.12221-.45441.80784.80784,0,0,0-.51121-.12565v-.16008Z"/>
    </g>
    <path class="cls-4" d="M302.45393,107.82206q.005,4.95149.01,9.903"/>
    <g>
      <path d="M142.25973,7.48968V7.6489a2.83085,2.83085,0,0,0-.92775.22635,2.57793,2.57793,0,0,0-.70916.51809,3.30178,3.30178,0,0,0-.58179.77629,4.662,4.662,0,0,0-.3847,1.01812,2.18249,2.18249,0,0,1,1.24361-.426,1.36064,1.36064,0,0,1,1.03706.482,1.76845,1.76845,0,0,1,.43892,1.23931,2.201,2.201,0,0,1-.44323,1.334,1.66392,1.66392,0,0,1-1.41143.73154,1.42013,1.42013,0,0,1-1.01554-.39589,2.62026,2.62026,0,0,1-.81759-1.99666,3.62531,3.62531,0,0,1,.31413-1.48889,3.83633,3.83633,0,0,1,.89763-1.25221,3.31268,3.31268,0,0,1,1.11623-.73584,2.97487,2.97487,0,0,1,.994-.18934Zm-2.67655,3.0122a7.42791,7.42791,0,0,0-.07746.93809,2.97217,2.97217,0,0,0,.15319.89677,1.75341,1.75341,0,0,0,.45356.76854.758.758,0,0,0,.53358.20225.85971.85971,0,0,0,.66871-.35286,1.52571,1.52571,0,0,0,.2952-1.00693,2.62448,2.62448,0,0,0-.29262-1.27373.90836.90836,0,0,0-.8305-.53789,1.0305,1.0305,0,0,0-.35114.06885A3.39413,3.39413,0,0,0,139.58318,10.50188Z"/>
      <path d="M146.81676,11.29366v.61105h-.78317v1.54052h-.71V11.90471h-2.47V11.3539l2.70667-3.86422h.47335v3.804Zm-1.49319,0v-2.896l-2.0483,2.896Z"/>
      <path d="M147.47944,11.14305h2.22473v.64978h-2.22473Z"/>
      <path d="M153.11656,13.002a2.00368,2.00368,0,0,1-.56372.43289,1.36845,1.36845,0,0,1-.59383.13082,1.46745,1.46745,0,0,1-1.12742-.54048,2.00511,2.00511,0,0,1-.482-1.38733,2.50685,2.50685,0,0,1,.53359-1.55085,1.64734,1.64734,0,0,1,1.3727-.704,1.1814,1.1814,0,0,1,.86063.33134V8.98718a6.13207,6.13207,0,0,0-.03185-.83051.36788.36788,0,0,0-.10155-.21085.26512.26512,0,0,0-.17213-.05594.91111.91111,0,0,0-.29691.06885l-.05594-.15061,1.17475-.48195h.19364v4.557a5.93233,5.93233,0,0,0,.03271.846.365.365,0,0,0,.10327.21257.24467.24467,0,0,0,.16524.06025.92872.92872,0,0,0,.30983-.07316l.04733.15061-1.17045.48626h-.19794Zm0-.30122V10.66971a1.37273,1.37273,0,0,0-.15492-.53359.903.903,0,0,0-.34167-.36405.8415.8415,0,0,0-.41568-.12221.88189.88189,0,0,0-.67559.33995,1.93292,1.93292,0,0,0-.39159,1.30815,2.05543,2.05543,0,0,0,.37868,1.3314,1.084,1.084,0,0,0,.84341.463A1.04865,1.04865,0,0,0,153.11656,12.70079Z"/>
    </g>
    <g>
      <path d="M298.54377,12.32211l-.40966,1.12312H294.6916V13.286a15.47634,15.47634,0,0,0,2.13952-2.26346,2.86164,2.86164,0,0,0,.61965-1.60507,1.26817,1.26817,0,0,0-.34081-.91226,1.08007,1.08007,0,0,0-.81243-.35716,1.26388,1.26388,0,0,0-.77284.25216,1.45718,1.45718,0,0,0-.50605.73756h-.15836a1.98976,1.98976,0,0,1,.55253-1.22209,1.54436,1.54436,0,0,1,1.11193-.426,1.6469,1.6469,0,0,1,1.18594.45614,1.443,1.443,0,0,1,.47507,1.07578,2.083,2.083,0,0,1-.20655.88645,5.80922,5.80922,0,0,1-1.03275,1.476q-1.0715,1.17089-1.33742,1.41143h1.52331a4.09776,4.09776,0,0,0,.65064-.03443.85758.85758,0,0,0,.33908-.14028.90582.90582,0,0,0,.26163-.29864Z"/>
      <path d="M302.735,7.61017l-.33565.73154H300.6437l-.38384.78317a3.06812,3.06812,0,0,1,1.80732.84772,1.90377,1.90377,0,0,1,.57318,1.377,1.96043,1.96043,0,0,1-.18762.852,2.31648,2.31648,0,0,1-.47162.667,2.40165,2.40165,0,0,1-.6317.44322,2.33889,2.33889,0,0,1-1.01554.23668,1.28151,1.28151,0,0,1-.76424-.179.49563.49563,0,0,1-.23925-.39331.27977.27977,0,0,1,.09983-.21258.3474.3474,0,0,1,.24958-.09294.50011.50011,0,0,1,.1945.03442,1.84683,1.84683,0,0,1,.28745.17643,1.13783,1.13783,0,0,0,.65408.22376,1.20605,1.20605,0,0,0,.883-.38126,1.258,1.258,0,0,0,.38212-.92689,1.61973,1.61973,0,0,0-.34081-.98714,2.16335,2.16335,0,0,0-.93808-.7083,3.79044,3.79044,0,0,0-1.27717-.22376l1.11881-2.26776Z"/>
      <path d="M307.26538,7.48968V7.6489a2.83656,2.83656,0,0,0-.92776.22635,2.59069,2.59069,0,0,0-.70916.51809,3.32517,3.32517,0,0,0-.58178.77629,4.6622,4.6622,0,0,0-.38384,1.01812,2.182,2.182,0,0,1,1.24274-.426,1.361,1.361,0,0,1,1.03792.482,1.76845,1.76845,0,0,1,.43892,1.23931,2.1964,2.1964,0,0,1-.44408,1.334,1.66287,1.66287,0,0,1-1.41143.73154,1.423,1.423,0,0,1-1.01554-.39589,2.62332,2.62332,0,0,1-.8176-1.99666,3.61244,3.61244,0,0,1,.315-1.48889,3.82114,3.82114,0,0,1,.89677-1.25221,3.31527,3.31527,0,0,1,1.1171-.73584,2.97016,2.97016,0,0,1,.99316-.18934Zm-2.67656,3.0122a7.42948,7.42948,0,0,0-.07745.93809,2.99888,2.99888,0,0,0,.15319.89677,1.74635,1.74635,0,0,0,.45441.76854.75663.75663,0,0,0,.53359.20225.8582.8582,0,0,0,.66785-.35286,1.52112,1.52112,0,0,0,.29605-1.00693,2.63429,2.63429,0,0,0-.29261-1.27373.90955.90955,0,0,0-.83137-.53789,1.0343,1.0343,0,0,0-.35113.06885A3.43013,3.43013,0,0,0,304.58882,10.50188Z"/>
      <path d="M308.07953,11.14305h2.22386v.64978h-2.22386Z"/>
      <path d="M313.71664,13.002a2.00621,2.00621,0,0,1-.56457.43289,1.363,1.363,0,0,1-.59383.13082,1.46874,1.46874,0,0,1-1.12742-.54048,2.00919,2.00919,0,0,1-.482-1.38733,2.51217,2.51217,0,0,1,.53359-1.55085,1.65,1.65,0,0,1,1.37357-.704,1.18413,1.18413,0,0,1,.86062.33134V8.98718a6.0697,6.0697,0,0,0-.0327-.83051.36273.36273,0,0,0-.10155-.21085.26351.26351,0,0,0-.17213-.05594.90705.90705,0,0,0-.29606.06885l-.0568-.15061,1.17562-.48195h.19278v4.557a5.93233,5.93233,0,0,0,.03271.846.365.365,0,0,0,.10327.21257.24623.24623,0,0,0,.16524.06025.92878.92878,0,0,0,.30983-.07316l.04819.15061-1.17045.48626h-.19795Zm0-.30122V10.66971a1.37272,1.37272,0,0,0-.15491-.53359.90493.90493,0,0,0-.34253-.36405.841.841,0,0,0-.41482-.12221.8822.8822,0,0,0-.67645.33995,1.93732,1.93732,0,0,0-.39073,1.30815,2.05044,2.05044,0,0,0,.37868,1.3314,1.08277,1.08277,0,0,0,.84341.463A1.05155,1.05155,0,0,0,313.71664,12.70079Z"/>
    </g>
  </g>
  <g>
    <path d="M124.57327,133.88318a2.35471,2.35471,0,0,1,1.13924.51783,1.6115,1.6115,0,0,1,.52215,1.2126,1.79979,1.79979,0,0,1-.34522,1.04431,1.97281,1.97281,0,0,1-.94721.72928,5.5276,5.5276,0,0,1-1.83616.22871h-3.45224v-.20066H119.93a.74245.74245,0,0,0,.65808-.29128,1.68687,1.68687,0,0,0,.123-.80265v-4.72525a1.49509,1.49509,0,0,0-.15536-.85875A.7959.7959,0,0,0,119.93,130.5h-.27618v-.1985h3.161a6.245,6.245,0,0,1,1.41973.12945,2.26334,2.26334,0,0,1,1.23418.6883,1.6783,1.6783,0,0,1,.42721,1.13492,1.57326,1.57326,0,0,1-.33443.98389A1.97063,1.97063,0,0,1,124.57327,133.88318Zm-2.82652-.29129c.13377.02374.28481.04316.45526.0561.17261.013.36033.01942.56531.01942a3.11871,3.11871,0,0,0,1.18239-.17045,1.26541,1.26541,0,0,0,.60846-.52,1.466,1.466,0,0,0,.20929-.766,1.40239,1.40239,0,0,0-.52215-1.09609,2.27367,2.27367,0,0,0-1.52762-.45311,3.73983,3.73983,0,0,0-.97094.11867Zm0,3.4954a5.44315,5.44315,0,0,0,1.23633.14456,2.241,2.241,0,0,0,1.48878-.438,1.37931,1.37931,0,0,0,.51136-1.08746,1.6,1.6,0,0,0-.23086-.81991,1.5621,1.5621,0,0,0-.75518-.6214,3.26639,3.26639,0,0,0-1.29459-.22655c-.2244,0-.41427.00431-.57178.01079a2.87865,2.87865,0,0,0-.38406.03883Z"/>
    <path d="M129.98466,136.90389a8.513,8.513,0,0,1-.95584.67966,1.47963,1.47963,0,0,1-.61925.13377,1.11625,1.11625,0,0,1-.84579-.34954,1.29457,1.29457,0,0,1-.33013-.92347,1.18008,1.18008,0,0,1,.16183-.62572,2.14384,2.14384,0,0,1,.76812-.69045,12.03732,12.03732,0,0,1,1.82106-.78754v-.19419a1.619,1.619,0,0,0-.23518-1.0141.84787.84787,0,0,0-.68182-.274.76063.76063,0,0,0-.53941.1834.543.543,0,0,0-.205.42074l.01079.31286a.537.537,0,0,1-.1273.38191.43108.43108,0,0,1-.33228.13593.42274.42274,0,0,1-.32581-.14025.55726.55726,0,0,1-.1273-.38406,1.10906,1.10906,0,0,1,.47468-.85227,2.0542,2.0542,0,0,1,1.33343-.38838,2.29465,2.29465,0,0,1,1.07883.22224,1.00409,1.00409,0,0,1,.46821.52215,2.95746,2.95746,0,0,1,.09709.94937v1.67865a7.21223,7.21223,0,0,0,.028.86522.36656.36656,0,0,0,.08847.21361.21655.21655,0,0,0,.1424.05394.28615.28615,0,0,0,.151-.03884,3.20486,3.20486,0,0,0,.438-.39269v.30207q-.60522.80912-1.15434.80912a.52714.52714,0,0,1-.42075-.1834A.97692.97692,0,0,1,129.98466,136.90389Zm0-.3517v-1.88147a11.27868,11.27868,0,0,0-1.05293.45742,1.82839,1.82839,0,0,0-.60846.49626.95733.95733,0,0,0-.1834.56746.93456.93456,0,0,0,.23087.64514.70325.70325,0,0,0,.53509.2546A1.95838,1.95838,0,0,0,129.98466,136.55219Z"/>
    <path d="M135.28169,132.52817v1.683h-.17908a2.19071,2.19071,0,0,0-.52431-1.07883,1.19126,1.19126,0,0,0-.81775-.28481.91159.91159,0,0,0-.61062.19851.5832.5832,0,0,0-.23086.44232.78977.78977,0,0,0,.17261.51783,1.88254,1.88254,0,0,0,.67966.47037l.78754.3819a1.60176,1.60176,0,0,1,1.09393,1.409,1.32993,1.32993,0,0,1-.50921,1.08746,1.77224,1.77224,0,0,1-1.14139.41211,3.92374,3.92374,0,0,1-1.03568-.16183,1.02634,1.02634,0,0,0-.29128-.05394.21382.21382,0,0,0-.19419.14025h-.17693v-1.765h.17693a2.01181,2.01181,0,0,0,.57825,1.13924,1.39113,1.39113,0,0,0,.95368.38191.85575.85575,0,0,0,.60846-.21793.69472.69472,0,0,0,.233-.52646.83722.83722,0,0,0-.26108-.62572,4.60019,4.60019,0,0,0-1.0443-.64082,3.13082,3.13082,0,0,1-1.02488-.70124,1.21443,1.21443,0,0,1-.24166-.77676,1.3652,1.3652,0,0,1,.41858-1.02056,1.48317,1.48317,0,0,1,1.081-.41,2.48552,2.48552,0,0,1,.70555.12515,1.65232,1.65232,0,0,0,.3668.07983.22622.22622,0,0,0,.13593-.03668.53646.53646,0,0,0,.1122-.1683Z"/>
    <path d="M138.091,132.52817v3.97008a1.88222,1.88222,0,0,0,.06688.61925.48557.48557,0,0,0,.20066.22871,1.07828,1.07828,0,0,0,.48332.07551v.19419h-2.40147v-.19419a1.09777,1.09777,0,0,0,.48547-.0712.45844.45844,0,0,0,.19635-.23087,1.71908,1.71908,0,0,0,.07336-.6214V134.5952a6.80221,6.80221,0,0,0-.04747-1.04214.4295.4295,0,0,0-.11867-.2395.33341.33341,0,0,0-.22224-.06689,1.08533,1.08533,0,0,0-.3668.07983l-.07552-.19419,1.48878-.60414Zm-.44664-2.58271a.54515.54515,0,0,1,.54373.54373.52763.52763,0,0,1-.15967.38838.51672.51672,0,0,1-.38406.16182.5525.5525,0,0,1-.5502-.5502.521.521,0,0,1,.15751-.38406A.5305.5305,0,0,1,137.64432,129.94546Z"/>
    <path d="M143.65338,135.73876a2.68137,2.68137,0,0,1-.78323,1.50172,1.87543,1.87543,0,0,1-1.28811.52647,1.90067,1.90067,0,0,1-1.46721-.70771,2.76722,2.76722,0,0,1-.62572-1.90952,2.63163,2.63163,0,0,1,.69261-1.89226,2.21561,2.21561,0,0,1,1.66355-.72929,1.82615,1.82615,0,0,1,1.19749.38622,1.068,1.068,0,0,1,.47037.80049.44354.44354,0,0,1-.13161.33228.51618.51618,0,0,1-.37112.1273.57535.57535,0,0,1-.479-.205.83772.83772,0,0,1-.12083-.43153.70391.70391,0,0,0-.22008-.48547.77561.77561,0,0,0-.52215-.16182,1.06793,1.06793,0,0,0-.86953.39916,2.1193,2.1193,0,0,0-.43585,1.396,2.82894,2.82894,0,0,0,.43369,1.56214,1.33349,1.33349,0,0,0,1.17376.6775,1.41739,1.41739,0,0,0,.94937-.36248,2.43334,2.43334,0,0,0,.57609-.89974Z"/>
    <path d="M149.11655,133.88318a2.35471,2.35471,0,0,1,1.13924.51783,1.6115,1.6115,0,0,1,.52215,1.2126,1.79979,1.79979,0,0,1-.34522,1.04431,1.97281,1.97281,0,0,1-.94721.72928,5.52756,5.52756,0,0,1-1.83616.22871h-3.45224v-.20066h.27618a.74242.74242,0,0,0,.65808-.29128,1.68687,1.68687,0,0,0,.123-.80265v-4.72525a1.4952,1.4952,0,0,0-.15535-.85875.79592.79592,0,0,0-.62572-.23734h-.27618v-.1985h3.161a6.245,6.245,0,0,1,1.41973.12945,2.26331,2.26331,0,0,1,1.23418.6883,1.6783,1.6783,0,0,1,.42721,1.13492,1.5732,1.5732,0,0,1-.33443.98389A1.97063,1.97063,0,0,1,149.11655,133.88318Zm-2.82652-.29129c.13377.02374.28481.04316.45526.0561.17262.013.36033.01942.56531.01942a3.11871,3.11871,0,0,0,1.18239-.17045,1.26541,1.26541,0,0,0,.60846-.52,1.46592,1.46592,0,0,0,.20929-.766,1.40239,1.40239,0,0,0-.52215-1.09609,2.27367,2.27367,0,0,0-1.52762-.45311,3.73988,3.73988,0,0,0-.97094.11867Zm0,3.4954a5.44315,5.44315,0,0,0,1.23633.14456,2.24091,2.24091,0,0,0,1.48878-.438,1.37932,1.37932,0,0,0,.51137-1.08746,1.60005,1.60005,0,0,0-.23087-.81991,1.56206,1.56206,0,0,0-.75518-.6214,3.26639,3.26639,0,0,0-1.29459-.22655c-.2244,0-.41427.00431-.57178.01079a2.87883,2.87883,0,0,0-.38406.03883Z"/>
    <path d="M153.42754,129.94546v6.55279a1.77605,1.77605,0,0,0,.06689.61493.49091.49091,0,0,0,.20713.23087,1.20692,1.20692,0,0,0,.52431.07767v.19419h-2.423v-.19419a1.0304,1.0304,0,0,0,.46389-.0712.44515.44515,0,0,0,.19419-.23087,1.785,1.785,0,0,0,.0712-.6214v-4.48791a7.55827,7.55827,0,0,0-.03883-1.02705.434.434,0,0,0-.12083-.26107.31923.31923,0,0,0-.21361-.07121,1.04727,1.04727,0,0,0-.356.08631l-.09062-.18771,1.47152-.60415Z"/>
    <path d="M157.21422,132.52817a2.19352,2.19352,0,0,1,1.80164.85227,2.623,2.623,0,0,1,.57609,1.67218,3.16228,3.16228,0,0,1-.31718,1.34422,2.25892,2.25892,0,0,1-2.121,1.37011,2.09187,2.09187,0,0,1-1.77359-.89111,2.74792,2.74792,0,0,1-.55667-1.683,2.96673,2.96673,0,0,1,.33875-1.35069,2.24936,2.24936,0,0,1,2.05193-1.314Zm-.1683.3517a1.1146,1.1146,0,0,0-.57393.17045,1.183,1.183,0,0,0-.46606.59551,2.86069,2.86069,0,0,0-.17908,1.09393,3.82957,3.82957,0,0,0,.42937,1.86206,1.2789,1.2789,0,0,0,1.13061.78107,1.05112,1.05112,0,0,0,.86306-.43153,2.44854,2.44854,0,0,0,.33875-1.48231,3.3785,3.3785,0,0,0-.5653-2.07135A1.169,1.169,0,0,0,157.04592,132.87987Z"/>
    <path d="M164.51787,135.73876a2.68144,2.68144,0,0,1-.78323,1.50172,1.87546,1.87546,0,0,1-1.28812.52647,1.90065,1.90065,0,0,1-1.4672-.70771,2.76718,2.76718,0,0,1-.62572-1.90952,2.63163,2.63163,0,0,1,.69261-1.89226,2.21559,2.21559,0,0,1,1.66355-.72929,1.82617,1.82617,0,0,1,1.19749.38622,1.068,1.068,0,0,1,.47037.80049.44351.44351,0,0,1-.13162.33228.51615.51615,0,0,1-.37111.1273.57535.57535,0,0,1-.479-.205.83772.83772,0,0,1-.12083-.43153.704.704,0,0,0-.22008-.48547.77561.77561,0,0,0-.52215-.16182,1.068,1.068,0,0,0-.86954.39916,2.11935,2.11935,0,0,0-.43584,1.396,2.82894,2.82894,0,0,0,.43369,1.56214,1.33348,1.33348,0,0,0,1.17376.6775,1.41739,1.41739,0,0,0,.94937-.36248,2.43334,2.43334,0,0,0,.57609-.89974Z"/>
    <path d="M166.68631,129.94546v4.913l1.25575-1.14355a4.00766,4.00766,0,0,0,.46389-.4639.22138.22138,0,0,0,.04316-.12945.24238.24238,0,0,0-.08847-.18556.483.483,0,0,0-.29344-.08847v-.17261h2.14687v.17261a2.04073,2.04073,0,0,0-.73792.13378,2.44131,2.44131,0,0,0-.643.44232l-1.2687,1.1716,1.2687,1.601a10.91361,10.91361,0,0,0,.712.84148,1.47041,1.47041,0,0,0,.45311.33012,1.43967,1.43967,0,0,0,.46821.05394v.19419H168.0672v-.19419a.49129.49129,0,0,0,.27618-.06257.18637.18637,0,0,0,.07336-.15966.827.827,0,0,0-.21576-.39917l-1.51467-1.93541v1.63981a1.84822,1.84822,0,0,0,.06688.63.42242.42242,0,0,0,.192.21576,1.446,1.446,0,0,0,.53942.0712v.19419H164.971v-.19419a1.32061,1.32061,0,0,0,.56531-.09277.37671.37671,0,0,0,.17261-.1834,1.63124,1.63124,0,0,0,.082-.61494v-4.4987a7.80967,7.80967,0,0,0-.03884-1.04862.448.448,0,0,0-.123-.26323.33668.33668,0,0,0-.22656-.07336,1.03414,1.03414,0,0,0-.3409.09062l-.09063-.18771,1.46721-.60415Z"/>
  </g>
  <g>
    <path d="M283.813,156.41015a2.33649,2.33649,0,0,1,1.13708.51784,1.6058,1.6058,0,0,1,.52431,1.2126,1.79986,1.79986,0,0,1-.34522,1.0443,1.9829,1.9829,0,0,1-.94721.72928,5.47928,5.47928,0,0,1-1.83616.22872h-3.45225v-.19851h.274a.74521.74521,0,0,0,.66024-.29344,1.68686,1.68686,0,0,0,.123-.80264V154.123a1.4768,1.4768,0,0,0-.15751-.85875.78983.78983,0,0,0-.62571-.23734h-.274v-.1985h3.161a6.27047,6.27047,0,0,1,1.41974.12946,2.27117,2.27117,0,0,1,1.23417.68829,1.68224,1.68224,0,0,1,.42722,1.13492,1.56248,1.56248,0,0,1-.33659.98389A1.95455,1.95455,0,0,1,283.813,156.41015Zm-2.82652-.29128a4.03752,4.03752,0,0,0,.45526.0561c.17045.01294.35817.01941.5653.01941a3.1186,3.1186,0,0,0,1.1824-.17045,1.2753,1.2753,0,0,0,.60846-.52,1.48083,1.48083,0,0,0,.20929-.766,1.39685,1.39685,0,0,0-.52431-1.09393,2.26361,2.26361,0,0,0-1.52546-.45311,3.7196,3.7196,0,0,0-.97094.11652Zm0,3.49539a5.42848,5.42848,0,0,0,1.23633.14456,2.22924,2.22924,0,0,0,1.48878-.438,1.37931,1.37931,0,0,0,.51136-1.08746,1.60569,1.60569,0,0,0-.23087-.8199,1.5586,1.5586,0,0,0-.75517-.61925,3.26436,3.26436,0,0,0-1.29459-.22871c-.2244,0-.41427.00432-.57394.013a2.934,2.934,0,0,0-.3819.03668Z"/>
    <path d="M288.84033,155.05514a2.18658,2.18658,0,0,1,1.80163.85443,2.61283,2.61283,0,0,1,.5761,1.67,3.15494,3.15494,0,0,1-.31718,1.34421,2.25888,2.25888,0,0,1-2.121,1.37011,2.098,2.098,0,0,1-1.77359-.889,2.757,2.757,0,0,1-.55667-1.683,3.003,3.003,0,0,1,.33875-1.35285,2.24933,2.24933,0,0,1,2.05193-1.314Zm-.1683.3517a1.11455,1.11455,0,0,0-.57394.17046,1.183,1.183,0,0,0-.466.59551,2.87587,2.87587,0,0,0-.17693,1.09608,3.82643,3.82643,0,0,0,.42722,1.8599,1.2752,1.2752,0,0,0,1.13061.78107,1.04828,1.04828,0,0,0,.86306-.43153,2.44665,2.44665,0,0,0,.34091-1.48231,3.3786,3.3786,0,0,0-.56746-2.07134A1.16627,1.16627,0,0,0,288.672,155.40684Z"/>
    <path d="M293.38218,153.57931v1.62255h1.15434v.37759h-1.15434v3.20412a1.0704,1.0704,0,0,0,.13809.64729.43326.43326,0,0,0,.3517.1683.61415.61415,0,0,0,.34522-.1122.69513.69513,0,0,0,.25892-.32581h.21145a1.69433,1.69433,0,0,1-.5351.79618,1.15323,1.15323,0,0,1-.712.26755.96323.96323,0,0,1-.48332-.13809.83543.83543,0,0,1-.35169-.39485,2.05919,2.05919,0,0,1-.11436-.7897v-3.32279H291.71v-.17908a1.99131,1.99131,0,0,0,.6063-.40132,3.22582,3.22582,0,0,0,.55452-.671,6.348,6.348,0,0,0,.34522-.74871Z"/>
    <path d="M296.45036,153.57931v1.62255h1.15434v.37759h-1.15434v3.20412a1.0704,1.0704,0,0,0,.13809.64729.43326.43326,0,0,0,.3517.1683.61415.61415,0,0,0,.34522-.1122.69513.69513,0,0,0,.25892-.32581h.21145a1.69433,1.69433,0,0,1-.5351.79618,1.15323,1.15323,0,0,1-.712.26755.96323.96323,0,0,1-.48332-.13809.83543.83543,0,0,1-.35169-.39485,2.05919,2.05919,0,0,1-.11436-.7897v-3.32279h-.78107v-.17908a1.99131,1.99131,0,0,0,.6063-.40132,3.22582,3.22582,0,0,0,.55452-.671,6.348,6.348,0,0,0,.34522-.74871Z"/>
    <path d="M299.78609,152.47244v6.55278a1.79955,1.79955,0,0,0,.06689.61709.48587.48587,0,0,0,.20713.22871,1.20019,1.20019,0,0,0,.52431.07768v.19419h-2.423v-.19419a1.07015,1.07015,0,0,0,.46389-.06905.48105.48105,0,0,0,.19419-.233,1.8,1.8,0,0,0,.06905-.62141v-4.48791a7.72021,7.72021,0,0,0-.03668-1.027.45362.45362,0,0,0-.12083-.26108.31923.31923,0,0,0-.21361-.0712,1.04745,1.04745,0,0,0-.356.0863l-.09278-.18771,1.47368-.60414Z"/>
    <path d="M301.98689,157.06176a2.54,2.54,0,0,0,.53294,1.72612,1.62718,1.62718,0,0,0,1.2687.62572,1.37941,1.37941,0,0,0,.84364-.26539,1.97618,1.97618,0,0,0,.602-.91485l.1683.10789a2.58926,2.58926,0,0,1-.66024,1.34637,1.75815,1.75815,0,0,1-1.36364.6063,1.99306,1.99306,0,0,1-1.5233-.6926,2.65339,2.65339,0,0,1-.63435-1.86422,2.81273,2.81273,0,0,1,.64945-1.9764,2.12334,2.12334,0,0,1,1.63334-.70987,1.82561,1.82561,0,0,1,1.36364.548,2.00468,2.00468,0,0,1,.5351,1.46289Zm0-.3107H304.274a2.06239,2.06239,0,0,0-.11435-.66887,1.04322,1.04322,0,0,0-.40132-.47469.99412.99412,0,0,0-.55668-.17261,1.10844,1.10844,0,0,0-.80264.34738A1.50485,1.50485,0,0,0,301.98689,156.75106Z"/>
    <path d="M307.49969,156.10376a2.32987,2.32987,0,0,1,1.65492-1.04862,1.20088,1.20088,0,0,1,.69692.20282,1.35819,1.35819,0,0,1,.46174.66672,3.04692,3.04692,0,0,1,.12083.99252v2.108a1.81727,1.81727,0,0,0,.07336.63867.45066.45066,0,0,0,.192.20929,1.105,1.105,0,0,0,.48979.07552v.19419h-2.44462v-.19419h.10141a.81177.81177,0,0,0,.48331-.10573.54457.54457,0,0,0,.192-.30854,3.10713,3.10713,0,0,0,.02158-.50921V157.0035a2.06306,2.06306,0,0,0-.17477-.97957.62751.62751,0,0,0-.5912-.30423,1.77278,1.77278,0,0,0-1.27733.70124v2.60428a1.897,1.897,0,0,0,.05826.62141.48954.48954,0,0,0,.20713.22871,1.26958,1.26958,0,0,0,.53726.07336v.19419h-2.44246v-.19419h.10788a.5826.5826,0,0,0,.50921-.192,1.39438,1.39438,0,0,0,.13161-.73145v-1.834a7.74574,7.74574,0,0,0-.041-1.08314.44724.44724,0,0,0-.123-.26324.33718.33718,0,0,0-.22439-.0712,1.06352,1.06352,0,0,0-.36033.07984l-.082-.19419,1.48878-.60415h.233Z"/>
    <path d="M312.41266,157.06176a2.54,2.54,0,0,0,.53294,1.72612,1.62718,1.62718,0,0,0,1.2687.62572,1.37946,1.37946,0,0,0,.84365-.26539,1.97625,1.97625,0,0,0,.602-.91485l.1683.10789a2.58926,2.58926,0,0,1-.66024,1.34637,1.75815,1.75815,0,0,1-1.36364.6063,1.99306,1.99306,0,0,1-1.5233-.6926,2.65339,2.65339,0,0,1-.63435-1.86422,2.81273,2.81273,0,0,1,.64945-1.9764,2.12334,2.12334,0,0,1,1.63334-.70987,1.82561,1.82561,0,0,1,1.36364.548,2.00468,2.00468,0,0,1,.5351,1.46289Zm0-.3107h2.28712a2.06261,2.06261,0,0,0-.11436-.66887,1.04322,1.04322,0,0,0-.40132-.47469.99412.99412,0,0,0-.55668-.17261,1.10844,1.10844,0,0,0-.80264.34738A1.50485,1.50485,0,0,0,312.41266,156.75106Z"/>
    <path d="M320.68078,158.26573a2.67416,2.67416,0,0,1-.78322,1.50172,1.87546,1.87546,0,0,1-1.28812.52647,1.90061,1.90061,0,0,1-1.4672-.70771,2.77562,2.77562,0,0,1-.62572-1.90736,2.637,2.637,0,0,1,.6926-1.89442,2.22019,2.22019,0,0,1,1.66571-.72929,1.82016,1.82016,0,0,1,1.19534.38622,1.06151,1.06151,0,0,1,.47037.80049.43562.43562,0,0,1-.13162.33228.5142.5142,0,0,1-.369.1273.57688.57688,0,0,1-.48115-.205.85933.85933,0,0,1-.12083-.43153.71137.71137,0,0,0-.21793-.48548.78557.78557,0,0,0-.5243-.16182,1.07417,1.07417,0,0,0-.86954.39917,2.13119,2.13119,0,0,0-.43584,1.396,2.829,2.829,0,0,0,.43368,1.56214,1.336,1.336,0,0,0,1.17377.6775,1.41737,1.41737,0,0,0,.94936-.36249,2.38794,2.38794,0,0,0,.5761-.89974Z"/>
    <path d="M322.85138,152.47244v4.913l1.25575-1.14356a4.2842,4.2842,0,0,0,.4639-.46173.23775.23775,0,0,0,.04315-.12946.24343.24343,0,0,0-.08846-.18772.483.483,0,0,0-.29344-.08846v-.17262h2.1447v.17262a2.03719,2.03719,0,0,0-.73576.13377,2.41063,2.41063,0,0,0-.64513.44448l-1.26654,1.16944,1.26654,1.601q.53078.66672.712.84149a1.43508,1.43508,0,0,0,.45311.33012,1.40468,1.40468,0,0,0,.47037.05394v.19419h-2.39931v-.19419a.49148.49148,0,0,0,.27618-.06257.185.185,0,0,0,.07336-.15751.83073.83073,0,0,0-.21577-.40133l-1.51467-1.93541v1.63982a1.872,1.872,0,0,0,.06689.63219.43112.43112,0,0,0,.192.21576,1.46064,1.46064,0,0,0,.53941.06905v.19419h-2.51582v-.19419a1.36448,1.36448,0,0,0,.56746-.09062.39106.39106,0,0,0,.17262-.18556,1.62825,1.62825,0,0,0,.07983-.61277v-4.50087a8.00442,8.00442,0,0,0-.03668-1.04861.46121.46121,0,0,0-.123-.26324.33876.33876,0,0,0-.22871-.07336,1.03813,1.03813,0,0,0-.33875.09062l-.09278-.18771,1.4672-.60414Z"/>
  </g>
</svg>
