<svg id="图层_1" data-name="图层 1" xmlns="http://www.w3.org/2000/svg" xmlns:xlink="http://www.w3.org/1999/xlink" viewBox="0 0 560.00126 202.24204">
  <defs>
    <style>
      .cls-1 {
        fill: none;
      }

      .cls-2 {
        fill: #77787c;
      }

      .cls-3 {
        fill: #fff;
      }

      .cls-4 {
        fill: #828184;
      }

      .cls-5 {
        fill: #47484a;
      }

      .cls-6 {
        fill: gray;
      }

      .cls-7 {
        fill: #ee2c36;
      }

      .cls-8 {
        fill: #c4c4c5;
      }

      .cls-9 {
        fill: #b9b9bb;
      }

      .cls-10 {
        fill: #6fbe44;
      }

      .cls-11 {
        fill: #75bce8;
      }

      .cls-12 {
        clip-path: url(#clip-path);
      }

      .cls-13 {
        fill: #7cc466;
      }

      .cls-14 {
        fill: #85a743;
      }

      .cls-15 {
        fill: #60ab54;
      }

      .cls-16 {
        fill: #65a355;
      }

      .cls-17 {
        fill: #ee2d40;
      }

      .cls-18 {
        fill: #ee2c3a;
      }

      .cls-19 {
        fill: #ee3788;
      }
    </style>
    <clipPath id="clip-path">
      <path id="SVGID" class="cls-1" d="M247.91649,146.45735l-55.83438-.01358-4.7-26.60463L248.4574,146.189l-.54091.26839m-51.15627,25.07584-.26733-.11593-.04385-.2485.31118.36443m.39471.16915-.284-.12109,15.94419-7.6667-15.66016,7.78779m30.26459-12.90652a.21564.21564,0,1,0,0,.43128h1.03692a.21564.21564,0,1,0,0-.43128h-1.03692m2.07381,0a.21564.21564,0,1,0,0,.43128h1.038a.21564.21564,0,1,0,0-.43128h-1.038m2.07487,0a.21564.21564,0,1,0,0,.43128h1.03692a.21564.21564,0,1,0,0-.43128H231.5682m2.07381,0a.21564.21564,0,0,0,0,.43128h1.03692a.21564.21564,0,1,0,0-.43128H233.642m2.07384,0a.21564.21564,0,0,0,0,.43128h1.03794a.21564.21564,0,1,0,0-.43128h-1.03794m2.07486,0a.21564.21564,0,1,0,0,.43128h1.03689a.21564.21564,0,1,0,0-.43128h-1.03689m2.07381,0a.21564.21564,0,0,0,0,.43128h1.03794a.21564.21564,0,1,0,0-.43128h-1.03794m2.07486,0a.21564.21564,0,1,0,0,.43128h1.03693a.21564.21564,0,1,0,0-.43128h-1.03693m2.07381,0a.21564.21564,0,1,0,0,.43128h1.03693a.21564.21564,0,1,0,0-.43128h-1.03693m2.07382,0a.21564.21564,0,1,0,0,.43128h1.038a.21564.21564,0,1,0,0-.43128h-1.038m12.01061,39.19893-40.76213-17.5857c.01673-.3759.03655-.74454.06058-1.10164-.25583.25793-.52.52-.79674.78418l-17.972-7.75331,26.54195-13.2a.21661.21661,0,0,0,.17648.08878h1.03689a.21564.21564,0,1,0,0-.43128h-.52418l23.27144-11.57411,8.96776,50.773"/>
    </clipPath>
  </defs>
  <title>[OPTSx0052]_Schematic_Diagrams_of_Transmittance_Analysis_of_On-State</title>
  <g>
    <polyline class="cls-2" points="218.644 82.172 207.817 92.999 196.99 82.171 207.817 71.345 218.644 82.172"/>
    <polyline class="cls-3" points="218.644 82.172 218.415 81.943 207.817 92.541 197.449 82.171 207.817 71.804 218.415 82.401 218.644 82.172 218.415 81.943 218.644 82.172 218.874 81.943 207.817 70.887 196.532 82.171 207.817 93.457 219.101 82.172 218.874 81.943 218.644 82.172"/>
    <polyline class="cls-2" points="218.644 38.864 207.817 49.691 196.99 38.864 207.817 28.038 218.644 38.864"/>
    <polyline class="cls-3" points="218.644 38.864 218.415 38.634 207.817 49.232 197.449 38.864 207.817 28.495 218.415 39.094 218.644 38.864 218.415 38.634 218.644 38.864 218.874 38.634 207.817 27.578 196.532 38.864 207.817 50.15 219.101 38.864 218.874 38.634 218.644 38.864"/>
    <polyline class="cls-2" points="196.99 60.518 186.163 71.345 175.336 60.517 186.163 49.691 196.99 60.518"/>
    <polyline class="cls-3" points="196.99 60.518 196.761 60.289 186.163 70.887 175.794 60.517 186.163 50.15 196.761 60.747 196.99 60.518 196.761 60.289 196.99 60.518 197.219 60.289 186.163 49.232 174.878 60.517 186.163 71.804 197.448 60.518 197.219 60.289 196.99 60.518"/>
    <polyline class="cls-2" points="240.297 60.518 229.47 71.345 218.643 60.517 229.47 49.691 240.297 60.518"/>
    <polyline class="cls-3" points="240.297 60.518 240.068 60.289 229.47 70.887 219.101 60.517 229.47 50.15 240.068 60.747 240.297 60.518 240.068 60.289 240.297 60.518 240.526 60.289 229.47 49.232 218.184 60.517 229.47 71.804 240.755 60.518 240.526 60.289 240.297 60.518"/>
    <polyline class="cls-2" points="207.816 71.345 196.99 82.171 186.162 71.345 196.99 60.518 207.816 71.345"/>
    <polyline class="cls-3" points="207.816 71.345 207.588 71.116 196.99 81.714 186.621 71.345 196.99 60.976 207.588 71.574 207.816 71.345 207.588 71.116 207.816 71.345 208.045 71.116 196.99 60.06 185.704 71.345 196.99 82.63 208.275 71.345 208.045 71.116 207.816 71.345"/>
    <polyline class="cls-2" points="229.47 49.691 218.644 60.517 207.816 49.691 218.644 38.864 229.47 49.691"/>
    <polyline class="cls-3" points="229.47 49.691 229.242 49.462 218.644 60.06 208.276 49.691 218.644 39.323 229.242 49.92 229.47 49.691 229.242 49.462 229.47 49.691 229.7 49.462 218.644 38.406 207.358 49.691 218.644 60.976 229.929 49.691 229.7 49.462 229.47 49.691"/>
    <polyline class="cls-2" points="229.47 71.345 218.644 82.171 207.816 71.345 218.644 60.518 229.47 71.345"/>
    <polyline class="cls-3" points="229.47 71.345 229.242 71.116 218.644 81.714 208.276 71.345 218.644 60.976 229.242 71.574 229.47 71.345 229.242 71.116 229.47 71.345 229.7 71.116 218.644 60.06 207.358 71.345 218.644 82.63 229.929 71.345 229.7 71.116 229.47 71.345"/>
    <polyline class="cls-4" points="332.325 82.172 310.67 60.518 332.325 38.864 353.978 60.518 332.325 82.172"/>
    <polyline class="cls-5" points="353.978 60.518 332.324 74.56 310.67 60.517 332.325 46.475 353.978 60.518"/>
    <polyline class="cls-2" points="207.816 49.691 196.99 60.517 186.162 49.691 196.99 38.864 207.816 49.691"/>
    <polyline class="cls-3" points="207.816 49.691 207.588 49.462 196.99 60.06 186.621 49.691 196.99 39.323 207.588 49.92 207.816 49.691 207.588 49.462 207.816 49.691 208.045 49.462 196.99 38.406 185.704 49.691 196.99 60.976 208.275 49.691 208.045 49.462 207.816 49.691"/>
    <polyline class="cls-2" points="218.644 60.517 207.817 71.345 196.99 60.517 207.817 49.691 218.644 60.517"/>
    <polyline class="cls-3" points="218.644 60.517 218.415 60.288 207.817 70.886 197.449 60.517 207.817 50.149 218.415 60.746 218.644 60.517 218.415 60.288 218.644 60.517 218.874 60.288 207.817 49.232 196.532 60.517 207.817 71.802 219.101 60.517 218.874 60.288 218.644 60.517"/>
    <path class="cls-6" d="M255.2135,61.129h1.63105V59.90414H255.2135m-3.259,1.22484h1.63V59.90382h-1.63Zm-3.26006,0h1.63V59.90382h-1.63Zm-3.26108,0h1.63105V59.90414l-1.63105.001Zm-3.259,0h1.63013V59.9042h-1.63013Zm-3.26006,0h1.63054V59.9042h-1.63054Zm-3.259,0h1.63V59.9042h-1.63Zm-3.259,0h1.62949V59.90382h-1.62949Zm-3.26,0h1.62962V59.90382h-1.62962Zm-3.26006,0h1.63V59.9042h-1.63Zm-3.26006,0h1.63V59.9042h-1.63Zm-3.26006.001,1.63-.001V59.90516h-1.63Zm-3.259,0h1.62857V59.90484h-1.62857Zm-3.26006,0h1.62962V59.90522H212.837Zm-3.26006,0h1.62949V59.90522H209.577Zm-3.26006,0h1.63V59.90516h-1.63Zm-3.26,0h1.62962V59.90573h-1.62962Zm-3.259,0h1.62908V59.90573h-1.62908Zm-3.26006,0h1.62949V59.90522h-1.62949Zm-3.26006,0h1.63V59.90522h-1.63Zm-3.26108,0h1.63067V59.90573h-1.63067Zm-3.259,0h1.63013V59.90573h-1.63013Zm-3.259,0h1.629V59.90573h-1.629Zm-3.26006.00108,1.63-.00108V59.90516h-1.63Zm-3.26,0h1.63V59.9058h-1.63Zm-3.26006,0h1.63013V59.9058h-1.63013Zm-3.26006,0h1.63V59.9058h-1.63Zm-3.259,0h1.629V59.90516l-1.629.001Zm-3.26,0h1.62949V59.90631h-1.62949Zm-3.26006,0h1.63V59.90631h-1.63Z"/>
    <rect class="cls-6" x="258.47458" y="59.90287" width="0.81175" height="1.2251"/>
    <path class="cls-6" d="M266.679,60.51605a37.02433,37.02433,0,0,0-10.47141,5.82568l2.10724-5.82568-2.10724-5.82465A36.99839,36.99839,0,0,0,266.679,60.51605"/>
    <polyline class="cls-7" points="172.637 96.564 173.161 96.038 172.295 95.172 171.771 95.696"/>
    <path class="cls-7" d="M238.75348,30.4425l1.04211-1.04-.86668-.86564-1.0411,1.04m-1.21652,2.94891,1.04214-1.04218-.86774-.86563-1.04,1.04109Zm-2.08216,2.08213,1.04109-1.04109-.86672-.86666-1.04106,1.04212ZM232.507,36.69009,233.548,35.649l-.86564-.86564-1.04109,1.04Zm-2.0822,2.0822,1.0411-1.0411-.86672-.8657-1.04106,1.0411Zm-2.08215,2.08212,1.04-1.04109-.86567-.86564-1.04109,1.0411Zm-2.08322,2.08321,1.04212-1.041-.86567-.86672-1.04211,1.0411Zm-2.08114,2.0822,1.0411-1.0411-.86672-.86666-1.04106,1.041ZM222.0961,47.102l1.04-1.0411-.86672-.86563-1.04005,1.041Zm-2.08321,2.08219L221.055,48.142l-.86669-.86564-1.0411,1.0411Zm-2.08219,2.08321,1.0411-1.04109-.86672-.86672-1.04,1.04109Zm-2.08114,2.08213,1.04-1.04212-.86563-.86563-1.04215,1.04211Zm-2.08321,2.08219,1.0411-1.0411-.86567-.86671L212.89966,54.565Zm-2.08216,2.08219,1.0411-1.04109-.86672-.86672-1.04107,1.04211ZM209.602,59.59605l1.04-1.04-.86563-.86774-1.0411,1.04211Zm-2.08324,2.08219,1.04214-1.04109-.86566-.86564-1.04212,1.0411Zm-2.08216,2.08219,1.04211-1.04007-.86774-.86666-1.04,1.041Zm-2.08114,2.08423,1.04-1.04211-.86564-.86672-1.04109,1.0411Zm-2.08321,2.08118,1.04109-1.0411-.86567-.86672-1.04106,1.04212Zm-2.08216,2.08321,1.04109-1.04218-.86567-.86564-1.04109,1.0411Zm-2.0822,2.08111,1.0411-1.0411-.86669-.86564-1.04109,1.0411Zm-2.08321,2.08219,1.04215-1.04008-.86567-.86774-1.04211,1.04212Zm-2.08111,2.08321,1.04107-1.0411-.86564-.86672-1.04215,1.0411Zm-2.08219,2.08213,1.0411-1.041-.86669-.86671L189.99473,77.471Zm-2.08321,2.08219,1.04215-1.0411-.86672-.86563-1.0411,1.04Zm-2.08114,2.08321,1.04005-1.04212-.86564-.86563-1.0411,1.041ZM184.6149,84.5842l1.04005-1.04-.86567-.86672-1.04107,1.04109Zm-2.08321,2.08327,1.0411-1.04218-.86567-.86563-1.0411,1.04211Zm-2.08216,2.08213,1.04106-1.04109-.86563-.86666-1.0411,1.0411Zm-2.08219,2.08219,1.04109-1.04109-.86671-.86672-1.04005,1.04218ZM176.28413,92.914l1.04211-1.04109-.86563-.8657-1.04215,1.04109ZM174.203,94.9972l1.04109-1.0411-.86668-.86672-1.0411,1.0411Z"/>
    <polyline class="cls-7" points="240.837 28.36 241.361 27.836 240.494 26.971 239.97 27.495"/>
    <path class="cls-7" d="M246.15488,22.17441a37.00658,37.00658,0,0,0-3.283,11.524l-2.6304-5.60956L234.634,25.46054a36.96023,36.96023,0,0,0,11.52085-3.28613"/>
    <rect class="cls-6" x="207.20448" y="95.57144" width="1.22465" height="0.7425"/>
    <path class="cls-6" d="M207.20448,22.07415h1.22465V20.57354h-1.22465Zm0,3h1.22465v-1.5h-1.22465Zm0,3.00009h1.22465V26.57365h-1.22465Zm0,2.99894h1.22465v-1.5h-1.22465Zm0,3.00009h1.22465v-1.5h-1.22465Zm0,3h1.22465V35.57328h-1.22465Zm0,3h1.22465V38.57324h-1.22465Zm0,2.999h1.22465V41.573h-1.22465Zm0,3h1.22465V44.57291h-1.22465Zm0,3h1.22465V47.57294h-1.22465Zm0,3.00009h1.22465v-1.5h-1.22465Zm0,3h1.22465V53.57305h-1.22465Zm0,3h1.22465V56.57308h-1.22465Zm0,2.999h1.22465V59.57215h-1.22465Zm0,3h1.22465V62.57211h-1.22465Zm0,3h1.22465V65.57156h-1.22465Zm0,3.00009h1.22465V68.57223h-1.22465Zm0,3h1.22465v-1.5h-1.22465Zm0,3h1.22465v-1.5h-1.22465Zm0,3h1.22465V77.57167h-1.22465Zm0,2.999h1.22465v-1.5h-1.22465Zm0,3.00111h1.22465v-1.5h-1.22465Zm0,3h1.22465V86.57187h-1.22465Zm0,2.999h1.22465V89.57037h-1.22465Zm0,3.00111h1.22465V92.57148h-1.22465Z"/>
    <rect class="cls-6" x="207.20448" y="18.33182" width="1.22465" height="0.74231"/>
    <path class="cls-6" d="M207.81639,10.93969A37.03891,37.03891,0,0,0,213.6421,21.409l-5.82571-2.10615L201.99174,21.409a36.95879,36.95879,0,0,0,5.82465-10.46927"/>
    <polyline class="cls-7" points="243.307 95.139 242.783 94.615 241.916 95.482 242.442 96.007"/>
    <path class="cls-7" d="M181.03741,32.87032l-1.04632-1.04626-.86669.86564,1.04629,1.04632M183.13,34.963l-1.04633-1.04632-.86563.86672,1.04629,1.04632Zm2.09366,2.09367-1.04632-1.04632-.86564.86563,1.04629,1.04632Zm2.09366,2.09258L186.271,38.104l-.86669.86564,1.04524,1.04632Zm2.09156,2.09366-1.04632-1.04734-.86563.86672,1.04629,1.04632Zm2.09367,2.09265-1.04734-1.04633-.86567.86564,1.04734,1.04734Zm2.09366,2.09366-1.04737-1.04632-.86564.86563,1.04734,1.04633Zm2.09261,2.09258-1.04632-1.04632-.86563.8657,1.04523,1.04734Zm2.09262,2.09264-1.04528-1.04632-.86773.86672L196.9158,50.48Zm2.09261,2.09367-1.04632-1.04632-.86564.86563,1.04629,1.04734Zm2.09366,2.09258-1.04632-1.04632-.86669.86672,1.04734,1.04632Zm2.09367,2.09366L203.01508,54.848l-.86668.8657L203.19469,56.76ZM206.154,57.987l-1.04632-1.04633-.86567.86672,1.04527,1.04626Zm2.09261,2.09258-1.04632-1.04633-.86669.8657,1.04734,1.04735Zm2.09366,2.09366L209.294,61.12688l-.86669.8657,1.04735,1.04734Zm2.09262,2.09366-1.04633-1.04734-.86566.86672,1.04632,1.04626Zm2.09363,2.09156-1.04629-1.04523-.86567.86563,1.04527,1.04632Zm2.09159,2.09367-1.04527-1.04632-.86567.8657,1.04527,1.04625Zm2.09366,2.09366-1.04632-1.04632-.86567.8657,1.04633,1.04626Zm2.09364,2.09265-1.04629-1.04633-.86567.86564,1.04632,1.04632Zm2.09366,2.09258-1.04734-1.04633-.86567.86672,1.04632,1.04633Zm2.09261,2.09366-1.04734-1.04734-.86567.86672,1.04632,1.04626Zm2.09367,2.09264L226.03908,77.871l-.86778.86564,1.04738,1.04734Zm2.09261,2.0936-1.04734-1.04734-.86567.86672,1.04632,1.04632Zm2.09261,2.09265-1.04629-1.04632-.86567.8657,1.04632,1.04734Zm2.09366,2.09264L232.318,84.14985l-.86672.86666,1.04633,1.04632Zm2.09262,2.0936-1.04629-1.04734-.86672.86672,1.04632,1.04632Zm2.09261,2.09265-1.04524-1.04633-.86672.86672,1.04632,1.04633Zm2.09366,2.09366-1.04629-1.04632-.86672.86563,1.04734,1.04633Zm2.09261,2.09258-1.04629-1.04626-.86566.86564,1.04632,1.04734Z"/>
    <polyline class="cls-7" points="178.945 30.778 178.421 30.253 177.554 31.118 178.079 31.643"/>
    <path class="cls-7" d="M172.75884,25.4585a37.01122,37.01122,0,0,0,11.523,3.284l-5.60956,2.62935L176.045,36.9804a36.97328,36.97328,0,0,0-3.28616-11.5219"/>
    <path class="cls-6" d="M254.51386,56.20234a7.66922,7.66922,0,0,0-1.98191-2.9384,4.41223,4.41223,0,0,0-2.92488-1.18,4.2202,4.2202,0,0,0-2.314.71319,6.9997,6.9997,0,0,0-2.46543,3.10136,11.54666,11.54666,0,0,0-.91993,4.61957,10.86111,10.86111,0,0,0,1.5893,5.86538,6.25658,6.25658,0,0,0,1.79606,1.85562,4.21236,4.21236,0,0,0,2.314.71318,4.44332,4.44332,0,0,0,2.98648-1.23319l-.82182-.90853a3.21008,3.21008,0,0,1-2.16466.91688,2.99845,2.99845,0,0,1-1.64673-.51484,5.78862,5.78862,0,0,1-2.01116-2.56772,10.34552,10.34552,0,0,1-.81761-4.12678,9.66262,9.66262,0,0,1,1.3909-5.19707,5.05051,5.05051,0,0,1,1.43787-1.49634,2.9914,2.9914,0,0,1,1.64673-.51587,3.19153,3.19153,0,0,1,2.11664.874,6.483,6.483,0,0,1,1.653,2.47371l1.13714-.45423"/>
    <path class="cls-6" d="M253.855,64.82237a14.82891,14.82891,0,0,0-.55659,4.76062l-1.3982-2.0467-2.38292-.67768a14.78888,14.78888,0,0,0,4.33771-2.03624"/>
    <rect class="cls-6" x="292.66127" y="59.90287" width="0.70273" height="1.2251"/>
    <path class="cls-6" d="M379.21136,61.128h1.40756v-1.2249h-1.40756m-2.81418,1.2249h1.40553V59.9028h-1.40553Zm-2.81628,0h1.40852V59.9028H373.5809Zm-2.81418,0h1.40865V59.9028h-1.40865Zm-2.81309,0h1.40553V59.90318h-1.40553Zm-2.81628,0h1.4076V59.9028h-1.4076Zm-2.8152,0h1.40865V59.9028h-1.40865Zm-2.81418,0h1.40865V59.90318H359.508Zm-2.81312,0h1.40553V59.9028h-1.40553Zm-2.81625,0h1.4076V59.9028h-1.4076Zm-2.81418,0h1.4076V59.90287h-1.4076Zm-2.81519,0h1.40759V59.90287h-1.40759Zm-2.81418,0h1.40654V59.90287h-1.40654Zm-2.81523,0h1.4076V59.90287h-1.4076Zm-2.81418,0h1.40655V59.90287h-1.40655Zm-2.8152,0h1.4076V59.90287h-1.4076Zm-2.81522,0h1.40865V59.90287h-1.40865Zm-2.81313,0h1.40655V59.90287h-1.40655Zm-2.81625,0h1.4076V59.90287h-1.4076Zm-2.81418,0h1.4076V59.90287h-1.4076Zm-2.81519,0h1.40865V59.90287h-1.40865Zm-2.81313,0h1.40655V59.90287h-1.40655Zm-2.81523,0h1.40655V59.90338h-1.40655Zm-2.81519,0h1.40759V59.90338h-1.40759Zm-2.81523,0h1.4076V59.90287h-1.4076Zm-2.8152,0h1.40865V59.90287h-1.40865Zm-2.81313,0h1.40655V59.90338h-1.40655Zm-2.81417,0h1.40654V59.90287h-1.40654Zm-2.81523,0h1.40865V59.90287H300.4Zm-2.81415,0h1.4076V59.90338h-1.4076Zm-2.81523,0h1.40655V59.90287h-1.40655Z"/>
    <rect class="cls-6" x="382.02554" y="59.9028" width="0.70273" height="1.22516"/>
    <path class="cls-6" d="M390.12027,60.515a37.01481,37.01481,0,0,0-10.46934,5.82574l2.10724-5.82574-2.10724-5.82466A36.98556,36.98556,0,0,0,390.12027,60.515"/>
    <rect class="cls-6" x="331.71087" y="99.58713" width="1.22487" height="0.59356"/>
    <path class="cls-6" d="M331.71087,31.24032h1.22488V30.04059h-1.22488Zm0,2.39755h1.22488V32.43871h-1.22488Zm0,2.39857h1.22488V34.83779h-1.22488Zm0,2.39856h1.22488V37.23585h-1.22488Zm0,2.39749h1.22488V39.63384h-1.22488Zm0,2.39755h1.22488V42.03088h-1.22488Zm0,2.39856h1.22488V44.42932h-1.22488Zm0,2.39857h1.22488V46.82833h-1.22488Zm0,2.39755h1.22488V49.22607h-1.22488Zm0,2.39857h1.22488V51.62413h-1.22488Zm0,2.39856h1.22488V54.02212h-1.22488Zm0,2.39749h1.22488V56.42018h-1.22488Zm0,2.39863h1.22488V58.81869h-1.22488Zm0,2.39748h1.22488V61.21681h-1.22488Zm0,2.39857h1.22488V63.61537h-1.22488Zm0,2.39857h1.22488V66.01343h-1.22488Zm0,2.39755h1.22488V68.411h-1.22488Zm0,2.39856h1.22488V70.80942h-1.22488Zm0,2.39857h1.22488V73.208h-1.22488Zm0,2.39755h1.22488V75.60617h-1.22488Zm0,2.39748h1.22488V78.00366h-1.22488Zm0,2.39857h1.22488V80.40171h-1.22488Zm0,2.39857h1.22488V82.79971h-1.22488Zm0,2.39863h1.22488V85.19891h-1.22488Zm0,2.39748h1.22488V87.5964h-1.22488Zm0,2.39755h1.22488V89.99452h-1.22488Zm0,2.39857h1.22488V92.39309h-1.22488Zm0,2.39857h1.22488V94.79146h-1.22488Zm0,2.39754h1.22488V97.188h-1.22488Z"/>
    <rect class="cls-6" x="331.71087" y="28.24724" width="1.22487" height="0.59343"/>
    <path class="cls-6" d="M332.32384,20.85556a36.97091,36.97091,0,0,0,5.82465,10.46934l-5.82465-2.10724-5.82466,2.10724a36.99663,36.99663,0,0,0,5.82466-10.46934"/>
    <path class="cls-6" d="M376.085,55.82121a9.06582,9.06582,0,0,0-1.56843-3.21723,4.147,4.147,0,0,0-1.12567-.98259,2.73126,2.73126,0,0,0-1.36583-.377,2.98051,2.98051,0,0,0-1.99443.83645,7.765,7.765,0,0,0-1.96418,3.40932,16.86016,16.86016,0,0,0-.72262,5.02792,15.42638,15.42638,0,0,0,1.2489,6.38545,6.426,6.426,0,0,0,1.4379,2.05084,2.98274,2.98274,0,0,0,1.99443.83848,2.7501,2.7501,0,0,0,1.42223-.4114,4.29757,4.29757,0,0,0,1.15805-1.062l-.96487-.75391a3.11469,3.11469,0,0,1-.82281.76544,1.53132,1.53132,0,0,1-.7926.237,1.76444,1.76444,0,0,1-1.17474-.52421,6.60279,6.60279,0,0,1-1.61646-2.86848,15.62589,15.62589,0,0,1-.66516-4.65724,14.1959,14.1959,0,0,1,1.134-5.86532,5.25076,5.25076,0,0,1,1.1476-1.66033,1.75265,1.75265,0,0,1,1.17474-.52313,1.49767,1.49767,0,0,1,.75812.2151,3.56228,3.56228,0,0,1,1.16742,1.23217,8.9622,8.9622,0,0,1,.95754,2.244l1.17685-.33938"/>
    <path class="cls-6" d="M375.424,65.28291a14.797,14.797,0,0,0,.15347,4.78981l-1.6864-1.81483-2.456-.31848a14.80577,14.80577,0,0,0,3.98892-2.6565"/>
    <path d="M371.89972,54.29771l-.0919.23288a1.28488,1.28488,0,0,0-.43021.25583,2.674,2.674,0,0,0-.41975.71631,8.398,8.398,0,0,0-.46679,1.35021,5.16685,5.16685,0,0,0-.20777,1.20291.78931.78931,0,0,0,.53772.81969l.85-2.91125a3.19825,3.19825,0,0,1,.62338-1.28647,1.20433,1.20433,0,0,1,.91681-.38011,1.13949,1.13949,0,0,1,.944.47826,1.90717,1.90717,0,0,1,.36762,1.19769,3.53587,3.53587,0,0,1-.7717,2.13229,2.64338,2.64338,0,0,1-2.23674,1.04842l-.59725,2.05606h-.78005l.59726-2.09156q-1.57886-.3195-1.57988-1.69685a3.23979,3.23979,0,0,1,.732-2.04561,2.85893,2.85893,0,0,1,2.01323-1.0787m-.29865,4.59771q.83956-.07524,1.30839-1.3314a6.1895,6.1895,0,0,0,.46889-2.06652q0-.556-.30911-.55652a.36887.36887,0,0,0-.26315.119,2.24117,2.24117,0,0,0-.309.76232Z"/>
    <path d="M272.87854,59.38828c-.2694.39368-.86149,1.26454-1.54546,1.26454-.48762,0-.81968-.38323-1.02748-1.60705-.08251.13473-.19634.3216-.32164.52944-.50748.8395-.79881,1.07761-1.30632,1.07761a.60574.60574,0,0,1-.64324-.62128.56789.56789,0,0,1,.57017-.57124c.38425.0209.425.21829.64323.21829.22868,0,.38425-.24959.48763-.42607l.45634-.72574-.31118-1.59762c-.13471-.69444-.39471-.69444-.591-.69444-.1138,0-.2485.01045-.35293.0209v-.28088l1.73236-.24856a3.61167,3.61167,0,0,1,.46675,1.43166c.76752-1.08915,1.1309-1.43166,1.66971-1.43166a.654.654,0,0,1,.57118.64327.57317.57317,0,0,1-.5816.53881c-.29031,0-.36236-.20676-.61191-.20676-.36236,0-.78737.77794-.93355.9847l.33206,1.61852c.05223.23913.11488.55035.3947.55035.21721,0,.39369-.23913.684-.61192l.21823.14513"/>
    <path d="M274.71322,56.44255c.19739-.10446,1.22385-.63281,1.22385-1.21343,0-.43645-.72574-.38425-.72574-1.04836a.72559.72559,0,0,1,.72574-.76749.89377.89377,0,0,1,.89279.99617c0,1.37939-1.82633,2.23987-1.98194,2.28161l-.1347-.2485"/>
    <path d="M251.542,18.58541c-.27045.39369-.86149,1.26455-1.54545,1.26455-.48871,0-.82077-.38323-1.02752-1.60807-.0825.13575-.19735.3216-.3216.52944-.50854.84059-.79885,1.07863-1.30633,1.07863a.607.607,0,0,1-.64429-.62236.56781.56781,0,0,1,.57119-.5701c.38428.02084.425.2172.64324.2172.22765,0,.38323-.24856.48766-.425l.4563-.72574-.31115-1.59762c-.1347-.69547-.39474-.69547-.591-.69547a3.42842,3.42842,0,0,0-.353.02193v-.28088l1.73236-.24856a3.62913,3.62913,0,0,1,.46679,1.43166c.76748-1.08915,1.12984-1.43166,1.6697-1.43166a.65275.65275,0,0,1,.57013.64225.57233.57233,0,0,1-.58058.53983c-.29028,0-.36338-.20676-.61191-.20676-.36338,0-.78839.77692-.93355.98469l.33209,1.61853c.05115.23811.1138.54926.39365.54926.21826,0,.39471-.23805.685-.61191l.21825.1462"/>
    <path d="M396.34906,59.38828c-.2694.39368-.86041,1.26454-1.5444,1.26454-.48763,0-.82077-.38323-1.02752-1.60705-.08356.13473-.19732.3216-.3216.52944-.50854.8395-.79885,1.07761-1.3063,1.07761a.60671.60671,0,0,1-.64428-.62128.56877.56877,0,0,1,.57118-.57124c.38425.0209.426.21829.64321.21829.22765,0,.38425-.24959.4866-.42607l.45736-.72574-.31115-1.59762c-.13575-.69444-.3947-.69444-.591-.69444-.11491,0-.24958.01045-.35295.0209v-.28088l1.73235-.24856a3.59886,3.59886,0,0,1,.46571,1.43166c.76856-1.08915,1.13089-1.43166,1.67072-1.43166a.655.655,0,0,1,.57125.64327.574.574,0,0,1-.58164.53881c-.29031,0-.36341-.20676-.61191-.20676-.36341,0-.78839.77794-.93358.9847l.33206,1.61852c.05226.23913.11383.55035.39368.55035.21823,0,.39471-.23913.685-.61192l.2172.14513"/>
    <path d="M398.1848,56.44255c.1963-.10446,1.22382-.63281,1.22382-1.21343,0-.43645-.72574-.38425-.72574-1.04836a.72561.72561,0,0,1,.72574-.76749.8936.8936,0,0,1,.89176.99617c0,1.37939-1.82528,2.23987-1.98085,2.28161l-.13473-.2485"/>
    <path d="M207.96155,3.60613a9.37374,9.37374,0,0,0,1.54545-.24959,22.73075,22.73075,0,0,1,.685,2.87371l.12429.74658h.02087A7.348,7.348,0,0,0,211.2195,4.902c0-.46571-.57118-.3007-.57118-.96379a.61613.61613,0,0,1,.58059-.58164.67038.67038,0,0,1,.65368.64321c0,1.21445-1.33765,3.37179-1.43162,3.52742-1.0578,1.75218-1.97044,2.74834-2.99691,2.74834a.62677.62677,0,0,1-.61191-.62236.56142.56142,0,0,1,.54926-.5701,1.43616,1.43616,0,0,1,.52836.17648.9023.9023,0,0,0,.42606.18687,1.4841,1.4841,0,0,0,.944-1.2353,24.97931,24.97931,0,0,0-.46676-2.7484c-.353-1.57672-.45634-1.57672-.86149-1.57672V3.60613"/>
    <path d="M213.43847,4.07285c.19633-.10439,1.2228-.63275,1.2228-1.21337,0-.43645-.72574-.38425-.72574-1.04734a.72558.72558,0,0,1,.72574-.76748.89274.89274,0,0,1,.89279.99514c0,1.3794-1.82633,2.24089-1.98194,2.28161l-.13365-.24856"/>
    <path d="M167.45212,19.93352a9.30977,9.30977,0,0,0,1.54545-.2485,22.52854,22.52854,0,0,1,.684,2.87364l.1253.74664h.02088a7.33733,7.33733,0,0,0,.88134-2.07486c0-.46679-.57118-.30076-.57118-.96487a.61614.61614,0,0,1,.5816-.58055.67034.67034,0,0,1,.65369.6432c0,1.21337-1.3387,3.37077-1.43162,3.52634-1.05885,1.75326-1.97149,2.74943-2.998,2.74943a.6268.6268,0,0,1-.61191-.62237.56085.56085,0,0,1,.54926-.57016,1.46677,1.46677,0,0,1,.52944.17546.88776.88776,0,0,0,.425.18693,1.48394,1.48394,0,0,0,.944-1.23427,24.64227,24.64227,0,0,0-.46675-2.74841c-.35191-1.57678-.45634-1.57678-.86044-1.57678v-.28087"/>
    <path d="M332.46689,12.47466a9.28788,9.28788,0,0,0,1.54647-.2485,22.70082,22.70082,0,0,1,.684,2.87364l.12428.74664h.02192a7.369,7.369,0,0,0,.88132-2.07486c0-.46679-.57014-.30076-.57014-.96487a.61516.61516,0,0,1,.58059-.58055.66939.66939,0,0,1,.65263.6432c0,1.21337-1.33765,3.37077-1.43057,3.52634-1.05885,1.75326-1.97149,2.74943-2.998,2.74943a.62752.62752,0,0,1-.61191-.62237.56085.56085,0,0,1,.54926-.57016,1.46631,1.46631,0,0,1,.5294.17546.89185.89185,0,0,0,.426.18693,1.48485,1.48485,0,0,0,.94295-1.23427,24.89414,24.89414,0,0,0-.46574-2.74841c-.35293-1.57678-.45735-1.57678-.86251-1.57678v-.28087"/>
    <path d="M337.94381,12.94247c.19735-.1044,1.22382-.63282,1.22382-1.21337,0-.43652-.72574-.38426-.72574-1.04843a.7256.7256,0,0,1,.72574-.76748.89377.89377,0,0,1,.89282.99616c0,1.37946-1.82531,2.23987-1.98194,2.28161l-.1347-.24849"/>
    <path d="M278.52254,82.09379l.58894-.38221a.6123.6123,0,0,0-.66622-1.02752l-.58893.38221a.6123.6123,0,1,0,.66621,1.02752"/>
    <path d="M362.20937,27.82679l1.17058-.75812a.61259.61259,0,1,0-.66727-1.02752l-1.16952.75914a.61187.61187,0,1,0,.66621,1.0265m-2.34009,1.51827,1.16952-.75913a.6123.6123,0,1,0-.66621-1.02752l-1.17057.75913a.61258.61258,0,1,0,.66726,1.02752Zm-2.34219,1.51827,1.17057-.75913a.6123.6123,0,0,0-.66621-1.02752l-1.16952.75811a.61244.61244,0,1,0,.66516,1.02854Zm-2.34115,1.51834,1.17058-.7592a.61244.61244,0,1,0-.66516-1.02854l-1.17058.75914a.61247.61247,0,0,0,.66516,1.0286Zm-2.34009,1.51725,1.17057-.7592a.61258.61258,0,1,0-.66726-1.02752l-1.17054.7592a.61258.61258,0,1,0,.66723,1.02752Zm-2.34114,1.51828,1.17057-.75914a.61258.61258,0,1,0-.66723-1.02752l-1.16955.75914a.6123.6123,0,0,0,.66621,1.02752Zm-2.34111,1.51725,1.17159-.75914a.61258.61258,0,1,0-.66726-1.02752l-1.17054.75914a.6123.6123,0,0,0,.66621,1.02752Zm-2.34114,1.51827,1.17159-.75913a.613.613,0,0,0-.66724-1.02854l-1.16955.75913a.61245.61245,0,0,0,.6652,1.02854ZM343.48236,39.97l1.17058-.75914a.6123.6123,0,0,0-.66622-1.02752l-1.17057.75914a.6123.6123,0,1,0,.66621,1.02752Zm-2.34114,1.51827,1.17057-.75914a.61258.61258,0,1,0-.66726-1.02752l-1.16952.7592a.61227.61227,0,1,0,.66621,1.02746Zm-2.34009,1.51725,1.17057-.75913a.61259.61259,0,0,0-.66726-1.02753l-1.16952.7592a.61227.61227,0,1,0,.66621,1.02746ZM336.46,44.52384l1.17057-.75812a.613.613,0,0,0-.66727-1.02854l-1.16952.75914a.6123.6123,0,0,0,.66622,1.02752Zm-2.34115,1.51827,1.17163-.75914a.61259.61259,0,0,0-.66727-1.02752l-1.16952.75914a.612.612,0,0,0,.66516,1.02752Zm-2.34114,1.51725,1.17162-.75913a.61258.61258,0,1,0-.66726-1.02752l-1.16952.75913a.612.612,0,0,0,.66516,1.02752Zm-2.34009,1.51726,1.17057-.75914a.61216.61216,0,1,0-.66726-1.0265l-1.16952.75812a.6123.6123,0,1,0,.66621,1.02752ZM327.09752,50.596l1.17057-.75913a.613.613,0,0,0-.66727-1.02861l-1.17057.76022a.61259.61259,0,1,0,.66727,1.02752Zm-2.34115,1.51726,1.17058-.75812a.613.613,0,1,0-.66727-1.02854l-1.16952.75914a.6123.6123,0,0,0,.66621,1.02752Zm-2.34114,1.51725,1.17057-.75812a.61273.61273,0,0,0-.66621-1.02854L321.749,52.603a.6123.6123,0,0,0,.66621,1.02752Zm-2.34114,1.51929,1.17057-.76016a.6123.6123,0,1,0-.66621-1.02752l-1.16952.75914a.61244.61244,0,0,0,.66516,1.02854ZM317.734,56.667l1.17057-.75913a.61259.61259,0,1,0-.66727-1.02752l-1.16952.75913A.6123.6123,0,1,0,317.734,56.667Zm-2.34115,1.51726,1.17057-.75812a.61255.61255,0,1,0-.66723-1.02746l-1.16955.75806a.6123.6123,0,0,0,.66621,1.02752Zm-2.34009,1.51833,1.17057-.7592a.61255.61255,0,1,0-.66726-1.02745l-1.16952.75805a.61275.61275,0,1,0,.66621,1.0286Zm-2.34216,1.51828,1.17159-.75914a.61275.61275,0,0,0-.66621-1.0286l-1.17057.7592a.61245.61245,0,1,0,.66519,1.02854Zm-2.34009,1.51725L309.54,61.98a.61244.61244,0,1,0-.66516-1.02854l-1.17058.75914a.6123.6123,0,0,0,.66622,1.02752Zm-2.34115,1.51827,1.17058-.75913a.61259.61259,0,1,0-.66727-1.02752l-1.16952.75913a.6123.6123,0,1,0,.66621,1.02752Zm-2.34114,1.51725,1.17057-.75811a.61273.61273,0,1,0-.66621-1.02854l-1.17057.75913a.6123.6123,0,0,0,.66621,1.02752Zm-2.339,1.51828,1.16952-.75914a.61258.61258,0,1,0-.66726-1.02752l-1.16847.75812a.61273.61273,0,1,0,.66621,1.02854ZM299.007,68.80919l1.17057-.758a.6123.6123,0,1,0-.66621-1.02752l-1.16952.75811a.612.612,0,1,0,.66516,1.02746Zm-2.3401,1.51834,1.17058-.75914a.6123.6123,0,1,0-.66622-1.02752L296.00173,69.3a.612.612,0,0,0,.66516,1.02752Zm-2.34114,1.51827,1.17162-.75914a.61287.61287,0,1,0-.66831-1.02752l-1.16952.75812a.61273.61273,0,0,0,.66621,1.02854Zm-2.34009,1.51827,1.17057-.76015a.61258.61258,0,1,0-.66726-1.02752l-1.16952.75913a.61273.61273,0,0,0,.66621,1.02854Zm-2.34009,1.51726,1.17057-.75914a.61258.61258,0,1,0-.66726-1.02752l-1.17058.7592a.61256.61256,0,1,0,.66727,1.02746Zm-2.3422,1.51725,1.17163-.758a.61259.61259,0,0,0-.66727-1.02753l-1.16952.75914a.61156.61156,0,1,0,.66516,1.02644Zm-2.34009,1.51833,1.17057-.7592a.61227.61227,0,1,0-.66621-1.02745l-1.17057.75913a.6123.6123,0,0,0,.66621,1.02752Zm-2.34114,1.51828,1.17057-.75914a.613.613,0,1,0-.66726-1.02854l-1.16952.75914a.61273.61273,0,0,0,.66621,1.02854Zm-2.34009,1.51827,1.17057-.75914a.613.613,0,0,0-.66726-1.02854l-1.16952.75914a.61273.61273,0,0,0,.66621,1.02854Z"/>
    <path d="M364.55052,26.30954l.58788-.3812a.61227.61227,0,1,0-.66621-1.02745l-.58789.38113a.6123.6123,0,1,0,.66622,1.02752"/>
    <polyline points="300.178 96.136 300.765 95.754 300.099 94.727 299.51 95.108"/>
    <path d="M383.86229,41.87046l1.1706-.75913-.66621-1.02854-1.17061.75913m-1.67493,2.54579,1.17061-.75913-.6673-1.02752-1.16952.75913ZM379.18108,44.905l1.17054-.75914-.66723-1.02752-1.16952.75914Zm-2.34114,1.51725,1.17162-.75812-.66831-1.02752-1.16952.75914Zm-2.34114,1.51936,1.17054-.7592-.66621-1.02854-1.16952.76022Zm-2.34013,1.51725,1.17061-.75812-.66621-1.0286-1.17163.7592Zm-2.34114,1.51827,1.1706-.75913-.66729-1.02752-1.16949.75811Zm-2.34009,1.51828,1.17057-.76016-.66723-1.02752-1.16955.75913Zm-2.34111,1.51725,1.17057-.75914-.66726-1.0265-1.16952.75812Zm-2.34114,1.51827,1.17057-.75914-.66622-1.02752-1.16951.7592ZM360.454,57.04815l1.17163-.75913-.66727-1.02752-1.17057.7592ZM358.114,58.56649l1.17057-.75914-.66726-1.0286-1.16952.7592Zm-2.34114,1.51827,1.17162-.75913-.66726-1.02752-1.17057.75913ZM353.43272,61.602l1.17057-.75914-.66727-1.02752-1.16952.75914Zm-2.34115,1.51725,1.17057-.75812-.66621-1.02752-1.17057.75812Zm-2.34114,1.51936,1.17057-.76022-.66621-1.02753-1.17057.75812Zm-2.34009,1.51725,1.16952-.7592-.66621-1.02746-1.16952.75914Zm-2.34114,1.51725,1.17057-.7592-.66727-1.02644-1.16952.75812Zm-2.34115,1.51827,1.17057-.75913-.66621-1.02752-1.17057.75811Zm-2.34111,1.51828,1.17054-.75914-.66621-1.02854-1.17054.75914Zm-2.34114,1.51725,1.17057-.75812-.66621-1.02854-1.17057.75914Zm-2.34009,1.51725,1.17054-.75811-.66724-1.02746-1.17057.75914Zm-2.34115,1.51936,1.17057-.76022-.66726-1.02746-1.16952.75914Zm-2.34009,1.51725,1.17057-.75812-.66726-1.02854-1.16952.75914Zm-2.34219,1.51827,1.17057-.75913-.66621-1.02752-1.16952.75811Zm-2.34009,1.51726,1.17057-.75914-.66622-1.02752-1.17057.75812ZM323.001,81.33357l1.17163-.75812-.66832-1.02854-1.16952.76022ZM320.661,82.85293l1.17057-.75914-.66726-1.0286-1.16952.76022Zm-2.34009,1.51725,1.17057-.75914-.66726-1.02752-1.17057.75914Zm-2.3422,1.51725,1.17058-.75811L316.483,84.1018l-1.16952.75811Zm-2.34009,1.51827,1.17057-.75913-.66621-1.02752-1.17162.75811ZM311.29743,88.924l1.17057-.75914-.66726-1.02854-1.16952.76022Zm-2.34009,1.51833,1.17057-.75913-.66726-1.02861-1.16952.75914Zm-2.34114,1.51726,1.17162-.75914-.66828-1.02752-1.16956.75914Zm-2.3401,1.51827,1.16952-.76022-.66621-1.02746-1.16952.75914Zm-2.34216,1.51725,1.17159-.75913-.66516-1.02752-1.17264.76022Z"/>
    <polyline points="386.202 40.352 386.793 39.97 386.126 38.941 385.537 39.324"/>
    <polyline points="299.511 25.927 300.1 26.308 300.768 25.281 300.178 24.9"/>
    <path d="M383.19506,80.19541l1.17053.75805.66622-1.02752-1.17054-.758m-3.00736-.49082,1.17054.75914.6673-1.02746-1.17061-.7592Zm-2.34012-1.51827,1.16952.75913.66729-1.02752-1.1706-.75913Zm-2.34114-1.51725,1.1706.75811.66621-1.0265-1.1706-.76016Zm-2.34115-1.51828,1.17061.75914.66621-1.02854-1.17061-.75812Zm-2.34114-1.51833,1.17162.75913.66519-1.02854-1.1706-.75811Zm-2.34006-1.51726,1.16952.75812.66723-1.02752-1.17054-.75812Zm-2.34114-1.51827,1.17057.75914L368.647,69.301l-1.17057-.75914Zm-2.3401-1.51725,1.16952.75811.66727-1.02854-1.17057-.75811ZM362.129,66.53388l1.16952.75806.66622-1.02746-1.17058-.75812Zm-2.34114-1.51725,1.17057.75812.66621-1.02752L360.454,63.988Zm-2.34114-1.51833,1.16952.75811.66831-1.02752-1.17162-.75913ZM355.1066,61.98l1.16952.75812.66726-1.02752-1.17057-.75914Zm-2.3401-1.51827,1.16952.75914.66727-1.02752-1.17057-.75914Zm-2.34114-1.51725,1.16952.75811.66726-1.02752-1.17162-.75913Zm-2.34114-1.51834,1.17057.7592.66621-1.0286-1.17057-.75806Zm-2.34009-1.51827,1.16952.75913.66621-1.02752-1.16952-.758ZM343.403,54.39063l1.16952.75914.66727-1.02854-1.17057-.75914Zm-2.34114-1.51827,1.17057.75914.66621-1.02854-1.17057-.75914Zm-2.34009-1.51725,1.16952.75812.66621-1.02752-1.17054-.75914Zm-2.34216-1.51827,1.17057.75913.66723-1.02752-1.17159-.75913Zm-2.3401-1.51936,1.16952.76016.66724-1.02854-1.17054-.75812Zm-2.34012-1.51725,1.16955.75913.66723-1.02752-1.17057-.75913ZM329.35826,45.283l1.16952.75914.66828-1.02752-1.17159-.75914Zm-2.34009-1.51725,1.16952.75812.66621-1.02861-1.17057-.758ZM324.677,42.24637l1.17058.75913.66621-1.02746-1.17057-.7592Zm-2.34114-1.51726,1.16952.75914.66832-1.02746-1.17163-.7592Zm-2.34009-1.51827,1.16952.75914.66726-1.02752L320.662,38.1823Zm-2.34009-1.51827,1.16952.75913.66726-1.02752-1.17057-.75913Zm-2.34114-1.51726,1.16952.75914.66726-1.02752-1.17162-.75914Zm-2.34115-1.51725,1.17057.75914.66622-1.02752-1.17058-.76022Zm-2.34114-1.51936,1.17057.75914.66726-1.02752-1.17057-.75914Zm-2.34009-1.51725,1.16952.75914.66726-1.02752-1.17057-.75914ZM305.951,30.1042l1.17058.75913.66621-1.02854-1.17057-.75811Zm-2.34009-1.51827,1.16952.75913.66622-1.02854-1.17058-.7592Zm-2.34219-1.51834,1.17162.7592.66621-1.02752-1.17162-.75914Z"/>
    <polyline points="385.536 81.714 386.124 82.095 386.791 81.068 386.201 80.686"/>
    <polyline points="277.858 39.968 278.446 40.351 279.114 39.324 278.524 38.941"/>
    <path d="M361.54106,94.236l1.16955.75913.66723-1.02643-1.17057-.76022m-3.0063-.49082,1.16952.76022.66726-1.02854-1.17057-.75914Zm-2.34115-1.51719,1.17058.75914.66726-1.02752-1.17162-.75914Zm-2.34009-1.51725,1.16955.75913.66622-1.0286-1.17058-.75914Zm-2.34111-1.51834,1.16952.75914.66723-1.02854-1.17057-.75914Zm-2.34114-1.51827,1.17057.75913.66723-1.02854-1.17057-.75811Zm-2.34009-1.51725,1.16952.75811.66723-1.02752-1.17054-.75811ZM345.15624,83.611l1.17057.75914.66622-1.02752-1.17163-.75914Zm-2.34114-1.51725,1.17057.75914.66621-1.02854-1.17057-.7592ZM340.474,80.57545l1.17057.75812.66621-1.02644-1.17057-.76022Zm-2.34009-1.51827,1.16952.75914.66726-1.02854-1.17057-.75812Zm-2.34115-1.51725,1.17057.75913.66727-1.02854L336.46,76.51139Zm-2.34009-1.51827,1.16952.75913.66832-1.02854-1.17268-.75812Zm-2.34009-1.51834,1.16952.7592.66621-1.02752-1.17057-.75914Zm-2.34114-1.51725,1.16952.75811.66726-1.02643-1.17057-.75914Zm-2.34115-1.51828,1.16952.75914.66832-1.02854-1.17162-.75812Zm-2.34009-1.51725,1.16952.75812.66727-1.02752-1.17058-.75914Zm-2.34009-1.51827,1.16952.75913.66621-1.02854-1.17057-.75811Zm-2.34114-1.51834,1.16952.7592.66726-1.0286-1.17162-.75806Zm-2.34115-1.51827,1.16952.75913.66727-1.02752-1.17057-.75913Zm-2.34009-1.51725,1.16952.75913.66621-1.02854-1.16952-.75812Zm-2.34114-1.51726,1.16952.75812.66726-1.02854-1.17057-.75812Zm-2.34114-1.51827,1.17057.75812.66621-1.02752-1.17159-.75812Zm-2.3401-1.51827,1.16956.75913.66621-1.02752-1.17057-.75913Zm-2.34216-1.51726,1.16952.75806L307.201,57.538l-1.1716-.7592ZM303.02306,56.289l1.16952.75811.66828-1.02752-1.17159-.75913ZM300.684,54.77074l1.1685.75914.66723-1.02752-1.16952-.75914Zm-2.34216-1.51725,1.16952.75812.66828-1.02752L299.008,52.225Zm-2.33908-1.51935,1.16956.75913.66621-1.02745L296.668,50.7077Zm-2.34111-1.51726,1.16952.75914.66723-1.02746-1.17054-.7592Zm-2.34114-1.51725,1.16952.7592.66828-1.0286-1.17159-.75914Zm-2.34009-1.51827,1.16952.75811.66726-1.02752-1.17057-.75811Zm-2.34009-1.51726,1.16952.75812.66621-1.02752-1.17057-.75914Zm-2.3422-1.51935,1.17057.76022.66727-1.02854-1.17163-.75812ZM281.958,42.62749l1.16952.75812.66726-1.02752-1.17057-.75914Zm-2.34114-1.51827,1.17057.75914.66726-1.02752-1.17057-.75914Z"/>
    <polyline points="363.882 95.754 364.471 96.136 365.137 95.109 364.548 94.727"/>
    <path d="M184.971,58.46,171.97883,45.46882a.61213.61213,0,0,0-.86567.8657l12.99216,12.99213A.61247.61247,0,1,0,184.971,58.46"/>
    <path d="M195.79848,47.63247,182.80632,34.64136a.61211.61211,0,0,0-.86567.86564l12.99219,12.99219a.61248.61248,0,0,0,.86564-.86672"/>
    <path d="M185.822,43.75113l-5.5991,5.60012a.61211.61211,0,0,0,.86567.86563l5.60012-5.5991a.61283.61283,0,0,0-.86669-.86665"/>
    <path d="M188.869,41.57078a18.50115,18.50115,0,0,1-5.76095,1.64256l2.80478,1.31464,1.31467,2.80373a18.46922,18.46922,0,0,1,1.6415-5.76093"/>
    <path d="M178.04258,52.39824a18.54975,18.54975,0,0,0,1.64256-5.76194l1.31362,2.80475,2.80478,1.31464a18.47426,18.47426,0,0,0-5.761,1.64255"/>
    <path d="M180.6124,43.08491c-.2485.40516-.81866,1.30732-1.54542,1.30732a.58145.58145,0,0,1-.62131-.63275,3.09344,3.09344,0,0,1,.10337-.67457l-.0209.01039c-.30073.50854-.79881,1.31783-1.69058,1.31783-.86149,0-1.09957-.86149-1.09957-1.31783,0-1.60705,1.58618-3.60983,2.79015-3.60983a.96156.96156,0,0,1,.778.34353c.22868-.8615.48763-1.75428.48763-1.90986,0-.2485-.19735-.31013-.426-.31013h-.21721v-.27985a12.72057,12.72057,0,0,0,2.16782-.30179l-1.1518,4.20091c-.10338.3738-.591,2.13751-.591,2.29308a.12888.12888,0,0,0,.12425.14513c.21826,0,.63282-.65366.685-.74658l.22762.165m-3.15248.58158c.98575,0,1.69058-2.905,1.69058-3.2057,0-.06163-.01045-.53887-.3947-.53887-.90222,0-1.73236,2.4059-1.73236,3.13164C177.02344,43.10576,177.04432,43.66649,177.45992,43.66649Z"/>
    <path d="M175.43726,60.61943,164.60661,71.45007a.61248.61248,0,1,0,.86672.86564l10.8296-10.83065a.61211.61211,0,0,0-.86567-.86563"/>
    <path d="M185.773,70.91331,174.9423,81.74293a.61248.61248,0,1,0,.86672.86564L186.63859,71.779a.61212.61212,0,1,0-.86564-.8657"/>
    <path d="M172.63564,69.513l5.08846,5.08846a.61211.61211,0,0,0,.86567-.86564l-5.08744-5.08846a.61247.61247,0,1,0-.86669.86564"/>
    <path d="M170.45425,66.467a18.53534,18.53534,0,0,1,1.64255,5.761l1.31467-2.80481,2.80271-1.31464a18.47036,18.47036,0,0,1-5.75993-1.64153"/>
    <path d="M180.77008,76.78181a18.53679,18.53679,0,0,0-5.761-1.64255l2.80477-1.31363,1.31363-2.80474a18.53554,18.53554,0,0,0,1.64255,5.76092"/>
    <path d="M173.03347,75.9381c-.34146.53881-.93352,1.30629-1.56528,1.30629a.69048.69048,0,0,1-.69547-.68393,2.70333,2.70333,0,0,1,.13474-.65372l-.02091.01045c-.2694.45634-.79779,1.31681-1.65925,1.31681-1.02647,0-1.1309-1.00559-1.1309-1.3481,0-1.52458,1.54546-3.57854,2.81106-3.57854a.7259.7259,0,0,1,.77794.70586h.02087l.17648-.57119,1.15072-.072-.73616,2.44765a7.11954,7.11954,0,0,0-.353,1.535c0,.14518.094.15563.13575.15563.1963,0,.47721-.37386.73616-.72574l.21721.15558m-1.57573-2.68677c0-.43543-.29028-.50854-.38425-.50854-.8709,0-1.701,2.48939-1.701,3.164,0,.47724.31115.59107.4563.59107C170.731,76.49781,171.45774,74.01881,171.45774,73.25133Z"/>
    <polyline class="cls-8" points="340.401 141.771 329.574 134.75 340.401 127.728 351.228 134.75 340.401 141.771"/>
    <polyline class="cls-8" points="340.401 163.425 329.644 156.449 329.714 156.403 329.644 156.358 340.401 149.383 351.228 156.403 340.401 163.425"/>
    <polyline class="cls-8" points="318.887 163.425 308.06 156.403 318.887 149.383 329.644 156.358 329.574 156.403 329.644 156.449 318.887 163.425"/>
    <polyline class="cls-9" points="329.644 156.449 329.574 156.403 329.644 156.358 329.714 156.403 329.644 156.449"/>
    <polyline class="cls-8" points="329.574 174.532 318.748 167.512 329.574 160.491 340.401 167.512 329.574 174.532"/>
    <polyline class="cls-8" points="329.574 152.598 318.748 145.577 329.574 138.557 340.401 145.577 329.574 152.598"/>
    <path d="M396.42217,155.27368c-.26839.39471-.86048,1.26557-1.54441,1.26557-.48763,0-.81974-.38324-1.0265-1.60706-.08457.13474-.1984.32161-.32262.52836-.50751.84065-.79884,1.0787-1.30636,1.0787a.60586.60586,0,0,1-.6432-.62128.568.568,0,0,1,.57118-.57119c.38324.02084.425.21823.64219.21823.22868,0,.38425-.24958.48763-.42606l.45633-.72574-.31115-1.5966c-.13575-.69547-.3947-.69547-.59107-.69547-.11376,0-.2485.01045-.35289.01988v-.27883l1.73235-.24958a3.61167,3.61167,0,0,1,.46673,1.43165c.76755-1.08915,1.1309-1.43165,1.6697-1.43165a.654.654,0,0,1,.57119.64326.57392.57392,0,0,1-.58164.53881c-.29024,0-.36233-.20675-.61191-.20675-.36233,0-.78731.77794-.93351.98469l.332,1.61852c.0522.23914.11491.55035.39369.55035.21822,0,.3947-.23913.685-.61191l.21721.1441"/>
    <path d="M398.2579,152.32789c.19732-.10337,1.22382-.63173,1.22382-1.21337,0-.43543-.72574-.38323-.72574-1.04734a.7256.7256,0,0,1,.72574-.76748.89376.89376,0,0,1,.89279.99616c0,1.3794-1.82528,2.23987-1.98194,2.28162l-.13467-.24959"/>
    <rect class="cls-6" x="290.96442" y="155.79165" width="0.64744" height="1.22484"/>
    <path class="cls-6" d="M379.45775,157.01649h1.31152v-1.22484h-1.31152Zm-2.622,0h1.3105v-1.22484h-1.3105Zm-2.623,0h1.3126v-1.22484h-1.3126Zm-2.62209,0H372.901v-1.22484h-1.31038Zm-2.62307,0h1.31155v-1.22484h-1.31155Zm-2.621,0h1.3105v-1.22484h-1.3105Zm-2.62307,0h1.31257v-1.22484H363.7235Zm-2.62205,0H362.413v-1.22484h-1.31155Zm-2.621,0h1.30945v-1.22484h-1.30945Zm-2.62307,0h1.31155v-1.22484h-1.31155Zm-2.622,0h1.3105v-1.22484h-1.3105Zm-2.62307,0h1.31155v-1.22484h-1.31155Zm-2.62205,0h1.3105v-1.22484h-1.3105Zm-2.62307,0h1.31257v-1.22484h-1.31257Zm-2.621,0h1.3105v-1.22484h-1.3105Zm-2.62307,0h1.3105v-1.22484h-1.3105Zm-2.62205,0h1.31155v-1.22484h-1.31155Zm-2.622,0h1.31155v-1.22484H334.879Zm-2.62307,0h1.31257v-1.22484H332.256Zm-2.621,0h1.3105v-1.22484H329.635Zm-2.62307,0h1.31155v-1.22484h-1.31155Zm-2.62205,0h1.3105v-1.22484h-1.3105Zm-2.62307,0h1.31155v-1.22484h-1.31155Zm-2.621,0h1.3105v-1.22484h-1.3105Zm-2.6231,0h1.31155v-1.22484H316.5227Zm-2.622,0h1.31155v-1.22484h-1.31155Zm-2.62205,0h1.3105v-1.22484h-1.3105Zm-2.622,0h1.3105v-1.22484h-1.3105Zm-2.62307,0h1.31257v-1.22484h-1.31257Zm-2.62205,0H304.723v-1.22484h-1.31155Zm-2.622,0H302.101v-1.22484h-1.31155Zm-2.621,0h1.3105v-1.22484h-1.3105Zm-2.62307,0H296.857v-1.22484H295.5454Zm-2.622,0h1.31155v-1.22484h-1.31155Z"/>
    <rect class="cls-6" x="382.07984" y="155.79165" width="0.64843" height="1.22484"/>
    <path class="cls-6" d="M390.12027,156.40349a37.04007,37.04007,0,0,0-10.46934,5.82574l2.10724-5.82574-2.10724-5.82465a36.95889,36.95889,0,0,0,10.46934,5.82465"/>
    <rect class="cls-6" x="339.92992" y="181.32383" width="1.22487" height="0.5889"/>
    <path class="cls-6" d="M339.92992,123.36962h1.22593v-1.18309h-1.22593Zm0,2.36517h1.22593V124.5517h-1.22593Zm0,2.36619h1.22593v-1.183h-1.22593Zm0,2.36517h1.22593v-1.18309h-1.22593Zm0,2.36518h1.22593v-1.1831h-1.22593Zm0,2.36619h1.22593v-1.18323h-1.22593Zm0,2.36408h1.22593v-1.181h-1.22593Zm0,2.36619h1.22593V138.7447h-1.22593Zm0,2.36626h1.22593V141.111h-1.22593Zm0,2.36409h1.22593v-1.18208h-1.22593Zm0,2.36619h1.22593v-1.1831h-1.22593Zm0,2.36619h1.22593v-1.1831h-1.22593Zm0,2.36415h1.22593v-1.18208h-1.22593Zm0,2.36511h1.22593V152.9377h-1.22593Zm0,2.36517h1.22593v-1.181h-1.22593Zm0,2.36619h1.22593v-1.18208h-1.22593Zm0,2.36517h1.22488v-1.18208h-1.22488Zm0,2.36517h1.22488v-1.181h-1.22488Zm0,2.36619h1.22488v-1.18208h-1.22488Zm0,2.36517h1.22488v-1.1831h-1.22488Zm0,2.36517h1.22488v-1.18309h-1.22488Zm0,2.36619h1.22488v-1.183h-1.22488Zm0,2.36511h1.22488v-1.1831h-1.22488Zm0,2.36517h1.22488v-1.1831h-1.22488Zm0,2.36619h1.22488v-1.1831h-1.22488Z"/>
    <rect class="cls-6" x="339.92992" y="120.41447" width="1.22592" height="0.59107"/>
    <path class="cls-6" d="M340.54391,113.02246a37.001,37.001,0,0,0,5.82465,10.46934l-5.82465-2.10826-5.82463,2.10826a37.05192,37.05192,0,0,0,5.82463-10.46934"/>
    <path d="M347.38563,113.49346a9.61567,9.61567,0,0,0,1.54545-.24959,22.73417,22.73417,0,0,1,.684,2.87263l.12425.74766h.022a7.39459,7.39459,0,0,0,.88132-2.07486c0-.46781-.57017-.30076-.57017-.96487a.61517.61517,0,0,1,.58059-.58056.66775.66775,0,0,1,.65263.64219c0,1.21337-1.33761,3.37179-1.43057,3.52736-1.05779,1.75326-1.97043,2.7484-2.998,2.7484a.62754.62754,0,0,1-.61191-.62236.56189.56189,0,0,1,.55032-.57118,1.43733,1.43733,0,0,1,.52838.1775.91046.91046,0,0,0,.426.18482,1.48288,1.48288,0,0,0,.94295-1.23217,24.953,24.953,0,0,0-.46574-2.74942c-.353-1.57678-.45735-1.57678-.86149-1.57678v-.27877"/>
    <path d="M352.86153,113.95916c.1963-.10338,1.22382-.63281,1.22382-1.21337,0-.43549-.72679-.38323-.72679-1.0474a.72668.72668,0,0,1,.72679-.76851.89461.89461,0,0,1,.89177.99725c0,1.37939-1.82531,2.2398-1.98089,2.28053l-.1347-.2485"/>
    <path d="M330.14872,145.14373,313.907,128.903a.61249.61249,0,0,0-.86567.86672l16.24176,16.23969a.61211.61211,0,1,0,.86567-.86563"/>
    <path d="M319.32123,155.97017l-16.24075-16.23868a.61213.61213,0,0,0-.86566.8657l16.23864,16.2397a.61323.61323,0,0,0,.86777-.86672"/>
    <path d="M318.54747,139.63755l-5.59809,5.5991a.61247.61247,0,1,0,.86567.86666l5.5991-5.5991a.61283.61283,0,1,0-.86668-.86666"/>
    <path d="M321.5945,137.45619a18.46426,18.46426,0,0,1-5.75994,1.64147l2.80373,1.31674,1.31467,2.80169a18.49782,18.49782,0,0,1,1.64154-5.7599"/>
    <path d="M310.768,148.28365a18.49527,18.49527,0,0,0,1.64151-5.762l1.31467,2.80583,2.80583,1.31362a18.54644,18.54644,0,0,0-5.762,1.64256"/>
    <path d="M313.3389,138.44814c-.24854.40516-.81867,1.30738-1.54441,1.30738a.582.582,0,0,1-.62341-.63281,3.17,3.17,0,0,1,.10337-.67457l-.01982.01046c-.30073.50853-.79986,1.31783-1.69061,1.31783-.86146,0-1.10059-.8615-1.10059-1.31783,0-1.60706,1.58825-3.60882,2.7912-3.60882a.96587.96587,0,0,1,.77794.34149c.22763-.86047.48766-1.75326.48766-1.90781,0-.24959-.1984-.31224-.425-.31224H311.877v-.27985a12.77866,12.77866,0,0,0,2.16778-.3007l-1.15177,4.2009c-.10337.3738-.591,2.13751-.591,2.292a.12863.12863,0,0,0,.12429.1462c.21822,0,.63278-.65366.684-.74766l.22868.166m-3.15357.58164c.98575,0,1.69167-2.905,1.69167-3.20576,0-.06157-.01046-.53881-.39474-.53881-.90324,0-1.73236,2.4059-1.73236,3.13266C309.7499,138.47007,309.77078,139.02978,310.18533,139.02978Z"/>
    <path d="M358.08157,137.13561c-.78839.70483-2.30248,2.05395-2.30248,5.99482a4.77033,4.77033,0,0,0,.73616,2.6043l-.23913.15558a6.60181,6.60181,0,0,1-1.47236-3.94189c0-1.31681.31118-3.13164,3.09091-5.02065l.1869.20784"/>
    <path d="M361.55569,142.75765a2.51479,2.51479,0,0,1-2.09469,1.41075,1.50473,1.50473,0,0,1-1.5465-1.59768c0-1.58717,1.49427-3.329,2.9259-3.329.81866,0,1.19249.45532,1.19249.91267a.655.655,0,0,1-.65263.74658.55956.55956,0,0,1-.59206-.53982c0-.29031.21717-.45532.21717-.60146,0-.13474-.1441-.17648-.23807-.17648-.90219,0-1.52456,2.17824-1.52456,2.91545,0,.82912.45634,1.00559.75812,1.00559.46571,0,.85-.33205,1.26455-.93357l.29028.18693"/>
    <polyline points="362.87 144.448 365.1 137.384 365.598 137.384 363.357 144.448 362.87 144.448"/>
    <path d="M370.3167,142.90284c-.11383.3216-.1963.6432-.32059,1.13083h-3.64119v-.167c.57014-.56908,1.15072-1.15072,1.64986-1.74179a4.09854,4.09854,0,0,0,1.38988-2.46956c0-.94288-.48767-1.441-1.30738-1.441a1.79157,1.79157,0,0,0-1.44208.96487l-.15557-.1253.56073-.77692a1.83141,1.83141,0,0,1,1.29587-.55028,1.5577,1.5577,0,0,1,1.60814,1.58723,3.60745,3.60745,0,0,1-1.31783,2.45912l-1.60811,1.75218H369.166c.51793,0,.67351-.05112.944-.685l.20676.06272"/>
    <path d="M370.20287,145.67208c.19738-.10446,1.22382-.63173,1.22382-1.21337,0-.43543-.72574-.38323-.72574-1.04734a.725.725,0,0,1,.72574-.76755.89276.89276,0,0,1,.89177.99514c0,1.3794-1.82528,2.24089-1.98086,2.28162l-.13473-.2485"/>
    <path d="M377.007,142.75765a2.51629,2.51629,0,0,1-2.09469,1.41075,1.50473,1.50473,0,0,1-1.5465-1.59768c0-1.58717,1.49431-3.329,2.9259-3.329.81866,0,1.19253.45532,1.19253.91267a.655.655,0,0,1-.65264.74658.55955.55955,0,0,1-.59209-.53982c0-.29031.21721-.45532.21721-.60146,0-.13474-.1441-.17648-.23811-.17648-.90222,0-1.52452,2.17824-1.52452,2.91545,0,.82912.45627,1.00559.757,1.00559.46679,0,.851-.33205,1.26557-.93357l.29031.18693"/>
    <polyline points="378.321 144.448 380.551 137.384 381.049 137.384 378.808 144.448 378.321 144.448"/>
    <path d="M385.768,142.90284c-.11383.3216-.1963.6432-.32058,1.13083h-3.64221v-.167c.57118-.56908,1.15173-1.15072,1.64982-1.74179a4.09463,4.09463,0,0,0,1.39093-2.46956c0-.94288-.48769-1.441-1.30738-1.441a1.78812,1.78812,0,0,0-1.44205.96487l-.15557-.1253.55965-.77692a1.836,1.836,0,0,1,1.29692-.55028,1.55768,1.55768,0,0,1,1.60814,1.58723,3.60745,3.60745,0,0,1-1.31783,2.45912l-1.60807,1.75218h2.13751c.5179,0,.67348-.05112.944-.685l.20675.06272"/>
    <path d="M385.81918,145.68253a5.53446,5.53446,0,0,0,1.80546-2.68575,10.67823,10.67823,0,0,0,.48661-3.02928,4.93308,4.93308,0,0,0-.74563-2.88416l.23811-.15557a6.5382,6.5382,0,0,1,1.48386,4.03487c0,2.09577-1.24473,3.70283-3.09193,4.92767l-.17648-.20778"/>
    <path d="M341.43465,189.02386a2.51581,2.51581,0,0,1-2.09471,1.40967,1.50365,1.50365,0,0,1-1.54546-1.5966c0-1.58826,1.49428-3.33,2.9259-3.33.81867,0,1.19148.45634,1.19148.91261,0,.46679-.259.74664-.65264.74664a.55844.55844,0,0,1-.591-.5388c0-.29133.2172-.45634.2172-.60146,0-.13474-.14515-.17648-.23913-.17648-.90222,0-1.52458,2.17824-1.52458,2.91545,0,.82911.45739,1.00451.75812,1.00451.46573,0,.85-.331,1.2656-.93249l.28925.18693"/>
    <path d="M362.63856,160.33187c-.78839.70484-2.30252,2.054-2.30252,5.99483a4.763,4.763,0,0,0,.73619,2.60328l-.23913.15659a6.60236,6.60236,0,0,1-1.47235-3.943c0-1.31573.31118-3.13157,3.09088-5.01957l.18693.20784"/>
    <path d="M364.38133,167.3741c-1.31779,0-1.68012-1.3481-1.68012-2.29207,0-2.13649,1.34807-4.93709,3.20471-4.93709.92309,0,1.56633.99514,1.56633,2.33381,0,2.42782-1.38988,4.89535-3.09092,4.89535m1.48281-6.9284c-.591,0-1.016,1.41069-1.2541,2.17824a23.11742,23.11742,0,0,0-.84062,3.74457c0,.24958.08251.70483.52839.70483.65369,0,.98574-1.12988,1.2447-2.00176a24.56466,24.56466,0,0,0,.86044-3.83749C366.40295,160.72556,366.24842,160.4457,365.86414,160.4457Z"/>
    <path d="M367.088,168.86835c.1963-.1044,1.22382-.63282,1.22382-1.21337,0-.43543-.72676-.38324-.72676-1.04734a.72609.72609,0,0,1,.72676-.76857.89426.89426,0,0,1,.89177.99616c0,1.37946-1.82633,2.24089-1.98089,2.28162l-.1347-.2485"/>
    <path d="M373.89,165.95392a2.51369,2.51369,0,0,1-2.09468,1.40973,1.50307,1.50307,0,0,1-1.54549-1.5966c0-1.58724,1.49431-3.329,2.9259-3.329.81867,0,1.19145.45531,1.19145.91267a.655.655,0,0,1-.65264.74664.5593.5593,0,0,1-.591-.53989c0-.29031.21721-.45633.21721-.60146,0-.13473-.14512-.17648-.23913-.17648-.90222,0-1.52458,2.17824-1.52458,2.91545,0,.82912.45742,1.0056.75811,1.0056.46571,0,.851-.33205,1.26564-.93351l.28922.18687"/>
    <path d="M374.44972,168.8788a5.53309,5.53309,0,0,0,1.80546-2.68677,10.65491,10.65491,0,0,0,.48763-3.02826,4.92621,4.92621,0,0,0-.74664-2.8841l.23811-.15564a6.53176,6.53176,0,0,1,1.48385,4.03488c0,2.09577-1.24472,3.70282-3.09193,4.92766l-.17648-.20777"/>
    <path d="M329.1024,167.51189v20.9773a.61244.61244,0,0,0,1.22487,0v-20.9773a.61244.61244,0,0,0-1.22487,0"/>
    <path d="M350.75636,167.51189v20.9773a.613.613,0,0,0,1.22593,0v-20.9773a.613.613,0,0,0-1.22593,0"/>
    <path d="M341.751,156.40458a1.20869,1.20869,0,1,1-1.2092-1.20923,1.2099,1.2099,0,0,1,1.2092,1.20923"/>
    <path d="M352.57855,145.57705a1.20921,1.20921,0,1,1-1.20922-1.20922,1.209,1.209,0,0,1,1.20922,1.20922"/>
    <path d="M341.751,134.74953a1.20869,1.20869,0,1,1-1.2092-1.20814,1.2084,1.2084,0,0,1,1.2092,1.20814"/>
    <path d="M363.405,156.40349a1.2092,1.2092,0,1,1-1.20919-1.20814,1.20861,1.20861,0,0,1,1.20919,1.20814"/>
    <path d="M352.57855,167.231a1.20921,1.20921,0,1,1-1.20922-1.20923,1.20861,1.20861,0,0,1,1.20922,1.20923"/>
    <path d="M341.75208,178.19946a1.20921,1.20921,0,1,1-1.20919-1.20916,1.21058,1.21058,0,0,1,1.20919,1.20916"/>
    <path d="M330.92354,167.51189a1.20974,1.20974,0,1,1-1.2092-1.20916,1.20994,1.20994,0,0,1,1.2092,1.20916"/>
    <path d="M319.95612,156.54447a1.20869,1.20869,0,1,1-1.20818-1.20814,1.20907,1.20907,0,0,1,1.20818,1.20814"/>
    <path d="M330.92354,145.57705a1.20921,1.20921,0,1,1-1.2092-1.20922,1.20838,1.20838,0,0,1,1.2092,1.20922"/>
    <path d="M333.4119,183.80175h14.26091a.613.613,0,0,0,0-1.22593H333.4119a.613.613,0,0,0,0,1.22593"/>
    <path d="M329.71641,183.18875a18.49928,18.49928,0,0,1,5.23467,2.91233l-1.05362-2.91233,1.05362-2.91124a18.4967,18.4967,0,0,1-5.23467,2.91124"/>
    <path d="M351.36933,183.18875a18.51936,18.51936,0,0,0-5.23569,2.91233l1.05464-2.91233-1.05464-2.91124a18.51678,18.51678,0,0,0,5.23569,2.91124"/>
    <path class="cls-10" d="M340.1231,51.12745,318.47121,65.1701a.6123.6123,0,1,0,.66621,1.02752L340.78931,52.155a.6123.6123,0,0,0-.66621-1.02752"/>
    <path class="cls-10" d="M334.6566,47.64394,313.05069,61.6553a.61273.61273,0,0,0,.66621,1.02854l21.607-14.01238a.61258.61258,0,1,0-.66726-1.02752"/>
    <path class="cls-10" d="M345.6209,54.58171l-21.73854,14.098a.612.612,0,0,0,.66516,1.02752l21.73959-14.098a.6123.6123,0,1,0-.66621-1.02752"/>
    <path class="cls-10" d="M329.29663,44.10612,307.64372,58.14776a.61273.61273,0,0,0,.66621,1.02854l21.654-14.04163a.613.613,0,0,0-.66726-1.02855"/>
    <path class="cls-10" d="M350.9527,58.14878l-21.655,14.04265a.61258.61258,0,1,0,.66726,1.02752L351.61786,59.1763a.612.612,0,0,0-.66516-1.02752"/>
    <path class="cls-10" d="M367.137,68.73717,345.48412,82.77982a.6123.6123,0,1,0,.66622,1.02752L367.8022,69.76469a.612.612,0,1,0-.66516-1.02752"/>
    <path class="cls-10" d="M361.67057,65.25366,340.06357,79.265a.61276.61276,0,0,0,.66622,1.02861l21.607-14.01238a.6123.6123,0,1,0-.66621-1.02752"/>
    <path class="cls-10" d="M372.63483,72.19143l-21.73854,14.098a.61184.61184,0,1,0,.66621,1.02643L373.301,73.219a.6123.6123,0,1,0-.66621-1.02752"/>
    <path class="cls-10" d="M356.30954,61.71584,334.6566,75.75748a.613.613,0,0,0,.66726,1.02854l21.65292-14.04265a.61258.61258,0,1,0-.66724-1.02753"/>
    <path class="cls-10" d="M377.96561,75.7585l-21.654,14.04163a.613.613,0,0,0,.66726,1.02854L378.63074,76.786a.612.612,0,1,0-.66513-1.02752"/>
    <path class="cls-10" d="M318.46914,37.15268,296.81622,51.19431a.61273.61273,0,0,0,.66622,1.02854L319.13535,38.1802a.6123.6123,0,1,0-.66621-1.02752"/>
    <path class="cls-10" d="M313.00161,33.66916,291.39567,47.68052a.61273.61273,0,0,0,.66622,1.02854l21.60594-14.01238a.6123.6123,0,1,0-.66622-1.02752"/>
    <path class="cls-10" d="M323.96486,40.60693,302.22632,54.705a.61329.61329,0,0,0,.66828,1.02854l21.73647-14.098a.61276.61276,0,0,0-.66621-1.02861"/>
    <path class="cls-10" d="M307.64059,30.13237,285.98975,44.175a.612.612,0,0,0,.66516,1.02752L308.3068,31.15989a.6123.6123,0,1,0-.66621-1.02752"/>
    <path class="cls-10" d="M318.47121,55.722,340.1231,69.76469a.61273.61273,0,0,0,.66621-1.02854L319.13742,54.69452a.6123.6123,0,0,0-.66621,1.02752"/>
    <path class="cls-10" d="M323.93666,52.23853l21.607,14.01129a.61258.61258,0,0,0,.66723-1.02752L324.60392,51.211a.61258.61258,0,0,0-.66726,1.02752"/>
    <path class="cls-10" d="M312.97341,59.1763l21.73959,14.098a.61244.61244,0,0,0,.66516-1.02854L313.63962,58.14878a.6123.6123,0,0,0-.66621,1.02752"/>
    <path class="cls-10" d="M329.29768,48.70275l21.654,14.04164a.61245.61245,0,0,0,.66517-1.02855L329.96389,47.67421a.61273.61273,0,1,0-.66621,1.02854"/>
    <path class="cls-10" d="M307.64266,62.74337l21.653,14.04265a.613.613,0,0,0,.66723-1.02854l-21.654-14.04164a.6123.6123,0,1,0-.66622,1.02753"/>
    <path class="cls-10" d="M296.81829,69.76469l21.6519,14.04157a.61227.61227,0,1,0,.66621-1.02746L297.48346,68.73717a.612.612,0,1,0-.66517,1.02752"/>
    <path class="cls-10" d="M302.28269,66.28118l21.608,14.01129a.6123.6123,0,1,0,.66621-1.02752L302.95,65.25366a.61259.61259,0,0,0-.66727,1.02752"/>
    <path class="cls-10" d="M291.32152,73.219l21.73542,14.09593a.61216.61216,0,1,0,.66726-1.0265l-21.73647-14.097a.6123.6123,0,1,0-.66621,1.02752"/>
    <path class="cls-10" d="M285.9908,76.786l21.65084,14.04265a.61273.61273,0,0,0,.66622-1.02854L286.656,75.7585a.612.612,0,0,0-.66516,1.02752"/>
    <path class="cls-10" d="M340.12415,41.68041l21.654,14.04265a.6123.6123,0,1,0,.66621-1.02752l-21.654-14.04265a.6123.6123,0,0,0-.66621,1.02752"/>
    <path class="cls-10" d="M345.59167,38.19689l21.60595,14.01136a.61258.61258,0,1,0,.66723-1.02752l-21.607-14.01136a.6123.6123,0,0,0-.66622,1.02752"/>
    <path class="cls-10" d="M334.62738,45.13467l21.73854,14.098a.61273.61273,0,0,0,.66621-1.02854l-21.73854-14.098a.61273.61273,0,0,0-.66621,1.02855"/>
    <path class="cls-10" d="M350.9527,34.65908l21.65186,14.04367a.61316.61316,0,0,0,.66621-1.02956L351.61786,33.63264a.61156.61156,0,1,0-.66516,1.02644"/>
    <path class="cls-10" d="M356.41815,31.17557l21.60591,14.01136a.61259.61259,0,1,0,.66729-1.02752l-21.606-14.01136a.61258.61258,0,1,0-.66723,1.02752"/>
    <path class="cls-10" d="M361.77914,27.63775,383.431,41.67939a.61259.61259,0,1,0,.66729-1.02752l-21.654-14.04164a.612.612,0,1,0-.66519,1.02752"/>
    <path d="M353.09126,60.69043h.88654a.17336.17336,0,0,0,0-.34672h-.88654a.17336.17336,0,0,0,0,.34672m-3.45636,0h1.72818a.17336.17336,0,0,0,0-.34672H349.6349a.17336.17336,0,1,0,0,.34672Zm-3.45741,0h1.72923a.17336.17336,0,0,0,0-.34672h-1.72923a.17336.17336,0,1,0,0,.34672Zm-3.45637,0h1.72819a.17336.17336,0,0,0,0-.34672h-1.72819a.17336.17336,0,0,0,0,.34672Zm-3.45741,0h1.72818a.17336.17336,0,0,0,0-.34672h-1.72818a.17336.17336,0,1,0,0,.34672Zm-3.45636,0h1.72818a.17336.17336,0,0,0,0-.34672h-1.72818a.17336.17336,0,1,0,0,.34672Zm-3.45847,0h1.72819a.17336.17336,0,0,0,0-.34672h-1.72819a.17336.17336,0,0,0,0,.34672Z"/>
    <path d="M343.33721,50.58966v-.88545a.17282.17282,0,1,0-.34563,0v.88545a.17282.17282,0,0,0,.34563,0m0,3.45636V52.31788a.17282.17282,0,0,0-.34563,0V54.046a.17282.17282,0,1,0,.34563,0Zm0,3.45745V55.77424a.17282.17282,0,0,0-.34563,0v1.72923a.17282.17282,0,1,0,.34563,0Zm0,3.45738V59.2327a.17282.17282,0,1,0-.34563,0v1.72815a.17282.17282,0,0,0,.34563,0Zm0,3.45636V62.68906a.17282.17282,0,1,0-.34563,0v1.72815a.17282.17282,0,1,0,.34563,0Zm0,3.45745V66.14645a.17282.17282,0,0,0-.34563,0v1.72821a.17282.17282,0,1,0,.34563,0Zm0,3.45738V69.60281a.17282.17282,0,0,0-.34563,0V71.332a.17282.17282,0,0,0,.34563,0Z"/>
    <path d="M331.41327,60.69043h.93561a.17336.17336,0,0,0,0-.34672h-.93561a.17336.17336,0,0,0,0,.34672m-3.45741,0H329.684a.17336.17336,0,0,0,0-.34672h-1.72818a.17336.17336,0,0,0,0,.34672Zm-3.45742,0h1.72818a.17336.17336,0,0,0,0-.34672h-1.72818a.17336.17336,0,0,0,0,.34672Zm-3.45738,0h1.72818a.17336.17336,0,0,0,0-.34672h-1.72818a.17336.17336,0,0,0,0,.34672Zm-3.45741,0h1.7292a.17336.17336,0,0,0,0-.34672h-1.7292a.17336.17336,0,0,0,0,.34672Zm-3.45636,0h1.72818a.17336.17336,0,0,0,0-.34672h-1.72818a.17336.17336,0,0,0,0,.34672Zm-3.45742,0h1.72923a.17336.17336,0,0,0,0-.34672h-1.72923a.17336.17336,0,0,0,0,.34672Z"/>
    <path class="cls-11" d="M309.96188,79.81944s-.34875.27151-1.00139.78112c-.32686.25583-.72991.57119-1.20295.94085q-.3571.27714-.76751.59623c-.306.2151-.63279.44378-.97634.68393q-1.03531.72054-2.28057,1.58825-1.25619.77381-2.70975,1.66971c-.95024.61822-2.03831,1.14237-3.14833,1.75746-1.10372.62753-2.31817,1.17787-3.57644,1.76678-1.24575.61713-2.59174,1.14447-3.97847,1.7-1.3721.591-2.84655,1.04938-4.345,1.56633a78.05838,78.05838,0,0,1-9.58381,2.47893,75.11229,75.11229,0,0,1-10.55185,1.28647,72.34008,72.34008,0,0,1-10.91522-.28712,62.2068,62.2068,0,0,1-20.59722-5.69,47.33806,47.33806,0,0,1-14.925-11.08125,38.69683,38.69683,0,0,1-6.93152-11.13766,36.23116,36.23116,0,0,1-1.181-3.48141c-.23078-.81343-.355-1.24676-.355-1.24676l1.465-.40937s.141.40937.40621,1.17583a34.322,34.322,0,0,0,1.30632,3.25165,35.325,35.325,0,0,0,2.67527,4.72091,34.83211,34.83211,0,0,0,4.43793,5.42473,44.33774,44.33774,0,0,0,14.53656,9.59847,58.161,58.161,0,0,0,19.51543,4.25,67.50082,67.50082,0,0,0,10.16546-.29133,69.69383,69.69383,0,0,0,9.64755-1.71776,71.58584,71.58584,0,0,0,8.77038-2.78805c1.34705-.55136,2.67425-1.04007,3.89807-1.653,1.23845-.57852,2.43824-1.12147,3.53781-1.748,1.11315-.59833,2.18554-1.15492,3.15146-1.78041.97112-.61293,1.92971-1.13293,2.75255-1.74172q1.25619-.87093,2.34531-1.628,1.00874-.78785,1.84931-1.44415c.27673-.21612.542-.42084.78944-.614.25895-.22448.50331-.43543.72887-.63174.45111-.3968.83641-.732,1.14864-1.00559.62444-.54506.95649-.83638.95649-.83638l4.94334,5.976"/>
    <path class="cls-11" d="M314.45411,69.61747c-4.5601,2.13018-10.79721,4.1988-15.59852,4.5601l7.63218,3.51583,3.61611,7.58314c.29761-4.80548,2.28267-11.0708,4.35023-15.65907"/>
    <path d="M372.17537,22.90327h-.93453c-.87093,4.15909-1.3272,6.34778-3.12118,6.34778-.53986,0-1.00665-.24951-1.00665-.87086a.57836.57836,0,0,1,.52944-.50853.54335.54335,0,0,1,.51793.50853c0,.21721-.165.37278-.165.425,0,.06265.05118.12428.165.12428.49914,0,.64324-.54926.95442-1.96.27042-1.22484.70585-3.2266.91261-4.06617h-.757l.09293-.43543h.75812c.353-1.41075,1.04734-2.5834,2.35471-2.5834.91268,0,1.01605.62237,1.01605.83014a.51732.51732,0,0,1-.53887.54926.50286.50286,0,0,1-.4991-.5179c0-.19739.16705-.353.16705-.41561,0-.11383-.09293-.14519-.17648-.14519-.53983,0-.84059,1.1309-.944,1.54549l-.18585.73721h.9534l-.093.43543"/>
    <path d="M372.35083,30.43938c.27043-.00523.59732-.01772.71739-.44691l.77271-2.77135a.50424.50424,0,0,0,.025-.13365c0-.211-.19942-.211-.25372-.211a3.08743,3.08743,0,0,0-.40414.03028l.01147-.13888a15.533,15.533,0,0,0,1.63006-.31325l-.92937,3.38115a1.08078,1.08078,0,0,0-.0731.32581c0,.26.20675.27776.58686.27776v.13887h-2.08321v-.13887"/>
    <path d="M378.91168,20.227c-.78839.70483-2.30252,2.054-2.30252,5.99482a4.77039,4.77039,0,0,0,.73619,2.60431l-.23913.15557a6.59824,6.59824,0,0,1-1.47238-3.94189c0-1.31783.31121-3.13265,3.09091-5.01956l.18693.20675"/>
    <path d="M383.1637,25.99418c-.26941.39471-.86041,1.26557-1.54441,1.26557-.48763,0-.81968-.38425-1.02752-1.60808-.08349.13467-.19732.32161-.3216.52938-.50853.84059-.79884,1.0787-1.30629,1.0787a.606.606,0,0,1-.64327-.62237.56849.56849,0,0,1,.57017-.57118c.38425.0209.42606.21823.6432.21823.22766,0,.38432-.2485.48661-.425l.45742-.72676-.31121-1.5966c-.13576-.69547-.39471-.69547-.591-.69547-.11485,0-.24958.01045-.353.0209v-.27985l1.73236-.24958a3.60406,3.60406,0,0,1,.4657,1.43159c.76857-1.08909,1.1309-1.43159,1.67079-1.43159a.65565.65565,0,0,1,.57118.6432.57475.57475,0,0,1-.58163.53989c-.29031,0-.36342-.20777-.61191-.20777-.36342,0-.78839.77794-.93352.98571l.33206,1.61852c.0522.23812.11376.54926.39362.54926.21829,0,.39477-.23913.685-.61191l.21721.14519"/>
    <path d="M384.99943,23.04839c.1963-.10439,1.22382-.63275,1.22382-1.21337,0-.43645-.72574-.38425-.72574-1.04836a.72473.72473,0,0,1,.72574-.76646.89257.89257,0,0,1,.89177.99514c0,1.3794-1.82528,2.24089-1.98086,2.28162l-.13473-.24857"/>
    <path d="M386.81324,28.76343c.19738-.10338,1.22382-.63282,1.22382-1.21337,0-.43543-.72574-.38432-.72574-1.04843a.72473.72473,0,0,1,.72574-.76646.89279.89279,0,0,1,.89285.99514c0,1.37946-1.82636,2.24089-1.98194,2.2827l-.13473-.24958"/>
    <path d="M390.17355,22.58167a9.42251,9.42251,0,0,0,1.54651-.24958,22.93372,22.93372,0,0,1,.68393,2.8737l.12428.74658h.02091a7.33812,7.33812,0,0,0,.88131-2.07486c0-.46673-.57017-.3007-.57017-.96487a.61618.61618,0,0,1,.58164-.58055.66946.66946,0,0,1,.65264.6432c0,1.21445-1.33765,3.37179-1.43058,3.52634-1.05887,1.75326-1.97148,2.74942-2.998,2.74942a.62751.62751,0,0,1-.61191-.62236.56085.56085,0,0,1,.54926-.5701,1.44835,1.44835,0,0,1,.52944.17648.89267.89267,0,0,0,.425.18585,1.48386,1.48386,0,0,0,.944-1.23428,24.89725,24.89725,0,0,0-.46672-2.7484c-.353-1.57672-.45634-1.57672-.8615-1.57672v-.27985"/>
    <path d="M395.65047,23.04839c.19739-.10439,1.22383-.63275,1.22383-1.21337,0-.43645-.72574-.38425-.72574-1.04836a.72473.72473,0,0,1,.72574-.76646.89274.89274,0,0,1,.89278.99514c0,1.3794-1.82528,2.24089-1.98187,2.28162l-.13474-.24857"/>
    <path d="M397.63031,28.77388a5.53434,5.53434,0,0,0,1.80444-2.68678,10.65475,10.65475,0,0,0,.48763-3.02826,4.92614,4.92614,0,0,0-.74665-2.88409l.23913-.15455a6.53224,6.53224,0,0,1,1.48386,4.03379c0,2.09577-1.24575,3.70384-3.09193,4.92766l-.17648-.20777"/>
    <path d="M269.98709,29.22811h-.93352c-.87089,4.15909-1.3272,6.34778-3.1222,6.34778-.53884,0-1.0056-.24849-1.0056-.87086a.57738.57738,0,0,1,.52839-.50853.54343.54343,0,0,1,.519.50853c0,.21721-.166.37278-.166.425,0,.06265.05223.12428.166.12428.49812,0,.64324-.54926.95442-1.96.26941-1.22484.70589-3.2266.91264-4.06617h-.757l.09292-.43543h.75812c.35188-1.41075,1.04734-2.5834,2.35469-2.5834.91267,0,1.016.62237,1.016.83014a.517.517,0,0,1-.53985.54926.50267.50267,0,0,1-.49812-.5179c0-.19739.166-.353.166-.41561,0-.11383-.09293-.14519-.17543-.14519-.53986,0-.84059,1.1309-.945,1.54549l-.18584.73721h.95441l-.094.43543"/>
    <path d="M272.18518,36.90418h-2.21584V36.759a17.54991,17.54991,0,0,0,1.40135-1.46085,2.17579,2.17579,0,0,0,.64534-1.28647c0-.11485,0-.68814-.56077-.68814a1.00551,1.00551,0,0,0-.803.519l-.13368-.0731a1.53386,1.53386,0,0,1,1.323-.98992.99533.99533,0,0,1,.98367,1.01394,2.10328,2.10328,0,0,1-.86879,1.4316l-1.18415,1.00872h.90012a.75568.75568,0,0,0,.83852-.48349h.1514l-.47721,1.15391"/>
    <path d="M276.72441,26.55179c-.78839.70585-2.30252,2.054-2.30252,5.99591a4.76917,4.76917,0,0,0,.73619,2.60322l-.23913.15665a6.605,6.605,0,0,1-1.47235-3.94195c0-1.31783.31118-3.13265,3.09088-5.02058l.18693.20675"/>
    <path d="M280.97646,32.32c-.27045.39369-.86149,1.26455-1.5465,1.26455-.48658,0-.81867-.38323-1.02644-1.60706-.08251.13467-.19633.32161-.32164.52836-.50748.84059-.79884,1.0787-1.30737,1.0787a.60564.60564,0,0,1-.64219-.62237.567.567,0,0,1,.57014-.57016c.38428.0209.425.21829.64326.21829.22868,0,.38321-.24958.48763-.42606l.45634-.72574-.31118-1.59762c-.1347-.69445-.39471-.69445-.591-.69445a3.45343,3.45343,0,0,0-.35293.0209v-.28087l1.73236-.24856a3.6116,3.6116,0,0,1,.46675,1.43165c.76752-1.08915,1.1309-1.43165,1.67076-1.43165a.65294.65294,0,0,1,.56908.64326.57147.57147,0,0,1-.58058.53881c-.29028,0-.36338-.20675-.61191-.20675-.36233,0-.78836.77794-.93352.98469l.33206,1.61853c.05118.23913.11488.54926.3947.54926.21826,0,.39369-.23805.684-.61083l.21826.14512"/>
    <path d="M282.81219,29.37323c.19631-.10337,1.22383-.63275,1.22383-1.21337,0-.43543-.72676-.38323-.72676-1.04734a.72579.72579,0,0,1,.72676-.76748.89359.89359,0,0,1,.89176.99616c0,1.37838-1.82528,2.23987-1.98088,2.28162l-.13471-.24959"/>
    <path d="M284.626,35.08929c.1963-.1044,1.22382-.63276,1.22382-1.21439,0-.43543-.72574-.38324-.72574-1.04735a.72562.72562,0,0,1,.72574-.76754.89361.89361,0,0,1,.89177.99622c0,1.3794-1.82633,2.23981-1.98089,2.28162l-.1347-.24856"/>
    <path d="M287.98628,28.90651a9.28427,9.28427,0,0,0,1.54546-.24856,22.55453,22.55453,0,0,1,.684,2.87268l.1253.74766h.02091a7.35067,7.35067,0,0,0,.88131-2.07486c0-.46679-.57013-.30076-.57013-.96487a.61531.61531,0,0,1,.5816-.58061.66945.66945,0,0,1,.65264.64326c0,1.21337-1.33867,3.37071-1.43057,3.52634-1.05885,1.7532-1.97149,2.74834-2.999,2.74834a.62662.62662,0,0,1-.61191-.62127.56188.56188,0,0,1,.55031-.57119,1.46779,1.46779,0,0,1,.52944.17648.88332.88332,0,0,0,.425.18687,1.48477,1.48477,0,0,0,.94294-1.23428,24.95822,24.95822,0,0,0-.46573-2.74942c-.353-1.5757-.45736-1.5757-.8615-1.5757v-.28087"/>
    <path d="M293.46324,29.37323c.1963-.10337,1.22382-.63275,1.22382-1.21337,0-.43543-.72679-.38323-.72679-1.04734a.72641.72641,0,0,1,.72679-.76748.89359.89359,0,0,1,.89177.99616c0,1.37838-1.82531,2.23987-1.98089,2.28162l-.1347-.24959"/>
    <path d="M295.442,35.09974a5.53794,5.53794,0,0,0,1.80546-2.68678,10.65524,10.65524,0,0,0,.48766-3.02927,4.92341,4.92341,0,0,0-.74664-2.88308l.23811-.15557a6.53156,6.53156,0,0,1,1.48382,4.03481c0,2.09577-1.24472,3.70282-3.09193,4.92772l-.17648-.20783"/>
    <path d="M289.24459,189.06357l-.09191.2318a1.27378,1.27378,0,0,0-.4302.25582,2.68858,2.68858,0,0,0-.42084.71631,8.41226,8.41226,0,0,0-.4657,1.35021,5.131,5.131,0,0,0-.20781,1.20189.79025.79025,0,0,0,.53779.82179l.85-2.91335a3.18746,3.18746,0,0,1,.62338-1.28545,1.20731,1.20731,0,0,1,.91685-.379,1.13692,1.13692,0,0,1,.944.47819,1.9089,1.9089,0,0,1,.36756,1.19674,3.53981,3.53981,0,0,1-.77272,2.13228,2.64127,2.64127,0,0,1-2.23566,1.04836l-.59837,2.05607h-.78l.59833-2.09157q-1.57885-.318-1.5799-1.69577a3.23477,3.23477,0,0,1,.732-2.04669,2.85192,2.85192,0,0,1,2.01327-1.07761m-.29866,4.59764q.83957-.07667,1.30843-1.33134a6.21709,6.21709,0,0,0,.46882-2.06759q0-.556-.30907-.55653a.36857.36857,0,0,0-.26313.11906,2.25206,2.25206,0,0,0-.30911.76225Z"/>
    <path d="M236.46871,125.20535h-1.3011a5.197,5.197,0,0,0,.69859-1.57882l1.559-5.20127a6.28851,6.28851,0,0,1,.55238-1.39507,2.14038,2.14038,0,0,1,.82807-.75812,2.44147,2.44147,0,0,1,1.20817-.308,1.72179,1.72179,0,0,1,1.10059.33939,1.074,1.074,0,0,1,.42814.88131,1.86585,1.86585,0,0,1-.38219,1.086,2.3011,2.3011,0,0,1-1.13714.81241,1.65674,1.65674,0,0,1,.74974,1.3982,3.03041,3.03041,0,0,1-.31848,1.30948,2.376,2.376,0,0,1-.84375,1.00241,1.98151,1.98151,0,0,1-1.086.33626,1.359,1.359,0,0,1-1.05885-.51165l-.283,1.00871a4.58167,4.58167,0,0,1-.71426,1.57882m1.09852-2.89977a.75671.75671,0,0,0,.59731.33206q.55292,0,.97007-.91994a4.824,4.824,0,0,0,.41768-2.01642,2.10592,2.10592,0,0,0-.05013-.49075,1.47954,1.47954,0,0,1-.23285.025.31923.31923,0,0,1-.213-.07623.26583.26583,0,0,1,.1869-.4657.71366.71366,0,0,1,.37488.13677,4.16637,4.16637,0,0,0,.54509-1.03064,3.14249,3.14249,0,0,0,.24015-1.08495c0-.31848-.15245-.47616-.45528-.47616a.62457.62457,0,0,0-.54506.29344,5.79775,5.79775,0,0,0-.50856,1.34077Z"/>
    <path d="M282.44464,136.76486c-.27046.39477-.86044,1.26564-1.54546,1.26564-.48766,0-.81971-.38432-1.02752-1.60706-.08247.13365-.1963.32058-.32055.52734-.50853.84058-.79989,1.07972-1.30737,1.07972a.606.606,0,0,1-.64324-.62237.56911.56911,0,0,1,.57013-.57118c.38429.02192.42607.21822.64324.21822.22871,0,.38428-.2485.48766-.425l.45634-.72574-.31118-1.59768c-.13471-.6954-.39369-.6954-.591-.6954-.11383,0-.24853.01045-.353.02084v-.27986l1.73239-.2485a3.58815,3.58815,0,0,1,.46675,1.43058c.76854-1.08909,1.1309-1.43058,1.67076-1.43058a.65461.65461,0,0,1,.57013.64219.57335.57335,0,0,1-.58164.53989c-.28922,0-.36338-.20784-.61191-.20784-.36338,0-.78839.779-.93249.98578l.331,1.61852c.05219.23811.11382.54926.3947.54926.21826,0,.39369-.23913.684-.61191l.21826.14512"/>
    <path d="M284.28037,133.81812c.1963-.10236,1.22382-.6318,1.22382-1.21337,0-.43549-.72679-.38323-.72679-1.0474a.72641.72641,0,0,1,.72679-.76749.8936.8936,0,0,1,.89177.99616c0,1.37946-1.82531,2.241-1.98089,2.2827l-.1347-.2506"/>
    <path d="M205.71336,196.11517l-.27986-.02091c-.05223-1.54542-.88131-1.58723-1.43162-1.60807l-1.45253,5.24824a2.88227,2.88227,0,0,0-.1138.62236c0,.41555.2694.425.86146.44691v.25895h-3.43338v-.25895a.90206.90206,0,0,0,1.08911-.74767l1.535-5.56984a2.34083,2.34083,0,0,0-2.25029,1.48379l-.26-.073.39366-1.77416h5.71605l-.3738,1.99239"/>
    <path d="M207.76627,199.74488c-.52941.81032-.96484,1.41178-1.73236,1.41178a.65365.65365,0,0,1-.71529-.69547c0-.45735.80825-3.0491.80825-3.28823,0-.332-.31118-.34251-.61191-.332V196.56a15.74037,15.74037,0,0,0,2.09573-.28923c-.40516,1.48277-1.03794,3.67146-1.03794,4.00352a.15837.15837,0,0,0,.15557.15557c.24959,0,.60146-.51892.80927-.82905l.22868.1441M207.31,193.9672a.71585.71585,0,0,1,.71529.70586.70025.70025,0,0,1-1.4003-.02085A.70683.70683,0,0,1,207.31,193.9672Z"/>
    <path d="M210.64937,199.74488c-.45633.69541-.91264,1.41178-1.74281,1.41178a.62686.62686,0,0,1-.70483-.69547c0-.62236,1.47337-5.26915,1.47337-5.75678,0-.32268-.34353-.32268-.65366-.30076v-.28087a19.2684,19.2684,0,0,0,2.16779-.31013l-1.50473,5.42472a6.77909,6.77909,0,0,0-.22762,1.03689c0,.13473.14515.15557.15557.15557.24853,0,.60149-.51892.80824-.82905l.22868.1441"/>
    <path d="M213.97938,196.84091h-.86149c-.34248,1.26556-.90219,3.08039-.90219,3.43335,0,.12428.14515.15557.15557.15557.259,0,.66309-.61191.79885-.82905l.22762.1441c-.38323.60146-.89176,1.41178-1.701,1.41178a.66729.66729,0,0,1-.74661-.69547,33.0754,33.0754,0,0,1,.95442-3.62028h-.52941v-.36342a3.66823,3.66823,0,0,0,1.89838-1.57569h.36338l-.40515,1.50367h.74766v.43544"/>
    <path d="M217.536,199.76681a2.3686,2.3686,0,0,1-1.98089,1.43057,1.50567,1.50567,0,0,1-1.55588-1.5966c0-1.41184,1.31675-3.33,3.00838-3.33a.98031.98031,0,0,1,1.06825.93351c0,.57017-.66415,1.65926-2.6659,1.97047a2.05517,2.05517,0,0,0-.06266.50853c0,.81969.48767.85.69547.85.55968,0,.93351-.55965,1.1925-.94288l.30073.17648m-2.05294-.92415a1.9557,1.9557,0,0,0,1.63838-1.87754c0-.09292,0-.35289-.30073-.35289C216.17747,196.61223,215.648,198.08557,215.48306,198.84266Z"/>
    <path d="M223.20922,199.8691c-.2485.40516-.81972,1.30738-1.54542,1.30738a.58216.58216,0,0,1-.62237-.63282,3.17972,3.17972,0,0,1,.10338-.67456l-.02087.01045c-.30076.50854-.79779,1.31783-1.69061,1.31783-.86044,0-1.09852-.86047-1.09852-1.31783,0-1.607,1.58618-3.60881,2.78913-3.60881a.96571.96571,0,0,1,.77793.34149c.22868-.86048.48763-1.75326.48763-1.90782,0-.2485-.1963-.31223-.425-.31223h-.2172v-.27877a12.89951,12.89951,0,0,0,2.16782-.30076l-1.1518,4.19981c-.10338.37387-.591,2.13758-.591,2.29207a.12926.12926,0,0,0,.12425.14621c.2172,0,.63281-.65366.685-.74767l.22763.166m-3.15353.58164c.98574,0,1.69163-2.904,1.69163-3.20468,0-.06265-.01045-.53989-.39471-.53989-.90222,0-1.73235,2.40692-1.73235,3.13266C219.62026,199.891,219.64113,200.45074,220.05569,200.45074Z"/>
    <path d="M167.34039,127.93081a9.51554,9.51554,0,0,0,1.54546-.24958,22.7179,22.7179,0,0,1,.685,2.87262l.12425.74767h.02087a7.34888,7.34888,0,0,0,.88132-2.07487c0-.46672-.57014-.30069-.57014-.96487a.61516.61516,0,0,1,.58059-.58055.67113.67113,0,0,1,.65369.64321c0,1.21343-1.3387,3.37076-1.43163,3.52742-1.05884,1.75218-1.97148,2.74732-2.998,2.74732a.62591.62591,0,0,1-.61191-.62134.5617.5617,0,0,1,.54926-.57119,1.44808,1.44808,0,0,1,.5294.17648.89785.89785,0,0,0,.425.18693,1.48064,1.48064,0,0,0,.944-1.23427,24.79324,24.79324,0,0,0-.46676-2.74942c-.35191-1.57678-.45633-1.57678-.86044-1.57678v-.27878"/>
    <path d="M172.81626,128.39652c.19633-.10338,1.22385-.63173,1.22385-1.21337,0-.43543-.72679-.38323-.72679-1.04734a.72643.72643,0,0,1,.72679-.76755.89362.89362,0,0,1,.89174.99623c0,1.37939-1.82528,2.2398-1.98085,2.28161l-.13474-.24958"/>
    <path d="M224.09576,104.01607l.69129-2.47791a4.10217,4.10217,0,0,0,.15558-.79464c0-.45735-.36338-.5012-.69126-.52733v-.21511h1.8044v.21511c-.45735.11274-.544.1295-.88026,1.322l-1.23427,4.37H223.699l-2.22-4.74181-.85417,3.07523a4.00911,4.00911,0,0,0-.1556.7947c0,.45736.36236.50012.69024.52625v.21619h-1.79606v-.21619c.43231-.10337.52733-.12007.87191-1.32095l1.03692-3.55031c-.16395-.37909-.259-.43128-.71739-.47513v-.21511h1.68433l1.85661,4.015"/>
    <rect x="221.27846" y="97.91252" width="3.03992" height="0.25908"/>
    <path d="M225.88242,98.04209a7.80968,7.80968,0,0,0-2.21581,1.23223l.4469-1.23223-.4469-1.23319a7.81046,7.81046,0,0,0,2.21581,1.23319"/>
    <path d="M269.60806,118.65706c-.27673.46679-.68189,1.1309-1.3554,1.1309a.52472.52472,0,0,1-.60461-.56073,22.4615,22.4615,0,0,1,.76018-2.69512.209.209,0,0,0-.21615-.189c-.21615,0-1.08807.43129-1.84826,3.36764h-1.04527c.44066-1.64988.88132-3.07523.88132-3.29033,0-.22556-.23285-.22556-.46676-.22556V115.964a11.081,11.081,0,0,0,1.72713-.2339l-.51793,1.60495.02613.0188c.62131-.91681,1.08806-1.6342,1.83885-1.6342.20781,0,.65681.0188.65681.684,0,.56073-.75078,2.39124-.75078,2.64184,0,.07833.03444.15456.12947.15456.17231,0,.37071-.31013.59521-.65576l.19006.11274"/>
    <rect x="266.84401" y="113.11857" width="3.04075" height="0.25895"/>
    <path d="M271.449,113.248a7.86344,7.86344,0,0,0-2.21584,1.23325l.44483-1.23325-.44483-1.23217A7.80745,7.80745,0,0,0,271.449,113.248"/>
    <polyline class="cls-7" points="212.814 191.05 214.792 186.659 213.617 186.129 211.639 190.52"/>
    <path class="cls-7" d="M217.39607,179.30741a38.89177,38.89177,0,0,0,1.06509,12.54943l-4.675-4.533-6.49294-.495a38.929,38.929,0,0,0,10.10281-7.52151"/>
    <path class="cls-6" d="M269.85971,171.41624a63.38261,63.38261,0,0,1-11.52088,26.64638.61276.61276,0,0,0,.97739.73932,64.61723,64.61723,0,0,0,11.74746-27.16116.61237.61237,0,0,0-1.204-.22454"/>
    <polyline class="cls-2" points="196.822 171.605 175.334 146.441 249.122 146.457 196.822 171.605"/>
    <path class="cls-6" d="M262.6055,179.8264s.11176.29968.30389.82593c.0971.26424.21092.58584.37488.92937.165.34563.308.74664.543,1.15906.22661.41459.44483.87616.74349,1.32727.141.22759.2861.4636.43543.70171q.249.34455.50436.70171c.32581.48451.74139.92829,1.12774,1.4003.424.43958.83747.90114,1.30633,1.30209a17.55334,17.55334,0,0,0,1.416,1.16327,16.52844,16.52844,0,0,0,1.489.94607c.48451.30076.99616.50439,1.4598.73409.48661.17648.93249.378,1.368.48973a10.22708,10.22708,0,0,0,1.17892.29866,8.58277,8.58277,0,0,0,.91889.15143c.51169.0522.80407.08247.80407.08247l-.22033,2.15632s-.34044-.06476-.93667-.17546a10.36358,10.36358,0,0,1-1.05467-.2673,12.50884,12.50884,0,0,1-1.32509-.45634c-.48454-.17017-.9701-.43855-1.49638-.68393-.50226-.29655-1.0484-.57749-1.559-.95027a16.46424,16.46424,0,0,1-2.96348-2.55415,19.59008,19.59008,0,0,1-1.276-1.50578c-.37068-.53358-.76541-1.03689-1.06614-1.57569q-.23652-.39474-.46571-.77482c-.13263-.26418-.26523-.52211-.39263-.77271-.27151-.49184-.45736-.9889-.65369-1.43688-.2057-.44168-.32578-.88444-.46571-1.25512a10.01417,10.01417,0,0,1-.30076-.97322c-.14827-.53881-.2318-.84792-.2318-.84792l.43438-.13989"/>
    <path class="cls-6" d="M281.07672,192.71725a23.17692,23.17692,0,0,0-6.29875,4.06515l1.07765-3.72265-1.55591-3.55138a23.0973,23.0973,0,0,0,6.777,3.20888"/>
    <polyline points="171.976 185.594 267.642 138.016 267.097 136.918 171.431 184.498 171.976 185.594"/>
    <path d="M273.98853,134.1742a37.02664,37.02664,0,0,0-6.78114,9.87935l-.70694-6.15467-4.47971-4.27706a37.01377,37.01377,0,0,0,11.96779.55238"/>
    <path class="cls-3" d="M246.087,159.2271h1.038a.21564.21564,0,1,0,0-.43128h-1.038a.21564.21564,0,1,0,0,.43128m-2.07382,0h1.03693a.21564.21564,0,1,0,0-.43128h-1.03693a.21564.21564,0,1,0,0,.43128m-2.07381,0h1.03693a.21564.21564,0,1,0,0-.43128h-1.03693a.21564.21564,0,1,0,0,.43128m-2.07486,0h1.03794a.21564.21564,0,1,0,0-.43128h-1.03794a.21564.21564,0,0,0,0,.43128m-2.07381,0h1.03689a.21564.21564,0,1,0,0-.43128h-1.03689a.21564.21564,0,1,0,0,.43128m-2.07486,0h1.03794a.21564.21564,0,1,0,0-.43128h-1.03794a.21564.21564,0,0,0,0,.43128m-2.07384,0h1.03692a.21564.21564,0,1,0,0-.43128H233.642a.21564.21564,0,0,0,0,.43128m-2.07381,0h1.03692a.21564.21564,0,1,0,0-.43128H231.5682a.21564.21564,0,1,0,0,.43128m-2.07487,0h1.038a.21564.21564,0,1,0,0-.43128h-1.038a.21564.21564,0,1,0,0,.43128m-2.07381,0h1.03692a.21564.21564,0,1,0,0-.43128h-1.03692a.21564.21564,0,1,0,0,.43128m-2.07381,0h1.03689a.21564.21564,0,1,0,0-.43128h-1.03689a.21564.21564,0,1,0,0,.43128m-2.07486,0h1.03689a.21564.21564,0,1,0,0-.43128h-1.03689a.21564.21564,0,1,0,0,.43128"/>
    <path class="cls-6" d="M178.95627,177.5249a14.89548,14.89548,0,0,1-.79151-4.5183,6.9538,6.9538,0,0,1,.47409-2.70558,2.95789,2.95789,0,0,1,1.29794-1.51311v.00109a2.65854,2.65854,0,0,1,1.26353-.29866,7.08215,7.08215,0,0,1,4.24787,1.97983,18.78671,18.78671,0,0,1,4.2437,5.46023,17.50281,17.50281,0,0,1,2.22107,7.86816,6.93881,6.93881,0,0,1-.473,2.70245,2.939,2.939,0,0,1-1.29588,1.51h.001a2.67837,2.67837,0,0,1-1.26662.29968,6.05046,6.05046,0,0,1-3.27886-1.23638l-.69336,1.00974a7.23632,7.23632,0,0,0,3.97222,1.45148,3.86563,3.86563,0,0,0,1.83991-.44276,4.16329,4.16329,0,0,0,1.84724-2.10826,8.14954,8.14954,0,0,0,.5722-3.18594,18.68762,18.68762,0,0,0-2.36409-8.44355,19.98051,19.98051,0,0,0-4.53295-5.81835,8.22647,8.22647,0,0,0-5.04044-2.27116,3.86886,3.86886,0,0,0-1.83784.44168,4.183,4.183,0,0,0-1.85036,2.11246,8.14475,8.14475,0,0,0-.57223,3.187,16.124,16.124,0,0,0,.851,4.8963l1.16534-.378"/>
    <path class="cls-6" d="M182.51706,185.08611a18.44338,18.44338,0,0,0,5.85076,1.2917l-2.72122,1.48067-1.14135,2.88a18.51241,18.51241,0,0,0-1.98819-5.65239"/>
    <path d="M223.38152,158.47l-56.97467-15.01479a.61292.61292,0,0,0-.31326,1.18513l56.97675,15.01384a.61219.61219,0,0,0,.31118-1.18418"/>
    <path d="M159.10254,142.16454a37.04908,37.04908,0,0,0,11.60859-2.96663l-3.52214,5.09681.55344,6.17029a36.97251,36.97251,0,0,0-8.63989-8.30047"/>
    <g class="cls-12">
      <rect class="cls-13" x="187.38207" y="119.83914" width="70.71555" height="78.15561"/>
    </g>
    <path class="cls-14" d="M217.33549,180.40905l-.73616-.31746q.41352-.39625.79674-.78418c-.024.3571-.04385.72574-.06058,1.10164"/>
    <path class="cls-15" d="M223.57888,158.56089a.57942.57942,0,0,0-.19736-.09088l-30.59977-8.06446-.69964-3.96178,55.83438.01358-24.33761,12.10354m-26.708,13.02036-.11068-.04806-.31118-.36443-3.43236-19.435,28.9489,7.63012-9.15049,4.55067-15.94419,7.6667"/>
    <path class="cls-16" d="M198.62728,172.33828l-1.47235-.63594,24.81065-12.33846,1.10476.29031a.61283.61283,0,0,0,.74454-.42709h.49286a.21564.21564,0,1,0,0-.43128h-.53046a.61584.61584,0,0,0-.1984-.23493L248.4574,146.189l.52941.22868.14305.80407-23.27249,11.57411h-.51166a.21569.21569,0,0,0-.21615.2151.21949.21949,0,0,0,.03967.1274l-26.54195,13.2"/>
    <path class="cls-13" d="M224.30774,159.2271h-.49286l.00313-.00943a.6026.6026,0,0,0-.04073-.42185h.53046a.21564.21564,0,1,1,0,.43128m2.07486,0h-1.03689a.21661.21661,0,0,1-.17648-.08878.21949.21949,0,0,1-.03967-.1274.21569.21569,0,0,1,.21615-.2151h1.03689a.21564.21564,0,1,1,0,.43128m2.07384,0h-1.03692a.21564.21564,0,1,1,0-.43128h1.03692a.21564.21564,0,1,1,0,.43128m2.07487,0h-1.038a.21564.21564,0,1,1,0-.43128h1.038a.21564.21564,0,1,1,0,.43128m2.07381,0H231.5682a.21564.21564,0,1,1,0-.43128h1.03692a.21564.21564,0,1,1,0,.43128m2.07381,0H233.642a.21564.21564,0,0,1,0-.43128h1.03692a.21564.21564,0,1,1,0,.43128m2.07486,0h-1.03794a.21564.21564,0,0,1,0-.43128h1.03794a.21564.21564,0,1,1,0,.43128m2.07381,0h-1.03689a.21564.21564,0,1,1,0-.43128h1.03689a.21564.21564,0,1,1,0,.43128m2.07486,0h-1.03794a.21564.21564,0,0,1,0-.43128h1.03794a.21564.21564,0,1,1,0,.43128m2.07385,0h-1.03693a.21564.21564,0,1,1,0-.43128h1.03693a.21564.21564,0,1,1,0,.43128m2.07381,0h-1.03693a.21564.21564,0,1,1,0-.43128h1.03693a.21564.21564,0,1,1,0,.43128m2.07486,0h-1.038a.21564.21564,0,1,1,0-.43128h1.038a.21564.21564,0,1,1,0,.43128"/>
    <path class="cls-16" d="M223.226,159.674a.61182.61182,0,0,1-.15561-.01982l-30.05366-7.92043-.236-1.32821L223.38152,158.47a.57942.57942,0,0,1,.19736.09088.61584.61584,0,0,1,.1984.23493.6026.6026,0,0,1,.04073.42185l-.00313.00943a.61187.61187,0,0,1-.58893.44691"/>
    <path class="cls-17" d="M255.56643,195.82486l1.63838,1.82113a.61294.61294,0,0,0,.91056-.82076l-1.63943-1.819a.61185.61185,0,1,0-.90951.81867m-3.27883-3.64221,1.63943,1.82215a.61259.61259,0,0,0,.91053-.81974l-1.63838-1.82108a.61262.61262,0,0,0-.91158.81867Zm-3.27676-3.64119,1.63838,1.82107a.61223.61223,0,0,0,.91056-.81866l-1.63943-1.82216a.61221.61221,0,0,0-.90951.81975Zm-3.27887-3.64228,1.63838,1.82114a.613.613,0,1,0,.91162-.81975l-1.63838-1.82107a.613.613,0,0,0-.91162.81968Zm-3.27675-3.64221,1.63838,1.82114a.61226.61226,0,0,0,.91056-.81873l-1.63838-1.82107a.61223.61223,0,1,0-.91056.81866Zm-3.27883-3.64119,1.64045,1.82006a.61185.61185,0,1,0,.90951-.81867L240.088,176.796a.613.613,0,0,0-.91158.81975Zm-3.27676-3.64227,1.63838,1.82113a.61258.61258,0,1,0,.91056-.81968l-1.63838-1.82114a.61258.61258,0,1,0-.91056.81969Zm-3.27781-3.64323,1.63837,1.82107a.61224.61224,0,1,0,.91057-.81866l-1.63838-1.82108a.61224.61224,0,0,0-.91056.81867Zm-3.27884-3.64017,1.64046,1.82113a.61255.61255,0,0,0,.90951-.82076l-1.63838-1.82114a.61332.61332,0,0,0-.91159.82077Zm-3.27675-3.64221,1.63838,1.82107a.61256.61256,0,0,0,.91053-.81968l-1.63838-1.82114a.61259.61259,0,0,0-.91053.81975Zm-3.27781-3.64228,1.63837,1.82114a.61258.61258,0,0,0,.91057-.81968l-1.63838-1.82114a.61258.61258,0,0,0-.91056.81968Z"/>
    <polyline class="cls-2" points="249.14 146.39 270.627 171.553 196.84 171.539"/>
    <path d="M287.01517,175.237,223.38152,158.47a.61219.61219,0,1,0-.31118,1.18418l63.63263,16.768a.61281.61281,0,0,0,.3122-1.18519"/>
    <path d="M222.61821,114.9146H223.843v-2.1553h-1.22478Zm0,4.89847H223.843v-2.44962h-1.22478Zm0,4.90051H223.843v-2.44866h-1.22478Zm0,4.89943H223.843v-2.44962h-1.22478Zm0,4.90051H223.843V132.0639h-1.22478Zm0,4.89949H223.843v-2.45076h-1.22478Zm0,4.8995H223.843v-2.44867h-1.22478Zm0,4.90051H223.843v-2.44975h-1.22478Zm0,4.89949H223.843v-2.45077h-1.22478Zm0,4.89841H223.843v-2.44764h-1.22478Z"/>
    <path d="M223.23012,108.32246a22.19835,22.19835,0,0,0,3.496,6.282l-3.496-1.26245-3.495,1.26245a22.14489,22.14489,0,0,0,3.495-6.282"/>
    <path class="cls-18" d="M256.124,129.59109l1.80338-1.66028-.83017-.9012-1.8023,1.65932m-2.7745,4.21964,1.80233-1.65925-.83016-.90114-1.80231,1.65926Zm-3.60464,3.31959,1.80233-1.66034-.82911-.90011-1.80234,1.65931Zm-3.60464,3.31959,1.80336-1.65925-.83119-.9012-1.80129,1.65823Zm-3.60362,3.3185,1.80234-1.65823-.83017-.90114-1.80125,1.65926Zm-3.60359,3.31959,1.80234-1.65925-.83017-.9012-1.80335,1.65925Zm-3.60569,3.31959,1.80234-1.66034-.82912-.90113-1.80233,1.66027Zm-3.60358,3.31952,1.8023-1.66027-.83014-.9012-1.80233,1.65932Zm-3.60464,3.31749,1.8023-1.65925-.83014-.90114-1.80233,1.66027Zm-3.60362,3.32061,1.80128-1.66136-.82911-.90011-1.80231,1.65931Z"/>
    <path class="cls-18" d="M262.38935,122.98849a22.24538,22.24538,0,0,0-2.25341,6.826l-1.43686-3.42711-3.29868-1.71457a22.17092,22.17092,0,0,0,6.98895-1.68437"/>
    <path class="cls-17" d="M220.03064,156.38055l1.654,1.80648a.61306.61306,0,0,0,.90429-.828l-1.65613-1.80546a.61194.61194,0,1,0-.90219.827m-3.31019-3.613,1.65508,1.80648a.6123.6123,0,1,0,.90222-.828l-1.65508-1.80546a.612.612,0,1,0-.90222.827Zm-3.31018-3.613,1.65511,1.8054a.61194.61194,0,1,0,.90218-.827l-1.65507-1.80546a.612.612,0,0,0-.90222.82707Zm-3.31016-3.612,1.65508,1.80546a.61233.61233,0,1,0,.90324-.827l-1.65508-1.80546a.61233.61233,0,1,0-.90324.827Zm-3.30913-3.613,1.65405,1.80648a.61233.61233,0,1,0,.90324-.827l-1.65406-1.80756a.61269.61269,0,0,0-.90323.8281Zm-3.31016-3.613,1.65508,1.80648a.61268.61268,0,1,0,.90324-.828l-1.65508-1.80654a.6127.6127,0,0,0-.90324.8281Zm-3.31019-3.613,1.65508,1.80756a.61269.61269,0,0,0,.90327-.828l-1.65613-1.80655a.612.612,0,1,0-.90222.827Zm-3.31019-3.613,1.65511,1.8075a.61229.61229,0,1,0,.90219-.828l-1.65508-1.80648a.612.612,0,1,0-.90222.827Zm-3.31015-3.613,1.65508,1.80648a.61159.61159,0,1,0,.90222-.82593l-1.653-1.80756a.61272.61272,0,0,0-.90429.827Zm-3.31019-3.61194,1.65511,1.80648a.61272.61272,0,0,0,.90429-.827l-1.65511-1.80648a.61272.61272,0,1,0-.90429.827Zm-3.3091-3.613,1.654,1.80757a.61308.61308,0,1,0,.90429-.8281l-1.65507-1.80648a.61233.61233,0,0,0-.90324.827Z"/>
    <polyline class="cls-19" points="233.242 158.19 281.508 151.22 281.333 150.006 233.067 156.979"/>
    <path class="cls-19" d="M235.33156,157.27021l2.02579-4.75118-.16395-.07833-6.71432,3.8584q-3.60413,1.35639-7.20823,2.71182,3.84221.28193,7.68126.56385l7.532,1.80024.13783-.096-3.29034-4.00875"/>
    <path class="cls-6" d="M246.653,155.47521a49.06158,49.06158,0,0,0-6.60677-11.382.61279.61279,0,0,0-.95547.76755,47.80814,47.80814,0,0,1,6.43762,11.09686.61186.61186,0,0,0,1.12462-.4824"/>
    <path class="cls-6" d="M238.19271,153.16956s-.23807-.21612-.65158-.59412a10.01941,10.01941,0,0,1-.72992-.709c-.2673-.29451-.60773-.60145-.90846-.98469-.308-.377-.66726-.76959-.98364-1.23427-.165-.22664-.33626-.46156-.50853-.69967-.15666-.25163-.31746-.50854-.48139-.76851-.34356-.51166-.61191-1.09227-.92-1.66237-.26417-.59209-.55238-1.19043-.76229-1.82114a19.53685,19.53685,0,0,1-.58578-1.89526,18.38817,18.38817,0,0,1-.34461-1.90469,17.8442,17.8442,0,0,1-.142-1.82006c.02088-.58055.00313-1.13714.071-1.64465a11.83118,11.83118,0,0,1,.19528-1.38877,9.98041,9.98041,0,0,1,.24015-1.0599c.17126-.58163.26941-.91477.26941-.91477l2.01954.78316s-.10548.27361-.29136.75289a8.24348,8.24348,0,0,0-.27983.88865,10.241,10.241,0,0,0-.27045,1.18622c-.09818.43861-.118.92522-.18381,1.441a15.99868,15.99868,0,0,0-.00835,1.63319,16.78842,16.78842,0,0,0,.16708,1.7553,18.08906,18.08906,0,0,0,.39368,1.79086c.14513.60044.36756,1.17787.56909,1.7553.2454.55761.4511,1.12886.73619,1.64052.13365.26.26628.51579.3947.76646.14723.24117.28926.47718.42919.708.26625.46991.57848.874.84476,1.26353.26106.39572.55449.70483.78734,1.01075a10.01119,10.01119,0,0,0,.65786.755c.38113.4114.59834.64531.59834.64531l-.32164.3258"/>
    <path class="cls-6" d="M235.40779,130.53505a23.21567,23.21567,0,0,0-.21615,7.49436l-2.4581-2.99582-3.80722-.731a23.11236,23.11236,0,0,0,6.48147-3.76758"/>
  </g>
</svg>
