<svg id="图层_1" data-name="图层 1" xmlns="http://www.w3.org/2000/svg" viewBox="0 0 292.65348 201.64932">
  <defs>
    <style>
      .cls-1, .cls-3 {
        fill: none;
        stroke-miterlimit: 10;
      }

      .cls-1 {
        stroke: #000;
      }

      .cls-2 {
        fill: #dbdcdd;
      }

      .cls-3 {
        stroke: #231f20;
        stroke-width: 0.374px;
      }

      .cls-4 {
        fill: #231815;
      }
    </style>
  </defs>
  <title>[OPTSx84a2]_DIT_Scheme</title>
  <g>
    <line class="cls-1" x1="282.92668" y1="34.98348" x2="225.48998" y2="21.81524"/>
    <polyline class="cls-1" points="282.927 61.32 225.49 74.488 151.673 47.881"/>
    <line class="cls-1" x1="282.92668" y1="87.65642" x2="225.48998" y2="74.48819"/>
    <polyline class="cls-1" points="282.386 113.993 225.49 127.161 151.673 153.769 47.437 100.825 151.673 47.881 225.49 21.815 282.927 8.647"/>
    <line class="cls-1" x1="282.38647" y1="140.32937" x2="225.48998" y2="127.16113"/>
    <polyline class="cls-1" points="282.386 166.666 225.49 179.834 151.673 153.769"/>
    <line class="cls-1" x1="282.38647" y1="193.00231" x2="225.48998" y2="179.83408"/>
  </g>
  <g>
    <path class="cls-2" d="M325.701,106.94652c0,5.567-21.155,10.08-47.25,10.08s-47.25-4.513-47.25-10.08,21.155-10.08,47.25-10.08,47.25,4.513,47.25,10.08" transform="translate(-231.01399 -6.12187)"/>
    <ellipse class="cls-3" cx="47.437" cy="100.82465" rx="47.25" ry="10.08001"/>
    <path class="cls-4" d="M237.75293,111.16113l-.14941.07032a10.17355,10.17355,0,0,1-.75147-1.7627,4.24734,4.24734,0,0,1-.17578-1.2041,4.93029,4.93029,0,0,1,.65478-2.53516,9.15417,9.15417,0,0,1,2.606-2.67187l.10547.15332a5.72638,5.72638,0,0,0-1.32715,1.34961,9.20031,9.20031,0,0,0-1.459,4.64941A4.97336,4.97336,0,0,0,237.75293,111.16113Z" transform="translate(-231.01399 -6.12187)"/>
    <path class="cls-4" d="M243.34424,105.3291l-.85694,2.97949-.09667.40039a.44255.44255,0,0,0-.01319.09668.18637.18637,0,0,0,.04395.123.11225.11225,0,0,0,.08789.03906.27692.27692,0,0,0,.14941-.07031,2.54914,2.54914,0,0,0,.457-.52734l.14942.10547a2.77865,2.77865,0,0,1-.624.69726,1.021,1.021,0,0,1-.59326.23926.38568.38568,0,0,1-.2832-.09473.36874.36874,0,0,1-.09473-.27441,2.25737,2.25737,0,0,1,.09668-.56738l.09229-.32911a4.29594,4.29594,0,0,1-1.05909,1.04981,1.28975,1.28975,0,0,1-.68115.21582.71474.71474,0,0,1-.55371-.26563,1.0755,1.0755,0,0,1-.23291-.73242,3.09839,3.09839,0,0,1,.41992-1.47363,3.61988,3.61988,0,0,1,1.06543-1.24219,1.64324,1.64324,0,0,1,.95362-.36914.69556.69556,0,0,1,.4458.14063.87783.87783,0,0,1,.2705.46582l.15821-.501Zm-1.56445.22852a.95816.95816,0,0,0-.59766.26367,3.20859,3.20859,0,0,0-.79736,1.10742,3.12838,3.12838,0,0,0-.34961,1.32715.69984.69984,0,0,0,.14941.47266.44211.44211,0,0,0,.34277.17382q.479,0,1.04151-.708a3.06606,3.06606,0,0,0,.75146-1.92871.81872.81872,0,0,0-.145-.541A.49666.49666,0,0,0,241.77979,105.55762Z" transform="translate(-231.01399 -6.12187)"/>
    <path class="cls-4" d="M245.92334,104.19238a.873.873,0,0,1,.70117.34766,1.729,1.729,0,0,1,.28418,1.09912,4.348,4.348,0,0,1-.21142,1.314,3.65247,3.65247,0,0,1-.59473,1.16113,2.01594,2.01594,0,0,1-.64063.55908,1.00051,1.00051,0,0,1-.45214.09766.87994.87994,0,0,1-.70752-.34815,1.73433,1.73433,0,0,1-.28418-1.10254,4.1753,4.1753,0,0,1,.28613-1.4956,3.2937,3.2937,0,0,1,.855-1.3335A1.13129,1.13129,0,0,1,245.92334,104.19238Zm.00342.16895a.63134.63134,0,0,0-.38233.148,1.61728,1.61728,0,0,0-.3999.61621,7.87618,7.87618,0,0,0-.395,1.20654,6.90266,6.90266,0,0,0-.24365,1.64551.74873.74873,0,0,0,.146.50537.454.454,0,0,0,.35449.16748.47809.47809,0,0,0,.33838-.12988,2.79937,2.79937,0,0,0,.64062-1.2002,7.99124,7.99124,0,0,0,.43262-2.25683.80355.80355,0,0,0-.14649-.53125A.44053.44053,0,0,0,245.92676,104.36133Z" transform="translate(-231.01399 -6.12187)"/>
    <g>
      <path class="cls-4" d="M246.94873,110.29492a1.60119,1.60119,0,0,0,.53613-.37793.51742.51742,0,0,0,.15821-.33789.38967.38967,0,0,0-.02637-.14551.80591.80591,0,0,0-.12305-.14062.54632.54632,0,0,1-.11865-.14453.44966.44966,0,0,1-.03076-.17188.45515.45515,0,0,1,.12939-.32519.40825.40825,0,0,1,.30567-.13574.42691.42691,0,0,1,.31836.14453.50654.50654,0,0,1,.13867.36523,1.29986,1.29986,0,0,1-.30762.791,1.95971,1.95971,0,0,1-.89209.61914Z" transform="translate(-231.01399 -6.12187)"/>
      <path class="cls-4" d="M253.51416,105.3291l-.85693,2.97949-.09668.40039a.44255.44255,0,0,0-.01319.09668.18637.18637,0,0,0,.04395.123.11226.11226,0,0,0,.08789.03906.27688.27688,0,0,0,.14941-.07031,2.54914,2.54914,0,0,0,.457-.52734l.14942.10547a2.77882,2.77882,0,0,1-.624.69726,1.02105,1.02105,0,0,1-.59327.23926.38568.38568,0,0,1-.2832-.09473.36874.36874,0,0,1-.09473-.27441,2.25737,2.25737,0,0,1,.09668-.56738l.09229-.32911a4.2961,4.2961,0,0,1-1.05908,1.04981,1.28981,1.28981,0,0,1-.68116.21582.71475.71475,0,0,1-.55371-.26563,1.0755,1.0755,0,0,1-.23291-.73242,3.0983,3.0983,0,0,1,.41993-1.47363,3.61974,3.61974,0,0,1,1.06542-1.24219,1.64324,1.64324,0,0,1,.95362-.36914.69556.69556,0,0,1,.4458.14063.87791.87791,0,0,1,.27051.46582l.1582-.501Zm-1.56445.22852a.95816.95816,0,0,0-.59766.26367,3.20859,3.20859,0,0,0-.79736,1.10742,3.12838,3.12838,0,0,0-.34961,1.32715.69984.69984,0,0,0,.14941.47266.44211.44211,0,0,0,.34278.17382q.479,0,1.0415-.708a3.066,3.066,0,0,0,.75146-1.92871.81872.81872,0,0,0-.145-.541A.49665.49665,0,0,0,251.94971,105.55762Z" transform="translate(-231.01399 -6.12187)"/>
    </g>
    <path class="cls-4" d="M256.48145,104.19238l-1.04688,3.645a1.95236,1.95236,0,0,0-.09131.46533.21714.21714,0,0,0,.083.1836.84816.84816,0,0,0,.38867.08642l-.03271.12012h-1.67481l.0459-.12012a1.1559,1.1559,0,0,0,.35107-.04248.46448.46448,0,0,0,.20508-.15625,1.88728,1.88728,0,0,0,.21778-.53662l.75439-2.61767q.06812-.23731.07471-.27295a.88052.88052,0,0,0,.00976-.127.24986.24986,0,0,0-.06152-.17871.22289.22289,0,0,0-.16943-.06543,1.39638,1.39638,0,0,0-.26319.03907l-.04248-.1167,1.09619-.30567Z" transform="translate(-231.01399 -6.12187)"/>
    <g>
      <path class="cls-4" d="M257.02881,110.29492a1.60119,1.60119,0,0,0,.53613-.37793.5174.5174,0,0,0,.1582-.33789.38967.38967,0,0,0-.02636-.14551.80591.80591,0,0,0-.123-.14062.54632.54632,0,0,1-.11865-.14453.44966.44966,0,0,1-.03076-.17188.45515.45515,0,0,1,.12939-.32519.40825.40825,0,0,1,.30567-.13574.42687.42687,0,0,1,.31835.14453.50651.50651,0,0,1,.13868.36523,1.29986,1.29986,0,0,1-.30762.791,1.95971,1.95971,0,0,1-.89209.61914Z" transform="translate(-231.01399 -6.12187)"/>
      <path class="cls-4" d="M263.59424,105.3291l-.85694,2.97949-.09667.40039a.44255.44255,0,0,0-.01319.09668.18637.18637,0,0,0,.04395.123.11225.11225,0,0,0,.08789.03906.27692.27692,0,0,0,.14941-.07031,2.54914,2.54914,0,0,0,.457-.52734l.14942.10547a2.77865,2.77865,0,0,1-.624.69726,1.021,1.021,0,0,1-.59326.23926.38568.38568,0,0,1-.2832-.09473.36874.36874,0,0,1-.09473-.27441,2.25737,2.25737,0,0,1,.09668-.56738l.09229-.32911a4.29594,4.29594,0,0,1-1.05909,1.04981,1.28975,1.28975,0,0,1-.68115.21582.71474.71474,0,0,1-.55371-.26563,1.0755,1.0755,0,0,1-.23291-.73242,3.09839,3.09839,0,0,1,.41992-1.47363,3.61988,3.61988,0,0,1,1.06543-1.24219,1.64324,1.64324,0,0,1,.95362-.36914.69556.69556,0,0,1,.4458.14063.87783.87783,0,0,1,.2705.46582l.15821-.501Zm-1.56445.22852a.95816.95816,0,0,0-.59766.26367,3.20859,3.20859,0,0,0-.79736,1.10742,3.12838,3.12838,0,0,0-.34961,1.32715.69984.69984,0,0,0,.14941.47266.44211.44211,0,0,0,.34277.17382q.479,0,1.04151-.708a3.06606,3.06606,0,0,0,.75146-1.92871.81872.81872,0,0,0-.145-.541A.49666.49666,0,0,0,262.02979,105.55762Z" transform="translate(-231.01399 -6.12187)"/>
    </g>
    <path class="cls-4" d="M266.08057,108.69287h-2.19532v-.12012a12.98681,12.98681,0,0,0,2.21778-2.30566,1.47462,1.47462,0,0,0,.25049-.813.75576.75576,0,0,0-.208-.55127.72123.72123,0,0,0-.54-.21289.88135.88135,0,0,0-.7544.439l-.11377-.05225a1.43276,1.43276,0,0,1,.48438-.65186,1.14466,1.14466,0,0,1,.68945-.23242.97959.97959,0,0,1,.99219.98535,1.37084,1.37084,0,0,1-.10107.52979,3.13828,3.13828,0,0,1-.57569.852,19.69678,19.69678,0,0,1-1.70068,1.66162h1.106a.79974.79974,0,0,0,.439-.11035.621.621,0,0,0,.24707-.2959h.12988Z" transform="translate(-231.01399 -6.12187)"/>
    <g>
      <path class="cls-4" d="M267.10938,110.29492a1.60674,1.60674,0,0,0,.53515-.37793.5174.5174,0,0,0,.1582-.33789.3895.3895,0,0,0-.02539-.14551.85381.85381,0,0,0-.123-.14062.5521.5521,0,0,1-.11914-.14453.44954.44954,0,0,1-.03125-.17188.45762.45762,0,0,1,.12988-.32519.409.409,0,0,1,.30566-.13574.42688.42688,0,0,1,.31836.14453.5065.5065,0,0,1,.13867.36523,1.29984,1.29984,0,0,1-.30761.791,1.96338,1.96338,0,0,1-.8916.61914Z" transform="translate(-231.01399 -6.12187)"/>
      <path class="cls-4" d="M273.67383,105.3291l-.85645,2.97949-.09668.40039a.447.447,0,0,0-.01367.09668.18233.18233,0,0,0,.04492.123.11089.11089,0,0,0,.08789.03906.27475.27475,0,0,0,.14844-.07031,2.51978,2.51978,0,0,0,.457-.52734l.15039.10547a2.79923,2.79923,0,0,1-.625.69726,1.01975,1.01975,0,0,1-.59277.23926.38567.38567,0,0,1-.2832-.09473A.36874.36874,0,0,1,272,109.043a2.25737,2.25737,0,0,1,.09668-.56738l.09277-.32911a4.31308,4.31308,0,0,1-1.05957,1.04981,1.29079,1.29079,0,0,1-.68066.21582.7152.7152,0,0,1-.55469-.26563,1.07534,1.07534,0,0,1-.23242-.73242,3.09839,3.09839,0,0,1,.41992-1.47363,3.61988,3.61988,0,0,1,1.06543-1.24219,1.64451,1.64451,0,0,1,.9541-.36914.696.696,0,0,1,.44532.14063.87783.87783,0,0,1,.2705.46582l.15821-.501Zm-1.56445.22852a.95816.95816,0,0,0-.59766.26367,3.2081,3.2081,0,0,0-.79688,1.10742,3.12853,3.12853,0,0,0-.34961,1.32715.69985.69985,0,0,0,.14942.47266.44211.44211,0,0,0,.34277.17382q.479,0,1.041-.708a3.06122,3.06122,0,0,0,.752-1.92871.82447.82447,0,0,0-.14453-.541A.49872.49872,0,0,0,272.10938,105.55762Z" transform="translate(-231.01399 -6.12187)"/>
    </g>
    <path class="cls-4" d="M275.05859,106.2832V106.189a2.23371,2.23371,0,0,0,1.17383-.46826.76139.76139,0,0,0,.28028-.58886.58543.58543,0,0,0-.16309-.42432.529.529,0,0,0-.39356-.16748.78953.78953,0,0,0-.64648.45215l-.12109-.03565a1.39358,1.39358,0,0,1,.43457-.5708.96331.96331,0,0,1,.58008-.19336.85613.85613,0,0,1,.62109.229.7698.7698,0,0,1,.23828.58056.90454.90454,0,0,1-.22363.57569,1.8574,1.8574,0,0,1-.76563.49414,1.08693,1.08693,0,0,1,.51074.40185,1.11528,1.11528,0,0,1,.17286.62891,1.718,1.718,0,0,1-.877,1.4458,1.7647,1.7647,0,0,1-.85644.22266,1.11044,1.11044,0,0,1-.6211-.14307.27728.27728,0,0,1-.14062-.22754.26581.26581,0,0,1,.083-.19531.28.28,0,0,1,.20312-.08154.57052.57052,0,0,1,.16992.02636,2.09418,2.09418,0,0,1,.25489.12989,1.94913,1.94913,0,0,0,.31738.15136.73891.73891,0,0,0,.2334.03711.55542.55542,0,0,0,.4834-.33984,1.45446,1.45446,0,0,0,.19043-.72315,1.17114,1.17114,0,0,0-.12891-.55615.96015.96015,0,0,0-.4043-.395A1.42308,1.42308,0,0,0,275.05859,106.2832Z" transform="translate(-231.01399 -6.12187)"/>
    <g>
      <path class="cls-4" d="M277.18945,110.29492a1.60688,1.60688,0,0,0,.53516-.37793.5174.5174,0,0,0,.1582-.33789.3895.3895,0,0,0-.02539-.14551.85381.85381,0,0,0-.123-.14062.55222.55222,0,0,1-.11915-.14453.44973.44973,0,0,1-.03125-.17188.45763.45763,0,0,1,.12989-.32519.409.409,0,0,1,.30566-.13574.42689.42689,0,0,1,.31836.14453.50654.50654,0,0,1,.13867.36523,1.2999,1.2999,0,0,1-.30761.791,1.96336,1.96336,0,0,1-.89161.61914Z" transform="translate(-231.01399 -6.12187)"/>
      <path class="cls-4" d="M283.75391,105.3291l-.85645,2.97949-.09668.40039a.447.447,0,0,0-.01367.09668.18233.18233,0,0,0,.04492.123.11089.11089,0,0,0,.08789.03906.27475.27475,0,0,0,.14844-.07031,2.52008,2.52008,0,0,0,.457-.52734l.15039.10547a2.79923,2.79923,0,0,1-.625.69726,1.01977,1.01977,0,0,1-.59277.23926.38569.38569,0,0,1-.28321-.09473.36878.36878,0,0,1-.09472-.27441,2.25691,2.25691,0,0,1,.09668-.56738l.09277-.32911a4.31308,4.31308,0,0,1-1.05957,1.04981,1.29079,1.29079,0,0,1-.68066.21582.71519.71519,0,0,1-.55469-.26563,1.07534,1.07534,0,0,1-.23242-.73242,3.09839,3.09839,0,0,1,.41992-1.47363,3.61988,3.61988,0,0,1,1.06543-1.24219,1.64449,1.64449,0,0,1,.9541-.36914.696.696,0,0,1,.44531.14063.87784.87784,0,0,1,.27051.46582l.1582-.501Zm-1.56446.22852a.95811.95811,0,0,0-.59765.26367,3.208,3.208,0,0,0-.79688,1.10742,3.12838,3.12838,0,0,0-.34961,1.32715.69985.69985,0,0,0,.14942.47266.44209.44209,0,0,0,.34277.17382q.479,0,1.041-.708a3.06122,3.06122,0,0,0,.752-1.92871.82447.82447,0,0,0-.14453-.541A.49873.49873,0,0,0,282.18945,105.55762Z" transform="translate(-231.01399 -6.12187)"/>
    </g>
    <path class="cls-4" d="M287.36328,104.2832l-.8418,2.90088h.52637l-.11719.40332h-.5332l-.3418,1.1836h-.47753l.34472-1.1836H284.3291l.13672-.45556,2.65039-2.84864Zm-.72168.83887-1.89648,2.062h1.30468Z" transform="translate(-231.01399 -6.12187)"/>
    <g>
      <path class="cls-4" d="M287.44922,110.29492a1.60688,1.60688,0,0,0,.53516-.37793.51745.51745,0,0,0,.1582-.33789.3895.3895,0,0,0-.02539-.14551.8546.8546,0,0,0-.123-.14062.55233.55233,0,0,1-.11914-.14453.44954.44954,0,0,1-.03125-.17188.45766.45766,0,0,1,.12988-.32519.409.409,0,0,1,.30567-.13574.42691.42691,0,0,1,.31836.14453.50654.50654,0,0,1,.13867.36523,1.29986,1.29986,0,0,1-.30762.791,1.96338,1.96338,0,0,1-.8916.61914Z" transform="translate(-231.01399 -6.12187)"/>
      <path class="cls-4" d="M294.01367,105.3291l-.85644,2.97949-.09668.40039a.447.447,0,0,0-.01367.09668.18228.18228,0,0,0,.04492.123.11088.11088,0,0,0,.08789.03906.27475.27475,0,0,0,.14844-.07031,2.52008,2.52008,0,0,0,.457-.52734l.15039.10547a2.79962,2.79962,0,0,1-.625.69726,1.0198,1.0198,0,0,1-.59278.23926.38568.38568,0,0,1-.2832-.09473.36874.36874,0,0,1-.09473-.27441,2.25737,2.25737,0,0,1,.09668-.56738l.09278-.32911a4.31342,4.31342,0,0,1-1.05957,1.04981,1.29085,1.29085,0,0,1-.68067.21582.71518.71518,0,0,1-.55468-.26563,1.07529,1.07529,0,0,1-.23243-.73242,3.0983,3.0983,0,0,1,.41993-1.47363,3.61974,3.61974,0,0,1,1.06542-1.24219,1.64454,1.64454,0,0,1,.95411-.36914.696.696,0,0,1,.44531.14063.87791.87791,0,0,1,.27051.46582l.1582-.501Zm-1.56445.22852a.95816.95816,0,0,0-.59766.26367,3.208,3.208,0,0,0-.79687,1.10742,3.12838,3.12838,0,0,0-.34961,1.32715.69984.69984,0,0,0,.14941.47266.44211.44211,0,0,0,.34278.17382q.479,0,1.041-.708a3.06122,3.06122,0,0,0,.752-1.92871.82441.82441,0,0,0-.14453-.541A.4987.4987,0,0,0,292.44922,105.55762Z" transform="translate(-231.01399 -6.12187)"/>
    </g>
    <path class="cls-4" d="M295.918,104.2832h1.47363l-.14941.53662H295.918l-.24414.543a1.68,1.68,0,0,1,.82031.32862,1.31527,1.31527,0,0,1,.45215,1.06347,1.94856,1.94856,0,0,1-.168.81787,2.11577,2.11577,0,0,1-.41016.6128,2.02,2.02,0,0,1-.51855.39013,1.63571,1.63571,0,0,1-.76074.19532.854.854,0,0,1-.52051-.14307.29635.29635,0,0,1-.12988-.24707.26947.26947,0,0,1,.085-.2002.28384.28384,0,0,1,.208-.083.63889.63889,0,0,1,.38378.17236.9256.9256,0,0,0,.21485.14307.40745.40745,0,0,0,.16211.02929.88573.88573,0,0,0,.67676-.36572,1.42385,1.42385,0,0,0,.30859-.95117,1.37266,1.37266,0,0,0-.16406-.69287.94154.94154,0,0,0-.418-.40332,2.22955,2.22955,0,0,0-.67676-.1626Z" transform="translate(-231.01399 -6.12187)"/>
    <g>
      <path class="cls-4" d="M297.5293,110.29492a1.60674,1.60674,0,0,0,.53515-.37793.51742.51742,0,0,0,.15821-.33789.3897.3897,0,0,0-.02539-.14551.8546.8546,0,0,0-.123-.14062.55233.55233,0,0,1-.11914-.14453.44954.44954,0,0,1-.03125-.17188.45762.45762,0,0,1,.12988-.32519.409.409,0,0,1,.30567-.13574.42687.42687,0,0,1,.31835.14453.50651.50651,0,0,1,.13868.36523,1.29986,1.29986,0,0,1-.30762.791,1.96338,1.96338,0,0,1-.8916.61914Z" transform="translate(-231.01399 -6.12187)"/>
      <path class="cls-4" d="M304.09375,105.3291l-.85645,2.97949-.09667.40039a.44712.44712,0,0,0-.01368.09668.18229.18229,0,0,0,.04493.123.11088.11088,0,0,0,.08789.03906.2747.2747,0,0,0,.14843-.07031,2.51978,2.51978,0,0,0,.457-.52734l.1504.10547a2.79962,2.79962,0,0,1-.625.69726,1.0198,1.0198,0,0,1-.59278.23926.38568.38568,0,0,1-.2832-.09473.36874.36874,0,0,1-.09473-.27441,2.25737,2.25737,0,0,1,.09668-.56738l.09278-.32911a4.31326,4.31326,0,0,1-1.05958,1.04981,1.29079,1.29079,0,0,1-.68066.21582.71522.71522,0,0,1-.55469-.26563,1.07534,1.07534,0,0,1-.23242-.73242,3.09839,3.09839,0,0,1,.41992-1.47363,3.61988,3.61988,0,0,1,1.06543-1.24219,1.64453,1.64453,0,0,1,.9541-.36914.696.696,0,0,1,.44532.14063.87783.87783,0,0,1,.2705.46582l.15821-.501Zm-1.56445.22852a.95816.95816,0,0,0-.59766.26367,3.208,3.208,0,0,0-.79687,1.10742,3.12838,3.12838,0,0,0-.34961,1.32715.69984.69984,0,0,0,.14941.47266.44211.44211,0,0,0,.34277.17382q.479,0,1.041-.708a3.06122,3.06122,0,0,0,.752-1.92871.82447.82447,0,0,0-.14453-.541A.4987.4987,0,0,0,302.5293,105.55762Z" transform="translate(-231.01399 -6.12187)"/>
    </g>
    <path class="cls-4" d="M307.78027,104.19238v.12647a2.72391,2.72391,0,0,0-1.0791.54834,3.96922,3.96922,0,0,0-.918,1.07129,1.55534,1.55534,0,0,1,.57325-.14942.945.945,0,0,1,.70312.29883,1.10687,1.10687,0,0,1,.292.80664,1.89941,1.89941,0,0,1-.501,1.32666,1.45647,1.45647,0,0,1-1.08008.54981.91061.91061,0,0,1-.79785-.38868,1.52646,1.52646,0,0,1-.27149-.89941,3.02671,3.02671,0,0,1,.3086-1.31494,3.44338,3.44338,0,0,1,.83691-1.11426,3.71126,3.71126,0,0,1,1.09766-.686A3.15979,3.15979,0,0,1,307.78027,104.19238Zm-2.15234,2.019a4.10456,4.10456,0,0,0-.46582,1.665.80318.80318,0,0,0,.17578.54834.52571.52571,0,0,0,.40332.19971c.249,0,.48242-.18164.69727-.54443a2.42765,2.42765,0,0,0,.32422-1.26367.85421.85421,0,0,0-.18848-.5918.59481.59481,0,0,0-.45606-.208.62683.62683,0,0,0-.21582.03711A1.331,1.331,0,0,0,305.62793,106.21143Z" transform="translate(-231.01399 -6.12187)"/>
    <g>
      <path class="cls-4" d="M307.60938,110.29492a1.60674,1.60674,0,0,0,.53515-.37793.5174.5174,0,0,0,.1582-.33789.3895.3895,0,0,0-.02539-.14551.85381.85381,0,0,0-.123-.14062.5521.5521,0,0,1-.11914-.14453.44954.44954,0,0,1-.03125-.17188.45762.45762,0,0,1,.12988-.32519.409.409,0,0,1,.30566-.13574.42688.42688,0,0,1,.31836.14453.5065.5065,0,0,1,.13867.36523,1.29984,1.29984,0,0,1-.30761.791,1.96338,1.96338,0,0,1-.8916.61914Z" transform="translate(-231.01399 -6.12187)"/>
      <path class="cls-4" d="M314.17383,105.3291l-.85645,2.97949-.09668.40039a.447.447,0,0,0-.01367.09668.18233.18233,0,0,0,.04492.123.11089.11089,0,0,0,.08789.03906.27475.27475,0,0,0,.14844-.07031,2.51978,2.51978,0,0,0,.457-.52734l.15039.10547a2.79923,2.79923,0,0,1-.625.69726,1.01975,1.01975,0,0,1-.59277.23926.38567.38567,0,0,1-.2832-.09473A.36874.36874,0,0,1,312.5,109.043a2.25737,2.25737,0,0,1,.09668-.56738l.09277-.32911a4.31308,4.31308,0,0,1-1.05957,1.04981,1.29079,1.29079,0,0,1-.68066.21582.7152.7152,0,0,1-.55469-.26563,1.07534,1.07534,0,0,1-.23242-.73242,3.09839,3.09839,0,0,1,.41992-1.47363,3.61988,3.61988,0,0,1,1.06543-1.24219,1.64451,1.64451,0,0,1,.9541-.36914.696.696,0,0,1,.44532.14063.87783.87783,0,0,1,.2705.46582l.15821-.501Zm-1.56445.22852a.95816.95816,0,0,0-.59766.26367,3.2081,3.2081,0,0,0-.79688,1.10742,3.12853,3.12853,0,0,0-.34961,1.32715.69985.69985,0,0,0,.14942.47266.44211.44211,0,0,0,.34277.17382q.479,0,1.041-.708a3.06122,3.06122,0,0,0,.752-1.92871.82447.82447,0,0,0-.14453-.541A.49872.49872,0,0,0,312.60938,105.55762Z" transform="translate(-231.01399 -6.12187)"/>
    </g>
    <path class="cls-4" d="M315.832,104.2832h2.19531v.11035l-2.47168,4.37745-.25976-.12061,2.16211-3.8501h-1.04688a1.539,1.539,0,0,0-.59082.07617,1.14233,1.14233,0,0,0-.36523.37256h-.13379Z" transform="translate(-231.01399 -6.12187)"/>
    <path class="cls-4" d="M319.09082,103.14063l.14941-.083a9.77608,9.77608,0,0,1,.74707,1.75781,4.152,4.152,0,0,1,.18067,1.2041,4.91551,4.91551,0,0,1-.65527,2.53516,9.207,9.207,0,0,1-2.60645,2.67676l-.10547-.13672a5.84012,5.84012,0,0,0,1.32813-1.34864,9.22614,9.22614,0,0,0,1.459-4.65429A4.97493,4.97493,0,0,0,319.09082,103.14063Z" transform="translate(-231.01399 -6.12187)"/>
  </g>
  <g>
    <g>
      <path class="cls-2" d="M409.68748,54.00236c0,4.672-12.089,8.46-27,8.46s-27-3.788-27-8.46,12.089-8.46,27-8.46,27,3.788,27,8.46" transform="translate(-231.01399 -6.12187)"/>
      <ellipse class="cls-3" cx="151.67349" cy="47.8805" rx="27" ry="8.46001"/>
      <path class="cls-4" d="M362.23926,58.19678l-.14942.07031a10.17766,10.17766,0,0,1-.75195-1.76221,4.24729,4.24729,0,0,1-.17578-1.2041,4.93235,4.93235,0,0,1,.65527-2.53564,9.15656,9.15656,0,0,1,2.60645-2.67188l.10547.15381a5.72945,5.72945,0,0,0-1.32813,1.34912,9.213,9.213,0,0,0-1.459,4.64942A4.97493,4.97493,0,0,0,362.23926,58.19678Z" transform="translate(-231.01399 -6.12187)"/>
      <path class="cls-4" d="M367.65039,52.36523l-.85644,2.9795-.09668.3999a.447.447,0,0,0-.01368.09668.18727.18727,0,0,0,.04493.123.11273.11273,0,0,0,.08789.03955.27473.27473,0,0,0,.14843-.07032,2.49137,2.49137,0,0,0,.457-.52734l.15039.10547a2.76909,2.76909,0,0,1-.625.69678,1.01738,1.01738,0,0,1-.59278.23925.38364.38364,0,0,1-.2832-.09472.36877.36877,0,0,1-.09473-.27442,2.25426,2.25426,0,0,1,.09668-.56689l.09278-.32959a4.31684,4.31684,0,0,1-1.05957,1.05029,1.28733,1.28733,0,0,1-.68067.21533.71664.71664,0,0,1-.55469-.26562,1.07812,1.07812,0,0,1-.23242-.73193,3.10168,3.10168,0,0,1,.41992-1.47413,3.62251,3.62251,0,0,1,1.06543-1.24169,1.64449,1.64449,0,0,1,.95411-.36915.696.696,0,0,1,.44531.14063.87791.87791,0,0,1,.27051.46582l.1582-.501Zm-1.56445.22852a.95816.95816,0,0,0-.59766.26367,3.20816,3.20816,0,0,0-.79687,1.10742,3.12838,3.12838,0,0,0-.34961,1.32715.69847.69847,0,0,0,.14941.47217.44212.44212,0,0,0,.34277.17383q.479,0,1.041-.70752a3.06242,3.06242,0,0,0,.752-1.9292.82292.82292,0,0,0-.14453-.54053A.4987.4987,0,0,0,366.08594,52.59375Z" transform="translate(-231.01399 -6.12187)"/>
      <path class="cls-4" d="M370.23047,54.18164a.87436.87436,0,0,1,.70117.34766,1.72939,1.72939,0,0,1,.2832,1.09912,4.36218,4.36218,0,0,1-.21093,1.314,3.66244,3.66244,0,0,1-.59473,1.16114,2.01077,2.01077,0,0,1-.64063.55908.9976.9976,0,0,1-.45214.09765.879.879,0,0,1-.707-.34814,1.734,1.734,0,0,1-.28516-1.10254,4.16638,4.16638,0,0,1,.28711-1.49561,3.2881,3.2881,0,0,1,.85449-1.33349A1.13159,1.13159,0,0,1,370.23047,54.18164Zm.00293.16895a.629.629,0,0,0-.38184.148,1.61694,1.61694,0,0,0-.40039.61621,7.82777,7.82777,0,0,0-.39453,1.20654,6.88147,6.88147,0,0,0-.24414,1.64551.7488.7488,0,0,0,.14648.50537.45215.45215,0,0,0,.35352.16748.47762.47762,0,0,0,.33887-.12988,2.79937,2.79937,0,0,0,.64062-1.2002,7.99124,7.99124,0,0,0,.43262-2.25684.80363.80363,0,0,0-.14648-.53125A.44129.44129,0,0,0,370.2334,54.35059Z" transform="translate(-231.01399 -6.12187)"/>
      <g>
        <path class="cls-4" d="M371.25586,57.33105a1.59691,1.59691,0,0,0,.53516-.37792.51853.51853,0,0,0,.1582-.33838.38684.38684,0,0,0-.02539-.145.80544.80544,0,0,0-.12305-.14063.55125.55125,0,0,1-.11914-.145.44692.44692,0,0,1-.03125-.17138.45357.45357,0,0,1,.12988-.3252.40952.40952,0,0,1,.30567-.13623.42745.42745,0,0,1,.31836.145.50538.50538,0,0,1,.13867.36475,1.29981,1.29981,0,0,1-.30762.791,1.964,1.964,0,0,1-.8916.61963Z" transform="translate(-231.01399 -6.12187)"/>
        <path class="cls-4" d="M377.82031,52.36523l-.85644,2.9795-.09668.3999a.44687.44687,0,0,0-.01367.09668.18726.18726,0,0,0,.04492.123.11274.11274,0,0,0,.08789.03955.27478.27478,0,0,0,.14844-.07032,2.49169,2.49169,0,0,0,.457-.52734l.15039.10547a2.76909,2.76909,0,0,1-.625.69678,1.01738,1.01738,0,0,1-.59278.23925.38364.38364,0,0,1-.2832-.09472.36877.36877,0,0,1-.09473-.27442,2.25426,2.25426,0,0,1,.09668-.56689l.09278-.32959a4.31684,4.31684,0,0,1-1.05957,1.05029,1.28733,1.28733,0,0,1-.68067.21533.71662.71662,0,0,1-.55468-.26562,1.07807,1.07807,0,0,1-.23243-.73193,3.10158,3.10158,0,0,1,.41993-1.47413,3.62229,3.62229,0,0,1,1.06543-1.24169,1.64444,1.64444,0,0,1,.9541-.36915.696.696,0,0,1,.44531.14063.87791.87791,0,0,1,.27051.46582l.1582-.501Zm-1.56445.22852a.95816.95816,0,0,0-.59766.26367,3.20829,3.20829,0,0,0-.79687,1.10742,3.12838,3.12838,0,0,0-.34961,1.32715.69847.69847,0,0,0,.14941.47217.44212.44212,0,0,0,.34278.17383q.479,0,1.041-.70752a3.06238,3.06238,0,0,0,.752-1.9292.82291.82291,0,0,0-.14454-.54053A.4987.4987,0,0,0,376.25586,52.59375Z" transform="translate(-231.01399 -6.12187)"/>
      </g>
      <path class="cls-4" d="M380.48633,58.68213H378.291V58.562a13.002,13.002,0,0,0,2.21875-2.30566,1.482,1.482,0,0,0,.25-.813.75574.75574,0,0,0-.208-.55127.722.722,0,0,0-.54-.21289.88059.88059,0,0,0-.75391.439l-.11426-.05224a1.43614,1.43614,0,0,1,.48438-.65186,1.14361,1.14361,0,0,1,.68945-.23242.97959.97959,0,0,1,.99219.98535,1.3888,1.3888,0,0,1-.10059.52979,3.16438,3.16438,0,0,1-.57617.85205,19.71321,19.71321,0,0,1-1.70117,1.66162h1.10645a.798.798,0,0,0,.43847-.11035.62581.62581,0,0,0,.248-.2959h.12891Z" transform="translate(-231.01399 -6.12187)"/>
      <g>
        <path class="cls-4" d="M381.33594,57.33105a1.59676,1.59676,0,0,0,.53515-.37792.5185.5185,0,0,0,.15821-.33838.387.387,0,0,0-.02539-.145.80544.80544,0,0,0-.12305-.14063.55125.55125,0,0,1-.11914-.145.44692.44692,0,0,1-.03125-.17138.45357.45357,0,0,1,.12988-.3252.40952.40952,0,0,1,.30567-.13623.42745.42745,0,0,1,.31836.145.50538.50538,0,0,1,.13867.36475,1.29981,1.29981,0,0,1-.30762.791,1.964,1.964,0,0,1-.8916.61963Z" transform="translate(-231.01399 -6.12187)"/>
        <path class="cls-4" d="M387.90039,52.36523l-.85644,2.9795-.09668.3999a.447.447,0,0,0-.01368.09668.18727.18727,0,0,0,.04493.123.11273.11273,0,0,0,.08789.03955.27473.27473,0,0,0,.14843-.07032,2.49137,2.49137,0,0,0,.457-.52734l.15039.10547a2.76909,2.76909,0,0,1-.625.69678,1.01738,1.01738,0,0,1-.59278.23925.38364.38364,0,0,1-.2832-.09472.36877.36877,0,0,1-.09473-.27442,2.25426,2.25426,0,0,1,.09668-.56689l.09278-.32959a4.31684,4.31684,0,0,1-1.05957,1.05029,1.28733,1.28733,0,0,1-.68067.21533.71664.71664,0,0,1-.55469-.26562,1.07812,1.07812,0,0,1-.23242-.73193,3.10168,3.10168,0,0,1,.41992-1.47413,3.62251,3.62251,0,0,1,1.06543-1.24169,1.64449,1.64449,0,0,1,.95411-.36915.696.696,0,0,1,.44531.14063.87791.87791,0,0,1,.27051.46582l.1582-.501Zm-1.56445.22852a.95816.95816,0,0,0-.59766.26367,3.20816,3.20816,0,0,0-.79687,1.10742,3.12838,3.12838,0,0,0-.34961,1.32715.69847.69847,0,0,0,.14941.47217.44212.44212,0,0,0,.34277.17383q.479,0,1.041-.70752a3.06242,3.06242,0,0,0,.752-1.9292.82292.82292,0,0,0-.14453-.54053A.4987.4987,0,0,0,386.33594,52.59375Z" transform="translate(-231.01399 -6.12187)"/>
      </g>
      <path class="cls-4" d="M391.50977,54.27246l-.8418,2.90088h.52637l-.11719.40332h-.5332l-.34082,1.18359h-.47852l.34473-1.18359h-1.59375l.13671-.45557,2.6504-2.84863Zm-.72168.83887-1.89551,2.062h1.30273Z" transform="translate(-231.01399 -6.12187)"/>
      <g>
        <path class="cls-4" d="M391.5957,57.33105a1.59691,1.59691,0,0,0,.53516-.37792.51848.51848,0,0,0,.1582-.33838.38684.38684,0,0,0-.02539-.145.8052.8052,0,0,0-.123-.14063.55115.55115,0,0,1-.11915-.145.44711.44711,0,0,1-.03125-.17138.45353.45353,0,0,1,.12989-.3252.40949.40949,0,0,1,.30566-.13623.42743.42743,0,0,1,.31836.145.50538.50538,0,0,1,.13867.36475,1.29986,1.29986,0,0,1-.30761.791,1.964,1.964,0,0,1-.89161.61963Z" transform="translate(-231.01399 -6.12187)"/>
        <path class="cls-4" d="M398.16016,52.36523l-.85645,2.9795-.09668.3999a.44687.44687,0,0,0-.01367.09668.18726.18726,0,0,0,.04492.123.11276.11276,0,0,0,.08789.03955.27478.27478,0,0,0,.14844-.07032,2.4914,2.4914,0,0,0,.457-.52734l.15039.10547a2.76871,2.76871,0,0,1-.625.69678,1.01735,1.01735,0,0,1-.59277.23925.38365.38365,0,0,1-.28321-.09472.3688.3688,0,0,1-.09472-.27442,2.25381,2.25381,0,0,1,.09668-.56689l.09277-.32959a4.31649,4.31649,0,0,1-1.05957,1.05029,1.2873,1.2873,0,0,1-.68066.21533.71662.71662,0,0,1-.55469-.26562,1.07807,1.07807,0,0,1-.23242-.73193,3.10168,3.10168,0,0,1,.41992-1.47413,3.62251,3.62251,0,0,1,1.06543-1.24169,1.64444,1.64444,0,0,1,.9541-.36915.696.696,0,0,1,.44531.14063.87784.87784,0,0,1,.27051.46582l.1582-.501Zm-1.56446.22852a.95811.95811,0,0,0-.59765.26367,3.20817,3.20817,0,0,0-.79688,1.10742,3.12838,3.12838,0,0,0-.34961,1.32715.69847.69847,0,0,0,.14942.47217.4421.4421,0,0,0,.34277.17383q.479,0,1.041-.70752a3.06242,3.06242,0,0,0,.752-1.9292.823.823,0,0,0-.14453-.54053A.49873.49873,0,0,0,396.5957,52.59375Z" transform="translate(-231.01399 -6.12187)"/>
      </g>
      <path class="cls-4" d="M401.84668,54.18164v.12647a2.73024,2.73024,0,0,0-1.0791.54834,3.96915,3.96915,0,0,0-.918,1.07128,1.5559,1.5559,0,0,1,.57227-.14941.94926.94926,0,0,1,.70507.29883,1.1104,1.1104,0,0,1,.291.80664,1.90024,1.90024,0,0,1-.502,1.32666,1.453,1.453,0,0,1-1.07911.5498.91062.91062,0,0,1-.79785-.38867,1.52647,1.52647,0,0,1-.27148-.89941,3.02684,3.02684,0,0,1,.30859-1.31494,3.41886,3.41886,0,0,1,.83789-1.11426,3.68691,3.68691,0,0,1,1.09766-.686A3.152,3.152,0,0,1,401.84668,54.18164Zm-2.15332,2.019a4.1166,4.1166,0,0,0-.46484,1.665.8032.8032,0,0,0,.17578.54834.52572.52572,0,0,0,.40332.19971q.37353,0,.69824-.54443a2.43655,2.43655,0,0,0,.32324-1.26368.85418.85418,0,0,0-.18847-.59179.59284.59284,0,0,0-.45508-.208.62835.62835,0,0,0-.2168.03711A1.35869,1.35869,0,0,0,399.69336,56.20068Z" transform="translate(-231.01399 -6.12187)"/>
      <path class="cls-4" d="M403.07715,50.17676l.14941-.0835a9.77639,9.77639,0,0,1,.74707,1.75781,4.152,4.152,0,0,1,.18067,1.20411,4.91719,4.91719,0,0,1-.65528,2.53564,9.19314,9.19314,0,0,1-2.60644,2.67627l-.10547-.13623a5.8418,5.8418,0,0,0,1.32812-1.34912,9.22627,9.22627,0,0,0,1.459-4.65381A4.9751,4.9751,0,0,0,403.07715,50.17676Z" transform="translate(-231.01399 -6.12187)"/>
    </g>
    <g>
      <path class="cls-2" d="M409.68748,159.89067c0,4.672-12.089,8.46-27,8.46s-27-3.788-27-8.46,12.089-8.46,27-8.46,27,3.788,27,8.46" transform="translate(-231.01399 -6.12187)"/>
      <ellipse class="cls-3" cx="151.67349" cy="153.76881" rx="27" ry="8.46001"/>
      <path class="cls-4" d="M362.23926,164.085l-.14844.07031a10.09867,10.09867,0,0,1-.752-1.76172,4.24729,4.24729,0,0,1-.17578-1.2041,4.93353,4.93353,0,0,1,.65429-2.53613,9.169,9.169,0,0,1,2.60645-2.67187l.10547.15429a5.7227,5.7227,0,0,0-1.32715,1.34864,9.18783,9.18783,0,0,0-1.459,4.64941A4.97149,4.97149,0,0,0,362.23926,164.085Z" transform="translate(-231.01399 -6.12187)"/>
      <path class="cls-4" d="M367.65039,158.25391l-.85644,2.97949-.09668.39941a.44712.44712,0,0,0-.01368.09668.18229.18229,0,0,0,.04493.12305.11174.11174,0,0,0,.08789.04.27477.27477,0,0,0,.14843-.07031,2.52015,2.52015,0,0,0,.457-.52735l.15039.10547a2.7761,2.7761,0,0,1-.625.69629,1.0198,1.0198,0,0,1-.59278.23926.38163.38163,0,0,1-.2832-.09473.36876.36876,0,0,1-.09473-.27441,2.25115,2.25115,0,0,1,.09668-.56641l.09278-.33008a4.32015,4.32015,0,0,1-1.05957,1.05078,1.28912,1.28912,0,0,1-.68067.21485.71522.71522,0,0,1-.55469-.26563,1.071,1.071,0,0,1-.23242-.73144,3.1049,3.1049,0,0,1,.41992-1.47461,3.62531,3.62531,0,0,1,1.06543-1.24121,1.64447,1.64447,0,0,1,.95411-.36914.696.696,0,0,1,.44531.14062.87791.87791,0,0,1,.27051.46582l.1582-.501Zm-1.56445.22851a.95816.95816,0,0,0-.59766.26367,3.20811,3.20811,0,0,0-.79687,1.10743,3.12834,3.12834,0,0,0-.34961,1.32714.69711.69711,0,0,0,.14941.47168.44212.44212,0,0,0,.34277.17383q.479,0,1.041-.707a3.06366,3.06366,0,0,0,.752-1.92969.8214.8214,0,0,0-.14453-.54A.49873.49873,0,0,0,366.08594,158.48242Z" transform="translate(-231.01399 -6.12187)"/>
      <path class="cls-4" d="M370.708,160.07031l-1.04688,3.64453a1.97308,1.97308,0,0,0-.09082.46582.21589.21589,0,0,0,.083.1836.84476.84476,0,0,0,.3877.08594l-.03223.12011H368.334l.0459-.12011a1.16789,1.16789,0,0,0,.35157-.042.45855.45855,0,0,0,.2041-.15625,1.84322,1.84322,0,0,0,.21777-.53711l.75488-2.61718c.0459-.15821.07032-.249.0752-.27344a.95017.95017,0,0,0,.00976-.12695.252.252,0,0,0-.0625-.17872.22355.22355,0,0,0-.16894-.06542,1.43685,1.43685,0,0,0-.26367.03906l-.042-.11621,1.09571-.30567Z" transform="translate(-231.01399 -6.12187)"/>
      <g>
        <path class="cls-4" d="M371.25586,163.21973a1.607,1.607,0,0,0,.53516-.37793.51957.51957,0,0,0,.1582-.33887.3843.3843,0,0,0-.02539-.14453.8545.8545,0,0,0-.12305-.14063.55056.55056,0,0,1-.11914-.1455.44446.44446,0,0,1-.03125-.1709.45767.45767,0,0,1,.12988-.3252.41.41,0,0,1,.30567-.13672.428.428,0,0,1,.31836.14551.50422.50422,0,0,1,.13867.36426,1.29981,1.29981,0,0,1-.30762.791,1.96467,1.96467,0,0,1-.8916.62012Z" transform="translate(-231.01399 -6.12187)"/>
        <path class="cls-4" d="M377.82031,158.25391l-.85644,2.97949-.09668.39941a.447.447,0,0,0-.01367.09668.18228.18228,0,0,0,.04492.12305.11174.11174,0,0,0,.08789.04.27483.27483,0,0,0,.14844-.07031,2.52047,2.52047,0,0,0,.457-.52735l.15039.10547a2.7761,2.7761,0,0,1-.625.69629,1.0198,1.0198,0,0,1-.59278.23926.38163.38163,0,0,1-.2832-.09473.36876.36876,0,0,1-.09473-.27441,2.25115,2.25115,0,0,1,.09668-.56641l.09278-.33008a4.32015,4.32015,0,0,1-1.05957,1.05078,1.28912,1.28912,0,0,1-.68067.21485.71518.71518,0,0,1-.55468-.26563,1.07092,1.07092,0,0,1-.23243-.73144,3.1048,3.1048,0,0,1,.41993-1.47461,3.6251,3.6251,0,0,1,1.06543-1.24121,1.64442,1.64442,0,0,1,.9541-.36914.696.696,0,0,1,.44531.14062.87791.87791,0,0,1,.27051.46582l.1582-.501Zm-1.56445.22851a.95816.95816,0,0,0-.59766.26367,3.20824,3.20824,0,0,0-.79687,1.10743,3.12834,3.12834,0,0,0-.34961,1.32714.69711.69711,0,0,0,.14941.47168.44212.44212,0,0,0,.34278.17383q.479,0,1.041-.707a3.06362,3.06362,0,0,0,.752-1.92969.8214.8214,0,0,0-.14454-.54A.49873.49873,0,0,0,376.25586,158.48242Z" transform="translate(-231.01399 -6.12187)"/>
      </g>
      <path class="cls-4" d="M379.20508,162.16113v-.09472a2.2378,2.2378,0,0,0,1.17383-.46778.76213.76213,0,0,0,.28027-.58886.58738.58738,0,0,0-.16309-.42481.5285.5285,0,0,0-.39355-.167.78851.78851,0,0,0-.64649.45215l-.12109-.03614a1.39511,1.39511,0,0,1,.43457-.57031.96335.96335,0,0,1,.58008-.19336.85784.85784,0,0,1,.62109.22852.77162.77162,0,0,1,.23828.58105.90324.90324,0,0,1-.22363.5752,1.84772,1.84772,0,0,1-.76562.49414,1.09086,1.09086,0,0,1,.51074.40234,1.11312,1.11312,0,0,1,.17285.62891,1.718,1.718,0,0,1-.877,1.44531,1.76473,1.76473,0,0,1-.85645.22266,1.11471,1.11471,0,0,1-.62109-.14258.27858.27858,0,0,1-.14063-.22754.265.265,0,0,1,.083-.19531.27849.27849,0,0,1,.20313-.082.57084.57084,0,0,1,.16992.02636,2.17676,2.17676,0,0,1,.25488.12989,1.90812,1.90812,0,0,0,.31738.15136.7253.7253,0,0,0,.2334.03711.55455.55455,0,0,0,.4834-.33984,1.45132,1.45132,0,0,0,.19043-.72266,1.17313,1.17313,0,0,0-.12891-.55664.962.962,0,0,0-.40429-.39453A1.40928,1.40928,0,0,0,379.20508,162.16113Z" transform="translate(-231.01399 -6.12187)"/>
      <g>
        <path class="cls-4" d="M381.33594,163.21973a1.60688,1.60688,0,0,0,.53515-.37793.51954.51954,0,0,0,.15821-.33887.3845.3845,0,0,0-.02539-.14453.8545.8545,0,0,0-.12305-.14063.55056.55056,0,0,1-.11914-.1455.44446.44446,0,0,1-.03125-.1709.45763.45763,0,0,1,.12988-.3252.41.41,0,0,1,.30567-.13672.428.428,0,0,1,.31836.14551.50422.50422,0,0,1,.13867.36426,1.29981,1.29981,0,0,1-.30762.791,1.96467,1.96467,0,0,1-.8916.62012Z" transform="translate(-231.01399 -6.12187)"/>
        <path class="cls-4" d="M387.90039,158.25391l-.85644,2.97949-.09668.39941a.44712.44712,0,0,0-.01368.09668.18229.18229,0,0,0,.04493.12305.11174.11174,0,0,0,.08789.04.27477.27477,0,0,0,.14843-.07031,2.52015,2.52015,0,0,0,.457-.52735l.15039.10547a2.7761,2.7761,0,0,1-.625.69629,1.0198,1.0198,0,0,1-.59278.23926.38163.38163,0,0,1-.2832-.09473.36876.36876,0,0,1-.09473-.27441,2.25115,2.25115,0,0,1,.09668-.56641l.09278-.33008a4.32015,4.32015,0,0,1-1.05957,1.05078,1.28912,1.28912,0,0,1-.68067.21485.71522.71522,0,0,1-.55469-.26563,1.071,1.071,0,0,1-.23242-.73144,3.1049,3.1049,0,0,1,.41992-1.47461,3.62531,3.62531,0,0,1,1.06543-1.24121,1.64447,1.64447,0,0,1,.95411-.36914.696.696,0,0,1,.44531.14062.87791.87791,0,0,1,.27051.46582l.1582-.501Zm-1.56445.22851a.95816.95816,0,0,0-.59766.26367,3.20811,3.20811,0,0,0-.79687,1.10743,3.12834,3.12834,0,0,0-.34961,1.32714.69711.69711,0,0,0,.14941.47168.44212.44212,0,0,0,.34277.17383q.479,0,1.041-.707a3.06366,3.06366,0,0,0,.752-1.92969.8214.8214,0,0,0-.14453-.54A.49873.49873,0,0,0,386.33594,158.48242Z" transform="translate(-231.01399 -6.12187)"/>
      </g>
      <path class="cls-4" d="M389.98438,160.16113H391.458l-.14942.53614h-1.32421l-.24415.543a1.67567,1.67567,0,0,1,.82032.32911,1.314,1.314,0,0,1,.45215,1.06347,1.94812,1.94812,0,0,1-.168.81739,2.11851,2.11851,0,0,1-.41016.61328,2.00688,2.00688,0,0,1-.51855.38965,1.63,1.63,0,0,1-.76075.19531.85717.85717,0,0,1-.5205-.14258.297.297,0,0,1-.12989-.24707.2687.2687,0,0,1,.085-.2002.28194.28194,0,0,1,.208-.083.64077.64077,0,0,1,.38379.17187.93068.93068,0,0,0,.21484.14356.40749.40749,0,0,0,.16211.02929.88485.88485,0,0,0,.67676-.36621,1.42293,1.42293,0,0,0,.3086-.95117,1.37066,1.37066,0,0,0-.16407-.69238.94144.94144,0,0,0-.418-.40332,2.22817,2.22817,0,0,0-.67675-.16309Z" transform="translate(-231.01399 -6.12187)"/>
      <g>
        <path class="cls-4" d="M391.5957,163.21973a1.607,1.607,0,0,0,.53516-.37793.51952.51952,0,0,0,.1582-.33887.3843.3843,0,0,0-.02539-.14453.85371.85371,0,0,0-.123-.14063.55046.55046,0,0,1-.11915-.1455.44465.44465,0,0,1-.03125-.1709.45764.45764,0,0,1,.12989-.3252.41.41,0,0,1,.30566-.13672.428.428,0,0,1,.31836.14551.50422.50422,0,0,1,.13867.36426,1.29986,1.29986,0,0,1-.30761.791,1.96465,1.96465,0,0,1-.89161.62012Z" transform="translate(-231.01399 -6.12187)"/>
        <path class="cls-4" d="M398.16016,158.25391l-.85645,2.97949-.09668.39941a.447.447,0,0,0-.01367.09668.18233.18233,0,0,0,.04492.12305.11175.11175,0,0,0,.08789.04.27483.27483,0,0,0,.14844-.07031,2.52047,2.52047,0,0,0,.457-.52735l.15039.10547a2.77572,2.77572,0,0,1-.625.69629,1.01977,1.01977,0,0,1-.59277.23926.38164.38164,0,0,1-.28321-.09473.36879.36879,0,0,1-.09472-.27441,2.2507,2.2507,0,0,1,.09668-.56641l.09277-.33008a4.3198,4.3198,0,0,1-1.05957,1.05078,1.28906,1.28906,0,0,1-.68066.21485.71519.71519,0,0,1-.55469-.26563,1.071,1.071,0,0,1-.23242-.73144,3.1049,3.1049,0,0,1,.41992-1.47461,3.62531,3.62531,0,0,1,1.06543-1.24121,1.64442,1.64442,0,0,1,.9541-.36914.696.696,0,0,1,.44531.14062.87784.87784,0,0,1,.27051.46582l.1582-.501Zm-1.56446.22851a.95811.95811,0,0,0-.59765.26367,3.20812,3.20812,0,0,0-.79688,1.10743,3.12834,3.12834,0,0,0-.34961,1.32714.69711.69711,0,0,0,.14942.47168.4421.4421,0,0,0,.34277.17383q.479,0,1.041-.707a3.06366,3.06366,0,0,0,.752-1.92969.82146.82146,0,0,0-.14453-.54A.49876.49876,0,0,0,396.5957,158.48242Z" transform="translate(-231.01399 -6.12187)"/>
      </g>
      <path class="cls-4" d="M399.63867,160.16113H401.834v.11035l-2.47168,4.377-.25976-.12012,2.16211-3.85059h-1.04688a1.53894,1.53894,0,0,0-.59082.07618,1.15005,1.15005,0,0,0-.36523.373h-.13379Z" transform="translate(-231.01399 -6.12187)"/>
      <path class="cls-4" d="M403.07715,156.06543l.14941-.084a9.77578,9.77578,0,0,1,.74707,1.75781,4.152,4.152,0,0,1,.18067,1.2041,4.919,4.919,0,0,1-.65528,2.53613,9.20464,9.20464,0,0,1-2.60644,2.67578l-.10547-.13574a5.84357,5.84357,0,0,0,1.32812-1.34961,9.22652,9.22652,0,0,0,1.459-4.65332A4.9751,4.9751,0,0,0,403.07715,156.06543Z" transform="translate(-231.01399 -6.12187)"/>
    </g>
  </g>
  <g>
    <g>
      <path class="cls-2" d="M473.334,133.283c0,4.672-7.535,8.46-16.83,8.46s-16.83-3.788-16.83-8.46,7.535-8.46,16.83-8.46,16.83,3.788,16.83,8.46" transform="translate(-231.01399 -6.12187)"/>
      <ellipse class="cls-3" cx="225.48997" cy="127.16113" rx="16.82999" ry="8.46001"/>
      <path class="cls-4" d="M446.22559,137.47754l-.14844.07031a10.10161,10.10161,0,0,1-.752-1.76221,4.2473,4.2473,0,0,1-.17579-1.2041,4.93174,4.93174,0,0,1,.6543-2.53564,9.169,9.169,0,0,1,2.60645-2.67188l.10547.15381a5.72461,5.72461,0,0,0-1.32715,1.34912,9.18783,9.18783,0,0,0-1.459,4.64942A4.97149,4.97149,0,0,0,446.22559,137.47754Z" transform="translate(-231.01399 -6.12187)"/>
      <path class="cls-4" d="M451.81641,131.646l-.85645,2.97949-.09668.3999a.447.447,0,0,0-.01367.09668.18233.18233,0,0,0,.04492.123.11135.11135,0,0,0,.08789.03955.27483.27483,0,0,0,.14844-.07031,2.52047,2.52047,0,0,0,.457-.52735l.15039.10547a2.78747,2.78747,0,0,1-.625.69678,1.01977,1.01977,0,0,1-.59277.23926.38365.38365,0,0,1-.28321-.09473.36879.36879,0,0,1-.09472-.27441,2.25387,2.25387,0,0,1,.09668-.5669l.09277-.32959a4.31649,4.31649,0,0,1-1.05957,1.05029,1.28989,1.28989,0,0,1-.68066.21534.71519.71519,0,0,1-.55469-.26563,1.07317,1.07317,0,0,1-.23242-.73193,3.10164,3.10164,0,0,1,.41992-1.47412,3.62254,3.62254,0,0,1,1.06543-1.2417,1.64442,1.64442,0,0,1,.9541-.36914.696.696,0,0,1,.44531.14062.87784.87784,0,0,1,.27051.46582l.1582-.501Zm-1.56446.22851a.95811.95811,0,0,0-.59765.26367,3.20812,3.20812,0,0,0-.79688,1.10743,3.12834,3.12834,0,0,0-.34961,1.32714.69847.69847,0,0,0,.14942.47217.4421.4421,0,0,0,.34277.17383q.479,0,1.041-.70752a3.06242,3.06242,0,0,0,.752-1.9292.823.823,0,0,0-.14453-.54053A.49876.49876,0,0,0,450.252,131.87451Z" transform="translate(-231.01399 -6.12187)"/>
      <path class="cls-4" d="M454.874,133.4624l-1.04687,3.645a1.96975,1.96975,0,0,0-.09082.46533.21586.21586,0,0,0,.083.1836.84282.84282,0,0,0,.38769.08642l-.03223.12012H452.5l.0459-.12012a1.16254,1.16254,0,0,0,.35156-.04248.45855.45855,0,0,0,.2041-.15625,1.84488,1.84488,0,0,0,.21778-.53662l.75488-2.61767c.0459-.15821.07031-.249.07519-.27295a.95645.95645,0,0,0,.00977-.127.25032.25032,0,0,0-.0625-.17871.22179.22179,0,0,0-.16895-.06543,1.3948,1.3948,0,0,0-.26367.03907l-.042-.1167,1.0957-.30567Z" transform="translate(-231.01399 -6.12187)"/>
      <g>
        <path class="cls-4" d="M455.24219,136.61182a1.60688,1.60688,0,0,0,.53515-.37793.51848.51848,0,0,0,.15821-.33838.387.387,0,0,0-.02539-.145.8545.8545,0,0,0-.12305-.14063.55125.55125,0,0,1-.11914-.145.44692.44692,0,0,1-.03125-.17138.45763.45763,0,0,1,.12988-.3252.40952.40952,0,0,1,.30567-.13623.42745.42745,0,0,1,.31836.145.50538.50538,0,0,1,.13867.36475,1.29981,1.29981,0,0,1-.30762.791,1.964,1.964,0,0,1-.8916.61963Z" transform="translate(-231.01399 -6.12187)"/>
        <path class="cls-4" d="M461.80664,131.646l-.85644,2.97949-.09668.3999a.447.447,0,0,0-.01368.09668.18229.18229,0,0,0,.04493.123.11134.11134,0,0,0,.08789.03955.27477.27477,0,0,0,.14843-.07031,2.52015,2.52015,0,0,0,.457-.52735l.15039.10547a2.78785,2.78785,0,0,1-.625.69678,1.0198,1.0198,0,0,1-.59278.23926.38364.38364,0,0,1-.2832-.09473.36876.36876,0,0,1-.09473-.27441,2.25433,2.25433,0,0,1,.09668-.5669l.09278-.32959a4.31684,4.31684,0,0,1-1.05957,1.05029,1.29,1.29,0,0,1-.68067.21534.71522.71522,0,0,1-.55469-.26563,1.07317,1.07317,0,0,1-.23242-.73193,3.10164,3.10164,0,0,1,.41992-1.47412,3.62254,3.62254,0,0,1,1.06543-1.2417,1.64447,1.64447,0,0,1,.95411-.36914.696.696,0,0,1,.44531.14062.87791.87791,0,0,1,.27051.46582l.1582-.501Zm-1.56445.22851a.95816.95816,0,0,0-.59766.26367,3.20811,3.20811,0,0,0-.79687,1.10743,3.12834,3.12834,0,0,0-.34961,1.32714.69847.69847,0,0,0,.14941.47217.44212.44212,0,0,0,.34277.17383q.479,0,1.041-.70752a3.06242,3.06242,0,0,0,.752-1.9292.82292.82292,0,0,0-.14453-.54053A.49873.49873,0,0,0,460.24219,131.87451Z" transform="translate(-231.01399 -6.12187)"/>
      </g>
      <path class="cls-4" d="M463.89063,133.55322h1.47363l-.14942.53662h-1.32421l-.24415.543a1.68009,1.68009,0,0,1,.82032.32862,1.31527,1.31527,0,0,1,.45215,1.06347,1.94872,1.94872,0,0,1-.168.81787,2.11577,2.11577,0,0,1-.41016.6128,2.02,2.02,0,0,1-.51855.39013,1.63575,1.63575,0,0,1-.76075.19532.854.854,0,0,1-.5205-.14307.29634.29634,0,0,1-.12989-.24707.26947.26947,0,0,1,.085-.2002.28385.28385,0,0,1,.208-.083.63889.63889,0,0,1,.38379.17236.92559.92559,0,0,0,.21484.14307.40749.40749,0,0,0,.16211.02929.88569.88569,0,0,0,.67676-.36572,1.42382,1.42382,0,0,0,.3086-.95117,1.37253,1.37253,0,0,0-.16407-.69287.94144.94144,0,0,0-.418-.40332,2.22948,2.22948,0,0,0-.67675-.1626Z" transform="translate(-231.01399 -6.12187)"/>
      <path class="cls-4" d="M466.90332,129.45752l.14941-.0835a9.77614,9.77614,0,0,1,.74707,1.75782,4.15192,4.15192,0,0,1,.18067,1.2041,4.91726,4.91726,0,0,1-.65527,2.53564,9.206,9.206,0,0,1-2.60645,2.67627l-.10547-.13623a5.84185,5.84185,0,0,0,1.32813-1.34912,9.22638,9.22638,0,0,0,1.459-4.65381A4.97493,4.97493,0,0,0,466.90332,129.45752Z" transform="translate(-231.01399 -6.12187)"/>
    </g>
    <g>
      <path class="cls-2" d="M473.334,185.95594c0,4.672-7.535,8.46-16.83,8.46s-16.83-3.788-16.83-8.46,7.535-8.46,16.83-8.46,16.83,3.788,16.83,8.46" transform="translate(-231.01399 -6.12187)"/>
      <ellipse class="cls-3" cx="225.48997" cy="179.83407" rx="16.82999" ry="8.46001"/>
      <path class="cls-4" d="M446.22559,190.15039l-.14844.07031a10.10481,10.10481,0,0,1-.752-1.76269,4.2474,4.2474,0,0,1-.17579-1.2041,4.93,4.93,0,0,1,.6543-2.53516,9.16887,9.16887,0,0,1,2.60645-2.67187l.10547.15332a5.72615,5.72615,0,0,0-1.32715,1.3496,9.18783,9.18783,0,0,0-1.459,4.64942A4.97149,4.97149,0,0,0,446.22559,190.15039Z" transform="translate(-231.01399 -6.12187)"/>
      <path class="cls-4" d="M451.81641,184.31836l-.85645,2.97949-.09668.40039a.447.447,0,0,0-.01367.09668.18233.18233,0,0,0,.04492.12305.11089.11089,0,0,0,.08789.03906.27483.27483,0,0,0,.14844-.07031,2.52008,2.52008,0,0,0,.457-.52734l.15039.10546a2.79929,2.79929,0,0,1-.625.69727,1.01977,1.01977,0,0,1-.59277.23926.38569.38569,0,0,1-.28321-.09473.36879.36879,0,0,1-.09472-.27441,2.257,2.257,0,0,1,.09668-.56739l.09277-.3291a4.31308,4.31308,0,0,1-1.05957,1.04981,1.29079,1.29079,0,0,1-.68066.21582.71519.71519,0,0,1-.55469-.26563,1.07534,1.07534,0,0,1-.23242-.73242,3.09839,3.09839,0,0,1,.41992-1.47363A3.61988,3.61988,0,0,1,449.29,184.6875a1.64449,1.64449,0,0,1,.9541-.36914.696.696,0,0,1,.44531.14062.87788.87788,0,0,1,.27051.46582l.1582-.501Zm-1.56446.22852a.95811.95811,0,0,0-.59765.26367,3.208,3.208,0,0,0-.79688,1.10742,3.12838,3.12838,0,0,0-.34961,1.32715.6998.6998,0,0,0,.14942.47265A.4421.4421,0,0,0,449,187.8916q.479,0,1.041-.708a3.06118,3.06118,0,0,0,.752-1.92871.82446.82446,0,0,0-.14453-.541A.49873.49873,0,0,0,450.252,184.54688Z" transform="translate(-231.01399 -6.12187)"/>
      <path class="cls-4" d="M453.11133,188.22559v-.09375a2.23,2.23,0,0,0,1.17383-.46875.7607.7607,0,0,0,.28027-.58887.58348.58348,0,0,0-.16309-.42383.52942.52942,0,0,0-.39355-.168.79057.79057,0,0,0-.64649.45215l-.12109-.03516a1.392,1.392,0,0,1,.43457-.57128.96329.96329,0,0,1,.58008-.19336.85443.85443,0,0,1,.62109.22949.768.768,0,0,1,.23828.58008.90571.90571,0,0,1-.22363.57617,1.86723,1.86723,0,0,1-.76562.49414,1.08318,1.08318,0,0,1,.51074.40137,1.11753,1.11753,0,0,1,.17285.6289,1.71786,1.71786,0,0,1-.877,1.44629,1.76473,1.76473,0,0,1-.85645.22266,1.10592,1.10592,0,0,1-.62109-.14356.276.276,0,0,1-.14063-.22754.2666.2666,0,0,1,.083-.19531.28157.28157,0,0,1,.20313-.08105.57084.57084,0,0,1,.16992.02636,2.0195,2.0195,0,0,1,.25488.12989,1.99194,1.99194,0,0,0,.31738.15136.75285.75285,0,0,0,.2334.03711.55628.55628,0,0,0,.4834-.33984,1.45755,1.45755,0,0,0,.19043-.72363,1.16916,1.16916,0,0,0-.12891-.55567.95844.95844,0,0,0-.40429-.39551A1.437,1.437,0,0,0,453.11133,188.22559Z" transform="translate(-231.01399 -6.12187)"/>
      <g>
        <path class="cls-4" d="M455.24219,189.28418a1.60688,1.60688,0,0,0,.53515-.37793.51742.51742,0,0,0,.15821-.33789.3897.3897,0,0,0-.02539-.14551.85417.85417,0,0,0-.12305-.14062.55249.55249,0,0,1-.11914-.14453.44957.44957,0,0,1-.03125-.17188.4576.4576,0,0,1,.12988-.32519.409.409,0,0,1,.30567-.13575.42691.42691,0,0,1,.31836.14453.50655.50655,0,0,1,.13867.36524,1.29981,1.29981,0,0,1-.30762.791,1.96323,1.96323,0,0,1-.8916.61914Z" transform="translate(-231.01399 -6.12187)"/>
        <path class="cls-4" d="M461.80664,184.31836l-.85644,2.97949-.09668.40039a.447.447,0,0,0-.01368.09668.18229.18229,0,0,0,.04493.12305.11088.11088,0,0,0,.08789.03906.27477.27477,0,0,0,.14843-.07031,2.51975,2.51975,0,0,0,.457-.52734l.15039.10546a2.79968,2.79968,0,0,1-.625.69727,1.0198,1.0198,0,0,1-.59278.23926.38568.38568,0,0,1-.2832-.09473.36876.36876,0,0,1-.09473-.27441,2.25751,2.25751,0,0,1,.09668-.56739l.09278-.3291a4.31342,4.31342,0,0,1-1.05957,1.04981,1.29085,1.29085,0,0,1-.68067.21582.71522.71522,0,0,1-.55469-.26563,1.07534,1.07534,0,0,1-.23242-.73242,3.09839,3.09839,0,0,1,.41992-1.47363,3.61988,3.61988,0,0,1,1.06543-1.24219,1.64454,1.64454,0,0,1,.95411-.36914.696.696,0,0,1,.44531.14062.878.878,0,0,1,.27051.46582l.1582-.501Zm-1.56445.22852a.95816.95816,0,0,0-.59766.26367,3.208,3.208,0,0,0-.79687,1.10742,3.12838,3.12838,0,0,0-.34961,1.32715.6998.6998,0,0,0,.14941.47265.44212.44212,0,0,0,.34277.17383q.479,0,1.041-.708a3.06118,3.06118,0,0,0,.752-1.92871.8244.8244,0,0,0-.14453-.541A.4987.4987,0,0,0,460.24219,184.54688Z" transform="translate(-231.01399 -6.12187)"/>
      </g>
      <path class="cls-4" d="M463.46484,186.22559h2.19532v.11035l-2.47168,4.37793-.25977-.1211,2.16211-3.84961H464.044a1.53866,1.53866,0,0,0-.59082.07618,1.13433,1.13433,0,0,0-.36524.37207h-.13379Z" transform="translate(-231.01399 -6.12187)"/>
      <path class="cls-4" d="M466.90332,182.12988l.14941-.083a9.77578,9.77578,0,0,1,.74707,1.75781,4.152,4.152,0,0,1,.18067,1.2041,4.91553,4.91553,0,0,1-.65527,2.53516,9.2069,9.2069,0,0,1-2.60645,2.67675l-.10547-.13672a5.83989,5.83989,0,0,0,1.32813-1.34863,9.22613,9.22613,0,0,0,1.459-4.6543A4.97493,4.97493,0,0,0,466.90332,182.12988Z" transform="translate(-231.01399 -6.12187)"/>
    </g>
    <g>
      <path class="cls-2" d="M473.334,80.61c0,4.672-7.535,8.46-16.83,8.46s-16.83-3.788-16.83-8.46,7.535-8.46,16.83-8.46,16.83,3.788,16.83,8.46" transform="translate(-231.01399 -6.12187)"/>
      <ellipse class="cls-3" cx="225.48997" cy="74.48818" rx="16.82999" ry="8.46001"/>
      <path class="cls-4" d="M446.22559,84.80469l-.14844.07031a10.10161,10.10161,0,0,1-.752-1.76221,4.2473,4.2473,0,0,1-.17579-1.2041,4.93174,4.93174,0,0,1,.6543-2.53564,9.16889,9.16889,0,0,1,2.60645-2.67188l.10547.15381a5.72443,5.72443,0,0,0-1.32715,1.34912,9.18783,9.18783,0,0,0-1.459,4.64942A4.97149,4.97149,0,0,0,446.22559,84.80469Z" transform="translate(-231.01399 -6.12187)"/>
      <path class="cls-4" d="M451.81641,78.97314l-.85645,2.9795-.09668.3999a.447.447,0,0,0-.01367.09668.18234.18234,0,0,0,.04492.12305.11135.11135,0,0,0,.08789.03955.27478.27478,0,0,0,.14844-.07032,2.52008,2.52008,0,0,0,.457-.52734l.15039.10547a2.78747,2.78747,0,0,1-.625.69678,1.01975,1.01975,0,0,1-.59277.23925.38365.38365,0,0,1-.28321-.09472.3688.3688,0,0,1-.09472-.27442,2.25381,2.25381,0,0,1,.09668-.56689L450.332,81.79a4.31649,4.31649,0,0,1-1.05957,1.05029,1.28987,1.28987,0,0,1-.68066.21533.71518.71518,0,0,1-.55469-.26562,1.07317,1.07317,0,0,1-.23242-.73193,3.10168,3.10168,0,0,1,.41992-1.47413A3.62251,3.62251,0,0,1,449.29,79.34229a1.64444,1.64444,0,0,1,.9541-.36915.696.696,0,0,1,.44531.14063.87784.87784,0,0,1,.27051.46582l.1582-.501Zm-1.56446.22852a.95811.95811,0,0,0-.59765.26367,3.20817,3.20817,0,0,0-.79688,1.10742,3.12838,3.12838,0,0,0-.34961,1.32715.69847.69847,0,0,0,.14942.47217A.4421.4421,0,0,0,449,82.5459q.479,0,1.041-.70752a3.06242,3.06242,0,0,0,.752-1.9292.823.823,0,0,0-.14453-.54053A.49873.49873,0,0,0,450.252,79.20166Z" transform="translate(-231.01399 -6.12187)"/>
      <path class="cls-4" d="M454.39258,85.29h-2.19434v-.12012a13.02361,13.02361,0,0,0,2.21778-2.30566,1.474,1.474,0,0,0,.25-.813.75574.75574,0,0,0-.208-.55127.72047.72047,0,0,0-.54-.21289.88059.88059,0,0,0-.75391.439l-.11426-.05224a1.43614,1.43614,0,0,1,.48438-.65186,1.14572,1.14572,0,0,1,.68945-.23242.97959.97959,0,0,1,.99219.98535,1.3888,1.3888,0,0,1-.10059.52979,3.14142,3.14142,0,0,1-.57617.85205,19.6848,19.6848,0,0,1-1.70019,1.66162h1.10547a.79574.79574,0,0,0,.43847-.11035.61834.61834,0,0,0,.24707-.2959h.13086Z" transform="translate(-231.01399 -6.12187)"/>
      <g>
        <path class="cls-4" d="M455.24219,83.939a1.60672,1.60672,0,0,0,.53515-.37792.5185.5185,0,0,0,.15821-.33838.387.387,0,0,0-.02539-.145.85407.85407,0,0,0-.12305-.14063.55125.55125,0,0,1-.11914-.145.44692.44692,0,0,1-.03125-.17138.45763.45763,0,0,1,.12988-.3252.40952.40952,0,0,1,.30567-.13623.42745.42745,0,0,1,.31836.145.50538.50538,0,0,1,.13867.36475,1.29981,1.29981,0,0,1-.30762.791,1.964,1.964,0,0,1-.8916.61963Z" transform="translate(-231.01399 -6.12187)"/>
        <path class="cls-4" d="M461.80664,78.97314l-.85644,2.9795-.09668.3999a.447.447,0,0,0-.01368.09668.1823.1823,0,0,0,.04493.12305.11134.11134,0,0,0,.08789.03955.27473.27473,0,0,0,.14843-.07032,2.51975,2.51975,0,0,0,.457-.52734l.15039.10547a2.78785,2.78785,0,0,1-.625.69678,1.01978,1.01978,0,0,1-.59278.23925.38364.38364,0,0,1-.2832-.09472.36877.36877,0,0,1-.09473-.27442,2.25426,2.25426,0,0,1,.09668-.56689l.09278-.32959a4.31684,4.31684,0,0,1-1.05957,1.05029,1.28993,1.28993,0,0,1-.68067.21533.71521.71521,0,0,1-.55469-.26562,1.07317,1.07317,0,0,1-.23242-.73193,3.10168,3.10168,0,0,1,.41992-1.47413,3.62251,3.62251,0,0,1,1.06543-1.24169,1.64449,1.64449,0,0,1,.95411-.36915.696.696,0,0,1,.44531.14063.87791.87791,0,0,1,.27051.46582l.1582-.501Zm-1.56445.22852a.95816.95816,0,0,0-.59766.26367,3.20816,3.20816,0,0,0-.79687,1.10742,3.12838,3.12838,0,0,0-.34961,1.32715.69847.69847,0,0,0,.14941.47217.44212.44212,0,0,0,.34277.17383q.479,0,1.041-.70752a3.06242,3.06242,0,0,0,.752-1.9292.82292.82292,0,0,0-.14453-.54053A.4987.4987,0,0,0,460.24219,79.20166Z" transform="translate(-231.01399 -6.12187)"/>
      </g>
      <path class="cls-4" d="M465.67285,80.78955V80.916a2.72391,2.72391,0,0,0-1.0791.54834,3.96933,3.96933,0,0,0-.918,1.07128,1.5555,1.5555,0,0,1,.57324-.14941.945.945,0,0,1,.70313.29883,1.10691,1.10691,0,0,1,.292.80664,1.89937,1.89937,0,0,1-.501,1.32666,1.45642,1.45642,0,0,1-1.08007.5498.91063.91063,0,0,1-.79786-.38867,1.52647,1.52647,0,0,1-.27148-.89941,3.02684,3.02684,0,0,1,.30859-1.31494,3.44355,3.44355,0,0,1,.83692-1.11426,3.71138,3.71138,0,0,1,1.09765-.686A3.16,3.16,0,0,1,465.67285,80.78955Zm-2.15234,2.019a4.1046,4.1046,0,0,0-.46582,1.665.8032.8032,0,0,0,.17578.54834.52574.52574,0,0,0,.40332.19971c.249,0,.48242-.18164.69726-.54443a2.42759,2.42759,0,0,0,.32422-1.26368.85418.85418,0,0,0-.18847-.59179.59481.59481,0,0,0-.45606-.208.62683.62683,0,0,0-.21582.03711A1.33136,1.33136,0,0,0,463.52051,82.80859Z" transform="translate(-231.01399 -6.12187)"/>
      <path class="cls-4" d="M466.90332,76.78467l.14941-.0835a9.77639,9.77639,0,0,1,.74707,1.75781,4.152,4.152,0,0,1,.18067,1.20411,4.91726,4.91726,0,0,1-.65527,2.53564,9.206,9.206,0,0,1-2.60645,2.67627l-.10547-.13623a5.84185,5.84185,0,0,0,1.32813-1.34912,9.22638,9.22638,0,0,0,1.459-4.65381A4.97493,4.97493,0,0,0,466.90332,76.78467Z" transform="translate(-231.01399 -6.12187)"/>
    </g>
    <g>
      <path class="cls-2" d="M473.334,27.9371c0,4.672-7.535,8.46-16.83,8.46s-16.83-3.788-16.83-8.46,7.535-8.46,16.83-8.46,16.83,3.788,16.83,8.46" transform="translate(-231.01399 -6.12187)"/>
      <ellipse class="cls-3" cx="225.48997" cy="21.81523" rx="16.82999" ry="8.46001"/>
      <path class="cls-4" d="M446.22559,32.13135l-.14844.07031a10.10161,10.10161,0,0,1-.752-1.76221,4.2473,4.2473,0,0,1-.17579-1.2041,4.93174,4.93174,0,0,1,.6543-2.53564,9.16889,9.16889,0,0,1,2.60645-2.67188l.10547.15381a5.72443,5.72443,0,0,0-1.32715,1.34912,9.18783,9.18783,0,0,0-1.459,4.64942A4.97149,4.97149,0,0,0,446.22559,32.13135Z" transform="translate(-231.01399 -6.12187)"/>
      <path class="cls-4" d="M451.81641,26.2998,450.96,29.2793l-.09668.3999a.447.447,0,0,0-.01367.09668.18234.18234,0,0,0,.04492.123.11135.11135,0,0,0,.08789.03955.27478.27478,0,0,0,.14844-.07032,2.52008,2.52008,0,0,0,.457-.52734l.15039.10547a2.78747,2.78747,0,0,1-.625.69678,1.01975,1.01975,0,0,1-.59277.23925.38365.38365,0,0,1-.28321-.09472.3688.3688,0,0,1-.09472-.27442,2.25381,2.25381,0,0,1,.09668-.56689l.09277-.32959a4.31649,4.31649,0,0,1-1.05957,1.05029,1.28987,1.28987,0,0,1-.68066.21533.71518.71518,0,0,1-.55469-.26562,1.07317,1.07317,0,0,1-.23242-.73193,3.10168,3.10168,0,0,1,.41992-1.47413A3.62251,3.62251,0,0,1,449.29,26.669a1.64444,1.64444,0,0,1,.9541-.36915.696.696,0,0,1,.44531.14063.87784.87784,0,0,1,.27051.46582l.1582-.501Zm-1.56446.22852a.95811.95811,0,0,0-.59765.26367,3.20817,3.20817,0,0,0-.79688,1.10742,3.12838,3.12838,0,0,0-.34961,1.32715.69847.69847,0,0,0,.14942.47217A.4421.4421,0,0,0,449,29.87256q.479,0,1.041-.70752a3.06242,3.06242,0,0,0,.752-1.9292.823.823,0,0,0-.14453-.54053A.49873.49873,0,0,0,450.252,26.52832Z" transform="translate(-231.01399 -6.12187)"/>
      <path class="cls-4" d="M454.39648,28.11621a.8712.8712,0,0,1,.7002.34766,1.72869,1.72869,0,0,1,.28516,1.09912,4.3638,4.3638,0,0,1-.21192,1.314,3.64244,3.64244,0,0,1-.59472,1.16114,2.02125,2.02125,0,0,1-.64063.55908,1.00052,1.00052,0,0,1-.45215.09765.87772.87772,0,0,1-.707-.34814,1.728,1.728,0,0,1-.28516-1.10254,4.18594,4.18594,0,0,1,.28614-1.4956,3.29934,3.29934,0,0,1,.85547-1.3335A1.13158,1.13158,0,0,1,454.39648,28.11621Zm.00293.169a.629.629,0,0,0-.38183.14795,1.61671,1.61671,0,0,0-.40039.61621,7.82668,7.82668,0,0,0-.39453,1.20654,6.88147,6.88147,0,0,0-.24414,1.64551.74874.74874,0,0,0,.14648.50537.45263.45263,0,0,0,.35449.16748.47854.47854,0,0,0,.33789-.12988,2.79937,2.79937,0,0,0,.64063-1.2002,7.9916,7.9916,0,0,0,.43262-2.25684.80357.80357,0,0,0-.14649-.53125A.44128.44128,0,0,0,454.39941,28.28516Z" transform="translate(-231.01399 -6.12187)"/>
      <g>
        <path class="cls-4" d="M455.24219,31.26563a1.60688,1.60688,0,0,0,.53515-.37793.5185.5185,0,0,0,.15821-.33838.387.387,0,0,0-.02539-.145.85407.85407,0,0,0-.12305-.14063.55125.55125,0,0,1-.11914-.145.44692.44692,0,0,1-.03125-.17138.45763.45763,0,0,1,.12988-.3252.40952.40952,0,0,1,.30567-.13623.42745.42745,0,0,1,.31836.145.50538.50538,0,0,1,.13867.36475,1.29981,1.29981,0,0,1-.30762.791,1.964,1.964,0,0,1-.8916.61963Z" transform="translate(-231.01399 -6.12187)"/>
        <path class="cls-4" d="M461.80664,26.2998l-.85644,2.9795-.09668.3999a.447.447,0,0,0-.01368.09668.1823.1823,0,0,0,.04493.123.11134.11134,0,0,0,.08789.03955.27473.27473,0,0,0,.14843-.07032,2.51975,2.51975,0,0,0,.457-.52734l.15039.10547a2.78785,2.78785,0,0,1-.625.69678,1.01978,1.01978,0,0,1-.59278.23925.38364.38364,0,0,1-.2832-.09472.36877.36877,0,0,1-.09473-.27442,2.25426,2.25426,0,0,1,.09668-.56689l.09278-.32959A4.31684,4.31684,0,0,1,459.2627,30.167a1.28993,1.28993,0,0,1-.68067.21533.71521.71521,0,0,1-.55469-.26562,1.07317,1.07317,0,0,1-.23242-.73193,3.10168,3.10168,0,0,1,.41992-1.47413,3.62251,3.62251,0,0,1,1.06543-1.24169,1.64449,1.64449,0,0,1,.95411-.36915.696.696,0,0,1,.44531.14063.87791.87791,0,0,1,.27051.46582l.1582-.501Zm-1.56445.22852a.95816.95816,0,0,0-.59766.26367,3.20816,3.20816,0,0,0-.79687,1.10742,3.12838,3.12838,0,0,0-.34961,1.32715.69847.69847,0,0,0,.14941.47217.44212.44212,0,0,0,.34277.17383q.479,0,1.041-.70752a3.06242,3.06242,0,0,0,.752-1.9292.82292.82292,0,0,0-.14453-.54053A.4987.4987,0,0,0,460.24219,26.52832Z" transform="translate(-231.01399 -6.12187)"/>
      </g>
      <path class="cls-4" d="M465.416,28.207l-.8418,2.90088h.52637l-.11719.40332h-.5332l-.3418,1.18359h-.47754l.34473-1.18359h-1.59375l.13671-.45557L465.169,28.207Zm-.72168.83887-1.89649,2.062h1.30469Z" transform="translate(-231.01399 -6.12187)"/>
      <path class="cls-4" d="M466.90332,24.11133l.14941-.0835a9.77639,9.77639,0,0,1,.74707,1.75781,4.152,4.152,0,0,1,.18067,1.20411,4.91726,4.91726,0,0,1-.65527,2.53564,9.206,9.206,0,0,1-2.60645,2.67627l-.10547-.13623a5.84185,5.84185,0,0,0,1.32813-1.34912,9.22638,9.22638,0,0,0,1.459-4.65381A4.97493,4.97493,0,0,0,466.90332,24.11133Z" transform="translate(-231.01399 -6.12187)"/>
    </g>
  </g>
  <g>
    <g>
      <path class="cls-2" d="M523.48047,172.7877c0,4.672-4.513,8.46-10.08,8.46s-10.08-3.788-10.08-8.46,4.513-8.46,10.08-8.46,10.08,3.788,10.08,8.46" transform="translate(-231.01399 -6.12187)"/>
      <ellipse class="cls-3" cx="282.38647" cy="166.66583" rx="10.07999" ry="8.46001"/>
      <path class="cls-4" d="M508.07129,176.98242l-.14844.07031a10.10449,10.10449,0,0,1-.75195-1.76269,4.24739,4.24739,0,0,1-.17578-1.2041,4.93,4.93,0,0,1,.65429-2.53516,9.169,9.169,0,0,1,2.60645-2.67187l.10547.15332a5.72619,5.72619,0,0,0-1.32715,1.34961,9.18769,9.18769,0,0,0-1.459,4.64941A4.97146,4.97146,0,0,0,508.07129,176.98242Z" transform="translate(-231.01399 -6.12187)"/>
      <path class="cls-4" d="M513.66309,171.15039l-.85645,2.97949-.09668.40039a.447.447,0,0,0-.01367.09668.18233.18233,0,0,0,.04492.12305.11089.11089,0,0,0,.08789.03906.27475.27475,0,0,0,.14844-.07031,2.52008,2.52008,0,0,0,.457-.52734l.15039.10547a2.79941,2.79941,0,0,1-.625.69726,1.01977,1.01977,0,0,1-.59277.23926.38569.38569,0,0,1-.28321-.09473.36878.36878,0,0,1-.09472-.27441,2.25691,2.25691,0,0,1,.09668-.56738l.09277-.32911a4.31308,4.31308,0,0,1-1.05957,1.04981,1.29079,1.29079,0,0,1-.68066.21582.71519.71519,0,0,1-.55469-.26563,1.07534,1.07534,0,0,1-.23242-.73242,3.09839,3.09839,0,0,1,.41992-1.47363,3.61977,3.61977,0,0,1,1.06543-1.24219,1.64449,1.64449,0,0,1,.9541-.36914.696.696,0,0,1,.44531.14063.87784.87784,0,0,1,.27051.46582l.1582-.501Zm-1.56446.22852a.95811.95811,0,0,0-.59765.26367,3.208,3.208,0,0,0-.79688,1.10742,3.12838,3.12838,0,0,0-.34961,1.32715.6998.6998,0,0,0,.14942.47265.44207.44207,0,0,0,.34277.17383q.479,0,1.041-.708a3.06123,3.06123,0,0,0,.75195-1.92872.82446.82446,0,0,0-.14453-.541A.49873.49873,0,0,0,512.09863,171.37891Z" transform="translate(-231.01399 -6.12187)"/>
      <path class="cls-4" d="M514.958,175.05762v-.09375a2.23,2.23,0,0,0,1.17383-.46875.76069.76069,0,0,0,.28027-.58887.58348.58348,0,0,0-.16309-.42383.52942.52942,0,0,0-.39355-.168.79057.79057,0,0,0-.64649.45215l-.12109-.03515a1.39194,1.39194,0,0,1,.43457-.57129.96329.96329,0,0,1,.58008-.19336.85443.85443,0,0,1,.62109.22949.768.768,0,0,1,.23828.58008.90569.90569,0,0,1-.22363.57617,1.86723,1.86723,0,0,1-.76562.49414,1.08318,1.08318,0,0,1,.51074.40137,1.11753,1.11753,0,0,1,.17285.6289,1.71786,1.71786,0,0,1-.87695,1.44629,1.76473,1.76473,0,0,1-.85645.22266,1.10592,1.10592,0,0,1-.62109-.14356.276.276,0,0,1-.14063-.22754.2666.2666,0,0,1,.083-.19531.28155.28155,0,0,1,.20313-.08105.57084.57084,0,0,1,.16992.02636,2.021,2.021,0,0,1,.25488.12989,1.99194,1.99194,0,0,0,.31738.15136.75285.75285,0,0,0,.2334.03711.55628.55628,0,0,0,.4834-.33984,1.45755,1.45755,0,0,0,.19043-.72363,1.16916,1.16916,0,0,0-.12891-.55567.95836.95836,0,0,0-.40429-.3955A1.43687,1.43687,0,0,0,514.958,175.05762Z" transform="translate(-231.01399 -6.12187)"/>
      <path class="cls-4" d="M518.66992,168.96191l.14942-.083a9.77754,9.77754,0,0,1,.74707,1.75781,4.1523,4.1523,0,0,1,.18066,1.2041,4.91551,4.91551,0,0,1-.65527,2.53516,9.2069,9.2069,0,0,1-2.60645,2.67675l-.10547-.13671a5.84012,5.84012,0,0,0,1.32813-1.34864,9.22614,9.22614,0,0,0,1.459-4.65429A4.97493,4.97493,0,0,0,518.66992,168.96191Z" transform="translate(-231.01399 -6.12187)"/>
    </g>
    <g>
      <path class="cls-2" d="M523.48047,199.12417c0,4.672-4.513,8.46-10.08,8.46s-10.08-3.788-10.08-8.46,4.513-8.46,10.08-8.46,10.08,3.788,10.08,8.46" transform="translate(-231.01399 -6.12187)"/>
      <ellipse class="cls-3" cx="282.38647" cy="193.00231" rx="10.07999" ry="8.46001"/>
      <path class="cls-4" d="M508.07129,203.31836l-.14844.07031a10.09867,10.09867,0,0,1-.75195-1.76172,4.24729,4.24729,0,0,1-.17578-1.2041,4.93353,4.93353,0,0,1,.65429-2.53613,9.16914,9.16914,0,0,1,2.60645-2.67188l.10547.1543a5.723,5.723,0,0,0-1.32715,1.34863,9.18768,9.18768,0,0,0-1.459,4.64942A4.97146,4.97146,0,0,0,508.07129,203.31836Z" transform="translate(-231.01399 -6.12187)"/>
      <path class="cls-4" d="M513.66309,197.4873l-.85645,2.9795-.09668.39941a.447.447,0,0,0-.01367.09668.18233.18233,0,0,0,.04492.12305.11179.11179,0,0,0,.08789.04.27478.27478,0,0,0,.14844-.07032,2.52008,2.52008,0,0,0,.457-.52734l.15039.10547a2.77572,2.77572,0,0,1-.625.69629,1.01977,1.01977,0,0,1-.59277.23926.38164.38164,0,0,1-.28321-.09473.36879.36879,0,0,1-.09472-.27441,2.25063,2.25063,0,0,1,.09668-.56641l.09277-.33008a4.32,4.32,0,0,1-1.05957,1.05078,1.28906,1.28906,0,0,1-.68066.21485.71519.71519,0,0,1-.55469-.26563,1.071,1.071,0,0,1-.23242-.73144,3.10486,3.10486,0,0,1,.41992-1.47461,3.62511,3.62511,0,0,1,1.06543-1.24121,1.64444,1.64444,0,0,1,.9541-.36915.696.696,0,0,1,.44531.14063.87784.87784,0,0,1,.27051.46582l.1582-.501Zm-1.56446.22852a.95811.95811,0,0,0-.59765.26367,3.20817,3.20817,0,0,0-.79688,1.10742,3.12838,3.12838,0,0,0-.34961,1.32715.69711.69711,0,0,0,.14942.47168.4421.4421,0,0,0,.34277.17383q.479,0,1.041-.707a3.06366,3.06366,0,0,0,.75195-1.92969.82146.82146,0,0,0-.14453-.54A.49873.49873,0,0,0,512.09863,197.71582Z" transform="translate(-231.01399 -6.12187)"/>
      <path class="cls-4" d="M515.23145,199.39453h2.19531v.11035l-2.47168,4.377-.25977-.12012,2.16211-3.85059h-1.04687a1.539,1.539,0,0,0-.59082.07617,1.15012,1.15012,0,0,0-.36524.37305h-.13379Z" transform="translate(-231.01399 -6.12187)"/>
      <path class="cls-4" d="M518.66992,195.29883l.14942-.084a9.7776,9.7776,0,0,1,.74707,1.75782,4.15225,4.15225,0,0,1,.18066,1.2041,4.919,4.919,0,0,1-.65527,2.53613,9.20494,9.20494,0,0,1-2.60645,2.67578l-.10547-.13574a5.84362,5.84362,0,0,0,1.32813-1.34961,9.22664,9.22664,0,0,0,1.459-4.65332A4.97493,4.97493,0,0,0,518.66992,195.29883Z" transform="translate(-231.01399 -6.12187)"/>
    </g>
    <g>
      <path class="cls-2" d="M523.48047,146.45123c0,4.672-4.513,8.46-10.08,8.46s-10.08-3.788-10.08-8.46,4.513-8.46,10.08-8.46,10.08,3.788,10.08,8.46" transform="translate(-231.01399 -6.12187)"/>
      <ellipse class="cls-3" cx="282.38647" cy="140.32936" rx="10.07999" ry="8.46001"/>
      <path class="cls-4" d="M508.07129,150.64551l-.14844.07031a10.09867,10.09867,0,0,1-.75195-1.76172,4.24734,4.24734,0,0,1-.17578-1.2041,4.93353,4.93353,0,0,1,.65429-2.53613,9.169,9.169,0,0,1,2.60645-2.67188l.10547.15381a5.72481,5.72481,0,0,0-1.32715,1.34912,9.18768,9.18768,0,0,0-1.459,4.64942A4.97146,4.97146,0,0,0,508.07129,150.64551Z" transform="translate(-231.01399 -6.12187)"/>
      <path class="cls-4" d="M513.66309,144.814l-.85645,2.98-.09668.39941a.447.447,0,0,0-.01367.09668.18234.18234,0,0,0,.04492.12305.11179.11179,0,0,0,.08789.04.27478.27478,0,0,0,.14844-.07032,2.52008,2.52008,0,0,0,.457-.52734l.15039.10547a2.77572,2.77572,0,0,1-.625.69629,1.01975,1.01975,0,0,1-.59277.23925.38168.38168,0,0,1-.28321-.09472.3688.3688,0,0,1-.09472-.27442,2.25063,2.25063,0,0,1,.09668-.5664l.09277-.33008a4.32,4.32,0,0,1-1.05957,1.05078,1.289,1.289,0,0,1-.68066.21484.71518.71518,0,0,1-.55469-.26562,1.071,1.071,0,0,1-.23242-.73145,3.1049,3.1049,0,0,1,.41992-1.47461,3.6253,3.6253,0,0,1,1.06543-1.24121,1.64209,1.64209,0,0,1,.9541-.36963.696.696,0,0,1,.44531.14063.88141.88141,0,0,1,.27051.46631l.1582-.50147Zm-1.56446.229a.95811.95811,0,0,0-.59765.26367,3.208,3.208,0,0,0-.79688,1.10742,3.12838,3.12838,0,0,0-.34961,1.32715.69711.69711,0,0,0,.14942.47168.4421.4421,0,0,0,.34277.17383q.479,0,1.041-.707a3.06368,3.06368,0,0,0,.75195-1.92969.82146.82146,0,0,0-.14453-.54A.49873.49873,0,0,0,512.09863,145.043Z" transform="translate(-231.01399 -6.12187)"/>
      <path class="cls-4" d="M515.65723,146.72168h1.47363l-.14941.53613h-1.32422l-.24414.543a1.67563,1.67563,0,0,1,.82031.3291,1.314,1.314,0,0,1,.45215,1.06348,1.94789,1.94789,0,0,1-.168.81738,2.11851,2.11851,0,0,1-.41016.61328,2.00665,2.00665,0,0,1-.51855.38965,1.62982,1.62982,0,0,1-.76074.19531.85727.85727,0,0,1-.52051-.14257.297.297,0,0,1-.12989-.24707.26868.26868,0,0,1,.085-.2002.28192.28192,0,0,1,.208-.083.64079.64079,0,0,1,.38379.17188.93059.93059,0,0,0,.21485.14355.40745.40745,0,0,0,.16211.0293.88484.88484,0,0,0,.67675-.36621,1.42293,1.42293,0,0,0,.3086-.95117,1.3707,1.3707,0,0,0-.16407-.69239.94152.94152,0,0,0-.418-.40332,2.22864,2.22864,0,0,0-.67676-.16308Z" transform="translate(-231.01399 -6.12187)"/>
      <path class="cls-4" d="M518.66992,142.62549l.14942-.0835a9.77784,9.77784,0,0,1,.74707,1.75781,4.15236,4.15236,0,0,1,.18066,1.20411,4.919,4.919,0,0,1-.65527,2.53613,9.20494,9.20494,0,0,1-2.60645,2.67578l-.10547-.13574a5.84362,5.84362,0,0,0,1.32813-1.34961,9.22638,9.22638,0,0,0,1.459-4.65381A4.97493,4.97493,0,0,0,518.66992,142.62549Z" transform="translate(-231.01399 -6.12187)"/>
    </g>
    <g>
      <path class="cls-2" d="M523.48047,120.11475c0,4.672-4.513,8.46-10.08,8.46s-10.08-3.788-10.08-8.46,4.513-8.46,10.08-8.46,10.08,3.788,10.08,8.46" transform="translate(-231.01399 -6.12187)"/>
      <ellipse class="cls-3" cx="282.38647" cy="113.99289" rx="10.07999" ry="8.46001"/>
      <path class="cls-4" d="M508.07129,124.30908l-.14844.07031a10.10155,10.10155,0,0,1-.75195-1.7622,4.24739,4.24739,0,0,1-.17578-1.2041,4.93177,4.93177,0,0,1,.65429-2.53565,9.169,9.169,0,0,1,2.60645-2.67187l.10547.15381a5.72443,5.72443,0,0,0-1.32715,1.34912,9.18769,9.18769,0,0,0-1.459,4.64941A4.97146,4.97146,0,0,0,508.07129,124.30908Z" transform="translate(-231.01399 -6.12187)"/>
      <path class="cls-4" d="M513.66309,118.47754l-.85645,2.97949-.09668.3999a.447.447,0,0,0-.01367.09668.18233.18233,0,0,0,.04492.12305.11132.11132,0,0,0,.08789.03955.27483.27483,0,0,0,.14844-.07031,2.51993,2.51993,0,0,0,.457-.52735l.15039.10547a2.78747,2.78747,0,0,1-.625.69678,1.01977,1.01977,0,0,1-.59277.23926.38365.38365,0,0,1-.28321-.09473.36878.36878,0,0,1-.09472-.27441,2.25387,2.25387,0,0,1,.09668-.5669l.09277-.32959a4.31657,4.31657,0,0,1-1.05957,1.0503,1.29,1.29,0,0,1-.68066.21533.71519.71519,0,0,1-.55469-.26563,1.07313,1.07313,0,0,1-.23242-.73193,3.10164,3.10164,0,0,1,.41992-1.47412,3.62253,3.62253,0,0,1,1.06543-1.2417,1.64449,1.64449,0,0,1,.9541-.36914.696.696,0,0,1,.44531.14062.87788.87788,0,0,1,.27051.46582l.1582-.501Zm-1.56446.22851a.95813.95813,0,0,0-.59765.26368,3.208,3.208,0,0,0-.79688,1.10742,3.12838,3.12838,0,0,0-.34961,1.32715.69844.69844,0,0,0,.14942.47216.44207.44207,0,0,0,.34277.17383q.479,0,1.041-.70752a3.06242,3.06242,0,0,0,.75195-1.9292.82294.82294,0,0,0-.14453-.54052A.49874.49874,0,0,0,512.09863,118.70605Z" transform="translate(-231.01399 -6.12187)"/>
      <path class="cls-4" d="M516.7207,120.294l-1.04687,3.645a1.96972,1.96972,0,0,0-.09082.46534.21585.21585,0,0,0,.083.18359.84292.84292,0,0,0,.38769.08643l-.03223.12011h-1.6748l.0459-.12011a1.16321,1.16321,0,0,0,.35156-.04248.45862.45862,0,0,0,.2041-.15625,1.84485,1.84485,0,0,0,.21778-.53663l.75488-2.61767c.0459-.1582.07031-.249.07519-.273a.95643.95643,0,0,0,.00977-.12695.25029.25029,0,0,0-.0625-.17871.22176.22176,0,0,0-.16895-.06543,1.39458,1.39458,0,0,0-.26367.03906l-.042-.1167,1.0957-.30566Z" transform="translate(-231.01399 -6.12187)"/>
      <path class="cls-4" d="M518.66992,116.28906l.14942-.08349a9.77754,9.77754,0,0,1,.74707,1.75781,4.1523,4.1523,0,0,1,.18066,1.2041,4.91732,4.91732,0,0,1-.65527,2.53565,9.20585,9.20585,0,0,1-2.60645,2.67626l-.10547-.13623A5.84166,5.84166,0,0,0,517.708,122.894a9.22638,9.22638,0,0,0,1.459-4.65381A4.97493,4.97493,0,0,0,518.66992,116.28906Z" transform="translate(-231.01399 -6.12187)"/>
    </g>
    <g>
      <path class="cls-2" d="M523.48047,93.77828c0,4.672-4.513,8.46-10.08,8.46s-10.08-3.788-10.08-8.46,4.513-8.46,10.08-8.46,10.08,3.788,10.08,8.46" transform="translate(-231.01399 -6.12187)"/>
      <ellipse class="cls-3" cx="282.38647" cy="87.65642" rx="10.07999" ry="8.46001"/>
      <path class="cls-4" d="M508.07129,97.97266l-.14844.07031a10.10161,10.10161,0,0,1-.75195-1.76221,4.24734,4.24734,0,0,1-.17578-1.2041,4.93173,4.93173,0,0,1,.65429-2.53564,9.169,9.169,0,0,1,2.60645-2.67188l.10547.15381a5.72462,5.72462,0,0,0-1.32715,1.34912,9.18769,9.18769,0,0,0-1.459,4.64941A4.97146,4.97146,0,0,0,508.07129,97.97266Z" transform="translate(-231.01399 -6.12187)"/>
      <path class="cls-4" d="M513.66309,92.14111l-.85645,2.9795-.09668.3999a.44687.44687,0,0,0-.01367.09668.1823.1823,0,0,0,.04492.123.11133.11133,0,0,0,.08789.03956.27478.27478,0,0,0,.14844-.07032,2.52008,2.52008,0,0,0,.457-.52734l.15039.10547a2.78747,2.78747,0,0,1-.625.69678,1.01982,1.01982,0,0,1-.59277.23925.38369.38369,0,0,1-.28321-.09472.3688.3688,0,0,1-.09472-.27442,2.25381,2.25381,0,0,1,.09668-.56689l.09277-.32959a4.31668,4.31668,0,0,1-1.05957,1.05029,1.28987,1.28987,0,0,1-.68066.21533.71518.71518,0,0,1-.55469-.26562,1.07318,1.07318,0,0,1-.23242-.73194,3.10164,3.10164,0,0,1,.41992-1.47412,3.62253,3.62253,0,0,1,1.06543-1.2417,1.64449,1.64449,0,0,1,.9541-.36914.696.696,0,0,1,.44531.14063.87784.87784,0,0,1,.27051.46582l.1582-.501Zm-1.56446.22852a.95811.95811,0,0,0-.59765.26367,3.208,3.208,0,0,0-.79688,1.10742,3.12838,3.12838,0,0,0-.34961,1.32715.69849.69849,0,0,0,.14942.47217.4421.4421,0,0,0,.34277.17383q.479,0,1.041-.70752a3.06244,3.06244,0,0,0,.75195-1.9292.823.823,0,0,0-.14453-.54053A.49873.49873,0,0,0,512.09863,92.36963Z" transform="translate(-231.01399 -6.12187)"/>
      <path class="cls-4" d="M517.43945,93.95752V94.084a2.72417,2.72417,0,0,0-1.0791.54834,3.96937,3.96937,0,0,0-.918,1.07129,1.55529,1.55529,0,0,1,.57325-.14941.945.945,0,0,1,.70312.29883,1.10685,1.10685,0,0,1,.292.80664,1.89943,1.89943,0,0,1-.501,1.32666,1.45645,1.45645,0,0,1-1.08008.5498.9106.9106,0,0,1-.79785-.38867,1.52648,1.52648,0,0,1-.27149-.89941,3.02668,3.02668,0,0,1,.3086-1.31494,3.44338,3.44338,0,0,1,.83691-1.11426,3.7113,3.7113,0,0,1,1.09766-.686A3.15982,3.15982,0,0,1,517.43945,93.95752Zm-2.15234,2.019a4.1046,4.1046,0,0,0-.46582,1.665.8032.8032,0,0,0,.17578.54834.52574.52574,0,0,0,.40332.19971c.249,0,.48242-.18164.69727-.54444a2.42762,2.42762,0,0,0,.32422-1.26367.85418.85418,0,0,0-.18848-.59179.59478.59478,0,0,0-.45606-.208.62683.62683,0,0,0-.21582.03711A1.33089,1.33089,0,0,0,515.28711,95.97656Z" transform="translate(-231.01399 -6.12187)"/>
      <path class="cls-4" d="M518.66992,89.95264l.14942-.0835a9.77784,9.77784,0,0,1,.74707,1.75781,4.15235,4.15235,0,0,1,.18066,1.2041,4.9173,4.9173,0,0,1-.65527,2.53565,9.206,9.206,0,0,1-2.60645,2.67627l-.10547-.13623a5.842,5.842,0,0,0,1.32813-1.34912,9.22646,9.22646,0,0,0,1.459-4.65381A4.97493,4.97493,0,0,0,518.66992,89.95264Z" transform="translate(-231.01399 -6.12187)"/>
    </g>
    <g>
      <path class="cls-2" d="M523.48047,67.44181c0,4.672-4.513,8.46-10.08,8.46s-10.08-3.788-10.08-8.46,4.513-8.46,10.08-8.46,10.08,3.788,10.08,8.46" transform="translate(-231.01399 -6.12187)"/>
      <ellipse class="cls-3" cx="282.38647" cy="61.31994" rx="10.07999" ry="8.46001"/>
      <path class="cls-4" d="M508.07129,71.63623l-.14844.07031a10.10187,10.10187,0,0,1-.75195-1.7622,4.24741,4.24741,0,0,1-.17578-1.20411,4.93176,4.93176,0,0,1,.65429-2.53564,9.16914,9.16914,0,0,1,2.60645-2.67188l.10547.15381a5.72481,5.72481,0,0,0-1.32715,1.34912,9.18768,9.18768,0,0,0-1.459,4.64942A4.97146,4.97146,0,0,0,508.07129,71.63623Z" transform="translate(-231.01399 -6.12187)"/>
      <path class="cls-4" d="M513.66309,65.80469l-.85645,2.97949-.09668.3999a.447.447,0,0,0-.01367.09668.18233.18233,0,0,0,.04492.123.11132.11132,0,0,0,.08789.03955.27483.27483,0,0,0,.14844-.07031,2.5202,2.5202,0,0,0,.457-.52735l.15039.10547a2.78747,2.78747,0,0,1-.625.69678,1.01977,1.01977,0,0,1-.59277.23926.38365.38365,0,0,1-.28321-.09473.36879.36879,0,0,1-.09472-.27441,2.25387,2.25387,0,0,1,.09668-.5669l.09277-.32959a4.31657,4.31657,0,0,1-1.05957,1.0503,1.29,1.29,0,0,1-.68066.21533.71519.71519,0,0,1-.55469-.26563,1.07313,1.07313,0,0,1-.23242-.73193,3.10164,3.10164,0,0,1,.41992-1.47412,3.62253,3.62253,0,0,1,1.06543-1.2417,1.64442,1.64442,0,0,1,.9541-.36914.696.696,0,0,1,.44531.14062.87788.87788,0,0,1,.27051.46582l.1582-.501Zm-1.56446.22851a.95807.95807,0,0,0-.59765.26368,3.208,3.208,0,0,0-.79688,1.10742,3.12835,3.12835,0,0,0-.34961,1.32715.69846.69846,0,0,0,.14942.47216.4421.4421,0,0,0,.34277.17383q.479,0,1.041-.70752a3.06242,3.06242,0,0,0,.75195-1.9292.82292.82292,0,0,0-.14453-.54052A.49874.49874,0,0,0,512.09863,66.0332Z" transform="translate(-231.01399 -6.12187)"/>
      <path class="cls-4" d="M516.23926,72.12158h-2.19434v-.12012a13.02361,13.02361,0,0,0,2.21778-2.30566,1.474,1.474,0,0,0,.25-.813.75576.75576,0,0,0-.208-.55127.72047.72047,0,0,0-.54-.21289.88058.88058,0,0,0-.75391.439l-.11426-.05225a1.43611,1.43611,0,0,1,.48438-.65185,1.14567,1.14567,0,0,1,.68945-.23243.97959.97959,0,0,1,.99219.98536,1.38875,1.38875,0,0,1-.10059.52978,3.14127,3.14127,0,0,1-.57617.85205,19.68186,19.68186,0,0,1-1.70019,1.66162H515.791a.79574.79574,0,0,0,.43847-.11035.61829.61829,0,0,0,.24707-.2959h.13086Z" transform="translate(-231.01399 -6.12187)"/>
      <path class="cls-4" d="M518.66992,63.61621l.14942-.0835a9.7776,9.7776,0,0,1,.74707,1.75782,4.15225,4.15225,0,0,1,.18066,1.2041,4.91726,4.91726,0,0,1-.65527,2.53564,9.20575,9.20575,0,0,1-2.60645,2.67627l-.10547-.13623a5.84166,5.84166,0,0,0,1.32813-1.34912,9.22638,9.22638,0,0,0,1.459-4.65381A4.97493,4.97493,0,0,0,518.66992,63.61621Z" transform="translate(-231.01399 -6.12187)"/>
    </g>
    <g>
      <path class="cls-2" d="M523.48047,41.10534c0,4.672-4.513,8.46-10.08,8.46s-10.08-3.788-10.08-8.46,4.513-8.46,10.08-8.46,10.08,3.788,10.08,8.46" transform="translate(-231.01399 -6.12187)"/>
      <ellipse class="cls-3" cx="282.38647" cy="34.98347" rx="10.07999" ry="8.46001"/>
      <path class="cls-4" d="M508.07129,45.2998l-.14844.07032a10.10161,10.10161,0,0,1-.75195-1.76221,4.24734,4.24734,0,0,1-.17578-1.2041,4.93177,4.93177,0,0,1,.65429-2.53565,9.16912,9.16912,0,0,1,2.60645-2.67187l.10547.15381a5.72443,5.72443,0,0,0-1.32715,1.34912,9.18769,9.18769,0,0,0-1.459,4.64941A4.97146,4.97146,0,0,0,508.07129,45.2998Z" transform="translate(-231.01399 -6.12187)"/>
      <path class="cls-4" d="M513.66309,39.46826l-.85645,2.97949-.09668.39991a.44687.44687,0,0,0-.01367.09668.1823.1823,0,0,0,.04492.123.11132.11132,0,0,0,.08789.03955.27475.27475,0,0,0,.14844-.07031,2.52008,2.52008,0,0,0,.457-.52734l.15039.10547a2.7874,2.7874,0,0,1-.625.69677,1.01977,1.01977,0,0,1-.59277.23926.38365.38365,0,0,1-.28321-.09473.36878.36878,0,0,1-.09472-.27441,2.25381,2.25381,0,0,1,.09668-.56689l.09277-.32959a4.31668,4.31668,0,0,1-1.05957,1.05029,1.29,1.29,0,0,1-.68066.21533.71521.71521,0,0,1-.55469-.26562,1.07318,1.07318,0,0,1-.23242-.73194,3.10164,3.10164,0,0,1,.41992-1.47412,3.62253,3.62253,0,0,1,1.06543-1.2417,1.64449,1.64449,0,0,1,.9541-.36914.696.696,0,0,1,.44531.14063.87784.87784,0,0,1,.27051.46582l.1582-.501Zm-1.56446.22852a.95811.95811,0,0,0-.59765.26367,3.208,3.208,0,0,0-.79688,1.10742,3.12838,3.12838,0,0,0-.34961,1.32715.69849.69849,0,0,0,.14942.47217.4421.4421,0,0,0,.34277.17383q.479,0,1.041-.70752a3.06244,3.06244,0,0,0,.75195-1.9292.823.823,0,0,0-.14453-.54053A.49873.49873,0,0,0,512.09863,39.69678Z" transform="translate(-231.01399 -6.12187)"/>
      <path class="cls-4" d="M517.18262,41.37549l-.8418,2.90088h.52637l-.11719.40332h-.5332l-.3418,1.18359h-.47754l.34473-1.18359h-1.59375l.13672-.45557,2.65039-2.84863Zm-.72168.83887-1.89649,2.062h1.30469Z" transform="translate(-231.01399 -6.12187)"/>
      <path class="cls-4" d="M518.66992,37.27979l.14942-.0835a9.77784,9.77784,0,0,1,.74707,1.75781,4.15235,4.15235,0,0,1,.18066,1.2041,4.9173,4.9173,0,0,1-.65527,2.53565,9.206,9.206,0,0,1-2.60645,2.67627l-.10547-.13623a5.842,5.842,0,0,0,1.32813-1.34912,9.22646,9.22646,0,0,0,1.459-4.65381A4.97493,4.97493,0,0,0,518.66992,37.27979Z" transform="translate(-231.01399 -6.12187)"/>
    </g>
    <g>
      <path class="cls-2" d="M523.48047,14.76886c0,4.672-4.513,8.46-10.08,8.46s-10.08-3.788-10.08-8.46,4.513-8.46,10.08-8.46,10.08,3.788,10.08,8.46" transform="translate(-231.01399 -6.12187)"/>
      <ellipse class="cls-3" cx="282.38647" cy="8.647" rx="10.07999" ry="8.46001"/>
      <path class="cls-4" d="M508.07129,18.96338l-.14844.07031a10.10161,10.10161,0,0,1-.75195-1.76221,4.24729,4.24729,0,0,1-.17578-1.2041,4.93173,4.93173,0,0,1,.65429-2.53564,9.16914,9.16914,0,0,1,2.60645-2.67188l.10547.15381a5.72481,5.72481,0,0,0-1.32715,1.34912,8.28466,8.28466,0,0,0-1.05078,2.25,8.2036,8.2036,0,0,0-.4082,2.39942A4.97146,4.97146,0,0,0,508.07129,18.96338Z" transform="translate(-231.01399 -6.12187)"/>
      <path class="cls-4" d="M513.66309,13.13184l-.85645,2.97949-.09668.3999a.447.447,0,0,0-.01367.09668.18233.18233,0,0,0,.04492.123.11135.11135,0,0,0,.08789.03955.27483.27483,0,0,0,.14844-.07031,2.52047,2.52047,0,0,0,.457-.52735l.15039.10547a2.78747,2.78747,0,0,1-.625.69678,1.01977,1.01977,0,0,1-.59277.23926.38365.38365,0,0,1-.28321-.09473.3688.3688,0,0,1-.09472-.27442,2.25388,2.25388,0,0,1,.09668-.56689l.09277-.32959a4.31649,4.31649,0,0,1-1.05957,1.05029,1.28989,1.28989,0,0,1-.68066.21534.71519.71519,0,0,1-.55469-.26563,1.07317,1.07317,0,0,1-.23242-.73193,3.10164,3.10164,0,0,1,.41992-1.47412,3.62244,3.62244,0,0,1,1.06543-1.2417,1.64442,1.64442,0,0,1,.9541-.36914.696.696,0,0,1,.44531.14062.87784.87784,0,0,1,.27051.46582l.1582-.501Zm-1.56446.22851a.95811.95811,0,0,0-.59765.26367,3.20812,3.20812,0,0,0-.79688,1.10743,3.12834,3.12834,0,0,0-.34961,1.32714.69847.69847,0,0,0,.14942.47217.4421.4421,0,0,0,.34277.17383q.479,0,1.041-.70752a3.06242,3.06242,0,0,0,.75195-1.9292.823.823,0,0,0-.14453-.54053A.49876.49876,0,0,0,512.09863,13.36035Z" transform="translate(-231.01399 -6.12187)"/>
      <path class="cls-4" d="M516.24316,14.94824a.8712.8712,0,0,1,.7002.34766,1.72869,1.72869,0,0,1,.28516,1.09912,4.3638,4.3638,0,0,1-.21192,1.314,3.64244,3.64244,0,0,1-.59472,1.16114,2.02125,2.02125,0,0,1-.64063.55908,1.00053,1.00053,0,0,1-.45215.09766.87773.87773,0,0,1-.707-.34815,1.728,1.728,0,0,1-.28516-1.10254,4.18594,4.18594,0,0,1,.28614-1.4956,3.29934,3.29934,0,0,1,.85547-1.3335A1.13156,1.13156,0,0,1,516.24316,14.94824Zm.00293.169a.629.629,0,0,0-.38183.14795,1.61679,1.61679,0,0,0-.40039.61621,7.82668,7.82668,0,0,0-.39453,1.20654,6.88147,6.88147,0,0,0-.24414,1.64551.74874.74874,0,0,0,.14648.50537.4526.4526,0,0,0,.35449.16748.47854.47854,0,0,0,.33789-.12988,2.79937,2.79937,0,0,0,.64063-1.2002,7.99153,7.99153,0,0,0,.43261-2.25683.80355.80355,0,0,0-.14648-.53125A.44126.44126,0,0,0,516.24609,15.11719Z" transform="translate(-231.01399 -6.12187)"/>
      <path class="cls-4" d="M518.66992,10.94336l.14942-.0835a9.7776,9.7776,0,0,1,.74707,1.75782,4.15225,4.15225,0,0,1,.18066,1.2041,4.91726,4.91726,0,0,1-.65527,2.53564,9.206,9.206,0,0,1-2.60645,2.67627l-.10547-.13623a5.84185,5.84185,0,0,0,1.32813-1.34912,8.27624,8.27624,0,0,0,1.0498-2.25195,8.19808,8.19808,0,0,0,.40918-2.40186A4.97493,4.97493,0,0,0,518.66992,10.94336Z" transform="translate(-231.01399 -6.12187)"/>
    </g>
  </g>
</svg>
