<svg id="图层_1" data-name="图层 1" xmlns="http://www.w3.org/2000/svg" viewBox="0 0 425.19685 113.38583">
  <defs>
    <style>
      .cls-1 {
        fill: #90fc70;
      }

      .cls-1, .cls-119, .cls-120, .cls-121, .cls-122, .cls-123, .cls-124, .cls-2, .cls-3, .cls-4, .cls-5, .cls-6, .cls-7, .cls-8 {
        stroke: #4d4d4d;
        stroke-miterlimit: 10;
      }

      .cls-1, .cls-120, .cls-121, .cls-122, .cls-123, .cls-124, .cls-2, .cls-3, .cls-4, .cls-5, .cls-6, .cls-7, .cls-8 {
        stroke-width: 0.4px;
      }

      .cls-2 {
        fill: #030390;
      }

      .cls-3 {
        fill: #800504;
      }

      .cls-4 {
        fill: #fecf04;
      }

      .cls-5 {
        fill: #fda005;
      }

      .cls-6 {
        fill: #04a0fe;
      }

      .cls-7 {
        fill: #fe3600;
      }

      .cls-8 {
        fill: #cf0303;
      }

      .cls-9 {
        fill: #31fbcc;
      }

      .cls-10 {
        fill: #fdcf01;
      }

      .cls-11 {
        fill: #7ffe7e;
      }

      .cls-12 {
        fill: #defc1f;
      }

      .cls-13 {
        fill: #03affb;
      }

      .cls-14 {
        fill: #5efd9f;
      }

      .cls-15 {
        fill: #fcfc03;
      }

      .cls-16 {
        fill: #7f0201;
      }

      .cls-17 {
        fill: #aefd4f;
      }

      .cls-18 {
        fill: #04bffa;
      }

      .cls-19 {
        fill: #befe3f;
      }

      .cls-20 {
        fill: #fdbf01;
      }

      .cls-21 {
        fill: #7efe7f;
      }

      .cls-22 {
        fill: #bffe3e;
      }

      .cls-23 {
        fill: #fd9e01;
      }

      .cls-24 {
        fill: #01befd;
      }

      .cls-25 {
        fill: #fb6f03;
      }

      .cls-26 {
        fill: #02eefc;
      }

      .cls-27 {
        fill: #fd3001;
      }

      .cls-28 {
        fill: #fc7e02;
      }

      .cls-29 {
        fill: #bffc3e;
      }

      .cls-30 {
        fill: #7e0000;
      }

      .cls-31 {
        fill: #fd0101;
      }

      .cls-32 {
        fill: #fd8e01;
      }

      .cls-33 {
        fill: #fc5002;
      }

      .cls-34 {
        fill: #01defd;
      }

      .cls-35 {
        fill: #8efd6f;
      }

      .cls-36 {
        fill: #0370fb;
      }

      .cls-37 {
        fill: #018ffd;
      }

      .cls-38 {
        fill: #20fddd;
      }

      .cls-39 {
        fill: #cefe2f;
      }

      .cls-40 {
        fill: #02affc;
      }

      .cls-41 {
        fill: #eefe0f;
      }

      .cls-42 {
        fill: #fdfe01;
      }

      .cls-43 {
        fill: #fb3003;
      }

      .cls-44 {
        fill: #bffd3e;
      }

      .cls-45 {
        fill: #eefd0f;
      }

      .cls-46 {
        fill: #defe1f;
      }

      .cls-47 {
        fill: #03bffb;
      }

      .cls-48 {
        fill: #04fefa;
      }

      .cls-49 {
        fill: #fd8001;
      }

      .cls-50 {
        fill: #fdfc01;
      }

      .cls-51 {
        fill: #fe6000;
      }

      .cls-52 {
        fill: #5ffe9e;
      }

      .cls-53 {
        fill: #fbfe03;
      }

      .cls-54 {
        fill: #fd8f01;
      }

      .cls-55 {
        fill: #febe00;
      }

      .cls-56 {
        fill: #04fdfa;
      }

      .cls-57 {
        fill: #cffd2e;
      }

      .cls-58 {
        fill: #defd1f;
      }

      .cls-59 {
        fill: #02fefc;
      }

      .cls-60 {
        fill: #fc6002;
      }

      .cls-61 {
        fill: #10fbec;
      }

      .cls-62 {
        fill: #9e0201;
      }

      .cls-63 {
        fill: #fe8d00;
      }

      .cls-64 {
        fill: #fe2e00;
      }

      .cls-65 {
        fill: #cdfe30;
      }

      .cls-66 {
        fill: #02defc;
      }

      .cls-67 {
        fill: #006ffe;
      }

      .cls-68 {
        fill: #fb4103;
      }

      .cls-69 {
        fill: #6ffe8e;
      }

      .cls-70 {
        fill: #7ffd7e;
      }

      .cls-71 {
        fill: #04cefb;
      }

      .cls-72 {
        fill: #dd0301;
      }

      .cls-73 {
        fill: #befc3f;
      }

      .cls-74 {
        fill: #fd7f01;
      }

      .cls-75 {
        fill: #03fcfb;
      }

      .cls-76 {
        fill: #fdce01;
      }

      .cls-77 {
        fill: #2efdcf;
      }

      .cls-78 {
        fill: #eefc0f;
      }

      .cls-79 {
        fill: #fd4f00;
      }

      .cls-80 {
        fill: #9f0100;
      }

      .cls-81 {
        fill: #9ffb5e;
      }

      .cls-82 {
        fill: #0311fc;
      }

      .cls-83 {
        fill: #7e0302;
      }

      .cls-84 {
        fill: #800200;
      }

      .cls-85 {
        fill: #fded01;
      }

      .cls-86 {
        fill: #de0300;
      }

      .cls-87 {
        fill: #feed00;
      }

      .cls-88 {
        fill: #fe3000;
      }

      .cls-89 {
        fill: #affc4e;
      }

      .cls-90 {
        fill: #fd4001;
      }

      .cls-91 {
        fill: #fb6003;
      }

      .cls-92 {
        fill: #20fcdd;
      }

      .cls-93 {
        fill: #fdbe01;
      }

      .cls-94 {
        fill: #fd3f00;
      }

      .cls-95 {
        fill: #fe0100;
      }

      .cls-96 {
        fill: #fe1f00;
      }

      .cls-97 {
        fill: #3ffebe;
      }

      .cls-98 {
        fill: #03fbfa;
      }

      .cls-99 {
        fill: #fe3f00;
      }

      .cls-100 {
        fill: #befc3e;
      }

      .cls-101 {
        fill: #89fe74;
      }

      .cls-102 {
        fill: #fe2f00;
      }

      .cls-103 {
        fill: #fc6f03;
      }

      .cls-104 {
        fill: #cc0503;
      }

      .cls-105 {
        fill: #ce0201;
      }

      .cls-106 {
        fill: #ce0200;
      }

      .cls-107 {
        fill: #feea00;
      }

      .cls-108 {
        fill: #03fbfb;
      }

      .cls-109 {
        fill: #001efe;
      }

      .cls-110 {
        fill: #9efe5f;
      }

      .cls-111 {
        fill: #1ffdde;
      }

      .cls-112 {
        fill: #03038e;
      }

      .cls-113 {
        fill: #fdae01;
      }

      .cls-114 {
        fill: #aefe4f;
      }

      .cls-115 {
        fill: #003ffe;
      }

      .cls-116 {
        fill: #fc8e02;
      }

      .cls-117 {
        fill: #fbfa03;
      }

      .cls-118 {
        fill: #01fdfd;
      }

      .cls-119 {
        fill: none;
        stroke-width: 1.5px;
      }

      .cls-120 {
        fill: #fff;
      }

      .cls-121 {
        fill: #fcfc00;
      }

      .cls-122 {
        fill: #00c900;
      }

      .cls-123 {
        fill: #fc0000;
      }

      .cls-124 {
        fill: #0000c9;
      }

      .cls-125 {
        fill: #01edfd;
      }

      .cls-126 {
        fill: #4ffeae;
      }

      .cls-127 {
        fill: #8f0000;
      }

      .cls-128 {
        fill: #af0000;
      }

      .cls-129 {
        fill: #e00;
      }

      .cls-130 {
        fill: #fc3102;
      }

      .cls-131 {
        fill: #fe7e00;
      }

      .cls-132 {
        fill: #fedd00;
      }

      .cls-133 {
        fill: #bdfd40;
      }

      .cls-134 {
        fill: #7f0101;
      }

      .cls-135 {
        fill: #013ffd;
      }

      .cls-136 {
        fill: #0403fa;
      }

      .cls-137 {
        fill: #0100be;
      }

      .cls-138 {
        fill: #01009e;
      }

      .cls-139 {
        fill: #01008e;
      }

      .cls-140 {
        fill: #fe0f00;
      }

      .cls-141 {
        fill: #f95e04;
      }

      .cls-142 {
        fill: #1ffddd;
      }

      .cls-143 {
        fill: #026ffc;
      }

      .cls-144 {
        fill: #ce0100;
      }

      .cls-145 {
        fill: #01008f;
      }

      .cls-146 {
        fill: #7f0001;
      }

      .cls-147 {
        fill: #0000de;
      }

      .cls-148 {
        fill: #fa5d03;
      }

      .cls-149 {
        fill: #fede00;
      }

      .cls-150 {
        fill: #7e0002;
      }

      .cls-151 {
        fill: #02008d;
      }

      .cls-152 {
        fill: #cb0305;
      }

      .cls-153 {
        fill: #0471fa;
      }

      .cls-154 {
        fill: #edfe10;
      }

      .cls-155 {
        fill: #f93004;
      }

      .cls-156 {
        fill: #01019e;
      }

      .cls-157 {
        fill: #0202fc;
      }

      .cls-158 {
        fill: #0102be;
      }

      .cls-159 {
        fill: #fd7e00;
      }

      .cls-160 {
        fill: #bdfc40;
      }

      .cls-161 {
        fill: #0440fa;
      }

      .cls-162 {
        fill: #8f0201;
      }

      .cls-163 {
        fill: #fcae01;
      }

      .cls-164 {
        fill: #4efcaf;
      }

      .cls-165 {
        fill: #018efc;
      }

      .cls-166 {
        fill: #ad0002;
      }

      .cls-167 {
        fill: #02008e;
      }

      .cls-168 {
        fill: #ea0305;
      }

      .cls-169 {
        fill: #0000ae;
      }

      .cls-170 {
        fill: #fcad01;
      }

      .cls-171 {
        fill: #0000af;
      }

      .cls-172 {
        fill: #9c0304;
      }

      .cls-173 {
        fill: #00befe;
      }

      .cls-174 {
        fill: #fc7e01;
      }

      .cls-175 {
        fill: #9e0101;
      }

      .cls-176 {
        fill: #00befd;
      }

      .cls-177 {
        fill: #9e0001;
      }

      .cls-178 {
        fill: #0501ab;
      }

      .cls-179 {
        fill: #4ffcae;
      }

      .cls-180 {
        fill: #ad0403;
      }

      .cls-181 {
        fill: #00018f;
      }

      .cls-182 {
        fill: #fc2f01;
      }

      .cls-183 {
        fill: #fcdd01;
      }

      .cls-184 {
        fill: #ed0201;
      }

      .cls-185 {
        fill: #bdfc3f;
      }

      .cls-186 {
        fill: #0403bb;
      }

      .cls-187 {
        fill: #fb5e02;
      }

      .cls-188 {
        fill: #0102fd;
      }

      .cls-189 {
        fill: #8d0103;
      }

      .cls-190 {
        fill: #023ffa;
      }

      .cls-191 {
        fill: #7c0104;
      }

      .cls-192 {
        fill: #028efc;
      }

      .cls-193 {
        fill: #7d0404;
      }

      .cls-194 {
        fill: #006efe;
      }

      .cls-195 {
        fill: #0102de;
      }

      .cls-196 {
        fill: #1ffcde;
      }

      .cls-197 {
        fill: #7e0403;
      }

      .cls-198 {
        fill: #1ffede;
      }

      .cls-199 {
        fill: #0102dd;
      }

      .cls-200 {
        fill: #cd0101;
      }

      .cls-201 {
        fill: #03028d;
      }

      .cls-202 {
        fill: #008efe;
      }

      .cls-203 {
        fill: #0300fb;
      }

      .cls-204 {
        fill: #0002bf;
      }

      .cls-205 {
        fill: #03edfb;
      }

      .cls-206 {
        fill: #4ffdae;
      }

      .cls-207 {
        fill: #01019f;
      }

      .cls-208 {
        fill: #fd7e01;
      }

      .cls-209 {
        fill: #fb2f02;
      }

      .cls-210 {
        fill: #8d0304;
      }

      .cls-211 {
        fill: #02018e;
      }

      .cls-212 {
        fill: #fcde02;
      }

      .cls-213 {
        fill: #af0200;
      }

      .cls-214 {
        fill: #033efb;
      }

      .cls-215 {
        fill: #011ffd;
      }

      .cls-216 {
        fill: #001ffe;
      }

      .cls-217 {
        fill: #fd1001;
      }

      .cls-218 {
        fill: #fb0f03;
      }

      .cls-219 {
        fill: #fd0f01;
      }

      .cls-220 {
        fill: #011ffc;
      }

      .cls-221 {
        fill: #fa0f04;
      }

      .cls-222 {
        fill: #fb2f03;
      }

      .cls-223 {
        fill: #008efd;
      }

      .cls-224 {
        fill: #03049d;
      }

      .cls-225 {
        fill: #bffa3e;
      }

      .cls-226 {
        fill: #7f0200;
      }

      .cls-227 {
        fill: #0202bd;
      }

      .cls-228 {
        fill: #003efe;
      }

      .cls-229 {
        fill: #02ecfb;
      }

      .cls-230 {
        fill: #02028e;
      }

      .cls-231 {
        fill: #8d0303;
      }

      .cls-232 {
        fill: #fb7e01;
      }

      .cls-233 {
        fill: #0402f9;
      }

      .cls-234 {
        fill: #20fedd;
      }

      .cls-235 {
        fill: #00028f;
      }

      .cls-236 {
        fill: #fd5f00;
      }

      .cls-237 {
        fill: #7f0100;
      }

      .cls-238 {
        fill: #cd0202;
      }

      .cls-239 {
        fill: #006efd;
      }

      .cls-240 {
        fill: #1ffbde;
      }

      .cls-241 {
        fill: #04048d;
      }

      .cls-242 {
        fill: #018efd;
      }

      .cls-243 {
        fill: #0102fc;
      }

      .cls-244 {
        fill: #00019f;
      }

      .cls-245 {
        fill: #02edfb;
      }

      .cls-246 {
        fill: #fc2e00;
      }

      .cls-247 {
        fill: #810400;
      }

      .cls-248 {
        fill: #fb7d01;
      }

      .cls-249 {
        fill: #ae0302;
      }

      .cls-250 {
        fill: #013efc;
      }

      .cls-251 {
        fill: #fddd01;
      }

      .cls-252 {
        fill: #8e0102;
      }

      .cls-253 {
        fill: #4efeaf;
      }

      .cls-254 {
        fill: #0303bc;
      }

      .cls-255 {
        fill: #feae00;
      }

      .cls-256 {
        fill: #feaf00;
      }

      .cls-257 {
        fill: #03befb;
      }

      .cls-258 {
        fill: #0001ae;
      }

      .cls-259 {
        fill: #02bdfc;
      }

      .cls-260 {
        fill: #0101ae;
      }

      .cls-261 {
        fill: #01bdfc;
      }

      .cls-262 {
        fill: #fbaf03;
      }

      .cls-263 {
        fill: #fbdd02;
      }

      .cls-264 {
        fill: #bffb3e;
      }

      .cls-265 {
        fill: #038ffa;
      }

      .cls-266 {
        fill: #000190;
      }

      .cls-267 {
        fill: #01edfc;
      }

      .cls-268 {
        fill: #7e0102;
      }

      .cls-269 {
        fill: #ad0102;
      }

      .cls-270 {
        fill: #023ffc;
      }

      .cls-271 {
        fill: #02029d;
      }

      .cls-272 {
        fill: #0001de;
      }

      .cls-273 {
        fill: #00018e;
      }

      .cls-274 {
        fill: #ce0000;
      }

      .cls-275 {
        fill: #fd5e00;
      }

      .cls-276 {
        fill: #016efd;
      }

      .cls-277 {
        fill: #0101dd;
      }

      .cls-278 {
        fill: #fd5f01;
      }

      .cls-279 {
        fill: #ce0101;
      }

      .cls-280 {
        fill: #7e0001;
      }

      .cls-281 {
        fill: #7d0203;
      }

      .cls-282 {
        fill: #fc7f02;
      }

      .cls-283 {
        fill: #0400bb;
      }

      .cls-284 {
        fill: #8c0003;
      }

      .cls-285 {
        fill: #00008f;
      }

      .cls-286 {
        fill: #ac0003;
      }

      .cls-287 {
        fill: #0100fd;
      }

      .cls-288 {
        fill: #fd2f01;
      }

      .cls-289 {
        fill: #fadd05;
      }
    </style>
  </defs>
  <title>[OPTSx0011]_Compressive_Sensing_Observation_Matrix</title>
  <g>
    <g>
      <rect class="cls-1" x="62.45964" y="40.80928" width="4.8" height="4.8"/>
      <rect class="cls-2" x="62.45964" y="45.60928" width="4.8" height="4.8"/>
      <rect class="cls-3" x="62.45964" y="50.40928" width="4.8" height="4.8"/>
      <rect class="cls-4" x="62.45964" y="55.10928" width="4.8" height="4.8"/>
      <rect class="cls-5" x="62.45964" y="59.90928" width="4.8" height="4.8"/>
      <rect class="cls-6" x="62.45964" y="64.70928" width="4.8" height="4.8"/>
      <rect class="cls-7" x="62.45964" y="69.40928" width="4.8" height="4.8"/>
      <rect class="cls-8" x="62.45964" y="36.10928" width="4.8" height="4.8"/>
    </g>
    <g>
      <rect class="cls-9" x="106.05416" y="40.8559" width="4.75126" height="4.75126"/>
      <rect class="cls-10" x="106.05416" y="45.627" width="4.75126" height="4.75126"/>
      <rect class="cls-11" x="106.05416" y="50.3981" width="4.75126" height="4.75126"/>
      <rect class="cls-12" x="106.05416" y="55.1692" width="4.75126" height="4.75126"/>
      <rect class="cls-13" x="106.05416" y="59.9403" width="4.75126" height="4.75126"/>
      <rect class="cls-14" x="106.05416" y="64.7114" width="4.75126" height="4.75126"/>
      <rect class="cls-15" x="106.05416" y="69.4825" width="4.75126" height="4.75126"/>
      <rect class="cls-16" x="106.05416" y="36.08481" width="4.75126" height="4.75126"/>
      <rect class="cls-17" x="101.32689" y="40.8559" width="4.75126" height="4.75126"/>
      <rect class="cls-18" x="101.32689" y="45.627" width="4.75126" height="4.75126"/>
      <rect class="cls-19" x="101.32689" y="50.3981" width="4.75126" height="4.75126"/>
      <rect class="cls-20" x="101.32689" y="55.1692" width="4.75126" height="4.75126"/>
      <rect class="cls-21" x="101.32689" y="59.9403" width="4.75126" height="4.75126"/>
      <rect class="cls-21" x="101.32689" y="64.7114" width="4.75126" height="4.75126"/>
      <rect class="cls-22" x="101.32689" y="69.4825" width="4.75126" height="4.75126"/>
      <rect class="cls-23" x="101.32689" y="36.08481" width="4.75126" height="4.75126"/>
      <rect class="cls-24" x="167.50857" y="40.8559" width="4.75126" height="4.75126"/>
      <rect class="cls-25" x="167.50857" y="45.627" width="4.75126" height="4.75126"/>
      <rect class="cls-26" x="167.50857" y="50.3981" width="4.75126" height="4.75126"/>
      <rect class="cls-27" x="167.50857" y="55.1692" width="4.75126" height="4.75126"/>
      <rect class="cls-28" x="167.50857" y="59.9403" width="4.75126" height="4.75126"/>
      <rect class="cls-29" x="167.50857" y="64.7114" width="4.75126" height="4.75126"/>
      <rect class="cls-30" x="167.50857" y="69.4825" width="4.75126" height="4.75126"/>
      <rect class="cls-31" x="162.7693" y="36.08481" width="4.75126" height="4.75126"/>
      <rect class="cls-32" x="162.7813" y="40.8559" width="4.75126" height="4.75126"/>
      <rect class="cls-33" x="162.7813" y="45.627" width="4.75126" height="4.75126"/>
      <rect class="cls-34" x="162.7813" y="50.3981" width="4.75126" height="4.75126"/>
      <rect class="cls-35" x="162.7813" y="55.1692" width="4.75126" height="4.75126"/>
      <rect class="cls-36" x="162.7813" y="59.9403" width="4.75126" height="4.75126"/>
      <rect class="cls-37" x="162.7813" y="64.7114" width="4.75126" height="4.75126"/>
      <rect class="cls-38" x="162.7813" y="69.4825" width="4.75126" height="4.75126"/>
      <rect class="cls-39" x="158.04204" y="36.08481" width="4.75126" height="4.75126"/>
      <rect class="cls-40" x="158.05404" y="40.8559" width="4.75126" height="4.75126"/>
      <rect class="cls-41" x="158.05404" y="45.627" width="4.75126" height="4.75126"/>
      <rect class="cls-42" x="158.05404" y="50.3981" width="4.75126" height="4.75126"/>
      <rect class="cls-24" x="158.05404" y="55.1692" width="4.75126" height="4.75126"/>
      <rect class="cls-43" x="158.05404" y="59.9403" width="4.75126" height="4.75126"/>
      <rect class="cls-44" x="158.05404" y="64.7114" width="4.75126" height="4.75126"/>
      <rect class="cls-45" x="158.05404" y="69.4825" width="4.75126" height="4.75126"/>
      <rect class="cls-46" x="153.31478" y="36.08481" width="4.75126" height="4.75126"/>
      <rect class="cls-47" x="153.32678" y="40.8559" width="4.75126" height="4.75126"/>
      <rect class="cls-41" x="153.32678" y="45.627" width="4.75126" height="4.75126"/>
      <rect class="cls-48" x="153.32678" y="50.3981" width="4.75126" height="4.75126"/>
      <rect class="cls-49" x="153.32678" y="55.1692" width="4.75126" height="4.75126"/>
      <rect class="cls-50" x="153.32678" y="59.9403" width="4.75126" height="4.75126"/>
      <rect class="cls-51" x="153.32678" y="64.7114" width="4.75126" height="4.75126"/>
      <rect class="cls-45" x="153.32678" y="69.4825" width="4.75126" height="4.75126"/>
      <rect class="cls-52" x="148.58752" y="36.08481" width="4.75126" height="4.75126"/>
      <rect class="cls-53" x="148.59952" y="40.8559" width="4.75126" height="4.75126"/>
      <rect class="cls-54" x="148.59952" y="45.627" width="4.75126" height="4.75126"/>
      <rect class="cls-55" x="148.59952" y="50.3981" width="4.75126" height="4.75126"/>
      <rect class="cls-21" x="148.59952" y="55.1692" width="4.75126" height="4.75126"/>
      <rect class="cls-56" x="148.59952" y="59.9403" width="4.75126" height="4.75126"/>
      <rect class="cls-57" x="148.59952" y="64.7114" width="4.75126" height="4.75126"/>
      <rect class="cls-58" x="148.59952" y="69.4825" width="4.75126" height="4.75126"/>
      <rect class="cls-59" x="143.87225" y="40.8559" width="4.75126" height="4.75126"/>
      <rect class="cls-14" x="143.87225" y="45.627" width="4.75126" height="4.75126"/>
      <rect class="cls-60" x="143.87225" y="50.3981" width="4.75126" height="4.75126"/>
      <rect class="cls-61" x="143.87225" y="55.1692" width="4.75126" height="4.75126"/>
      <rect class="cls-62" x="143.87225" y="59.9403" width="4.75126" height="4.75126"/>
      <rect class="cls-63" x="143.87225" y="64.7114" width="4.75126" height="4.75126"/>
      <rect class="cls-64" x="143.87225" y="69.4825" width="4.75126" height="4.75126"/>
      <rect class="cls-65" x="143.87225" y="36.08481" width="4.75126" height="4.75126"/>
      <rect class="cls-66" x="139.14499" y="40.8559" width="4.75126" height="4.75126"/>
      <rect class="cls-67" x="139.14499" y="45.627" width="4.75126" height="4.75126"/>
      <rect class="cls-12" x="139.14499" y="50.3981" width="4.75126" height="4.75126"/>
      <rect class="cls-68" x="139.14499" y="55.1692" width="4.75126" height="4.75126"/>
      <rect class="cls-69" x="139.14499" y="59.9403" width="4.75126" height="4.75126"/>
      <rect class="cls-70" x="139.14499" y="64.7114" width="4.75126" height="4.75126"/>
      <rect class="cls-71" x="139.14499" y="69.4825" width="4.75126" height="4.75126"/>
      <rect class="cls-55" x="139.14499" y="36.08481" width="4.75126" height="4.75126"/>
      <rect class="cls-72" x="134.41773" y="40.8559" width="4.75126" height="4.75126"/>
      <rect class="cls-73" x="134.41773" y="45.627" width="4.75126" height="4.75126"/>
      <rect class="cls-74" x="134.41773" y="50.3981" width="4.75126" height="4.75126"/>
      <rect class="cls-75" x="134.41773" y="55.1692" width="4.75126" height="4.75126"/>
      <rect class="cls-76" x="134.41773" y="59.9403" width="4.75126" height="4.75126"/>
      <rect class="cls-20" x="134.41773" y="64.7114" width="4.75126" height="4.75126"/>
      <rect class="cls-77" x="134.41773" y="69.4825" width="4.75126" height="4.75126"/>
      <rect class="cls-55" x="134.41773" y="36.08481" width="4.75126" height="4.75126"/>
      <rect class="cls-38" x="129.69047" y="40.8559" width="4.75126" height="4.75126"/>
      <rect class="cls-52" x="129.69047" y="45.627" width="4.75126" height="4.75126"/>
      <rect class="cls-78" x="129.69047" y="50.3981" width="4.75126" height="4.75126"/>
      <rect class="cls-79" x="129.69047" y="55.1692" width="4.75126" height="4.75126"/>
      <rect class="cls-80" x="129.69047" y="59.9403" width="4.75126" height="4.75126"/>
      <rect class="cls-81" x="129.69047" y="64.7114" width="4.75126" height="4.75126"/>
      <rect class="cls-82" x="129.69047" y="69.4825" width="4.75126" height="4.75126"/>
      <rect class="cls-83" x="129.69047" y="36.08481" width="4.75126" height="4.75126"/>
      <rect class="cls-84" x="124.96321" y="40.8559" width="4.75126" height="4.75126"/>
      <rect class="cls-85" x="124.96321" y="45.627" width="4.75126" height="4.75126"/>
      <rect class="cls-74" x="124.96321" y="50.3981" width="4.75126" height="4.75126"/>
      <rect class="cls-86" x="124.96321" y="55.1692" width="4.75126" height="4.75126"/>
      <rect class="cls-87" x="124.96321" y="59.9403" width="4.75126" height="4.75126"/>
      <rect class="cls-88" x="124.96321" y="64.7114" width="4.75126" height="4.75126"/>
      <rect class="cls-89" x="124.96321" y="69.4825" width="4.75126" height="4.75126"/>
      <rect class="cls-90" x="124.96321" y="36.08481" width="4.75126" height="4.75126"/>
      <rect class="cls-91" x="120.23594" y="40.8559" width="4.75126" height="4.75126"/>
      <rect class="cls-21" x="120.23594" y="45.627" width="4.75126" height="4.75126"/>
      <rect class="cls-92" x="120.23594" y="50.3981" width="4.75126" height="4.75126"/>
      <rect class="cls-93" x="120.23594" y="55.1692" width="4.75126" height="4.75126"/>
      <rect class="cls-94" x="120.23594" y="59.9403" width="4.75126" height="4.75126"/>
      <rect class="cls-95" x="120.23594" y="64.7114" width="4.75126" height="4.75126"/>
      <rect class="cls-96" x="120.23594" y="69.4825" width="4.75126" height="4.75126"/>
      <rect class="cls-97" x="120.23594" y="36.08481" width="4.75126" height="4.75126"/>
      <rect class="cls-98" x="115.50868" y="40.8559" width="4.75126" height="4.75126"/>
      <rect class="cls-44" x="115.50868" y="45.627" width="4.75126" height="4.75126"/>
      <rect class="cls-99" x="115.50868" y="50.3981" width="4.75126" height="4.75126"/>
      <rect class="cls-100" x="115.50868" y="55.1692" width="4.75126" height="4.75126"/>
      <rect class="cls-101" x="115.50868" y="59.9403" width="4.75126" height="4.75126"/>
      <rect class="cls-102" x="115.50868" y="64.7114" width="4.75126" height="4.75126"/>
      <rect class="cls-103" x="115.50868" y="69.4825" width="4.75126" height="4.75126"/>
      <rect class="cls-104" x="115.50868" y="36.08481" width="4.75126" height="4.75126"/>
      <rect class="cls-105" x="110.78142" y="40.8559" width="4.75126" height="4.75126"/>
      <rect class="cls-58" x="110.78142" y="45.627" width="4.75126" height="4.75126"/>
      <rect class="cls-76" x="110.78142" y="50.3981" width="4.75126" height="4.75126"/>
      <rect class="cls-106" x="110.78142" y="55.1692" width="4.75126" height="4.75126"/>
      <rect class="cls-107" x="110.78142" y="59.9403" width="4.75126" height="4.75126"/>
      <rect class="cls-108" x="110.78142" y="64.7114" width="4.75126" height="4.75126"/>
      <rect class="cls-109" x="110.78142" y="69.4825" width="4.75126" height="4.75126"/>
      <rect class="cls-110" x="110.78142" y="36.08481" width="4.75126" height="4.75126"/>
      <rect class="cls-111" x="172.23583" y="40.8559" width="4.75126" height="4.75126"/>
      <rect class="cls-112" x="172.23583" y="45.627" width="4.75126" height="4.75126"/>
      <rect class="cls-113" x="172.23583" y="50.3981" width="4.75126" height="4.75126"/>
      <rect class="cls-114" x="172.23583" y="55.1692" width="4.75126" height="4.75126"/>
      <rect class="cls-115" x="172.23583" y="59.9403" width="4.75126" height="4.75126"/>
      <rect class="cls-116" x="172.23583" y="64.7114" width="4.75126" height="4.75126"/>
      <rect class="cls-117" x="172.23583" y="69.4825" width="4.75126" height="4.75126"/>
      <rect class="cls-41" x="167.49657" y="36.08481" width="4.75126" height="4.75126"/>
      <rect class="cls-118" x="172.22383" y="36.08481" width="4.75126" height="4.75126"/>
    </g>
    <g>
      <line class="cls-119" x1="78.79008" y1="52.63699" x2="89.79645" y2="52.63699"/>
      <line class="cls-119" x1="78.79008" y1="57.68158" x2="89.79645" y2="57.68158"/>
    </g>
    <path d="M141.36115,26.18809a3.25252,3.25252,0,0,0-.02345-.43317,1.61442,1.61442,0,0,0-.129-.40909.87576.87576,0,0,0-.3635-.397,1.78657,1.78657,0,0,0-.66836-.21659l-.16416-.03607q-.01171,0-.01173,1.49195t.01173,1.49194a2.0517,2.0517,0,0,0,.469-.10831,1.60458,1.60458,0,0,0,.48075-.24063.82294.82294,0,0,0,.26969-.34894,1.61193,1.61193,0,0,0,.10554-.37295A3.13931,3.13931,0,0,0,141.36115,26.18809ZM138.289,27.68V26.18809q0-1.49194-.02343-1.49195a1.45681,1.45681,0,0,0-.42213.09622,1.57769,1.57769,0,0,0-.50421.24067.89976.89976,0,0,0-.28142.361,1.19517,1.19517,0,0,0-.10552.373q-.01173.15642-.02346.42115a3.661,3.661,0,0,0,.03518.56546.8851.8851,0,0,0,.24624.44522,1.52141,1.52141,0,0,0,.598.37295,2.05154,2.05154,0,0,0,.469.10831q.01173,0,.01172-1.49194Zm3.13076,2.635q-.31659-.03612-2.27478-.03614t-2.27478.03614h-.16415v-.746H138.289V28.29365l-.16415-.01206a4.38249,4.38249,0,0,1-2.47411-.86627,1.52251,1.52251,0,0,1,0-2.4545,4.38249,4.38249,0,0,1,2.47411-.86627l.16415-.01206V22.80713h-1.58295v-.746h.16415q.31659.03607,2.27478.0361t2.27478-.0361h.16416v.746h-1.583v1.27536l.16417.01206a4.38249,4.38249,0,0,1,2.47411.86627,1.52251,1.52251,0,0,1,0,2.4545,4.38249,4.38249,0,0,1-2.47411.86627l-.16417.01206V29.569h1.583v.746Z"/>
    <g>
      <rect class="cls-120" x="282.92439" y="59.90928" width="4.8" height="4.8"/>
      <rect class="cls-120" x="282.92439" y="55.10928" width="4.8" height="4.8"/>
      <rect class="cls-120" x="282.92439" y="21.70928" width="4.8" height="4.8"/>
      <rect class="cls-121" x="282.92439" y="26.50928" width="4.8" height="4.8"/>
      <rect class="cls-122" x="282.92439" y="31.30928" width="4.8" height="4.8"/>
      <rect class="cls-120" x="282.92439" y="36.00928" width="4.8" height="4.8"/>
      <rect class="cls-120" x="282.92439" y="40.80928" width="4.8" height="4.8"/>
      <rect class="cls-123" x="282.92439" y="45.60928" width="4.8" height="4.8"/>
      <rect class="cls-120" x="282.92439" y="50.30928" width="4.8" height="4.8"/>
      <rect class="cls-120" x="282.92439" y="17.00928" width="4.8" height="4.8"/>
      <rect class="cls-120" x="282.92439" y="64.70928" width="4.8" height="4.8"/>
      <rect class="cls-120" x="282.92439" y="69.40928" width="4.8" height="4.8"/>
      <rect class="cls-124" x="282.92439" y="74.20928" width="4.8" height="4.8"/>
      <rect class="cls-120" x="282.92439" y="79.00928" width="4.8" height="4.8"/>
      <rect class="cls-120" x="282.92439" y="83.70928" width="4.8" height="4.8"/>
      <rect class="cls-120" x="282.92439" y="88.50928" width="4.8" height="4.8"/>
    </g>
    <g>
      <rect class="cls-125" x="206.06498" y="59.9403" width="4.75126" height="4.75126"/>
      <rect class="cls-126" x="206.06498" y="55.1692" width="4.75126" height="4.75126"/>
      <rect class="cls-127" x="206.06498" y="21.77151" width="4.75126" height="4.75126"/>
      <rect class="cls-128" x="206.06498" y="26.54261" width="4.75126" height="4.75126"/>
      <rect class="cls-129" x="206.06498" y="31.31371" width="4.75126" height="4.75126"/>
      <rect class="cls-130" x="206.06498" y="36.08481" width="4.75126" height="4.75126"/>
      <rect class="cls-131" x="206.06498" y="40.8559" width="4.75126" height="4.75126"/>
      <rect class="cls-132" x="206.06498" y="45.627" width="4.75126" height="4.75126"/>
      <rect class="cls-133" x="206.06498" y="50.3981" width="4.75126" height="4.75126"/>
      <rect class="cls-134" x="206.06498" y="17.00041" width="4.75126" height="4.75126"/>
      <rect class="cls-125" x="206.06498" y="64.7114" width="4.75126" height="4.75126"/>
      <rect class="cls-135" x="206.06498" y="69.4825" width="4.75126" height="4.75126"/>
      <rect class="cls-136" x="206.06498" y="74.2536" width="4.75126" height="4.75126"/>
      <rect class="cls-137" x="206.06498" y="79.0247" width="4.75126" height="4.75126"/>
      <rect class="cls-138" x="206.06498" y="83.79579" width="4.75126" height="4.75126"/>
      <rect class="cls-139" x="206.06498" y="88.56689" width="4.75126" height="4.75126"/>
      <rect class="cls-140" x="201.33771" y="59.9403" width="4.75126" height="4.75126"/>
      <rect class="cls-140" x="201.33771" y="55.1692" width="4.75126" height="4.75126"/>
      <rect class="cls-140" x="201.33771" y="21.77151" width="4.75126" height="4.75126"/>
      <rect class="cls-140" x="201.33771" y="26.54261" width="4.75126" height="4.75126"/>
      <rect class="cls-140" x="201.33771" y="31.31371" width="4.75126" height="4.75126"/>
      <rect class="cls-140" x="201.33771" y="36.08481" width="4.75126" height="4.75126"/>
      <rect class="cls-140" x="201.33771" y="40.8559" width="4.75126" height="4.75126"/>
      <rect class="cls-140" x="201.33771" y="45.627" width="4.75126" height="4.75126"/>
      <rect class="cls-140" x="201.33771" y="50.3981" width="4.75126" height="4.75126"/>
      <rect class="cls-140" x="201.33771" y="17.00041" width="4.75126" height="4.75126"/>
      <rect class="cls-140" x="201.33771" y="64.7114" width="4.75126" height="4.75126"/>
      <rect class="cls-140" x="201.33771" y="69.4825" width="4.75126" height="4.75126"/>
      <rect class="cls-140" x="201.33771" y="74.2536" width="4.75126" height="4.75126"/>
      <rect class="cls-140" x="201.33771" y="79.0247" width="4.75126" height="4.75126"/>
      <rect class="cls-140" x="201.33771" y="83.79579" width="4.75126" height="4.75126"/>
      <rect class="cls-140" x="201.33771" y="88.56689" width="4.75126" height="4.75126"/>
      <rect class="cls-141" x="267.51939" y="59.9403" width="4.75126" height="4.75126"/>
      <rect class="cls-142" x="267.51939" y="55.1692" width="4.75126" height="4.75126"/>
      <rect class="cls-143" x="267.51939" y="21.77151" width="4.75126" height="4.75126"/>
      <rect class="cls-144" x="267.51939" y="26.54261" width="4.75126" height="4.75126"/>
      <rect class="cls-145" x="267.51939" y="31.31371" width="4.75126" height="4.75126"/>
      <rect class="cls-146" x="267.51939" y="36.08481" width="4.75126" height="4.75126"/>
      <rect class="cls-147" x="267.51939" y="40.8559" width="4.75126" height="4.75126"/>
      <rect class="cls-148" x="267.51939" y="45.627" width="4.75126" height="4.75126"/>
      <rect class="cls-142" x="267.51939" y="50.3981" width="4.75126" height="4.75126"/>
      <rect class="cls-149" x="262.78012" y="17.00041" width="4.75126" height="4.75126"/>
      <rect class="cls-147" x="267.51939" y="64.7114" width="4.75126" height="4.75126"/>
      <rect class="cls-150" x="267.51939" y="69.4825" width="4.75126" height="4.75126"/>
      <rect class="cls-151" x="267.51939" y="74.2536" width="4.75126" height="4.75126"/>
      <rect class="cls-152" x="267.51939" y="79.0247" width="4.75126" height="4.75126"/>
      <rect class="cls-153" x="267.51939" y="83.79579" width="4.75126" height="4.75126"/>
      <rect class="cls-154" x="267.51939" y="88.56689" width="4.75126" height="4.75126"/>
      <rect class="cls-155" x="262.79212" y="59.9403" width="4.75126" height="4.75126"/>
      <rect class="cls-156" x="262.79212" y="55.1692" width="4.75126" height="4.75126"/>
      <rect class="cls-157" x="262.79212" y="21.77151" width="4.75126" height="4.75126"/>
      <rect class="cls-150" x="262.79212" y="26.54261" width="4.75126" height="4.75126"/>
      <rect class="cls-158" x="262.79212" y="31.31371" width="4.75126" height="4.75126"/>
      <rect class="cls-159" x="262.79212" y="36.08481" width="4.75126" height="4.75126"/>
      <rect class="cls-160" x="262.79212" y="40.8559" width="4.75126" height="4.75126"/>
      <rect class="cls-161" x="262.79212" y="45.627" width="4.75126" height="4.75126"/>
      <rect class="cls-162" x="262.79212" y="50.3981" width="4.75126" height="4.75126"/>
      <rect class="cls-163" x="258.05286" y="17.00041" width="4.75126" height="4.75126"/>
      <rect class="cls-164" x="262.79212" y="64.7114" width="4.75126" height="4.75126"/>
      <rect class="cls-165" x="262.79212" y="69.4825" width="4.75126" height="4.75126"/>
      <rect class="cls-166" x="262.79212" y="74.2536" width="4.75126" height="4.75126"/>
      <rect class="cls-167" x="262.79212" y="79.0247" width="4.75126" height="4.75126"/>
      <rect class="cls-168" x="262.79212" y="83.79579" width="4.75126" height="4.75126"/>
      <rect class="cls-26" x="262.79212" y="88.56689" width="4.75126" height="4.75126"/>
      <rect class="cls-169" x="258.06486" y="59.9403" width="4.75126" height="4.75126"/>
      <rect class="cls-170" x="258.06486" y="55.1692" width="4.75126" height="4.75126"/>
      <rect class="cls-171" x="258.06486" y="21.77151" width="4.75126" height="4.75126"/>
      <rect class="cls-172" x="258.06486" y="26.54261" width="4.75126" height="4.75126"/>
      <rect class="cls-173" x="258.06486" y="31.31371" width="4.75126" height="4.75126"/>
      <rect class="cls-173" x="258.06486" y="36.08481" width="4.75126" height="4.75126"/>
      <rect class="cls-172" x="258.06486" y="40.8559" width="4.75126" height="4.75126"/>
      <rect class="cls-171" x="258.06486" y="45.627" width="4.75126" height="4.75126"/>
      <rect class="cls-170" x="258.06486" y="50.3981" width="4.75126" height="4.75126"/>
      <rect class="cls-174" x="253.3256" y="17.00041" width="4.75126" height="4.75126"/>
      <rect class="cls-175" x="258.06486" y="64.7114" width="4.75126" height="4.75126"/>
      <rect class="cls-176" x="258.06486" y="69.4825" width="4.75126" height="4.75126"/>
      <rect class="cls-176" x="258.06486" y="74.2536" width="4.75126" height="4.75126"/>
      <rect class="cls-177" x="258.06486" y="79.0247" width="4.75126" height="4.75126"/>
      <rect class="cls-178" x="258.06486" y="83.79579" width="4.75126" height="4.75126"/>
      <rect class="cls-163" x="258.06486" y="88.56689" width="4.75126" height="4.75126"/>
      <rect class="cls-179" x="253.3376" y="59.9403" width="4.75126" height="4.75126"/>
      <rect class="cls-180" x="253.3376" y="55.1692" width="4.75126" height="4.75126"/>
      <rect class="cls-181" x="253.3376" y="21.77151" width="4.75126" height="4.75126"/>
      <rect class="cls-182" x="253.3376" y="26.54261" width="4.75126" height="4.75126"/>
      <rect class="cls-183" x="253.3376" y="31.31371" width="4.75126" height="4.75126"/>
      <rect class="cls-156" x="253.3376" y="36.08481" width="4.75126" height="4.75126"/>
      <rect class="cls-184" x="253.3376" y="40.8559" width="4.75126" height="4.75126"/>
      <rect class="cls-185" x="253.3376" y="45.627" width="4.75126" height="4.75126"/>
      <rect class="cls-186" x="253.3376" y="50.3981" width="4.75126" height="4.75126"/>
      <rect class="cls-187" x="248.59834" y="17.00041" width="4.75126" height="4.75126"/>
      <rect class="cls-188" x="253.3376" y="64.7114" width="4.75126" height="4.75126"/>
      <rect class="cls-189" x="253.3376" y="69.4825" width="4.75126" height="4.75126"/>
      <rect class="cls-125" x="253.3376" y="74.2536" width="4.75126" height="4.75126"/>
      <rect class="cls-190" x="253.3376" y="79.0247" width="4.75126" height="4.75126"/>
      <rect class="cls-191" x="253.3376" y="83.79579" width="4.75126" height="4.75126"/>
      <rect class="cls-192" x="253.3376" y="88.56689" width="4.75126" height="4.75126"/>
      <rect class="cls-193" x="248.61034" y="59.9403" width="4.75126" height="4.75126"/>
      <rect class="cls-194" x="248.61034" y="55.1692" width="4.75126" height="4.75126"/>
      <rect class="cls-181" x="248.61034" y="21.77151" width="4.75126" height="4.75126"/>
      <rect class="cls-41" x="248.61034" y="26.54261" width="4.75126" height="4.75126"/>
      <rect class="cls-144" x="248.61034" y="31.31371" width="4.75126" height="4.75126"/>
      <rect class="cls-195" x="248.61034" y="36.08481" width="4.75126" height="4.75126"/>
      <rect class="cls-196" x="248.61034" y="40.8559" width="4.75126" height="4.75126"/>
      <rect class="cls-197" x="248.61034" y="45.627" width="4.75126" height="4.75126"/>
      <rect class="cls-194" x="248.61034" y="50.3981" width="4.75126" height="4.75126"/>
      <rect class="cls-198" x="248.61034" y="64.7114" width="4.75126" height="4.75126"/>
      <rect class="cls-199" x="248.61034" y="69.4825" width="4.75126" height="4.75126"/>
      <rect class="cls-200" x="248.61034" y="74.2536" width="4.75126" height="4.75126"/>
      <rect class="cls-45" x="248.61034" y="79.0247" width="4.75126" height="4.75126"/>
      <rect class="cls-201" x="248.61034" y="83.79579" width="4.75126" height="4.75126"/>
      <rect class="cls-187" x="248.61034" y="88.56689" width="4.75126" height="4.75126"/>
      <rect class="cls-202" x="243.88307" y="59.9403" width="4.75126" height="4.75126"/>
      <rect class="cls-203" x="243.88307" y="55.1692" width="4.75126" height="4.75126"/>
      <rect class="cls-204" x="243.88307" y="21.77151" width="4.75126" height="4.75126"/>
      <rect class="cls-205" x="243.88307" y="26.54261" width="4.75126" height="4.75126"/>
      <rect class="cls-134" x="243.88307" y="31.31371" width="4.75126" height="4.75126"/>
      <rect class="cls-206" x="243.88307" y="36.08481" width="4.75126" height="4.75126"/>
      <rect class="cls-207" x="243.88307" y="40.8559" width="4.75126" height="4.75126"/>
      <rect class="cls-208" x="243.88307" y="45.627" width="4.75126" height="4.75126"/>
      <rect class="cls-129" x="243.88307" y="50.3981" width="4.75126" height="4.75126"/>
      <rect class="cls-209" x="243.88307" y="17.00041" width="4.75126" height="4.75126"/>
      <rect class="cls-210" x="243.88307" y="64.7114" width="4.75126" height="4.75126"/>
      <rect class="cls-100" x="243.88307" y="69.4825" width="4.75126" height="4.75126"/>
      <rect class="cls-211" x="243.88307" y="74.2536" width="4.75126" height="4.75126"/>
      <rect class="cls-212" x="243.88307" y="79.0247" width="4.75126" height="4.75126"/>
      <rect class="cls-213" x="243.88307" y="83.79579" width="4.75126" height="4.75126"/>
      <rect class="cls-214" x="243.88307" y="88.56689" width="4.75126" height="4.75126"/>
      <rect class="cls-215" x="239.15581" y="59.9403" width="4.75126" height="4.75126"/>
      <rect class="cls-140" x="239.15581" y="55.1692" width="4.75126" height="4.75126"/>
      <rect class="cls-216" x="239.15581" y="21.77151" width="4.75126" height="4.75126"/>
      <rect class="cls-216" x="239.15581" y="26.54261" width="4.75126" height="4.75126"/>
      <rect class="cls-217" x="239.15581" y="31.31371" width="4.75126" height="4.75126"/>
      <rect class="cls-217" x="239.15581" y="36.08481" width="4.75126" height="4.75126"/>
      <rect class="cls-215" x="239.15581" y="40.8559" width="4.75126" height="4.75126"/>
      <rect class="cls-215" x="239.15581" y="45.627" width="4.75126" height="4.75126"/>
      <rect class="cls-140" x="239.15581" y="50.3981" width="4.75126" height="4.75126"/>
      <rect class="cls-218" x="239.15581" y="17.00041" width="4.75126" height="4.75126"/>
      <rect class="cls-215" x="239.15581" y="64.7114" width="4.75126" height="4.75126"/>
      <rect class="cls-219" x="239.15581" y="69.4825" width="4.75126" height="4.75126"/>
      <rect class="cls-219" x="239.15581" y="74.2536" width="4.75126" height="4.75126"/>
      <rect class="cls-220" x="239.15581" y="79.0247" width="4.75126" height="4.75126"/>
      <rect class="cls-220" x="239.15581" y="83.79579" width="4.75126" height="4.75126"/>
      <rect class="cls-221" x="239.15581" y="88.56689" width="4.75126" height="4.75126"/>
      <rect class="cls-213" x="234.42855" y="59.9403" width="4.75126" height="4.75126"/>
      <rect class="cls-222" x="234.42855" y="55.1692" width="4.75126" height="4.75126"/>
      <rect class="cls-223" x="234.42855" y="21.77151" width="4.75126" height="4.75126"/>
      <rect class="cls-224" x="234.42855" y="26.54261" width="4.75126" height="4.75126"/>
      <rect class="cls-225" x="234.42855" y="31.31371" width="4.75126" height="4.75126"/>
      <rect class="cls-226" x="234.42855" y="36.08481" width="4.75126" height="4.75126"/>
      <rect class="cls-149" x="234.42855" y="40.8559" width="4.75126" height="4.75126"/>
      <rect class="cls-227" x="234.42855" y="45.627" width="4.75126" height="4.75126"/>
      <rect class="cls-228" x="234.42855" y="50.3981" width="4.75126" height="4.75126"/>
      <rect class="cls-129" x="234.42855" y="17.00041" width="4.75126" height="4.75126"/>
      <rect class="cls-229" x="234.42855" y="64.7114" width="4.75126" height="4.75126"/>
      <rect class="cls-230" x="234.42855" y="69.4825" width="4.75126" height="4.75126"/>
      <rect class="cls-164" x="234.42855" y="74.2536" width="4.75126" height="4.75126"/>
      <rect class="cls-231" x="234.42855" y="79.0247" width="4.75126" height="4.75126"/>
      <rect class="cls-232" x="234.42855" y="83.79579" width="4.75126" height="4.75126"/>
      <rect class="cls-233" x="234.42855" y="88.56689" width="4.75126" height="4.75126"/>
      <rect class="cls-41" x="229.70129" y="59.9403" width="4.75126" height="4.75126"/>
      <rect class="cls-199" x="229.70129" y="55.1692" width="4.75126" height="4.75126"/>
      <rect class="cls-234" x="229.70129" y="21.77151" width="4.75126" height="4.75126"/>
      <rect class="cls-235" x="229.70129" y="26.54261" width="4.75126" height="4.75126"/>
      <rect class="cls-143" x="229.70129" y="31.31371" width="4.75126" height="4.75126"/>
      <rect class="cls-236" x="229.70129" y="36.08481" width="4.75126" height="4.75126"/>
      <rect class="cls-237" x="229.70129" y="40.8559" width="4.75126" height="4.75126"/>
      <rect class="cls-41" x="229.70129" y="45.627" width="4.75126" height="4.75126"/>
      <rect class="cls-199" x="229.70129" y="50.3981" width="4.75126" height="4.75126"/>
      <rect class="cls-238" x="229.70129" y="17.00041" width="4.75126" height="4.75126"/>
      <rect class="cls-237" x="229.70129" y="64.7114" width="4.75126" height="4.75126"/>
      <rect class="cls-236" x="229.70129" y="69.4825" width="4.75126" height="4.75126"/>
      <rect class="cls-239" x="229.70129" y="74.2536" width="4.75126" height="4.75126"/>
      <rect class="cls-151" x="229.70129" y="79.0247" width="4.75126" height="4.75126"/>
      <rect class="cls-240" x="229.70129" y="83.79579" width="4.75126" height="4.75126"/>
      <rect class="cls-238" x="229.70129" y="88.56689" width="4.75126" height="4.75126"/>
      <rect class="cls-241" x="224.97402" y="59.9403" width="4.75126" height="4.75126"/>
      <rect class="cls-242" x="224.97402" y="55.1692" width="4.75126" height="4.75126"/>
      <rect class="cls-19" x="224.97402" y="21.77151" width="4.75126" height="4.75126"/>
      <rect class="cls-243" x="224.97402" y="26.54261" width="4.75126" height="4.75126"/>
      <rect class="cls-244" x="224.97402" y="31.31371" width="4.75126" height="4.75126"/>
      <rect class="cls-245" x="224.97402" y="36.08481" width="4.75126" height="4.75126"/>
      <rect class="cls-246" x="224.97402" y="40.8559" width="4.75126" height="4.75126"/>
      <rect class="cls-247" x="224.97402" y="45.627" width="4.75126" height="4.75126"/>
      <rect class="cls-248" x="224.97402" y="50.3981" width="4.75126" height="4.75126"/>
      <rect class="cls-249" x="224.97402" y="17.00041" width="4.75126" height="4.75126"/>
      <rect class="cls-250" x="224.97402" y="64.7114" width="4.75126" height="4.75126"/>
      <rect class="cls-251" x="224.97402" y="69.4825" width="4.75126" height="4.75126"/>
      <rect class="cls-252" x="224.97402" y="74.2536" width="4.75126" height="4.75126"/>
      <rect class="cls-129" x="224.97402" y="79.0247" width="4.75126" height="4.75126"/>
      <rect class="cls-253" x="224.97402" y="83.79579" width="4.75126" height="4.75126"/>
      <rect class="cls-254" x="224.97402" y="88.56689" width="4.75126" height="4.75126"/>
      <rect class="cls-255" x="220.24676" y="59.9403" width="4.75126" height="4.75126"/>
      <rect class="cls-80" x="220.24676" y="55.1692" width="4.75126" height="4.75126"/>
      <rect class="cls-256" x="220.24676" y="21.77151" width="4.75126" height="4.75126"/>
      <rect class="cls-257" x="220.24676" y="26.54261" width="4.75126" height="4.75126"/>
      <rect class="cls-258" x="220.24676" y="31.31371" width="4.75126" height="4.75126"/>
      <rect class="cls-258" x="220.24676" y="36.08481" width="4.75126" height="4.75126"/>
      <rect class="cls-259" x="220.24676" y="40.8559" width="4.75126" height="4.75126"/>
      <rect class="cls-255" x="220.24676" y="45.627" width="4.75126" height="4.75126"/>
      <rect class="cls-80" x="220.24676" y="50.3981" width="4.75126" height="4.75126"/>
      <rect class="cls-80" x="220.24676" y="17.00041" width="4.75126" height="4.75126"/>
      <rect class="cls-24" x="220.24676" y="64.7114" width="4.75126" height="4.75126"/>
      <rect class="cls-260" x="220.24676" y="69.4825" width="4.75126" height="4.75126"/>
      <rect class="cls-260" x="220.24676" y="74.2536" width="4.75126" height="4.75126"/>
      <rect class="cls-261" x="220.24676" y="79.0247" width="4.75126" height="4.75126"/>
      <rect class="cls-262" x="220.24676" y="83.79579" width="4.75126" height="4.75126"/>
      <rect class="cls-175" x="220.24676" y="88.56689" width="4.75126" height="4.75126"/>
      <rect class="cls-184" x="215.5195" y="59.9403" width="4.75126" height="4.75126"/>
      <rect class="cls-263" x="215.5195" y="55.1692" width="4.75126" height="4.75126"/>
      <rect class="cls-102" x="215.5195" y="21.77151" width="4.75126" height="4.75126"/>
      <rect class="cls-264" x="215.5195" y="26.54261" width="4.75126" height="4.75126"/>
      <rect class="cls-265" x="215.5195" y="31.31371" width="4.75126" height="4.75126"/>
      <rect class="cls-266" x="215.5195" y="36.08481" width="4.75126" height="4.75126"/>
      <rect class="cls-266" x="215.5195" y="40.8559" width="4.75126" height="4.75126"/>
      <rect class="cls-188" x="215.5195" y="45.627" width="4.75126" height="4.75126"/>
      <rect class="cls-267" x="215.5195" y="50.3981" width="4.75126" height="4.75126"/>
      <rect class="cls-127" x="215.5195" y="17.00041" width="4.75126" height="4.75126"/>
      <rect class="cls-268" x="215.5195" y="64.7114" width="4.75126" height="4.75126"/>
      <rect class="cls-269" x="215.5195" y="69.4825" width="4.75126" height="4.75126"/>
      <rect class="cls-174" x="215.5195" y="74.2536" width="4.75126" height="4.75126"/>
      <rect class="cls-164" x="215.5195" y="79.0247" width="4.75126" height="4.75126"/>
      <rect class="cls-270" x="215.5195" y="83.79579" width="4.75126" height="4.75126"/>
      <rect class="cls-271" x="215.5195" y="88.56689" width="4.75126" height="4.75126"/>
      <rect class="cls-272" x="210.79224" y="59.9403" width="4.75126" height="4.75126"/>
      <rect class="cls-273" x="210.79224" y="55.1692" width="4.75126" height="4.75126"/>
      <rect class="cls-274" x="210.79224" y="21.77151" width="4.75126" height="4.75126"/>
      <rect class="cls-275" x="210.79224" y="26.54261" width="4.75126" height="4.75126"/>
      <rect class="cls-78" x="210.79224" y="31.31371" width="4.75126" height="4.75126"/>
      <rect class="cls-111" x="210.79224" y="36.08481" width="4.75126" height="4.75126"/>
      <rect class="cls-276" x="210.79224" y="40.8559" width="4.75126" height="4.75126"/>
      <rect class="cls-277" x="210.79224" y="45.627" width="4.75126" height="4.75126"/>
      <rect class="cls-273" x="210.79224" y="50.3981" width="4.75126" height="4.75126"/>
      <rect class="cls-134" x="210.79224" y="17.00041" width="4.75126" height="4.75126"/>
      <rect class="cls-67" x="210.79224" y="64.7114" width="4.75126" height="4.75126"/>
      <rect class="cls-111" x="210.79224" y="69.4825" width="4.75126" height="4.75126"/>
      <rect class="cls-45" x="210.79224" y="74.2536" width="4.75126" height="4.75126"/>
      <rect class="cls-278" x="210.79224" y="79.0247" width="4.75126" height="4.75126"/>
      <rect class="cls-279" x="210.79224" y="83.79579" width="4.75126" height="4.75126"/>
      <rect class="cls-280" x="210.79224" y="88.56689" width="4.75126" height="4.75126"/>
      <rect class="cls-138" x="272.24665" y="59.9403" width="4.75126" height="4.75126"/>
      <rect class="cls-281" x="272.24665" y="55.1692" width="4.75126" height="4.75126"/>
      <rect class="cls-205" x="272.24665" y="21.77151" width="4.75126" height="4.75126"/>
      <rect class="cls-282" x="272.24665" y="26.54261" width="4.75126" height="4.75126"/>
      <rect class="cls-135" x="272.24665" y="31.31371" width="4.75126" height="4.75126"/>
      <rect class="cls-129" x="272.24665" y="36.08481" width="4.75126" height="4.75126"/>
      <rect class="cls-283" x="272.24665" y="40.8559" width="4.75126" height="4.75126"/>
      <rect class="cls-284" x="272.24665" y="45.627" width="4.75126" height="4.75126"/>
      <rect class="cls-285" x="272.24665" y="50.3981" width="4.75126" height="4.75126"/>
      <rect class="cls-41" x="267.50739" y="17.00041" width="4.75126" height="4.75126"/>
      <rect class="cls-286" x="272.24665" y="64.7114" width="4.75126" height="4.75126"/>
      <rect class="cls-287" x="272.24665" y="69.4825" width="4.75126" height="4.75126"/>
      <rect class="cls-288" x="272.24665" y="74.2536" width="4.75126" height="4.75126"/>
      <rect class="cls-202" x="272.24665" y="79.0247" width="4.75126" height="4.75126"/>
      <rect class="cls-289" x="272.24665" y="83.79579" width="4.75126" height="4.75126"/>
      <rect class="cls-126" x="272.24665" y="88.56689" width="4.75126" height="4.75126"/>
      <rect class="cls-19" x="272.23465" y="17.00041" width="4.75126" height="4.75126"/>
    </g>
    <path d="M237.04041,5.89431q0-.20453.0822-.25266a.94559.94559,0,0,1,.38745-.04815h.41095a6.24358,6.24358,0,0,1,.7984.024.70268.70268,0,0,1,.34051.20455.98351.98351,0,0,1,.1996.385,1.99008,1.99008,0,0,1,.08218.42112q.01174.18045.047.48123a3.14639,3.14639,0,0,0,.27,1.41977,1.4196,1.4196,0,0,0,.70448.7099,1.28425,1.28425,0,0,0,.30527.13232q.01174,0,.01174-2.39432V4.58282h-1.58507V3.83688h.16439q.317.03606,2.2778.03607t2.2778-.03607h.16437v.74594h-1.58506V9.37148l.02348-.012a.72788.72788,0,0,1,.10567-.02411.80977.80977,0,0,0,.24656-.13232,3.59768,3.59768,0,0,0,.32875-.25269,1.41254,1.41254,0,0,0,.30528-.44516,2.40971,2.40971,0,0,0,.21135-.67377,3.06587,3.06587,0,0,0,.047-.48129q.01175-.31284.03522-.55347t.07044-.50531a.82186.82186,0,0,1,.57533-.67382,6.24356,6.24356,0,0,1,.79841-.024h.46965a.73228.73228,0,0,1,.3405.04815q.07044.04812.07044.25266a.35469.35469,0,0,1-.05871.24063.25065.25065,0,0,1-.15263.0722.376.376,0,0,0-.17612.07218.62288.62288,0,0,0-.16437.26471,1.82806,1.82806,0,0,0-.0822.63766A2.70355,2.70355,0,0,1,242.958,9.9851q-.49314.08427-.55183.08423-.01176,0-.01174.63772v.63767h1.58506v.746h-.16437q-.317-.03612-2.2778-.0361t-2.2778.0361h-.16439v-.746h1.58507V10.06933l-.11741-.012a4.0132,4.0132,0,0,1-1.42069-.40908,2.71143,2.71143,0,0,1-1.46766-2.47855,2.35132,2.35132,0,0,0-.08218-.62564.56886.56886,0,0,0-.15264-.27677.29267.29267,0,0,0-.17613-.06012.1876.1876,0,0,1-.15263-.0722A.43462.43462,0,0,1,237.04041,5.89431Z"/>
    <path d="M283.717,7.06794a2.03814,2.03814,0,0,1,.10166-.60156,2.40116,2.40116,0,0,1,.35578-.68009,1.9025,1.9025,0,0,1,.74968-.58847,2.66749,2.66749,0,0,1,1.15628-.23544h.12706a4.14,4.14,0,0,1,.47014.02615,3.34088,3.34088,0,0,1,.5718.1308,1.02737,1.02737,0,0,1,.53366.35312,1.08332,1.08332,0,0,1,.2033.64081.99368.99368,0,0,1-.25412.68.8126.8126,0,0,1-.63532.28769.59145.59145,0,0,1-.44473-.17.64106.64106,0,0,1-.17789-.43158.80546.80546,0,0,1,.089-.37924.92636.92636,0,0,1,.19059-.26157l.089-.09155q0-.013-.06354-.03925a1.2016,1.2016,0,0,0-.24142-.05231,2.82259,2.82259,0,0,0-.4066-.02615,2.05752,2.05752,0,0,0-.66074.09152.79719.79719,0,0,0-.3939.26157.84643.84643,0,0,0-.15247.27466,1.729,1.729,0,0,0-.03813.22232.41928.41928,0,0,0,.12707.30078,2.19487,2.19487,0,0,0,.92757.28772,2.727,2.727,0,0,1,1.11817.39236,1.42115,1.42115,0,0,1,.68615,1.21625,2.05839,2.05839,0,0,1-.05083.43158,2.39109,2.39109,0,0,1-.22872.57541,2.194,2.194,0,0,1-.48284.61468,2.55449,2.55449,0,0,1-.85133.4708,3.79734,3.79734,0,0,1-1.28335.19617,2.76892,2.76892,0,0,1-1.70267-.39234,1.1448,1.1448,0,0,1-.48284-.90237,1.1266,1.1266,0,0,1,.305-.79779.97136.97136,0,0,1,.737-.32691.66471.66471,0,0,1,.69885.73236,1.15592,1.15592,0,0,1-.521.85,2.43449,2.43449,0,0,0,1.05464.17,2.72522,2.72522,0,0,0,.85132-.1177,1.096,1.096,0,0,0,.50826-.30081,1.72049,1.72049,0,0,0,.22871-.34.56956.56956,0,0,0,.06353-.30081.529.529,0,0,0-.35577-.48389,3.095,3.095,0,0,0-.83863-.2485q-.48284-.07842-.50826-.07846a1.57431,1.57431,0,0,1-.864-.5362A1.38967,1.38967,0,0,1,283.717,7.06794Z"/>
    <path d="M63.45491,30.28972a1.56974,1.56974,0,0,0,.78818-.2019,1.97281,1.97281,0,0,0,.58477-.49219,3.51212,3.51212,0,0,0,.38138-.5932,4.66229,4.66229,0,0,0,.22882-.51745.693.693,0,0,0,.06357-.265,1.85825,1.85825,0,0,1-1.106.265,3.37651,3.37651,0,0,1-1.08057-.1514,1.28863,1.28863,0,0,1-.64835-.42914,1.91556,1.91556,0,0,1-.27967-.50479,1.96368,1.96368,0,0,1-.089-.5427,5.98589,5.98589,0,0,1,.47037-1.91836,8.34054,8.34054,0,0,0,.47036-1.43872.19843.19843,0,0,0-.02542-.12619.27706.27706,0,0,0-.13985-.03787,1.00829,1.00829,0,0,0-.64833.366,2.30087,2.30087,0,0,0-.45765.85822.76161.76161,0,0,1-.1017.23977.47185.47185,0,0,1-.25425.03785h-.21611q-.25427,0-.25426-.17667a1.233,1.233,0,0,1,.12713-.41647,3.98538,3.98538,0,0,1,.38137-.65625,2.36252,2.36252,0,0,1,.661-.63108,1.64068,1.64068,0,0,1,.91531-.265,1.7842,1.7842,0,0,1,1.08057.31552,1.01664,1.01664,0,0,1,.44494.83292,8.01633,8.01633,0,0,1-.44494,1.36306A6.04788,6.04788,0,0,0,63.849,27.021q0,.83293.68648.833a1.56281,1.56281,0,0,0,1.23312-.69418q0-.01254.47037-1.86783t.48308-1.89306a1.11651,1.11651,0,0,1,.34323-.41648.881.881,0,0,1,.55935-.18933.67283.67283,0,0,1,.49579.17673.541.541,0,0,1,.178.39123q0,.164-.63563,2.68818t-.68648,2.6629a2.98211,2.98211,0,0,1-.928,1.27472,4.32111,4.32111,0,0,1-1.44922.78244,4.20341,4.20341,0,0,1-1.16956.17666,2.12164,2.12164,0,0,1-1.37295-.34072.98871.98871,0,0,1-.12713-1.4892.97579.97579,0,0,1,.73732-.32813.71855.71855,0,0,1,.50851.17664.62194.62194,0,0,1,.19069.47961.70391.70391,0,0,1-.01271.1388l-.02543.12622a.44956.44956,0,0,1-.03814.11362.82.82,0,0,1-.05085.08828q-.02543.0379-.06356.10095a.20663.20663,0,0,1-.06356.07578.28842.28842,0,0,0-.07628.08835q-.05085.07566-.06356.07571A3.46967,3.46967,0,0,0,63.45491,30.28972Z"/>
    <path d="M241.56878,106.2371H241.431q-.25047,0-.25047-.15985a.82374.82374,0,0,1,.025-.12561,1.10735,1.10735,0,0,1,.13775-.2854q.11271-.18274.25047-.37684a1.98182,1.98182,0,0,1,.4258-.41107,3.2794,3.2794,0,0,1,.61364-.36541,2.52669,2.52669,0,0,1,.92673-.20545h.03756q.46338,0,.57608.01141a1.83646,1.83646,0,0,1,1.25234.57087l.12523-.11414a1.66235,1.66235,0,0,1,1.13962-.47961,1.49283,1.49283,0,0,1,1.06449.354,1.1763,1.1763,0,0,1,.38822.85632.91208.91208,0,0,1-.3256.75367,1.15493,1.15493,0,0,1-.70131.274.75855.75855,0,0,1-.48841-.15985.52567.52567,0,0,1-.20038-.4339.84809.84809,0,0,1,.32561-.6737,1.85787,1.85787,0,0,1,.40074-.20557c0-.00763-.01669-.02276-.05008-.04565a.86211.86211,0,0,0-.17533-.0799.79871.79871,0,0,0-.27552-.04571.83116.83116,0,0,0-.22542.02282,1.05108,1.05108,0,0,0-.58859.65088,20.03267,20.03267,0,0,0-.76393,2.98023q0,.41108.6387.411a1.61683,1.61683,0,0,0,1.00186-.34253,1.86017,1.86017,0,0,0,.62617-.77643.52475.52475,0,0,1,.08766-.19415.501.501,0,0,1,.25047-.03424h.21289q.25047,0,.25047.15985a.9382.9382,0,0,1-.16281.42248,3.46649,3.46649,0,0,1-.45083.58234,2.54583,2.54583,0,0,1-.814.5481,2.89953,2.89953,0,0,1-2.74261-.26264l-.10019-.10278a1.62184,1.62184,0,0,1-1.21477.58233h-.06261a1.4118,1.4118,0,0,1-1.06449-.36535,1.13429,1.13429,0,0,1-.35065-.79926.93021.93021,0,0,1,.33813-.79937,1.21522,1.21522,0,0,1,.68878-.26264.75871.75871,0,0,1,.48842.15991.52561.52561,0,0,1,.20037.4339.848.848,0,0,1-.32561.67365,1.85773,1.85773,0,0,1-.40075.20556q.025.05713.17533.1142a1.09344,1.09344,0,0,0,.31308.06848.68332.68332,0,0,0,.48842-.2055,1.39957,1.39957,0,0,0,.3256-.47956,20.03271,20.03271,0,0,0,.76393-2.98022q0-.41107-.6387-.41107a1.75956,1.75956,0,0,0-1.61551,1.119.52529.52529,0,0,1-.08766.19415.5022.5022,0,0,1-.25046.03418Z"/>
    <path d="M318.6369,46.67166a1.43067,1.43067,0,0,0,.74948-.20282,1.90511,1.90511,0,0,0,.55606-.49427,3.55665,3.55665,0,0,0,.36265-.59576,4.8235,4.8235,0,0,0,.21759-.51965.72908.72908,0,0,0,.06044-.26618,1.69475,1.69475,0,0,1-1.05168.26618,3.053,3.053,0,0,1-1.02751-.1521,1.22434,1.22434,0,0,1-.61651-.431,1.95636,1.95636,0,0,1-.26594-.507,2.07191,2.07191,0,0,1-.08461-.545,6.29325,6.29325,0,0,1,.44726-1.92652,8.72558,8.72558,0,0,0,.44727-1.44494.20837.20837,0,0,0-.02418-.12677.25383.25383,0,0,0-.133-.038.94668.94668,0,0,0-.61651.36762,2.35279,2.35279,0,0,0-.43518.86181.7853.7853,0,0,1-.09671.24085q-.03625.038-.24176.038h-.2055q-.24177,0-.24178-.17743a1.29115,1.29115,0,0,1,.12089-.41827,4.06528,4.06528,0,0,1,.36266-.65912,2.30578,2.30578,0,0,1,.62859-.63373,1.49985,1.49985,0,0,1,.87035-.26617,1.63331,1.63331,0,0,1,1.02751.31683,1.03806,1.03806,0,0,1,.42309.83655,8.38206,8.38206,0,0,1-.42309,1.3689,6.3562,6.3562,0,0,0-.43518,1.82519q0,.83652.65277.83655a1.4684,1.4684,0,0,0,1.17257-.69714q0-.01264.44726-1.87586t.45935-1.90124a1.11066,1.11066,0,0,1,.3264-.41822.80907.80907,0,0,1,.53188-.19012.62044.62044,0,0,1,.47144.17737.5576.5576,0,0,1,.16924.39294q0,.16479-.60442,2.69977t-.65277,2.67432a2.99229,2.99229,0,0,1-.88245,1.28021,4.04613,4.04613,0,0,1-1.37806.78583,3.80077,3.80077,0,0,1-1.11212.17742,1.93793,1.93793,0,0,1-1.30555-.34216,1.07009,1.07009,0,0,1-.38681-.77319,1.09223,1.09223,0,0,1,.26593-.72241.90726.90726,0,0,1,.70112-.32959.66155.66155,0,0,1,.48354.17743.64315.64315,0,0,1,.18132.48169.745.745,0,0,1-.01209.13934l-.02417.12677a.46809.46809,0,0,1-.03627.11407.83648.83648,0,0,1-.04835.08875q-.02418.038-.06044.10138a.20417.20417,0,0,1-.06045.07605.28633.28633,0,0,0-.07252.08874q-.04836.076-.06044.076A3.12193,3.12193,0,0,0,318.6369,46.67166Z"/>
    <path d="M327.31389,42.8312a.24908.24908,0,0,1,.19341-.25348h7.68817a.3405.3405,0,0,1,.16924.25348.27623.27623,0,0,1-.18133.25348h-7.70025A.27614.27614,0,0,1,327.31389,42.8312Zm0-2.45892a.27629.27629,0,0,1,.16924-.25354h7.70025a.29414.29414,0,0,1,.18133.25354.28733.28733,0,0,1-.16924.24084l-3.84408.01264H327.5073A.24908.24908,0,0,1,327.31389,40.37228Z"/>
    <path d="M346.70113,40.423a3.50147,3.50147,0,0,0-.02418-.45636,1.7289,1.7289,0,0,0-.133-.43091.91585.91585,0,0,0-.37474-.41827,1.81584,1.81584,0,0,0-.689-.22809l-.16924-.038q-.01209,0-.01209,1.57166t.01209,1.57166a2.077,2.077,0,0,0,.48353-.11408,1.64244,1.64244,0,0,0,.49562-.25348.86546.86546,0,0,0,.278-.36755,1.72711,1.72711,0,0,0,.1088-.39295A3.37857,3.37857,0,0,0,346.70113,40.423ZM343.534,41.99466V40.423q0-1.57169-.02418-1.57166a1.47449,1.47449,0,0,0-.43518.10132,1.61428,1.61428,0,0,0-.5198.25348.94554.94554,0,0,0-.29011.38031,1.28,1.28,0,0,0-.1088.39289q-.01209.16479-.02417.44366a3.94006,3.94006,0,0,0,.03626.5957.93859.93859,0,0,0,.25385.46894,1.56505,1.56505,0,0,0,.6165.39294,2.07719,2.07719,0,0,0,.48354.11408q.01209,0,.01209-1.57166Zm3.22758,2.77581q-.32639-.03809-2.34514-.038t-2.34512.038h-.16925v-.78589H343.534V42.641l-.16924-.01264a4.45837,4.45837,0,0,1-2.55063-.91259,1.62472,1.62472,0,0,1,0-2.58564,4.4588,4.4588,0,0,1,2.55063-.91259l.16924-.0127V36.86135h-1.63193v-.78582h.16925q.32639.038,2.34512.038t2.34514-.038h.16923v.78582h-1.63192v1.34351l.16924.0127a4.45885,4.45885,0,0,1,2.55063.91259,1.62472,1.62472,0,0,1,0,2.58564,4.45843,4.45843,0,0,1-2.55063.91259l-.16924.01264v1.34356h1.63192v.78589Z"/>
    <path d="M350.3397,41.19613h-.133q-.24177,0-.24177-.17743a1.03538,1.03538,0,0,1,.02417-.13946,1.32123,1.32123,0,0,1,.133-.3169q.1088-.20269.24176-.41821a2.06958,2.06958,0,0,1,.411-.4563,3.10547,3.10547,0,0,1,.59232-.40564,2.17267,2.17267,0,0,1,.89453-.22809h.03627q.44727,0,.55606.01264a1.69433,1.69433,0,0,1,1.20884.63379l.12088-.12677a1.50629,1.50629,0,0,1,1.1-.53235,1.3285,1.3285,0,0,1,1.02751.39294,1.39867,1.39867,0,0,1,.37474.95063,1.08474,1.08474,0,0,1-.3143.83654,1.03647,1.03647,0,0,1-.67694.30414.67207.67207,0,0,1-.47145-.17743.62142.62142,0,0,1-.19341-.48163,1.00021,1.00021,0,0,1,.3143-.74786,1.72057,1.72057,0,0,1,.38682-.22809q0-.01272-.04836-.05072a.78978.78978,0,0,0-.16923-.08874.68044.68044,0,0,0-.26594-.05066.70109.70109,0,0,0-.21759.02533,1.12175,1.12175,0,0,0-.56815.72247,25.03238,25.03238,0,0,0-.73739,3.30811q0,.45629.61651.45629a1.435,1.435,0,0,0,.96706-.38025,2.04,2.04,0,0,0,.60442-.86187.62376.62376,0,0,1,.08461-.21546q.03627-.038.24176-.038h.20551q.24177,0,.24177.17743a1.14257,1.14257,0,0,1-.15715.46893,3.83265,3.83265,0,0,1-.43518.64642,2.47429,2.47429,0,0,1-.78574.60846,2.1531,2.1531,0,0,1-1.06377.25348,2.194,2.194,0,0,1-1.58357-.545l-.09671-.11408a1.49427,1.49427,0,0,1-1.17256.64643h-.06044a1.26217,1.26217,0,0,1-1.02751-.40558,1.35529,1.35529,0,0,1-.33847-.88727,1.106,1.106,0,0,1,.32638-.88727,1.087,1.087,0,0,1,.66486-.2915.672.672,0,0,1,.47144.17743.62155.62155,0,0,1,.19341.48169.99994.99994,0,0,1-.31429.7478,1.72275,1.72275,0,0,1-.38683.22815q.02418.06336.16924.12677a.93762.93762,0,0,0,.30221.07605.61994.61994,0,0,0,.47144-.22815,1.58247,1.58247,0,0,0,.3143-.53235,25.029,25.029,0,0,0,.73738-3.30817q0-.4562-.6165-.45623a1.5548,1.5548,0,0,0-.87036.2915,1.93444,1.93444,0,0,0-.689.95062.6237.6237,0,0,1-.08462.21546q-.03627.038-.24177.038Z"/>
    <path d="M318.65926,73.72787a1.53556,1.53556,0,0,0,.75688-.18921,1.88333,1.88333,0,0,0,.56156-.4613,3.28431,3.28431,0,0,0,.36623-.556,4.31285,4.31285,0,0,0,.21975-.485.63645.63645,0,0,0,.061-.24841,1.81854,1.81854,0,0,1-1.06209.24841,3.31465,3.31465,0,0,1-1.03766-.142,1.23866,1.23866,0,0,1-.62259-.40216,1.52259,1.52259,0,0,1-.354-.98187A5.49912,5.49912,0,0,1,318,68.71231a7.68578,7.68578,0,0,0,.45168-1.34851.18252.18252,0,0,0-.0244-.11829.27173.27173,0,0,0-.1343-.03552.97468.97468,0,0,0-.62259.34308,2.1407,2.1407,0,0,0-.43949.80438.70427.70427,0,0,1-.09765.22473.4624.4624,0,0,1-.24416.03552h-.20753q-.24417,0-.24416-.16565a1.135,1.135,0,0,1,.12208-.39032,3.71475,3.71475,0,0,1,.36623-.61511,2.24556,2.24556,0,0,1,.63481-.59149,1.603,1.603,0,0,1,.879-.24841,1.74386,1.74386,0,0,1,1.03766.29571.94688.94688,0,0,1,.42727.78076,7.38353,7.38353,0,0,1-.42727,1.27753,5.55805,5.55805,0,0,0-.43948,1.70343q0,.78076.65922.7807a1.51035,1.51035,0,0,0,1.18416-.65057q0-.01182.45169-1.75074t.46389-1.77435a1.05168,1.05168,0,0,1,.32961-.39038.8596.8596,0,0,1,.53715-.17749.65561.65561,0,0,1,.4761.16565.50179.50179,0,0,1,.17091.3667q0,.15381-.61039,2.51965t-.65922,2.496a2.79968,2.79968,0,0,1-.89117,1.19471,4.18319,4.18319,0,0,1-1.39169.73346,4.12954,4.12954,0,0,1-1.12312.16558,2.07518,2.07518,0,0,1-1.31843-.31939.9126.9126,0,0,1-.12209-1.39588.94771.94771,0,0,1,.70806-.30755.70051.70051,0,0,1,.48831.16559.576.576,0,0,1,.18312.44958.64475.64475,0,0,1-.01222.13013l-.0244.11828a.41371.41371,0,0,1-.03663.10645.76942.76942,0,0,1-.04884.08282q-.02441.03552-.061.09461a.19467.19467,0,0,1-.061.071.27329.27329,0,0,0-.07325.08277q-.04882.071-.061.071A3.41715,3.41715,0,0,0,318.65926,73.72787Z"/>
    <path d="M327.422,70.14364a.23606.23606,0,0,1,.19532-.23657h7.76416q.17091.11829.17091.23657a.25964.25964,0,0,1-.18312.23664h-7.77637A.258.258,0,0,1,327.422,70.14364Zm0-2.29486a.258.258,0,0,1,.1709-.23657h7.77637q.18312.09457.18312.23657,0,.13018-.17091.22479l-3.88209.01178h-3.88207A.23606.23606,0,0,1,327.422,67.84878Z"/>
    <path d="M347.00088,67.89614a3.021,3.021,0,0,0-.02442-.4259,1.5236,1.5236,0,0,0-.13429-.40216.88089.88089,0,0,0-.37844-.39038,1.93653,1.93653,0,0,0-.69584-.21289l-.1709-.03552q-.01223,0-.01221,1.46685t.01221,1.4668a2.24408,2.24408,0,0,0,.4883-.10644,1.7101,1.7101,0,0,0,.50053-.23664.81683.81683,0,0,0,.28077-.343,1.51719,1.51719,0,0,0,.10987-.3667A2.9163,2.9163,0,0,0,347.00088,67.89614Zm-3.19844,1.4668v-1.4668q0-1.46685-.02442-1.46685a1.59154,1.59154,0,0,0-.43948.0946,1.68493,1.68493,0,0,0-.52493.23663.89389.89389,0,0,0-.293.35486,1.12484,1.12484,0,0,0-.10987.3667q-.01223.15372-.02442.41406a3.40328,3.40328,0,0,0,.03662.55591.85661.85661,0,0,0,.25637.43769,1.59937,1.59937,0,0,0,.6226.36676,2.24408,2.24408,0,0,0,.4883.10644q.01223,0,.01222-1.4668Zm3.25947,2.59064q-.32961-.03552-2.3683-.03552t-2.36831.03552h-.17092v-.73346h1.64806V69.96621l-.17092-.01178a4.73308,4.73308,0,0,1-2.57584-.85174,1.4486,1.4486,0,0,1,0-2.41321,4.73306,4.73306,0,0,1,2.57584-.85162l.17092-.01184V64.57211h-1.64806v-.7334h.17092q.32961.03543,2.36831.03546t2.3683-.03546h.17092v.7334h-1.648V65.826l.17091.01184a4.733,4.733,0,0,1,2.57584.85162,1.4486,1.4486,0,0,1,0,2.41321,4.733,4.733,0,0,1-2.57584.85174l-.17091.01178v1.25391h1.648v.73346Z"/>
    <path d="M350.55335,65.86148q0-.20115.08545-.24842a1.03648,1.03648,0,0,1,.40287-.0473h.42726a6.86848,6.86848,0,0,1,.83014.02362.73913.73913,0,0,1,.354.20111.95.95,0,0,1,.20754.37854,1.8624,1.8624,0,0,1,.08545.414q.01221.17744.04883.47321a2.94861,2.94861,0,0,0,.28078,1.39581,1.43951,1.43951,0,0,0,.73247.698,1.38127,1.38127,0,0,0,.3174.13007q.01221,0,.01221-2.354v-2.354h-1.64806v-.7334h.17092q.32961.03543,2.36831.03546t2.36831-.03546h.17091v.7334h-1.64805v4.708l.02441-.01184a.79922.79922,0,0,1,.10987-.02362.863.863,0,0,0,.25636-.13013,3.72382,3.72382,0,0,0,.34182-.24848,1.39072,1.39072,0,0,0,.31741-.43762,2.27758,2.27758,0,0,0,.21974-.66247,2.85412,2.85412,0,0,0,.04883-.47315q.01221-.30762.03662-.54413t.07325-.49682a.81644.81644,0,0,1,.20753-.42584.89234.89234,0,0,1,.39065-.23664,6.86838,6.86838,0,0,1,.83013-.02362h.48831a.80143.80143,0,0,1,.354.0473q.07326.04734.07325.24842a.33478.33478,0,0,1-.061.23657.26671.26671,0,0,1-.15871.071.40341.40341,0,0,0-.18312.071.60984.60984,0,0,0-.1709.26025,1.70683,1.70683,0,0,0-.08546.62695,2.71109,2.71109,0,0,1-2.527,2.75623q-.51273.08276-.57377.08276a6.05031,6.05031,0,0,0-.0122.627v.62695h1.64805v.73346h-.17091q-.32962-.03552-2.36831-.03552t-2.36831.03552h-.17092v-.73346h1.64806V69.96621l-.12209-.01178a4.35408,4.35408,0,0,1-1.47714-.40222,2.651,2.651,0,0,1-1.526-2.43683,2.19437,2.19437,0,0,0-.08546-.61511.55255.55255,0,0,0-.15869-.27209.31586.31586,0,0,0-.18312-.05915.1993.1993,0,0,1-.1587-.071A.41094.41094,0,0,1,350.55335,65.86148Z"/>
    <path d="M362.39491,68.5231a1.74665,1.74665,0,0,1,.09767-.54419,2.13033,2.13033,0,0,1,.34182-.61511,1.81482,1.81482,0,0,1,.72025-.53235,2.69951,2.69951,0,0,1,1.11091-.21289h.12208a4.2079,4.2079,0,0,1,.45168.02368,3.37392,3.37392,0,0,1,.54936.11828.9919.9919,0,0,1,.51273.3194.94177.94177,0,0,1,.19532.57959.86887.86887,0,0,1-.24416.61511.80213.80213,0,0,1-.61039.26032.58779.58779,0,0,1-.42726-.15381.56327.56327,0,0,1-.17092-.39038.69434.69434,0,0,1,.08546-.34308.84487.84487,0,0,1,.18312-.23657l.08545-.08283q0-.01172-.06105-.03546a1.20834,1.20834,0,0,0-.23194-.0473,2.8787,2.8787,0,0,0-.39064-.02368,2.09114,2.09114,0,0,0-.63481.08276.77026.77026,0,0,0-.37844.23664.75248.75248,0,0,0-.1465.24841,1.483,1.483,0,0,0-.03662.20111.36848.36848,0,0,0,.12208.272,2.20034,2.20034,0,0,0,.89116.26032,2.72533,2.72533,0,0,1,1.07429.3548,1.27079,1.27079,0,0,1,.65923,1.10015,1.75741,1.75741,0,0,1-.04884.39038,2.09,2.09,0,0,1-.21974.52051,2.00675,2.00675,0,0,1-.46389.55591,2.49885,2.49885,0,0,1-.81792.42584,3.85516,3.85516,0,0,1-1.233.17749,2.78948,2.78948,0,0,1-1.63584-.35492,1.019,1.019,0,0,1-.46391-.81616.98663.98663,0,0,1,.293-.72162.96023.96023,0,0,1,.70806-.29571.72762.72762,0,0,1,.4639.15375.63908.63908,0,0,1,.20753.50866,1.03888,1.03888,0,0,1-.50053.76892,2.46852,2.46852,0,0,0,1.01326.15375,2.76839,2.76839,0,0,0,.8179-.10644,1.06664,1.06664,0,0,0,.48833-.2721,1.55146,1.55146,0,0,0,.21974-.30756.48991.48991,0,0,0,.061-.272.48154.48154,0,0,0-.34182-.43768,3.11307,3.11307,0,0,0-.80573-.22479q-.46387-.07088-.4883-.07093a1.527,1.527,0,0,1-.83012-.485A1.21348,1.21348,0,0,1,362.39491,68.5231Z"/>
    <path d="M287.72439,94.83043c0,1.57122-1.02458,4.8248-12.01476,4.8248-3.18666,0-6.26876-.03806-12.22386-.29993-4.31578-.18727-6.8835-.29841-9.14176-.29841-4.00631,0-8.32209.11114-8.93684,3.36472h-1.74806c-.61475-3.25358-5.03089-3.36472-8.83229-3.36472-2.36281,0-4.83016.0746-9.14176.26187-6.06383.26187-9.2463.33647-12.3284.33647-10.99019,0-12.019-3.29164-12.019-4.8248h1.23368c1.12913,2.6933,5.03508,2.99171,9.65614,2.99171,3.18247,0,7.29333-.18727,10.066-.29841,2.87718-.11266,8.01262-.44914,10.6849-.44914,5.34035,0,10.066.89676,11.4,3.14092h.30946c1.4386-2.24416,6.16421-3.14092,11.50457-3.14092,2.66808,0,7.80771.26187,10.58034.41108,2.873.1492,6.98387.33647,10.16634.33647,4.42033,0,8.32209-.33647,9.55577-2.99171Z"/>
    <path d="M192.56209,58.2687l-.32336.33463-3.0822-3.07093-3.07093,3.07093-.32289-.33463,3.07046-3.0479-3.07046-3.07046.32289-.3351,3.08221,3.08221,3.07092-3.05918.31161.31207-3.05918,3.05918Z"/>
    <path d="M311.55731,77.05944c-1.1146,0-3.42264-.51415-3.42264-6.02919,0-1.59911.027-3.14576.21276-6.13412.13285-2.16573.21169-3.45425.21169-4.58747,0-2.01043-.07884-4.17616-2.38689-4.48465v-.8772c2.308-.30849,2.38689-2.52458,2.38689-4.43218,0-1.18569-.05292-2.42385-.18577-4.58747-.18576-3.04293-.23868-4.63994-.23868-6.18659,0-5.515,2.335-6.03129,3.42264-6.03129v.61908c-1.91059.56661-2.12228,2.52668-2.12228,4.8456,0,1.597.13285,3.6599.21169,5.05125.07992,1.44382.31861,4.02086.31861,5.36185,0,2.67988-.63614,5.05126-2.22812,5.7207v.1553c1.592.72191,2.22812,3.09329,2.22812,5.77316,0,1.33889-.18576,3.918-.29161,5.30939-.10584,1.44171-.23869,3.50461-.23869,5.10162,0,2.21819.23869,4.17615,2.12228,4.79523Z"/>
    <path d="M61.77989,80.24093q0-.07251-.69113-.09668a3.48314,3.48314,0,0,1-.37588-.01209q-.08487-.012-.08488-.12079,0-.01217.02425-.13293.01212-.03634.02426-.08466a.364.364,0,0,0,.01211-.06036.211.211,0,0,1,.02426-.06043q.02424-.04833.02424-.03625t.04851-.02417q.04851-.03626.06062-.02417t.097,0a1.05484,1.05484,0,0,1,.1455-.01209h.36375q.291,0,.54562.01209h1.10338a.24223.24223,0,0,1,.194.06036q.01214.04834.44864,3.4079l.4365,3.37164.27887-.44708q.291-.43506.776-1.20849t1.067-1.69184q2.12187-3.3717,2.14613-3.39581l.03638-.03632a.18957.18957,0,0,1,.0485-.03619l.07274-.02417h1.649a2.97027,2.97027,0,0,0,.35162-.01209q.41225,0,.41225.13294a.98815.98815,0,0,1-.03637.20544q-.03638.145-.03637.15711-.04851.07251-.44864.07245a5.42638,5.42638,0,0,0-.61837.03625.347.347,0,0,0-.21825.133q-.03638.06033-.873,3.41992t-.84876,3.39581a.09539.09539,0,0,0,.01213.06043.47419.47419,0,0,0,.08488.04834.39149.39149,0,0,0,.20613.02417,1.94557,1.94557,0,0,1,.40012.02417h.37588a.43428.43428,0,0,1,.07274.13293.79719.79719,0,0,1-.08487.36249.266.266,0,0,1-.194.06048q-.06063,0-.49713-.01214t-1.1155-.012h-1.1155a3.6123,3.6123,0,0,0-.42438.012q-.20613,0-.20613-.12079,0-.02416.02425-.16925.04851-.19336.097-.21747a1.00874,1.00874,0,0,1,.27888-.03625q.32737,0,.7275-.03632a.322.322,0,0,0,.23038-.145q.02426-.04833.46075-1.76434t.86088-3.42l.42437-1.70392L66.20552,83.951q-2.37651,3.77042-2.43713,3.83075l-.0485.02423a.3939.3939,0,0,1-.194.03625q-.18186,0-.21824-.08459-.02426-.04834-.49713-3.74628l-.47288-3.71-.8245,3.26288q-.81237,3.21452-.81237,3.32324.07275.39881.873.39881H61.695a.23431.23431,0,0,1,.08489.1087.56419.56419,0,0,1-.03639.21759q-.04848.19337-.097.21747a.57322.57322,0,0,1-.13337.01214h-.1455q-.12124,0-.41225-.01214t-.776-.012q-.36375,0-.75176.012-.388.01218-.44862.01214a.65653.65653,0,0,1-.23038-.02417q-.0485-.02417-.0485-.10876a1.2793,1.2793,0,0,1,.03638-.16925.73452.73452,0,0,1,.06062-.18121q.02426-.07251.26676-.07251.84873,0,1.07912-.4834.04851-.07251.83662-3.23865T61.77989,80.24093Z"/>
    <path d="M282.65907,99.70445h-.09455a2.771,2.771,0,0,1-.35459-.01209q-.0591-.012-.0591-.13293,0-.32621.13-.3988.02364-.012,1.1465-.012h1.04012q.13,0,.16547.07251,2.49393,5.994,2.54122,6.15106l.63825-2.574q.62643-2.54984.62644-2.71906,0-.32621-.75645-.37463-.28368,0-.28367-.13287a1.23179,1.23179,0,0,1,.02363-.145,1.08849,1.08849,0,0,1,.07092-.22962q.02364-.03625.1182-.04834.03546,0,.36641.012t.981.02423q.591,0,.89829-.01209t.35458-.01214q.1773,0,.1773.12091a.52257.52257,0,0,1-.09456.36248q-.02364.06052-.26.06043-.83919.04835-1.05194.4834l-1.76112,7.13q-.02364.08451-.24821.0846a.47344.47344,0,0,1-.20093-.02423q-.03546-.03616-1.52472-3.66163l-1.5011-3.61334-.76827,3.142q-.76826,3.09366-.76827,3.20246.0591.39879.851.39874h.1182q.07092.06051.07091.09668,0,.03634-.02363.22967a.55777.55777,0,0,1-.11821.22962h-.15364q-.3664-.02418-1.27652-.02423h-1.04012a.92258.92258,0,0,0-.20093.01208q-.17732,0-.1773-.10876a1.03662,1.03662,0,0,1,.03546-.19336.50263.50263,0,0,1,.0591-.16913q.02364-.07251.27185-.07257a1.14334,1.14334,0,0,0,1.04012-.47125q.04728-.07251.83919-3.34748l.80373-3.287Q283.28551,99.72872,282.65907,99.70445Z"/>
  </g>
</svg>
